<svg width="547" height="296" viewBox="0 0 547 296" fill="none" xmlns="http://www.w3.org/2000/svg">
<g clip-path="url(#clip0_1018_260)">
<path d="M407.761 240C395.599 201.4 380.376 116.474 377.947 103.019L377.841 101.038C383.878 97.4689 404.927 83.6387 407.761 73.8416C410.876 62.5276 411.281 40.7741 388.401 39.2929C380.293 38.7284 372.146 39.2806 364.184 40.9347C355.894 23.9995 341.797 8.67027 317.104 1.83549C306.403 -1.09115 288.821 0.158022 273.878 0.996755C260.344 0.372167 246.405 0.372168 236.091 2.88837C226.93 4.99197 218.269 8.91327 210.609 14.4263C202.948 19.9392 196.44 26.9349 191.458 35.0101C189.701 36.7546 188.032 38.5891 186.46 40.5064C178.299 38.7339 169.934 38.1332 161.609 38.7219C138.729 40.1852 139.186 61.9209 142.425 73.2527C144.501 80.5158 156.505 89.9917 165.129 95.8628C165.129 96.9157 165.129 97.4867 165.129 97.4867C162.348 142.493 148.024 196.6 136.461 240H407.761Z" fill="white"/>
<path fill-rule="evenodd" clip-rule="evenodd" d="M264.012 157.2C264.124 156.057 265.022 155.235 266.017 155.365C268.101 155.637 273.33 156.178 277.539 156.178H277.548L277.557 156.179C283.187 156.242 286.8 155.832 289.468 155.53C290.027 155.467 290.545 155.408 291.03 155.36C292.028 155.26 292.906 156.108 292.993 157.254C293.08 158.401 292.342 159.411 291.345 159.51C290.886 159.556 290.388 159.613 289.843 159.675C287.171 159.978 283.365 160.41 277.53 160.345C273.128 160.344 267.752 159.784 265.608 159.505C264.614 159.375 263.899 158.344 264.012 157.2Z" fill="#C6D6F5"/>
<path d="M280.39 129.376C280.39 129.376 256.402 130.999 251.298 108.713C246.194 86.4263 257.757 84.8205 261.4 84.6088C272.03 84.0747 282.679 84.0747 293.309 84.6088C307.864 85.4205 305.435 105.078 303.622 110.742C301.809 116.406 298.166 127.947 280.39 129.376Z" fill="#232425"/>
<path d="M221.201 65.5692C224.769 65.5692 227.661 62.6698 227.661 59.0932C227.661 55.5166 224.769 52.6172 221.201 52.6172C217.634 52.6172 214.742 55.5166 214.742 59.0932C214.742 62.6698 217.634 65.5692 221.201 65.5692Z" fill="#232425"/>
<path d="M331.5 63.5399C335.067 63.5399 337.959 60.6405 337.959 57.0639C337.959 53.4873 335.067 50.5879 331.5 50.5879C327.933 50.5879 325.041 53.4873 325.041 57.0639C325.041 60.6405 327.933 63.5399 331.5 63.5399Z" fill="#232425"/>
<path d="M390.883 69.8217C390.883 69.8217 398.556 63.5575 396.163 57.6814C393.769 51.8054 388.472 50.6231 385.603 51.3995C382.459 52.4991 379.481 54.025 376.75 55.9345C374.99 57.6991 374.726 61.4047 376.539 64.4574C377.617 66.7553 379.048 68.8692 380.781 70.7217C380.992 71.0393 384.212 74.6919 390.883 69.8217Z" fill="#232425"/>
<path d="M159.18 69.2218C159.18 69.2218 151.507 62.9399 153.9 57.0638C156.294 51.1878 161.574 50.0055 164.46 50.7996C167.583 51.8689 170.545 53.3652 173.26 55.2463C175.02 57.0109 175.284 60.7165 173.454 63.7516C172.405 66.0599 170.997 68.1864 169.282 70.0511C169.089 70.4393 165.85 74.0743 159.18 69.2218Z" fill="#232425"/>
<path d="M537.063 228.759C534.531 224.195 531.766 219.765 528.779 215.486C526.383 207.506 505.246 202.498 481.408 197.307C457.57 192.116 451.134 196.9 445.692 199.831C444.433 202.763 431.316 209.216 425.387 215.344C415.743 224.893 410.155 237.812 409.793 251.397C408.636 270.879 432.859 268.07 432.859 268.07C431.499 284.132 448.25 278.371 448.25 278.371C455.479 290.85 468.25 279.918 468.25 279.918C469.672 285.862 472.474 285.13 478.159 285.862C480.544 286.379 483.035 285.931 485.092 284.616C487.149 283.3 488.605 281.225 489.144 278.839C489.692 281.506 490.322 285.191 496.637 284.946C503.967 284.763 519.114 281.058 525.063 272.162C529.26 264.357 532.811 256.221 535.683 247.834C538.627 238.714 538.85 232.607 537.063 228.759Z" fill="#F9F6FF"/>
<path d="M418.991 255.244C421.387 255.529 420.92 258.257 420.859 258.502C420.798 258.746 420.331 262.085 418.342 268.457C416.758 272.915 415.479 272.528 415.479 272.528C413.225 272.141 413.326 268.843 413.286 267.846C413.245 266.848 415.702 256.751 415.702 256.751C416.311 253.921 418.991 255.244 418.991 255.244Z" fill="#232425"/>
<path d="M441.225 270.207C442.098 270.655 443.702 271.246 443.621 273.343C443.459 274.035 442.281 277.251 442.078 278.188C441.124 281.975 439.762 285.647 438.017 289.14C436.514 291.542 435.073 289.608 434.809 289.14C434.302 287.181 434.157 285.146 434.382 283.135C435.154 279.42 436.192 275.767 437.489 272.202C437.593 271.819 437.774 271.46 438.021 271.149C438.268 270.838 438.577 270.582 438.927 270.395C439.277 270.208 439.661 270.095 440.057 270.062C440.452 270.03 440.85 270.08 441.225 270.207Z" fill="#232425"/>
<path d="M460.169 274.34C462.564 275.236 463.255 275.378 462.828 278.412C462.564 280.834 458.24 289.893 456.737 292.906C454.828 296.55 453.488 295.39 453.488 295.39C450.747 292.703 452.351 286.392 452.351 286.392L454.097 278.982C455.519 274.442 457.712 273.444 460.169 274.34Z" fill="#232425"/>
<path d="M481.692 278.676C482.586 279.735 483.601 280.712 479.052 288.102C474.504 295.491 472.961 295.044 472.129 294.983C471.296 294.921 469.875 294.005 471.174 290.341C472.474 286.677 477.083 277.801 477.083 277.801C478.443 276.254 480.819 277.618 481.692 278.676Z" fill="#232425"/>
<path d="M501.936 274.564C502.585 274.951 504.23 275.928 503.398 277.475C502.565 279.022 499.337 286.127 496.413 288.061C493.489 289.995 493.55 287.063 493.996 285.557C494.443 284.051 498.768 274.991 498.768 274.991C499.255 273.851 501.286 274.177 501.936 274.564Z" fill="#232425"/>
<path d="M11.1239 230.905C13.5986 226.456 16.2956 222.135 19.2046 217.958C21.5417 210.174 42.1594 205.289 65.3914 200.245C88.6234 195.202 94.9414 199.828 100.249 202.708C101.457 205.547 114.272 211.842 120.055 217.819C129.459 227.136 134.909 239.736 135.266 252.986C136.395 271.99 112.747 269.269 112.747 269.269C114.093 284.917 97.734 279.198 97.734 279.198C90.703 291.39 78.2452 280.707 78.2452 280.707C76.8588 286.505 74.1257 285.81 68.5801 286.505C66.2537 287.014 63.8209 286.58 61.8132 285.296C59.8055 284.012 58.3861 281.984 57.8652 279.655C57.3305 282.276 56.7165 285.85 50.5569 285.612C43.4071 285.433 28.6321 281.839 22.829 273.141C18.7268 265.498 15.2622 257.528 12.4707 249.313C9.59886 240.615 9.381 234.638 11.1239 230.905Z" fill="#F9F6FF"/>
<path d="M126.293 256.72C123.956 256.978 124.312 259.658 124.471 259.877C124.629 260.095 124.986 263.392 126.927 269.587C128.472 273.956 129.719 273.558 129.719 273.558C131.918 273.201 131.819 269.964 131.839 268.991C131.858 268.018 129.462 258.189 129.462 258.189C128.907 255.429 126.293 256.72 126.293 256.72Z" fill="#232425"/>
<path d="M104.606 271.315C103.754 271.751 102.189 272.327 102.269 274.353C102.427 275.048 103.576 278.165 103.774 279.079C104.704 282.78 106.032 286.368 107.735 289.782C109.2 292.105 110.607 290.239 110.864 289.782C111.368 287.839 111.509 285.819 111.28 283.825C110.527 280.202 109.515 276.638 108.25 273.161C108.143 272.793 107.962 272.45 107.717 272.154C107.472 271.859 107.17 271.617 106.828 271.444C106.486 271.271 106.112 271.17 105.73 271.148C105.348 271.125 104.965 271.182 104.606 271.315Z" fill="#232425"/>
<path d="M86.1875 275.326C83.8504 276.199 83.177 276.358 83.5929 279.297C83.8504 281.64 88.0492 290.477 89.5346 293.416C91.3963 296.99 92.7035 295.858 92.7035 295.858C95.3773 293.217 93.8126 287.061 93.8126 287.061L92.1094 279.833C90.6635 275.445 88.5245 274.452 86.1875 275.326Z" fill="#232425"/>
<path d="M65.1141 279.555C64.2624 280.588 63.2721 281.541 67.7086 288.749C72.1451 295.957 73.6503 295.54 74.4623 295.481C75.2744 295.421 76.6608 294.508 75.3932 290.933C74.1256 287.359 69.6297 278.701 69.6297 278.701C68.2235 277.192 66.0845 278.562 65.1141 279.555Z" fill="#232425"/>
<path d="M45.3878 275.544C44.754 275.941 43.1498 276.875 43.9618 278.384C44.7739 279.893 47.9229 286.823 50.775 288.709C53.627 290.596 53.5676 287.736 53.1318 286.267C52.6961 284.798 48.4775 275.961 48.4775 275.961C48.0022 274.869 46.0216 275.167 45.3878 275.544Z" fill="#232425"/>
</g>
<defs>
<clipPath id="clip0_1018_260">
<rect width="547" height="296" fill="white"/>
</clipPath>
</defs>
</svg>
