<?xml version="1.0" encoding="UTF-8"?><svg id="Layer_2" xmlns="http://www.w3.org/2000/svg" xmlns:xlink="http://www.w3.org/1999/xlink" viewBox="0 0 1920 1632.53"><defs><clipPath id="clippath"><path d="M1606,1009.89c0,267.09-330.58,481.34-738.38,481.34S129.25,1275.72,129.25,1009.89V0H1606V1009.89Z" style="fill:none;"/></clipPath><linearGradient id="linear-gradient" x1="296.14" y1="643.77" x2="1539.61" y2="1440.39" gradientUnits="userSpaceOnUse"><stop offset="0" stop-color="#91d7ef"/><stop offset=".72" stop-color="#77c3e5"/></linearGradient><clipPath id="clippath-1"><ellipse cx="867.63" cy="1009.89" rx="738.38" ry="481.34" style="fill:none;"/></clipPath><linearGradient id="linear-gradient-2" x1="68.88" y1="815.52" x2="659.83" y2="1150.21" gradientUnits="userSpaceOnUse"><stop offset=".27" stop-color="#91d7ef"/><stop offset=".66" stop-color="#77c3e5"/></linearGradient><linearGradient id="linear-gradient-3" x1="771.63" y1="1125.38" x2="1172.66" y2="1125.38" gradientUnits="userSpaceOnUse"><stop offset="0" stop-color="#cce5dc" stop-opacity="0"/><stop offset=".32" stop-color="#c4dbd2" stop-opacity=".02"/><stop offset=".33" stop-color="#c5dcd3" stop-opacity=".05"/><stop offset=".35" stop-color="#c9dfd6" stop-opacity=".14"/><stop offset=".38" stop-color="#cfe4dc" stop-opacity=".28"/><stop offset=".41" stop-color="#d8ebe4" stop-opacity=".47"/><stop offset=".44" stop-color="#e3f4ee" stop-opacity=".72"/><stop offset=".47" stop-color="#f0fffa"/><stop offset=".59" stop-color="#f0fffa"/><stop offset=".62" stop-color="#ebfcf6" stop-opacity=".89"/><stop offset=".68" stop-color="#e3f6ef" stop-opacity=".66"/><stop offset=".74" stop-color="#dcf0e9" stop-opacity=".46"/><stop offset=".8" stop-color="#d6ece4" stop-opacity=".29"/><stop offset=".85" stop-color="#d1e9e0" stop-opacity=".16"/><stop offset=".91" stop-color="#cee6de" stop-opacity=".07"/><stop offset=".96" stop-color="#cce5dc" stop-opacity=".02"/><stop offset="1" stop-color="#cce5dc" stop-opacity="0"/></linearGradient><linearGradient id="linear-gradient-4" x1="372.42" y1="6.03" x2="1430.83" y2="653.23" gradientUnits="userSpaceOnUse"><stop offset=".18" stop-color="#c4dbd2" stop-opacity=".02"/><stop offset=".18" stop-color="#c4dbd2" stop-opacity=".06"/><stop offset=".2" stop-color="#c6dcd3" stop-opacity=".15"/><stop offset=".21" stop-color="#c9ddd5" stop-opacity=".31"/><stop offset=".23" stop-color="#ccdfd8" stop-opacity=".53"/><stop offset=".25" stop-color="#d1e1dc" stop-opacity=".81"/><stop offset=".26" stop-color="#d5e3df"/><stop offset=".34" stop-color="#d5e3de"/><stop offset=".44" stop-color="#d2e3dd" stop-opacity=".74"/><stop offset=".54" stop-color="#d0e3dd" stop-opacity=".51"/><stop offset=".65" stop-color="#cee4dc" stop-opacity=".33"/><stop offset=".74" stop-color="#cde4dc" stop-opacity=".18"/><stop offset=".84" stop-color="#cce4dc" stop-opacity=".08"/><stop offset=".92" stop-color="#cce4dc" stop-opacity=".02"/><stop offset="1" stop-color="#cce5dc" stop-opacity="0"/></linearGradient></defs><g id="Artwork"><rect width="1920" height="1632.53" style="fill:none;"/><g style="clip-path:url(#clippath);"><g><g><rect x="506.1" y="170.37" width="258.89" height="432.81" style="fill:#d3ede1;"/><rect x="765.09" y="170.37" width="258.89" height="432.81" style="fill:#e5fcf4;"/><rect x="752.23" y="230.02" width="21.83" height="373.16" style="fill:#f0fffa;"/><rect x="774.06" y="230.02" width="16.15" height="373.16" style="fill:#e9fff8;"/><rect x="733.79" y="230.02" width="18.44" height="373.16" style="fill:#e1f6ee;"/><rect x="722.15" y="230.02" width="11.64" height="373.16" style="fill:#d7f0e5;"/><path d="M1012.93,155.04L790.77,26.78c-14.66-8.46-38.36-8.46-52.92,0l-220.71,128.26c-14.57,8.47-14.49,22.19,.17,30.65l222.15,128.26c14.67,8.47,38.35,8.47,52.92,0l220.71-128.26c14.56-8.46,14.49-22.19-.17-30.65" style="fill:#fff;"/><path d="M850.49,119.91l-3.83-2.21c-45.33-26.17-118.58-26.17-163.61,0l-3.81,2.21c-45.03,26.17-44.79,68.6,.53,94.77l3.83,2.21c45.33,26.17,118.58,26.17,163.61,0l3.81-2.21c45.03-26.17,44.79-68.6-.53-94.77" style="fill:#f16775;"/><path d="M880.82,138.21h-8.49c-5.69-8.13-14.25-15.76-25.66-22.35-45.33-26.17-118.58-26.17-163.61,0-11.34,6.59-19.81,14.21-25.41,22.35h-8.19v23.47c-.03,.82-.02,1.64,0,2.47v1.16h.05c.96,16.46,12.32,32.77,34.08,45.33,45.33,26.17,118.58,26.17,163.61,0,21.62-12.56,32.8-28.87,33.57-45.33h.05v-27.09Z" style="fill:#f9b4b1;"/><path d="M846.67,92.42c-45.33-26.17-118.58-26.17-163.61,0-45.03,26.17-44.79,68.6,.54,94.77,45.33,26.17,118.58,26.17,163.61,0,45.04-26.17,44.79-68.6-.53-94.77" style="fill:#fcdfac;"/><path d="M742.89,155.64c2.12-3.18,4.18-7.38,7.05-13.24l5.73-12.04c4.06-8.6,8.11-16.22,16.86-21.3,7.33-4.26,15.8-5.9,24.15-6.15l.72,.41c-1.84,.73-4.24,1.63-6.49,2.95-6.35,3.52-9,8.69-14.45,20.4l-5.74,12.04c-2.1,4.34-4.19,8.36-6.86,11.92m76.92-44.8c-21.25-24.21-65.53-17.58-84.53,.35-6.52,6.16-12.23,12.21-15.73,20.48l-6.43,14.91c-3.76,8.76-4.31,9.79-11.22,13.81-2.26,1.31-6.14,1.45-7.56,1.77-6.08-1.07-10.76,.11-14.59-1.77l-6.32-4.55c-3.83-2.21-15.05-7.11-15.05-7.11l-.04,10.98c-.15,1.95,1.29,4.17,4.96,6.29,14.61,8.44,63.16,14.91,85.44,1.96,7.61-4.42,12.53-12.21,16.15-20.57l6.42-14.91c3.78-8.6,5.85-17.04,12.62-20.97,2.68-1.56,4.51-1.96,6.2-2.46,6.23,1.15,11.76,3.03,15.73,4.83l5.15,9.5c3.69,2.13,9.2,1.89,12.45,0,1.74-1.01,2.75-2.34,2.85-3.83v-10.94l-6.52,2.21Z" style="fill:#f9b4b1;"/><path d="M729,155.06c1.84-.73,4.23-1.64,6.49-2.95,6.2-3.61,8.72-8.68,14.45-20.4l5.73-12.04c4.06-8.6,8.11-16.22,16.86-21.3,7.33-4.26,15.8-5.9,24.15-6.15l.72,.41c-1.84,.73-4.24,1.63-6.49,2.95-6.35,3.52-9,8.69-14.45,20.4l-5.74,12.04c-4.19,8.69-8.39,16.06-17.14,21.14-7.33,4.26-15.66,5.98-24.01,6.23l-.57-.33m113.11-57.68c-13.76-7.95-63.45-14.91-85.87-1.88-7.75,4.51-12.23,12.21-15.73,20.48l-6.43,14.91c-3.76,8.76-6.68,17.37-13.59,21.38-2.26,1.31-3.96,1.64-5.37,1.97-6.08-1.07-11.75-2.87-15.58-4.75l-5.14-9.34c-3.83-2.21-8.93-1.88-12.17,0-3.95,2.29-4.49,6.39,2.04,10.16,14.61,8.44,63.16,14.91,85.44,1.96,7.61-4.42,12.53-12.21,16.15-20.57l6.42-14.91c3.78-8.6,5.85-17.04,12.62-20.97,2.68-1.56,4.51-1.96,6.2-2.46,6.23,1.15,11.76,3.03,15.73,4.83l5.15,9.5c3.69,2.13,9.2,1.89,12.45,0,4.09-2.37,4.2-6.56-2.32-10.32" style="fill:#fff;"/></g><ellipse cx="867.63" cy="1009.89" rx="738.38" ry="481.34" style="fill:url(#linear-gradient);"/><g style="clip-path:url(#clippath-1);"><rect x="129.25" y="676.55" width="654.48" height="716.99" style="fill:url(#linear-gradient-2);"/></g><path d="M1605,385.26H988.86c-1.99-.15-3.98-.15-5.97,0H366.4V1450.2h.12c-1.07,14.57,5.56,29.63,19.95,38.08l579.05,116.68c12.64,7.41,28.29,7.45,40.96,.08l578.31-113.07c15.68-9.11,22.21-26.09,19.65-41.77h.56V385.26Z" style="fill:#cce5dc;"/><path d="M982.89,385.26h-10.75V1608.07c11.21,4.09,23.8,3.1,34.33-3.02l578.31-113.07c15.68-9.11,22.21-26.09,19.65-41.77h.56V385.26H988.86c-1.99-.15-3.98-.15-5.97,0Z" style="fill:#e5fcf4;"/><path d="M1172.66,657.46l-166.19,96.57c-12.67,7.36-28.32,7.33-40.96-.08l-193.88-113.73v921.01l193.88,43.73c12.64,7.41,28.29,7.45,40.96,.08l166.19-46.57V657.46Z" style="fill:url(#linear-gradient-3); opacity:.7;"/><path d="M1006.48,754.04l578.31-336.07c27.04-15.72,26.93-54.82-.21-70.37L1006.05,16.11c-12.45-7.13-27.73-7.17-40.22-.1L387,343.89c-27.23,15.42-27.53,54.55-.53,70.38l579.05,339.68c12.64,7.41,28.29,7.45,40.96,.08Z" style="fill:#fff;"/><path d="M986.06,760.53c-7.29,0-14.57-1.9-21.06-5.71L385.96,415.13c-12.99-7.62-20.68-21.16-20.56-36.22,.11-15.06,8-28.48,21.11-35.9L965.34,15.14c12.73-7.21,28.52-7.17,41.21,.1l578.53,331.49c13.06,7.48,20.88,20.94,20.93,35.99,.05,15.05-7.7,28.55-20.71,36.11l-578.31,336.07c-6.46,3.75-13.69,5.63-20.91,5.63Zm-.21-748.77c-6.75,0-13.5,1.71-19.53,5.12L387.49,344.76c-12.47,7.06-19.98,19.84-20.09,34.18-.11,14.33,7.21,27.22,19.57,34.48l579.05,339.68c12.31,7.22,27.62,7.25,39.96,.08h0l578.31-336.07c12.39-7.2,19.76-20.05,19.71-34.38-.04-14.33-7.49-27.13-19.92-34.26L1005.55,16.98c-6.07-3.48-12.88-5.22-19.7-5.22Z" style="fill:url(#linear-gradient-4);"/><path d="M990.3,711.78l552.87-321.29c5.77-3.35,5.74-11.69-.05-15L990.21,58.68c-2.65-1.52-5.91-1.53-8.57-.02L428.26,372.11c-5.81,3.29-5.87,11.63-.11,15.01l553.42,324.65c2.69,1.58,6.03,1.59,8.73,.02Z" style="fill:#7d899d;"/><path d="M988.55,706.84l549.49-319.32c3.46-2.01,3.45-7.01-.03-9L988.49,63.66c-1.59-.91-3.55-.92-5.15-.01L433.37,375.18c-3.48,1.97-3.52,6.98-.07,9.01l550.01,322.65c1.62,.95,3.62,.95,5.24,.01Z" style="fill:#385076;"/><polygon points="985.92 654.72 985.92 704.14 1533.3 386.05 1511.3 351.17 985.92 654.72" style="fill:#f8b3b0;"/><polygon points="985.92 654.72 985.92 704.14 438.04 382.75 460.54 351.17 985.92 654.72" style="fill:#e55e72;"/><path d="M1536.66,531.55l-15.79,8.17c-.9,.47-1.47,1.4-1.47,2.41v867.78c0,1.5,1.22,2.72,2.72,2.72h15.79c1.5,0,2.72-1.22,2.72-2.72V533.96c0-2.04-2.16-3.35-3.96-2.41Z" style="fill:#d1ebe1;"/><path d="M1566.87,514.6l-15.79,8.17c-.9,.47-1.47,1.4-1.47,2.41v867.78c0,1.5,1.22,2.72,2.72,2.72h15.79c1.5,0,2.72-1.22,2.72-2.72V517.01c0-2.04-2.16-3.35-3.96-2.41Z" style="fill:#d1ebe1;"/><line x1="423.87" y1="499.64" x2="423.87" y2="1450.2" style="fill:none; stroke:#daf0e8; stroke-linecap:round; stroke-miterlimit:10; stroke-width:4px;"/><line x1="1533.3" y1="539.84" x2="1533.3" y2="1490.39" style="fill:none; stroke:#e5fcf4; stroke-linecap:round; stroke-miterlimit:10; stroke-width:4px;"/><line x1="1566.21" y1="520.74" x2="1566.21" y2="1471.3" style="fill:none; stroke:#e5fcf4; stroke-linecap:round; stroke-miterlimit:10; stroke-width:4px;"/><line x1="438.04" y1="533.82" x2="438.04" y2="1484.38" style="fill:none; stroke:#daf0e8; stroke-linecap:round; stroke-miterlimit:10; stroke-width:4px;"/><polygon points="985.92 47.63 1511.3 351.17 985.92 654.72 460.54 351.17 985.92 47.63" style="fill:#f16775;"/><g><rect x="844.41" y="896" width="258.89" height="644.12" style="fill:#e9fff8;"/><rect x="831.55" y="955.65" width="21.83" height="584.48" style="fill:#f0fffa;"/><rect x="853.38" y="955.65" width="16.15" height="584.48" style="fill:#e9fff8;"/><rect x="813.11" y="955.65" width="18.44" height="584.48" style="fill:#e1f6ee;"/><rect x="801.47" y="955.65" width="11.64" height="584.48" style="fill:#d7f0e5;"/><path d="M1092.25,880.67l-222.15-128.26c-14.66-8.46-38.36-8.46-52.92,0l-220.71,128.26c-14.57,8.47-14.49,22.19,.17,30.65l222.15,128.26c14.67,8.47,38.35,8.47,52.92,0l220.71-128.26c14.56-8.46,14.49-22.19-.17-30.65" style="fill:#fff;"/><g><path d="M942.54,837.92l-4.41-2.54c-52.09-30.07-136.27-30.07-188.02,0l-4.38,2.54c-51.75,30.07-51.47,78.84,.61,108.91l4.41,2.54c52.09,30.07,136.27,30.07,188.02,0l4.38-2.54c51.75-30.07,51.47-78.83-.61-108.9" style="fill:#385076;"/><path d="M711.71,860.78l-.22,26.95c.11,19.71,13.2,39.42,39.25,54.45,52.09,30.07,136.27,30.07,188.02,0,25.88-15.04,38.75-34.75,38.63-54.46l-.05-26.96h-265.63Z" style="fill:#67b6df;"/><path d="M938.15,806.33c-52.09-30.08-136.27-30.07-188.02,0-51.75,30.07-51.47,78.83,.62,108.91,52.09,30.07,136.27,30.07,188.02,0,51.75-30.08,51.47-78.84-.61-108.91" style="fill:#91d7ee;"/><g><polygon points="841.8 903.11 796.3 878.46 796.31 886.27 842.7 913.45 846.51 913.45 892.59 886.27 892.59 878.46 846.84 903.28 841.8 903.11" style="fill:#67b6df;"/><polyline points="850 808.12 838.1 808.12 841.53 899.4 805.71 873.92 796.3 878.46 842.7 905.63 846.51 905.63 892.59 878.46 883.14 873.92 847.59 899.4 850 808.12" style="fill:#fff;"/></g></g></g></g></g></g></svg>