<?xml version="1.0" encoding="UTF-8"?><svg id="Layer_2" xmlns="http://www.w3.org/2000/svg" xmlns:xlink="http://www.w3.org/1999/xlink" viewBox="0 0 1920 1632.53"><defs><clipPath id="clippath"><path d="M1606,788.81c0,265.84-330.58,481.34-738.38,481.34S129.25,1054.65,129.25,788.81V143.56H1606V788.81Z" style="fill:none;"/></clipPath><linearGradient id="linear-gradient" x1="296.14" y1="422.69" x2="1539.61" y2="1219.31" gradientUnits="userSpaceOnUse"><stop offset="0" stop-color="#91d7ef"/><stop offset=".72" stop-color="#77c3e5"/></linearGradient><clipPath id="clippath-1"><ellipse cx="867.63" cy="788.81" rx="738.38" ry="481.34" style="fill:none;"/></clipPath><linearGradient id="linear-gradient-2" x1="68.88" y1="594.44" x2="659.83" y2="929.13" gradientUnits="userSpaceOnUse"><stop offset=".27" stop-color="#91d7ef"/><stop offset=".66" stop-color="#77c3e5"/></linearGradient><linearGradient id="linear-gradient-3" x1="745.71" y1="1207.11" x2="1146.74" y2="1207.11" gradientUnits="userSpaceOnUse"><stop offset="0" stop-color="#cce5dc" stop-opacity="0"/><stop offset=".32" stop-color="#c4dbd2" stop-opacity=".02"/><stop offset=".33" stop-color="#c5dcd3" stop-opacity=".05"/><stop offset=".35" stop-color="#c9dfd6" stop-opacity=".14"/><stop offset=".38" stop-color="#cfe4dc" stop-opacity=".28"/><stop offset=".41" stop-color="#d8ebe4" stop-opacity=".47"/><stop offset=".44" stop-color="#e3f4ee" stop-opacity=".72"/><stop offset=".47" stop-color="#f0fffa"/><stop offset=".59" stop-color="#f0fffa"/><stop offset=".62" stop-color="#ebfcf6" stop-opacity=".89"/><stop offset=".68" stop-color="#e3f6ef" stop-opacity=".66"/><stop offset=".74" stop-color="#dcf0e9" stop-opacity=".46"/><stop offset=".8" stop-color="#d6ece4" stop-opacity=".29"/><stop offset=".85" stop-color="#d1e9e0" stop-opacity=".16"/><stop offset=".91" stop-color="#cee6de" stop-opacity=".07"/><stop offset=".96" stop-color="#cce5dc" stop-opacity=".02"/><stop offset="1" stop-color="#cce5dc" stop-opacity="0"/></linearGradient><linearGradient id="linear-gradient-4" x1="339.48" y1="546.69" x2="1580.08" y2="546.69" gradientUnits="userSpaceOnUse"><stop offset="0" stop-color="#cce5dc" stop-opacity="0"/><stop offset=".32" stop-color="#c4dbd2" stop-opacity=".02"/><stop offset=".34" stop-color="#c4dbd2" stop-opacity=".06"/><stop offset=".36" stop-color="#c6dcd3" stop-opacity=".15"/><stop offset=".38" stop-color="#c9ddd5" stop-opacity=".31"/><stop offset=".41" stop-color="#ccdfd8" stop-opacity=".53"/><stop offset=".45" stop-color="#d1e1dc" stop-opacity=".81"/><stop offset=".47" stop-color="#d5e3df"/><stop offset=".59" stop-color="#d5e3de"/><stop offset=".66" stop-color="#d2e3dd" stop-opacity=".74"/><stop offset=".72" stop-color="#d0e3dd" stop-opacity=".51"/><stop offset=".78" stop-color="#cee4dc" stop-opacity=".33"/><stop offset=".84" stop-color="#cde4dc" stop-opacity=".18"/><stop offset=".9" stop-color="#cce4dc" stop-opacity=".08"/><stop offset=".95" stop-color="#cce4dc" stop-opacity=".02"/><stop offset="1" stop-color="#cce5dc" stop-opacity="0"/></linearGradient></defs><g id="Artwork"><rect width="1920" height="1632.53" style="fill:none;"/><g style="clip-path:url(#clippath);"><g><ellipse cx="867.63" cy="788.81" rx="738.38" ry="481.34" style="fill:url(#linear-gradient);"/><g style="clip-path:url(#clippath-1);"><rect x="129.25" y="455.47" width="654.48" height="716.99" style="fill:url(#linear-gradient-2);"/></g><g><path d="M976.81,355.28h-178.15c-.57-.15-1.15-.15-1.73,0h-282.32v365.34h.03c-.31,14.57,1.61,29.63,5.77,38.08l271.5,528.3c3.65,7.41,8.18,7.45,11.84,.08l167.22-336.07c4.53-9.11,6.42-26.09,5.68-41.77h.16V355.28Z" style="fill:#cce5dc;"/><path d="M753.46,497.88l215.81-125.41c10.09-5.86,10.05-20.46-.08-26.26l-215.88-123.7c-4.65-2.66-10.35-2.68-15.01-.04l-216,122.35c-10.16,5.76-10.27,20.36-.2,26.26l216.08,126.76c4.72,2.77,10.56,2.78,15.29,.03Z" style="fill:#e5fcf4;"/><path d="M753.09,491.21l205.35-119.34c9.6-5.58,9.56-19.47-.08-24.99l-205.43-117.71c-4.42-2.53-9.85-2.55-14.28-.04l-205.54,116.43c-9.67,5.48-9.77,19.37-.19,24.99l205.61,120.62c4.49,2.63,10.05,2.64,14.55,.03Z" style="fill:#d1ebe1;"/></g><path d="M1579.08,546.8H962.94c-1.99-.15-3.98-.15-5.97,0H340.48v682.32h.12c-1.07,14.57,5.56,29.63,19.95,38.08l579.05,339.68c12.64,7.41,28.29,7.45,40.96,.08l578.31-336.07c15.68-9.11,22.21-26.09,19.65-41.77h.56V546.8Z" style="fill:#cce5dc;"/><path d="M956.97,546.8h-10.75V1609.98c11.21,4.09,23.8,3.1,34.33-3.02l578.31-336.07c15.68-9.11,22.21-26.09,19.65-41.77h.56V546.8H962.94c-1.99-.15-3.98-.15-5.97,0Z" style="fill:#e5fcf4;"/><path d="M1146.74,819.01l-166.19,96.57c-12.67,7.36-28.32,7.33-40.96-.08l-193.88-113.73v691.38l193.88,113.73c12.64,7.41,28.29,7.45,40.96,.08l166.19-96.57V819.01Z" style="fill:url(#linear-gradient-3); opacity:.7;"/><path d="M980.56,915.58l578.31-336.07c27.04-15.72,26.93-54.82-.21-70.37L980.13,177.66c-12.45-7.13-27.73-7.17-40.22-.1L361.08,505.43c-27.23,15.42-27.53,54.55-.53,70.38l579.05,339.68c12.64,7.41,28.29,7.45,40.96,.08Z" style="fill:#fff;"/><path d="M960.15,922.07c-7.29,0-14.57-1.9-21.06-5.71L360.04,576.68c-12.99-7.62-20.68-21.16-20.56-36.22,.11-15.06,8-28.48,21.11-35.9L939.42,176.69c12.73-7.21,28.52-7.17,41.21,.1l578.53,331.49c13.06,7.48,20.88,20.94,20.93,35.99,.05,15.05-7.7,28.55-20.71,36.11l-578.31,336.07c-6.46,3.75-13.69,5.63-20.91,5.63Zm-.21-748.77c-6.75,0-13.5,1.71-19.53,5.12L361.57,506.3c-12.47,7.06-19.98,19.84-20.09,34.18-.11,14.33,7.21,27.22,19.57,34.48l579.05,339.68c12.31,7.22,27.62,7.25,39.96,.08h0l578.31-336.07c12.39-7.2,19.76-20.05,19.71-34.38-.04-14.33-7.49-27.13-19.92-34.26L979.63,178.52c-6.07-3.48-12.88-5.22-19.7-5.22Z" style="fill:url(#linear-gradient-4);"/><path d="M964.38,873.33l552.87-321.29c5.77-3.35,5.74-11.69-.05-15L964.29,220.22c-2.65-1.52-5.91-1.53-8.57-.02L402.34,533.66c-5.81,3.29-5.87,11.63-.11,15.01l553.42,324.65c2.69,1.58,6.03,1.59,8.73,.02Z" style="fill:#7d899d;"/><path d="M962.63,868.39l549.49-319.32c3.46-2.01,3.45-7.01-.03-9L962.58,225.2c-1.59-.91-3.55-.92-5.15-.01L407.45,536.72c-3.48,1.97-3.52,6.98-.07,9.01l550.01,322.65c1.62,.95,3.62,.95,5.24,.01Z" style="fill:#385076;"/><polygon points="960 816.26 960 865.69 1507.38 547.6 1485.38 512.72 960 816.26" style="fill:#f8b3b0;"/><polygon points="960 816.26 960 865.69 412.12 544.29 434.62 512.72 960 816.26" style="fill:#e55e72;"/><path d="M1510.74,693.09l-15.79,8.17c-.9,.47-1.47,1.4-1.47,2.41v485.15c0,1.5,1.22,2.72,2.72,2.72h15.79c1.5,0,2.72-1.22,2.72-2.72v-493.32c0-2.04-2.16-3.35-3.96-2.41Z" style="fill:#d1ebe1;"/><path d="M1540.95,676.14l-15.79,8.17c-.9,.47-1.47,1.4-1.47,2.41v485.15c0,1.5,1.22,2.72,2.72,2.72h15.79c1.5,0,2.72-1.22,2.72-2.72v-493.32c0-2.04-2.16-3.35-3.96-2.41Z" style="fill:#d1ebe1;"/><line x1="397.95" y1="661.19" x2="397.95" y2="1229.12" style="fill:none; stroke:#daf0e8; stroke-linecap:round; stroke-miterlimit:10; stroke-width:4px;"/><line x1="1507.38" y1="701.39" x2="1507.38" y2="1269.31" style="fill:none; stroke:#e5fcf4; stroke-linecap:round; stroke-miterlimit:10; stroke-width:4px;"/><line x1="1540.29" y1="682.29" x2="1540.29" y2="1250.22" style="fill:none; stroke:#e5fcf4; stroke-linecap:round; stroke-miterlimit:10; stroke-width:4px;"/><line x1="412.12" y1="695.37" x2="412.12" y2="1263.3" style="fill:none; stroke:#daf0e8; stroke-linecap:round; stroke-miterlimit:10; stroke-width:4px;"/><g><path d="M1409.66,1202.6h-202.68c-.65-.17-1.31-.17-1.96,0h-321.19v177.76h.04c-.35,16.57,1.83,33.71,6.56,43.32l297.91,151.94c4.16,8.44,9.31,8.47,13.48,.1l204.52-67.45c5.16-10.37,7.31-29.68,6.47-47.52h.18l-3.32-258.13Z" style="fill:#cce5dc;"/><path d="M1155.56,1364.84l245.52-142.67c11.48-6.67,11.43-23.27-.09-29.87l-245.61-140.73c-5.28-3.03-11.77-3.04-17.07-.04l-245.74,139.2c-11.56,6.55-11.69,23.16-.23,29.88l245.83,144.21c5.37,3.15,12.01,3.16,17.39,.04Z" style="fill:#fff;"/><path d="M1155.14,1357.25l233.63-135.76c10.93-6.35,10.88-22.15-.09-28.43l-233.71-133.91c-5.03-2.88-11.2-2.9-16.25-.04l-233.84,132.46c-11,6.23-11.12,22.04-.22,28.43l233.92,137.22c5.11,3,11.43,3.01,16.55,.03Z" style="fill:#d1ebe1;"/></g><polygon points="960 209.18 1485.38 512.72 960 816.26 434.62 512.72 960 209.18" style="fill:#f16775;"/></g></g></g></svg>