<svg width="2002" height="1142" viewBox="0 0 2002 1142" fill="none" xmlns="http://www.w3.org/2000/svg">
<path d="M54.7677 595.993L58.4082 593.39M54.7677 595.993L58.3812 593.39M54.7677 595.993L1 616.222L39.0707 592.617L69.6325 573.14M69.6325 573.14L77.7455 567.969L82.8746 575.726L82.9408 575.825L122.117 635.038L166.982 707.106L209.632 730.336M69.6325 573.14L104.831 519.03L156.489 476.09M209.632 730.336L252.766 753.828M209.632 730.336L263.773 708.434M252.766 753.828L293.105 703.374L334.12 647.878L361.041 700.257M252.766 753.828L349.068 715.737M361.041 700.257L349.068 715.737M361.041 700.257L372.42 722.398M372.42 722.398L349.068 715.737M372.42 722.398L381.83 740.708M381.83 740.708L430.28 850.514L616.19 951.767L662.791 919.351L711.294 940.02M381.83 740.708L437.509 744.757M711.294 940.02L761.495 1030.91L861.315 1085.28M711.294 940.02L816.407 1005.74M861.315 1085.28L912.144 1112.96M861.315 1085.28L967.073 1033.26M912.144 1112.96L963.598 1140.98L1018.78 1024.59M912.144 1112.96L967.073 1033.26M1018.78 1024.59L1073.58 992.511M1018.78 1024.59L967.073 1033.26M1073.58 992.511L1127.66 977.731L1166.46 946.756M1073.58 992.511L1021.77 934.213L967.073 1033.26M1166.46 946.756L1181.29 934.921L1181.36 934.861L1181.45 934.909L1233.53 964.441L1285.02 978.232L1337.4 910.937L1390.06 820.065L1429.52 781.183M1166.46 946.756L1223.09 958.591M1429.52 781.183L1441.47 769.411M1429.52 781.183L1491.04 766.756M1429.52 781.183L1390.07 820.062L1337.4 910.952V910.977L1285.02 978.247L1233.55 964.441L1223.1 958.593L1166.47 946.77L1127.67 977.745H1127.65L1073.6 992.529L1018.8 1024.61L963.6 1141L761.5 1030.91L717.1 950.51L674.5 926.062M1429.52 781.183L1491.05 766.773L1539.62 773.224L1588.7 746.944L1633.82 730.954L1642.07 734.745L1682.02 772.697L1728.12 774.278H1728.15L1820.9 729.775L1872.47 597.795L1910.37 535.595L1942 556.228L1942.02 556.253L2001 638.132L1962.47 562.754L1961.92 562.152L1921.27 517.724L1914.67 517.146L1912 514.586L1860.02 502.713L1833.5 513.381L1801.05 489.007M1441.47 769.411L1491.04 766.756M1441.47 769.411L1388.2 790.876M1491.04 766.756L1539.62 773.218L1588.7 746.932L1636.9 729.853M1491.04 766.756L1438.92 743.079M1636.9 729.853L1682.02 772.69M1636.9 729.853L1586.09 673.613L1632.24 698.33L1682.02 772.69M1682.02 772.69L1728.12 774.265L1820.89 729.766L1872.47 597.782L1910.37 535.58L1910.47 535.414L1921.25 517.708M1921.25 517.708L1914.67 517.143M1921.25 517.708L1961.91 562.141L1962.47 562.753L2001 638.121L1937.07 549.403M980.15 1L1022.58 40.7356M980.15 1H980.175L1024.97 10.0865L1067.4 24.5947L1109.97 82.2762L1152.67 154.039L1195.77 203.839L1240.22 174.572L1240.28 174.52M980.15 1L934.975 35.3127L889.825 123.241L844.65 213.904L799.5 308.735L753.175 326.607L750 327.837L735.375 309.337L664.4 354.117L603.35 356.778L562.225 357.882L513.725 384.966L475.075 403.365L454.725 396.864L422.95 403.064H422.925L393.25 400.905L342.525 443.526L334.3 453.968L331.5 455.875L326.6 463.782L308.675 486.624L264.325 515.163L223.125 531.052L156.5 476.107L104.85 519.029L69.65 573.146L39.075 592.624L1 616.219L54.775 596.013L58.4 593.402H58.425L95.55 594.883L122.125 635.045L167 707.109L252.775 753.846L308.8 731.682L377.15 731.557L381.85 740.719L430.3 850.534L616.2 951.766M1022.58 40.7356L977.504 152.44M1022.58 40.7356L1065.12 136.091M1022.58 40.7353L1067.38 24.5859M1318.59 319.905L1284.8 185.737L1240.28 174.52M1240.28 174.52L1195.76 203.823M1240.28 174.52L1240.3 174.521L1284.8 185.741H1284.82L1318.6 319.905L1331.85 305.522L1376.7 322.038H1376.72L1376.8 322.114L1438.2 366.115L1471.52 381.351L1561.82 283.233L1608.22 341.517V341.542L1651.25 492.573L1736.82 529.546L1756.15 518.226L1801.05 489.007M1195.76 203.823L1182.88 224.275M1195.76 203.823L1152.66 154.029L1109.97 82.2633L1067.38 24.5861L1024.96 10.0748L980.158 1L934.974 35.2961L889.818 123.23L844.647 213.894L799.497 308.73L749.984 327.83M1065.12 136.091L1109.97 82.2636M1019.96 259.307L1065.11 136.09L1107.69 229.608M1107.7 229.609L1117.35 239.847M1107.7 229.609L1152.66 154.03M1107.7 229.609L1075.61 288.226M1075.61 288.226L1058.77 310.28L999.319 360.264M1075.61 288.226L1103.4 251.84L1117.35 239.847M1117.35 239.847L1149.63 212.092M1240.27 174.521L1195.25 222.831L1189.51 226.701M1189.51 226.701L1191.38 227.388L1191.45 227.412L1194.88 228.67L1239.77 226.441M1189.51 226.701L1149.63 212.092M1195.24 222.829L1239.76 226.44M999.319 360.264L971.956 347.955M999.319 360.264L968.998 385.754L925.971 366.201L971.956 347.955M1149.63 212.092L1171.22 251.859L1171.35 252.104L1193.82 293.507L1147.96 302.37L1191.74 446.802L1145.64 466.02M1239.77 226.441L1284.8 185.737M1239.77 226.441L1280.19 363.076M1422.78 366.624L1431.42 385.755L1467.65 465.908M1422.78 366.624L1466.74 386.544L1473.84 383.494L1475.09 382.954L1515.03 365.794M1422.78 366.624L1376.7 322.035M1515.02 365.794L1561.8 283.233M1515.02 365.794L1561.94 407.114M1515.02 365.794L1467.64 465.907M1561.8 283.233L1471.53 381.331L1470.75 382.179L1466.73 386.544L1458.42 380.592L1458.12 380.378L1376.69 322.034L1331.83 305.516M1561.8 283.233L1608.22 341.502L1651.23 492.564L1736.81 529.542M1331.83 305.516L1378.54 329.598M1331.83 305.516L1285.16 356.191M1467.64 465.907L1514.26 511.038L1562.09 532.114M1467.64 465.907L1431.88 490.74M1561.95 407.115L1608.23 341.503M1736.81 529.542L1756.13 518.229L1801.04 489.007M1736.81 529.542L1659.28 574.947M1514.26 511.037L1561.94 407.113L1606.88 512.237M1606.89 512.238L1651.24 492.565M1606.89 512.238L1562.09 532.114M1606.89 512.238L1655.22 533.33M1562.09 532.114L1516.85 552.184L1469.03 530.898M1562.09 532.114L1610.43 553.417L1655.22 533.33M1655.22 533.33L1699.56 513.445M1655.22 533.33L1698.28 552.117M1659.28 574.947L1615.17 565.709L1565.18 573.703M1659.28 574.947L1708.98 589.556L1663.44 617.45M1659.28 574.947L1610.42 553.416L1565.18 573.703M1565.18 573.703L1516.84 552.185L1489.35 564.38L1488.44 564.787M1912 514.588L1860.02 502.698M1860.02 502.698L1807.03 523.992M1860.02 502.698L1814.15 539.674L1868.13 513.152M145.42 531.1L92.8667 568.518M145.42 531.1L197.204 566.823M145.42 531.1L104.828 519.029M92.8667 568.518L85.4629 571.834M92.8667 568.518L93.0094 568.615L134.628 596.429L87.2574 572.734L87.1162 572.665L77.7383 567.97M383.183 420.623L378.883 423.046L342.504 443.507M383.183 420.623L387.389 423.348L387.531 423.439L436.881 455.388M383.183 420.623L339.905 450.135M339.905 450.135L339.845 450.174L331.477 455.879M339.905 450.135L342.504 443.507M331.477 455.879L326.591 463.768M331.477 455.879L332.119 456.732L339.58 466.685L341.527 469.289L341.734 469.56L375.752 514.946L324.072 561.494L283.986 595.989M331.477 455.879L319.433 491.42L319.394 491.529L318.465 494.278L283.986 595.989M326.591 463.768L308.657 486.604M326.591 463.768L243.136 598.506M243.136 598.506L197.204 566.823M243.136 598.506L190.336 619.261M243.136 598.506L283.986 595.989M197.204 566.823L156.489 476.09M156.489 476.09L253.838 556.4M308.657 486.604L279.937 523.172M308.657 486.604L264.321 515.161M279.937 523.172L264.321 515.161M279.937 523.172L253.838 556.4M253.838 556.4L267.444 559.263M253.838 556.4L207.982 574.254M264.321 515.161L223.119 531.054M505.684 413.135L454.717 396.865L422.914 403.046M543.014 469.421L505.688 413.135L555.333 407.18L513.715 384.962M543.014 469.421L591.22 499.042M543.014 469.421L497.473 441.437M562.216 357.866L513.722 384.961L475.053 403.352M603.331 356.773L555.336 407.18L598.112 458.977L640.468 479.498L683.262 499.708L633.979 519.992L677.194 541.165M603.331 356.773L664.401 354.113M603.331 356.773L562.211 357.866M664.401 354.113L645.219 366.221M664.401 354.113L735.366 309.322M794.856 345.747L753.158 326.599M794.867 345.748L841.228 327.694M841.217 327.695L799.486 308.73M883.385 346.851L841.225 327.694L887.147 309.813L844.643 213.893M929.333 328.789L887.142 309.813L932.461 252.151L889.809 123.23M974.853 310.896L932.465 252.151L977.507 152.439M1019.97 259.308L977.501 152.44L934.965 35.2966M1019.97 259.308L974.847 310.897M1019.97 259.308L1059.96 308.715M39.0764 592.618L58.3853 593.39H58.4122L95.5485 594.871M178.782 662.713L134.633 596.429L190.336 619.261M190.336 619.261L232.205 641.511M190.346 619.26L145.434 531.1M232.205 641.511L274.536 664.008L221.04 685.443M232.205 641.511L178.783 662.711L221.04 685.443M232.205 641.511L283.986 595.989M342.51 443.506L334.301 453.956M497.473 441.437L476.629 419.706L475.517 418.544L454.721 396.865M497.473 441.437L445.619 404.978L445.196 404.68L445.178 404.667M497.473 441.437L541.475 518.781M445.178 404.667L445.189 404.685L445.393 405.18L490.417 512.865M445.178 404.667L393.24 400.887L342.504 443.507M554.154 476.262L598.12 458.978L645.226 366.221M687.33 361.495L645.221 366.219L603.334 356.773M836.982 365.089L794.861 345.748L771.351 354.901M836.982 365.089L879.541 384.63M836.982 365.089L795.053 381.571M771.351 354.901L779.079 364.685M771.351 354.901L735.366 309.322M836.976 365.089L883.377 346.852M929.325 328.789L883.373 346.851L925.96 366.201L879.535 384.628L922.531 404.371L875.619 423.17M971.95 347.957L929.33 328.79L974.847 310.897M974.847 310.897L1017.49 329.882M122.123 635.039L178.79 662.713M221.04 685.443L263.77 708.434M436.888 455.388L415.941 429.231L415.815 429.071L415.671 428.893L393.246 400.887M483.072 580.453L436.879 455.387L490.412 512.865M430.502 565.831L483.08 580.454M430.502 565.831L375.756 514.947L422.823 644.083M430.502 565.831L474.747 623.073L382.738 660.298M430.502 565.831L383.187 420.623M483.08 580.454L533.891 560.096M483.08 580.454L526.141 602.281L474.75 623.074L518.223 645.369M533.891 560.096L490.42 512.866L541.481 518.782M533.891 560.096L577.003 581.7L526.137 602.281L569.667 624.346M533.891 560.096L584.186 539.943M584.186 539.943L541.478 518.782L591.223 499.042M584.186 539.943L627.35 561.328M584.186 539.943L633.976 519.991M633.97 519.992L591.215 499.042L640.46 479.499L687.32 361.496M779.079 364.685L795.053 381.571M779.079 364.685L730.299 373.968L687.328 361.497L735.366 309.322M795.053 381.571L802.162 389.083M802.162 389.083L871.627 462.496M802.162 389.083L832.658 403.23M832.652 403.232L808.891 396.199M875.626 423.17L832.66 403.232L879.544 384.629M971.956 347.955L1017.5 329.882M1029.24 335.11L1017.5 329.881L1051.51 316.387M166.977 707.106L221.036 685.445M308.763 682.195L274.545 664.01L324.079 561.495L366.251 656.084M366.251 656.084L390.429 662.263L422.084 684.648M366.251 656.084L334.125 647.878M677.194 541.165L720.872 562.563M677.194 541.165L726.533 521.198M726.538 521.198L683.266 499.709L730.303 373.968L775.383 501.435M726.538 521.198L770.26 542.386L801.143 529.549M726.538 521.198L775.383 501.435M775.383 501.435L851.298 470.722M775.383 501.435L813.432 519.669M875.619 423.17L919.035 443.313L871.625 462.495M875.619 423.17L844.574 433.91M1010.4 404.571L968.993 385.755L922.533 404.372L965.979 424.32L1010.4 404.571ZM1010.4 404.571L1056.53 384.072M281.447 717.945L263.764 708.433L300.275 693.659M620.59 603.541L577.006 581.699L627.357 561.328M620.59 603.541L569.672 624.347L613.68 646.654M620.59 603.541L664.649 625.619M620.59 603.541L670.989 582.948M670.98 582.947L627.348 561.328L677.188 541.163M720.872 562.563L748.875 576.281M720.872 562.563L770.257 542.387L782.183 548.164M837.589 488.434L823.739 481.869L779.076 364.684M1009.88 444.476L965.984 424.32L919.037 443.314L962.907 463.669L915.463 483.055M466.239 666.608L422.826 644.084M466.225 666.607L518.21 645.368M562.178 667.907L518.227 645.368L569.675 624.346M670.989 582.948L715.101 604.801M670.989 582.948L720.879 562.564M715.101 604.801L735.034 614.678M715.101 604.801L664.652 625.62L709.198 647.942M915.457 483.056L871.62 462.496L865.355 465.03M1007.25 484.241L962.914 463.669L1009.89 444.475M1009.89 444.475L1054.25 464.846M1009.89 444.475L1056.54 384.072M1056.53 384.072L1101.13 386.723L1147.95 302.37L1103.39 251.84L1056.53 384.072ZM293.109 703.374L349.071 715.738M510.134 689.385L466.236 666.607L422.084 684.648M422.084 684.648L446.769 702.104L501.417 720.006M510.121 689.385L562.161 667.907M510.121 689.385L554.505 712.415M510.121 689.385L464.896 708.046M606.616 690.701L562.172 667.908L613.677 646.654M606.616 690.701L554.516 712.415L599.401 735.705M606.616 690.701L651.555 713.745M606.616 690.701L658.171 669.208L613.677 646.654M613.677 646.654L664.646 625.62M959.768 503.834L915.465 483.057L911.273 484.767M911.273 484.767L907.607 482.401L858.031 462.016M911.273 484.767L956.474 513.97L1004.54 524.831M959.76 503.834L1007.23 484.242M1052.04 505.03L1007.24 484.241L1054.24 464.845M1052.04 505.03L1097.33 526.042M1052.04 505.03L1099.07 485.427L1054.24 464.845M1054.24 464.845L1101.13 386.723L1145.63 466.019M1236.17 424.024L1193.82 293.507L1238.25 349.766M1264.5 384.795L1238.25 349.766M1238.25 349.766L1194.88 228.67M1238.25 349.766L1277.06 367.408M546.696 757.902L501.42 720.006L554.521 712.416M546.696 757.902L592.03 781.704L538.695 804.394L584.491 828.731M546.696 757.902L496.019 779.241M651.555 713.745L599.398 735.706L644.792 759.259L592.025 781.705L637.879 805.783L584.486 828.732L630.811 853.353M651.555 713.745L696.997 737.051M701.067 690.957L658.168 669.208L709.189 647.942L748.186 642.204M858.031 462.016L811.156 522.604M858.031 462.016L903.769 522.031L862.876 504.02L862.726 503.954L862.723 503.951L853.61 499.938M811.156 522.604L803.261 526.819M811.156 522.604L853.61 499.938M1004.54 524.83L959.764 503.832L947.826 508.385M1049.8 546.055L1004.54 524.831L1052.05 505.031M1097.33 526.042L1125.22 537.287M1097.33 526.042L1049.8 546.055L1085.68 562.555M1097.33 526.042L1144.38 506.231L1173.23 514.319M1144.38 506.232L1099.08 485.427L1145.64 466.02M1145.64 466.02L1182.3 482.679M1231.76 430.115L1191.73 446.801L1212.85 456.302M437.509 744.757L484.777 827.329M437.509 744.757L390.424 662.262M484.777 827.329L430.277 850.514M484.777 827.329L530.515 851.932M484.777 827.329L538.691 804.395M546.684 757.901L599.394 735.705M696.997 737.051L742.453 729.723L690.696 783.08M696.997 737.051L747.927 669.388M853.61 499.938L900.03 591.233L849.408 572.706L896.241 664.595M803.261 526.819L801.143 529.549M803.261 526.819L802.291 529.072L802.171 529.347L758.219 631.11M801.143 529.549L800.894 529.869L709.193 647.941M949.863 604.945L903.83 522.146L903.764 522.031L904.031 522.143L953.15 543.156L907.601 482.401M998.978 596.364L953.158 543.155L1001.79 553.156L956.478 513.97M998.978 596.364L1047.53 582.036M998.978 596.364L1037.74 614.665M1047.51 582.037L1001.78 553.157L1049.79 546.055M1085.68 562.555L1111.15 549.551M1085.68 562.555L1047.52 582.038L1081.34 575.762M1125.22 537.287L1141.38 523.204L1173.23 514.319M1125.22 537.287L1111.15 549.551M1173.23 514.319L1189.7 509.725L1215.91 496.52M538.684 804.394L437.504 744.756M690.696 783.08L644.789 759.259L696.994 737.052M690.696 783.08L637.875 805.782L673.437 824.457M690.696 783.08L725.3 770.593M793.55 653.765L747.922 669.389M747.922 669.389L706.898 688.272L706.282 688.553L651.547 713.747M747.922 669.389L798.413 586.635M849.412 572.706L798.423 586.635M798.423 586.635L758.219 631.11M798.423 586.635L845.088 642.01L793.557 653.765M758.219 631.11L706.293 688.552M849.404 572.706L805.188 528.737L804.74 528.294L804.569 528.122L803.256 526.819M946.535 673.117L948.099 673.882L975.103 687.114M946.535 673.117L900.033 591.232L949.871 604.944M946.535 673.117L896.245 664.594M946.535 673.117L996.11 651.81M998.975 596.364L949.867 604.944L996.105 651.809L1037.74 614.665M1144.37 506.232L1237.61 448.322L1278.62 368.868L1278.93 368.259L1285.16 356.191M1285.16 356.191L1332.76 331.909L1378.54 329.598M1285.17 356.191L1203.17 469.717M1422.77 366.624L1378.54 329.598M475.941 875.387L530.509 851.933M576.776 876.823L530.512 851.933L584.484 828.733M630.811 853.353L576.781 876.821L623.587 902.003M630.811 853.353L671.667 875.065M725.3 770.593L782.125 688.153M725.3 770.593L701.098 805.707M775.508 697.757L742.455 729.724L793.557 653.765M793.557 653.765L840.481 692.389M884.866 724.196L845.092 642.01L896.245 664.594M884.866 724.196L914.732 745.602M884.866 724.196L840.487 692.39L788.119 685.566M896.245 664.594L943.047 717.737M1262.1 464.155L1237.88 482.003L1237.4 482.356L1215.91 496.52M1215.91 496.52L1225.28 491.801L1225.29 491.798L1286.02 461.21M1225.28 491.798L1237.39 482.355L1283.02 408.9L1283.1 408.77L1285.18 405.415M1285.19 405.415L1237.62 448.321L1220.86 473.361L1220.24 474.285L1200 504.529M1319.66 411.287L1300.35 407.999L1298.71 407.718L1290.74 406.363L1289.33 406.122L1287.82 405.866L1285.19 405.416L1302.12 379.26L1302.35 378.904L1324.25 345.06L1324.73 344.315L1332.76 331.909L1367.06 407.935M1367.06 407.935L1380.83 412.255M1367.06 407.935L1334.45 397.704L1382.64 427.922L1422.02 497.54L1422.04 497.579L1422.05 497.603L1427.22 506.732M522.143 900.55L576.773 876.822M788.119 685.566L811.393 703.471L811.7 703.71L835.552 722.059M788.119 685.566L782.133 688.155M1111.15 549.551L1092.59 565.73L1092.35 565.942L1081.34 575.762M1081.34 575.762L1037.74 614.665M568.891 926.009L623.581 902.004L659.753 921.463M729.996 786.116L630.805 853.354M730.004 786.115L782.128 688.153M730.004 786.115L776.582 734.421L830.482 751.967L853.733 787.913M730.004 786.115L683.139 868.636M885.528 765.861L835.552 722.059M835.552 722.059L782.133 688.155M835.552 722.059L853.232 762.518M782.133 688.155L783.53 690.004L784.485 691.262L830.489 751.968L853.232 762.518M853.232 762.518L875.089 772.658L875.474 772.836M1040.55 624.572L1048.42 629.281L1048.83 629.522L1088.5 653.259L1137.96 687.474L1236.2 645.524M1040.55 624.572L1033.57 640.398M1040.55 624.572L943.041 717.737M1040.55 624.572L1090.63 575.043L1092.13 575.076L1139.92 576.184M1139.91 576.184L1092.34 565.942L1076 589.503M1179.99 669.527L1139.93 576.184L1188.67 569.088L1156.13 537.516L1156.11 537.501L1141.38 523.204M1212.15 655.792L1236.16 627.207L1188.66 569.089L1237.21 534.024L1197.87 513.906L1197.29 513.611L1189.69 509.725M1286.01 461.21L1237.21 534.023L1285.69 533.245L1236.16 627.206L1285.94 573.731L1334.69 540.425M1335.04 445.456L1286.02 461.211L1334.44 397.705L1240.16 484.307M1441.98 520.725L1427.22 506.732M1441.98 520.725L1449.77 528.113M1441.98 520.725L1380.83 412.255M1380.83 412.255L1427.22 506.732M1427.22 506.732L1473.3 614.912L1518.92 635.642M1449.77 528.113L1469.03 530.898M1449.77 528.113L1519.48 594.204M1469.02 530.898L1414.43 471.867M1469.03 530.898L1514.27 511.038M724.067 845.703L623.578 902.005M724.076 845.702L776.585 734.42L825.575 807.45L853.736 787.913L854.082 787.672L875.349 772.919L875.47 772.834L927.498 736.74M927.498 736.74L951.305 721.429M927.498 736.74L901.579 779.934L901.546 779.991L874.389 825.25L876.459 823.054L876.792 822.701L877.051 822.43L923.484 773.167M927.498 736.74L976.543 718.485L977.147 718.262M951.305 721.429L943.044 717.739L901.205 735.913M951.305 721.429L980.52 702.64L983.822 705.383M983.822 705.383L983.842 705.376M983.822 705.383L983.828 705.396L997.362 722.502L997.551 722.743L1032.85 767.36L1073.89 805.406M1038.12 634.458L1033.8 640.105L1033.57 640.398L983.842 705.376M983.842 705.376L1000.09 700.632M1038.11 634.458L1088.49 653.259M1179.56 733.545L1137.96 687.474L1090.63 575.043M1334.7 540.425L1285.71 533.245L1335.05 445.456M718.055 908.49L662.797 919.35L672.58 924.962L717.091 950.503M616.185 951.767L675.422 926.601M772.089 862.476L718.051 908.49L762.074 971.766M772.078 862.477L724.064 845.703L678.178 916.326M1134.8 812.743L1075.86 740.033M1075.86 740.033L1035.53 690.281M1075.86 740.033L1038.12 634.458L1000.09 700.632M1035.53 690.281L1000.09 700.632M1035.53 690.281L1073.89 805.406M1073.89 805.406L1133.31 860.47M1136.26 766.066L1088.5 653.261M1136.26 766.064L1178.74 734.16L1179.56 733.545L1235.85 691.269L1285.15 675.177L1236.21 645.524L1285.95 573.731L1333.21 692.554M1381.84 557.18L1334.69 540.424L1380.72 701.246L1415.31 717.468M1381.84 557.18L1428.36 679.646M1381.84 557.18L1335.03 445.455L1373.41 431.318L1374.19 431.028L1382.63 427.921L1421.21 599.676M1441.75 621.848L1473.29 614.912L1519.47 594.204M1565.19 573.705L1519.48 594.205L1569.07 595.523L1615.17 565.71L1663.44 617.45M1030.15 818.722L1032.31 823.703M1030.15 818.722L982.609 707.552L982.453 707.181L982.435 707.144L980.512 702.64L983.279 706.064L983.294 706.082L1032.84 767.359L1069.04 853.374M1030.15 818.722L977.143 718.262M1134.79 812.742L1185.22 773.314M1235.84 691.269L1185.22 773.313L1136.25 766.064L1098.63 768.124M1333.28 768.795L1285.14 675.178L1333.2 692.555M1333.28 768.795L1284.09 791.345M1333.28 768.795L1381.95 746.486M1333.28 768.795L1371.25 786.991M1333.21 692.554L1380.72 701.247L1475.51 658.271M1333.21 692.554L1381.96 746.486L1415.14 753.181M1475.51 658.271L1480.64 660.624M1475.51 658.271L1503.13 645.751M1475.51 658.271L1381.85 557.181M761.498 1030.91L816.411 1005.74M915.084 1058.82L816.4 1005.74L870.414 947.253M870.414 947.253L871.108 946.754L919.897 911.525M870.414 947.253L821.585 954.744L771.303 977.54M870.414 947.253L917.229 793.658L917.616 792.394L923.476 773.167M1075.11 874.118L1032.31 823.703M1032.31 823.703L1027.48 818.019M1027.48 818.019L983.081 730.031L981.891 727.666L977.143 718.262M1027.48 818.019L973.778 786.577L924.223 773.363L923.48 773.167L935.184 761.192L935.716 760.646L977.143 718.262M1133.3 860.47L1184.11 837.177M1133.3 860.47L1183.17 885.459M1133.3 860.47L1096.13 877.512M1184.11 837.177L1134.79 812.743L1099.21 828.874M1184.11 837.177L1234 861.894M1184.11 837.177L1233.84 803.285L1234.54 802.805L1185.23 773.314M1284.28 838.589L1235.43 803.445L1234.54 802.806L1284.09 791.345M1284.28 838.589L1234 861.893L1284.18 886.756M1284.28 838.589L1318.53 855.369M1284.28 838.589L1334.02 815.533M1284.09 791.345L1334.02 815.533M1284.1 791.342L1235.84 691.269M1617.74 638.398L1569.06 595.522L1535.58 625.215M1617.74 638.398L1667.69 660.862M1617.74 638.398L1577.44 656.874M1617.75 638.399L1663.45 617.45L1713.39 639.681M1760.87 570.292L1708.99 589.555L1756.14 518.23L1807.03 523.992L1760.87 570.292ZM1760.87 570.292L1713.38 639.681M1760.87 570.292L1814.15 539.674M811.107 1057.93L866.068 1032.45L919.908 911.525M919.908 911.525L970.441 903.693M919.908 911.525L973.782 786.577L1024.7 845.621M1183.17 885.459L1233.62 910.741L1284.77 930.369M1183.17 885.459L1134.78 907.889M1183.18 885.459L1234.01 861.894M1334.02 815.533L1368.58 809.039M1368.58 809.039L1388.2 790.876M1368.58 809.039L1285.1 886.319M1535.41 625.082L1535.59 625.214L1632.24 698.329L1728.13 774.264M1535.41 625.082L1482.72 658.811L1415.31 717.468M1535.41 625.082L1486.3 664.998M1535.41 625.082L1586.09 673.612M1415.31 717.468L1381.96 746.485M1621.51 682.265L1595.18 670.3M1621.51 682.265L1614.99 685.287M1621.51 682.265L1672.02 705.217M1621.53 682.266L1667.7 660.864M1667.69 660.862L1718.19 683.574M1667.69 660.862L1713.38 639.681M1718.19 683.574L1672.03 705.218M1718.19 683.574L1769.25 706.542L1723.1 728.425L1672.02 705.217M1713.38 639.681L1760.76 660.776M1181.9 934.869L1185.62 937.002M1181.9 934.869L1182.21 934.843L1190.31 938.948M1181.9 934.869L1129.47 904.842L1024.7 845.62L970.443 903.692L1021.77 934.211L1075.97 917.416M1185.62 937.002L1190.31 938.948M1185.62 937.002L1233.53 964.441L1181.79 935.415M1181.79 935.415L1181.15 935.039M1181.79 935.415L1180.56 935.507M1182.21 934.842L1179.06 933.246M1182.2 934.842L1233.62 910.74M1488.75 712.027L1435.89 737.445L1415.31 753.217L1414.78 753.621L1334.03 815.534M1486.3 664.998L1435.88 737.443L1415.25 765.383M1486.3 664.998L1415.14 753.179L1414.78 753.62M1672.02 705.217L1652.49 714.37M1075.96 917.416L1104.83 910.628L1105.89 910.381L1129.46 904.842L1181.36 934.86M1075.96 917.416L1024.69 845.62M1075.96 917.416L1127.65 977.73M1284.78 930.369L1336.6 861.894M1284.78 930.369L1337.41 910.936M1284.78 930.369L1237.18 958.386M1336.6 861.894L1335.62 862.352L1335.41 862.455L1334.19 863.037L1233.63 910.74M1336.6 861.894L1390.06 820.065M1336.6 861.894L1388.2 790.876M1388.2 790.876L1415.25 765.383M1537.59 695.729L1521.55 686.119L1521.27 685.95L1486.29 664.998M1537.59 695.729L1545.34 703.489L1546.16 704.313L1588.7 746.932M1537.59 695.729L1547.31 691.298L1547.33 691.289L1586.09 673.613M1537.59 695.729L1488.74 712.026L1439.42 742.768L1438.92 743.079M1438.92 743.079L1415.25 765.383M1820.89 729.765L1769.25 706.541L1817.68 630.292M1817.68 630.292L1872.47 597.782M1817.68 630.292L1868.12 513.151M1817.69 630.292L1765.48 658.25M1765.48 658.25L1718.2 683.573M1765.48 658.25L1814.16 539.673M1868.13 513.152L1911.99 514.588L1914.67 517.143M1868.13 513.152L1913.78 517.068L1914.08 517.095L1914.67 517.143M1285.02 978.231L1190.31 938.948M1539.62 773.219L1488.73 712.027M1774.75 751.896L1723.09 728.427L1690.03 744.103M308.783 731.675L377.133 731.551M490.998 776.287L446.762 702.105M795.248 537.131L715.092 604.8M871.948 753.97L840.473 692.389M916.85 1057.96L970.434 903.692M1019.72 644.478L996.107 651.809M1013.63 403.144L1058.77 310.281M1070.85 871.705L1027.49 818.019M1122.17 900.724L1030.15 818.721M1196.42 720.884L1236.21 645.525M1415.74 473.275L1378.55 329.598M1448.2 688.851L1428.36 679.646M1467.54 688.241L1482.72 658.811M1471.54 381.332L1438.2 366.097M1633.8 730.955L1642.07 734.747M1833.48 513.362L1801.05 489.007M1910.37 535.579L1942.01 556.239M1910.46 535.414L1937.07 549.403M1937.07 549.403L1962.47 562.753M616.2 951.766L659.775 921.469L662.8 919.36L672.6 924.983L674.5 926.062M616.2 951.766L674.5 926.062M821.588 954.745L772.084 862.476L825.569 807.45L874.385 825.25L874.272 825.525L821.588 954.745Z" vector-effect="non-scaling-stroke"  stroke="#E8FFF3" stroke-linecap="round" stroke-linejoin="round"/>
</svg>
