<?xml version="1.0" encoding="utf-8"?>
<svg version="1.1" id="Layer_2_00000102542875021591532140000000798622687551593865_"
	 xmlns="http://www.w3.org/2000/svg" xmlns:xlink="http://www.w3.org/1999/xlink" x="0px" y="0px" viewBox="0 0 3424.5 2408.7"
	 style="enable-background:new 0 0 3424.5 2408.7;" xml:space="preserve">
<style type="text/css">
	.st0{fill:none;stroke:#33214F;stroke-linejoin:bevel;}
	.st1{fill:#33214F;}
	.st2{fill:none;}
	.st3{fill:none;stroke:#33214F;stroke-linejoin:bevel;stroke-dasharray:0,0,0,0,12,10;}
	.st4{fill:none;stroke:#33214F;stroke-miterlimit:10;stroke-dasharray:0,0,0,0,12.01,10.01;}
	.st5{fill:none;stroke:#33214F;stroke-miterlimit:10;}
</style>
<polyline vector-effect="non-scaling-stroke" class="st0" points="642.7,2099.9 1712.2,1204.3 67,1016.2 "/>
<polyline vector-effect="non-scaling-stroke" class="st0" points="835,189.7 1712.2,1204.3 1942,37.8 "/>
<polyline vector-effect="non-scaling-stroke" class="st0" points="2965.3,431.5 1712.2,1204.3 2934.4,2009.4 "/>
<circle class="st0" cx="1712.2" cy="1204.3" r="7.8"/>
<ellipse vector-effect="non-scaling-stroke" class="st2" cx="1712.2" cy="1204.3" rx="1712.2" ry="1204.3"/>
<line vector-effect="non-scaling-stroke" class="st3" x1="2132.8" y1="939.6" x2="2133" y2="948.7"/>
<line vector-effect="non-scaling-stroke" class="st3" x1="2134.8" y1="939.6" x2="2135" y2="948.7"/>
<line vector-effect="non-scaling-stroke" class="st3" x1="2118.9" y1="1468.1" x2="2118.1" y2="1477.2"/>
<line vector-effect="non-scaling-stroke" class="st3" x1="2120.8" y1="1468.3" x2="2120.1" y2="1477.4"/>
<line vector-effect="non-scaling-stroke" class="st3" x1="1357.7" y1="1495.3" x2="1358.3" y2="1504.4"/>
<line vector-effect="non-scaling-stroke" class="st3" x1="1359.6" y1="1495.2" x2="1360.2" y2="1504.4"/>
<line vector-effect="non-scaling-stroke" class="st3" x1="1779.9" y1="838.6" x2="1786.8" y2="844.6"/>
<line vector-effect="non-scaling-stroke" class="st3" x1="1781.3" y1="837.2" x2="1788.1" y2="843.2"/>
<line vector-effect="non-scaling-stroke" class="st3" x1="1430.6" y1="884.3" x2="1435.5" y2="876.6"/>
<line vector-effect="non-scaling-stroke" class="st3" x1="1429" y1="883.2" x2="1433.9" y2="875.5"/>
<line vector-effect="non-scaling-stroke" class="st3" x1="1119.7" y1="1133.8" x2="1125.5" y2="1140.9"/>
<line vector-effect="non-scaling-stroke" class="st3" x1="1121.3" y1="1132.6" x2="1127.1" y2="1139.7"/>
<path vector-effect="non-scaling-stroke" class="st1" d="M1979.3,1379.9l10.4-2.3l0.2,2l-9.1,1.1l-0.5,0.8l2.8,8.8l-1.9,0.6l-2.2-10.5L1979.3,1379.9L1979.3,1379.9z"/>
<path vector-effect="non-scaling-stroke" class="st1" d="M1411.5,1456.5l-0.8,10.7l-2-0.3l1.6-9.1l-0.7-0.8l-9.2,0.2l-0.1-2l10.7,0.9L1411.5,1456.5L1411.5,1456.5z"/>
<path vector-effect="non-scaling-stroke" class="st1" d="M1079,1132.4l-8.3,6.7l-1.1-1.7l7.7-5l0.1-1l-6.4-6.6l1.4-1.4l6.6,8.4L1079,1132.4L1079,1132.4z"/>
<path vector-effect="non-scaling-stroke" class="st1" d="M1258.5,679.9l-10.7-0.7l0.3-2l9.1,1.5l0.8-0.7l-0.2-9.2l2,0l-0.8,10.7L1258.5,679.9L1258.5,679.9z"/>
<path vector-effect="non-scaling-stroke" class="st1" d="M1810.3,703l-5.9-9l1.8-0.9l4.3,8.1l1,0.2l7.2-5.7l1.2,1.6l-9,5.8L1810.3,703z"/>
<path vector-effect="non-scaling-stroke" class="st1" d="M2008.5,1021.2l2.4-10.4l1.9,0.7l-2.9,8.7l0.5,0.8l9.1,1.3l-0.3,2l-10.4-2.5L2008.5,1021.2L2008.5,1021.2z"/>
<path vector-effect="non-scaling-stroke" class="st1" d="M2427.7,762.9l2.4-10.4l1.9,0.7l-2.9,8.7l0.5,0.8l9.1,1.3l-0.3,2l-10.4-2.5L2427.7,762.9L2427.7,762.9z"/>
<path vector-effect="non-scaling-stroke" class="st4" d="M1712.2,1665.5c-177.3,0-345.3-43-473.2-121.2c-66.4-40.6-119.2-88.8-157-143.4c-20.4-29.5-36.2-60.6-46.9-92.6
	c-11.3-33.9-17.1-68.8-17.1-104s5.8-70.1,17.1-104c10.7-32,26.5-63.2,46.9-92.6c37.8-54.6,90.6-102.8,157-143.4
	c127.9-78.2,295.9-121.2,473.2-121.2s345.3,43,473.2,121.2c66.4,40.6,119.2,88.8,157,143.4c20.4,29.5,36.2,60.6,46.9,92.6
	c11.3,33.9,17.1,68.8,17.1,104s-5.8,70.1-17.1,104c-10.7,32-26.5,63.2-46.9,92.6c-37.8,54.6-90.6,102.8-157,143.4
	C2057.6,1622.5,1889.5,1665.5,1712.2,1665.5z"/>
<ellipse vector-effect="non-scaling-stroke" class="st5" cx="1712.2" cy="1204.3" rx="599.1" ry="366.2"/>
<ellipse vector-effect="non-scaling-stroke" class="st5" cx="1712.2" cy="1204.3" rx="789.1" ry="556.2"/>
</svg>
