<?xml version="1.0" encoding="UTF-8"?><svg id="Layer_2" xmlns="http://www.w3.org/2000/svg" viewBox="0 0 86 114"><g id="Layer_3"><polygon points="76.78 40.31 86 28.48 86 24.38 71.81 42.14 71.81 44.1 86 44.1 86 40.31 76.78 40.31" style="fill:#ff4224;"/><path d="M79.74,90.45c0-6.16,2.64-10.5,6.26-12.24v-3.18c-7.27,2.05-12.81,9.14-12.81,16.87,0,8.99,5.12,15.17,12.81,16.9v-3.66c-4.66-2.82-6.26-9.49-6.26-14.68Z" style="fill:#ff4224;"/><path d="M38.49,5.19c3.23,0,8.08-1.98,12.25-5.19h-4.35c-1.61,.74-3.3,1.21-4.7,1.32l-2.55-1.32h-4.72c-.29,.46-.45,1.01-.45,1.59,0,1.83,1.5,3.6,4.52,3.6Z" style="fill:#ff4224;"/><path d="M46.12,15.45c-9.23,0-17.02,8.31-17.02,17.47,0,10.67,7.2,17.41,17.34,17.41,9.36,0,16.82-8.18,16.82-17.41,0-9.88-6.54-17.47-17.15-17.47Zm.85,32.07c-8.64,0-11.32-9.29-11.32-16.03,0-8.12,4.58-13.09,9.95-13.09,6.61,0,11.13,6.87,11.13,15.77,0,8.18-4.12,13.35-9.75,13.35Z" style="fill:#ff4224;"/><polygon points="6.23 57.85 11.79 57.85 11.79 44.1 20.89 44.1 20.89 40.31 11.79 40.31 11.79 11.51 10.29 11.51 0 24.38 0 28.48 6.23 20.48 6.23 40.31 0 40.31 0 44.1 6.23 44.1 6.23 57.85" style="fill:#ff4224;"/><path d="M21.36,91.88c0-9.88-6.54-17.47-17.15-17.47-1.45,0-2.86,.23-4.21,.61v3.18c1.15-.55,2.39-.85,3.69-.85,6.61,0,11.13,6.87,11.13,15.77,0,8.18-4.12,13.35-9.75,13.35-2,0-3.66-.51-5.06-1.36v3.66c1.43,.32,2.94,.51,4.54,.51,9.36,0,16.82-8.18,16.82-17.41Z" style="fill:#ff4224;"/><path d="M36.79,112.77c-1.09,0-1.9,.5-2.36,1.23h4.72l-2.36-1.23Z" style="fill:#ff4224;"/><path d="M59.04,100.21c0-3.53-1.96-7.79-4.45-11.98l-4.45-7.46c-2.55-4.32-5.43-8.18-5.43-11.32,0-1.24,.26-1.83,.46-2.42,1.9-.98,3.93-1.5,5.56-1.7l4.97,2.62c1.7,0,2.88-1.37,2.88-2.88,0-1.9-1.64-3.6-4.65-3.6-6.35,0-20.62,8.7-20.62,19.11,0,3.6,2.03,7.72,4.52,11.85l4.45,7.46c2.62,4.38,5.37,8.51,5.37,11.71,0,1.05-.26,1.57-.46,2.03-.26,.14-.53,.25-.8,.38h4.35c4.55-3.48,8.3-8.41,8.3-13.79Zm-8.31,10.54c.13-.72,.33-1.64,.33-2.68,0-2.88-1.44-5.5-4.78-11.52l-3.47-6.15c-2.49-4.38-4.58-8.38-4.58-12.43,0-3.4,1.31-6.02,3.14-8.05h.33c-.13,.72-.33,1.64-.33,2.68-.07,2.88,1.37,5.56,4.78,11.52l3.47,6.15c2.49,4.45,4.45,8.38,4.45,12.43,0,3.4-1.24,6.02-3.08,8.05h-.26Z" style="fill:#ff4224;"/><rect y="0" width="86" height="114" style="fill:none;"/></g></svg>