<?xml version="1.0" encoding="UTF-8"?><svg id="Layer_2" xmlns="http://www.w3.org/2000/svg" xmlns:xlink="http://www.w3.org/1999/xlink" viewBox="0 0 150 150"><defs><clipPath id="clippath"><rect width="150" height="150" style="fill:none;"/></clipPath></defs><g id="Layer_1-2"><g style="clip-path:url(#clippath);"><path d="M129.51,103.76c2.43,1.5,5.47,1.71,8.23,2.03,1.48,.17,2.98,.35,4.4,.82,1.33,.44,2.58,1.1,3.7,1.94,2.17,1.63,3.9,3.97,4.45,6.66,.56,2.74-.34,5.48-2.22,7.51-1.87,2.02-4.44,3.04-6.8,4.35-2.39,1.33-4.57,3.03-6.06,5.36-1.51,2.37-2.13,5.23-1.4,7.98,.64,2.44,2.31,4.41,4.65,5.36,2.64,1.07,5.56,1.03,8.26,1.85,1.26,.38,2.47,.96,3.44,1.86,.95,.88,1.64,2,2.09,3.2,.22,.6,.39,1.22,.51,1.85" style="fill:none; stroke:#67e0a1; stroke-linecap:round; stroke-miterlimit:10; stroke-width:.38px;"/><path d="M148.89,154.54c-.17-.79-.69-1.39-1.22-1.99-.75-.75-1.65-1.27-2.62-1.65-.75-.23-1.5-.52-2.33-.67-1.73-.23-3.3-.6-5.02-.98-2.4-.45-4.5-1.8-5.7-3.98-1.58-3-2.25-6.23-1.8-9.6,.52-3.45,2.7-6.15,5.17-8.55,2.18-2.02,4.88-3.07,7.42-4.72,1.72-1.12,3.3-2.47,3.6-4.57,.38-2.33-.75-4.5-2.4-6.08-1.2-1.05-2.7-1.42-4.28-1.8-3-.6-5.77-.75-8.55-1.8-1.88-.68-3.6-1.58-5.4-2.55-2.17-1.12-4.12-2.47-6.22-3.75-1.72-.98-3.45-1.65-5.4-1.35-4.05,.6-8.02,.15-12.07-.15-1.58-.08-3.08,.23-4.5,.97-1.95,1.13-3,2.93-3.97,4.88-.08,.15-.08,.38-.08,.52-.07,.15-.23,.3-.3,.53-.98,2.62-1.88,5.17-3.15,7.65-1.2,3.3-1.57,6.75-1.05,10.28,.23,1.65,.75,3.07,1.73,4.5,.83,1.13,1.72,2.02,2.85,2.85,1.27,.82,2.4,1.5,3.67,2.1,.15,.08,.3,.3,.52,.38,.53,.3,.98,.52,1.5,.75,.15,.08,.3,.23,.45,.38,.67,.37,1.2,.75,1.88,1.13l1.57,1.12c.23,.23,.52,.45,.75,.68,.07,.08,.22,.08,.3,.15,1.35,1.2,2.48,2.4,3.67,3.75,.08,.08,.08,.23,.15,.3,1.73,1.95,2.93,4.12,3.98,6.45,.23,.52,.38,1.12,.6,1.65,.3,1.05,.53,2.1,.76,3.17" style="fill:none; stroke:#67e0a1; stroke-linecap:round; stroke-miterlimit:10; stroke-width:.38px;"/><path d="M99.19,131.43c.69,.38,1.41,.78,2.14,1.21,6.24,3.67,11.13,8.94,13.76,14.85,1.62,3.64,2.39,7.56,2.31,11.38h28c.21-1.08,.24-2.19-.28-3.09-.78-1.38-2.35-1.73-3.8-2.01-.44-.08-.9-.16-1.38-.24-2.52-.42-5.38-.9-7.91-2.75-4.87-3.55-6.03-10.38-5.55-15.15,.66-6.49,6.2-11.26,8.55-13.02,1.09-.81,2.29-1.48,3.45-2.12,1.58-.87,4.78-2.15,4.08-4.49-.25-.83-.91-1.48-1.68-1.89-.76-.4-1.63-.58-2.48-.7-2.2-.31-4.38-.62-6.56-1.09-1.68-.36-3.08-1.08-4.31-1.71-.5-.26-.97-.5-1.42-.69-2-.87-3.84-1.99-5.62-3.08-.83-.51-1.62-.98-2.39-1.42-.93-.52-1.88-1.06-2.61-1.17-.12-.02-.26-.03-.42-.03-.43,0-.95,.06-1.5,.12-.14,.02-.28,.03-.43,.05-1.15,.12-2.32,.18-3.59,.18-2.19,0-4.32-.18-6.38-.36-.41-.04-.83-.07-1.25-.11-.1,0-.21-.01-.31-.01-1.34,0-2.76,.66-3.36,1.57-.98,1.47-1.76,3.18-2.26,4.94-.39,1.39-.98,2.63-1.5,3.72-.24,.5-.46,.97-.65,1.42-1.21,2.87-1.56,6.14-.98,9.2,.61,3.17,2.38,4.27,6.32,6.46Z" style="fill:none; stroke:#67e0a1; stroke-linecap:round; stroke-miterlimit:10; stroke-width:.38px;"/><path d="M101.01,128.15c.71,.39,1.45,.8,2.23,1.26,6.9,4.06,12.33,9.94,15.29,16.55,1.84,4.12,2.72,8.56,2.63,12.9h20.39c0-.24-.05-.5-.17-.79-.37-.87-1.52-1.01-2.34-1.09-1.53-.15-2.99-.35-4.47-.82-1.69-.54-3.3-1.31-4.73-2.36-6.15-4.49-7.66-12.8-7.07-18.56,.81-7.97,7.29-13.6,10.04-15.64,.84-.63,1.99-1.15,2.66-1.96,.18-.21,.32-.53,.16-.75-.3-.4-1.35-.44-1.78-.48-.93-.1-1.86-.22-2.77-.42-2.16-.46-3.86-1.33-5.23-2.03-.45-.23-.87-.45-1.21-.59-2.23-.97-4.18-2.16-6.07-3.31-1.39-.85-2.52-1.69-4.19-1.77-1.6-.08-3.24,.06-4.81,.06-1.38,0-2.76-.07-4.13-.17-1.01-.07-2.23-.39-3.23-.18-1.63,.34-2.21,2.29-2.59,3.65-.48,1.7-1.17,3.15-1.72,4.31-.22,.46-.42,.89-.58,1.27-1.05,2.47-1.73,6.23,.24,8.43,1,1.12,2.17,1.76,3.47,2.48Z" style="fill:none; stroke:#67e0a1; stroke-linecap:round; stroke-miterlimit:10; stroke-width:.38px;"/><path d="M102.81,124.86h.02c.73,.42,1.49,.83,2.31,1.32,2.49,1.46,4.83,3.16,6.99,5.08,2.06,1.83,3.7,3.88,5.44,5.97,.22,.26,.51,.55,.84,.47,.01,0,.03,0,.04-.01,.25-.09,.38-.37,.42-.64,.11-.72,.08-1.45,.16-2.17,.32-3.15,1.4-6.18,2.99-8.91,.71-1.22,1.52-2.37,2.4-3.47,.63-.79,2.35-2.08,2.47-3.09,.14-1.21-1.93-1.68-2.76-2.11-.38-.19-.77-.39-1-.49-2.47-1.08-4.53-2.33-6.52-3.55-.7-.42-1.44-.89-2.25-1.06-.97-.21-1.85-.18-2.84-.15-.63,.02-1.29,.04-1.95,.04-1,0-1.99-.03-2.98-.09-.81-.04-1.93-.29-2.66,.14-.88,.51-1.08,1.79-1.42,2.66-.37,.94-.79,1.85-1.22,2.76-.2,.42-.39,.82-.52,1.12-.38,.89-.74,1.97-.72,2.96,.04,1.49,1.64,2.58,2.77,3.21Z" style="fill:none; stroke:#67e0a1; stroke-linecap:round; stroke-miterlimit:10; stroke-width:.38px;"/><path d="M104.36,121.05c.41,.96,1.87,1.43,2.68,1.9,1.65,.97,3.25,2.04,4.78,3.21,.78,.59,1.54,1.21,2.28,1.84,.5,.43,1.17,1.13,1.9,1.15,.03,0,.05,0,.08,0,.72-.1,1.04-1.74,1.27-2.26,.43-.96,.91-1.9,1.44-2.81,.6-1.03,2.29-2.41,2.02-3.74-.18-.91-1.7-1.29-2.4-1.67-1.41-.77-2.81-1.92-4.32-2.46-1.49-.53-2.99-.36-4.53-.36-.74,0-2.36-.35-3.01,.04-.12,.08-.22,.2-.31,.31-.97,1.27-1.98,2.93-1.93,4.59,0,.09,0,.18,.04,.26Z" style="fill:none; stroke:#67e0a1; stroke-linecap:round; stroke-miterlimit:10; stroke-width:.38px;"/><path d="M110.87,120.91c.37,.24,.74,.49,1.11,.74,.56,.38,1.12,.76,1.62,1.22,.29,.27,.6,.47,1,.37,.02,0,.03,0,.05-.01,.35-.11,.65-.41,.78-.75,.14-.34,.16-.74-.02-1.07-.17-.33-.5-.53-.81-.71-.33-.19-.64-.42-.98-.59-.7-.36-1.46-.53-2.25-.53-.4,0-1.4-.2-1.57,.35-.05,.15,.02,.32,.14,.43,.24,.23,.64,.38,.92,.57Z" style="fill:none; stroke:#67e0a1; stroke-linecap:round; stroke-miterlimit:10; stroke-width:.38px;"/><path d="M138.53,141.49c.17,.11,.36,.24,.55,.4,1.34,.82,2.97,1.05,5.02,1.34,.45,.06,.92,.13,1.4,.21h.06s.06,.02,.06,.02c2.18,.42,4.71,1.12,6.96,3.13,1.64,1.44,2.81,3.33,3.5,5.63v.04s.02,.04,.02,.04c.58,2.1,.76,4.31,.54,6.58h2.9v-5.63c-2.15-2.65-2.5-6.04-2.68-7.75-.04-.35-.07-.69-.1-1.02-.16-1.69-.16-4.52-1.92-5.45-.9-.47-1.97-.44-2.92-.78-1.03-.37-1.97-.96-2.73-1.76-.72-.76-1.24-1.68-1.57-2.67-.15-.44-.23-.9-.34-1.35-.13-.56-.12-1.14-.28-1.7-.15-.54-.47-1.06-.99-1.28-1.12-.47-2.69,.58-3.6,1.16-.46,.29-.94,.65-1.44,1.03-.21,.16-.43,.32-.66,.49-1.16,.98-3.57,3.46-3.05,6.73,.22,1.13,.63,1.98,1.25,2.58Z" style="fill:none; stroke:#67e0a1; stroke-linecap:round; stroke-miterlimit:10; stroke-width:.38px;"/><path d="M147.44,139.65c-.18-.14-.37-.26-.56-.4-1.35-1.02-2.01-2.32-2.58-3.87-.1-.28-.22-.58-.49-.71-.22-.11-.49-.07-.71,.04-.22,.11-.39,.29-.55,.48-.71,.79-2.28,2.2-1.4,3.4,.37,.5,.96,.52,1.52,.63,.65,.12,1.3,.21,1.95,.31,.91,.13,1.86,.26,2.76,.48,.04,.01,.08,.02,.12,.01,0,0,.01,0,.02,0,.07-.03,.09-.13,.06-.2-.03-.07-.09-.12-.15-.17Z" style="fill:none; stroke:#67e0a1; stroke-linecap:round; stroke-miterlimit:10; stroke-width:.38px;"/><path d="M74.27,154.54c1.16-1.08,2.56-1.66,4-2.29,1.51-.66,2.86-1.5,3.56-3.05,.67-1.47,.78-3.12,1.17-4.67,.4-1.61,1.19-2.99,2.51-4.02,1.32-1.03,2.93-1.64,4.57-1.92,1.75-.3,3.55-.23,5.28,.14,1.75,.37,3.43,1.05,4.96,1.97,1.51,.9,2.86,2.05,4.05,3.35,1.17,1.28,2.17,2.71,3.02,4.22,.87,1.56,1.58,3.22,2.12,4.92,.14,.45,.27,.9,.39,1.35" style="fill:none; stroke:#67e0a1; stroke-linecap:round; stroke-miterlimit:10; stroke-width:.38px;"/><path d="M5.2,135.18c1.6,.12,2.85,1.18,3.66,2.51,.87,1.43,1.32,3.11,1.49,4.76,.2,1.83,.25,3.7,.71,5.49,.45,1.76,1.37,3.35,2.98,4.28,1.71,.99,3.73,1.2,5.51,2.02,.2,.09,.4,.19,.59,.3" style="fill:none; stroke:#67e0a1; stroke-linecap:round; stroke-miterlimit:10; stroke-width:.38px;"/><path d="M-4.28,147.35c2.26,.48,4.51,1.6,5.71,3.7l.23,.23c.52,1.05,.9,2.1,1.14,3.25" style="fill:none; stroke:#67e0a1; stroke-linecap:round; stroke-miterlimit:10; stroke-width:.38px;"/><path d="M-4.28,108.46c2.86,2.09,5.11,5.54,4.73,9.22-.3,2.92-2.25,5.48-4.74,7" style="fill:none; stroke:#67e0a1; stroke-linecap:round; stroke-miterlimit:10; stroke-width:.38px;"/><path d="M6.03,131.79c.79,.27,1.65,.34,2.44,.61,1.62,.55,2.86,1.91,3.64,3.43,1.16,2.26,1.38,4.91,1.89,7.37,.38,1.84,.12,5.05,2.07,6.05,.38,.2,.81,.28,1.23,.38,2.94,.73,6.29,1.94,8.3,4.37,1.24,1.5,1.87,3.15,2.07,4.87h40.01c.75-1.5,1.59-2.94,2.52-4.53,.38-.65,.77-1.3,1.3-1.84,1.72-1.75,4.21-2,5.92-3.6,.9-.84,1.41-2.03,1.75-3.22,.22-.8,.38-1.62,.61-2.41,.85-2.92,3.24-6.87,6.53-7.46,2.03-.36,3.31-1.21,2.2-3.41-.41-.82-1.02-1.51-1.51-2.28-1.94-3.06-2.16-7.59-1.55-11.08,.38-2.18,1.22-4.24,2.06-6.29,1.6-3.91,2.77-8.88,5.57-12.09,.77-.88,3.34-2.49,2.99-3.75-.15-.54-.72-.81-1.2-1.09-2.76-1.63-3.31-5.19-6.69-6.27-1.71-.54-3.56-.24-5.32,.15-5.48,1.22-11.17,3.27-16.56,1.68-1.56-.46-3.11-1.23-4.73-1.02-2.68,.34-4.34,3.34-4.26,6.05,.07,2.46,.66,3.84,2.11,5.87,4.2,5.89,5.07,15.6,1.99,22.14-2.3,4.89-6.23,9.06-12.1,8.69-5.78-.36-10.14-5.13-14.17-9.29-4.18-4.31-11.06-9.55-17.5-7.21-1.67,.61-3.06,1.78-4.42,2.94-2.64,2.26-10.05,6.09-8.95,10.6,.2,.81,.98,1.36,1.77,1.63Z" style="fill:none; stroke:#67e0a1; stroke-linecap:round; stroke-miterlimit:10; stroke-width:.38px;"/><path d="M11.77,129.89c1.58,1.04,2.82,2.56,3.68,4.23,1.14,2.22,1.55,4.56,1.91,6.62,.1,.6,.2,1.16,.32,1.7,.2,.99,.22,1.92,.79,2.82,.95,1.52,3.44,1.8,4.97,2.53,1.92,.92,3.69,2.17,5.06,3.81,1.38,1.66,2.69,4.05,2.96,7.26H63.52c1.01-2.25,2.14-4.22,3.44-6.43,.45-.76,1-1.7,1.86-2.57,1.67-1.7,3.99-2.26,5.62-3.99,.25-.26,.49-.54,.67-.85,.28-.47,.44-.99,.59-1.51,1.26-4.21,3.34-8.16,7.23-10.51,.2-.12,.4-.24,.54-.43,.2-.28,.23-.66,.14-1-.08-.34-.26-.64-.43-.95-2-3.67-2.15-8.17-1.45-12.23,.45-2.59,1.42-4.97,2.28-7.07,.39-.95,.76-1.99,1.15-3.09,.96-2.7,1.94-5.43,3.47-7.88,.51-.81,1.89-1.8,1.91-2.81,.02-.97-1-1.71-1.52-2.43-.91-1.26-1.35-1.8-2.01-2.01-.25-.08-.55-.12-.91-.12-.76,0-1.67,.18-2.45,.36-.93,.21-1.87,.44-2.86,.69-3.3,.82-6.71,1.67-10.26,1.67-2.39,0-4.74-.44-7.01-1.13-.64-.19-1.38-.26-1.93,.13-1.77,1.25-.03,4.16,.85,5.4,4.99,7,5.99,18.14,2.33,25.92-3.3,7.01-8.55,10.86-14.78,10.86-.31,0-.63-.01-.95-.03-6.99-.44-12.05-5.68-16.12-9.9-.17-.18-.34-.35-.51-.52-4.09-4.22-8.28-6.65-11.49-6.65-.72,0-1.39,.12-2.04,.35-1.05,.38-2.17,1.34-3.26,2.26-.69,.59-1.55,1.2-2.46,1.84-.97,.69-4.31,2.42-4.1,3.89,.15,1.03,1.97,1.27,2.68,1.74Z" style="fill:none; stroke:#67e0a1; stroke-linecap:round; stroke-miterlimit:10; stroke-width:.38px;"/><path d="M17.25,129.99c.58,.75,1.09,1.57,1.52,2.41,.73,1.42,1.25,2.93,1.63,4.47,.33,1.33,.34,2.58,.49,3.92,.07,.63,.15,1.28,.48,1.82,.84,1.38,2.4,1.18,3.67,1.8,2.59,1.25,4.71,2.86,6.32,4.8,1.54,1.86,3.51,5.09,3.82,9.65h24.39c.54-1.25,.98-2.57,1.61-3.8,.79-1.54,1.66-3.05,2.54-4.54,.49-.84,1.24-2.1,2.42-3.3,.97-.99,2.18-2.01,3.49-2.51,1-.39,2.08-1.07,2.64-2.02,.6-1.01,.57-2.4,.94-3.51,.36-1.07,.91-2.12,1.5-3.09,.62-1.02,1.35-2.12,2.22-2.95,.76-.71,1.64-1.42,1.71-2.56,.01-.21,0-.42-.03-.63-.22-2.14-.92-4.16-1-6.3-.08-1.98,.08-3.96,.42-5.91,.52-2.99,1.62-5.68,2.51-7.84,.35-.87,.71-1.87,1.09-2.93,.54-1.53,1.09-3.06,1.73-4.55,.63-1.47,1.7-2.57,2.41-4,.11-.23,.22-.47,.21-.72-.02-.34-.29-.66-.63-.72-.48-.09-1.12,.2-1.59,.26-.68,.08-1.37,.26-2.05,.43,0,0,0,0,0,0-4.41,1.12-9.85,2.75-14.33,1.24-.29-.1-.64-.21-.89-.02-.2,.14-.25,.42-.19,.66,.06,.24,.2,.44,.33,.64,4.58,6.81,5.22,16.4,2.83,24.13-.35,1.13-.77,2.23-1.27,3.3-3.9,8.27-10.52,13.02-18.17,13.02-.39,0-.79-.01-1.18-.04-8.44-.53-14.3-6.6-18.58-11.03-.17-.17-.34-.35-.5-.52-3.93-4.06-7.19-5.5-8.79-5.5-.28,0-.52,.04-.76,.13-.86,.31-1.56,1.19-2.27,1.74-.83,.64-2.92,1.96-2.09,3.31,.29,.48,1.06,.78,1.44,1.27Z" style="fill:none; stroke:#67e0a1; stroke-linecap:round; stroke-miterlimit:10; stroke-width:.38px;"/><path d="M73.37,106.37c.29,.9,.41,1.88,.55,2.81,.28,1.86,.42,3.75,.54,5.63,0,.12,.02,.24,.08,.34,.04,.07,.11,.12,.19,.13,.04,0,.08,0,.11-.01,.09-.04,.13-.14,.16-.23,.39-1.12,.45-2.3,.85-3.41,.38-1.06,.8-2.1,1.23-3.14,.6-1.47,1.15-2.94,1.93-4.32,.16-.27,.31-.55,.38-.86s.03-.65-.16-.9c-.04-.05-.1-.1-.16-.12-.07-.02-.14,0-.21,0-1.03,.2-1.99,.44-3.03,.6-.79,.12-2.28-.11-2.92,.3-.34,.22-.46,.68-.4,1.09,.11,.75,.64,1.38,.87,2.1Z" style="fill:none; stroke:#67e0a1; stroke-linecap:round; stroke-miterlimit:10; stroke-width:.38px;"/><path d="M24.39,137.73c.09,.64,.1,1.29,.27,1.91,.17,.62,.53,1.23,1.11,1.5,.71,.32,1.54,.28,2.25,.6,.84,.37,1.65,.98,2.39,1.52,1.42,1.03,2.72,2.22,3.84,3.57,1.92,2.32,4.4,6.36,4.71,12.05h16.42c.15-.26,.29-.53,.43-.8,.3-.58,.57-1.27,.86-1.99,.35-.88,.7-1.78,1.18-2.72,.86-1.68,1.82-3.32,2.65-4.73,.55-.93,1.47-2.5,2.97-4.02,.8-.82,1.69-1.65,2.67-2.25,.81-.5,1.89-.86,2.57-1.55,.66-.66,.67-1.97,.96-2.82,.42-1.23,1.02-2.49,1.85-3.84,.67-1.09,1.41-2.05,2.24-2.99,1.56-1.75,.61-5.03,.34-7.1-.02-.19-.15-.44-.32-.36-.07,.03-.1,.1-.13,.17-.23,.51-.45,1.03-.61,1.56-.41,1.31-.9,2.59-1.46,3.79-4.54,9.64-12.4,15.17-21.56,15.17-.47,0-.95-.01-1.42-.04-9.89-.62-16.61-7.57-21.05-12.17-.17-.17-.33-.34-.5-.52-1.34-1.38-3.31-3.49-5.2-4.11-.55-.18-1.21,.3-1.21,.89,.02,1.47,1.68,2.61,2.23,3.89,.74,1.71,1.26,3.57,1.53,5.41Z" style="fill:none; stroke:#67e0a1; stroke-linecap:round; stroke-miterlimit:10; stroke-width:.38px;"/><path d="M39.64,148.06c1.91,3.41,2.87,7.09,3.04,10.81h8.26c.17-.24,.34-.48,.5-.71,.38-.58,.74-1.18,1.05-1.79,.21-.42,.45-1.02,.7-1.66,.36-.92,.77-1.96,1.33-3.05,.64-1.25,1.37-2.42,1.98-3.68,.03-.06,.06-.12,.07-.19,.04-.26-.22-.48-.48-.49-.4-.02-.93,.32-1.34,.41-.51,.12-1.04,.18-1.55,.24-1.06,.13-2.12,.19-3.19,.19-.55,0-1.1-.02-1.65-.05-1.88-.12-3.74-.44-5.55-.96-.78-.22-1.52-.32-2.27-.47-.3-.06-1.54-1.01-1.64-.3-.01,.09,.02,.19,.06,.27,.2,.51,.41,.96,.68,1.43Z" style="fill:none; stroke:#67e0a1; stroke-linecap:round; stroke-miterlimit:10; stroke-width:.38px;"/><path d="M29.59,139.54c-.35-.02-.76-.18-1-.29-.41-.18-.71-.56-.9-.97-.18-.41-.27-.86-.35-1.3-.02-.1-.04-.2,0-.3,.07-.21,.35-.27,.55-.19,.2,.08,.35,.26,.48,.44,.53,.67,1.13,1.34,1.78,1.89,.18,.2,.05,.55-.19,.67-.1,.05-.23,.07-.37,.06Z" style="fill:none; stroke:#67e0a1; stroke-linecap:round; stroke-miterlimit:10; stroke-width:.38px;"/><path d="M106.77,158.87c-.03-1.14-.22-2.36-.56-3.65-.57-2.15-1.46-4.19-2.64-6.06-1.16-1.85-2.53-3.37-4.09-4.53-1.62-1.21-3.49-2.02-5.4-2.34-.6-.1-1.2-.15-1.78-.15-1.25,0-2.44,.24-3.42,.68-.65,.3-1.19,.67-1.56,1.09-.3,.34-.52,.85-.7,1.54-.1,.39-.18,.83-.27,1.31-.38,2.03-.9,4.8-3.22,6.88-1.29,1.16-2.74,1.77-3.9,2.26l-.23,.1c-.71,.3-1.44,.64-1.96,1.07-.51,.43-.99,1.01-1.45,1.79h31.16Z" style="fill:none; stroke:#67e0a1; stroke-linecap:round; stroke-miterlimit:10; stroke-width:.38px;"/><path d="M-4.5,143.44h.06s.06,.02,.06,.02c2.18,.42,4.71,1.12,6.96,3.13,1.64,1.44,2.81,3.33,3.5,5.63v.04s.02,.04,.02,.04c.58,2.1,.76,4.31,.54,6.58h12.74c-.38-.57-.89-1-1.48-1.26-.51-.22-1.16-.41-1.84-.62-1.8-.53-4.05-1.19-5.9-3.06-2.7-2.73-3.1-6.58-3.29-8.44-.04-.35-.07-.69-.1-1.02-.16-1.69-.16-4.52-1.92-5.45-.9-.47-1.97-.44-2.92-.78-1.03-.37-1.97-.96-2.73-1.76-.72-.76-1.24-1.68-1.57-2.67-.15-.44-.23-.9-.34-1.35-.13-.56-.12-1.14-.28-1.7-.15-.54-.47-1.06-.99-1.28-1.12-.47-2.69,.58-3.6,1.16-.34,.22-.69,.47-1.06,.74v11.37c.82,.19,1.72,.32,2.73,.46,.45,.06,.92,.13,1.4,.21Z" style="fill:none; stroke:#67e0a1; stroke-linecap:round; stroke-miterlimit:10; stroke-width:.38px;"/><path d="M103.05,158.87c-.04-2.71-1.29-5.54-2.66-7.72-.91-1.45-1.97-2.64-3.15-3.52-1.38-1.03-3.36-1.97-5.11-1.9-2.74,.11-2.37,3.69-3.09,5.62-.72,1.94-1.86,3.7-3.4,5.08-1.17,1.05-2.81,1.66-4.27,2.43h21.67Z" style="fill:none; stroke:#67e0a1; stroke-linecap:round; stroke-miterlimit:10; stroke-width:.38px;"/><path d="M155.2,120.85c-2.12,2-4,4.25-4.97,7.1-.3,1.05-.52,2.1-.45,3.23,.15,1.35,.68,2.7,2.03,3.23,1.12,.37,2.25,.37,3.4,.67" style="fill:none; stroke:#67e0a1; stroke-linecap:round; stroke-miterlimit:10; stroke-width:.38px;"/><path d="M143.65-3.04c1.25,.19,2.52,.42,3.8,.87,.3,.15,.6,.3,.9,.37,.97,.45,1.8,1.2,2.55,2.03,.3,.37,.52,.75,.83,1.2,2.32,4.35,1.2,9.38-.6,13.65-.9,2.1-1.72,4.12-2.48,6.3-.15,.45-.23,.83-.3,1.28-1.8,6.52-.23,13.05,3.3,18.75,1.2,1.88,2.48,3.52,3.56,5.36" style="fill:none; stroke:#67e0a1; stroke-linecap:round; stroke-miterlimit:10; stroke-width:.38px;"/><path d="M110.67-3.04c3.1,5.44,4.15,12.11,1.9,18.04-.07,.15-.15,.3-.22,.52,0,.07-.15,.15-.15,.23-.08,.3-.08,.53-.23,.83-.83,1.73-1.73,3.3-3,4.8-1.5,1.65-2.93,3.23-4.5,4.8l-.9,1.12c-.23,.23-.45,.53-.75,.75-1.5,1.72-2.4,3.75-3.23,5.77-.98,2.4-1.65,4.8-2.48,7.27-.3,1.05-.6,2.03-.75,3.08-.23,1.35-.07,2.7,.38,3.98,.3,.82,.75,1.5,1.2,2.25,.45,.67,.9,1.27,1.35,1.95,1.88,3.23,2.62,6.75,2.17,10.43l-.23,1.35c-.15,.82-.45,1.57-.68,2.32-1.05,2.77-2.48,5.25-3.67,7.95-2.03,4.8-1.8,10.35,1.35,14.85,2.55,3.52,6.52,5.7,10.73,5.4,2.1-.07,4.12-.83,6.23-.75,2.92,.07,5.85,.82,8.55,2.17,1.42,.83,2.7,1.65,4.05,2.63,1.12,.75,2.25,1.2,3.45,1.8,.15,.08,.23,0,.38,.08,1.95,.9,3.97,1.72,6.15,1.88,.07,.08,.23,.23,.32,.31" style="fill:none; stroke:#67e0a1; stroke-linecap:round; stroke-miterlimit:10; stroke-width:.38px;"/><path d="M155.21,80.72c-1.76-3.92-2.21-8.2-1.98-12.47,.23-3.38,.45-6.67,.38-10.05-.08-.9-.15-1.72-.23-2.62-.15-.9-.22-1.8-.45-2.7,0-.08-.15-.23-.15-.3-.22-.97-.52-1.88-.9-2.77-.07-.22-.15-.52-.23-.75-.37-.9-.75-1.73-1.2-2.55-.6-1.12-1.13-2.1-1.73-3.22-.3-.45-.52-.9-.82-1.35-.68-1.2-1.27-2.32-1.8-3.52-.08-.15,0-.23-.08-.38-2.1-4.8-2.77-10.2-1.27-15.3,.15-.45,.15-.9,.3-1.35,1.2-3.52,2.62-6.9,3.75-10.5,.15-.45,.22-.9,.3-1.35,.3-1.58,.38-3.15-.07-4.65-.52-1.57-1.65-2.85-3.15-3.6-.08-.08-.22,0-.3-.08-.37-.23-.75-.38-1.12-.45-.07,0-.15-.15-.22-.15-.45-.15-.98-.22-1.43-.3-2.25-.52-4.42-.75-6.6-1.42-.15-.08-.3-.23-.45-.3-.98-.3-1.73-.9-2.43-1.6" style="fill:none; stroke:#67e0a1; stroke-linecap:round; stroke-miterlimit:10; stroke-width:.38px;"/><path d="M150.88,79.9c-1.78-5.27-1.51-10.37-1.24-15.3,.2-3.67,.38-7.14-.3-10.45-.64-3.09-2.26-6.03-3.97-9.15-.49-.89-.99-1.81-1.48-2.74-3.52-6.76-4.52-13.69-2.91-20.04,.67-2.65,1.56-5.02,2.42-7.32,.46-1.24,.94-2.52,1.37-3.81,.53-1.58,1.24-3.76,.35-5.32-.78-1.38-2.35-1.73-3.8-2.01-.44-.08-.9-.16-1.38-.24-2.52-.42-5.38-.9-7.91-2.75-2.74-2-4.31-5.04-5.07-8.16h-14.66c1.1,1.56,2.03,3.19,2.78,4.87,3.03,6.79,3.09,14.58,.15,20.82-1.14,2.42-2.52,4.48-4.34,6.49-.6,.66-1.22,1.32-1.82,1.95-2.21,2.33-4.31,4.53-5.34,7.06-.96,2.34-1.71,4.37-2.28,6.2-.15,.47-.3,.93-.45,1.38-.85,2.53-1.3,4.04-.69,5.46,.29,.69,.77,1.43,1.28,2.22,.36,.56,.73,1.13,1.08,1.76,2.47,4.38,3.23,9.69,2.07,14.58-.65,2.77-1.82,5.17-2.96,7.49-.39,.8-.76,1.56-1.1,2.32-1.09,2.41-1.39,4.46-1.05,7.06,.26,1.95,.98,4.61,2.96,6.22,1.6,1.29,4.19,2.46,5.56,2.49,.04,0,.07,0,.11,0,.75,0,1.59-.17,2.56-.36,1.2-.24,2.56-.51,4.06-.51,.1,0,.2,0,.3,0,3.15,.07,5.83,.93,8.31,1.79,2.36,.82,4.34,2.21,6.08,3.43,1.43,1,2.78,1.94,4.16,2.48,.77,.3,1.58,.57,2.43,.85,.2,.07,.41,.13,.62,.19,1.31,.39,2.53,1.02,3.6,1.89,.83,.67,1.34,1.48,2.34,1.96,.9,.42,1.9,.62,2.82,1,1.19,.5,2.31,1.17,3.32,1.98,.87,.7,1.66,1.51,2.35,2.39,.71,.91,.97,1.83,1.48,2.83,.21,.42,.52,.83,.96,1,.97,.38,1.96-.36,2.67-.92,1.02-.81,2.06-1.64,3.2-2.4v-15.56c-3.87-3.43-6.91-7.97-8.66-13.14Z" style="fill:none; stroke:#67e0a1; stroke-linecap:round; stroke-miterlimit:10; stroke-width:.38px;"/><path d="M147.33,81.11c-2.02-5.95-1.71-11.66-1.44-16.7,.18-3.42,.36-6.66-.23-9.48-.53-2.54-2.01-5.24-3.58-8.11h0c-.5-.92-1.01-1.85-1.51-2.81-3.95-7.59-5.06-15.44-3.21-22.7,.72-2.85,1.65-5.31,2.54-7.7,.39-1.05,.7-2.18,1.16-3.2,.36-.79,.71-1.41,.32-2.32-.37-.87-1.52-1.01-2.34-1.09-1.53-.15-2.99-.35-4.47-.82-1.69-.54-3.3-1.31-4.73-2.36-3.8-2.77-5.83-7-6.68-11.19h-6.37c.65,1.09,1.23,2.2,1.74,3.34,3.47,7.78,3.52,16.73,.12,23.95-1.3,2.76-2.88,5.12-4.96,7.41-.63,.69-1.27,1.36-1.88,2.02-1.97,2.07-3.82,4.02-4.59,5.9-.53,1.29-1.03,2.58-1.5,3.89-.44,1.24-1.07,2.38-1.49,3.63-.4,1.22-.56,2.18-.07,3.37,.43,1.05,1.24,1.88,1.79,2.86,2.93,5.19,3.83,11.49,2.46,17.29-.75,3.18-2.07,5.88-3.23,8.27-.38,.77-.73,1.5-1.05,2.22-.8,1.77-1,3.13-.75,5.03,.32,2.39,2.08,5.09,4.69,5.33,2.28,.21,4.55-.74,6.85-.74,.13,0,.26,0,.38,0,3.69,.09,6.82,1.08,9.46,2,2.85,.99,5.15,2.6,6.99,3.89,1.24,.87,2.41,1.68,3.37,2.06,.68,.26,1.44,.52,2.25,.78,.15,.05,.33,.1,.52,.16,1.23,.37,2.46,.88,3.5,1.62,.95,.68,1.79,1.52,2.82,2.08,2.36,1.3,4.91,2.09,7.03,3.8,.84,.68,1.57,1.48,2.22,2.34,.44,.59,.84,1.58,1.68,1.65,.01,0,.03,0,.04,0,.83,.04,1.61-.8,2.21-1.21,.7-.47,1.42-.92,2.16-1.32v-6.42c-1.24-.89-2.41-1.87-3.52-2.94-3.95-3.81-6.93-8.59-8.69-13.78Z" style="fill:none; stroke:#67e0a1; stroke-linecap:round; stroke-miterlimit:10; stroke-width:.38px;"/><path d="M157.48,100.59c-.72-.4-1.49-.76-2.13-1.27-.68-.54-1.32-1.13-1.94-1.74-4.34-4.2-7.67-9.48-9.64-15.28-2.25-6.63-1.91-13-1.63-18.11,.17-3.17,.33-6.17-.16-8.52-.41-1.99-1.76-4.45-3.2-7.06v-.02c-.51-.92-1.04-1.87-1.56-2.87-4.38-8.42-5.6-17.19-3.52-25.36,.77-3.04,1.73-5.61,2.66-8.09,.12-.32,.25-.71,.28-1.05,.02-.23-.04-.49-.2-.65-.57-.56-2.27-.59-3.03-.84-2.15-.69-4.1-1.66-5.8-2.9-.47-.34-1.64-1.72-2.3-1.51-.26,.08-.33,.42-.35,.69-.18,2.66-.1,5.3-.57,7.95-.46,2.6-1.25,5.15-2.38,7.54-1.46,3.11-3.23,5.76-5.57,8.34-.66,.73-1.31,1.41-1.95,2.08-1.14,1.2-2.38,2.1-3.17,3.62-.83,1.59-1.49,3.13-2.1,4.84-.49,1.39-1.46,2.81-1.2,4.35,.1,.6,.4,1.15,.7,1.69,.14,.25,.32,.46,.46,.71,3.39,6,4.43,13.29,2.85,19.99-.85,3.58-2.32,6.62-3.51,9.06-.36,.75-.71,1.45-1,2.11-.51,1.13-.61,1.8-.45,3,.11,.85,.49,1.79,1.4,1.98,.88,.19,1.75-.04,2.62-.21,1.13-.21,2.41-.45,3.8-.45,.16,0,.32,0,.47,0,4.24,.1,7.7,1.19,10.61,2.21,3.34,1.17,5.98,3.01,7.91,4.36,.91,.64,2.04,1.43,2.57,1.64,.59,.23,1.31,.47,2.06,.72,.1,.03,.27,.08,.42,.13,1.82,.54,3.32,1.25,4.6,2.15,.46,.32,.87,.66,1.24,.96,.45,.36,.87,.71,1.22,.9,.71,.39,1.47,.74,2.28,1.12,1.67,.77,3.56,1.65,5.3,3.05,.78,.63,1.43,1.67,2.33,2.08,.15,.07,.31,.12,.47,.11,.13-.01,.25-.07,.37-.12,.31-.15,.63-.3,.94-.44,.08-.04,.17-.08,.22-.15,.1-.13,.06-.32-.03-.45s-.24-.21-.38-.29Z" style="fill:none; stroke:#67e0a1; stroke-linecap:round; stroke-miterlimit:10; stroke-width:.38px;"/><path d="M139.56,81.32c-.56-2.07-.93-4.19-1.14-6.33-.36-3.66-.22-7.33-.02-10.99,.16-2.92,.31-5.68-.08-7.56-.3-1.44-1.57-3.76-2.81-6.02v-.02c-.53-.94-1.06-1.91-1.6-2.94-4.82-9.25-6.14-18.94-3.83-28.01,.46-1.76,1.23-3.51,1.55-5.29,.05-.25,.09-.51,.04-.76-.16-.74-2.43-1.59-3-.97-.48,.53-.46,1.53-.58,2.19-.53,2.98-1.43,5.83-2.68,8.48-1.63,3.45-3.59,6.39-6.19,9.26-.69,.76-1.36,1.46-2.01,2.15-.37,.39-.75,.75-1.07,1.06-1.09,1.05-1.86,2.39-2.48,3.76-.58,1.3-1.44,2.82-1.32,4.27,.16,1.82,1.19,3.69,1.86,5.36,.8,1.98,1.39,4.05,1.77,6.15,.77,4.25,.69,8.66-.3,12.87-.82,3.46-2.48,6.5-3.67,9.8-.12,.32,.08,.69,.37,.86s.65,.2,.99,.2c.51,0,1.01,.02,1.51,.02,.19,0,.37,0,.56,0,4.78,.11,8.57,1.31,11.75,2.42,3.98,1.39,7.38,3.91,11.03,5.94,.63,.35,1.81,1.25,2.57,1.13,.24-.04,.46-.2,.58-.41,.05-.1,.08-.2,.08-.32,0-.13-.04-.26-.08-.39-.63-1.99-1.29-3.93-1.83-5.93Z" style="fill:none; stroke:#67e0a1; stroke-linecap:round; stroke-miterlimit:10; stroke-width:.38px;"/><path d="M134.66,63.8c.11-2.03,.46-4.16-.03-6.14-.48-1.93-1.45-3.68-2.4-5.41,0,0-.02-.04-.02-.04-.52-.95-1.06-1.94-1.62-3-1.3-2.52-2.42-5.13-3.28-7.83-.8-2.49-1.13-5.08-1.95-7.54-.14-.42-.34-.9-.77-1.02-1.02-.29-2.03,1.48-2.58,2.08-.72,.79-1.4,1.51-2.06,2.21-.44,.46-.86,.86-1.2,1.19-.58,.56-1.11,1.38-1.65,2.59-.1,.22-.2,.45-.3,.66-.74,1.57-.35,3.15,.32,4.66,.2,.45,.4,.91,.59,1.38,.89,2.2,1.55,4.52,1.98,6.88,.87,4.78,.75,9.76-.34,14.4-.23,.98-.52,1.94-.86,2.89-.26,.74-.74,1.65-.63,2.47,.23,1.66,3.95,1.61,5.15,1.9,1.84,.44,3.65,1.02,5.43,1.64,1.09,.38,4.81,3.02,6.14,2.17,.12-.08,.23-.19,.31-.34,.63-1.16-.09-3.02-.21-4.23-.39-3.98-.23-7.89-.03-11.56Z" style="fill:none; stroke:#67e0a1; stroke-linecap:round; stroke-miterlimit:10; stroke-width:.38px;"/><path d="M130.2,73.68c-.14,.1-.33,.08-.51,.07-1.36-.15-2.65-.42-3.98-.8-.98-.28-2.47-.28-2.85-1.45-.14-.42-.03-.87,.07-1.3,1.31-5.32,1.43-11.02,.45-16.41-.47-2.61-1.21-5.17-2.19-7.61-.21-.53-.43-1.02-.64-1.5-.35-.79-.47-1.31-.35-1.55,.1-.2,.21-.46,.33-.71,.31-.69,.65-1.12,1.19-1.65,.31-.31,.77-.63,1.13-.39,.17,.12,.25,.33,.32,.53,1.12,3.43,2.44,6.81,4.1,10.02h0c.58,1.12,1.13,2.12,1.66,3.08l.08,.15c.84,1.54,1.64,2.99,1.99,4.41,.24,.96,.13,2.24,.03,3.6-.04,.47-.08,.95-.1,1.44-.09,1.76-.1,3.53-.11,5.29,0,1.34,.1,3.16-.36,4.42-.05,.14-.12,.28-.24,.37Z" style="fill:none; stroke:#67e0a1; stroke-linecap:round; stroke-miterlimit:10; stroke-width:.38px;"/><path d="M126.53,55.9c1.24,3.01,1.08,6.38,.91,9.63-.08,1.48-.16,2.96-.24,4.44" style="fill:none; stroke:#67e0a1; stroke-linecap:round; stroke-miterlimit:10; stroke-width:.38px;"/><path d="M156.77-5.52c-.05-.54-.08-1.19-.16-1.86h-15.81c.97,.28,2.06,.44,3.3,.61,.45,.06,.92,.13,1.4,.21h.06s.06,.02,.06,.02c2.18,.42,4.71,1.12,6.96,3.13,1.64,1.44,2.81,3.33,3.5,5.63v.04s.02,.04,.02,.04c.89,3.2,.84,6.62-.15,10.18l-.03,.09-.03,.09c-.04,.13-.08,.26-.13,.44-.06,.23-.14,.51-.25,.84l-.02,.07-.02,.07c-.47,1.24-.95,2.45-1.42,3.61-.47,1.16-.91,2.27-1.34,3.41-.06,.16-.11,.31-.17,.46-.26,.71-.45,1.23-.53,1.77-.05,.46-.18,.85-.32,1.15-.33,1.62-.31,3.23-.26,4.87,.37,4.57,2.3,9.04,5.89,13.66l.08,.11,.08,.11c.12,.17,.21,.34,.28,.48l.12,.12,.24,.42c.61,1.05,1.06,2.01,1.41,3.07v-8.35c-1.08-2.52-1.55-5.29-1.37-8.05,.13-2.01,.6-4.03,1.37-5.94V3.24c-2.15-2.65-2.5-6.04-2.68-7.75-.04-.35-.07-.69-.1-1.02Z" style="fill:none; stroke:#67e0a1; stroke-linecap:round; stroke-miterlimit:10; stroke-width:.38px;"/><path d="M106.63-3.02c1.52,2.34,2.57,4.89,3.32,7.59,.38,1.43,.53,2.85,.6,4.27,.07,1.12-.07,2.25-.3,3.38-.82,3.82-3.38,6.6-6.08,9.23-.22,.22-.45,.52-.67,.75-.3,.23-.52,.45-.75,.68-1.12,1.27-2.25,2.4-3.3,3.82-2.1,2.92-3.23,6.08-4.35,9.3-.07,.22-.23,.37-.3,.6-1.2,3.52-2.47,7.05-2.02,10.8,.23,1.58,.6,3.07,1.5,4.5,1.58,2.47,3.45,4.8,3.6,7.72,.3,3.98-1.95,7.43-3.45,11.03-.23,.67-.53,1.35-.75,2.02-.07,.22-.07,.45-.15,.67-2.02,6.07-2.1,13.12,2.17,18.3,.07,.07,.07,.23,.15,.3,2.02,2.4,4.5,4.05,7.35,5.1,1.95,.67,3.98,.9,6.08,.75,1.95-.23,3.82-.6,5.78-.75,2.7-.15,5.25,.83,7.57,2.25,2.93,1.8,5.4,3.98,8.48,5.25,.82,.3,1.72,.52,2.59,.68" style="fill:none; stroke:#67e0a1; stroke-linecap:round; stroke-miterlimit:10; stroke-width:.38px;"/><path d="M10.85-3.03c.21,1.13,.53,2.27,1.14,3.26,.64,1.04,1.56,1.8,2.66,2.31,2.18,1.01,4.73,1.15,6.59,2.79,1.5,1.33,2.4,3.27,2.61,5.24,.21,2-.28,4.09-1.59,5.65-.88,1.05-2.02,1.84-3.12,2.64-1.05,.76-2.05,1.55-2.94,2.5-1.71,1.84-2.99,4.08-3.7,6.49-.7,2.37-.83,4.92-.26,7.33,.53,2.28,1.66,4.41,3.21,6.15,1.55,1.75,3.54,3.12,5.77,3.84,2.89,.93,5.97,.72,8.94,.42,1.55-.16,3.1-.34,4.66-.43,1.58-.09,3.15-.11,4.73-.15,3.04-.07,6.13-.17,9.1-.92,2.32-.59,4.58-1.59,6.46-3.09,1.94-1.55,3.32-3.6,3.89-6.02,.65-2.73,.48-5.66,1.69-8.24,1.07-2.31,3.01-4.04,4.71-5.88,.83-.9,1.6-1.85,2.23-2.9,.57-.95,1.03-1.95,1.44-2.97,.83-2.05,1.48-4.17,2.38-6.19,.85-1.9,1.98-3.74,3.7-4.98,1.94-1.39,4.68-1.68,6.16-3.69,.68-.93,.99-2.07,1.21-3.18" style="fill:none; stroke:#67e0a1; stroke-linecap:round; stroke-miterlimit:10; stroke-width:.38px;"/><path d="M-4.28-2.65c.61,.18,1.13,.33,1.73,.48,.15,.07,.3,.15,.53,.23C0-1.05,1.58,.67,2.33,2.77c1.2,3.45,.67,7.12-.52,10.5-.9,2.25-1.8,4.5-2.63,6.75-.52,1.27-.98,2.55-1.2,3.97-.83,4.65-.15,9.15,1.65,13.43,1.35,3.3,3.45,6.08,5.4,8.92,1.8,3.45,2.17,7.35,2.33,11.18,0,2.55-.23,5.1-.45,7.65v.75c-.23,1.88-.45,3.68-.45,5.55,.07,1.65,.22,3.3,.67,4.95,.38,1.2,.75,2.4,1.27,3.52,2.33,4.95,6.45,8.92,11.63,10.72,.22,.08,.37,.23,.6,.3,2.47,.83,4.95,1.28,7.57,1.57,5.1,.53,9.9,.6,15,1.73,.07,0,.23,.15,.3,.15,1.43,.3,2.7,.68,3.97,1.35,.15,.07,.23,0,.38,.07,6,2.77,9.9,8.32,11.25,14.93,.08,.23,.08,.52,.08,.75,.53,2.47,.45,4.8,.08,7.2-.45,3.15-1.35,6.15-3.52,8.62-.6,.68-1.35,1.2-2.18,1.65-.75,.3-1.42,.6-2.25,.68-.75,.08-1.35,.08-2.1,0-3.08-.45-5.62-2.17-7.73-4.35-3.38-3.68-6.3-7.5-10.73-10.05-2.85-1.65-5.85-2.77-9.15-2.93-1.73-.07-3.45,.23-5.18,.75-4.05,1.2-7.05,4.05-10.2,6.75-1.8,1.65-3.52,3.23-4.65,5.4l-.23,.23c-.83,1.5-1.35,3-1.58,4.65-.23,1.88,.6,4.12,2.7,4.5,1.5,.23,3,.3,4.35,.98,1.05,.6,1.8,1.58,2.4,2.63,.07,.08,0,.23,.07,.3,.37,.52,.45,1.05,.63,1.62" style="fill:none; stroke:#67e0a1; stroke-linecap:round; stroke-miterlimit:10; stroke-width:.38px;"/><path d="M13.88-7.37c.04,.19,.07,.38,.11,.57,.38,1.84,.12,5.05,2.07,6.05,.38,.2,.81,.28,1.23,.38,2.94,.73,6.29,1.94,8.3,4.37,2.9,3.51,2.48,7.9,.91,11.87-1.52,3.84-5.18,4.82-7.74,7.82-2.55,2.99-4.08,6.56-3.09,10.55,1.32,5.33,6.45,7.73,11.6,7.86,3.61,.09,7.15-.82,10.74-.98,2.32-.11,4.65-.22,6.97-.33,1.84-.09,3.75-.19,5.37-1.07,1.63-.88,3.61-2.62,4.62-4.17,.5-.76,.66-1.68,.81-2.58,.46-2.68,.42-5.51,1.75-7.9,1.34-2.42,3.24-4.61,5.1-6.64,.62-.72,1.24-1.45,1.75-2.25,.74-1.16,1.23-2.45,1.71-3.73,1.14-3.01,2.46-5.32,4.09-8.1,.38-.65,.77-1.3,1.3-1.84,1.72-1.75,4.21-2,5.92-3.6,.9-.84,1.41-2.03,1.75-3.22,.22-.8,.38-1.62,.61-2.41,.06-.21,.13-.43,.21-.65H13.88Z" style="fill:none; stroke:#67e0a1; stroke-linecap:round; stroke-miterlimit:10; stroke-width:.38px;"/><path d="M17.7-7.37c.17,.92,.22,1.79,.75,2.64,.95,1.52,3.44,1.8,4.97,2.53,1.92,.92,3.69,2.17,5.06,3.81,2.38,2.87,4.57,7.91,1.51,15.64-1.32,3.34-3.75,5.14-5.69,6.58-1.01,.75-1.96,1.45-2.68,2.29-2.13,2.5-2.88,4.86-2.3,7.21,1.11,4.49,6.45,4.97,8.05,5.01,.14,0,.28,0,.42,0,1.65,0,3.36-.23,5.17-.48,1.57-.21,3.2-.43,4.89-.51,3.61-.17,7.48,.19,10.78-1.44,1.34-.66,2.55-1.68,3.16-3.05,.34-.75,.47-1.58,.6-2.4,.41-2.52,.6-4.94,1.87-7.23,1.51-2.72,3.57-5.12,5.57-7.31,.53-.62,1.03-1.21,1.39-1.78,.53-.84,.94-1.91,1.37-3.05,1.24-3.26,2.65-5.75,4.36-8.67,.45-.76,1-1.7,1.86-2.57,1.67-1.7,3.99-2.26,5.62-3.99,.25-.26,.49-.54,.67-.85,.28-.47,.44-.99,.59-1.51,.09-.3,.18-.6,.28-.89H17.7Z" style="fill:none; stroke:#67e0a1; stroke-linecap:round; stroke-miterlimit:10; stroke-width:.38px;"/><path d="M21.38-7.37c.84,1.38,2.4,1.18,3.67,1.79,2.59,1.25,4.71,2.86,6.32,4.8,2.48,2.99,6.04,9.49,2.11,19.41-1.72,4.34-4.87,6.67-6.95,8.21-.83,.61-1.61,1.2-2.06,1.71-1.92,2.25-1.63,3.43-1.51,3.88,.13,.52,.42,1.11,1.62,1.61,1.17,.48,2.5,.55,2.88,.56,.1,0,.21,0,.32,0,1.4,0,2.98-.21,4.67-.44,1.65-.22,3.36-.45,5.22-.54,1.36-.06,2.72-.08,4.08-.18,1.62-.11,3.75,.13,5.16-.83,1.29-.88,1.67-2.58,1.95-4.11,.46-2.49,.89-4.83,2.14-7.07,1.86-3.34,4.59-5.96,6.69-9.11,.54-.81,1.04-1.66,1.48-2.53,.77-1.5,1.25-3.18,2.04-4.71,.79-1.54,1.66-3.05,2.54-4.54,.49-.84,1.24-2.1,2.42-3.3,.97-.99,2.18-2.01,3.49-2.51,1-.39,2.08-1.07,2.64-2.02,.02-.03,.03-.05,.04-.08H21.38Z" style="fill:none; stroke:#67e0a1; stroke-linecap:round; stroke-miterlimit:10; stroke-width:.38px;"/><path d="M58.59-7.37c-2.67,1.16-5.56,1.76-8.59,1.76-.47,0-.95-.01-1.42-.04-2.67-.17-5.11-.8-7.34-1.72h-11.71c.3,.21,.59,.42,.88,.63,1.42,1.03,2.72,2.22,3.84,3.57,3.01,3.63,7.35,11.46,2.71,23.19-.86,2.18-2.13,4.18-3.7,5.92-.66,.73-1.37,1.41-2.11,2.04-.77,.67-1.72,1.02-2.34,1.86-.15,.21-.29,.49-.2,.72,0,.02,.02,.04,.02,.06,.14,.25,.48,.29,.77,.29,1.36-.04,2.63-.52,3.97-.65,1.37-.13,2.73-.32,4.12-.38,.52-.02,1.03-.04,1.53-.06,.96-.03,1.76-.03,2.7,.04,.59,.05,1.18-.14,1.74-.33,1.69-.57,1.89-2.13,2.22-3.75,.43-2.1,.97-4.28,2.02-6.17,1.23-2.21,2.72-4.06,4.16-5.84,.97-1.2,1.89-2.34,2.68-3.53,.46-.69,.89-1.42,1.27-2.16,.3-.58,.57-1.27,.86-1.99,.35-.88,.7-1.78,1.18-2.72,.86-1.68,1.82-3.32,2.65-4.73,.55-.93,1.47-2.5,2.97-4.02,.69-.71,1.44-1.42,2.26-1.99h-7.14Z" style="fill:none; stroke:#67e0a1; stroke-linecap:round; stroke-miterlimit:10; stroke-width:.38px;"/><path d="M38.32,25.85s-.05-.1-.06-.16c-.02-.15,.06-.29,.14-.42,.74-1.28,1.5-2.47,2.05-3.87,3.02-7.61,3.25-16.07-.81-23.34-.26-.47-.48-.92-.68-1.43-.03-.09-.07-.18-.06-.27,.1-.71,1.33,.24,1.64,.3,.75,.15,1.49,.25,2.27,.47,1.81,.52,3.67,.84,5.55,.96,.55,.03,1.1,.05,1.65,.05,1.07,0,2.13-.06,3.19-.19,.52-.06,1.05-.12,1.55-.24,.41-.09,.94-.43,1.34-.41,.26,.01,.52,.23,.48,.49-.01,.07-.04,.13-.07,.19-.61,1.26-1.35,2.43-1.98,3.68-.56,1.1-.97,2.14-1.33,3.05-.25,.64-.49,1.24-.7,1.66-.32,.61-.67,1.22-1.05,1.79-.69,1.04-1.56,2.11-2.47,3.25-1.47,1.82-3.14,3.88-4.52,6.38-1.42,2.07-2.01,5.02-2.42,7.44-.05,.32-.15,.69-.44,.82-.12,.05-.25,.05-.38,.05-.69,0-1.39,.01-2.08,.02-.28,0-.64-.05-.78-.26Z" style="fill:none; stroke:#67e0a1; stroke-linecap:round; stroke-miterlimit:10; stroke-width:.38px;"/><path d="M45.73,6.88c.01,.34,0,.69,.14,.99,.14,.31,.46,.56,.79,.49,.26-.06,.44-.3,.6-.52,1.25-1.34,1.93-3.55,2.76-5.17,.17-.33,.34-.68,.27-1.05-.03-.16-.11-.32-.25-.39-.1-.05-.22-.06-.33-.07-.47-.03-.94-.06-1.41-.09-1.03-.06-2.03-.08-3.07-.14-.13,0-.28,0-.39,.07-.15,.1-.19,.3-.18,.48,.01,.48,.23,.92,.41,1.36,.51,1.28,.61,2.66,.66,4.03Z" style="fill:none; stroke:#67e0a1; stroke-linecap:round; stroke-miterlimit:10; stroke-width:.38px;"/><path d="M3.81,117.24c1.22-1.21,2.49-2.19,3.84-3.24,.53-.37,.98-.67,1.5-.97,1.73-1.05,3.38-1.95,5.17-2.78,.15-.07,.23,0,.38-.07,1.2-.53,2.47-.83,3.75-1.05,1.42-.23,2.77-.23,4.2-.15,.9,.07,1.8,.22,2.78,.37,.68,.15,1.35,.38,2.02,.53,6.23,1.88,11.03,5.93,15.45,10.65,.08,.07,.08,.23,.15,.3,.97,1.05,1.8,2.1,3,3,.23,.08,.38,.23,.53,.38,.98,.6,1.95,.98,3,1.05,1.57,0,2.92-.75,3.9-2.02,.9-1.28,1.35-2.55,1.73-4.05,.75-3.52,.52-6.97-.68-10.27-1.35-3.45-3.6-6.45-6.9-8.4-5.02-2.93-10.65-3.3-16.2-3.67-.38-.08-.75-.08-1.12-.15h-.75c-3.45-.38-6.9-.75-10.2-1.95-2.33-.9-4.35-2.1-6.3-3.6-5.4-4.35-8.85-10.35-9.6-17.1-.6-5.03,.15-9.98,.15-15,0-1.35-.15-2.7-.3-4.12-.15-.97-.38-1.88-.6-2.85-.97-3.15-2.4-5.93-4.05-8.77-.15-.3-.3-.68-.45-.98-.9-1.43-1.57-2.92-2.25-4.42-.08-.23-.08-.45-.24-.68" style="fill:none; stroke:#67e0a1; stroke-linecap:round; stroke-miterlimit:10; stroke-width:.38px;"/><path d="M50.97,110.18c-.93-2.49-2.54-4.57-4.67-6.04-3.43-2.35-7.99-3.02-12.4-3.39-.76-.06-1.54-.12-2.3-.18-4.41-.33-8.96-.67-13.4-2.3-7.94-2.91-14.41-9.78-17.32-18.37-1.78-5.27-1.51-10.37-1.24-15.3,.2-3.67,.38-7.14-.3-10.45-.64-3.09-2.26-6.03-3.97-9.15-.49-.89-.99-1.81-1.48-2.74-1.08-2.07-1.92-4.15-2.52-6.23V101.68c.4,.39,.8,.76,1.36,1.03,.9,.42,1.9,.62,2.82,1,1.19,.5,2.31,1.17,3.32,1.98,.87,.7,1.66,1.51,2.35,2.39,.71,.91,.97,1.83,1.48,2.83,.21,.42,.52,.83,.96,1,.97,.38,1.96-.36,2.67-.92,1.61-1.29,3.28-2.62,5.33-3.64,1.1-.55,2.33-1.01,3.65-1.37,1.95-.53,3.96-.8,5.97-.8,8.07,0,16.57,4.39,23.93,12.36,.35,.38,.68,.75,.99,1.11,.78,.89,1.51,2.28,2.76,2.5,.25,.04,.51,.05,.76,0,.14-.03,.28-.08,.41-.15,.95-.5,1.26-2.03,1.44-2.98,.52-2.69,.31-5.41-.61-7.87Z" style="fill:none; stroke:#67e0a1; stroke-linecap:round; stroke-miterlimit:10; stroke-width:.38px;"/><path d="M47.46,111.48c-.65-1.76-1.79-3.23-3.28-4.25-1.35-.93-2.92-1.48-4.5-1.87-.53-.13-2.45-.77-2.89-.26-.07,.08-.06,.2-.03,.31,.14,.49,.56,.8,.98,1.06,.71,.44,1.41,.89,2.09,1.37,1.42,.99,2.77,2.06,4.07,3.19,.65,.57,1.28,1.15,1.9,1.75,.31,.3,.63,.59,.92,.91,.2,.22,.35,.56,.58,.73,.12,.09,.29,.12,.42,.05,.08-.04,.13-.12,.17-.2,.39-.75-.16-2.08-.43-2.79Z" style="fill:none; stroke:#67e0a1; stroke-linecap:round; stroke-miterlimit:10; stroke-width:.38px;"/><path d="M14.28,100.73c-3.01-1.56-5.81-3.48-8.26-5.84-3.95-3.81-6.93-8.59-8.69-13.78-2.02-5.95-1.71-11.66-1.44-16.7,.18-3.42,.36-6.66-.23-9.48-.53-2.54-2.01-5.24-3.58-8.11h0c-.23-.43-.47-.86-.7-1.29v51.38s0,0,0,0c.95,.68,1.79,1.52,2.82,2.08,2.36,1.3,4.91,2.09,7.03,3.8,.84,.68,1.57,1.48,2.22,2.34,.44,.59,.84,1.58,1.68,1.65,.01,0,.03,0,.04,0,.83,.04,1.61-.8,2.21-1.21,.84-.57,1.71-1.1,2.62-1.56,.92-.46,1.87-.84,2.84-1.17,.62-.21,2.37-.34,2.23-1.32-.06-.38-.44-.61-.78-.79Z" style="fill:none; stroke:#67e0a1; stroke-linecap:round; stroke-miterlimit:10; stroke-width:.38px;"/><path d="M7.86,100.88c-.1-.13-.24-.21-.38-.29-.72-.4-1.49-.76-2.13-1.27-.68-.54-1.32-1.13-1.94-1.74-4.34-4.2-7.67-9.48-9.64-15.28-2.25-6.63-1.91-13-1.63-18.11,.17-3.17,.33-6.17-.16-8.52-.13-.61-.34-1.26-.62-1.95v38.86c.79,.37,1.51,.78,2.17,1.25,.46,.32,.87,.66,1.24,.96,.45,.36,.87,.71,1.22,.9,.71,.39,1.47,.74,2.28,1.12,1.67,.77,3.56,1.65,5.3,3.05,.78,.63,1.43,1.67,2.33,2.08,.15,.07,.31,.12,.47,.11,.13-.01,.25-.07,.37-.12,.31-.15,.63-.3,.94-.44,.08-.04,.17-.08,.22-.15,.1-.13,.06-.32-.03-.45Z" style="fill:none; stroke:#67e0a1; stroke-linecap:round; stroke-miterlimit:10; stroke-width:.38px;"/><path d="M103.57-.84c-1.16-1.85-2.53-3.37-4.09-4.53-1.22-.91-2.57-1.59-3.97-2.01h-6.13c-.17,.06-.34,.13-.5,.2-.65,.3-1.19,.67-1.56,1.09-.3,.34-.52,.85-.7,1.54-.1,.39-.18,.83-.27,1.31-.38,2.03-.9,4.8-3.22,6.88-1.29,1.16-2.74,1.77-3.9,2.26l-.23,.1c-.71,.3-1.44,.64-1.96,1.07-.85,.71-1.58,1.83-2.32,3.53-.41,.96-.78,1.96-1.16,3.02-.34,.94-.69,1.91-1.09,2.89-.54,1.3-1.06,2.36-1.63,3.33-.66,1.11-1.47,2.18-2.56,3.38-.42,.46-.84,.9-1.25,1.33-1.13,1.18-2.2,2.3-2.83,3.48-.61,1.14-.79,2.62-1.01,4.33-.1,.75-.19,1.54-.34,2.34-.59,3.31-2.06,6.1-4.36,8.29-1.96,1.87-4.43,3.3-7.35,4.26-3.2,1.06-6.47,1.32-9.23,1.43-1.02,.04-2.04,.07-3.03,.09-2.01,.05-3.91,.09-5.8,.27-.52,.05-1.03,.1-1.58,.16-1.76,.19-3.57,.38-5.46,.38-.92,0-1.77-.05-2.6-.14-3.12-.35-6.05-1.53-8.46-3.41-2.23-1.73-4.04-4.02-5.25-6.6-1.24-2.65-1.79-5.61-1.6-8.55,.19-2.91,1.09-5.83,2.59-8.44,1.44-2.49,3.4-4.62,5.99-6.5l.07-.05c1.48-1.07,2.76-2,3.13-3.13,.31-.94,.26-2.06-.14-3.08-.38-.98-1.06-1.72-1.91-2.09-.51-.22-1.16-.41-1.84-.62-1.8-.53-4.05-1.19-5.9-3.06C7.45,1.21,7.06-2.65,6.86-4.5c-.04-.35-.07-.69-.1-1.02-.05-.54-.08-1.19-.16-1.86H-8.63v.15c.82,.19,1.72,.32,2.73,.46,.45,.06,.92,.13,1.4,.21h.06s.06,.02,.06,.02c2.18,.42,4.71,1.12,6.96,3.13C4.22-1.97,5.39-.08,6.08,2.22v.04s.02,.04,.02,.04c.89,3.2,.84,6.62-.15,10.18l-.03,.09-.03,.09c-.04,.13-.08,.26-.13,.44-.06,.23-.14,.51-.25,.84l-.02,.07-.02,.07c-.47,1.24-.95,2.45-1.42,3.61-.47,1.16-.91,2.27-1.34,3.41-.06,.16-.11,.31-.17,.46-.26,.71-.45,1.23-.53,1.77-.05,.46-.18,.85-.32,1.15-.33,1.62-.31,3.23-.26,4.87,.37,4.57,2.3,9.04,5.89,13.66l.08,.11,.08,.11c.12,.17,.21,.34,.28,.48l.12,.12,.24,.42c.68,1.17,1.16,2.24,1.53,3.45,.12,.38,.2,.73,.27,1.01,.03,.13,.07,.31,.09,.37l.05,.14,.04,.14c1.5,6.07,.97,11.82,.47,17.39-.13,1.44-.27,2.92-.36,4.36-.04,.72,.06,1.51,.17,2.43,.03,.27,.07,.55,.1,.84,.09,.63,.28,1.23,.52,1.99,.03,.08,.05,.16,.08,.25,.47,1.35,1.07,2.57,1.93,3.97,2.04,3.17,4.8,5.37,8.43,6.72,2.16,.74,4.47,1.24,7.07,1.53,1.1,.1,2.21,.19,3.28,.27,3.8,.3,7.72,.6,11.86,1.53,2.18,.49,4.25,1.12,6.22,2.18,.8,.43,1.66,.87,2.56,.75,.19-.03,.36-.07,.52-.14,.69-.28,1.19-.88,1.52-1.55,.51-1.03,1.08-1.98,1.89-2.81,1.26-1.3,2.91-2.16,4.71-2.39,.34-.04,.68-.07,1.03-.07,1.66,0,3.11,.5,4.28,.89,.34,.12,.66,.23,.96,.31,.98,.29,2.02,.43,3.19,.43,2.64,0,5.46-.7,8.46-1.44,.99-.25,2.01-.5,3.03-.73,1.19-.26,2.6-.54,4.09-.54,.6,0,1.73,.06,2.12-.51,.09-.13,.13-.28,.17-.44,.23-.88,.11-1.62,.08-2.5-.09-2.45,.19-5.04,.84-7.7,.56-2.31,1.41-4.68,2.61-7.26,.11-.23,.21-.46,.32-.69,.96-2.06,1.87-4,1.95-5.81,.07-1.4-.62-2.77-1.91-4.82l-.06-.09c-.67-1.06-1.43-2.26-2.02-3.61-.72-1.64-1.14-3.41-1.23-5.26-.19-3.59,.77-6.96,1.74-9.79,.9-2.64,1.92-5.46,3.24-8.23,1.29-2.71,2.99-5.19,5.03-7.38,.71-.76,1.44-1.49,2.14-2.19,.99-.98,1.92-1.91,2.76-2.88,1.43-1.66,2.29-3.22,2.64-4.77,.42-1.85,.31-3.99-.32-6.36-.57-2.15-1.46-4.19-2.64-6.06Z" style="fill:none; stroke:#67e0a1; stroke-linecap:round; stroke-miterlimit:10; stroke-width:.38px;"/><path d="M100.39,1.16c-.91-1.45-1.97-2.64-3.15-3.52-1.38-1.03-3.36-1.97-5.11-1.9-2.74,.11-2.37,3.69-3.09,5.62-.72,1.94-1.86,3.7-3.4,5.08-2.02,1.81-5.39,2.29-6.91,4.58-1.35,2.03-1.86,4.69-2.78,6.92-1.18,2.87-2.79,5.5-4.88,7.8-1.32,1.46-2.63,2.61-3.36,4.5-1.13,2.95-1.11,6.23-2.32,9.17-.97,2.37-2.44,4.52-4.3,6.29-2.37,2.25-5.31,3.97-8.75,5.11-4.31,1.43-8.85,1.6-13.35,1.71-6.69,.16-13.89,1.89-20.4-.34-1.09-.37-3.62-2.64-4.25-.81-.39,1.12,.15,2.29,.32,3.4,.21,1.36,.2,2.79,.19,4.16-.03,2.72-.3,5.43-.55,8.14-.38,4.12-.44,7.91,1.88,11.5,1.6,2.47,3.67,4.12,6.52,5.18,1.88,.64,3.9,1.07,6.19,1.33,1.06,.1,2.14,.18,3.18,.26h.01c4.15,.32,8.31,.7,12.38,1.61,1.27,.29,2.54,.64,3.8,1,1.35,.39,2.53,.88,3.81,.04,1.04-.68,1.71-1.78,2.66-2.55,2.08-1.68,4.69-2.62,7.36-2.62s5.02,1.34,7.65,1.61c2.83,.29,5.62-.63,8.33-1.31,1.59-.39,4.07-.62,5.29-1.82,.63-.62,.92-1.49,1.15-2.34,.48-1.81,.71-3.67,1.15-5.49,.62-2.54,1.55-5.14,2.85-7.94,.11-.23,.21-.46,.32-.69v-.02c.61-1.28,1.26-2.53,1.12-3.99-.27-2.82-2.09-4.74-3.19-7.25-.91-2.05-1.43-4.27-1.55-6.58-.22-4.22,.86-8.03,1.94-11.19,.94-2.75,2-5.69,3.4-8.63,1.46-3.05,3.37-5.85,5.67-8.32,.76-.81,1.51-1.56,2.23-2.28,1.69-1.68,3.84-3.38,4.39-5.82,.73-3.23-.79-6.92-2.47-9.6Z" style="fill:none; stroke:#67e0a1; stroke-linecap:round; stroke-miterlimit:10; stroke-width:.38px;"/><path d="M14.62,12.87c.33-.24,2.11-1,1.5-1.63-.07-.07-.15-.11-.24-.14-1.06-.46-2.1-.85-3.17-1.25-.45-.17-1.46-.99-1.92-.84-.3,.1-.42,.44-.48,.75-.43,2.02-.74,3.76-1.63,5.66-.59,1.26-1.18,2.52-1.77,3.78-.57,1.22-1.05,2.48-1.4,3.78-.27,1-.83,2.35-.58,3.39,.05,.2,.18,.42,.38,.42,.49-.02,.8-1.69,.91-2.03,.37-1.11,.82-2.2,1.32-3.26,1.59-3.39,4.01-6.39,7.01-8.57,0,0,.07-.05,.07-.05Z" style="fill:none; stroke:#67e0a1; stroke-linecap:round; stroke-miterlimit:10; stroke-width:.38px;"/><path d="M49.97,83.61c-1.49,.29-3.07,.04-4.67-.31-4.3-.96-8.56-1.35-12.91-1.69h0s-.03,0-.03,0c-1.02-.08-2.07-.16-3.08-.25-1.98-.23-3.72-.6-5.31-1.13-2.06-.78-3.49-1.92-4.63-3.69-1.58-2.45-1.59-5.44-1.37-8.24,.14-1.8,.33-3.59,.46-5.39,.13-1.73-.21-3.75,.62-5.35,.45-.86,1.05-1.12,2-1.05,1.78,.14,3.51,.55,5.32,.55,2.45,0,4.88-.21,7.23-.42,1.92-.17,3.74-.33,5.5-.37,5.13-.12,9.75-.35,14.44-1.9,3.97-1.31,7.39-3.32,10.15-5.95,2.23-2.12,4.03-4.75,5.19-7.59,.77-1.87,1.12-3.78,1.43-5.46,.55-2.96,1.61-5.03,3.67-7.25,2.34-2.53,4.15-5.59,5.45-8.77,.37-.9,.66-1.8,.95-2.67,.72-2.2,1.7-4.02,3.86-5.06,1.37-.66,2.79-1.39,3.92-2.41,1.92-1.73,3.45-4,4.41-6.56,.28-.74,.36-2.34,1.34-2.47,1.22-.16,2.8,2.12,3.32,2.95,.92,1.47,1.84,3.2,2.04,4.98,.25,2.26-1.04,3.5-2.55,4.95-.28,.27-.58,.55-.87,.84-.75,.75-1.52,1.52-2.33,2.38-2.57,2.75-4.69,5.86-6.32,9.26-1.49,3.11-2.6,6.18-3.57,9.04-1.2,3.5-2.38,7.74-2.13,12.6,.14,2.77,.77,5.43,1.86,7.9,1.39,3.15,3.4,5.34,1.77,8.85-1.1,2.37-2.17,4.78-2.82,7.31-.55,2.15-.17,5.07-1.48,6.94-.84,1.2-2.67,1.28-3.99,1.5-1.86,.3-3.71,.75-5.6,.82-3.13,.11-5.99-1.45-9.12-1.45-2.26,0-4.51,.51-6.55,1.47-1.01,.48-2.04,1.05-2.9,1.77-.85,.71-1.75,1.11-2.69,1.29Z" style="fill:none; stroke:#67e0a1; stroke-linecap:round; stroke-miterlimit:10; stroke-width:.38px;"/><path d="M48.57,79.95c-2.71,.44-5.38-.94-8.02-1.3-2.61-.35-5.23-.57-7.86-.78h-.03c-1-.08-2.02-.16-2.99-.25-1.67-.19-3.12-.5-4.43-.93-1.27-.49-2.05-1.11-2.75-2.19-.98-1.51-.95-3.73-.78-5.91,.06-.83,.14-1.68,.22-2.5,.13-1.39,0-4.68,1.82-5.15,.33-.08,.67-.06,1.01-.04,3.03,.16,6.15-.24,9.17-.51,1.86-.16,3.62-.32,5.27-.36,5.43-.13,10.35-.37,15.53-2.09,4.5-1.49,8.39-3.77,11.56-6.79,2.62-2.49,4.72-5.56,6.08-8.88,.91-2.23,1.32-4.43,1.64-6.19,.41-2.24,1.13-3.65,2.73-5.38,2.51-2.72,4.59-6.04,6.17-9.89,.42-1.03,.75-2.04,1.05-2.93,.45-1.37,1-2.35,2.3-3.03,1.39-.73,2.89-1.54,4.13-2.57,1.34-1.11,2.16-2.62,3.19-3.99,.31-.41,.69-1.37,1.33-1.29,1.77,.22-.78,3.88-1.25,4.41-.86,.97-1.87,1.78-2.81,2.66-2.98,2.77-5.27,6.22-7.02,9.89-1.57,3.29-2.72,6.48-3.74,9.45-1.31,3.84-2.61,8.51-2.33,14,.13,2.44,.58,4.87,1.38,7.18,.6,1.75,1.73,3.39,2.24,5.21,.62,2.17-.24,3.78-1.1,5.73-.67,1.53-1.19,3.2-1.6,4.83-.4,1.57,.07,3.52-.96,4.88-.71,.94-1.9,1.35-3.02,1.53-2.38,.4-4.94,0-7.25-.59-1.57-.39-3.34-.84-5.32-.84-2.49,0-5.05,.57-7.39,1.54-2.04,.84-3.74,2.64-6,3.06-.05,0-.1,.02-.15,.03Z" style="fill:none; stroke:#67e0a1; stroke-linecap:round; stroke-miterlimit:10; stroke-width:.38px;"/><path d="M47.45,76.03c-1,.08-2.02-.07-3.08-.36-1.05-.29-2.13-.58-3.32-.74-2.59-.35-5.18-.58-7.78-.79-1.84-.15-3.87,.07-5.69-.52-2.43-.79-2.31-2.51-2.13-4.75,.11-1.42-.07-3.13,1.38-3.95,1.35-.76,2.99-.59,4.48-.61,2.66-.04,5.3-.48,7.97-.54,5.74-.14,10.95-.4,16.62-2.28,3.53-1.17,6.91-2.83,9.9-5.05,1.41-1.05,2.83-2.2,3.9-3.6,.9-1.17,1.67-2.92,3.22-3.34,2.08-.56,2.25,5.08,2.66,6.27,.93,2.7,2.78,4.79,1.49,7.69-.08,.17-.15,.34-.23,.52-.68,1.55-1.26,3.31-1.8,5.4-.25,.99,.2,2.77-.67,3.52-1.18,1.01-4.69-.07-6.02-.4-1.69-.42-3.79-.95-6.23-.95-2.88,0-5.93,.63-8.82,1.82-1.14,.47-2.11,1.1-2.97,1.65-.94,.61-1.89,.91-2.87,.99Z" style="fill:none; stroke:#67e0a1; stroke-linecap:round; stroke-miterlimit:10; stroke-width:.38px;"/><path d="M46.89,72.27c-1.78,.17-3.6-.82-5.34-1.05-2.73-.37-5.44-.6-7.98-.81-.7-.06-1.37-.07-2.03-.08-.72-.01-2.28,.02-2.34-1.03-.11-1.88,5.42-1.42,6.54-1.52,7.23-.67,14.32-.4,21.32-2.72,4.09-1.35,7.78-3.24,10.96-5.59,.86-.63,1.69-2.01,2.84-2.21,1.31-.22,2.19,1.04,2.52,2.15,.74,2.45-.31,5.57-1.39,7.77-1.18,2.41-2.98,1.52-5.19,1.14-4.11-.7-8.23-.54-12.3,.69-2.41,.73-4.32,2.18-6.63,3.04-.32,.12-.65,.19-.98,.22Z" style="fill:none; stroke:#67e0a1; stroke-linecap:round; stroke-miterlimit:10; stroke-width:.38px;"/><path d="M68.87,64.87s-.03,.02-.04,.03c-.59,.36-1.56,0-2.19-.09-.28-.04-.85,.03-.66-.32,.18-.32,.66-.39,.97-.49,.75-.25,1.39-.76,1.99-1.26,.15-.12,.33-.26,.51-.21,.67,.19-.25,2.11-.6,2.34Z" style="fill:none; stroke:#67e0a1; stroke-linecap:round; stroke-miterlimit:10; stroke-width:.38px;"/></g></g></svg>