<?xml version="1.0" encoding="UTF-8"?><svg id="Layer_1" xmlns="http://www.w3.org/2000/svg" viewBox="0 0 84 112"><path d="M36.45,41.43c.43-.45,1.28-.46,1.28-.46-.21-.19-.85-.49-1.35-.35-.5,.15-.81,.72-1.26,.89-.46,.17-1.12-.14-1.12-.14,.82,1.25,2.01,.51,2.44,.06Z" style="fill:#fc3819;"/><path d="M53.67,70.29c.81-1.24,.74-2.47,.74-2.47-.81,.69-1.42,.86-1.42,.86,.47-.47,.42-.77,.42-.77,0,0-1.11,.33-1.91,.17-.8-.15-1.36-.45-1.53-1.11-.18-.66,.26-1.24,.47-1.57,.2-.32,1.08-1.37,.94-2.9-.03-.29-.08-.56-.15-.8,4.01-.97,4.89-4.04,4.6-6.11-.3-2.13-1.67-4.22-2.3-6.73-.63-2.51,.75-3.62,.75-3.62-.81,.05-1.15,.73-1.15,.73-.21-3.38,1.74-4.59,2.88-4.12,1.14,.47,1.29,2.22,1.01,3.5-.28,1.28-1.65,3.13-1.65,3.13,.66-.1,1.56-.76,1.56-.76-2.38,5.8,3.69,8.4,4.41,8.69,.04,.02,.07,.03,.07,.03-1.38-.8-1.6-2.84-1.61-3.61,0-.78,.72-2.65,.93-4.48,.2-1.82-.79-2.86-.79-2.86,.41,.17,1.11,.98,1.11,.98-.2-3.46-3.31-5.03-3.31-5.03,.48,0,1.06,.18,1.06,.18-.01-.02-.03-.04-.05-.07,0,0,0,0,0,0-.02-.02-.04-.05-.07-.08,0,0,0,0,0-.01-.03-.03-.06-.06-.1-.09,0,0,0,0,0,0-.15-.14-.38-.29-.67-.42,0,0,0,0,0,0-.29-.13-.66-.23-1.11-.25,0,0-.01,0-.02,0-.1,0-.21,0-.33,0,0,0-.02,0-.02,0-.14,0-.28,.01-.43,.03,0,0,.01,0,.02,0-.39,.05-.83,.15-1.31,.33-2.68,.96-2.55,4.64-2.55,4.64-.02,2.16,.32,4.11,.98,5.75,.64,1.59,1.62,4.34,1.62,4.34-.31-.49-.65-.67-.65-.67,1.36,4.34-2.06,5.32-3.37,5.53-.24-.36-.47-.6-.58-.72-.24-.28-1-1-1.59-1.65-.59-.65-1.37-1.46-1.84-2.53-.47-1.07-.4-1.65-.4-1.65-2.98-.8-2.99-3.57-2.99-3.57,0,0,1,3.89,5.9,3.08-2.22-1.02-2.36-2.42-2.19-3.52,.13-.82,.6-1.49,.92-2.19,.33-.7,.29-1.8,.29-1.8,0,0,.44,.53,.12,1.92,0,0,1.56-1.54,1.12-4.29,0,0,0-.01,0-.02-.02-.1-.03-.2-.06-.3,0-.01,0-.02,0-.04-.02-.1-.04-.2-.07-.3,0-.02,0-.04-.01-.05-.03-.1-.05-.19-.08-.29,0-.02-.02-.05-.02-.07-.03-.09-.06-.19-.1-.28-.01-.03-.03-.06-.04-.1-.03-.09-.07-.18-.11-.27-.02-.04-.04-.08-.05-.12-.04-.09-.07-.17-.12-.26-.03-.05-.06-.11-.08-.17-.04-.08-.07-.15-.11-.23-.07-.13-.15-.27-.23-.41,0,0,.39,.18,.84,.94,0,0,.44-4.46-5.72-5.55,0,0,.93-.92,1.39-1.23,0,0-1.22-.1-1.83,.08-.6,.18-.86,.31-1.01,.47-.15,.15-.24,.32-.47,.39,0,0-.42,0-.84,.06-.24,.03-2.3,.18-2.57,.22-.27,.04-.69,.16-.63,.55,.06,.39-.16,.54-.16,.54,0,0-2.11,.42-2.32,.49-.22,.08-.29,.31-.22,.58,.07,.27,.82,2.04,.91,2.13,0,0,.18-.33,.52-.42,.34-.09,1.6-.21,1.83-.04,.23,.17,.43,.69,.49,1.08,.07,.38,.06,.89-.15,.97-.2,.07-1.38,.29-1.49,.28-.11,0-.5-.12-.63-.28l.33,2.79s.28-.58,1.12-.84c.83-.26,2.75-.58,3.21-.96,0,0,.12-.09,.26-.28,0,0-.19,.82-1.33,1.12-.05,.01-.11,.03-.16,.04-.02,0-.03,0-.05,.01-.05,.01-.1,.03-.15,.04-.02,0-.04,.01-.06,.02-.07,.02-.15,.04-.22,.07-.01,0-.03,0-.04,.01-.06,.02-.13,.04-.2,.07-.03,0-.06,.02-.08,.03-.06,.02-.13,.05-.19,.07-.03,.01-.05,.02-.08,.03-.09,.04-.18,.07-.27,.11-.03,.01-.06,.03-.09,.04-.07,.03-.13,.06-.2,.09-.04,.02-.08,.04-.12,.06-.07,.03-.14,.07-.21,.11-.03,.02-.07,.03-.1,.05-.09,.05-.19,.11-.28,.17-.04,.03-.08,.05-.13,.08-.06,.04-.12,.08-.18,.12-.05,.03-.09,.06-.14,.09-.07,.05-.14,.1-.21,.16-.06,.04-.11,.09-.17,.14-.07,.06-.13,.11-.2,.17-.05,.04-.09,.08-.14,.12-.06,.05-.11,.11-.17,.16-.04,.04-.09,.09-.13,.13-.09,.09-.17,.19-.26,.28-.04,.04-.07,.09-.11,.14-.06,.07-.11,.14-.16,.21-.04,.05-.08,.11-.12,.16,0,.01-.02,.02-.02,.03,0,0,0,0-.01,0,0,0,0,0,0,0-.26-.04-.52-.12-.78-.21,0,0,0,0-.01,0-.12-.04-.24-.09-.35-.14-.01,0-.03-.01-.04-.02-.09-.04-.18-.08-.27-.12-.04-.02-.08-.04-.11-.05-.07-.04-.14-.07-.2-.11-.28-.15-.53-.3-.72-.42-.04-.03-.09-.05-.12-.08-.56-.36-.58-.53-.99-1.31-.42-.77-.71-1.3-1.01-1.74-.3-.45-.93-1.06-.93-1.06,0,0-.21-.28-.41-.75-.19-.47-.61-1.16-.61-1.16-.33-.49-.98-.45-1.08-.32,0,0,0,0-.02-.01-.03-.04-.06-.08-.11-.12-.48-.46-1.28-.03-1.28-.03,0,0,.27,.07,.49,.26,.02,.02,.04,.04,.05,.06,.06,.08,.11,.19,.11,.34,0,0-.68,.09-.99,.53,0,0-.26-.18-.77-.06-.5,.12-.78,.78-.78,.78,0,0,.03-.02,.07-.03,0,0,0,0,0,0,0,0,.03-.01,.08-.02,.08-.02,.2-.03,.35,0,.26,.04,.41,.13,.46,.16,0,0,.01,0,.02,.01,0,0-.18,.52,.02,.94,0,0-.27,.27-.28,.62,0,0-.06,.01-.14,.05-.17,.06-.45,.2-.56,.42-.15,.33-.05,.72-.05,.72,0,0,.29-.31,.49-.36,.01,0,.02,0,.04,0,.01,0,.03,0,.04,0,.09,0,.2,0,.33,.03,0,0,.22,.46,.84,.54,.62,.08,1-.08,1.23-.13,.23-.05,.87,.2,1.28,.7,.43,.52,1.75,2.08,2.9,5.48,0,0,.31-.17,.36-.94,0,0,1.14,.48,2.12,2.54,0,0,.55-1.51,2.88-1.9,0,0-1.41,.46-2.02,1.62,0,0-1.35,2.08-2.36,2.31,.27,.17,.68,.15,.68,.15-.28,.39-.69,.76-1,.95-.86,.54-1.51,.58-2.53,.36-.8-.17-1.9-.78-2.24-.81-.34-.02-.6,.28-.6,.28,0,0-.04-.02-.1-.04-.14-.09-.33-.14-.61-.06-.74,.21-.93,.79-.93,.79,0,0,.45-.23,.68-.06,.13,.1,.24,.17,.31,.2,0,0,0,0,0,.01,0,0-.39,.43-.09,1.14,0,0-.01,0-.03,.03-.9,.78-.18,1.35-.18,1.35,0,0,.18-.35,.39-.45,0,0,.01,0,.02,0,.03-.01,.06-.02,.09-.02,.26,0,.3,0,.3,0,0,0,.15,.65,.68,.82,0,0,.06,.53,.35,.83,.3,.3,.7,.37,.7,.37,0,0-.15-.3-.03-.52,.05-.1,.09-.19,.12-.25,.18,0,1.16,.02,1.67-.76,0,0,.86,.12,1.38-.11,0,0-.23,.46-.71,.63,0,0,1.61,0,2.63-.67,0,0-.32,.75-.45,.81,0,0,1.36-.21,2.41-1.39,0,0,.56-.6,1.15-1.17,.65-.63,1.35-1.01,1.35-1.01,.03,.73,.12,1.57,.77,2.58,.65,1.01,1.58,1.6,2.03,1.94,.45,.35,.65,.57,.65,.57-.24-.03-.49-.05-.75-.07-2.28-.14-5.19,1.18-4.1,4.77,0,0-.07-.71,.56-1.15,0,0-.16,.64,.31,1.75,.47,1.1,.87,1.7,.8,2.26-.07,.57-.38,.9-.75,.91-.7,.01-2.06-.63-2.54-.68-.58-.06-.79,.12-.97,.48-.2-.05-.46-.04-.79,.14-.64,.35-.5,.89-.5,.89,0,0,.44-.28,.65-.16,.17,.1,.23,.16,.25,.17-.08,.15-.27,.58-.2,1.01-.04,.01-.09,.03-.13,.06-.47,.29-.49,.78-.5,1-.01,.2,.19,.64,.19,.64,0,0,.11-.42,.36-.5,.22-.07,.33-.07,.36-.07,0,0,0,0,0,0,0,0,.21,.42,1.02,.46-.1,.1-.15,.25-.12,.48,.1,.69,.94,.93,.94,.93,0,0-.11-.41,.03-.56,.07-.07,.1-.09,.12-.1,.17,.02,.87,.06,1.37-.47,.58-.6,1.58-1.44,2.82-1.56,0,0,.35,.21,.5,.96,0,0,.46-.25,.61-.99,0,0,1.62,1.01,3.07,.42,0,0-1.03-.2-1.4-.79,0,0,.24,.01,.48-.1,0,0-1.62-.41-1.89-2.07-.27-1.66,.52-2.41,1.11-2.65,0,0,.22-1.83,2.7-2.78,0,0-2.6,1.68-2.19,4.76,.41,3.08,5.98,2.79,5.98,2.79-.59,1-1.31,1.55-2.19,2.01-.88,.45-1.86,.6-2.34,.65-.48,.05-1.05,.11-1.59,.34-.51,.21-.58,.76-.59,.83-.03,0-.07,0-.1,0-1.01,.2-.93,1.31-.93,1.31,0,0,.35-.26,.7-.29,.03,0,.05,0,.07,0,.03,0,.06,0,.1,0,0,0,0,0,0,0,.06,0,.12,0,.18,.02,0,0-.27,.46-.06,1.03-.15,.05-.31,.16-.43,.39-.35,.67-.03,.98,.06,1.13,.09,.15,.22,.24,.22,.24,0,0-.02-.14,.17-.38,.12-.15,.25-.23,.34-.27,.04-.01,.07-.03,.11-.04,0,0,.31,.47,.83,.55,0,0,.04,.36,.4,.58-.05,.08-.14,.2-.06,.52,.12,.44,.85,.7,.85,.7,0,0-.17-.45,.08-.65,.07-.06,.09-.1,.09-.12,.04-.03,.08-.05,.13-.08,0,0,.99-.14,1.22-1.07,.24-.92,.4-2.78,1.84-3.56,0,0,2.17-1.08,3.41-1.72,1.24-.64,1.63-1.16,2.44-2.41Zm-14.82-32.81s-.13,.09-.23,.19c-.09,.09-.28,.28-.28,.28l.14-.72s.05-.17,.24-.22c.19-.05,1.47-.25,1.47-.25l-1.35,.72Z" style="fill:#fc3819;"/><path d="M47.75,34.03h0c.1,0,.19,.02,.29,.05,.15,.06,.35,.18,.77,.46,.3,.19,.61,.33,.87,.43,.48,.18,1.06,.29,1.7,.29s1.22-.11,1.69-.29c.26-.09,.57-.23,.88-.43,.42-.27,.63-.4,.77-.46,.1-.03,.2-.05,.3-.05h.09c.12,0,.23,.02,.36,.06-.22-.26-.45-.36-.69-.38,.18-.25,.3-.53,.34-.81,.06-.28,.06-.57-.02-.85-.18-.69-.65-1.2-1.47-1.4,.34,.3,.58,.63,.7,1.08,.09,.35,.09,.7,.02,1.04-.02-.1-.17-.3-.29-.36-.11-.06-.21-.08-.26-.08,.05,.42-.01,.85-.2,1.26-.35,.76-1.07,1.24-1.85,1.32-.02,0-.04,0-.06,.01v-.59c.95-.12,1.67-.8,1.67-1.62,0-.45-.22-.86-.57-1.15l.71-2.38s-.83,.4-2.11,.4-2.11-.4-2.11-.4l.71,2.38c-.35,.3-.57,.7-.57,1.15,0,.82,.72,1.5,1.67,1.62v.59s-.04,0-.06,0c-.78-.09-1.5-.57-1.85-1.32-.19-.41-.25-.85-.2-1.26-.05,0-.15,.02-.26,.08-.12,.06-.27,.26-.29,.36-.07-.34-.07-.69,.02-1.04,.12-.45,.35-.78,.7-1.08-.82,.2-1.29,.71-1.47,1.4-.08,.28-.08,.57-.02,.85,.04,.28,.16,.55,.34,.81-.24,.02-.47,.12-.69,.38,.12-.03,.24-.05,.36-.06h.08Z" style="fill:#fc3819;"/><path d="M62.62,39.61h0c.1,0,.2,.02,.3,.05,.14,.06,.35,.18,.77,.45,.3,.19,.61,.33,.87,.43,.48,.18,1.06,.29,1.7,.29s1.22-.1,1.69-.28c.26-.09,.57-.23,.88-.43,.41-.27,.62-.4,.77-.45,.1-.03,.2-.05,.3-.05h.09c.12,0,.24,.02,.36,.06-.22-.26-.45-.37-.69-.38,.18-.26,.3-.53,.34-.81,.06-.28,.05-.56-.02-.85-.18-.69-.65-1.2-1.47-1.4,.34,.3,.58,.63,.7,1.08,.09,.35,.1,.7,.02,1.04-.02-.1-.17-.3-.29-.36-.11-.06-.21-.08-.26-.08,.05,.42-.01,.85-.2,1.26-.35,.76-1.07,1.24-1.85,1.33-.02,0-.04,0-.06,0v-.59c.95-.12,1.67-.8,1.67-1.62,0-.45-.22-.86-.57-1.15l.71-2.38s-.83,.4-2.11,.4-2.11-.4-2.11-.4l.71,2.38c-.35,.3-.57,.7-.57,1.15,0,.82,.72,1.5,1.67,1.62v.59s-.04,0-.06,0c-.78-.09-1.49-.57-1.85-1.33-.19-.41-.25-.85-.2-1.26-.05,0-.15,.02-.26,.08-.12,.06-.27,.26-.29,.36-.08-.34-.07-.69,.02-1.04,.12-.45,.35-.78,.7-1.08-.82,.2-1.29,.71-1.47,1.4-.08,.28-.08,.57-.02,.85,.04,.28,.16,.56,.34,.81-.24,.01-.47,.12-.69,.38,.12-.03,.24-.05,.36-.06h.08Z" style="fill:#fc3819;"/><path d="M71.67,51.88c.18-.26,.3-.53,.34-.81,.06-.28,.05-.57-.02-.85-.18-.69-.65-1.2-1.47-1.4,.34,.3,.58,.63,.7,1.08,.09,.35,.1,.7,.02,1.04-.02-.1-.17-.3-.29-.36-.11-.06-.21-.08-.26-.08,.05,.42-.01,.85-.2,1.26-.36,.76-1.07,1.24-1.85,1.33-.02,0-.04,0-.06,0v-.59c.94-.12,1.67-.8,1.67-1.62,0-.45-.22-.86-.57-1.15l.71-2.38s-.83,.39-2.11,.39-2.11-.39-2.11-.39l.71,2.38c-.35,.3-.57,.7-.57,1.15,0,.82,.72,1.5,1.67,1.62v.59s-.04,0-.06,0c-.78-.09-1.5-.57-1.85-1.33-.19-.41-.25-.85-.2-1.26-.05,0-.15,.02-.26,.08-.12,.06-.27,.26-.29,.36-.07-.34-.07-.69,.02-1.04,.12-.45,.35-.78,.7-1.08-.82,.2-1.29,.71-1.47,1.4-.08,.28-.08,.57-.02,.85,.04,.28,.16,.55,.34,.81-.24,.01-.47,.12-.69,.38,.12-.04,.24-.06,.36-.06h.09c.1,0,.2,.02,.3,.05,.14,.06,.35,.18,.77,.45,.3,.2,.61,.33,.87,.43,.48,.18,1.06,.29,1.7,.29s1.22-.11,1.69-.29c.26-.09,.57-.23,.88-.43,.42-.27,.62-.39,.77-.45,.1-.03,.2-.05,.3-.05h.09c.12,0,.24,.02,.36,.06-.22-.26-.45-.37-.69-.38Z" style="fill:#fc3819;"/><path d="M66.1,65.44c.18-.26,.3-.53,.34-.81,.06-.28,.06-.56-.02-.85-.18-.69-.65-1.2-1.47-1.4,.34,.3,.58,.63,.7,1.08,.09,.35,.1,.7,.02,1.04-.02-.1-.17-.29-.29-.36-.11-.06-.21-.08-.26-.08,.05,.42-.01,.85-.2,1.26-.35,.76-1.07,1.24-1.85,1.33-.02,0-.04,0-.06,0v-.6c.95-.12,1.67-.8,1.67-1.61,0-.45-.22-.86-.57-1.15l.71-2.38s-.83,.39-2.11,.39-2.11-.39-2.11-.39l.71,2.38c-.35,.3-.57,.7-.57,1.15,0,.82,.72,1.49,1.67,1.61v.59s-.04,0-.06,0c-.78-.09-1.49-.57-1.85-1.33-.19-.41-.25-.84-.2-1.26-.05,0-.15,.02-.26,.08-.12,.07-.27,.26-.29,.36-.07-.34-.07-.69,.02-1.04,.12-.45,.35-.78,.7-1.08-.82,.2-1.29,.71-1.47,1.4-.07,.28-.08,.57-.02,.85,.04,.28,.16,.56,.34,.81-.24,.01-.47,.12-.69,.38,.12-.03,.24-.05,.36-.06h.09c.1,0,.2,.02,.3,.05,.14,.06,.35,.18,.77,.45,.3,.19,.61,.33,.87,.43,.47,.18,1.06,.28,1.7,.28s1.22-.11,1.69-.28c.26-.09,.57-.23,.87-.43,.42-.27,.63-.4,.77-.45,.1-.03,.2-.05,.3-.05h.09c.12,0,.24,.03,.36,.06-.22-.26-.45-.37-.69-.38Z" style="fill:#fc3819;"/><path d="M57.75,78.05c.18-.26,.3-.53,.34-.81,.06-.28,.05-.56-.02-.85-.18-.69-.65-1.2-1.47-1.4,.34,.3,.58,.63,.7,1.08,.1,.35,.1,.7,.02,1.04-.02-.1-.17-.3-.29-.36-.11-.06-.2-.08-.26-.08,.05,.42-.01,.85-.2,1.26-.36,.76-1.07,1.24-1.85,1.33-.02,0-.04,0-.07,.01v-.59c.95-.12,1.67-.8,1.67-1.62,0-.45-.22-.85-.57-1.15l.71-2.38s-.83,.39-2.11,.39-2.11-.39-2.11-.39l.71,2.38c-.35,.3-.57,.7-.57,1.15,0,.82,.73,1.5,1.67,1.62v.59s-.04,0-.06,0c-.78-.09-1.5-.57-1.85-1.33-.19-.41-.25-.84-.2-1.26-.05,0-.14,.02-.26,.08-.12,.06-.27,.26-.29,.36-.07-.34-.07-.69,.02-1.04,.12-.45,.35-.78,.7-1.08-.82,.2-1.29,.71-1.47,1.4-.08,.28-.08,.57-.02,.85,.04,.28,.16,.55,.34,.81-.24,.01-.47,.12-.69,.38,.12-.04,.24-.05,.36-.06,.02,0,.05,0,.08,0h0c.1,0,.2,.02,.3,.05,.14,.06,.35,.18,.77,.45,.3,.2,.61,.33,.87,.42,.48,.18,1.06,.29,1.7,.29s1.22-.11,1.69-.29c.26-.09,.57-.23,.87-.43,.42-.27,.62-.4,.77-.45,.1-.03,.2-.05,.3-.05h0s.06,0,.08,0c.12,0,.23,.02,.36,.06-.22-.26-.45-.37-.69-.38Z" style="fill:#fc3819;"/><path d="M45.71,87.07c.06-.28,.05-.56-.02-.85-.18-.69-.65-1.2-1.47-1.4,.34,.3,.58,.63,.7,1.08,.09,.35,.1,.7,.02,1.04-.02-.1-.17-.3-.29-.36-.11-.06-.21-.08-.26-.08,.05,.41-.01,.85-.2,1.26-.35,.76-1.07,1.24-1.85,1.33-.02,0-.04,0-.06,.01v-.59c.94-.12,1.67-.8,1.67-1.62,0-.45-.22-.86-.57-1.15l.71-2.38s-.83,.39-2.11,.39-2.11-.39-2.11-.39l.71,2.38c-.35,.3-.57,.7-.57,1.15,0,.82,.73,1.5,1.67,1.62v.59s-.04,0-.06,0c-.78-.09-1.5-.56-1.85-1.33-.19-.41-.25-.85-.2-1.26-.05,0-.15,.02-.26,.08-.12,.06-.27,.26-.29,.36-.07-.34-.07-.69,.02-1.04,.12-.45,.35-.78,.7-1.08-.82,.2-1.29,.71-1.47,1.4-.07,.28-.08,.57-.02,.85,.04,.28,.16,.56,.34,.81-.24,.01-.47,.13-.69,.38,.12-.03,.24-.05,.36-.06h.09c.1,0,.2,.02,.3,.05,.15,.06,.35,.18,.77,.45,.3,.2,.61,.33,.87,.43,.47,.18,1.06,.29,1.7,.29s1.22-.11,1.69-.29c.26-.1,.57-.23,.87-.43,.42-.27,.63-.39,.77-.45,.1-.03,.2-.05,.3-.05h.09c.12,0,.24,.03,.36,.06-.22-.25-.45-.37-.69-.38,.18-.26,.3-.53,.34-.81Z" style="fill:#fc3819;"/><path d="M33.13,78.19c.18-.26,.3-.53,.34-.81,.06-.28,.05-.57-.02-.85-.18-.69-.65-1.2-1.47-1.4,.34,.31,.58,.63,.7,1.08,.09,.35,.1,.7,.02,1.04-.02-.1-.17-.3-.29-.36-.11-.06-.21-.08-.26-.08,.05,.42-.01,.85-.2,1.26-.35,.76-1.07,1.23-1.85,1.32-.02,0-.04,0-.06,.01v-.59c.95-.12,1.67-.8,1.67-1.62,0-.45-.22-.86-.57-1.15l.71-2.38s-.83,.39-2.11,.39-2.11-.39-2.11-.39l.71,2.38c-.35,.3-.57,.7-.57,1.15,0,.82,.73,1.5,1.67,1.62v.59s-.04,0-.06,0c-.78-.09-1.5-.57-1.85-1.32-.19-.41-.25-.85-.2-1.26-.05,0-.15,.02-.26,.08-.12,.06-.27,.26-.29,.36-.07-.34-.07-.69,.02-1.04,.12-.45,.35-.78,.7-1.08-.82,.2-1.29,.71-1.47,1.4-.08,.28-.08,.57-.02,.85,.04,.28,.16,.55,.34,.81-.24,.02-.47,.12-.69,.38,.12-.03,.24-.05,.36-.06h.09c.1,0,.2,.02,.3,.05,.14,.06,.35,.18,.77,.45,.3,.19,.61,.33,.87,.42,.48,.18,1.06,.29,1.7,.29s1.22-.11,1.69-.29c.26-.09,.57-.23,.87-.43,.42-.27,.63-.39,.77-.45,.1-.03,.2-.05,.3-.05h.09c.12,0,.23,.02,.35,.06-.22-.26-.45-.36-.69-.38Z" style="fill:#fc3819;"/><path d="M24.86,65.44c.18-.26,.3-.53,.34-.81,.06-.28,.05-.56-.02-.85-.18-.69-.65-1.2-1.47-1.4,.34,.3,.58,.63,.7,1.08,.09,.35,.1,.7,.02,1.04-.02-.1-.17-.29-.29-.36-.11-.06-.21-.07-.26-.08,.05,.42-.01,.85-.2,1.26-.36,.76-1.07,1.24-1.85,1.33-.02,0-.04,0-.06,0v-.6c.95-.12,1.67-.8,1.67-1.62,0-.45-.22-.85-.57-1.15l.71-2.38s-.83,.39-2.11,.39-2.11-.39-2.11-.39l.71,2.38c-.36,.3-.57,.7-.57,1.15,0,.82,.73,1.5,1.67,1.62v.59s-.04,0-.06,0c-.78-.09-1.5-.57-1.85-1.33-.19-.41-.25-.84-.2-1.26-.05,0-.15,.02-.25,.08-.12,.07-.27,.26-.29,.36-.07-.34-.07-.69,.02-1.04,.12-.45,.35-.78,.7-1.08-.82,.2-1.29,.71-1.47,1.4-.08,.28-.08,.57-.02,.85,.04,.28,.16,.56,.34,.81-.24,.01-.47,.12-.69,.38,.12-.03,.24-.05,.36-.06h.09c.1,0,.19,.02,.3,.05,.14,.06,.35,.18,.77,.45,.3,.19,.61,.33,.87,.43,.48,.18,1.06,.28,1.7,.28s1.22-.11,1.69-.28c.26-.09,.57-.23,.88-.43,.42-.27,.63-.4,.77-.45,.1-.03,.2-.05,.3-.05h.09c.12,0,.23,.03,.36,.06-.22-.26-.45-.37-.69-.38Z" style="fill:#fc3819;"/><path d="M18.4,52.7c.41-.27,.63-.39,.77-.45,.1-.03,.2-.05,.3-.05h.09c.12,0,.23,.02,.36,.06-.22-.26-.45-.37-.69-.38,.18-.26,.3-.53,.34-.81,.06-.28,.05-.57-.02-.85-.18-.69-.65-1.2-1.47-1.4,.34,.3,.58,.63,.7,1.08,.09,.35,.1,.7,.02,1.04-.02-.1-.17-.3-.29-.36-.11-.06-.21-.08-.26-.08,.05,.42-.01,.85-.2,1.26-.36,.76-1.07,1.24-1.85,1.33-.02,0-.04,0-.06,.01v-.59c.95-.12,1.67-.8,1.67-1.62,0-.45-.22-.86-.57-1.15l.71-2.38s-.83,.39-2.11,.39-2.11-.39-2.11-.39l.71,2.38c-.35,.3-.57,.7-.57,1.15,0,.82,.73,1.5,1.67,1.62v.59s-.04,0-.06,0c-.78-.09-1.49-.57-1.85-1.33-.19-.41-.25-.85-.2-1.26-.05,0-.15,.02-.26,.08-.12,.06-.27,.26-.29,.36-.07-.34-.07-.69,.02-1.04,.12-.45,.35-.78,.7-1.08-.82,.2-1.29,.71-1.47,1.4-.07,.28-.08,.57-.02,.85,.04,.28,.16,.55,.34,.81-.24,.01-.47,.12-.69,.38,.12-.04,.24-.06,.36-.06h.09c.09,0,.19,.02,.3,.05,.15,.06,.35,.18,.77,.45,.3,.2,.61,.33,.87,.43,.48,.18,1.06,.29,1.7,.29s1.22-.11,1.69-.29c.26-.09,.57-.23,.88-.43Z" style="fill:#fc3819;"/><path d="M14.16,39.67h0c.1,0,.2,.02,.3,.05,.14,.06,.35,.18,.77,.45,.3,.2,.61,.33,.87,.42,.47,.18,1.06,.29,1.7,.29s1.22-.1,1.69-.28c.26-.09,.57-.23,.87-.43,.42-.27,.63-.39,.77-.45,.1-.03,.2-.05,.29-.05h.09c.12,0,.24,.03,.36,.06-.22-.26-.45-.37-.69-.38,.18-.26,.3-.53,.34-.81,.06-.28,.05-.57-.02-.85-.18-.69-.65-1.2-1.47-1.4,.34,.3,.58,.63,.7,1.08,.09,.35,.09,.7,.02,1.04-.02-.1-.17-.29-.29-.36-.11-.06-.2-.08-.25-.08,.05,.42-.01,.85-.2,1.26-.36,.76-1.07,1.24-1.85,1.33-.02,0-.04,0-.06,.01v-.59c.95-.12,1.67-.8,1.67-1.62,0-.45-.22-.86-.57-1.15l.71-2.38s-.83,.39-2.11,.39-2.11-.39-2.11-.39l.71,2.38c-.35,.3-.57,.7-.57,1.15,0,.82,.73,1.5,1.67,1.62v.59s-.04,0-.06,0c-.78-.09-1.5-.57-1.85-1.33-.19-.41-.25-.85-.2-1.26-.05,0-.15,.02-.26,.08-.12,.06-.27,.26-.29,.36-.07-.34-.07-.69,.02-1.04,.12-.45,.35-.78,.7-1.08-.82,.2-1.29,.71-1.47,1.4-.08,.28-.08,.57-.02,.85,.04,.28,.16,.55,.34,.81-.24,.01-.47,.12-.69,.38,.12-.03,.24-.06,.36-.06h.08Z" style="fill:#fc3819;"/><path d="M29.04,34.02h0c.1,0,.2,.02,.3,.05,.15,.06,.35,.18,.77,.45,.3,.19,.61,.33,.87,.42,.48,.18,1.06,.29,1.7,.29s1.22-.11,1.69-.29c.26-.09,.57-.23,.87-.42,.42-.27,.63-.4,.77-.45,.1-.03,.2-.05,.3-.05h.09c.12,0,.23,.02,.36,.06-.22-.26-.45-.37-.69-.38,.18-.26,.3-.53,.34-.81,.06-.28,.06-.57-.02-.85-.18-.69-.65-1.2-1.47-1.4,.34,.3,.58,.63,.7,1.08,.09,.35,.1,.7,.02,1.04-.02-.1-.17-.3-.29-.36-.11-.06-.21-.08-.26-.08,.05,.42-.01,.85-.2,1.26-.36,.76-1.07,1.24-1.85,1.33-.02,0-.04,0-.06,.01v-.59c.95-.12,1.67-.8,1.67-1.62,0-.45-.22-.86-.57-1.15l.71-2.38s-.83,.39-2.11,.39-2.11-.39-2.11-.39l.71,2.38c-.35,.3-.57,.7-.57,1.15,0,.82,.73,1.5,1.67,1.62v.59s-.04,0-.06,0c-.78-.09-1.5-.57-1.85-1.33-.19-.41-.25-.84-.2-1.26-.05,0-.15,.02-.26,.08-.12,.06-.27,.26-.29,.36-.07-.34-.07-.69,.02-1.04,.12-.45,.36-.78,.7-1.08-.82,.2-1.29,.71-1.47,1.4-.08,.28-.08,.57-.02,.85,.04,.28,.16,.56,.34,.81-.24,.01-.47,.12-.69,.38,.12-.03,.24-.06,.36-.06h.08Z" style="fill:#fc3819;"/><path d="M42.05,101.72c-2.79,1.31-5.45,2.28-7.9,2.99,3.36,2.22,6.17,3.62,7.9,4.38,1.73-.76,4.54-2.16,7.9-4.38-2.44-.72-5.11-1.69-7.9-2.99h0Z" style="fill:#fc3819;"/><polygon points="35.51 17.18 29.85 17.6 29.93 18.75 32.03 18.6 32.49 24.78 33.96 24.67 33.5 18.49 35.6 18.33 35.51 17.18" style="fill:#fc3819;"/><path d="M25.02,18.04c-2.32,.3-3.37,1.98-3.08,4.22,.29,2.24,1.72,3.63,4.06,3.33,2.31-.3,3.36-2.05,3.08-4.26-.29-2.2-1.77-3.59-4.06-3.29Zm.83,6.4c-1.49,.19-2.22-1.06-2.39-2.38-.17-1.28,.26-2.68,1.71-2.87,1.45-.19,2.22,1.05,2.38,2.34,.17,1.32-.21,2.72-1.7,2.91Z" style="fill:#fc3819;"/><path d="M19.6,25.4c-1.54,.29-2.66-.65-2.94-2.12-.28-1.48,.44-2.79,1.93-3.08,.52-.1,1.03-.12,1.63,.09l-.13-1.24c-.57-.11-1.21-.08-1.69,0-2.45,.46-3.7,2.13-3.23,4.61,.46,2.44,2.3,3.31,4.64,2.87,.55-.1,1.1-.31,1.6-.54l-.29-1.2c-.31,.24-.96,.49-1.53,.6Z" style="fill:#fc3819;"/><path d="M10.25,23.02c-.19-.78,.4-1.15,.89-1.27,.5-.12,1.03-.13,1.53-.04l-.15-1.21c-.56-.05-1.15,0-1.77,.15-1.26,.3-2.36,1.18-1.97,2.78,.57,2.37,3.56,1.05,3.89,2.41,.16,.64-.51,1.1-1.05,1.23-.56,.14-1.17,.1-1.72-.05l.18,1.32c.75,0,1.12,.02,1.9-.16,1.44-.35,2.54-1.24,2.16-2.81-.57-2.4-3.58-1.12-3.88-2.36Z" style="fill:#fc3819;"/><path d="M69.51,27.26l1.01-1.5,2.9,.67,.24,1.79,1.59,.37-1.16-7.82-1.62-.38-4.44,6.52,1.49,.34Zm3.39-5.25h.02s.35,3.2,.35,3.2l-2.09-.48,1.72-2.72Z" style="fill:#fc3819;"/><polygon points="65.66 23.24 68.1 23.68 68.31 22.54 65.86 22.1 66.19 20.31 68.76 20.78 68.96 19.64 64.94 18.91 63.64 26.15 65.09 26.41 65.66 23.24" style="fill:#fc3819;"/><rect x="40.35" y="19.97" width="7.35" height="1.47" transform="translate(22.83 64.5) rotate(-89.36)" style="fill:#fc3819;"/><path d="M83.99,20.78l-.29-.11c-.06-.02-2.21-.87-5.97-1.96-.16-.94-.31-1.76-.45-2.46-.13-.62-.24-1.15-.34-1.57-3.92-.9-7.88-1.61-11.83-2.17-7.74-1.09-15.4-1.56-22.4-1.59h0s-.71,0-.71,0h0s0,0,0,0h-.71c-6.99,.03-14.65,.51-22.39,1.6-3.95,.55-7.91,1.27-11.83,2.17-.1,.43-.21,.95-.34,1.57-.14,.7-.29,1.52-.45,2.45-3.77,1.1-5.93,1.94-5.99,1.96l-.29,.11h0s0,0,0,0v14.04H0s0,0,0,0l.29,.11c.05,.02,1.61,.63,4.39,1.49,0,.36-.02,.72-.02,1.09,0,.37-.01,.75-.02,1.13-.03,3.36,0,6.48,.02,8.66-.06,6.97,.83,14.6,3.38,22.48,4.32,13.32,11.41,22.54,18.13,28.74,2.11-.32,4.61-.84,7.4-1.65-3.41-2.36-6.86-5.27-10.23-8.88-.86-.94-1.69-1.88-2.48-2.84-11.8-14.29-15.11-30.75-15.97-36.95,.04,.16,.08,.31,.11,.42,.08,.31,.17,.62,.26,.94,.02,.08,.05,.16,.07,.23,2.37,8.17,6.14,16.69,12.04,24.26,7.81,10.03,16.79,16.09,24.67,19.69,7.88-3.6,16.77-9.66,24.59-19.69,5.9-7.58,9.66-16.1,12.04-24.26,.02-.07,.04-.15,.07-.23,.09-.31,.18-.63,.26-.94,.03-.12,.07-.27,.11-.43-.87,6.2-4.17,22.66-15.97,36.95-.79,.96-1.62,1.9-2.48,2.84-3.36,3.61-6.81,6.53-10.22,8.88,2.78,.81,5.29,1.33,7.4,1.65,6.73-6.2,13.82-15.42,18.13-28.74,2.56-7.89,3.45-15.51,3.39-22.48,0,.01,0,.02,0,.03,0-.02,0-.03,0-.03,.03-2.18,.06-5.3,.03-8.66,0-.38-.01-.76-.02-1.13,0-.37-.02-.74-.02-1.1,2.77-.85,4.32-1.46,4.37-1.48l.29-.11h0s0,0,0,0v-14.04h0s0,0,0,0Zm-9.37,26.09c0,.09,0,.18-.01,.27-.01,.28-.03,.56-.05,.84,0,.1-.01,.2-.02,.29-.03,.35-.06,.7-.1,1.04,0,.06-.01,.11-.02,.17-.04,.3-.08,.59-.12,.88-.01,.09-.03,.19-.05,.28-.06,.34-.12,.68-.19,1.01-5.7,26.63-32.01,41.98-32.01,41.98,0,0-26.39-15.36-32.08-41.98-.07-.33-.13-.67-.19-1.01-.02-.09-.03-.19-.05-.28-.05-.29-.09-.59-.12-.88,0-.06-.02-.11-.02-.17-.04-.34-.07-.69-.1-1.04,0-.1-.01-.2-.02-.29-.02-.28-.04-.56-.05-.84,0-.09,0-.18-.01-.27-.01-.35-.02-.7-.02-1.05,0-.1,0-.21,0-.31,0-.27,0-.54,0-.82,0-.12,0-.24,0-.36,.01-.35,.02-.7,.04-1.06,0-.1,.01-.21,.02-.31,.02-.27,.04-.54,.06-.82,.01-.14,.02-.28,.03-.43,.03-.29,.05-.58,.08-.87,.02-.16,.03-.31,.05-.47,.03-.28,.06-.56,.1-.84,.02-.16,.04-.32,.06-.48,.03-.24,.07-.48,.1-.72,.34-2.3,.8-4.64,1.33-6.97,6.01-1.48,14.23-3.03,23.75-3.57h0s0,0,0,0c.53-.03,1.07-.06,1.61-.08,.07,0,.14,0,.21,0,.53-.02,1.06-.04,1.6-.06,0,0,.01,0,.02,0,.53-.02,1.06-.03,1.59-.03,.12,0,.23,0,.35,0,.53,0,1.06-.01,1.6-.01s1.07,0,1.6,.01c.12,0,.23,0,.35,0,.53,0,1.06,.02,1.59,.03,0,0,0,0,.01,0,.54,.02,1.07,.04,1.6,.06,.07,0,.14,0,.21,0,10.21,.45,19.03,2.09,25.38,3.65,.54,2.34,1,4.68,1.33,6.99,.03,.23,.07,.46,.1,.69,.02,.17,.04,.33,.07,.5,.03,.28,.07,.55,.1,.82,.02,.17,.04,.33,.05,.5,.03,.28,.06,.57,.08,.85,.01,.14,.02,.29,.04,.43,.02,.27,.04,.54,.06,.81,0,.1,.01,.21,.02,.31,.02,.35,.03,.71,.04,1.06,0,.12,0,.24,0,.36,0,.27,0,.55,0,.82,0,.1,0,.2,0,.31,0,.35-.01,.7-.02,1.05Zm8.65-13.12c-2.64-.98-19.41-6.88-41.27-6.88S3.37,32.77,.73,33.75v-12.47c1.86-.7,18.95-6.92,41.27-6.92,22.33,0,39.42,6.22,41.27,6.92v12.47Z" style="fill:#fc3819;"/><polygon points="36.31 17.14 36.34 18.29 38.44 18.24 38.6 24.43 40.08 24.39 39.92 18.2 42.02 18.15 41.99 16.99 36.31 17.14" style="fill:#fc3819;"/><path d="M48.3,23.48c-.58-.03-1.15-.24-1.64-.54l-.2,1.32c.72,.21,1.07,.34,1.87,.38,1.49,.07,2.79-.47,2.87-2.08,.12-2.46-3.12-2.09-3.06-3.36,.04-.8,.7-.99,1.21-.96,.51,.03,1.02,.17,1.47,.39l.2-1.21c-.53-.21-1.11-.32-1.74-.35-1.29-.06-2.59,.47-2.68,2.11-.12,2.43,3.12,2.02,3.06,3.42-.04,.66-.8,.91-1.35,.88Z" style="fill:#fc3819;"/><polygon points="54.48 21.71 57.41 22.02 57.07 25.22 58.54 25.38 59.31 18.06 57.84 17.91 57.53 20.86 54.6 20.56 54.91 17.6 53.44 17.45 52.68 24.76 54.14 24.92 54.48 21.71" style="fill:#fc3819;"/></svg>