<?xml version="1.0" encoding="UTF-8"?><svg id="Layer_1" xmlns="http://www.w3.org/2000/svg" viewBox="0 0 178 112"><g><path d="M28.98,81.69c.8,0,1.64-.14,2.39-.62,1.08-.7,1.41-1.74,1.41-2.62,0-1.43-.66-2.44-2.47-3.85l-.42-.31c-1.25-.95-1.59-1.48-1.59-2.17,0-.91,.68-1.55,1.79-1.55,.98,0,1.41,.45,1.64,.74,.32,.39,.39,.86,.39,.99,0,.18,.05,.27,.15,.27,.12,0,.16-.12,.16-.45,0-1.17,.06-1.61,.06-1.81,0-.11-.08-.15-.21-.18-.39-.11-1.02-.26-2-.26-2.09,0-3.48,1.19-3.48,2.85,0,1.22,.57,2.27,2.23,3.57l.69,.54c1.25,.96,1.47,1.67,1.47,2.41,0,.8-.66,1.72-2.02,1.72-.93,0-1.82-.41-2.15-1.52-.07-.25-.13-.57-.13-.77,0-.11-.02-.25-.15-.25-.12,0-.16,.16-.18,.39-.01,.24-.07,1.15-.07,1.97,0,.33,.05,.41,.29,.51,.65,.29,1.32,.39,2.2,.39Z" style="fill:#fc3819; fill-rule:evenodd;"/><path d="M37.87,77.11c0,1.46,0,2.65-.08,3.29-.05,.44-.14,.69-.44,.75-.14,.03-.32,.06-.54,.06-.18,0-.24,.05-.24,.12,0,.1,.1,.15,.3,.15,.6,0,1.55-.05,1.9-.05,.41,0,1.36,.05,2.35,.05,.16,0,.28-.05,.28-.15,0-.08-.07-.12-.24-.12-.23,0-.56-.03-.77-.06-.45-.06-.56-.33-.6-.74-.06-.65-.06-1.84-.06-3.3v-2.65c0-2.29,0-2.71,.03-3.2,.03-.53,.15-.78,.56-.86,.18-.03,.3-.05,.45-.05s.24-.03,.24-.15c0-.09-.12-.12-.32-.12-.57,0-1.46,.05-1.83,.05-.44,0-1.39-.05-1.96-.05-.24,0-.36,.03-.36,.12,0,.12,.09,.15,.24,.15,.18,0,.38,.01,.54,.06,.33,.07,.48,.33,.51,.84,.03,.49,.03,.9,.03,3.2v2.65Z" style="fill:#fc3819; fill-rule:evenodd;"/><path d="M46.86,73.1h.05c.27,.28,1.94,2.17,3.58,3.8,1.56,1.55,3.49,3.53,4.44,4.43,.17,.17,.35,.33,.51,.33,.13,0,.2-.13,.2-.47l.16-9.51c.01-.85,.13-1.16,.56-1.28,.18-.05,.3-.05,.45-.05,.18,0,.27-.05,.27-.14,0-.12-.15-.14-.34-.14-.74,0-1.31,.05-1.47,.05-.32,0-1.04-.05-1.82-.05-.23,0-.39,.01-.39,.14,0,.09,.06,.14,.24,.14,.21,0,.57,0,.8,.09,.36,.15,.5,.44,.51,1.36l.15,6.76h-.07c-.25-.24-2.29-2.41-3.31-3.43-2.19-2.19-4.48-4.64-4.66-4.84-.26-.27-.4-.46-.56-.46-.15,0-.2,.21-.2,.51l-.13,8.92c-.02,1.31-.08,1.75-.47,1.87-.21,.06-.48,.07-.68,.07-.15,0-.24,.03-.24,.12,0,.13,.13,.15,.33,.15,.78,0,1.49-.05,1.63-.05,.29,0,.89,.05,1.87,.05,.21,0,.35-.03,.35-.15,0-.09-.09-.12-.26-.12-.24,0-.52-.01-.78-.1-.3-.11-.5-.5-.53-1.68l-.16-6.33Z" style="fill:#fc3819; fill-rule:evenodd;"/><path d="M70.98,78.81c0-.75,0-1.36,.01-1.81,.02-.52,.17-.78,.57-.86,.18-.03,.29-.05,.41-.05,.1,0,.19-.03,.19-.12,0-.12-.11-.15-.3-.15-.49,0-1.29,.05-1.76,.05s-1.4-.05-2.18-.05c-.21,0-.32,.03-.32,.15,0,.09,.09,.12,.23,.12,.21,0,.47,.01,.59,.05,.5,.11,.63,.34,.65,.86,.02,.45,.02,1.02,.02,1.78v1.42c0,.26-.06,.45-.28,.56-.36,.17-.89,.17-1.28,.17-3.18,0-5.24-2.43-5.24-5.67,0-1.86,.54-2.98,1.38-3.7,1.05-.87,2.15-.94,2.98-.94,1.7,0,2.9,.7,3.35,1.18,.39,.42,.47,.9,.51,1.25,.01,.12,.05,.19,.15,.19,.12,0,.17-.07,.17-.31,0-1.87,.1-2.29,.1-2.46,0-.11-.03-.17-.21-.18-.35-.01-.87-.1-1.19-.17-.3-.08-1.63-.26-2.67-.26-1.26,0-2.6,.1-4.05,.98-1.37,.83-2.62,2.51-2.62,4.92,0,4.16,3.26,5.91,6.95,5.91,1.17,0,2.65-.17,3.63-.68,.18-.11,.2-.13,.2-.54v-1.66Z" style="fill:#fc3819; fill-rule:evenodd;"/><path d="M78.56,74.46c0-2.29,0-2.71,.03-3.2,.03-.53,.15-.78,.56-.86,.18-.03,.42-.05,.59-.05,.18,0,.27-.03,.27-.14s-.1-.14-.32-.14c-.58,0-1.68,.05-2.05,.05-.4,0-1.35-.05-2.06-.05-.23,0-.33,.03-.33,.14s.09,.14,.26,.14c.2,0,.38,.01,.5,.05,.5,.1,.62,.34,.65,.86,.03,.49,.03,.9,.03,3.2v2.65c0,1.38,0,2.58-.08,3.21-.06,.43-.13,.77-.44,.83-.13,.03-.31,.06-.54,.06-.18,0-.24,.05-.24,.12,0,.1,.1,.15,.3,.15,.6,0,1.55-.05,1.9-.05,1.22,0,2.21,.09,4.38,.09,.78,0,.86-.08,.95-.41,.12-.44,.22-1.56,.22-1.73,0-.18-.01-.26-.12-.26-.12,0-.15,.09-.16,.22-.03,.29-.21,.71-.39,.91-.37,.41-.96,.42-1.76,.42-1.17,0-1.57-.11-1.82-.33-.32-.27-.32-1.31-.32-3.24v-2.65Z" style="fill:#fc3819; fill-rule:evenodd;"/><path d="M87.29,77.11c0,1.38,0,2.58-.08,3.21-.06,.43-.13,.77-.44,.83-.13,.03-.31,.06-.54,.06-.18,0-.24,.05-.24,.12,0,.1,.1,.15,.3,.15,.6,0,1.55-.05,1.89-.05,.89,0,1.9,.09,4.17,.09,.57,0,.71,0,.81-.39,.07-.3,.19-1.33,.19-1.67,0-.15,0-.27-.12-.27-.1,0-.13,.06-.16,.22-.1,.62-.29,.94-.68,1.12-.39,.18-1.03,.18-1.42,.18-1.53,0-1.77-.23-1.81-1.27-.01-.44,0-1.82,0-2.33v-1.19c0-.09,.02-.14,.09-.14,.36,0,1.85,0,2.13,.04,.56,.06,.77,.29,.84,.59,.05,.19,.05,.39,.06,.54,0,.08,.03,.14,.14,.14,.14,0,.14-.17,.14-.29,0-.11,.03-.71,.06-1.01,.05-.76,.12-1.01,.12-1.1,0-.1-.05-.12-.1-.12-.08,0-.14,.07-.24,.19-.13,.15-.36,.2-.72,.23-.34,.03-2.08,.03-2.41,.03-.09,0-.11-.06-.11-.17v-3.81c0-.1,.03-.15,.11-.15,.3,0,1.88,.03,2.14,.06,.75,.09,.9,.27,1.01,.54,.07,.18,.09,.44,.09,.54,0,.13,.03,.21,.14,.21s.13-.09,.15-.16c.03-.18,.06-.84,.08-.99,.05-.69,.12-.88,.12-.98,0-.07-.02-.13-.09-.13s-.17,.04-.24,.06c-.12,.03-.36,.06-.64,.09-.29,.01-3.28,.01-3.77,.01-.42,0-1.37-.05-2.17-.05-.23,0-.33,.03-.33,.14s.09,.14,.25,.14c.21,0,.47,.01,.59,.05,.5,.1,.62,.34,.65,.86,.03,.49,.03,.9,.03,3.2v2.65Z" style="fill:#fc3819; fill-rule:evenodd;"/><path d="M103.38,79.97c-.07,.51-.19,1.1-.62,1.19-.22,.04-.33,.04-.45,.04-.15,0-.24,.03-.24,.11,0,.14,.12,.17,.27,.17,.48,0,1.21-.05,1.49-.05,.27,0,.95,.05,1.58,.05,.23,0,.36-.03,.36-.17,0-.07-.11-.11-.22-.11-.15,0-.37-.01-.63-.07-.26-.06-.45-.19-.45-.48,0-.24,.01-.44,.05-.71l.78-6h.06c.53,1.13,1.43,3.03,1.57,3.34,.18,.43,1.37,2.73,1.73,3.42,.24,.46,.39,.75,.53,.75s.21-.13,.56-.84l3.28-6.84h.06l.9,6.63c.06,.42,.01,.62-.07,.65-.1,.04-.17,.09-.17,.16,0,.09,.09,.13,.44,.17,.6,.04,2.68,.09,3.06,.09,.21,0,.39-.05,.39-.17,0-.09-.11-.11-.24-.11-.19,0-.5-.01-.93-.14-.45-.14-.6-.58-.74-1.52l-1.37-9.31c-.05-.31-.13-.47-.27-.47s-.22,.12-.33,.36l-4.09,8.6-4.11-8.5c-.2-.39-.29-.47-.41-.47s-.21,.13-.25,.39l-1.49,9.83Z" style="fill:#fc3819; fill-rule:evenodd;"/><path d="M126.12,77.54c.08,0,.12,.03,.15,.11l1.2,3.2c.07,.18-.03,.32-.13,.34-.15,.01-.21,.05-.21,.14,0,.1,.18,.1,.45,.12,1.2,.03,2.3,.03,2.84,.03s.69-.03,.69-.15c0-.11-.08-.12-.19-.12-.18,0-.41-.01-.63-.06-.31-.08-.75-.29-1.32-1.64-.96-2.29-3.37-8.44-3.73-9.27-.15-.35-.24-.48-.38-.48-.15,0-.24,.16-.42,.6l-3.78,9.46c-.3,.75-.58,1.27-1.28,1.35-.12,.02-.33,.03-.47,.03-.12,0-.18,.03-.18,.12,0,.12,.09,.15,.28,.15,.78,0,1.61-.05,1.78-.05,.46,0,1.11,.05,1.6,.05,.16,0,.25-.03,.25-.15,0-.09-.05-.12-.23-.12h-.22c-.47,0-.6-.19-.6-.46,0-.18,.08-.54,.23-.92l.81-2.15c.03-.09,.06-.12,.13-.12h3.35Zm-3.06-.75c-.06,0-.07-.05-.06-.11l1.38-3.71c.01-.06,.05-.14,.09-.14,.04,0,.06,.08,.07,.14l1.35,3.72s0,.09-.08,.09h-2.77Z" style="fill:#fc3819; fill-rule:evenodd;"/><path d="M135.58,74.46c0-2.29,0-2.71,.03-3.2,.03-.53,.15-.78,.56-.86,.18-.03,.42-.05,.59-.05,.18,0,.27-.03,.27-.14s-.11-.14-.32-.14c-.59,0-1.68,.05-2.05,.05-.41,0-1.36-.05-2.06-.05-.23,0-.33,.03-.33,.14s.09,.14,.26,.14c.19,0,.37,.01,.49,.05,.49,.1,.62,.34,.65,.86,.03,.49,.03,.9,.03,3.2v2.65c0,1.38,0,2.58-.07,3.21-.06,.43-.13,.77-.44,.83-.13,.03-.32,.06-.54,.06-.18,0-.24,.05-.24,.12,0,.1,.11,.15,.3,.15,.6,0,1.55-.05,1.9-.05,1.22,0,2.21,.09,4.38,.09,.78,0,.86-.08,.95-.41,.12-.44,.23-1.56,.23-1.73,0-.18-.02-.26-.12-.26-.12,0-.15,.09-.17,.22-.03,.29-.21,.71-.39,.91-.38,.41-.96,.42-1.76,.42-1.17,0-1.56-.11-1.82-.33-.32-.27-.32-1.31-.32-3.24v-2.65Z" style="fill:#fc3819; fill-rule:evenodd;"/><path d="M145.59,77.11c0,1.38,0,2.58-.07,3.21-.05,.43-.14,.77-.44,.83-.14,.03-.32,.06-.54,.06-.18,0-.24,.05-.24,.12,0,.1,.11,.15,.3,.15,.6,0,1.55-.05,1.9-.05,.42,0,1.37,.05,2.36,.05,.17,0,.28-.05,.28-.15,0-.08-.07-.12-.24-.12-.22,0-.56-.03-.76-.06-.45-.06-.54-.39-.59-.81-.07-.65-.07-1.84-.07-3.22v-6.18l1.89,.05c1.34,.03,1.75,.45,1.78,.84v.16c.03,.23,.06,.31,.18,.31,.09,0,.12-.09,.14-.24,0-.39,.04-1.43,.04-1.75,0-.23-.01-.32-.12-.32-.12,0-.48,.15-1.44,.15h-5.96c-.5,0-1.07-.03-1.5-.08-.38-.03-.53-.18-.65-.18-.09,0-.13,.09-.18,.29-.03,.12-.32,1.49-.32,1.73,0,.16,.03,.24,.13,.24,.09,0,.14-.06,.17-.18,.03-.12,.11-.3,.25-.52,.23-.33,.59-.41,1.46-.44l2.24-.06v6.18Z" style="fill:#fc3819; fill-rule:evenodd;"/></g><g><path d="M169.09,42.73c.98-.97,2.17-.56,3.1,.16,2.43,1.89,3.91,3.54,3.59,5-.22,.98-1.17,1.9-.69,2.27,.27,.2,.61-.34,.9-.71,.31-.39,.3-.54,1.27-1.76,.2-.24,.33-.49,.41-.59,.64-.8,.27-1.02-.53-1.66-1.26-1.01-2.72-2.04-5.69-4.46-2.97-2.43-4.36-4.07-4.55-4.23-.41-.33-1.03-.98-1.25-.64-.22,.33,.64,.59,.78,2.27,.09,1.1-.49,2.37-1.44,3.56l-7.67,9.53c-.89,1.12-1.76,1.92-2.83,2.03-.85,.09-1.32-.4-1.57-.08-.19,.25,.16,.47,.55,.78,.47,.37,1.4,1.01,3.5,2.68,1.87,1.49,3.23,3.03,4.28,4.09,1.47,1.49,3.16,1.94,4.61,1.51,1.3-.39,2.25-1.01,2.66-1.53,.24-.29,.38-.59,.24-.7-.37-.27-.9,.25-2.66,.31-1.67,.06-3.85-.63-6.23-2.6-1.8-1.49-1.07-2.59,.31-4.33l2.58-3.37c.79-1,1.46-1.24,2.36-.53l1.04,.84c1.41,1.13,2.4,2.09,1.97,3.43-.33,1.01-.63,1.59-.43,1.78,.15,.16,.43-.06,.68-.37,.27-.34,.35-.69,1.74-2.6,.69-.96,1.15-1.43,1.31-1.62,.27-.34,.77-.85,.58-1-.39-.33-.75,.11-1.68,.59-.96,.49-2.55-.47-3.57-1.29l-1.04-.94c-.78-.71-.35-1.31,.23-2.04l3.12-3.79Z" style="fill:#fc3819; fill-rule:evenodd;"/><path d="M169.09,42.73c.98-.97,2.17-.56,3.1,.16,2.43,1.89,3.91,3.54,3.59,5-.22,.98-1.17,1.9-.69,2.27,.27,.2,.61-.34,.9-.71,.31-.39,.3-.54,1.27-1.76,.2-.24,.33-.49,.41-.59,.64-.8,.27-1.02-.53-1.66-1.26-1.01-2.72-2.04-5.69-4.46-2.97-2.43-4.36-4.07-4.55-4.23-.41-.33-1.03-.98-1.25-.64-.22,.33,.64,.59,.78,2.27,.09,1.1-.49,2.37-1.44,3.56l-7.67,9.53c-.89,1.12-1.76,1.92-2.83,2.03-.85,.09-1.32-.4-1.57-.08-.19,.25,.16,.47,.55,.78,.47,.37,1.4,1.01,3.5,2.68,1.87,1.49,3.23,3.03,4.28,4.09,1.47,1.49,3.16,1.94,4.61,1.51,1.3-.39,2.25-1.01,2.66-1.53,.24-.29,.38-.59,.24-.7-.37-.27-.9,.25-2.66,.31-1.67,.06-3.85-.63-6.23-2.6-1.8-1.49-1.07-2.59,.31-4.33l2.58-3.37c.79-1,1.46-1.24,2.36-.53l1.04,.84c1.41,1.13,2.4,2.09,1.97,3.43-.33,1.01-.63,1.59-.43,1.78,.15,.16,.43-.06,.68-.37,.27-.34,.35-.69,1.74-2.6,.69-.96,1.15-1.43,1.31-1.62,.27-.34,.77-.85,.58-1-.39-.33-.75,.11-1.68,.59-.96,.49-2.55-.47-3.57-1.29l-1.04-.94c-.78-.71-.35-1.31,.23-2.04l3.12-3.79Z" style="fill:#fc3819; fill-rule:evenodd;"/></g><g><path d="M75.3,19.3c.33-1.92,.75-2.99,1.14-3.56,.46-.68,1.39-1.09,1.37-1.41-.02-.4-.66-.26-1.06-.19-.43,.08-1.68,.53-3.28,.7-1.83,.2-1.62,.05-2.32,.18-.55,.1-.84,.27-.88,.59-.04,.35,1.09,.22,1.8,.31,1,.14,1.63,.93,1.84,2.13,.11,.64,.02,2.1-.14,3.14l-2.05,10.35c-.04,.29-.33,.51-.48,.54-.09,.02-.47,0-.78-.54l-5.85-10.18c-.5-.86-.76-1.29-.89-1.76-.22-.77-.36-1.01,0-1.69,.4-.68,1.36-1.19,1.25-1.51-.14-.46-1,0-1.31,.05-.31,.05-1.15,.38-3.05,.71-1.62,.28-1.64,.09-2.28,.2-.46,.08-1.45,.23-1.54,.68-.06,.29,.27,.19,1.03,.34,.52,.09,1.36,.79,1.99,1.88l2.31,3.79c.09,.15,.24,.7,.27,.88,.04,.24,.06,.52,0,.7l-2.25,8.1c-.04,.16-.27,.66-.51,.6-.48,.08-1.12-.95-1.22-1.12,0,0-1.75-2.94-3.23-5.47-1.19-2.04-2.22-3.99-2.22-3.99-.46-.8-1.16-2.27-1.25-2.79-.32-1.84,1.37-1.7,1.63-2.43,.07-.2-.14-.28-.44-.23-.37,.07-1.61,.54-3.69,.91-1.81,.32-1.93,.1-2.61,.22-.46,.08-1.46,.32-1.25,.7,.16,.29,.61,.23,1.05,.45,.76,.38,1.22,1.06,1.92,2.02l10.01,17.13c.18,.32,.48,.53,.67,.42,.27-.16,.34-.22,.41-.52l3.62-12.43c.03-.16,.23-.34,.41-.34,.19,0,.33,.06,.41,.17l6.29,10.65c.18,.32,.46,.46,.67,.42,.28-.05,.61-.42,.69-.93l3.8-17.87Z" style="fill:#fc3819; fill-rule:evenodd;"/><path d="M75.3,19.3c.33-1.92,.75-2.99,1.14-3.56,.46-.68,1.39-1.09,1.37-1.41-.02-.4-.66-.26-1.06-.19-.43,.08-1.68,.53-3.28,.7-1.83,.2-1.62,.05-2.32,.18-.55,.1-.84,.27-.88,.59-.04,.35,1.09,.22,1.8,.31,1,.14,1.63,.93,1.84,2.13,.11,.64,.02,2.1-.14,3.14l-2.05,10.35c-.04,.29-.33,.51-.48,.54-.09,.02-.47,0-.78-.54l-5.85-10.18c-.5-.86-.76-1.29-.89-1.76-.22-.77-.36-1.01,0-1.69,.4-.68,1.36-1.19,1.25-1.51-.14-.46-1,0-1.31,.05-.31,.05-1.15,.38-3.05,.71-1.62,.28-1.64,.09-2.28,.2-.46,.08-1.45,.23-1.54,.68-.06,.29,.27,.19,1.03,.34,.52,.09,1.36,.79,1.99,1.88l2.31,3.79c.09,.15,.24,.7,.27,.88,.04,.24,.06,.52,0,.7l-2.25,8.1c-.04,.16-.27,.66-.51,.6-.48,.08-1.12-.95-1.22-1.12,0,0-1.75-2.94-3.23-5.47-1.19-2.04-2.22-3.99-2.22-3.99-.46-.8-1.16-2.27-1.25-2.79-.32-1.84,1.37-1.7,1.63-2.43,.07-.2-.14-.28-.44-.23-.37,.07-1.61,.54-3.69,.91-1.81,.32-1.93,.1-2.61,.22-.46,.08-1.46,.32-1.25,.7,.16,.29,.61,.23,1.05,.45,.76,.38,1.22,1.06,1.92,2.02l10.01,17.13c.18,.32,.48,.53,.67,.42,.27-.16,.34-.22,.41-.52l3.62-12.43c.03-.16,.23-.34,.41-.34,.19,0,.33,.06,.41,.17l6.29,10.65c.18,.32,.46,.46,.67,.42,.28-.05,.61-.42,.69-.93l3.8-17.87Z" style="fill:#fc3819; fill-rule:evenodd;"/></g><g><path d="M104.18,19.63l.04-.65c.05-1.37,.55-2.29,1.35-2.84,1.21-.82,1.81-.41,1.77-.86-.03-.43-.52-.18-1.02-.2l-2.12-.07-1.43-.05c-.43-.02-.87,.37-1.04,.71l-7.64,14.48c-.13,.25-.35,.55-.67,.5-.15-.02-.39-.23-.5-.52l-6.16-14.74c-.32-.73-.41-1.05-.88-1.07-.22,0-1.01-.01-2.1-.05-1.52-.05-2.39-.24-2.6-.25-.41-.01-1.29-.13-1.31,.27-.03,.66,1.5,.22,2.66,1.47,.99,1.07,1.11,2.53,1.03,4.64-.01,.47-.01,1.19-.06,1.69l-.5,7.18c-.21,2.36-.46,3.78-1.01,4.69-.93,1.55-1.97,1.39-2.01,1.76-.04,.39,.25,.34,.63,.35,.37,.01,1.15-.17,2.86-.11,1.4,.05,2.35,.31,3.01,.31,.57,0,.72-.04,.74-.26,.04-.43-.86-.55-1.75-1.14-1.19-.63-1.39-2.01-1.33-3.76,0-.15,0-1.19,0-1.41l.43-7.14c.05-.53,.15-1.2,.41-1.24,.43-.06,.58,.32,.72,.67l5.51,13.55c.17,.44,.37,.88,.73,.86,.35-.02,.47-.38,.67-.77l6.58-12.75c.37-.67,.79-1.06,1.06-1.02,.1,0,.37,.13,.38,.63l-.06,9.74-.02,.69c-.04,1.15-.23,2.18-1.03,2.69-.6,.38-1.21,.53-1.21,.8,0,.22,.25,.32,.74,.33,.53,.02,1.61-.2,3.51-.14,1.83,.07,3.63,.41,4.19,.43,.59,.02,.97-.06,.95-.35-.02-.47-1.21-.33-2.27-1.17-.94-.75-1.28-2.06-1.25-3.65v-12.24Z" style="fill:#fc3819; fill-rule:evenodd;"/><path d="M104.18,19.63l.04-.65c.05-1.37,.55-2.29,1.35-2.84,1.21-.82,1.81-.41,1.77-.86-.03-.43-.52-.18-1.02-.2l-2.12-.07-1.43-.05c-.43-.02-.87,.37-1.04,.71l-7.64,14.48c-.13,.25-.35,.55-.67,.5-.15-.02-.39-.23-.5-.52l-6.16-14.74c-.32-.73-.41-1.05-.88-1.07-.22,0-1.01-.01-2.1-.05-1.52-.05-2.39-.24-2.6-.25-.41-.01-1.29-.13-1.31,.27-.03,.66,1.5,.22,2.66,1.47,.99,1.07,1.11,2.53,1.03,4.64-.01,.47-.01,1.19-.06,1.69l-.5,7.18c-.21,2.36-.46,3.78-1.01,4.69-.93,1.55-1.97,1.39-2.01,1.76-.04,.39,.25,.34,.63,.35,.37,.01,1.15-.17,2.86-.11,1.4,.05,2.35,.31,3.01,.31,.57,0,.72-.04,.74-.26,.04-.43-.86-.55-1.75-1.14-1.19-.63-1.39-2.01-1.33-3.76,0-.15,0-1.19,0-1.41l.43-7.14c.05-.53,.15-1.2,.41-1.24,.43-.06,.58,.32,.72,.67l5.51,13.55c.17,.44,.37,.88,.73,.86,.35-.02,.47-.38,.67-.77l6.58-12.75c.37-.67,.79-1.06,1.06-1.02,.1,0,.37,.13,.38,.63l-.06,9.74-.02,.69c-.04,1.15-.23,2.18-1.03,2.69-.6,.38-1.21,.53-1.21,.8,0,.22,.25,.32,.74,.33,.53,.02,1.61-.2,3.51-.14,1.83,.07,3.63,.41,4.19,.43,.59,.02,.97-.06,.95-.35-.02-.47-1.21-.33-2.27-1.17-.94-.75-1.28-2.06-1.25-3.65v-12.24Z" style="fill:#fc3819; fill-rule:evenodd;"/></g><g><path d="M127.22,19.36c-6.51-2.64-13.04,.39-15.47,6.42-2.41,5.98,.02,11.84,6.34,14.4,6.63,2.69,13.03-.23,15.53-6.34,2.55-6.22-.25-11.99-6.39-14.48Zm2.12,14.41c-1.99,4.74-6.48,7.66-10.34,5.64-5.06-2.65-5.36-7.51-2.84-13.75,2.08-5.17,6.29-7.11,10.04-5.75,4.38,1.59,5.89,7.34,3.15,13.86Z" style="fill:#fc3819; fill-rule:evenodd;"/><path d="M127.22,19.36c-6.51-2.64-13.04,.39-15.47,6.42-2.41,5.98,.02,11.84,6.34,14.4,6.63,2.69,13.03-.23,15.53-6.34,2.55-6.22-.25-11.99-6.39-14.48Zm2.12,14.41c-1.99,4.74-6.48,7.66-10.34,5.64-5.06-2.65-5.36-7.51-2.84-13.75,2.08-5.17,6.29-7.11,10.04-5.75,4.38,1.59,5.89,7.34,3.15,13.86Z" style="fill:#fc3819; fill-rule:evenodd;"/></g><g><path d="M32.18,24.61c-6.32,3.09-8.44,9.97-5.59,15.82,2.82,5.79,8.79,7.9,14.93,4.91,6.43-3.14,8.54-9.85,5.69-15.81-2.91-6.06-9.07-7.83-15.02-4.93Zm12.12,8.06c2.19,4.66,1.34,9.95-2.74,11.47-5.35,2-9.16-1.03-12.1-7.08-2.44-5.01-1.07-9.44,2.45-11.32,4.11-2.2,9.38,.53,12.39,6.93Z" style="fill:#fc3819; fill-rule:evenodd;"/><path d="M32.18,24.61c-6.32,3.09-8.44,9.97-5.59,15.82,2.82,5.79,8.79,7.9,14.93,4.91,6.43-3.14,8.54-9.85,5.69-15.81-2.91-6.06-9.07-7.83-15.02-4.93Zm12.12,8.06c2.19,4.66,1.34,9.95-2.74,11.47-5.35,2-9.16-1.03-12.1-7.08-2.44-5.01-1.07-9.44,2.45-11.32,4.11-2.2,9.38,.53,12.39,6.93Z" style="fill:#fc3819; fill-rule:evenodd;"/></g><g><path d="M16.63,55.96l-2.73-3.15c-1.2-1.39-1.06-2.26,.61-3.71,2.84-2.47,6.22-3.19,8.32-.77,1.75,2.02,2.66,5.06-.82,7.78-2.25,1.76-3.76,1.7-5.38-.16Zm1.61-11.47c-.54-.31,1.45-2.94-.82-5.32-2.17-2.27-5.65-2.08-9.05,.89-1.62,1.41-3.11,3.03-4.61,4.34-1.69,1.47-2.79,2.05-3.05,2.28-.4,.34-.86,.96-.65,1.11,.38,.28,1.11-.74,2.4-.82,1.45-.1,2.38,.94,3.38,2.09l8.19,9.34c.94,1.08,1.71,2.22,1.55,2.98-.18,.86-.63,1.43-.28,1.68,.12,.08,.12,.01,.5-.31,.54-.47,1.54-1.48,2.95-2.7,.68-.59,2.21-1.56,4.27-3.36,1.99-1.73,3.72-3.27,4.02-5.64,.25-2.03-.46-4.16-1.8-5.54-3.23-3.33-6.45-.67-6.99-1.02Zm-7.75,4.21l-2.53-2.91c-1.28-1.48-1.64-2.57-.25-3.77,2.16-1.88,4.84-2.98,7.84,.13,1.57,1.63,1.16,3.56-.79,5.26-2.18,1.9-3.29,2.43-4.27,1.3Z" style="fill:#fc3819; fill-rule:evenodd;"/><path d="M16.63,55.96l-2.73-3.15c-1.2-1.39-1.06-2.26,.61-3.71,2.84-2.47,6.22-3.19,8.32-.77,1.75,2.02,2.66,5.06-.82,7.78-2.25,1.76-3.76,1.7-5.38-.16Zm1.61-11.47c-.54-.31,1.45-2.94-.82-5.32-2.17-2.27-5.65-2.08-9.05,.89-1.62,1.41-3.11,3.03-4.61,4.34-1.69,1.47-2.79,2.05-3.05,2.28-.4,.34-.86,.96-.65,1.11,.38,.28,1.11-.74,2.4-.82,1.45-.1,2.38,.94,3.38,2.09l8.19,9.34c.94,1.08,1.71,2.22,1.55,2.98-.18,.86-.63,1.43-.28,1.68,.12,.08,.12,.01,.5-.31,.54-.47,1.54-1.48,2.95-2.7,.68-.59,2.21-1.56,4.27-3.36,1.99-1.73,3.72-3.27,4.02-5.64,.25-2.03-.46-4.16-1.8-5.54-3.23-3.33-6.45-.67-6.99-1.02Zm-7.75,4.21l-2.53-2.91c-1.28-1.48-1.64-2.57-.25-3.77,2.16-1.88,4.84-2.98,7.84,.13,1.57,1.63,1.16,3.56-.79,5.26-2.18,1.9-3.29,2.43-4.27,1.3Z" style="fill:#fc3819; fill-rule:evenodd;"/></g><g><path d="M149.79,38.75c.19-.08,.29-.05,.59-.1,2.01-.35,3.71-1.02,4.67-3.19,1.31-2.97-.41-6.5-4.67-8.3-1.92-.81-3.66-1.36-5.24-2.03-2.09-.89-3.27-1.77-3.67-1.94-.46-.2-.9-.24-1.04-.06-.22,.29,1.39,.92,1.93,2.35,.37,.96,.02,2.26-.57,3.66l-4.76,11.23c-.56,1.32-1.61,2.69-2.66,2.85-.84,.15-1.1,.02-1.17,.2-.12,.29,.3,.47,.77,.67,.66,.28,.41,0,2.32,.82,1.78,.75,3.78,1.99,4.3,2.21,.49,.21,.78,.26,.86-.04,.1-.37-.69-.77-1.23-1.4-.69-.84-.59-2.29,.04-3.78l1.82-4.29c.34-.8,.95-.94,1.87-.56,.91,.39,1.42,.82,1.76,1.53,.29,.6,.47,2.05,.6,4.68,.2,4.24,.55,6.64,2.37,7.51,1.62,.78,3.81,.84,4.12,.3,.16-.27-.4-.49-.68-.61-.2-.09-.68-.27-1.05-.66-.71-.75-.99-3.01-1.13-4.66l-.43-4.91c-.05-.67-.04-1.21,.3-1.49Zm-5.98-5.09l1.91-4.42c.68-1.61,1.38-2.41,2.9-1.76,2.92,1.24,4.28,4.12,3.05,7.15-1.12,2.74-3.28,3.15-6.18,1.88-2.19-.96-2.18-1.67-1.68-2.84Z" style="fill:#fc3819; fill-rule:evenodd;"/><path d="M149.79,38.75c.19-.08,.29-.05,.59-.1,2.01-.35,3.71-1.02,4.67-3.19,1.31-2.97-.41-6.5-4.67-8.3-1.92-.81-3.66-1.36-5.24-2.03-2.09-.89-3.27-1.77-3.67-1.94-.46-.2-.9-.24-1.04-.06-.22,.29,1.39,.92,1.93,2.35,.37,.96,.02,2.26-.57,3.66l-4.76,11.23c-.56,1.32-1.61,2.69-2.66,2.85-.84,.15-1.1,.02-1.17,.2-.12,.29,.3,.47,.77,.67,.66,.28,.41,0,2.32,.82,1.78,.75,3.78,1.99,4.3,2.21,.49,.21,.78,.26,.86-.04,.1-.37-.69-.77-1.23-1.4-.69-.84-.59-2.29,.04-3.78l1.82-4.29c.34-.8,.95-.94,1.87-.56,.91,.39,1.42,.82,1.76,1.53,.29,.6,.47,2.05,.6,4.68,.2,4.24,.55,6.64,2.37,7.51,1.62,.78,3.81,.84,4.12,.3,.16-.27-.4-.49-.68-.61-.2-.09-.68-.27-1.05-.66-.71-.75-.99-3.01-1.13-4.66l-.43-4.91c-.05-.67-.04-1.21,.3-1.49Zm-5.98-5.09l1.91-4.42c.68-1.61,1.38-2.41,2.9-1.76,2.92,1.24,4.28,4.12,3.05,7.15-1.12,2.74-3.28,3.15-6.18,1.88-2.19-.96-2.18-1.67-1.68-2.84Z" style="fill:#fc3819; fill-rule:evenodd;"/></g><g><path d="M59.11,58.22c0,1.82,0,3.3-.09,4.08-.06,.54-.17,.86-.54,.94-.17,.04-.39,.08-.67,.08-.22,0-.3,.06-.3,.15,0,.13,.13,.19,.37,.19,.75,0,1.93-.06,2.36-.06,.51,0,1.68,.06,2.92,.06,.21,0,.35-.06,.35-.19,0-.09-.09-.15-.3-.15-.28,0-.7-.04-.95-.08-.56-.07-.69-.41-.75-.91-.08-.81-.08-2.29-.08-4.1v-3.3c0-2.85,0-3.37,.04-3.97,.04-.66,.19-.97,.69-1.07,.22-.04,.37-.06,.56-.06s.3-.04,.3-.19c0-.11-.15-.15-.39-.15-.71,0-1.81,.06-2.28,.06-.54,0-1.72-.06-2.43-.06-.3,0-.45,.04-.45,.15,0,.15,.11,.19,.3,.19,.23,0,.47,.02,.68,.07,.41,.09,.6,.41,.63,1.05,.04,.6,.04,1.13,.04,3.97v3.3Z" style="fill:#fc3819; fill-rule:evenodd;"/><path d="M59.11,58.22c0,1.82,0,3.3-.09,4.08-.06,.54-.17,.86-.54,.94-.17,.04-.39,.08-.67,.08-.22,0-.3,.06-.3,.15,0,.13,.13,.19,.37,.19,.75,0,1.93-.06,2.36-.06,.51,0,1.68,.06,2.92,.06,.21,0,.35-.06,.35-.19,0-.09-.09-.15-.3-.15-.28,0-.7-.04-.95-.08-.56-.07-.69-.41-.75-.91-.08-.81-.08-2.29-.08-4.1v-3.3c0-2.85,0-3.37,.04-3.97,.04-.66,.19-.97,.69-1.07,.22-.04,.37-.06,.56-.06s.3-.04,.3-.19c0-.11-.15-.15-.39-.15-.71,0-1.81,.06-2.28,.06-.54,0-1.72-.06-2.43-.06-.3,0-.45,.04-.45,.15,0,.15,.11,.19,.3,.19,.23,0,.47,.02,.68,.07,.41,.09,.6,.41,.63,1.05,.04,.6,.04,1.13,.04,3.97v3.3Z" style="fill:#fc3819; fill-rule:evenodd;"/></g><g><path d="M71.13,63.92c.99,0,2.04-.17,2.97-.77,1.35-.88,1.76-2.17,1.76-3.26,0-1.78-.82-3.04-3.07-4.77l-.53-.39c-1.55-1.18-1.98-1.84-1.98-2.7,0-1.12,.84-1.93,2.23-1.93,1.22,0,1.76,.56,2.04,.91,.39,.49,.49,1.07,.49,1.24,0,.22,.06,.34,.19,.34,.15,0,.2-.15,.2-.56,0-1.46,.08-2,.08-2.25,0-.13-.09-.19-.26-.22-.48-.13-1.27-.32-2.49-.32-2.6,0-4.32,1.48-4.32,3.54,0,1.52,.71,2.83,2.77,4.44l.86,.67c1.56,1.2,1.83,2.08,1.83,3,0,.99-.82,2.14-2.51,2.14-1.16,0-2.26-.51-2.67-1.89-.09-.32-.17-.71-.17-.96,0-.15-.02-.32-.18-.32-.15,0-.21,.21-.22,.49-.02,.3-.09,1.42-.09,2.45,0,.41,.06,.51,.35,.64,.81,.36,1.65,.49,2.73,.49Z" style="fill:#fc3819; fill-rule:evenodd;"/><path d="M71.13,63.92c.99,0,2.04-.17,2.97-.77,1.35-.88,1.76-2.17,1.76-3.26,0-1.78-.82-3.04-3.07-4.77l-.53-.39c-1.55-1.18-1.98-1.84-1.98-2.7,0-1.12,.84-1.93,2.23-1.93,1.22,0,1.76,.56,2.04,.91,.39,.49,.49,1.07,.49,1.24,0,.22,.06,.34,.19,.34,.15,0,.2-.15,.2-.56,0-1.46,.08-2,.08-2.25,0-.13-.09-.19-.26-.22-.48-.13-1.27-.32-2.49-.32-2.6,0-4.32,1.48-4.32,3.54,0,1.52,.71,2.83,2.77,4.44l.86,.67c1.56,1.2,1.83,2.08,1.83,3,0,.99-.82,2.14-2.51,2.14-1.16,0-2.26-.51-2.67-1.89-.09-.32-.17-.71-.17-.96,0-.15-.02-.32-.18-.32-.15,0-.21,.21-.22,.49-.02,.3-.09,1.42-.09,2.45,0,.41,.06,.51,.35,.64,.81,.36,1.65,.49,2.73,.49Z" style="fill:#fc3819; fill-rule:evenodd;"/></g><g><path d="M84.52,54.93c0-2.85,0-3.37,.04-3.97,.04-.66,.18-.97,.69-1.07,.22-.04,.52-.06,.73-.06,.22,0,.34-.04,.34-.17s-.13-.17-.39-.17c-.73,0-2.1,.06-2.55,.06-.5,0-1.68-.06-2.56-.06-.28,0-.41,.04-.41,.17s.11,.17,.32,.17c.24,0,.47,.02,.62,.06,.61,.13,.76,.43,.8,1.07,.04,.6,.04,1.13,.04,3.97v3.3c0,1.72,0,3.2-.09,3.99-.07,.54-.17,.96-.54,1.03-.17,.04-.39,.08-.67,.08-.23,0-.3,.06-.3,.15,0,.13,.13,.19,.37,.19,.75,0,1.93-.06,2.36-.06,1.51,0,2.75,.11,5.44,.11,.97,0,1.07-.09,1.18-.51,.15-.54,.28-1.94,.28-2.15,0-.22-.02-.32-.15-.32-.15,0-.19,.11-.2,.28-.04,.35-.26,.88-.49,1.12-.47,.5-1.2,.52-2.19,.52-1.46,0-1.94-.13-2.26-.41-.39-.33-.39-1.63-.39-4.03v-3.3Z" style="fill:#fc3819; fill-rule:evenodd;"/><path d="M84.52,54.93c0-2.85,0-3.37,.04-3.97,.04-.66,.18-.97,.69-1.07,.22-.04,.52-.06,.73-.06,.22,0,.34-.04,.34-.17s-.13-.17-.39-.17c-.73,0-2.1,.06-2.55,.06-.5,0-1.68-.06-2.56-.06-.28,0-.41,.04-.41,.17s.11,.17,.32,.17c.24,0,.47,.02,.62,.06,.61,.13,.76,.43,.8,1.07,.04,.6,.04,1.13,.04,3.97v3.3c0,1.72,0,3.2-.09,3.99-.07,.54-.17,.96-.54,1.03-.17,.04-.39,.08-.67,.08-.23,0-.3,.06-.3,.15,0,.13,.13,.19,.37,.19,.75,0,1.93-.06,2.36-.06,1.51,0,2.75,.11,5.44,.11,.97,0,1.07-.09,1.18-.51,.15-.54,.28-1.94,.28-2.15,0-.22-.02-.32-.15-.32-.15,0-.19,.11-.2,.28-.04,.35-.26,.88-.49,1.12-.47,.5-1.2,.52-2.19,.52-1.46,0-1.94-.13-2.26-.41-.39-.33-.39-1.63-.39-4.03v-3.3Z" style="fill:#fc3819; fill-rule:evenodd;"/></g><g><path d="M101.2,58.77c.1,0,.15,.04,.19,.13l1.49,3.98c.1,.22-.04,.39-.17,.43-.19,.02-.26,.05-.26,.16,0,.13,.22,.13,.56,.15,1.5,.04,2.86,.04,3.54,.04s.86-.04,.86-.19c0-.13-.1-.15-.25-.15-.22,0-.5-.02-.78-.08-.39-.09-.93-.35-1.64-2.04-1.2-2.85-4.19-10.49-4.64-11.52-.19-.43-.3-.6-.46-.6-.19,0-.3,.21-.53,.75l-4.7,11.76c-.37,.94-.73,1.58-1.59,1.69-.15,.02-.41,.04-.58,.04-.15,0-.23,.04-.23,.15,0,.15,.11,.19,.36,.19,.97,0,2-.06,2.21-.06,.58,0,1.38,.06,1.98,.06,.21,0,.32-.04,.32-.19,0-.11-.06-.15-.28-.15h-.28c-.58,0-.74-.24-.74-.58,0-.22,.09-.68,.28-1.14l1.01-2.68c.03-.11,.07-.15,.17-.15h4.17Zm-3.8-.94c-.07,0-.09-.06-.07-.13l1.72-4.61c.02-.07,.05-.17,.11-.17,.05,0,.08,.09,.09,.17l1.68,4.63c.02,.06,0,.11-.1,.11h-3.44Z" style="fill:#fc3819; fill-rule:evenodd;"/><path d="M101.2,58.77c.1,0,.15,.04,.19,.13l1.49,3.98c.1,.22-.04,.39-.17,.43-.19,.02-.26,.05-.26,.16,0,.13,.22,.13,.56,.15,1.5,.04,2.86,.04,3.54,.04s.86-.04,.86-.19c0-.13-.1-.15-.25-.15-.22,0-.5-.02-.78-.08-.39-.09-.93-.35-1.64-2.04-1.2-2.85-4.19-10.49-4.64-11.52-.19-.43-.3-.6-.46-.6-.19,0-.3,.21-.53,.75l-4.7,11.76c-.37,.94-.73,1.58-1.59,1.69-.15,.02-.41,.04-.58,.04-.15,0-.23,.04-.23,.15,0,.15,.11,.19,.36,.19,.97,0,2-.06,2.21-.06,.58,0,1.38,.06,1.98,.06,.21,0,.32-.04,.32-.19,0-.11-.06-.15-.28-.15h-.28c-.58,0-.74-.24-.74-.58,0-.22,.09-.68,.28-1.14l1.01-2.68c.03-.11,.07-.15,.17-.15h4.17Zm-3.8-.94c-.07,0-.09-.06-.07-.13l1.72-4.61c.02-.07,.05-.17,.11-.17,.05,0,.08,.09,.09,.17l1.68,4.63c.02,.06,0,.11-.1,.11h-3.44Z" style="fill:#fc3819; fill-rule:evenodd;"/></g><g><path d="M112.14,60.34c0,.3,0,1.08-.06,1.87-.04,.54-.21,.96-.58,1.03-.17,.04-.4,.08-.66,.08-.21,0-.3,.06-.3,.15,0,.15,.15,.19,.41,.19,.69,0,1.87-.06,2.34-.06,.51,0,1.68,.06,2.86,.06,.24,0,.4-.06,.4-.19,0-.09-.1-.15-.3-.15-.26,0-.67-.04-.94-.08-.56-.07-.73-.49-.76-1.03-.06-.79-.06-1.57-.06-1.87v-1.54c0-.62,0-1.2,.28-1.87,.34-.8,2.95-5.21,3.57-5.96,.41-.51,.62-.73,1.01-.92,.28-.15,.64-.22,.82-.22,.21,0,.36-.06,.36-.19,0-.11-.13-.15-.34-.15-.35,0-1.59,.06-2,.06-.54,0-1.14-.06-1.76-.06-.22,0-.32,.04-.32,.17,0,.11,.17,.15,.33,.19,.32,.08,.39,.28,.39,.47,0,.24-.07,.56-.26,.97-.26,.58-2.62,4.7-2.81,5.15-.3-.53-2.92-5.04-3.18-5.6-.13-.26-.23-.48-.23-.64s.1-.3,.26-.34c.28-.08,.41-.09,.41-.2s-.09-.17-.28-.17c-.84,0-1.61,.06-2,.06-.62,0-2.02-.06-2.36-.06-.22,0-.36,.06-.36,.17,0,.13,.13,.17,.28,.17,.23,0,.55,.11,.79,.24,.36,.21,.82,.68,1.3,1.37,.65,.97,3.16,5.1,3.29,5.4,.25,.54,.43,.95,.43,1.96v1.54Z" style="fill:#fc3819; fill-rule:evenodd;"/><path d="M112.14,60.34c0,.3,0,1.08-.06,1.87-.04,.54-.21,.96-.58,1.03-.17,.04-.4,.08-.66,.08-.21,0-.3,.06-.3,.15,0,.15,.15,.19,.41,.19,.69,0,1.87-.06,2.34-.06,.51,0,1.68,.06,2.86,.06,.24,0,.4-.06,.4-.19,0-.09-.1-.15-.3-.15-.26,0-.67-.04-.94-.08-.56-.07-.73-.49-.76-1.03-.06-.79-.06-1.57-.06-1.87v-1.54c0-.62,0-1.2,.28-1.87,.34-.8,2.95-5.21,3.57-5.96,.41-.51,.62-.73,1.01-.92,.28-.15,.64-.22,.82-.22,.21,0,.36-.06,.36-.19,0-.11-.13-.15-.34-.15-.35,0-1.59,.06-2,.06-.54,0-1.14-.06-1.76-.06-.22,0-.32,.04-.32,.17,0,.11,.17,.15,.33,.19,.32,.08,.39,.28,.39,.47,0,.24-.07,.56-.26,.97-.26,.58-2.62,4.7-2.81,5.15-.3-.53-2.92-5.04-3.18-5.6-.13-.26-.23-.48-.23-.64s.1-.3,.26-.34c.28-.08,.41-.09,.41-.2s-.09-.17-.28-.17c-.84,0-1.61,.06-2,.06-.62,0-2.02-.06-2.36-.06-.22,0-.36,.06-.36,.17,0,.13,.13,.17,.28,.17,.23,0,.55,.11,.79,.24,.36,.21,.82,.68,1.3,1.37,.65,.97,3.16,5.1,3.29,5.4,.25,.54,.43,.95,.43,1.96v1.54Z" style="fill:#fc3819; fill-rule:evenodd;"/></g><path d="M45.27,94c.44,0,.91-.07,1.33-.34,.6-.39,.79-.97,.79-1.46,0-.8-.37-1.36-1.37-2.13l-.24-.18c-.69-.53-.88-.82-.88-1.2,0-.5,.37-.86,.99-.86,.54,0,.79,.25,.91,.41,.17,.22,.22,.47,.22,.55,0,.1,.03,.15,.08,.15,.07,0,.09-.07,.09-.25,0-.66,.03-.9,.03-1.01,0-.06-.04-.09-.12-.1-.22-.06-.57-.14-1.11-.14-1.16,0-1.93,.66-1.93,1.58,0,.68,.32,1.27,1.24,1.99l.38,.3c.7,.54,.82,.93,.82,1.34,0,.44-.37,.96-1.12,.96-.52,0-1.01-.23-1.19-.85-.04-.15-.08-.32-.08-.43,0-.07,0-.15-.08-.15-.07,0-.09,.09-.1,.22,0,.14-.04,.64-.04,1.1,0,.19,.03,.22,.16,.28,.36,.16,.74,.22,1.22,.22Z" style="fill:#fc3819; fill-rule:evenodd;"/><path d="M53.21,94c.54,0,1.17-.06,1.5-.2,.14-.05,.18-.1,.22-.24,.08-.29,.18-1.01,.18-1.11,0-.07-.02-.12-.07-.12-.07,0-.08,.03-.11,.17-.04,.15-.14,.39-.29,.55-.33,.38-.78,.47-1.53,.47-1.12,0-2.63-.99-2.63-2.98,0-.81,.16-1.61,.77-2.17,.37-.34,.84-.52,1.57-.52,.77,0,1.42,.23,1.7,.52,.21,.21,.32,.51,.33,.77,0,.12,.02,.18,.08,.18,.07,0,.09-.06,.1-.19,.02-.17,0-.63,.02-.91,.02-.29,.04-.39,.04-.46,0-.05-.03-.09-.12-.1-.25-.02-.52-.1-.83-.14-.39-.05-.69-.08-1.21-.08-1.25,0-2.04,.33-2.64,.89-.8,.73-.98,1.72-.98,2.29,0,.81,.22,1.75,1.04,2.47,.76,.66,1.72,.91,2.87,.91Z" style="fill:#fc3819; fill-rule:evenodd;"/><path d="M60.19,94c2.12,0,3.46-1.52,3.46-3.43s-1.29-3.13-3.37-3.13c-2.51,0-3.45,1.85-3.45,3.28s.97,3.28,3.37,3.28Zm.35-.42c-1.6,0-2.57-1.38-2.57-3.12,0-2.08,1.1-2.62,2.06-2.62,1.37,0,2.45,1.16,2.45,3.04,0,2.42-1.35,2.7-1.94,2.7Z" style="fill:#fc3819; fill-rule:evenodd;"/><path d="M67.28,91.46c0,.77,0,1.43-.04,1.78-.03,.24-.08,.42-.24,.46-.08,.02-.18,.04-.3,.04-.1,0-.13,.03-.13,.07,0,.06,.06,.09,.17,.09,.33,0,.86-.03,1.05-.03,.24,0,.76,.03,1.31,.03,.09,0,.16-.03,.16-.09,0-.04-.04-.07-.13-.07-.13,0-.31-.02-.43-.04-.25-.04-.3-.22-.33-.45-.04-.36-.04-1.02-.04-1.79v-3.43l1.05,.03c.74,.02,.97,.25,.99,.47v.1c.01,.12,.03,.16,.1,.16,.05,0,.07-.05,.07-.13,0-.22,.03-.79,.03-.97,0-.12,0-.17-.07-.17-.07,0-.27,.08-.8,.08h-3.31c-.27,0-.59-.01-.84-.04-.21-.02-.29-.1-.36-.1-.05,0-.07,.05-.1,.16-.02,.07-.18,.83-.18,.96,0,.09,.02,.13,.08,.13,.05,0,.07-.03,.09-.1,.02-.07,.06-.17,.14-.3,.13-.18,.33-.22,.81-.24l1.25-.03v3.43Z" style="fill:#fc3819; fill-rule:evenodd;"/><path d="M75.82,94c.54,0,1.17-.06,1.5-.2,.14-.05,.18-.1,.22-.24,.08-.29,.18-1.01,.18-1.11,0-.07-.02-.12-.08-.12-.07,0-.08,.03-.11,.17-.03,.15-.14,.39-.28,.55-.34,.38-.79,.47-1.53,.47-1.12,0-2.63-.99-2.63-2.98,0-.81,.16-1.61,.77-2.17,.37-.34,.85-.52,1.58-.52,.77,0,1.42,.23,1.69,.52,.21,.21,.32,.51,.33,.77,0,.12,.02,.18,.08,.18,.07,0,.09-.06,.1-.19,.02-.17,0-.63,.03-.91,.02-.29,.04-.39,.04-.46,0-.05-.03-.09-.12-.1-.25-.02-.52-.1-.84-.14-.39-.05-.69-.08-1.21-.08-1.25,0-2.04,.33-2.64,.89-.8,.73-.98,1.72-.98,2.29,0,.81,.22,1.75,1.04,2.47,.76,.66,1.72,.91,2.87,.91Z" style="fill:#fc3819; fill-rule:evenodd;"/><path d="M81.45,90.22s-.05-.01-.05-.06v-.18c0-1.28,0-1.51,.02-1.78,.02-.3,.08-.43,.31-.48,.1-.02,.17-.03,.24-.03,.1,0,.15-.01,.15-.08,0-.05-.06-.07-.17-.07-.33,0-.85,.02-1.05,.02-.22,0-.75-.02-1.2-.02-.12,0-.18,.02-.18,.07,0,.06,.05,.08,.14,.08,.12,0,.26,0,.32,.03,.28,.06,.34,.19,.36,.48,.02,.27,.02,.5,.02,1.78v1.47c0,.77,0,1.43-.04,1.78-.03,.24-.08,.42-.24,.46-.07,.02-.17,.04-.3,.04-.1,0-.13,.03-.13,.07,0,.06,.06,.09,.17,.09,.34,0,.86-.03,1.06-.03,.24,0,.76,.03,1.3,.03,.1,0,.17-.03,.17-.09,0-.04-.04-.07-.13-.07-.13,0-.31-.02-.43-.04-.25-.04-.3-.22-.33-.45-.04-.36-.04-1.02-.04-1.79v-.73s.02-.05,.05-.05h3.2s.05,.02,.05,.05v.73c0,.77,0,1.43-.04,1.78-.03,.24-.08,.42-.25,.46-.07,.02-.17,.04-.3,.04-.1,0-.14,.03-.14,.07,0,.06,.06,.09,.18,.09,.33,0,.86-.03,1.05-.03,.24,0,.76,.03,1.31,.03,.1,0,.17-.03,.17-.09,0-.04-.04-.07-.13-.07-.13,0-.31-.02-.43-.04-.25-.04-.3-.22-.33-.45-.04-.36-.04-1.02-.04-1.79v-1.47c0-1.28,0-1.51,.02-1.78,.02-.3,.08-.43,.31-.48,.1-.02,.18-.03,.24-.03,.1,0,.15-.01,.15-.08,0-.05-.06-.07-.18-.07-.33,0-.85,.02-1.06,.02-.22,0-.75-.02-1.2-.02-.12,0-.18,.02-.18,.07,0,.06,.06,.08,.15,.08,.12,0,.26,0,.33,.03,.27,.06,.34,.19,.36,.48,.02,.27,.02,.5,.02,1.78v.18s-.02,.06-.05,.06h-3.2Z" style="fill:#fc3819; fill-rule:evenodd;"/><path d="M93.68,93.69c.07,.22,.11,.31,.2,.31,.1,0,.14-.1,.3-.44,.36-.77,1.48-3.74,1.63-4.16h.02l1.74,4.19c.13,.31,.18,.41,.26,.41,.11,0,.15-.1,.24-.39,.41-1.25,1.29-3.92,1.67-4.97,.18-.47,.27-.81,.47-.89,.09-.03,.21-.04,.29-.04,.07,0,.12-.02,.12-.08,0-.05-.06-.07-.15-.07-.28,0-.64,.02-.7,.02-.08,0-.42-.02-.87-.02-.12,0-.19,.02-.19,.07s.06,.08,.14,.08c.33,0,.4,.12,.4,.26,0,.11-.03,.29-.09,.48-.29,.98-.96,3.19-1.11,3.75h-.02l-1.74-4.21c-.11-.27-.15-.39-.24-.39-.07,0-.11,.07-.21,.3l-1.62,4.36h-.03c-.15-.47-.93-3.01-1.07-3.56-.1-.38-.18-.66-.18-.77,0-.1,.01-.15,.09-.19,.06-.04,.14-.04,.21-.04,.08,0,.15,0,.15-.08,0-.05-.06-.07-.18-.07-.48,0-.85,.02-.92,.02s-.54-.02-.97-.02c-.12,0-.18,.02-.18,.07,0,.07,.05,.08,.13,.08,.07,0,.24,.02,.33,.08,.12,.08,.21,.28,.31,.59l1.77,5.32Z" style="fill:#fc3819; fill-rule:evenodd;"/><path d="M103.65,90.22s-.05-.01-.05-.06v-.18c0-1.28,0-1.51,.02-1.78,.01-.3,.08-.43,.31-.48,.1-.02,.17-.03,.24-.03,.1,0,.15-.01,.15-.08,0-.05-.06-.07-.17-.07-.33,0-.85,.02-1.05,.02-.23,0-.75-.02-1.21-.02-.11,0-.17,.02-.17,.07,0,.06,.05,.08,.14,.08,.12,0,.26,0,.33,.03,.28,.06,.34,.19,.36,.48,.02,.27,.02,.5,.02,1.78v1.47c0,.77,0,1.43-.04,1.78-.03,.24-.08,.42-.24,.46-.07,.02-.18,.04-.3,.04-.1,0-.13,.03-.13,.07,0,.06,.06,.09,.17,.09,.34,0,.86-.03,1.05-.03,.24,0,.76,.03,1.31,.03,.1,0,.17-.03,.17-.09,0-.04-.04-.07-.13-.07-.13,0-.31-.02-.43-.04-.25-.04-.3-.22-.32-.45-.04-.36-.04-1.02-.04-1.79v-.73s.02-.05,.05-.05h3.19s.05,.02,.05,.05v.73c0,.77,0,1.43-.04,1.78-.03,.24-.08,.42-.24,.46-.08,.02-.18,.04-.3,.04-.1,0-.13,.03-.13,.07,0,.06,.06,.09,.17,.09,.33,0,.85-.03,1.05-.03,.23,0,.76,.03,1.3,.03,.1,0,.17-.03,.17-.09,0-.04-.04-.07-.13-.07-.12,0-.31-.02-.42-.04-.25-.04-.3-.22-.33-.45-.04-.36-.04-1.02-.04-1.79v-1.47c0-1.28,0-1.51,.02-1.78,.02-.3,.08-.43,.31-.48,.1-.02,.18-.03,.24-.03,.1,0,.15-.01,.15-.08,0-.05-.06-.07-.17-.07-.33,0-.86,.02-1.06,.02-.23,0-.75-.02-1.2-.02-.12,0-.17,.02-.17,.07,0,.06,.05,.08,.14,.08,.12,0,.25,0,.33,.03,.28,.06,.34,.19,.36,.48,.02,.27,.02,.5,.02,1.78v.18s-.02,.06-.05,.06h-3.19Z" style="fill:#fc3819; fill-rule:evenodd;"/><path d="M111.52,91.46c0,.81,0,1.47-.04,1.82-.03,.24-.08,.38-.24,.42-.07,.02-.18,.04-.3,.04-.1,0-.14,.03-.14,.07,0,.06,.06,.09,.17,.09,.33,0,.86-.03,1.05-.03,.22,0,.75,.03,1.3,.03,.09,0,.16-.03,.16-.09,0-.04-.04-.07-.14-.07-.12,0-.31-.02-.43-.04-.25-.04-.31-.18-.33-.41-.03-.36-.03-1.02-.03-1.83v-1.47c0-1.28,0-1.51,.01-1.78,.02-.3,.08-.43,.31-.48,.1-.02,.17-.03,.25-.03s.14-.01,.14-.08c0-.05-.07-.07-.18-.07-.31,0-.81,.02-1.02,.02-.24,0-.76-.02-1.09-.02-.13,0-.2,.02-.2,.07,0,.07,.05,.08,.13,.08,.1,0,.21,0,.3,.04,.19,.04,.27,.19,.28,.47,.02,.27,.02,.5,.02,1.78v1.47Z" style="fill:#fc3819; fill-rule:evenodd;"/><path d="M116.89,94c.45,0,.91-.07,1.33-.34,.6-.39,.78-.97,.78-1.46,0-.8-.37-1.36-1.37-2.13l-.23-.18c-.69-.53-.88-.82-.88-1.2,0-.5,.37-.86,.99-.86,.54,0,.79,.25,.91,.41,.17,.22,.22,.47,.22,.55,0,.1,.02,.15,.08,.15,.07,0,.09-.07,.09-.25,0-.66,.04-.9,.04-1.01,0-.06-.04-.09-.12-.1-.22-.06-.57-.14-1.11-.14-1.16,0-1.93,.66-1.93,1.58,0,.68,.32,1.27,1.24,1.99l.38,.3c.7,.54,.82,.93,.82,1.34,0,.44-.37,.96-1.12,.96-.52,0-1.01-.23-1.2-.85-.04-.15-.07-.32-.07-.43,0-.07-.01-.15-.08-.15-.07,0-.09,.09-.1,.22-.01,.14-.04,.64-.04,1.1,0,.19,.03,.22,.16,.28,.36,.16,.74,.22,1.22,.22Z" style="fill:#fc3819; fill-rule:evenodd;"/><path d="M122.85,89.98c0-1.28,0-1.51,.02-1.78,.01-.3,.08-.43,.31-.48,.1-.02,.15-.03,.24-.03,.07,0,.11-.01,.11-.08,0-.05-.06-.07-.18-.07-.28,0-.81,.02-1.01,.02s-.73-.02-1.17-.02c-.13,0-.18,.02-.18,.07,0,.06,.05,.08,.14,.08,.12,0,.26,0,.33,.03,.27,.06,.34,.19,.36,.48,.02,.27,.02,.5,.02,1.78v1.47c0,.77,0,1.43-.04,1.78-.03,.24-.07,.42-.24,.46-.07,.02-.18,.04-.3,.04-.1,0-.13,.03-.13,.07,0,.06,.06,.09,.17,.09,.33,0,.86-.03,1.05-.03,.21,0,.74,.03,1.21,.03,.09,0,.16-.03,.16-.09,0-.04-.04-.07-.11-.07-.1,0-.29-.02-.41-.04-.21-.04-.28-.22-.3-.45-.02-.36-.02-1.02-.02-1.79v-.76h.04l.09,.13c.17,.24,1.82,2.18,2.19,2.5,.36,.32,.59,.5,1.04,.54,.17,.02,.33,.02,.57,.02h.73c.16,0,.2-.03,.2-.09,0-.05-.05-.07-.11-.07-.1,0-.26-.03-.52-.13-.45-.18-.83-.55-1.2-.91-.33-.31-1.96-2.08-2.26-2.47,.28-.3,1.55-1.55,1.8-1.81,.36-.35,.64-.53,.9-.63,.16-.06,.37-.09,.49-.09,.08,0,.13-.01,.13-.08,0-.05-.06-.07-.14-.07-.26,0-.72,.02-.98,.02-.22,0-.69-.02-.86-.02-.09,0-.13,.02-.13,.07s.03,.07,.11,.09c.08,.02,.11,.08,.11,.17,0,.14-.18,.35-.42,.63-.24,.29-1.46,1.53-1.75,1.85h-.04v-.37Z" style="fill:#fc3819; fill-rule:evenodd;"/><path d="M130.35,92.4c0,.14,0,.49-.02,.84-.02,.24-.09,.42-.26,.46-.08,.02-.18,.04-.29,.04-.09,0-.13,.03-.13,.07,0,.07,.07,.09,.18,.09,.31,0,.84-.03,1.05-.03,.22,0,.75,.03,1.28,.03,.11,0,.17-.03,.17-.09,0-.04-.04-.07-.13-.07-.12,0-.3-.02-.42-.04-.25-.04-.32-.22-.34-.46-.02-.35-.02-.7-.02-.84v-.69c0-.28,0-.54,.12-.84,.15-.36,1.32-2.33,1.6-2.66,.18-.23,.27-.33,.44-.41,.13-.07,.29-.1,.37-.1s.16-.02,.16-.08c0-.05-.06-.07-.15-.07-.16,0-.71,.02-.89,.02-.24,0-.51-.02-.79-.02-.1,0-.14,.02-.14,.07s.07,.07,.15,.09c.14,.03,.17,.13,.17,.21,0,.1-.03,.25-.12,.43-.12,.26-1.17,2.1-1.26,2.3-.13-.24-1.31-2.25-1.42-2.5-.06-.12-.1-.22-.1-.29,0-.06,.04-.13,.12-.15,.13-.03,.18-.04,.18-.1,0-.05-.04-.07-.12-.07-.38,0-.72,.02-.9,.02-.28,0-.9-.02-1.05-.02-.1,0-.16,.02-.16,.07,0,.06,.06,.08,.13,.08,.1,0,.24,.06,.35,.11,.16,.09,.37,.3,.58,.61,.29,.43,1.41,2.28,1.47,2.41,.11,.24,.19,.43,.19,.88v.69Z" style="fill:#fc3819; fill-rule:evenodd;"/></svg>