<?xml version="1.0" encoding="UTF-8"?><svg id="Layer_1" xmlns="http://www.w3.org/2000/svg" viewBox="0 0 180 112"><polygon points="0 47.08 77.99 67.77 174.73 47.09 174.75 47.08 0 47.08" style="fill:#fc3819;"/><polygon points="174.78 47.04 174.75 47.08 174.77 47.08 174.78 47.04" style="fill:#fc3819;"/><polygon points="174.73 47.09 174.69 47.14 96.43 72.69 128.2 81.13 174.56 47.28 141.21 84.54 165.48 91 174.76 47.14 174.81 47.1 174.76 47.12 174.77 47.08 174.73 47.09" style="fill:#fc3819;"/><polygon points="174.81 47.08 174.77 47.08 174.77 47.08 174.81 47.08" style="fill:#fc3819;"/><polygon points="171.81 23 166.71 23 165.9 26.71 171 26.71 171.81 23" style="fill:#fc3819;"/><polygon points="170.52 29.09 165.42 29.09 162.3 43.73 167.4 43.73 170.52 29.09" style="fill:#fc3819;"/><path d="M132.06,43.76l1.71-8.2h.57c2.46,0,3.3,.18,3.81,2.89l1.05,5.29h5.17l-1.45-5.8c-.3-1.33-.81-3.52-2.43-3.68v-.06c3.15-.38,5.67-2.38,5.7-5.91,.03-5.13-4.68-5.25-8.61-5.28h-6.27l-4.44,20.76h5.18Zm3.51-16.87h2.91c1.68,.04,2.55,.67,2.55,2.14-.03,1.99-1.88,2.57-4.28,2.57h-2.16l.99-4.71Z" style="fill:#fc3819;"/><polygon points="114.43 43.73 115.99 36.48 116.05 36.48 118.98 43.73 124.6 43.73 120.85 36.15 126.88 29.12 121.15 29.12 116.32 35.25 116.26 35.25 118.93 23 113.83 23 109.3 43.73 114.43 43.73" style="fill:#fc3819;"/><path d="M153.99,34.46c-4.44,0-8,1.75-8.04,5.34-.03,2.86,1.71,4.25,4.83,4.25,1.98,0,3.85-.7,4.92-2.39v-.05l.06,.05-.25,2.09h4.11c.6-4.41,1.89-7.69,1.89-9.99,.03-3.62-2.79-4.98-6.27-4.98-1.82-.02-3.62,.27-5.34,.84l-.51,3.69c1.67-.88,2.87-1.18,4.7-1.18,1.66,0,2.67,.85,2.67,1.9,0,.18,0,.37-.06,.58-.72-.06-1.71-.16-2.73-.16Zm-1.59,6.22c-1.02,0-1.67-.79-1.67-1.51,0-1.27,1.76-2.15,4.17-2.06,.27,0,.9,0,1.32,.09-.35,1.99-1.67,3.48-3.81,3.48Z" style="fill:#fc3819;"/><path d="M42.02,36.81c-.33,1.55-.45,2.27-.45,2.99,0,3.11,2.57,4.34,5.16,4.34,1.02,0,2.04-.12,3.12-.3l.57-3.44c-.51,.15-1.11,.39-1.62,.39-1.03,0-2.22-.55-2.22-1.54,0-.69,.17-1.42,.42-2.54l.9-4.07h4.26l.63-3.56h-4.05l1.05-4.56h-5l-1.06,4.56h-2.27l-.6,3.62h2.06l-.9,4.1Z" style="fill:#fc3819;"/><polygon points="9.99 29.39 10.04 29.39 14.27 43.73 20.57 43.73 25.01 23 20.09 23 17.13 37.36 17.06 37.36 12.92 23 6.62 23 2.13 43.73 7.05 43.73 9.99 29.39" style="fill:#fc3819;"/><path d="M31.61,44.06c1.73-.05,3.44-.32,5.09-.81l.66-3.59c-1.41,.67-3.24,1.03-4.56,1.03-3.09,0-3.84-1.24-3.9-2.81h10.29c.21-.88,.39-2.2,.39-2.78,0-4.4-2.88-6.37-6.68-6.37-6.48,0-8.73,5.22-8.76,8.63,0,3.7,2.6,6.7,7.47,6.7Zm1.35-11.92c1.86,0,2.46,1.33,2.46,2.9h-6.18c.36-1.42,1.56-2.9,3.72-2.9Z" style="fill:#fc3819;"/><polygon points="174.9 23 170.49 43.73 175.59 43.73 180 23 174.9 23" style="fill:#fc3819;"/><path d="M86.68,44.06c5.43,0,9.39-2.65,9.42-8.78,0-3.68-2.58-6.55-7.53-6.55-5.7,0-9.39,3.48-9.42,8.63,0,3.7,2.16,6.7,7.53,6.7Zm1.62-11.76c1.96,0,2.61,1.42,2.61,2.95,0,3.28-1.5,5.28-3.84,5.28-1.71,.03-2.73-1.26-2.73-3.26,0-2.32,1.53-4.98,3.96-4.98Z" style="fill:#fc3819;"/><polygon points="61.28 43.73 66.32 33.14 66.37 33.14 66.53 43.73 72.37 43.73 80.11 29.09 75.01 29.09 70.3 39.68 70.25 39.68 70.18 29.09 64.1 29.09 59.27 39.68 59.21 39.68 59.11 29.09 54.1 29.09 55.4 43.73 61.28 43.73" style="fill:#fc3819;"/><path d="M103.09,37c.36-2.14,1.66-4.01,3.76-4.01,.96,0,1.67,.12,2.31,.59l1.16-4.46c-.65-.3-1.44-.39-2.1-.39-2.04,0-3.68,1.64-4.49,3.36h-.06l.57-2.99-4.68,.06c-.15,1.29-.35,2.56-.63,3.8l-2.31,10.8h5.04l1.44-6.76Z" style="fill:#fc3819;"/></svg>