<?xml version="1.0" encoding="UTF-8"?><svg id="Layer_1" xmlns="http://www.w3.org/2000/svg" viewBox="0 0 190 112"><path d="M104.21,47.69c0-.07,0-.12,0-.13h-5.42v-7.56l-4.99,1.77v5.79h-3.2v1c0,.19,0,.39,0,.58v.57c0,.09,0,.18,0,.28v.98c0,.07,0,.14,0,.2v.33c0,.14,0,.23,0,.28v.31h3.2v12.83c0,5.63,4.22,6.07,5.51,6.07,1.88,0,3.14-.14,4.66-.53l.24-.06v-4.52l-.41,.13c-.38,.12-1.18,.33-2.23,.33-1.81,0-2.79-.4-2.79-2.51v-11.74h5.42v-.38c0-.06,0-.13,0-.2v-2.81c0-.09,0-.18,0-.26v-.74Z" style="fill:#fc3819; fill-rule:evenodd;"/><path d="M80.35,47.08c-2.54,0-4.99,.44-6.74,1.2l-.19,.08v4.65l.44-.22c1.18-.58,3.97-1.12,5.75-1.12,4.38,0,4.58,1.7,4.59,3.91h-4.68c-6.21,0-9.04,3.95-9.04,7.62,0,5.1,4.01,7.77,7.97,7.77,2.69,0,4.4-1.04,5.78-2.28v.29c0,.05,0,.11,0,.17v.38c0,.07,0,.13,0,.2v.37c0,.06,0,.11,0,.15v.23s4.95,0,4.95,0v-15.51c0-7.14-6.17-7.9-8.83-7.9Zm3.86,16.71c-.57,.71-2.37,2.61-5.16,2.61-2.14,0-3.52-1.25-3.52-3.19s1.56-3.13,4.28-3.13h4.41v3.72Z" style="fill:#fc3819; fill-rule:evenodd;"/><polygon points="62.98 61.44 50.07 40.2 45.2 40.2 45.2 70.49 50.08 70.49 50.09 49.37 63.09 70.49 67.85 70.49 67.85 40.2 62.98 40.2 62.98 61.44" style="fill:#fc3819; fill-rule:evenodd;"/><path d="M187.37,66.33c-1.81,0-2.79-.4-2.79-2.51v-11.74h5.42v-4.08c0-.06,0-.12,0-.17v-.22s0-.04,0-.04h-5.41v-7.56l-4.99,1.77v5.79h-3.2v1.58c0,.19,0,.38,0,.57v.79c0,.16,0,.32,0,.46v.53c0,.14,0,.23,0,.28v.31h3.2v12.83c0,5.63,4.22,6.07,5.51,6.07,1.88,0,3.14-.14,4.66-.53l.24-.06v-4.52l-.4,.13c-.38,.12-1.18,.33-2.22,.33Z" style="fill:#fc3819; fill-rule:evenodd;"/><path d="M132.81,40.2c-.05,.29-.77,4.23-1.56,8.58l-.19,1.05c-.93,5.1-1.89,10.4-1.97,10.86v.03s0,0,0,0c-.05-.24-4.63-18.61-5.1-20.52h-4.86l-5.05,20.54-4.05-20.54h-5.21l6.25,30.29h5l5.37-21.1,5.29,21.1h5.08l5.99-30.29h-4.98Z" style="fill:#fc3819; fill-rule:evenodd;"/><path d="M170.62,57.34l-.65-.28c-.58-.26-1.27-.56-2.17-.96l-.25-.11c-1.22-.55-2.74-1.22-2.74-2.53,0-1.72,2.41-1.85,3.15-1.85,1.98,0,3.77,.46,5.82,1.49l.45,.23v-4.83l-.17-.09c-1.02-.51-3.63-1.23-6.27-1.23-6.4,0-8.09,4.23-8.09,6.47,0,4.18,3.07,5.6,4.38,6.2,1.38,.64,2.21,1.01,3.17,1.43l.77,.34c1.97,.88,2.77,1.29,2.77,2.64,0,1.44-1.3,2.27-3.57,2.27-2.47,0-5.08-.95-6.7-1.83l-.46-.25v4.92l.18,.09c1.95,.97,4.68,1.56,7.12,1.56,5.62,0,8.56-3.47,8.56-6.9,0-3.23-1.44-5.07-5.3-6.77Z" style="fill:#fc3819; fill-rule:evenodd;"/><path d="M148.01,47.15c-3.8,0-10.24,2.52-10.24,11.97,0,11.28,8.82,11.85,10.59,11.85,3.75,0,5.43-.8,7.06-1.57l.18-.08v-4.81l-.47,.29c-1.19,.74-3.51,1.61-6.11,1.61-5.24,0-5.97-3.81-6.05-5.42h14.43l.04-.27c.45-3.15,0-7.58-2.56-10.58-1.7-1.99-4.01-3-6.87-3Zm-5.03,9.5c.13-2.17,1.64-4.99,4.8-4.99,3.46,0,4.51,3.1,4.62,4.99h-9.42Z" style="fill:#fc3819; fill-rule:evenodd;"/><path d="M7.48,49.04H15.87c.74,0,1.4,.41,1.74,1.01l4.21,7.36c.05,.08,.13,.14,.24,.14s.19-.05,.24-.13l4.49-7.88c.18-.34,.19-.74,0-1.09l-4.35-7.64c-.21-.36-.59-.6-1.05-.6H12.67c-.4,0-.76,.21-.94,.55l-4.49,7.88c-.04,.08-.04,.19,0,.27,.05,.08,.15,.15,.23,.15Z" style="fill:#fc3819; fill-rule:evenodd;"/><path d="M10.46,60.66l4.17-7.39c.04-.08,.05-.19,0-.28-.05-.09-.14-.15-.23-.15H5.43c-.37,0-.73,.2-.93,.54L.16,61.03c-.21,.36-.22,.83,0,1.22l4.36,7.67c.2,.35,.56,.57,.92,.57H14.41c.09,0,.19-.06,.24-.15,.05-.08,.05-.18,.01-.27l-4.19-7.39c-.37-.65-.35-1.43-.01-2.03Z" style="fill:#fc3819; fill-rule:evenodd;"/><path d="M29.54,53.22c-.05-.08-.14-.14-.24-.14s-.2,.05-.24,.13l-4.2,7.38c-.37,.65-1.04,1.05-1.73,1.05H14.74c-.09,0-.18,.05-.24,.14-.05,.09-.05,.19-.01,.28l4.48,7.89c.2,.32,.54,.54,.93,.54h8.69c.41,0,.81-.22,1.04-.62l4.36-7.67c.2-.35,.2-.78,.01-1.09l-4.48-7.88Z" style="fill:#fc3819; fill-rule:evenodd;"/></svg>