<?xml version="1.0" encoding="UTF-8"?><svg id="Layer_1" xmlns="http://www.w3.org/2000/svg" viewBox="0 0 182 112"><path d="M143.3,42.65h7.14c.43,0,.65-.22,.65-.65v-.39c0-.43-.22-.65-.65-.65h-5.85v-4.45h4.37c.41,0,.65-.21,.65-.65v-.4c0-.43-.24-.64-.65-.64h-4.37v-4.33h5.52c.43,0,.65-.23,.65-.65v-.39c0-.43-.22-.65-.65-.65h-6.8c-.43,0-.65,.21-.65,.65v12.55c0,.43,.22,.65,.65,.65Z" style="fill:#fc3819;"/><path d="M101.73,42.65h.67c.36,0,.61-.18,.71-.53l1.23-3.45h5.26l1.24,3.45c.12,.35,.36,.53,.73,.53h.67c.47,0,.69-.29,.53-.75l-4.58-12.57c-.12-.37-.38-.53-.73-.53h-.95c-.38,0-.61,.15-.73,.53l-4.58,12.57c-.16,.45,.04,.75,.53,.75Zm4.69-9.98c.24-.7,.55-1.96,.55-1.96h.04s.3,1.25,.53,1.96l1.54,4.39h-4.23l1.56-4.39Z" style="fill:#fc3819;"/><path d="M115.31,42.65h.63c.43,0,.65-.22,.65-.65v-8.33c0-.78-.12-2.02-.12-2.02h.04s.65,1.26,1.15,2.02l5.97,8.55c.18,.31,.41,.43,.77,.43h.75c.43,0,.65-.22,.65-.65v-12.55c0-.43-.22-.65-.65-.65h-.63c-.41,0-.65,.21-.65,.65v8.35c0,.76,.12,2,.12,2h-.04s-.65-1.25-1.15-2l-5.95-8.57c-.2-.31-.42-.43-.79-.43h-.75c-.43,0-.65,.21-.65,.65v12.55c0,.43,.22,.65,.65,.65Z" style="fill:#fc3819;"/><path d="M135.29,42.88c2.55,0,4.25-1.17,4.96-1.76,.32-.28,.33-.59,.1-.9l-.3-.39c-.26-.33-.57-.33-.91-.08-.62,.47-1.96,1.35-3.79,1.35-3.22,0-5.18-2.53-5.18-5.47s1.92-5.28,5.16-5.28c1.68,0,2.91,.7,3.5,1.1,.37,.23,.67,.19,.91-.16l.26-.39c.22-.35,.2-.67-.12-.9-.69-.51-2.24-1.43-4.63-1.43-4.17,0-7.09,3.06-7.09,7.08s2.83,7.24,7.13,7.24Z" style="fill:#fc3819;"/><path d="M138.82,48.45c-.12-.37-.38-.53-.73-.53h-.95c-.38,0-.61,.16-.73,.53l-4.58,12.57c-.16,.45,.04,.75,.53,.75h.67c.36,0,.61-.18,.71-.53l1.23-3.45h5.26l1.24,3.45c.12,.35,.36,.53,.73,.53h.67c.47,0,.69-.29,.54-.75l-4.59-12.57Zm-3.34,7.72l1.56-4.39c.23-.7,.55-1.96,.55-1.96h.04s.29,1.26,.53,1.96l1.54,4.39h-4.23Z" style="fill:#fc3819;"/><path d="M112.78,51.43c0-1.2,1.07-1.94,2.51-1.94,1.19,0,2.04,.49,2.57,.8,.34,.2,.65,.23,.89-.18l.28-.49c.18-.35,.14-.65-.2-.88-.53-.41-1.84-1.06-3.5-1.06-2.55,0-4.53,1.51-4.53,3.84,0,4.32,6.72,3.63,6.72,6.69,0,1.19-.97,1.98-2.45,1.98s-2.55-.77-3.04-1.12c-.38-.24-.65-.2-.89,.12l-.33,.47c-.3,.39-.18,.67,.08,.9,.63,.51,2.17,1.43,4.19,1.43,2.79,0,4.43-1.76,4.43-3.94,0-4.45-6.72-3.65-6.72-6.63Z" style="fill:#fc3819;"/><path d="M109.02,61.11v-.39c0-.43-.22-.64-.65-.64h-5.85v-4.45h4.37c.41,0,.65-.22,.65-.65v-.39c0-.43-.24-.65-.65-.65h-4.37v-4.33h5.52c.43,0,.65-.23,.65-.65v-.39c0-.43-.22-.65-.65-.65h-6.8c-.44,0-.65,.22-.65,.65v12.55c0,.43,.22,.65,.65,.65h7.13c.43,0,.65-.22,.65-.65Z" style="fill:#fc3819;"/><path d="M129.79,60.08h-5.85v-4.45h4.37c.41,0,.65-.22,.65-.65v-.39c0-.43-.24-.65-.65-.65h-4.37v-4.33h5.52c.43,0,.65-.23,.65-.65v-.39c0-.43-.22-.65-.65-.65h-6.8c-.43,0-.65,.22-.65,.65v12.55c0,.43,.22,.65,.65,.65h7.14c.43,0,.65-.22,.65-.65v-.39c0-.43-.22-.64-.65-.64Z" style="fill:#fc3819;"/><path d="M152.42,56.39c-.24-.43-.41-.63-.41-.63v-.04c1.54-.51,2.49-2.04,2.49-3.8s-.87-3.04-2.2-3.63c-.57-.25-1.24-.37-2.61-.37h-3.75c-.43,0-.65,.22-.65,.65v12.55c0,.43,.22,.65,.65,.65h.64c.43,0,.65-.22,.65-.65v-4.86h2.99l2.73,5.06c.16,.31,.4,.45,.77,.45h.79c.49,0,.69-.31,.43-.77l-2.51-4.61Zm-2.39-1.83h-2.81v-4.96h2.34c.89,0,1.3,.08,1.66,.24,.87,.37,1.3,1.16,1.3,2.16,0,1.55-.97,2.57-2.49,2.57Z" style="fill:#fc3819;"/><path d="M98.63,66.82h-.39c-.32,0-.49,.18-.49,.49v8.43c0,2.41-1.56,3.83-3.95,3.83s-3.93-1.41-3.93-3.79v-8.47c0-.32-.18-.49-.49-.49h-.4c-.32,0-.49,.18-.49,.49v8.49c0,3.06,2.17,5.04,5.33,5.04s5.3-1.98,5.3-5.04v-8.49c0-.32-.16-.49-.48-.49Z" style="fill:#fc3819;"/><path d="M97.72,51.92c0-1.76-.87-3.04-2.19-3.63-.57-.25-1.25-.37-2.61-.37h-3.75c-.44,0-.65,.22-.65,.65v12.55c0,.43,.22,.65,.65,.65h.63c.43,0,.65-.22,.65-.65v-4.86h2.99l2.73,5.06c.16,.31,.39,.45,.77,.45h.79c.49,0,.69-.31,.44-.77l-2.51-4.61c-.24-.43-.41-.63-.41-.63v-.04c1.54-.51,2.49-2.04,2.49-3.8Zm-4.47,2.64h-2.81v-4.96h2.33c.89,0,1.3,.08,1.66,.24,.87,.37,1.3,1.16,1.3,2.16,0,1.55-.97,2.57-2.49,2.57Z" style="fill:#fc3819;"/><path d="M99.54,39.82c-.26-.33-.57-.33-.91-.08-.62,.47-1.96,1.35-3.79,1.35-3.22,0-5.18-2.53-5.18-5.47s1.92-5.28,5.16-5.28c1.68,0,2.9,.7,3.5,1.1,.38,.23,.67,.19,.91-.16l.26-.39c.21-.35,.19-.67-.12-.9-.69-.51-2.24-1.43-4.63-1.43-4.17,0-7.09,3.06-7.09,7.08s2.82,7.24,7.13,7.24c2.55,0,4.25-1.17,4.96-1.76,.32-.28,.33-.59,.1-.9l-.3-.39Z" style="fill:#fc3819;"/><path d="M107.33,73.37v-.04l3.8-5.92c.2-.33,.06-.59-.33-.59h-.5c-.26,0-.44,.1-.57,.34l-3.54,5.65h-2.35v-5.49c0-.32-.18-.49-.47-.49h-.42c-.32,0-.47,.18-.47,.49v12.8c0,.31,.16,.49,.47,.49h.42c.3,0,.47-.18,.47-.49v-6.1h2.35l3.77,6.25c.14,.24,.32,.34,.57,.34h.55c.38,0,.53-.26,.32-.57l-4.07-6.66Z" style="fill:#fc3819;"/><path d="M168.28,58.94c-.26-.34-.57-.34-.91-.08-.61,.47-1.96,1.35-3.8,1.35-3.22,0-5.18-2.53-5.18-5.47s1.92-5.28,5.16-5.28c1.68,0,2.91,.71,3.5,1.1,.38,.24,.67,.2,.91-.16l.26-.39c.22-.35,.2-.67-.12-.9-.69-.51-2.23-1.43-4.62-1.43-4.17,0-7.09,3.06-7.09,7.08s2.83,7.23,7.13,7.23c2.55,0,4.25-1.17,4.96-1.76,.32-.28,.34-.59,.1-.9l-.3-.39Z" style="fill:#fc3819;"/><path d="M160.79,42.2c.16,.31,.4,.45,.77,.45h.79c.49,0,.69-.32,.43-.76l-2.51-4.61c-.24-.43-.42-.63-.42-.63v-.04c1.54-.51,2.49-2.04,2.49-3.8s-.87-3.04-2.2-3.63c-.57-.25-1.24-.37-2.61-.37h-3.76c-.43,0-.65,.21-.65,.65v12.55c0,.43,.22,.65,.65,.65h.64c.43,0,.65-.22,.65-.65v-4.86h2.99l2.73,5.06Zm-5.71-6.75v-4.96h2.33c.89,0,1.31,.08,1.66,.24,.87,.37,1.3,1.16,1.3,2.16,0,1.55-.97,2.57-2.49,2.57h-2.81Z" style="fill:#fc3819;"/><path d="M181.37,47.92h-.65c-.42,0-.65,.22-.65,.65v5.45h-7.25v-5.45c0-.43-.22-.65-.65-.65h-.63c-.43,0-.65,.22-.65,.65v12.55c0,.43,.22,.65,.65,.65h.63c.43,0,.65-.22,.65-.65v-5.43h7.25v5.43c0,.43,.24,.65,.65,.65h.65c.42,0,.63-.22,.63-.65v-12.55c0-.43-.22-.65-.63-.65Z" style="fill:#fc3819;"/><path d="M41.78,25.89c1.57,0,2.84-1.26,2.84-2.81s-1.27-2.82-2.84-2.82-2.84,1.26-2.84,2.82,1.27,2.81,2.84,2.81Z" style="fill:#fc3819;"/><path d="M18.44,32.72c0,.9,.74,1.64,1.65,1.64s1.65-.74,1.65-1.64-.74-1.64-1.65-1.64-1.65,.73-1.65,1.64Z" style="fill:#fc3819;"/><path d="M37.81,35.58c.15-.03,.31-.05,.47-.05,.32,0,.62,.06,.89,.18,.43-.14,.78-.45,.98-.85,0,0,0,0,0,0,.05,.02,.1,.04,.16,.06,0,0,0,0,0,0,.31,.11,.64,.17,.99,.17,.95,0,1.8-.45,2.33-1.15h0s0,0,0,0c0,0,0,0,0,0,.2-.26,.35-.55,.45-.86-.06-.08-.11-.16-.15-.24,.04,.08,.1,.17,.15,.24,.09-.28,.14-.58,.14-.89,0-.28-.04-.55-.12-.81,.08,.26,.12,.53,.12,.81,0,.31-.05,.61-.14,.89,.34,.46,.88,.75,1.5,.75,.27,0,.53-.06,.76-.16,.14-.6,.45-1.13,.86-1.56-.42,.43-.73,.96-.86,1.56,.65-.29,1.1-.93,1.1-1.68,0-.04,0-.07,0-.11,0,0,0,0,0,0-.06-.97-.86-1.74-1.85-1.74-.68,0-1.27,.36-1.6,.9,0,0,0,0,0,0h0c-.12-.28-.29-.54-.49-.77,.46-.32,.77-.85,.77-1.45,0-.97-.79-1.76-1.77-1.76s-1.77,.78-1.77,1.76c0,.18,.03,.35,.08,.52,0,0,0,0,0,0,.11,.36,.34,.67,.63,.89-.3-.22-.52-.53-.63-.89-1.37,.24-2.41,1.42-2.41,2.86,0,.1,0,.19,.01,.29h0s0,0,0,0c-.81,.12-1.43,.81-1.43,1.65,0,.62,.34,1.17,.86,1.45Zm2.34-.72c.05-.09,.08-.19,.11-.29-.03,.1-.06,.2-.11,.29h0Zm3.61-3.23c.03-.15,.07-.29,.14-.42-.06,.13-.11,.27-.14,.42Zm-.55-1.63c-.33-.29-.73-.5-1.17-.61,.44,.11,.84,.33,1.17,.61Zm-.68,3.71c.2,0,.4,.02,.59,.07-.19-.04-.39-.07-.59-.07-.75,0-1.42,.31-1.9,.81,.48-.5,1.15-.81,1.9-.81Zm-2.26,.8c.03-.12,.04-.25,.04-.38,0-.12-.01-.23-.03-.34,.02,.11,.03,.22,.03,.34,0,.13-.02,.26-.04,.38Zm-1.64-2.05c.63,0,1.17,.35,1.46,.85-.29-.51-.83-.85-1.46-.85-.05,0-.1,0-.14,.01,.05,0,.1-.01,.15-.01Zm1.56,1.06s0-.03-.01-.04c0,.01,0,.03,.01,.04Zm-.45,1.14c-.37-.23-.67-.53-.91-.89,.23,.36,.54,.67,.91,.89Z" style="fill:#fc3819;"/><path d="M55.6,36.11c.05,0,.11,0,.16,0,.98,0,1.77-.79,1.77-1.76s-.79-1.76-1.77-1.76-1.77,.79-1.77,1.76c0,.14,.02,.28,.05,.42,0,0,0,0,0,0,.17,.67,.72,1.19,1.42,1.31-.69-.12-1.25-.64-1.42-1.31-.06,0-.12,0-.19,0-.34,0-.65,.09-.92,.25,.03-.19,.05-.4,.05-.6,0-1.85-1.51-3.34-3.37-3.34-.83,0-1.6,.3-2.19,.8,0,.04,0,.07,0,.11,0,.75-.45,1.39-1.1,1.68-.06,.24-.09,.49-.09,.75,0,.16,.01,.33,.04,.48,0,0,0,0,0,0,.04,.27,.11,.53,.22,.78-.1-.25-.18-.51-.22-.78-.51,.23-.87,.75-.87,1.34,0,.81,.67,1.47,1.48,1.47,.4,0,.76-.16,1.03-.41-.07-.04-.14-.09-.2-.13,.07,.05,.13,.09,.2,.13,0,0,0,0,0,0,.5,.29,1.07,.45,1.69,.45,.97,0,1.84-.4,2.45-1.05,0-.02,0-.05,0-.07,0,.02,0,.05,0,.07,0,0,0,0,0,0,.08,.91,.85,1.62,1.79,1.62,.09,0,.19,0,.28-.02,0,0,0,0,0,0,0,0,0,0,0,0-.02,.07-.02,.14-.02,.21,0,.55,.45,.99,1,.99s1-.44,1-.99c0-.47-.33-.86-.78-.97,0,0,0,0,0,0,0,0,0,0,0,0,.2-.29,.32-.63,.32-1.01,0-.15-.02-.29-.05-.43,0,0,0,0,0,0h0Zm-8.7-1.34c.72,0,1.31,.51,1.45,1.18-.14-.67-.74-1.18-1.45-1.18-.15,0-.28,.03-.42,.07,.13-.04,.27-.07,.42-.07Zm5.63,.58c-.09,.09-.16,.19-.23,.3,.06-.11,.14-.21,.23-.3Zm-.23,1.08c.29-.38,.51-.83,.61-1.32-.1,.49-.32,.94-.61,1.32Zm2.14,1.79c.26-.09,.5-.24,.69-.43-.19,.19-.43,.34-.69,.43Zm.67-.7c-.36,0-.67,.19-.85,.47,.18-.28,.49-.47,.85-.47,.03,0,.05,0,.07,0-.02,0-.05,0-.07,0Z" style="fill:#fc3819;"/><path d="M58.86,26.33c0,.15-.01,.31-.03,.46,.78-.11,1.37-.77,1.37-1.57,0-.88-.72-1.58-1.6-1.58-.33,0-.64,.1-.9,.28,.7,.57,1.16,1.44,1.16,2.42Z" style="fill:#fc3819;"/><path d="M46.17,29.43c0,.76,.62,1.37,1.38,1.37s1.38-.61,1.38-1.37c0-.67-.49-1.23-1.14-1.35-.12,.06-.25,.11-.38,.14,.13-.03,.26-.08,.38-.14-.08-.01-.16-.02-.25-.02-.27,0-.52,.08-.73,.21h0c.21-.13,.46-.21,.73-.21,.08,0,.17,0,.25,.02,.6-.3,1.02-.91,1.03-1.61-.17,.03-.35,.04-.53,.04-1.1,0-2.08-.54-2.67-1.37-.32,.33-.52,.78-.52,1.28,0,.97,.75,1.77,1.71,1.85-.39,.24-.64,.67-.64,1.16Zm.8-1.16c.15,0,.29-.02,.43-.05-.14,.03-.28,.05-.43,.05-.02,0-.04,0-.06,0,.02,0,.04,0,.06,0Z" style="fill:#fc3819;"/><path d="M7.18,27.77c.55,0,1-.45,1-.99s-.45-.99-1-.99-1,.45-1,.99,.45,.99,1,.99Z" style="fill:#fc3819;"/><path d="M24.69,23.62c.55,0,1-.44,1-.99s-.45-.99-1-.99-1,.45-1,.99,.45,.99,1,.99Z" style="fill:#fc3819;"/><path d="M37.52,81.29c0,.97,.79,1.76,1.77,1.76s1.77-.78,1.77-1.76c0-.78-.51-1.44-1.22-1.67,0,0,0,0,0,0-.17-.06-.36-.09-.55-.09-.68,0-1.27,.38-1.57,.94h0c-.13,.25-.2,.52-.2,.82Z" style="fill:#fc3819;"/><path d="M20.86,39.58c0-.97-.79-1.76-1.77-1.76s-1.77,.79-1.77,1.76,.79,1.75,1.77,1.75,1.77-.79,1.77-1.75Z" style="fill:#fc3819;"/><path d="M9.57,35.98c.94,0,1.71-.76,1.71-1.7s-.77-1.7-1.71-1.7-1.71,.76-1.71,1.7,.76,1.7,1.71,1.7Z" style="fill:#fc3819;"/><path d="M25.88,31.9c.19,0,.37-.02,.54-.06-.64,.53-1.04,1.33-1.04,2.22,0,1.6,1.31,2.9,2.92,2.9s2.93-1.3,2.93-2.9-1.31-2.9-2.93-2.9c-.23,0-.46,.03-.68,.08,.54-.48,.88-1.17,.88-1.95,0-.83-.39-1.57-1-2.05-.11-.05-.2-.12-.29-.19,.1,.06,.2,.12,.29,.19,.18,.08,.39,.13,.6,.13,.8,0,1.44-.64,1.44-1.43s-.65-1.43-1.44-1.43-1.44,.64-1.44,1.43c0,.42,.18,.8,.48,1.06,0,0,0,0,0,0-.38-.2-.81-.32-1.27-.32-1.45,0-2.63,1.17-2.63,2.61s1.17,2.61,2.63,2.61Zm1.75-.66s0,0,0,0c-.33,.29-.75,.51-1.2,.6h0c.45-.09,.87-.31,1.2-.6Z" style="fill:#fc3819;"/><path d="M17.06,32.28c1.28,0,2.32-1.03,2.32-2.29s-1.04-2.3-2.32-2.3-2.31,1.02-2.31,2.3,1.03,2.29,2.31,2.29Z" style="fill:#fc3819;"/><path d="M10.03,41.45c0,1.08,.88,1.96,1.97,1.96s1.97-.88,1.97-1.96-.88-1.95-1.97-1.95-1.97,.87-1.97,1.95Z" style="fill:#fc3819;"/><path d="M24.94,54.55h0c-.98,0-1.77,.78-1.78,1.75,0,.98,.79,1.76,1.77,1.77h.02c.81,0,1.5-.56,1.7-1.3,0-.03,0-.05,0-.08,0-.13,.02-.26,.06-.39,0-.96-.79-1.74-1.76-1.75Z" style="fill:#fc3819;"/><path d="M35.94,34.98s0,0,0,0c-.16-.07-.32-.12-.5-.15,.18,.03,.34,.08,.5,.15,.32-.32,.52-.76,.52-1.24,0-.82-.57-1.51-1.33-1.71,0,0,0,0,0,0-.14-.03-.28-.05-.43-.05-.49,0-.93,.19-1.25,.5,.08,0,.15,.01,.23,.01,.27,0,.53-.04,.77-.12-.24,.08-.5,.12-.77,.12-.08,0-.16,0-.23-.01-.33,.32-.53,.76-.53,1.25,0,.66,.36,1.23,.9,1.53,0,0,0,0,0,0,.16,.09,.34,.14,.52,.18-.18-.04-.36-.09-.52-.18-.4,.35-.65,.86-.65,1.43,0,1,.75,1.81,1.73,1.92-.21,.17-.37,.38-.49,.62,.22,.08,.42,.19,.6,.32-.19-.13-.39-.24-.6-.32,0,0,0,0,0,0-.28-.1-.59-.16-.91-.16h-.01c-1.03,0-1.93,.6-2.35,1.46,0,0,0,0,0,0,.43-.86,1.32-1.46,2.35-1.46,0-.06,.01-.12,.01-.18,0-.97-.78-1.76-1.76-1.77h-.02c-.97,0-1.76,.79-1.77,1.75,0,.76,.49,1.42,1.18,1.67-.1,.21-.18,.43-.22,.67,1.29,.53,2.28,1.64,2.66,2.99-.38-1.36-1.37-2.46-2.66-2.99-.01,.08-.02,.16-.02,.25,0-.08,0-.17,.02-.25-.54-.22-1.13-.35-1.75-.35-2.19,0-4.02,1.52-4.47,3.55,.25,.35,.39,.79,.39,1.25,0,.18-.02,.35-.07,.52,.04-.17,.07-.34,.07-.52,0-.47-.14-.9-.39-1.25,0,0,0,0,0,0-.4-.57-1.06-.95-1.82-.95-1.23,0-2.22,.98-2.22,2.2s.99,2.19,2.22,2.19c.82,0,1.54-.44,1.92-1.1-.14-.43-.21-.89-.21-1.36h0c0,.47,.07,.93,.21,1.36,.03-.06,.06-.12,.09-.19-.03,.06-.06,.13-.09,.19,.58,1.84,2.32,3.18,4.37,3.18,2.53,0,4.58-2.04,4.58-4.54,0-.39-.05-.76-.14-1.12-.03,0-.06,0-.1,0-.41,0-.8-.1-1.14-.27,.35,.17,.73,.27,1.14,.27,.03,0,.06,0,.1,0,0,0,0,0,0,0,1.39-.05,2.5-1.16,2.53-2.55,.9-.06,1.62-.79,1.65-1.69-.34-.08-.65-.23-.92-.44,.27,.21,.58,.36,.92,.44,0,0,0-.02,0-.03v.03c.16,.03,.33,.05,.5,.05,1.19,0,2.17-.9,2.29-2.05-.42-.46-.67-1.07-.67-1.74,0-.01,0-.02,0-.04,0,.01,0,.02,0,.04,0,.67,.25,1.28,.67,1.74,0,0,0,0,0,0,.48,.53,1.18,.87,1.96,.87,1.45,0,2.63-1.17,2.63-2.61,0-1.06-.63-1.96-1.53-2.37-.53,.7-1.38,1.15-2.33,1.15-.35,0-.68-.06-.99-.17-.24,.37-.38,.81-.4,1.27,.42,.41,.68,.99,.68,1.62,0,.06,0,.11,0,.17,0-.06,0-.11,0-.17,0-.63-.26-1.21-.68-1.62,0,0,0,0,0,0-.21-.21-.46-.37-.73-.49-.17,.06-.35,.09-.53,.09h0c.19,0,.36-.03,.53-.09-.27-.11-.57-.18-.89-.18-.16,0-.32,.02-.47,.05,.11,.06,.23,.11,.35,.14-.12-.04-.24-.08-.35-.14-.34,.07-.65,.22-.92,.42,.07,.17,.1,.35,.12,.53-.02-.19-.05-.37-.12-.53h0c-.18-.45-.52-.81-.95-1.02Zm-4.47,5.63s-.06,0-.09-.01c.03,0,.06,0,.09,.01Zm1.13-.21c.11-.06,.22-.13,.31-.22-.09,.08-.2,.15-.31,.22Zm2.48-1.78h.01c.35,0,.68-.09,.96-.25h0s0,0,0,0c.05,.2,.13,.38,.22,.55-.1-.17-.17-.36-.22-.55-.28,.16-.61,.25-.96,.25h0s-.05,0-.08,0c.03,0,.05,0,.07,0Zm-.19-.01s0,0,0,0c.11-.09,.23-.16,.36-.22-.13,.06-.25,.13-.36,.22Zm1.2-.27c.06-.03,.11-.07,.17-.11,0,0,0,0,0,0,0,0,0,0,0,0,.22,.03,.42,.1,.6,.2-.18-.1-.39-.17-.6-.2-.05,.04-.11,.08-.17,.11Zm.32-1.86c-.27,.37-.43,.83-.43,1.32,0,.14,.01,.28,.04,.41,.04,0,.08,0,.12,0-.04,0-.08,0-.12,0,0,0,0,0,0,0h0c-.02-.13-.04-.27-.04-.41,0-.49,.16-.95,.43-1.32Zm-.4,5.25s.08,0,.12,0v-.05c0-.14-.01-.28-.03-.41,.02,.13,.03,.27,.03,.41v.05s-.08,0-.12,0h0Zm.28-2.78s.03,.05,.05,.07c-.02-.02-.03-.05-.05-.07Z" style="fill:#fc3819;"/><path d="M1.33,66.73C.6,66.73,0,67.32,0,68.05c0,.73,.59,1.32,1.32,1.32h.01c.73,0,1.32-.59,1.33-1.31,0-.73-.59-1.32-1.32-1.33Z" style="fill:#fc3819;"/><path d="M17.84,62.38h.02c.97,0,1.76-.78,1.76-1.75,0-.97-.78-1.76-1.76-1.77-.98,0-1.78,.78-1.78,1.75,0,.97,.78,1.76,1.76,1.77Z" style="fill:#fc3819;"/><path d="M20.1,53.75h.03c.97,0,1.75-.78,1.75-1.74,0-.97-.78-1.76-1.76-1.77h-.01c-.97,0-1.76,.78-1.77,1.75,0,.97,.79,1.76,1.77,1.76Z" style="fill:#fc3819;"/><path d="M20.78,38.26c0,1.34,1.08,2.43,2.43,2.44h.02c1.34,0,2.43-1.08,2.43-2.41,0-1.34-1.08-2.43-2.43-2.43h-.02c-1.34,0-2.43,1.08-2.43,2.41Z" style="fill:#fc3819;"/><path d="M26.7,56.32v-.02c-.04,.12-.06,.25-.06,.39,0,.03,0,.05,0,.07,.04-.14,.06-.29,.06-.44Z" style="fill:#fc3819;"/><path d="M27.12,62.88c.74,0,1.42-.31,1.89-.8-1.34-.28-2.33-1.45-2.32-2.86,0-.05,0-.1,.01-.14,0,.05-.01,.1-.01,.15,0,1.4,.99,2.58,2.32,2.86,0,0,0,0,0,0,0,0,0,0,0,0,.19,.04,.38,.06,.58,.06h.02c.06-.5,.32-.92,.7-1.22-.37,.29-.64,.72-.7,1.22,0,0,0,0,0,0,0,.07-.01,.14-.01,.21,0,1.02,.82,1.85,1.85,1.85h.02c1.02,0,1.85-.82,1.86-1.84,0-.77-.48-1.44-1.16-1.72-.08,.15-.18,.28-.29,.41,.11-.13,.21-.27,.29-.41,0,0,0,0,0,0,.23-.41,.37-.89,.37-1.4,0-1.12-.63-2.09-1.56-2.58-.07,.02-.13,.04-.2,.05,.07-.01,.14-.03,.2-.05,0,0,0,0,0,0,.65-.22,1.13-.84,1.13-1.57,0-.54-.25-1.02-.64-1.32-.13,.19-.29,.36-.47,.5,.18-.14,.34-.31,.46-.5-.12-.1-.26-.17-.41-.23,.15,.06,.29,.14,.42,.23,.23-.34,.36-.75,.36-1.19,0-1.22-.98-2.21-2.21-2.21h-.02c-.9,0-1.67,.53-2.02,1.29,0,.04,0,.09,0,.13,0-.04,0-.08,0-.13,0,0,0,0,0,0-.08-1.36-1.21-2.45-2.61-2.46h-.02c-1.45,0-2.62,1.16-2.63,2.59,0,1.44,1.16,2.62,2.62,2.62h.02c1.1,0,2.05-.68,2.44-1.64,0-.07-.01-.15-.01-.23,0-.16,.02-.32,.06-.47-.03,.15-.05,.31-.05,.47,0,.08,0,.15,.01,.23,0,0,0,0,0,0,.08,.84,.64,1.55,1.41,1.84,.04-.15,.11-.29,.2-.42-.08,.13-.15,.27-.2,.42,0,0,0,0,0,0-.04,.14-.06,.29-.06,.45,0,.18,.03,.35,.08,.51-.22-.17-.5-.26-.8-.27-.62,0-1.14,.4-1.31,.96v.02c0,.15-.02,.3-.06,.44,.02,.36,.17,.68,.42,.91-1.01,.02-1.88,.61-2.3,1.45,.04,.1,.07,.21,.09,.32-.02-.11-.05-.22-.09-.32-.03,.06-.06,.13-.08,.19,.03-.06,.05-.13,.08-.19-.32-.82-1.12-1.39-2.05-1.4h0c-1.22,0-2.22,.98-2.23,2.2,0,1.21,.98,2.2,2.2,2.2h.02c.81,0,1.52-.43,1.9-1.08-.03-.09-.04-.18-.06-.27,.02,.09,.03,.18,.06,.26,.01-.02,.02-.04,.03-.06-.01,.02-.02,.04-.03,.06,.33,1.06,1.32,1.84,2.5,1.85h.02Zm.88-4.83c-.13,0-.25-.02-.36-.06,.12,.03,.24,.05,.36,.06h0s.09-.01,.13-.02c-.04,0-.09,.02-.13,.02h0Zm1.33-1.67s0,0,0,0c.09,.08,.19,.14,.3,.2-.11-.06-.21-.12-.3-.2Zm0-.02c-.08-.31-.26-.57-.51-.75,0,0,0,0,0,0,.25,.18,.43,.45,.51,.75,0,0,0,0,0,0Zm-.25-.27c-.04-.05-.07-.11-.11-.16,.03,.06,.07,.11,.11,.16Zm-.69,1.9c.38-.11,.69-.39,.85-.75-.16,.36-.47,.63-.85,.75,0,0,0,0,0,0Zm1.17,3.23c.11-.29,.18-.6,.18-.93,0-.8-.35-1.51-.92-1.99,.57,.48,.93,1.19,.92,1.99,0,.33-.07,.64-.18,.93Zm1.9-.7h0c-.22,0-.43,.04-.62,.11,.19-.07,.4-.11,.62-.11Zm-1.04-3.75h-.01c-.07,0-.13-.01-.19-.02,.06,0,.13,.02,.19,.02h.01c.08,0,.15,0,.22-.02-.07,0-.14,.02-.22,.02Zm-.62-.42c.25,.02,.49,.06,.71,.14-.23-.07-.47-.12-.71-.14Zm.61-2.92h.01c.06,0,.11,0,.17,.02-.06,0-.11-.01-.17-.02h0c-.38,0-.74,.13-1.02,.34,.28-.21,.64-.34,1.02-.34Zm-1.11,2.92s0,0,0,0c0,0,0,0,0,0,0,0,.01,.01,.02,.02,.01,.05,.01,.11,.02,.16,0-.05,0-.11-.02-.16,0,0-.01-.01-.02-.01-.48,.05-.92,.22-1.31,.47,.38-.25,.83-.42,1.31-.47Zm-2.16,1.31h0s0,0,0,0c.45,0,.87,.12,1.23,.32,0,0,0,0,0,0-.37-.2-.79-.32-1.23-.32-.01,.02-.02,.04-.03,.05,.03,.03,.07,.05,.11,.08-.04-.03-.08-.05-.11-.08-.07,.12-.14,.25-.2,.38,.06-.13,.12-.26,.19-.38h0s.02-.04,.03-.05h0Z" style="fill:#fc3819;"/><path d="M53.07,24.63h0s0,0,0,0c0,0,0,0,0,0h0s0,0,0,0c-.32,.49-.51,1.07-.51,1.7,0,1.07,.54,2.02,1.37,2.58,.13-.22,.32-.4,.54-.53-.22,.13-.4,.31-.54,.53,.04,.03,.08,.04,.12,.07-.04-.02-.08-.04-.12-.07-.14,.24-.23,.52-.23,.82,0,.27,.07,.53,.19,.75,.17-.3,.5-.51,.87-.51,.2,0,.38,.06,.54,.16-.15-.1-.34-.16-.53-.16-.38,0-.7,.21-.87,.51,.1,.19,.24,.35,.4,.48-.16-.13-.3-.3-.4-.48-.08,.14-.13,.31-.13,.48,0,.55,.45,.99,1,.99,.45,0,.83-.29,.95-.69-.08,.02-.17,.03-.26,.03,.09,0,.18-.01,.26-.03,0-.03,0-.06,.01-.09,0,.03,0,.06-.01,.09,.68-.18,1.17-.8,1.17-1.53,0-.16-.03-.32-.07-.47-.24,.09-.51,.14-.77,.17,.27-.03,.53-.08,.77-.17,0,0,0,0,0,0,.65-.24,1.2-.69,1.56-1.26-.04,.14-.07,.29-.07,.45,0,.43,.18,.82,.47,1.1,0,0,0,0,0,0,.13,.12,.28,.22,.45,.3-.17-.07-.32-.17-.45-.29-1.01,.19-1.77,1.07-1.77,2.12,0,.88,.53,1.64,1.29,1.98,.07-.07,.14-.14,.22-.21-.08,.07-.15,.14-.22,.21,0,0,0,0,0,0-.54,.57-.88,1.34-.88,2.18,0,.71,.24,1.36,.63,1.89,0,0,0,0,0,0,.05,.07,.12,.14,.18,.21-.06-.07-.12-.13-.18-.21-.79,.18-1.38,.88-1.38,1.72,0,.96,.79,1.75,1.77,1.75,.22,0,.43-.04,.62-.11,0,0,0,0,0,0,0,0,0,0,.01,0,0,0,0,0-.01,0,.32,.46,.85,.77,1.46,.77,.25,0,.49-.05,.7-.14,0-.03,.02-.06,.03-.1,0,.03-.02,.06-.03,.1,.1-.04,.19-.1,.28-.16-.09,.06-.18,.11-.28,.16-.01,.08-.02,.16-.02,.24,0,.97,.79,1.75,1.77,1.75s1.76-.78,1.76-1.75c0-.39-.13-.76-.35-1.05,0,0,0,0,0,0,0,0,0,0,0,0,.03-.04,.06-.08,.08-.13,.5,.41,1.15,.65,1.85,.65,1.62,0,2.92-1.29,2.92-2.89,0-.33-.06-.65-.16-.95,0,0,0,0,0,0,.32,.18,.68,.28,1.07,.28,.98,0,1.8-.63,2.08-1.51,0,0,0,0,0,0,0,0,0,0,0,0,1.44-.13,2.57-1.33,2.57-2.8,0-1.55-1.27-2.81-2.84-2.81-.22,0-.44,.03-.65,.07,.27,.41,.42,.9,.42,1.42,0,.59-.19,1.12-.52,1.56h0c-.36,.47-.88,.81-1.47,.96,.59-.15,1.11-.48,1.47-.96,.33-.43,.52-.97,.52-1.56,0-.53-.16-1.01-.42-1.42-.19,.04-.37,.11-.54,.19,.17-.08,.35-.15,.54-.19-.23-.34-.53-.63-.89-.84,0,.02-.02,.05-.03,.07,0-.02,.02-.05,.03-.07,0,0,0,0,0,0,.08-.22,.12-.47,.12-.72,0-1.2-.98-2.17-2.19-2.17-.11,0-.21,0-.31,.02-.11,.02-.22,.04-.33,.08,.11-.03,.22-.06,.33-.08-.11-.87-.85-1.53-1.75-1.53-.67,0-1.26,.37-1.56,.93,.07-.21,.11-.44,.11-.68,0-1.18-.96-2.14-2.16-2.14s-2.15,.96-2.15,2.14c0,.58,.23,1.1,.6,1.49-.04,.04-.08,.09-.11,.14,.23,.26,.36,.61,.36,.98,0-.37-.14-.72-.36-.98-.18,.24-.29,.54-.29,.87,0,0,0,0,0,0,0-.32,.11-.62,.28-.87-.28-.33-.7-.54-1.17-.54s-.94,.23-1.22,.6c0,0,0,0,0,0-.11,.14-.19,.29-.24,.46,0,0,0,0,0,0,.05-.17,.14-.33,.24-.47,.1-.23,.16-.48,.2-.73,0,0,0,0,0,0,.02-.15,.03-.3,.03-.45,0-.97-.45-1.85-1.16-2.42,0,0,0,0,0,0-.16-.13-.33-.24-.51-.34,0,0,0,0,0,0-.23-.12-.48-.22-.74-.28,0,0,0,0,0,0-.09-.02-.18-.04-.28-.05,0,0,0,0,0,0,0,0,0,0,0,0,.02-.07,.03-.13,.04-.2-.13-.2-.21-.43-.21-.69,0-.16,.03-.31,.08-.44-.32-.8-1.11-1.37-2.03-1.37-1.21,0-2.19,.97-2.19,2.17,0,.84,.49,1.57,1.2,1.93Zm6.91,13.94c.04,.08,.08,.16,.11,.24-.03-.08-.07-.16-.11-.24Zm-.07-.12h0c-.2-.29-.48-.5-.81-.63,.33,.13,.61,.35,.81,.63Zm-.27,.13s-.07,.05-.1,.07c.03-.02,.07-.05,.1-.07Zm-.25,.17s0,0,0,0c-.25-.1-.47-.24-.68-.39,.21,.16,.44,.29,.68,.39Zm.37,.13s0,0,0,0c0,0,0,0,0,0Zm.76-.54c.31,0,.6,.08,.86,.22-.25-.14-.55-.22-.86-.22-.09,0-.18,.01-.26,.02,.09-.01,.17-.02,.26-.02Zm-1.96-4.94s-.02,.01-.03,.02c0,0,.02-.02,.03-.02Zm.36,7.43s.03,.05,.04,.08c-.01-.03-.03-.05-.04-.08Zm1.04-.52c.15-.26,.25-.56,.25-.88,0-.08,0-.16-.02-.24,.01,.08,.02,.16,.02,.24,0,.32-.09,.62-.25,.88Zm.18-1.36c.02,.07,.03,.14,.05,.22-.01-.07-.03-.15-.05-.22,.15,.02,.3,.03,.46,.03,.31,0,.6-.04,.88-.12,.04-.05,.08-.1,.12-.15-.07-.05-.14-.1-.21-.14,.07,.04,.14,.09,.21,.14,.29-.32,.7-.53,1.16-.57,0,0,0,0,0,0-.46,.04-.87,.25-1.16,.57,.03,.03,.06,.05,.09,.08,.22-.08,.43-.19,.62-.31-.2,.12-.4,.23-.62,.31,.35,.32,.58,.78,.58,1.29,0,.02,0,.04,0,.06,0-.02,0-.04,0-.06,0-.51-.22-.97-.58-1.29-.07,.03-.14,.05-.22,.07-.03,.04-.06,.09-.08,.13,.03-.04,.05-.09,.08-.13-.28,.08-.58,.12-.88,.12-.16,0-.31-.01-.46-.03Zm2.12,1.38c-.02,.18-.08,.35-.15,.51,.08-.16,.13-.33,.15-.51,0,0,0,0,0,0Zm0,0s.09-.03,.14-.04c-.05,.02-.1,.03-.14,.04,0,0,0,0,0,0Zm-.64,1.11c.07-.05,.14-.11,.2-.17-.12-.09-.22-.2-.31-.32-.02,.03-.03,.06-.05,.09,.02-.03,.03-.06,.05-.09,0,0,0,0,0,0,.16-.23,.38-.42,.63-.55-.25,.13-.47,.32-.63,.55,.09,.12,.19,.22,.31,.32,0,0,0,0,0,0,.18,.14,.39,.25,.62,.31-.23-.06-.44-.17-.62-.31-.06,.06-.13,.12-.2,.17Zm1.34-1.25s-.08,0-.13,.01c.04,0,.08-.01,.13-.01,.53,0,1,.24,1.33,.61-.32-.37-.79-.61-1.32-.61Zm6.16-6.43s0,0,0,0c0,0,0,0,0,0,0-.07,0-.14,0-.22,0-.46,.12-.89,.31-1.27-.2,.38-.31,.81-.31,1.27,0,.07,0,.14,0,.21Zm-.78-2.34c-.36,0-.7-.09-1.01-.24,0,0,0,0,0,0-.02-.01-.04-.03-.07-.04,.02,.01,.04,.03,.07,.04,0-.03,0-.06,0-.08,0-.25-.03-.48-.1-.71,0,0,0,0,0,0,.06,.23,.1,.46,.1,.71,0,.03,0,.06,0,.08,.3,.16,.64,.24,1.01,.24,.48,0,.92-.15,1.28-.41-.36,.26-.8,.41-1.28,.41Zm-2.1-1.59c.1,.34,.28,.65,.52,.9-.24-.25-.42-.56-.52-.9Zm.62,1.02s0,0,0,0c0,0,0,0,0,0,.04,.04,.1,.08,.14,.12-.05-.04-.1-.07-.14-.11,0,0,0,0,0,0,0,0,0,0,0,0Zm-.49-1.77s0,0,0,0c-.03,0-.07,0-.1,0-.01,0-.02,0-.03,0,.01,0,.02,0,.03,0,.03,0,.07,0,.1,0,0,0,0,0,0,0Zm-1.22-.41c.12,.1,.25,.18,.39,.25-.14-.06-.27-.15-.39-.25Zm.13,4.97c-.1,.02-.2,.04-.31,.05,.11-.01,.21-.03,.31-.05Zm1.84,2.1c-.1-.03-.2-.05-.3-.06,.1,.02,.21,.04,.3,.06,.03-.13,.04-.26,.04-.39,0-.93-.74-1.7-1.67-1.76,.41-.13,.78-.35,1.07-.65-.02-.06-.03-.12-.04-.18,.01,.06,.02,.12,.04,.18,0,0,0,0,0,0,.23,.81,.84,1.45,1.63,1.74-.16,.3-.25,.64-.25,1,0,.17,.02,.33,.06,.49h0c-.27-.19-.57-.34-.89-.43,0,0,0,0,0,0Zm.89,.43s0,0,0,0c.14,.6,.53,1.1,1.05,1.4,0,0,0,0,0,0-.52-.3-.91-.8-1.05-1.4Zm.29,.24c.25,.23,.46,.51,.61,.82-.16-.31-.36-.58-.61-.82Zm-.1-1.73c.1-.2,.24-.38,.39-.53-.16,.16-.29,.33-.39,.53,.28,.1,.58,.16,.9,.16,0,0,0,0,0,0-.32,0-.62-.06-.9-.16Zm4.13,1c0,.12,0,.23-.03,.34,.02-.11,.03-.22,.03-.34,0-.48-.16-.93-.44-1.29,.27,.36,.44,.81,.44,1.29Zm-2.3-.08c-.24-.22-.45-.48-.6-.78,0,0,0,0,0,0-.03-.05-.04-.11-.07-.17,.02,.06,.04,.11,.07,.17,0,0,0,0,0,0,.15,.3,.36,.56,.6,.78Zm-3.31-6.57c.44-.11,.81-.38,1.05-.75-.24,.37-.61,.64-1.05,.75Zm.97-1.84c-.16,.05-.3,.12-.44,.2,.14-.08,.28-.15,.44-.2Zm-4.11,.58c.44-.2,.8-.54,1.02-.97-.05,.17-.08,.34-.08,.53,0,.45,.17,.86,.45,1.17,.45,.04,.86,.2,1.22,.44h0s0,0,0,0c0,0,0,0,0,0-.36-.24-.77-.39-1.22-.44,0,0,0,0,0,0-.08,0-.17-.01-.25-.01-.39,0-.76,.09-1.09,.24,0,0,0,0,0,0-.45,.2-.83,.54-1.1,.94,.27-.41,.65-.74,1.1-.95,.04-.13,.06-.26,.06-.4,0-.19-.04-.38-.11-.55,0,0,0,0,0,0-.22-.54-.75-.92-1.37-.92-.25,0-.49,.07-.7,.18,.21-.11,.44-.18,.7-.18,.62,0,1.15,.38,1.37,.92Zm-1.37,2.01c.09,0,.17,0,.25-.02,0,0,0,0,0,0,.32-.05,.6-.22,.81-.44-.21,.22-.49,.39-.81,.44-.24,.39-.37,.85-.37,1.34,0,1.44,1.18,2.61,2.63,2.61h.04c-.53,.21-.94,.66-1.08,1.22,.08,.28,.13,.58,.13,.89,0,.09,0,.19-.01,.28,.09,.18,.2,.35,.35,.49,.26-.28,.57-.51,.92-.68-.35,.17-.66,.4-.92,.68,0,0,0,0,0,0-.4,.44-.66,1-.73,1.62,.74,.21,1.29,.88,1.29,1.69h0c0-.8-.54-1.48-1.29-1.69h0c-.15-.04-.32-.07-.48-.07-.05,0-.1,0-.15,0,.57-.52,.95-1.24,1.02-2.05,0,0,0,0,0,0,0-.09,.01-.18,.01-.28,0-.31-.05-.61-.13-.89,0,0,0,0,0,0-.34-1.16-1.34-2.04-2.56-2.23,0,0,0,0,0,0-.08-.01-.16-.01-.24-.02,.08,0,.16,0,.24,.02,.17-.31,.27-.66,.27-1.04,0-.75-.39-1.42-.98-1.8-.14,.05-.29,.08-.45,.09,.16-.01,.31-.04,.45-.09,0,0,0,0,0,0,.29-.11,.53-.31,.71-.56,0,0,0,0,0,0,.27,.3,.66,.49,1.1,.49Zm2.79,7.28c-.29-.07-.54-.2-.76-.39,.21,.18,.47,.32,.76,.39Zm-1.35-1.49c.01,.11,.04,.22,.07,.32-.03-.1-.06-.21-.07-.32Zm-2.68-6.47c-.04-.06-.07-.12-.1-.18,.03,.06,.06,.12,.1,.18Zm-6.91-4.25c-.18,0-.35-.02-.52-.06,.17,.04,.34,.06,.52,.06,.24,0,.47-.04,.68-.11-.21,.07-.44,.11-.68,.11Zm.73-.12s.08-.04,.12-.05c-.04,.02-.08,.04-.12,.05Zm.33-.15s.09-.06,.13-.09c-.04,.03-.08,.06-.13,.09Zm.3-.19s.07-.06,.1-.09c-.03,.03-.06,.06-.1,.09Zm2.23-.43c-.26,.2-.46,.48-.56,.81,.09-.33,.29-.61,.56-.81Zm-.85-.49c-.09-.03-.16-.08-.24-.13,.07,.05,.15,.1,.24,.13Zm.03,.01s-.02,0-.02,0c0,0,.02,0,.02,0Zm-1.15,.67s.04-.05,.06-.08c-.02,.03-.04,.06-.06,.08Zm-1.13-.73c-.4,.16-.76,.4-1.06,.7,.3-.3,.66-.54,1.06-.7Z" style="fill:#fc3819;"/><path d="M56,22.34c0,.26,.08,.49,.21,.69,.02-.11,.03-.22,.03-.33,0-.14-.01-.28-.04-.41,.03,.13,.04,.27,.04,.41,0,.11,0,.23-.03,.33,.07,.1,.15,.19,.24,.26,.26,.06,.51,.16,.74,.28,.02,0,.03,0,.05,0,.69,0,1.24-.55,1.24-1.23s-.55-1.23-1.24-1.23c-.53,0-.98,.32-1.16,.78,.03,.07,.04,.14,.06,.22-.02-.07-.04-.15-.06-.22-.05,.14-.08,.29-.08,.44Z" style="fill:#fc3819;"/><path d="M46.97,24.57c.51,0,.98,.21,1.32,.54-.34-.33-.8-.54-1.32-.54s-1,.22-1.34,.57c.59,.83,1.57,1.37,2.67,1.37,.18,0,.36-.01,.53-.04,0,0,0,0,0-.01h0c1.56-.24,2.75-1.58,2.75-3.2,0-1.8-1.47-3.25-3.28-3.25s-3.28,1.46-3.28,3.25c0,.7,.22,1.36,.61,1.89,.34-.35,.81-.57,1.34-.57Z" style="fill:#fc3819;"/><path d="M51.13,30.67c1.06,0,1.92-.85,1.92-1.91s-.86-1.91-1.92-1.91-1.92,.85-1.92,1.91,.86,1.91,1.92,1.91Z" style="fill:#fc3819;"/><path d="M34.89,25.07c1.06,0,1.92-.86,1.92-1.9s-.86-1.9-1.92-1.9-1.92,.85-1.92,1.9,.86,1.9,1.92,1.9Z" style="fill:#fc3819;"/><path d="M16.04,50.95c1.3,0,2.36-1.06,2.36-2.34s-1.06-2.35-2.36-2.35-2.36,1.05-2.36,2.35,1.06,2.34,2.36,2.34Z" style="fill:#fc3819;"/><path d="M73.81,72.76s0,0,0,0c0,0,0,0,0,0-.57-.48-1.31-.77-2.12-.77-.13,0-.27,0-.4,.02-.11,.44-.4,.81-.78,1.05,.38-.24,.66-.61,.77-1.05-.9,.11-1.69,.58-2.21,1.26,0,0,0,0,0,0,.52-.68,1.31-1.15,2.21-1.26,.04-.14,.06-.29,.06-.44,0-.98-.8-1.77-1.79-1.77-.44,0-.84,.16-1.15,.42v-.11c0-1.94-1.59-3.52-3.54-3.52-.22,0-.44,.02-.65,.06-.2,.76-.89,1.32-1.72,1.32-.03,0-.06,0-.09-.01,.03,0,.06,.01,.09,.01,.83,0,1.52-.56,1.72-1.32,0,0,0,0,0,0,.04-.14,.06-.29,.06-.44,0-.97-.79-1.76-1.77-1.76s-1.77,.79-1.77,1.76c0,.83,.58,1.52,1.36,1.71-.13,.16-.24,.33-.34,.51,0,0,0,0,0,0-.18,.33-.3,.69-.37,1.07,.07-.38,.19-.74,.37-1.07-.24-.51-.7-.92-1.29-1.08-.19-.05-.38-.08-.56-.08-.89,0-1.7,.58-1.96,1.47-.07,.24-.09,.47-.07,.7h0c.03,.42,.2,.82,.47,1.14-.27-.32-.43-.72-.47-1.14-.07-.03-.14-.06-.21-.08-.12-.03-.25-.05-.37-.05-.58,0-1.12,.38-1.29,.96-.03,.09-.04,.19-.05,.28h0c-.16-.1-.34-.16-.54-.16-.45,0-.83,.29-.95,.69,.09,.03,.17,.07,.25,.11-.08-.04-.16-.08-.25-.11-.03,.09-.05,.19-.05,.3,0,.14,.03,.27,.08,.38-.05-.12-.08-.25-.08-.39,0-.1,.02-.2,.05-.3-.16-.05-.33-.07-.51-.07-.86,0-1.58,.61-1.75,1.41-.59-.51-1.36-.82-2.21-.82-1.08,0-2.04,.51-2.66,1.29h0c-.2,.26-.36,.55-.48,.86,.12-.31,.28-.6,.48-.86-.39-.38-.93-.61-1.52-.61-.3,0-.58,.06-.84,.16,0,0,0,0,0,0-.48-.59-1.22-.96-2.03-.96-.63,0-1.2,.22-1.66,.58,0,0,0,0,0,0,0,0,0,0,0,0-.08-.09-.16-.17-.25-.25-.11-.87-.85-1.54-1.76-1.54-.27,0-.52,.06-.75,.16,0,.03,0,.05,0,.08,0,.55-.23,1.05-.6,1.41,.37-.36,.6-.86,.6-1.41,0-.03,0-.05,0-.08-.61,.28-1.03,.89-1.03,1.6,0,.06,0,.13,.01,.19,0,0,0,0,0,0,.01,.12,.04,.23,.07,.34,0,0,0,0,0,0,.03,.08,.06,.16,.1,.24-.04-.08-.07-.15-.1-.24-.13,.28-.2,.58-.2,.9,0,.44,.13,.84,.35,1.18,0,0,0,0,0,0h0c-1.26,.02-2.32,.84-2.71,1.97-.16-.04-.33-.07-.5-.07-.68,0-1.27,.38-1.56,.93h0s-.03,.08-.04,.11c.02-.04,.03-.08,.04-.11-.14,0-.27,.02-.41,.04-1.54,.29-2.56,1.75-2.27,3.28,.25,1.35,1.45,2.3,2.79,2.3,.17,0,.34-.01,.52-.05,1.54-.28,2.56-1.75,2.27-3.28,0-.03-.01-.05-.01-.07,.5,.45,1.17,.73,1.89,.74,.3-.56,.89-.94,1.57-.94,.19,0,.38,.03,.55,.09,.53-.53,.86-1.25,.86-2.05,0-.73-.28-1.4-.73-1.91-.13,.02-.26,.03-.39,.03-.59,0-1.12-.23-1.52-.6,.4,.37,.93,.6,1.52,.6,.13,0,.26-.01,.39-.03h0c.24-.04,.47-.12,.67-.24,0,0,0,0,0,0,.51-.28,.9-.76,1.06-1.33-.16,.57-.55,1.05-1.06,1.33,.37,.62,.98,1.08,1.72,1.23,0,0,0,0,0,0,0,0,0,0,0,0-.1,.22-.15,.47-.15,.73,0,1,.8,1.81,1.79,1.85h0s.03,0,.04,0h-.04c-.27,.36-.42,.8-.42,1.28,0,.05,0,.11,0,.16,.1,.02,.21,.05,.3,.09-.1-.04-.2-.07-.3-.09,0,.13,.04,.26,.07,.39-.03-.13-.06-.26-.07-.39-.13-.03-.26-.04-.4-.04-1.03,0-1.86,.83-1.86,1.85,0,.15,.02,.29,.05,.43-1.26,.29-2.2,1.41-2.2,2.74,0,1.56,1.27,2.81,2.83,2.81s2.84-1.25,2.84-2.81c0-.63-.21-1.21-.56-1.68-.31,.22-.69,.36-1.1,.36-.48,0-.92-.18-1.25-.48,.33,.3,.76,.48,1.25,.48,.41,0,.79-.13,1.1-.36-.52-.69-1.34-1.13-2.27-1.13-.07,0-.14,0-.21,.01,.07,0,.14-.01,.21-.01,.93,0,1.76,.44,2.27,1.13,.44-.32,.73-.83,.76-1.4,0,0,0,0,0,0h0c.23,.08,.47,.12,.72,.12,.65,0,1.24-.28,1.64-.73,0,.05,0,.09,0,.14,0,.23,.04,.45,.12,.66,.52-.57,1.27-.94,2.11-.94,.16,0,.32,.02,.48,.04-.15-.03-.31-.04-.48-.04-.84,0-1.59,.36-2.11,.94,0,0,0,0,0,0-.45,.5-.72,1.15-.72,1.87,0,.16,.02,.32,.04,.48,.48,.07,.87,.38,1.06,.81-.19-.42-.58-.74-1.06-.81,0,0,0,0,0,0-.06,0-.12-.01-.19-.01-.76,0-1.37,.6-1.38,1.35,0,.75,.6,1.36,1.36,1.36h.01c.6,0,1.11-.39,1.29-.92,0,0,0,0,0,0,0,0,0,0,0,0,.47,.35,1.06,.56,1.69,.56,1.57,0,2.84-1.26,2.84-2.82,0-.66-.23-1.28-.62-1.76-.1-.04-.19-.09-.29-.15,.09,.05,.19,.1,.29,.14h0c.46,.2,.97,.32,1.51,.32,.14,0,.27,0,.4-.02-.03-.12-.05-.25-.05-.38h0c0,.13,.02,.26,.05,.38,0,0,0,0,0,0,.17,.69,.8,1.2,1.55,1.2,.88,0,1.59-.71,1.59-1.58,0-.46-.19-.87-.51-1.16,.14-.19,.26-.4,.36-.62,0-.41,.11-.79,.29-1.12-.18,.34-.28,.72-.29,1.12,0,0,0,0,0,0v.04c0,.84,.41,1.58,1.03,2.05h0s0,0,0,0c-.25,.28-.41,.65-.41,1.06,0,.87,.72,1.58,1.59,1.58s1.6-.7,1.6-1.58c0-.28-.07-.54-.2-.76,.21-.09,.41-.21,.58-.35h0s0,0,0,0c0,0,0,0,0,0-.04,.16-.06,.33-.06,.5,0,.56,.21,1.06,.56,1.45-.53,.03-.95,.46-.95,.99s.45,.99,1,.99,1-.44,1-.99c0-.13-.03-.26-.08-.38,0,0,0,0,0,0-.07-.17-.19-.32-.34-.42,.15,.11,.27,.25,.34,.42,.19,.06,.4,.09,.61,.09,1.01,0,1.86-.69,2.1-1.62-.66-.17-1.16-.77-1.16-1.48,0-.03,0-.06,.01-.09,0,.03-.01,.06-.01,.09,0,.71,.49,1.31,1.16,1.48,.04-.17,.06-.34,.06-.52,0-.58-.24-1.09-.61-1.48,.37,.39,.61,.9,.61,1.48,0,.18-.02,.35-.06,.52,.12,.03,.25,.05,.39,.05,.85,0,1.54-.69,1.54-1.53s-.69-1.53-1.54-1.53c-.35,0-.67,.11-.92,.3-.04,.19-.12,.36-.22,.51h0s0,0,0,0c0,0,0,0,0,0,.11-.15,.18-.32,.22-.51-.06,.05-.12,.1-.17,.15,.06-.06,.11-.11,.17-.16,.02-.1,.03-.21,.03-.32,0-.36-.13-.68-.34-.94h0c.18,.05,.38,.07,.58,.07,.33,0,.64-.07,.92-.19h0s0,0,0,0h0c.3,1.32,1.49,2.31,2.92,2.31,1.65,0,2.99-1.33,2.99-2.97,0-.28-.04-.55-.11-.81-.83-.02-1.58-.36-2.15-.89,.57,.53,1.32,.86,2.15,.89h0s.06,0,.1,0c1.71,0,3.12-1.3,3.26-2.96-.04,.05-.08,.09-.12,.13,.04-.04,.09-.08,.12-.13,0-.1,.01-.19,.01-.29,0-.7-.23-1.35-.61-1.88,.38,.53,.61,1.18,.61,1.88,0,.1,0,.2-.01,.29,.21-.29,.34-.65,.34-1.04,0-.87-.64-1.6-1.48-1.74Zm-38.03,6.78h0c-.15-.54-.45-1-.85-1.35,0,0,0,0,0,0,.4,.35,.7,.81,.85,1.35,0,0,0,0,0,0,.02,.06,.03,.11,.04,.17,0,0,0,0,0,0-.01-.06-.03-.12-.04-.17Zm-.89-1.56c-.01-.08-.02-.16-.03-.24,0,.08,.01,.16,.03,.24Zm1.29,.91c-.07,.2-.18,.39-.32,.55,.14-.16,.25-.35,.32-.55Zm-1.67,1.18c-.26,0-.5-.06-.72-.15,.22,.1,.46,.15,.72,.15,.46,0,.88-.18,1.2-.47,0,0,0,0,0,0h0c-.32,.29-.74,.47-1.2,.47Zm6.86,2.82s0,0,0,0c.08-.02,.15-.03,.23-.04-.08,.01-.16,.02-.23,.04Zm29.27-5.86c-.52-.44-1.2-.72-1.94-.72h0c.74,0,1.42,.27,1.94,.72Zm-3.25-4.47s0,0,0,0c-.1-.05-.2-.08-.31-.11,.11,.03,.21,.06,.31,.11Zm-.76-.17c.13,0,.26,.02,.38,.04-.12-.03-.25-.04-.39-.04-.49,0-.94,.2-1.26,.53,.32-.33,.77-.53,1.26-.53Zm-2.95-5.59c-.63,.22-1.18,.61-1.59,1.12,0,0,0,0,0,0,.41-.51,.96-.9,1.59-1.12Zm-1.82,3.05c.04-.13,.06-.26,.07-.4-.01,.13-.03,.26-.07,.4-.06,.21-.15,.41-.27,.58,0,0,0,0,0,0-.07,.1-.14,.19-.22,.27,.19,1.12,.93,2.06,1.92,2.55-1-.49-1.73-1.43-1.92-2.55,0,0,0,0,0,0,0,0,0,0,0,0,.08-.08,.16-.17,.22-.27-.03,0-.07-.01-.11-.02,.04,0,.07,0,.11,.02,.12-.17,.21-.37,.27-.58Zm-2.52,1.39c.19,.05,.37,.08,.56,.08,.09,0,.18-.02,.27-.03-.09,.01-.18,.03-.27,.03-.18,0-.37-.03-.56-.08-.14-.04-.27-.09-.39-.16,0,0,0,0,0,0,.12,.06,.25,.12,.39,.16Zm.2,4.29c.83,0,1.55,.46,1.92,1.13h0c-.37-.68-1.09-1.13-1.92-1.13-.32,0-.62,.07-.89,.19h0c.27-.12,.57-.19,.89-.19Zm-.23,2.95c.52,0,1.01,.16,1.42,.42-.41-.27-.9-.42-1.42-.42-.14,0-.28,.01-.42,.03,.14-.02,.28-.03,.42-.03Zm-.51,.06c-.11,.02-.21,.04-.31,.08,.1-.03,.2-.06,.31-.08Zm-3.92-7.26s0,0-.01-.01c0,0,0,0,.01,.01Zm.52,1.09s.08-.01,.13-.02c-.04,0-.08,.02-.13,.02-.41,0-.76-.25-.92-.6,.15,.35,.51,.6,.92,.6Zm-3.24,.27s-.02,.1-.02,.15c0,.39,.13,.75,.34,1.04-.21-.29-.34-.65-.34-1.04,0-.05,.01-.1,.02-.15Zm-.94,9.65s0,0,0,0c0,.04-.01,.07-.02,.1,0-.03,.01-.07,.02-.1,0,0,0,0,0,0,0-.07,.01-.14,.01-.21,0-.81-.51-1.5-1.23-1.78,.72,.28,1.23,.97,1.23,1.77,0,.07,0,.15-.01,.22Zm-1.25-4.01s-.03,0-.05,0c.02,0,.03,0,.05,0h0Zm-2.19-2.94c-.16,.35-.41,.65-.73,.87,.31-.22,.57-.52,.73-.87Zm-.96,.77c-.1-.26-.17-.52-.2-.8,.03,.28,.1,.55,.2,.8Zm-1.28-2.02c0,.63-.22,1.21-.6,1.66,0,0,0,0,0,0,.37-.45,.6-1.03,.6-1.66,0,0,0,0,0,0Zm-1.57,1.55s-.06-.07-.08-.11c.06,0,.11,0,.17,0,0,0,0,0,0,0-.06,0-.11,0-.17,0,.02,.04,.05,.07,.08,.11Zm-.08-.11c-.09,0-.17,.02-.25,.04,.08-.02,.17-.03,.25-.04,0,0,0,0,0,0Zm1.06-3.09c.3,.37,.5,.83,.56,1.33-.06-.5-.26-.96-.56-1.33-.1,.04-.19,.09-.29,.14,.09-.05,.19-.1,.29-.14Zm-4.53,.91s-.03,.03-.05,.05c0,0,0,0,0,0-.06,.05-.12,.09-.18,.13,.06-.04,.13-.08,.18-.13,.04-.16,.11-.32,.18-.46-.07,.15-.14,.3-.18,.46,.02-.01,.03-.03,.05-.05Zm-1.68-1.9c-.44,.18-.81,.49-1.06,.89,.24-.4,.62-.71,1.06-.89Zm-1.06,1.41s-.01-.02-.02-.03c0,.01,.01,.02,.02,.03Zm.08,1.8s0,0,0,0c.8,0,1.52,.32,2.05,.83-.53-.51-1.25-.83-2.05-.83Zm3.16-2.04c.04-.1,.06-.21,.08-.32,0,0,0,0,0,0,0,0,0,0,0,0h0c-.02,.11-.04,.22-.08,.32Zm4.11,9.9s0-.03,0-.05c0-.77-.47-1.42-1.14-1.7,.67,.28,1.14,.94,1.14,1.7,0,.02,0,.03,0,.05Zm2.49-.75c.15-.2,.26-.43,.33-.68-.07,.25-.19,.47-.33,.68Zm1.78-1.59c-.54,0-1.03,.22-1.38,.58,0,0,0,0,0,0-.02,.02-.03,.04-.04,.05,.02-.02,.03-.04,.04-.05,.01-.08,.02-.17,.02-.26,0-1.2-.97-2.17-2.18-2.17-.03,0-.07,0-.1,0-.07,.11-.16,.22-.25,.31,.09-.1,.18-.2,.25-.31,0,0,0,0,0,0,.17-.28,.27-.61,.27-.97,0-.27-.06-.52-.16-.75-.48,0-.93-.17-1.29-.43-.18,.13-.38,.23-.58,.32,.21-.08,.41-.19,.58-.32-.04-.03-.07-.06-.1-.09,.04,.03,.06,.07,.1,.09,.05-.03,.09-.07,.13-.11-.04,.04-.08,.08-.13,.11,.36,.27,.8,.43,1.29,.43-.16-.36-.44-.66-.79-.85,.35,.19,.62,.49,.79,.85h.02c.41,0,.79-.11,1.11-.3,.51,1.11,1.61,1.9,2.91,1.96,0,0,0,0,0,0,0,0,0,0,0,0-.13,.38-.2,.78-.2,1.2,0,.25,.03,.5,.07,.73h0c.06,.31,.17,.61,.31,.88-.14-.28-.24-.57-.31-.88-.12-.03-.25-.04-.38-.04Zm.96,1.39c.1,.14,.21,.28,.33,.41,.14,.05,.26,.11,.39,.18-.13-.07-.25-.13-.39-.18,0,0,0,0,0,0,0,0,0,0,0,0-.12-.13-.23-.27-.33-.41Zm-2.99,4.62c.18,.26,.39,.49,.64,.68-.25-.19-.46-.42-.64-.68Zm.71,.4c0,.05-.01,.1-.02,.15,.01-.05,.02-.1,.02-.15Zm2.96-3.5c.11-.18,.19-.37,.24-.58-.08-.06-.16-.12-.24-.19,.08,.06,.16,.13,.24,.19,0,0,0,0,0,0,0,0,0,0,0,0-.05,.21-.13,.41-.24,.59Zm-.48-4.84c1.16-.17,2.13-.93,2.59-1.97-.45,1.04-1.42,1.8-2.59,1.97Zm2.87-2.45s-.07,0-.11,0c0,0,0,0,0,0-.59,.02-1.15,.17-1.65,.43,.49-.26,1.05-.42,1.65-.43,.07-.27,.11-.55,.11-.85,0-.17-.01-.33-.04-.49,0,0,0,0,0,0-.12-.81-.53-1.52-1.12-2.03,0,0,0,0,0,0,.59,.51,1,1.23,1.12,2.03,.2,.07,.41,.11,.63,.11,.17,0,.33-.02,.48-.06,.16-.53,.57-.95,1.09-1.14-.52,.19-.94,.61-1.09,1.14,.47-.13,.86-.45,1.09-.87-.23,.42-.62,.74-1.09,.87-.05,.16-.07,.32-.07,.5,0,.39,.13,.74,.34,1.03,.06,.02,.12,.06,.18,.09-.06-.03-.11-.06-.18-.09,.13,.18,.3,.34,.49,.46-.19-.12-.36-.27-.49-.46-.42-.16-.87-.25-1.34-.25Zm2.09,5.41c.34,.03,.65,.17,.9,.38-.25-.21-.56-.35-.9-.38Zm1.59-1.25c-.04,.33-.13,.64-.25,.93,.12-.29,.21-.61,.25-.93Zm.02-.13s0,0,0,0c0,0,0,0,0,0h0s0,0,0,0c.01-.11,.02-.23,.02-.34,0-1.09-.47-2.06-1.23-2.74-.24-.04-.46-.12-.65-.24,.2,.12,.42,.21,.65,.24-.02-.02-.04-.03-.06-.05,.02,.02,.04,.03,.06,.05,.09,.01,.19,.02,.28,.02,.98,0,1.77-.79,1.77-1.76s-.79-1.76-1.77-1.76c-.16,0-.31,.02-.46,.06,.05-.16,.08-.33,.08-.51,0-.16-.02-.31-.06-.45,0,0,0,0,0,0,0,0,0,0,0,0h0c-.04-.15-.1-.29-.17-.42,.08,.13,.13,.27,.17,.42,.35-.1,.62-.37,.7-.72-.29-.27-.45-.66-.43-1.06,0,0,0,0,0,0-.03,.41,.14,.79,.43,1.06,.02-.07,.03-.15,.03-.23,0-.19-.06-.37-.15-.52,.09,.15,.15,.33,.15,.52,0,.08,0,.16-.03,.23,.15,.14,.33,.24,.54,.3,.12,.03,.24,.05,.36,.05,.59,0,1.13-.38,1.29-.96,.01-.05,.03-.1,.03-.14h0c.1-.57-.2-1.14-.72-1.4,.52,.26,.82,.83,.72,1.4,.1,.08,.22,.16,.34,.22,0,0,0,0,0,0-.72,.58-1.17,1.47-1.17,2.45,0,.85,.33,1.61,.88,2.18-.76,.34-1.29,1.1-1.29,1.98,0,.48,.16,.92,.43,1.28,0,0,0,0,0,0,.4,.53,1.04,.88,1.76,.88,.27,0,.52-.05,.75-.14-.24,.09-.49,.14-.75,.14-.72,0-1.36-.35-1.76-.88-.3,.22-.55,.51-.73,.84Zm3.24,3.46s.05,.07,.07,.1c0,0,0,0,0,0-.02-.04-.04-.07-.07-.1Zm-1.33-.71c.35,0,.68,.12,.95,.31-.27-.19-.59-.31-.95-.31-.2,0-.38,.04-.56,.11,.17-.07,.36-.11,.56-.11Zm-.66,.82c.31,.13,.66,.22,1.02,.22,.21,0,.41-.03,.6-.08-.19,.05-.39,.08-.6,.08-.36,0-.71-.08-1.02-.22Zm3.51-2.98s0,0,0,0c-.09,.19-.14,.4-.14,.61,0,.11,.01,.22,.04,.33-.02-.11-.04-.22-.04-.33,0-.22,.05-.43,.14-.62Zm1.71-.8c.17,.04,.32,.11,.46,.21-.14-.09-.29-.16-.46-.21Zm-1.66,2.13s0,0,0,0c-.03,.02-.05,.04-.08,.05,.01-.04,.03-.09,.04-.13-.03-.07-.06-.15-.08-.23,.02,.08,.05,.16,.08,.23,.02-.06,.02-.13,.04-.19-.01,.06-.02,.13-.03,.19,.01,.03,.03,.05,.04,.08,.2-.13,.42-.22,.66-.28-.24,.06-.46,.15-.66,.28Zm-.93,1.3s0,0,.01-.01c0,0,0,0-.01,.01,0,0,0,0,0,0Zm3.28-1.29s-.06,.1-.08,.16c.03-.05,.05-.11,.08-.16,0,0,0,0,0,0,0,0,0,0,0,0,.02,.01,.04,.03,.06,.04-.02-.01-.04-.03-.06-.04Zm-1.62-3.84c0,.66,.28,1.25,.74,1.66-.06,0-.12-.01-.18-.01-.59,0-1.1,.35-1.34,.85-.12-.46-.36-.87-.7-1.19,0,0,0,0,0,0-.1-.1-.22-.19-.34-.27,.12,.08,.24,.17,.34,.27,.38-.39,.62-.92,.62-1.51,0-.38-.1-.73-.27-1.04,1.52-.24,2.68-1.53,2.69-3.11,0,0,0,0,0,0h0c.23,.05,.47,.07,.71,.07,.03,0,.06,0,.08,0,0,0,0,0,0,0,.2,0,.39-.03,.57-.06-.19,.03-.38,.06-.57,.06-.05,.17-.08,.35-.08,.53,0,.97,.79,1.76,1.77,1.76s1.77-.79,1.77-1.76c0-.7-.41-1.31-1.01-1.59,.16-.17,.31-.35,.44-.54-.04-.15-.06-.3-.06-.45h0c0,.16,.02,.31,.06,.45,.24-.37,.41-.78,.5-1.23-.09,.45-.26,.86-.5,1.23,.16,.6,.64,1.08,1.24,1.24-.42,.55-.67,1.23-.67,1.97,0,.38,.07,.75,.19,1.09,0,0,0,0,0,0,0,0,0,0,0,0-.63,.02-1.21,.24-1.68,.59,.04,.07,.06,.16,.08,.24-.03-.08-.05-.16-.08-.24-.2,.15-.38,.33-.54,.52,.16-.2,.34-.37,.54-.52-.37-.75-1.14-1.27-2.04-1.27-1.26,0-2.27,1-2.27,2.25Zm4.2,1.19c.22-.35,.35-.75,.35-1.19,0-.07-.02-.14-.02-.21,0,.07,.02,.14,.02,.21,0,.44-.13,.84-.35,1.19Zm6.73-2.83c-.98,0-1.77-.79-1.77-1.76,0-.46,.18-.87,.47-1.18-.29,.31-.47,.73-.47,1.18,0,.97,.79,1.76,1.77,1.76,.29,0,.57-.07,.81-.2-.24,.13-.52,.2-.81,.2Z" style="fill:#fc3819;"/><path d="M9.76,76.97c-.98,0-1.77,.79-1.77,1.76s.79,1.75,1.77,1.75,1.77-.79,1.77-1.75-.79-1.76-1.77-1.76Z" style="fill:#fc3819;"/><path d="M12.55,67.88c-.98,0-1.77,.79-1.77,1.76s.8,1.76,1.77,1.76,1.77-.79,1.77-1.76-.8-1.76-1.77-1.76Z" style="fill:#fc3819;"/><path d="M28.97,83.57c-.98,0-1.77,.79-1.77,1.76s.79,1.76,1.77,1.76,1.77-.79,1.77-1.76-.79-1.76-1.77-1.76Z" style="fill:#fc3819;"/><path d="M27.53,64.89c0,.68,.56,1.23,1.24,1.23s1.24-.55,1.24-1.23-.55-1.23-1.24-1.23-1.24,.55-1.24,1.23Z" style="fill:#fc3819;"/><path d="M17.04,79.02c-.72,0-1.3,.58-1.3,1.29s.58,1.29,1.3,1.29,1.3-.57,1.3-1.29-.58-1.29-1.3-1.29Z" style="fill:#fc3819;"/><path d="M29.07,39.34c0-.55-.45-.99-1-.99s-1,.44-1,.99,.45,.99,1,.99,1-.45,1-.99Z" style="fill:#fc3819;"/><path d="M48.22,87.46c-.71,0-1.28,.57-1.28,1.27s.57,1.27,1.28,1.27,1.28-.57,1.28-1.27-.57-1.27-1.28-1.27Z" style="fill:#fc3819;"/><path d="M28.78,74.55c0-1.57-1.06-2.9-2.52-3.32,.13-.17,.2-.37,.2-.6,0-.54-.45-.99-1-.99s-1,.44-1,.99c0,.19,.06,.37,.15,.53,.13-.02,.26-.04,.39-.05-.13,.01-.27,.03-.39,.05,.04,.07,.1,.13,.16,.19-.06-.06-.11-.12-.16-.19-1.61,.31-2.82,1.71-2.82,3.39,0,.61,.16,1.19,.44,1.69-.13,.25-.21,.53-.21,.83,0,.97,.79,1.76,1.77,1.76,.62,0,1.17-.32,1.49-.81h0s0,0,0,0c1.93,0,3.49-1.55,3.49-3.47Zm-3.08-2.96c-.08,.02-.15,.03-.24,.03-.07,0-.15-.01-.21-.03,.07,.02,.14,.03,.22,.03,.08,0,.16,0,.23-.03Zm-.49,0s-.04-.02-.07-.03c.02,0,.04,.02,.07,.03Zm-1.41,3.72h0c-.67,0-1.26,.38-1.56,.93,.02,.03,.04,.05,.05,.08-.02-.03-.04-.05-.05-.08,.3-.56,.89-.93,1.56-.93Zm1.74,2.07c-.03,.19-.1,.37-.19,.54,.09-.16,.16-.34,.19-.54Z" style="fill:#fc3819;"/><path d="M22.31,68.96c1.71,0,3.1-1.38,3.1-3.08s-1.39-3.07-3.1-3.07-3.1,1.37-3.1,3.07,1.39,3.08,3.1,3.08Z" style="fill:#fc3819;"/><path d="M9.8,62.33c0,1.18,.97,2.14,2.16,2.14s2.15-.96,2.15-2.14-.96-2.14-2.15-2.14-2.16,.95-2.16,2.14Z" style="fill:#fc3819;"/><path d="M15.74,56.6c1.35-.03,2.41-1.14,2.39-2.47-.03-1.32-1.12-2.37-2.44-2.37h-.05c-1.35,.04-2.42,1.14-2.39,2.48,.03,1.32,1.12,2.37,2.44,2.37h.06Z" style="fill:#fc3819;"/><path d="M35.08,71.83h0s0,0,0,0c.36,.4,.89,.65,1.47,.65,.35,0,.67-.09,.95-.25,0-.06-.01-.13-.01-.19,0-.71,.42-1.32,1.03-1.6-.04-1.04-.91-1.88-1.97-1.88-.29,0-.57,.06-.82,.18-.21,.46-.54,.86-.94,1.17,.4-.31,.73-.7,.94-1.17-.05,.02-.09,.05-.13,.08,.04-.02,.08-.06,.13-.08,.18-.39,.27-.81,.27-1.26,0-1.7-1.39-3.08-3.1-3.08s-2.96,1.24-3.09,2.82c0,0,0,0,0,0,0,.05,0,.1,0,.15,0-.05,0-.1,0-.15-.29-.21-.65-.33-1.03-.33-.98,0-1.78,.78-1.78,1.76s.79,1.76,1.78,1.76c.74,0,1.37-.45,1.64-1.09,.34,.45,.8,.81,1.33,1.02-.21,.3-.34,.67-.34,1.07,0,.52,.22,1,.57,1.33h0c.21,.2,.48,.35,.77,.43-.29-.08-.56-.23-.77-.43-.78,.31-1.33,1.07-1.33,1.95,0,1.16,.95,2.1,2.11,2.1s2.11-.94,2.11-2.1c0-.66-.3-1.24-.78-1.63,.49-.24,.86-.69,.98-1.22Zm-5.13-3.45c.05,.16,.11,.31,.18,.45-.07-.15-.13-.3-.18-.45Zm.57,.58s0,.02,0,.03c0,0,0-.02,0-.03Zm4.1,1.16s0,.03,0,.05c0-.02,0-.04,0-.05,.08,.08,.15,.17,.21,.27-.06-.1-.13-.19-.21-.27Zm0,0s-.03-.03-.05-.05c.03-.02,.05-.03,.08-.05,0,.03-.02,.07-.02,.1Zm-2.31,.37s-.03-.01-.05-.01c.02,0,.03,.01,.05,.01Z" style="fill:#fc3819;"/><path d="M34.85,84.32c-1.03,0-1.86,.83-1.86,1.85s.83,1.85,1.86,1.85,1.86-.83,1.86-1.85-.83-1.85-1.86-1.85Z" style="fill:#fc3819;"/><path d="M54.41,84.5c-1.21,0-2.19,.97-2.19,2.17s.98,2.16,2.19,2.16,2.19-.97,2.19-2.16-.98-2.17-2.19-2.17Z" style="fill:#fc3819;"/><path d="M19.84,68.63s-.06,0-.09,0c-1.33,0-2.43,1.05-2.48,2.38,0,.21,.01,.41,.05,.6,0,0,0,0,0,0,.09,.44,.31,.83,.61,1.15-.3-.32-.51-.71-.61-1.15-.06,0-.13,0-.2,0-1.22,0-2.21,.98-2.21,2.2s.99,2.19,2.21,2.19,2.22-.98,2.22-2.19c0-.1,0-.19-.02-.28h0s0,0,0,0h0s0,0,0,0c0-.06-.03-.12-.04-.18,.01,.06,.03,.12,.04,.18,.11,.02,.23,.03,.34,.03,.03,0,.06,0,.09,0,1.33,0,2.43-1.04,2.47-2.38,.05-1.36-1.03-2.5-2.4-2.54Z" style="fill:#fc3819;"/><path d="M33.44,32.48c.32-.31,.76-.5,1.25-.5,.15,0,.29,.02,.43,.05,.63-.45,1.03-1.18,1.03-2,0-.33-.07-.65-.19-.93,0,0,0,0,0,0,.48-.21,.81-.69,.81-1.25,0-.76-.62-1.37-1.38-1.37-.68,0-1.24,.48-1.36,1.12,.88,.13,1.6,.71,1.93,1.5h0c-.33-.79-1.05-1.37-1.93-1.5-.01,.05-.01,.11-.02,.17,0-.06,0-.12,.01-.17-.12-.02-.24-.03-.37-.03-1.37,0-2.48,1.1-2.48,2.46,0,1.28,.99,2.34,2.25,2.46Z" style="fill:#fc3819;"/><path d="M6.5,57.26c-.07,0-.15,0-.22,.02-.66,.12-1.09,.75-.97,1.4,.11,.57,.62,.98,1.18,.98,.07,0,.15,0,.22-.02,.66-.12,1.09-.74,.97-1.39-.1-.58-.61-.98-1.18-.98Z" style="fill:#fc3819;"/><path d="M11.81,50.53c.06,0,.12,0,.18-.02,.54-.09,.89-.6,.79-1.14-.09-.47-.5-.8-.97-.8-.06,0-.12,0-.17,.01-.53,.1-.89,.61-.79,1.14,.09,.47,.5,.8,.97,.8Z" style="fill:#fc3819;"/><path d="M61.62,38.72s-.09,.1-.12,.15c.07-.02,.15-.04,.22-.07-.03-.03-.06-.05-.09-.08Z" style="fill:#fc3819;"/></svg>