<?xml version="1.0" encoding="UTF-8"?><svg id="Layer_1" xmlns="http://www.w3.org/2000/svg" viewBox="0 0 70 112"><rect x="30.86" y="74.72" width="7.85" height="27.28" style="fill:#fc3819;"/><polygon points="25.8 40.55 25.8 27.91 2.92 56.54 13.02 56.54 25.8 40.55" style="fill:#fc3819; fill-rule:evenodd;"/><rect x="43.76" y="74.72" width="7.85" height="14.21" style="fill:#fc3819;"/><polygon points="51.61 16.4 43.76 26.22 43.76 26.22 43.76 56.54 51.61 56.54 51.61 16.4" style="fill:#fc3819; fill-rule:evenodd;"/><polygon points="17.95 102 17.96 102 25.81 102 25.81 94.05 17.95 94.05 17.95 102" style="fill:#fc3819; fill-rule:evenodd;"/><polygon points="44.92 4 44.92 4 43.76 5.45 43.76 18.09 51.02 9.01 44.92 4" style="fill:#fc3819; fill-rule:evenodd;"/><rect x="43.76" y="94.05" width="19.63" height="7.95" style="fill:#fc3819;"/><polygon points="30.86 21.6 30.86 56.54 38.71 56.54 38.71 11.77 30.86 21.59 30.86 21.6" style="fill:#fc3819; fill-rule:evenodd;"/><polygon points="50.98 61.66 44.62 69.61 70 69.61 70 61.66 50.98 61.66" style="fill:#fc3819; fill-rule:evenodd;"/><rect x="0" y="61.66" width="38.71" height="7.96" style="fill:#fc3819;"/></svg>