<?xml version="1.0" encoding="UTF-8"?><svg id="Layer_1" xmlns="http://www.w3.org/2000/svg" viewBox="0 0 157 112"><path d="M98.24,66.27c.17-.65,.29-1.34,.39-2.06h0c.16-1.46,.07-2.96-.32-3.8h0c-.18-.35-.4-.59-.7-.67-.34-.06-.69,.02-1.02,.23-.84,.53-1.67,1.79-2.29,3.16h0c-.34,.8-.62,1.64-.82,2.44-.06,.3-.12,.65-.2,1.01-.28,1.64-.42,3.49,.08,4.48,.19,.32,.45,.58,.82,.68,.31,.05,.63-.03,.98-.24h-.02c.98-.58,1.95-2.16,2.62-3.77,.17-.49,.35-.98,.48-1.45Zm-17.52,1.56c.64-1.25,1.2-2.66,1.68-4.04,.44-1.24,.8-2.42,1.04-3.48h0c.08-.38,.16-.73,.24-1.11-.63,.12-1.22,.37-1.83,.7-1.14,.67-2.26,1.73-3.16,2.94h0c-.95,1.21-1.71,2.59-2.22,3.88-.53,1.34-.79,2.63-.68,3.57h0c.06,.54,.26,.97,.59,1.25,.69,.57,1.49,.27,2.27-.55,.7-.71,1.42-1.84,2.06-3.17m-14.12-9.74c.47-.74,.56-1.56,.24-1.96-.03-.03-.07-.05-.07-.05h0c-.21-.2-.54-.27-.88-.24h0c-.5,.07-1.05,.28-1.37,.48-1.08,.71-2,1.34-2.92,2.14h0c-1,.91-2.02,1.98-3.26,3.48-.04,.03-.07,.08-.11,.11h0c-.71,.89-1.52,2-2.25,3.17h-.03c-.69,1.07-1.31,2.2-1.77,3.25h0c-.98,2.23-1.18,4.12,.5,4.48,1.26,.29,2.55-1.13,3.55-2.4,.24-.3,.46-.59,.68-.85h0c.96-1.23,1.72-2.24,2.37-3.12,.8-1.08,1.48-2.06,2.18-3.14h-.02c.68-1.08,1.42-2.29,2.34-3.9h0c.28-.43,.54-.91,.82-1.44m89.78,1.6c-.92-.75-2.3-.41-3,.48-.49,.6-.93,1.3-1.39,2.06h0c-.6,.98-1.24,2.09-2.01,3.22h0c-.23,.38-.49,.76-.77,1.16-.43,.59-.94,1.3-1.47,1.95-1.43,1.76-3.09,3.35-4.26,2.64-.89-.53-.55-1.91,.32-3.62,.48-1.01,1.16-2.12,1.89-3.23h0c.2-.32,.38-.66,.6-.97,.3-.5,.93-1.41,1.24-2.27h0c.3-.74,.33-1.47-.16-1.91-1.07-.98-2.37-.37-3.37,.58-.08,.1-.18,.22-.3,.34h0c-.79,.88-1.7,1.93-2.63,3.03h0c-.86,1-1.73,2.05-2.61,3.06h0c-1.18,1.34-2.35,2.59-3.37,3.61h0c-1.87,1.81-3.29,2.76-3.54,1.57-.13-.7-.03-1.55,.23-2.44h0c.38-1.26,1.09-2.65,2-3.94h0c.38-.58,.8-1.13,1.24-1.65,.49-.56,.85-1.07,1.06-1.47h0c.59-1.07,.45-1.65,.28-1.94-1.22-2.13-3.08,.02-5.36,0,.5-.81,.98-1.87,1.12-2.8h0c.12-.79,0-1.45-.56-1.82-1.19-.75-2.51-.25-3.49,.7,0,.04-.02,.06-.02,.06h-.02c-.72,.77-1.14,1.89-1.4,3.36h0c-.15,.87-.23,1.85-.29,2.95-.1,.2-.19,.42-.32,.63-.68,1.27-1.56,2.58-2.48,3.82h0c-.92,1.16-1.87,2.25-2.79,3.01h.04c-1.4,1.22-2.63,1.72-3.18,.89-.24-.37-.28-.6-.36-1.02,.18-.21,.37-.41,.57-.64h0c1.09-1.23,1.87-2.17,2.48-3.07h0c.69-.97,1.2-1.88,1.71-2.94,.16-.32,.31-.64,.43-.99,.49-1.27,.81-2.65,.47-3.59-.14-.39-.38-.7-.79-.92-.52-.27-1.19-.14-1.9,.23h0c-1.08,.6-2.26,1.82-3.02,2.93h0c-.94,1.38-1.55,2.64-2.04,3.96h0c-.42,1.05-.76,2.18-1.13,3.44-.07,.16-.11,.32-.19,.48-.66,.98-1.43,2.02-2.29,2.61-.58,.37-1.18,.58-1.79,.43-.61-.15-.92-.59-.99-1.16h0c-.09-.85,.33-2.1,1-3.47,.52-1.05,1.18-2.17,1.89-3.23h0c.94-1.38,1.92-2.67,2.62-3.55,.06-.07,.1-.12,.18-.22,.94-1.48,.97-2.9-.15-3.57-1.06-.61-2.49,.24-3.44,1.34-.31,.35-.63,.72-1,1.08h0c-.61,.62-1.33,1.22-2.23,1.83-.92,.63-1.68,1.06-2.48,1.41h-.02c-.57,.25-1.21,.46-1.98,.68,.02-.32,.03-.78,0-1.18h0c-.02-1.52-.25-3.43-1.2-4.76h0c-.87-1.29-2.39-2.03-4.98-1.43,.36-1.27,.71-2.32,1.14-3.29h0c.52-1.12,1.11-2.11,1.94-3.21h0c.23-.34,.54-.71,.84-1.07,.74-.92,1.8-2.1,3.16-3.22,1.33-1.46,1.91-3.01,1.05-3.94-.68-.71-1.88-.88-2.88-.46-1.45,.63-1.99,1.36-3.98,3.57-1.81,.97-3.06,1.26-5.13,1.25-1.72-.03-2.76-.19-4.31-.92-1.62-.79-2.63-1.77-3.5-2.98-.65-.93-1.98-1.24-2.77-.83-1.33,.6-1.93,2.41-1.09,3.61,.04,.08,.08,.18,.14,.28h0c.96,1.93,1.22,2.43,1.79,4.16h0c.06,.13,.09,.28,.13,.42,.35,1.06,.59,2.18,.55,3.49,0,.64-.06,1.34-.23,2.06-1.19,.45-2.25,.95-3.21,1.5h0c-1.4,.8-2.58,1.73-3.65,2.79h0c-.28,.26-.56,.53-.83,.83-.69,.73-1.31,1.49-1.82,2.21h0c-.89,1.22-1.56,2.49-2.08,3.91v.02c-.39,1.03-.71,2.17-.99,3.46h0c-.05,.25-.09,.49-.14,.72-.56,.92-1.15,1.82-1.74,2.5h0c-.75,.81-1.54,1.35-2.33,1.05-.69-.25-.93-1.09-.96-1.9-.03-.61,.1-1.28,.16-1.64,.2-.69,.38-1.29,.54-1.87,.43-1.44,.78-2.52,1.14-3.41h0c.54-1.35,1.11-2.42,1.91-3.97,.36-.7,.75-1.48,1.22-2.48,.15-.28,.28-.58,.42-.83v-.02c.48-1.09,.75-2.12,.31-3.38-.04-.08-.08-.17-.13-.27h0c-1.01-2.13-4.12-2.21-6.23-1.6h-.01c-.23,.07-.41,.13-.63,.21-1.43,.57-2.82,1.37-4.19,2.28h0c-1.24,.86-2.45,1.8-3.56,2.81h0c-1.33,1.12-2.57,2.34-3.67,3.5h0c-1.06,1.09-2.02,2.12-2.85,3h0c-1.15,1.26-2.1,2.24-2.79,2.77-.08,.06-.14,.14-.22,.17h0c-4.58,3.51-11.29,6.51-17.94,7.34h0c-5.98,.76-11.93-.25-16.23-4.13v-.02c-.78-.72-1.5-1.51-2.18-2.43-2.04-2.83-2.59-6.57-1.96-10.52h0c.15-1.15,.43-2.36,.81-3.51v-.02c.36-1.13,.78-2.25,1.28-3.39,.58-1.33,1.26-2.63,2.05-3.94,.64-1.06,1.38-2.15,2.15-3.17h0c.78-1.05,1.64-2.1,2.53-3.08h0c1.19-1.25,2.44-2.42,3.77-3.5h0c1.25-1.01,2.56-1.91,3.9-2.7h0c.39-.21,.75-.43,1.11-.62,1.26-.65,2.56-1.25,3.94-1.82h0c10.61-4.3,24.57-5.68,29.36,1.74,1.25,1.92,1.58,3.99,1.22,6.08-.19,1.14-.59,2.29-1.12,3.43h0c-.54,1.06-1.2,2.17-1.99,3.21-.96,1.28-2.07,2.5-3.26,3.63-.68,.64-1.4,1.28-2.11,1.86-.44,.32-.88,.65-1.37,.95h0c-1.48,.95-3.19,1.82-5.01,2.47h0c-3.11,1.16-6.58,1.88-9.71,1.99-3.28,.08-6.21-.53-7.97-2.04h0c-.6-.53-1.05-1.17-1.34-1.9-.43-1.05-.66-2.1-.67-3.07h0c-.07-1.25,.14-2.45,.57-3.58h0c.45-1.15,1.08-2.23,1.91-3.24,.62-.78,1.83-2.11,3.86-3.48h0c1.42-.99,3.02-1.82,4.73-2.51h0c2.32-.9,4.85-1.56,7.37-1.8h0c1.21-.15,2.45-.22,3.61-.15,.99,.43,2.33-.47,2.26-1.56-.05-.77-.58-1.36-1.36-1.46-4.76-.83-7.86-.21-12.32,1.03-.08,.02-.17,.04-.26,.08h0c-1.84,.53-3.69,1.31-5.48,2.3-1.37,.79-2.74,1.68-3.99,2.68h0c-1.33,1.08-2.55,2.27-3.62,3.57v-.03c-.52,.66-1.32,1.65-2.15,3.16h-.01c-.57,1.1-1.05,2.21-1.37,3.38h0c-.4,1.4-.62,2.85-.54,4.32h0c.05,1.28,.3,2.59,.76,3.92h0l.05,.14c.73,1.93,1.98,3.43,3.62,4.49,2.32,1.53,5.39,2.24,8.79,2.26,2.89,.02,6.03-.46,9.13-1.37,1.94-.58,3.9-1.35,5.74-2.26h0c1.24-.61,2.45-1.29,3.6-2.02,.54-.35,1.08-.72,1.63-1.1h0c1.21-.86,2.44-1.8,3.59-2.8h0c1.1-.91,2.14-1.91,3.11-2.94h0c1.1-1.17,2.1-2.43,2.95-3.7h0c.69-1.06,1.28-2.14,1.78-3.25,.47-1.13,.82-2.29,1.03-3.46h0c.58-3.43-.12-7.04-2.75-10.7-5.59-7.74-25.05-9.28-41.31-.56h0c-1.46,.78-2.91,1.64-4.32,2.6h0c-1.27,.87-2.48,1.78-3.68,2.8h0c-1.28,1.09-2.53,2.26-3.71,3.51h0c-.26,.26-.49,.52-.74,.81-.66,.74-1.29,1.49-1.91,2.25-.79,1.02-1.54,2.08-2.21,3.13v.02c-.83,1.29-1.57,2.58-2.19,3.88h0c-.53,1.12-.99,2.25-1.38,3.37h0c-.4,1.15-.72,2.34-.96,3.47H.53c-.88,4.27-.67,8.39,.7,12.09h0c1.49,4.03,4.34,7.55,8.55,10.15,8.62,5.27,19.79,5,29.93-.3h0c2.82-1.49,5.56-3.38,8.15-5.61-.48,2.67-.12,5.37,2.33,6.53,4.49,2.13,8.25-1.14,11.36-4.61-.06,2.38,1.4,4.26,3.69,4.89,1.97,.54,4.38-1.4,5.88-3.45,.32,1.25,1.46,2.63,2.55,3.11,2.17,.9,4.65-.1,6.93-2.32h0c.85-.88,1.69-1.92,2.47-3.1h0c.64-.98,1.26-2.07,1.79-3.25h0c.19-.41,.37-.81,.55-1.25,.41-.98,.73-1.9,1.06-2.81,.39-1.16,.75-2.3,1.01-3.45,.26-1.16,.5-2.34,.64-3.55h0c.18-1.38,.3-2.8,.35-4.38h0c.06-1.16,.06-2.4,.04-3.71h0v-.29c2.92,1.28,6.42,0,6.42,0-.26,.54-.56,1.12-.85,1.73h0c-.51,1.05-1.03,2.17-1.5,3.33h-.03c-.55,1.31-1.07,2.67-1.57,4.05v.02c-.39,1.13-.78,2.29-1.12,3.42h0c-.35,1.18-.63,2.38-.87,3.49h0c-.33,1.55-.54,3.02-.56,4.32,0,0,0,1.51,.1,2.16,.08,.65,.36,1.69,.36,1.69,.62,1.87,1.68,2.93,3.21,3.46,1.71,.57,3.43,.13,5.06-1.35h0c.84-.76,1.67-1.78,2.44-3.09h0c.69-1.12,1.36-2.45,1.97-3.95h0c.2-.46,.41-.95,.58-1.43,.72-.22,1.1-.34,1.8-.6,.64-.24,1.02-.39,1.61-.68v.03s.07-.04,.07-.04v.04c-.46,1.1-.89,2.26-1.19,3.41-.41,1.53-.64,3.04-.52,4.32h0c.17,1.75,.99,3.08,2.86,3.49,1.66,.39,3.2-.48,4.59-1.59h0c.72-.58,1.38-1.23,2.02-1.79,1.72,3.85,4.41,3.04,5.52,2.35,.96-.6,1.9-1.41,2.83-2.36h-.02c.84-.9,1.68-1.95,2.5-3.09h0c.71-.98,1.39-2.06,2.08-3.19h.01c.66-1.1,1.32-2.26,1.98-3.45l1.41-.14,1.07-.08c-.08,.08-.15,.2-.22,.3h0c-.76,1.15-1.56,2.54-2.16,3.93h0c-.49,1.16-.89,2.34-1.07,3.41h-.02c-.23,1.48-.11,2.83,.6,3.89h0c.37,.52,.91,.96,1.64,1.32,.71,.33,1.63,.19,2.62-.23v-.02c1.19-.52,2.48-1.53,3.73-2.75h0c.94-.92,1.84-1.96,2.65-3.03h0c.15-.2,.32-.39,.42-.57-.04,.18-.08,.4-.12,.64-.28,1.36-.34,2.67,.06,3.72h0c.28,.7,.8,1.28,1.59,1.69,1.02,.53,2.2,.24,3.4-.4h0c1.23-.67,2.47-1.76,3.51-2.83,.08-.07,.19-.17,.24-.24-.04,.08-.08,.18-.13,.27-.55,1.11-1.15,2.23-1.74,3.28h0c-.6,1.13-1.22,2.2-1.79,3.25h0c-.79,1.44-1.43,2.79-1.86,3.99h0c-.09,.28-.16,.57-.2,.85-.26,1.01,0,1.95,.75,2.73,.16,.15,.34,.29,.47,.39l.02,.02c.54,.34,1.12,.4,1.86,.5v-.04h0c-.02-.46,0-.72,.06-1.16,.09-.73,.2-1.12,.47-1.76,.1-.2,.18-.4,.26-.58h0c.68-1.49,1.29-2.8,1.89-3.97,.57-1.23,1.15-2.29,1.64-3.31h0c.59-1.15,1.16-2.21,1.72-3.27h0c.69-1.29,1.35-2.56,2.07-3.94,.51-1.03,1.06-2.1,1.64-3.3,.47-1.01,.99-2.1,1.54-3.3h0c.1-.24,.19-.43,.28-.65,.45-1.02,.7-2.26-.22-3.02" style="fill:#fc3819; fill-rule:evenodd;"/></svg>