<?xml version="1.0" encoding="UTF-8"?><svg id="Layer_1" xmlns="http://www.w3.org/2000/svg" viewBox="0 0 110 112"><path d="M28.16,55.98c0-1.1-.35-1.95-1.34-1.95-1.12,0-1.46,1.1-1.46,2.22v.18l2.8,.02v-.47Z" style="fill:#fc3819;"/><path d="M51.35,72.52c0,.7,.27,1.12,.76,1.12h.02c.55,0,1.05-.33,1.05-1.2v-1.54c-.83,.44-1.18,.44-1.43,.65-.29,.23-.45,.6-.4,.97Z" style="fill:#fc3819;"/><path d="M18.33,51.6h-1.52v8.78h1.52c1.52,0,2.16-1,2.16-4.39s-.55-4.4-2.16-4.4Z" style="fill:#fc3819;"/><path d="M60.01,60.61h0c1,0,1.46-.75,1.46-3.17,0-1.97-.26-3.23-1.48-3.23s-1.47,1.23-1.47,3.11c0,2.09,.26,3.29,1.49,3.29Z" style="fill:#fc3819;"/><path d="M41.23,54.03c-1.12,0-1.46,1.1-1.46,2.22v.18l2.8,.02v-.47c0-1.1-.36-1.95-1.34-1.95Z" style="fill:#fc3819;"/><path d="M69.08,68.17v-.02c-.95,0-1,1.05-1,2.66,0,1.41,.03,2.76,1.02,2.76,.78,0,.95-.94,.95-2.64,0-1.56-.07-2.76-.96-2.76Z" style="fill:#fc3819;"/><path d="M52.26,60.72c1.28,0,1.51-1.07,1.51-3.29,0-1.93-.23-3.29-1.51-3.29s-1.49,1.36-1.49,3.29c0,2.22,.23,3.29,1.49,3.29Z" style="fill:#fc3819;"/><path d="M79.62,54.03c-1.11,0-1.46,1.1-1.46,2.22v.18l2.81,.02v-.47c0-1.1-.36-1.95-1.35-1.95Z" style="fill:#fc3819;"/><path d="M110,23.15v-3.06H0s0,3.04,0,3.04c1.17,0,2.11,.95,2.11,2.13,0,1.18-.95,2.13-2.11,2.13v4.53c1.17,0,2.11,.95,2.11,2.13,0,1.18-.95,2.13-2.11,2.13v4.52c1.17,0,2.11,.95,2.11,2.13,0,1.18-.95,2.13-2.11,2.13v4.53c1.16,0,2.11,.95,2.11,2.12h0c0,1.18-.95,2.14-2.11,2.14v4.51c1.17,0,2.11,.95,2.11,2.13,0,1.17-.94,2.13-2.1,2.13h0v4.53c1.17,0,2.11,.95,2.11,2.13,0,1.18-.95,2.13-2.11,2.13v4.53c.15,0,.3,.01,.44,.04,.98,.21,1.68,1.08,1.69,2.09,0,1.18-.95,2.13-2.11,2.13v4.61h-.01c.15,0,.29,.01,.44,.04,.98,.21,1.68,1.08,1.69,2.09,0,1.18-.95,2.13-2.11,2.13v2.96H110v-2.96c-1.16,0-2.11-.95-2.11-2.13s.94-2.13,2.11-2.13v-4.62c-1.16,0-2.11-.95-2.11-2.13s.94-2.13,2.11-2.13v-4.52c-1.17,0-2.11-.95-2.11-2.13,0-1.18,.95-2.13,2.11-2.13v-4.53c-1.17,0-2.11-.95-2.11-2.13,0-1.18,.95-2.13,2.11-2.13v-4.52c-1.17,0-2.11-.95-2.11-2.13,0-1.18,.95-2.13,2.11-2.13v-4.53c-1.17,0-2.11-.95-2.11-2.13,0-1.18,.95-2.13,2.11-2.13v-4.51c-1.17,0-2.11-.95-2.11-2.13s.95-2.13,2.11-2.13v-4.53c-1.17,0-2.11-.95-2.11-2.13s.95-2.13,2.11-2.13Zm-57.74,29.69c2.55,0,3.26,1.88,3.26,4.58s-.83,4.59-3.26,4.59-3.24-1.88-3.24-4.59,.71-4.58,3.24-4.58Zm-6.42-2.63h1.75v11.57h-1.75v-11.57Zm-8.96-13.44h1.36v11.57h-1.36v-11.57Zm-3.3,0h1.36v11.57h-1.36v-11.57Zm-3.3,0h1.36v1.57h-1.36v-1.57Zm-3.45,24.04c1.31,0,1.39-1.42,1.39-1.94h1.65c0,1.93-1.17,3.15-3.06,3.15-1.43,0-3.19-.44-3.19-4.44,0-2.28,.48-4.71,3.23-4.71,2.43,0,3.08,1.46,3.08,3.89v.92l-4.55-.03v.5c0,1.17,.15,2.66,1.46,2.66Zm-6.72-15.45c0-3.27-5.46-1.38-5.46-5.63,0-1.07,.44-3.19,3.38-3.19,2.2,0,3.21,1.1,3.24,3.22h-1.41c0-1.22-.44-2.06-1.8-2.06-1.2,0-1.91,.65-1.91,1.88,0,3.26,5.46,1.31,5.46,5.54,0,2.66-1.96,3.44-3.59,3.44-2.71,0-3.52-1.4-3.52-3.86h1.43c0,1.3,.08,2.69,2.17,2.69,1.07,.04,1.97-.8,2.01-1.88,0-.05,0-.11,0-.16Zm-1.85,30.09c-1.98,0-3.81-.6-3.81-3.02v-.75h2.67v.4c0,.89,.24,1.54,1.18,1.54s1.23-.71,1.23-1.38c0-2.5-4.99-1.08-4.99-5.43,0-1.85,.99-3.4,3.79-3.4s3.7,1.38,3.7,3.16v.27h-2.64c.03-.42-.04-.84-.22-1.22-.18-.28-.5-.44-.83-.4-.68,0-1.08,.4-1.08,1.25,0,2.41,4.97,1.2,4.97,5.28,0,2.63-1.46,3.68-3.96,3.68Zm0-13.69h-3.29v-11.56h3.29c3.63,0,4.08,2.36,4.08,5.79s-.44,5.77-4.08,5.77Zm4.75-25h1.36v6.89h.03l3.04-4.01h1.59l-2.64,3.27,3.09,5.41h-1.59l-2.42-4.29-1.11,1.36v2.93h-1.36v-11.57Zm3.76,36.96c.78,0,.96-.54,.99-2.07h2.43c0,2.71-1.09,3.79-3.47,3.79-3.3,0-3.56-2.32-3.56-4.93,0-2.46,.71-4.29,3.56-4.29s3.47,1.44,3.47,3.55l-2.43-.02c0-1.28-.29-1.81-.99-1.81-.88,0-.99,1.1-.99,2.9,0,1.97,.11,2.88,.99,2.88Zm3.52-34.08h1.36v8.69h-1.36v-8.69Zm2.24,13.41l1.52,6.88h.04l1.38-6.88h1.86l-2.3,8.72h-2.04l-2.33-8.72h1.88Zm2.04,22.39c-3.21,0-3.61-1.97-3.61-4.59s.58-4.64,3.61-4.64c3.21,0,3.61,1.96,3.61,4.59s-.58,4.64-3.61,4.64Zm8.98-7.18h-1.23v4.44c0,.62,.23,.81,.84,.81,.13,0,.25-.01,.37-.03v1.75c-.5,.07-1,.1-1.5,.1-1.82,0-2.33-.32-2.33-2.36v-4.7h-1.09v-1.81h1.09v-2.58h2.64v2.58h1.21v1.81Zm.78-10.59l-4.54-.03v.5c0,1.17,.15,2.66,1.46,2.66,1.25,0,1.39-1.42,1.39-1.94h1.65c0,1.93-1.17,3.15-3.08,3.15-1.43,0-3.19-.44-3.19-4.44,0-2.28,.48-4.71,3.23-4.71,2.43,0,3.08,1.46,3.08,3.89v.92Zm-1.7-9.1c-2.95,0-2.98-2.19-2.98-3.08h1.36c0,1.05,.29,2.01,1.62,2.01,.75,.05,1.39-.53,1.44-1.29,0-.05,0-.11,0-.16,0-1.17-1.07-1.41-2.12-1.77-1.05-.36-2.14-.67-2.14-2.47,0-1.62,1.27-2.4,2.78-2.4,2.53,0,2.64,1.75,2.64,2.77h-1.36c0-1.1-.29-1.69-1.28-1.69-.44,0-1.41,.11-1.41,1.33,0,1.02,1.07,1.22,2.14,1.57,1.07,.35,2.13,.73,2.13,2.45,0,1.83-1.18,2.72-2.8,2.72Zm4.99,26.65h-2.63v-11.57h2.63v11.57Zm5.8,0c-.09-.33-.14-.66-.14-1h-.02c-.39,.78-1.19,1.26-2.06,1.23-1.47,0-2.33-.78-2.33-2.66-.05-.88,.35-1.72,1.06-2.22,.76-.32,1.55-.56,2.35-.71,.8-.21,.94-.34,.94-1,.07-.42-.21-.81-.63-.88-.07-.01-.14-.01-.2,0-.73,0-.94,.44-.95,1.2l-2.35-.03c0-1.2,.37-1.93,.99-2.35,.62-.43,1.36-.56,2.44-.56,2.16,0,3.12,.75,3.12,2.6v4.5c0,.67,0,1.5,.31,1.89h-2.53Zm3.47-22.16h1.65v1.07h.04c.32-.8,1.1-1.32,1.96-1.3,1.99,0,2.8,1.7,2.8,4.7,0,3.66-1.49,4.47-2.69,4.47-.85,.04-1.64-.45-1.98-1.25h-.03v3.87h-1.76v-11.57Zm7.33,22.16h-2.64v-5.98c0-.63-.28-1.01-.76-1.01s-.94,.39-.94,1.25v5.73h-2.64l.03-8.77h2.53v1.03h.03c.39-.8,1.22-1.3,2.11-1.26,1.49,0,2.29,.75,2.29,2.43v6.56Zm8.42-.02h-2.53v-1.05h-.04c-.26,.82-1.04,1.36-1.9,1.3-1.76,0-2.71-1.26-2.71-4.54,0-2.72,.39-4.68,2.54-4.68,.84-.06,1.62,.41,1.96,1.18h.03v-3.78h2.64v11.57Zm2.27-13.42h-1.76v-5.98c0-1.14-.34-1.57-1.05-1.57s-1.39,.57-1.39,1.7v5.85h-1.76v-5.98c0-1.14-.34-1.57-1.07-1.57s-1.38,.57-1.38,1.7v5.85h-1.76l.04-8.72h1.65v1.02h.04c.43-.76,1.22-1.23,2.09-1.24,1.25,0,1.76,.6,2.02,1.33,.41-.84,1.27-1.36,2.2-1.33,1.23,0,2.12,.63,2.12,2.32v6.63Zm7.82-4.11l-4.54-.03v.5c0,1.17,.15,2.66,1.46,2.66s1.39-1.42,1.39-1.94h1.65c0,1.93-1.17,3.15-3.08,3.15-1.43,0-3.19-.44-3.19-4.44,0-2.28,.49-4.71,3.23-4.71,2.43,0,3.08,1.46,3.08,3.89v.92Zm7.55,4.11h-1.76v-5.98c0-1.14-.34-1.57-1.21-1.57-.71,0-1.39,.57-1.39,1.7v5.85h-1.76l.03-8.72h1.65v1.02h.05c.47-.79,1.32-1.27,2.24-1.24,1.32,0,2.17,.6,2.17,2.36v6.58Zm5.3-7.43h-1.43v5.2c0,.68,.19,.92,.79,.92,.21,0,.42-.01,.63-.04v1.3c-.46,.11-.93,.16-1.41,.15-1.18,0-1.76-.33-1.76-2.11v-5.42h-1.2l-.02-1.29h1.2v-2.48h1.76v2.48h1.43v1.29Z" style="fill:#fc3819;"/><path d="M34.57,67.95c-.78,0-1.01,.76-1.01,2.88s.23,2.9,1.01,2.9,.97-.73,.97-2.88-.16-2.9-.97-2.9Z" style="fill:#fc3819;"/></svg>