<?xml version="1.0" encoding="UTF-8"?><svg id="Layer_1" xmlns="http://www.w3.org/2000/svg" viewBox="0 0 150 112"><rect x="0" y="33.37" width="43.64" height="3.42" rx=".39" ry=".39" style="fill:#fc3819;"/><path d="M.39,38.08H8.55c.22,0,.39,.18,.39,.39v4.99c0,.22-.18,.39-.39,.39H.4c-.22,0-.4-.18-.4-.4v-4.99c0-.22,.18-.39,.39-.39Z" style="fill:#fc3819;"/><path d="M.39,73.39H8.55c.22,0,.39,.18,.39,.39v4.99c0,.22-.18,.39-.39,.39H.4c-.22,0-.4-.18-.4-.4v-4.99c0-.22,.18-.39,.39-.39Z" style="fill:#fc3819;"/><path d="M35.09,38.08h8.15c.22,0,.39,.18,.39,.39v4.99c0,.22-.18,.39-.39,.39h-8.15c-.22,0-.39-.18-.39-.39v-5c0-.22,.18-.39,.39-.39Z" style="fill:#fc3819;"/><path d="M35.1,73.39h8.15c.22,0,.39,.18,.39,.39v4.99c0,.22-.18,.39-.39,.39h-8.15c-.22,0-.39-.18-.39-.39v-4.99c0-.22,.18-.39,.39-.39Z" style="fill:#fc3819;"/><path d="M35.11,72.1h4.68c.22,0,.4-.18,.4-.4v-26.16c0-.22-.18-.4-.4-.4h-4.68c-.22,0-.4,.18-.4,.4v26.16c0,.22,.18,.4,.4,.4Z" style="fill:#fc3819;"/><path d="M8.54,45.14H3.86c-.22,0-.41,.18-.41,.4v26.16c0,.22,.18,.4,.41,.4h4.68c.22,0,.41-.18,.41-.4v-26.16c0-.22-.18-.4-.41-.4Z" style="fill:#fc3819;"/><path d="M28.57,41.79l-16.25-3.69c-.43-.09-.78,.18-.78,.62v39.84c0,.44,.35,.7,.77,.59l16.26-4.26c.42-.11,.77-.56,.77-1v-31.13c0-.43-.35-.87-.78-.97Zm-13.31,19.53v13.64c0,.67-1.33,1.68-1.33,1.68v-16.34l1.33-.05c1.3-.05,3.11-.12,3.59-.14,.74-.03,1.5,.96,1.5,.96l-5.08,.26Zm0-9.78v5.59c0,.67-1.33,1.39-1.33,1.39v-8.16l1.33,.11c1.3,.1,3.11,.24,3.59,.28,.74,.06,1.5,1.13,1.5,1.13l-5.08-.35Zm0-9.76v5.59c0,.67-1.33,1.23-1.33,1.23v-8.16l1.33,.26c1.3,.25,3.11,.62,3.59,.71,.74,.15,1.5,1.31,1.5,1.31l-5.08-.93Zm8.67,19.1v12.22c0,.6-1.06,1.48-1.06,1.48v-14.63l1.06-.04c1.04-.03,2.51-.09,2.89-.11,.6-.02,1.21,.87,1.21,.87l-4.11,.21Zm0-8.75v5.08c0,.6-1.06,1.24-1.06,1.24v-7.37l1.06,.08c1.04,.09,2.51,.2,2.89,.23,.6,.05,1.21,1.01,1.21,1.01l-4.11-.28Zm0-8.76v5.08c0,.6-1.06,1.11-1.06,1.11v-7.37l1.06,.21c1.04,.2,2.51,.49,2.89,.57,.6,.11,1.21,1.15,1.21,1.15l-4.11-.75Z" style="fill:#fc3819;"/><path d="M15.66,31.76c.02,.17,.15,.3,.32,.32h11.83c.17-.02,.3-.15,.31-.33-.17-3.27-2.89-5.87-6.23-5.87s-6.06,2.61-6.23,5.88Z" style="fill:#fc3819;"/><path d="M18.18,24.73c.07,.12,.2,.18,.32,.18,.05,0,.11,0,.15-.03,.68-.31,1.38-.51,2.09-.58,.19-.02,.34-.18,.34-.37v-7.55c0-.1-.04-.2-.12-.27-.08-.07-.18-.11-.28-.1-2.22,.1-4.34,.68-6.3,1.7-.1,.05-.16,.14-.19,.24-.03,.1-.01,.2,.04,.29l3.93,6.49Z" style="fill:#fc3819;"/><path d="M6,32.08h7.65c.21,0,.38-.17,.38-.37,0-.84,.16-1.68,.48-2.47,.07-.18,0-.38-.17-.47l-6.77-3.57c-.09-.05-.2-.06-.3-.03-.1,.03-.18,.11-.22,.19-.95,1.99-1.43,4.13-1.43,6.34,0,.1,.04,.2,.11,.27,.07,.07,.17,.11,.27,.11Z" style="fill:#fc3819;"/><path d="M14.94,27.56c.06,.03,.12,.04,.18,.04,.12,0,.24-.06,.31-.16,.4-.59,.91-1.11,1.5-1.56,.15-.11,.19-.32,.09-.49l-3.94-6.51c-.05-.08-.14-.15-.24-.17-.1-.02-.21,0-.29,.05-1.83,1.21-3.39,2.83-4.52,4.7-.05,.09-.07,.19-.04,.29,.03,.1,.09,.19,.19,.23l6.76,3.57Z" style="fill:#fc3819;"/><path d="M26.85,25.88c.59,.45,1.1,.97,1.5,1.56,.07,.11,.19,.16,.31,.16,.06,0,.12-.01,.17-.04l6.66-3.52c.09-.05,.16-.13,.18-.23,.03-.1,.01-.2-.04-.29-1.12-1.85-2.66-3.47-4.46-4.69-.09-.06-.19-.08-.29-.06-.1,.02-.19,.08-.24,.18l-3.9,6.44c-.1,.17-.06,.38,.1,.49Z" style="fill:#fc3819;"/><path d="M23.03,24.29c.71,.08,1.42,.27,2.09,.59,.05,.02,.1,.03,.16,.03,.13,0,.25-.07,.32-.18l3.9-6.45c.05-.09,.07-.19,.04-.29-.03-.1-.1-.18-.19-.23-1.95-1.04-4.05-1.63-6.27-1.75-.11,0-.2,.03-.28,.1-.08,.07-.12,.17-.12,.27v7.55c0,.19,.14,.35,.34,.37Z" style="fill:#fc3819;"/><path d="M29.26,29.24c.32,.79,.48,1.63,.48,2.47,0,.21,.17,.37,.38,.37h7.52c.1,0,.2-.04,.27-.11,.07-.07,.11-.17,.11-.27,0-2.19-.47-4.31-1.4-6.28-.04-.1-.12-.16-.22-.2s-.21-.03-.3,.02l-6.66,3.52c-.17,.09-.25,.29-.18,.47Z" style="fill:#fc3819;"/><path d="M56.2,53.34h2.29c.39,0,.7-.31,.7-.69v-11.15l3.66,10.15c.1,.28,.36,.46,.66,.46h2.55c.29,0,.55-.18,.65-.45l3.83-10.25v11.25c0,.38,.31,.69,.7,.69h2.48c.38,0,.7-.31,.7-.69v-18.58c0-.38-.32-.69-.7-.69h-3.28c-.29,0-.55,.18-.66,.45l-4.69,12.59-4.55-12.58c-.1-.28-.36-.46-.66-.46h-3.68c-.39,0-.7,.31-.7,.69v18.58c0,.38,.31,.69,.7,.69Z" style="fill:#fc3819;"/><path d="M76.53,53.34h2.47c.29,0,.54-.18,.65-.44l1.88-4.71h6.99l1.86,4.7c.11,.26,.36,.44,.65,.44h2.87c.23,0,.45-.11,.58-.3,.13-.19,.16-.43,.08-.64l-7.32-18.58c-.1-.26-.36-.44-.65-.44h-2.62c-.29,0-.54,.17-.65,.44l-7.44,18.58c-.08,.21-.06,.45,.07,.64,.13,.19,.35,.3,.58,.3Zm8.5-13.93l2.15,5.43h-4.31l2.17-5.43Z" style="fill:#fc3819;"/><path d="M114.03,53.34h2.65c.39,0,.7-.31,.7-.7v-18.58c0-.39-.31-.69-.7-.69h-2.65c-.38,0-.7,.31-.7,.69v18.58c0,.38,.31,.7,.7,.7Z" style="fill:#fc3819;"/><path d="M132.93,52.64v-1.97c0-.38-.31-.69-.7-.69h-7.67v-5.35h5.86c.38,0,.7-.31,.7-.69v-1.95c0-.38-.32-.69-.7-.69h-5.86v-4.58h7.12c.39,0,.7-.31,.7-.7v-1.97c0-.38-.31-.69-.7-.69h-10.48c-.39,0-.7,.31-.7,.69v18.58c0,.38,.31,.7,.7,.7h11.02c.39,0,.7-.31,.7-.7Z" style="fill:#fc3819;"/><path d="M110.63,53.34c.26,0,.5-.15,.62-.38,.12-.23,.1-.51-.05-.72l-5.76-8.02c1.36-.69,3.32-2.41,3.41-5.55,0-1.36-.46-2.6-1.37-3.65-.94-1.09-2.58-1.64-4.88-1.64h-5.66c-.39,0-.7,.31-.7,.69v18.58c0,.38,.31,.7,.7,.7h2.63c.39,0,.7-.31,.7-.7v-7.17h1.41l5.12,7.56c.13,.19,.35,.31,.58,.31h3.26Zm-9.62-11.22h-.75v-5.39h1.39c.82,0,1.36,.06,1.9,.3,.44,.2,1.18,.61,1.18,1.89,0,2.19-1.87,3.2-3.72,3.2Z" style="fill:#fc3819;"/><path d="M134.08,76.05h-7.67v-5.35h5.87c.38,0,.7-.31,.7-.69v-1.95c0-.38-.32-.69-.7-.69h-5.87v-4.58h7.13c.39,0,.7-.31,.7-.7v-1.97c0-.39-.31-.69-.7-.69h-10.49c-.38,0-.7,.31-.7,.69v18.58c0,.38,.31,.7,.7,.7h11.03c.39,0,.7-.31,.7-.7v-1.97c0-.38-.31-.69-.7-.69Z" style="fill:#fc3819;"/><path d="M85.97,60.13c0-.38-.32-.69-.7-.69h-15.93c-.38,0-.7,.31-.7,.69v1.97c0,.39,.31,.7,.7,.7h5.94v15.91c0,.38,.31,.7,.7,.7h2.65c.39,0,.7-.31,.7-.7v-15.91h5.94c.38,0,.7-.31,.7-.7v-1.97Z" style="fill:#fc3819;"/><path d="M95.39,58.89c-4.11,0-6.24,2.18-6.85,2.83-.74,.79-2.6,3.28-2.6,7.62,0,2.66,.75,5.62,2.69,7.73,.52,.57,2.59,2.72,6.75,2.72,1.95,0,4.79-.51,6.95-2.93,.58-.64,2.5-3.08,2.5-7.52,0-1.93-.39-5.06-2.53-7.55-.64-.75-2.82-2.9-6.92-2.9Zm0,17.54c-4.7,0-5.23-4.87-5.23-7.12,0-2.38,.6-7.06,5.23-7.06s5.24,4.55,5.24,7.06c0,2.19-.52,7.12-5.24,7.12Z" style="fill:#fc3819;"/><path d="M148.98,70.58c-.31-.48-1.68-1.86-4.65-3.42-1.73-.91-3.12-1.72-3.19-2.94-.04-.32,.16-1.93,2.52-1.91,1.44,0,2.59,.53,4.15,1.11,.58,.16,1.01-.26,1.01-.68v-2.43c0-.32-.22-.61-.52-.7-.95-.28-2.83-.75-4.75-.75-3.85,0-5.17,2.2-5.59,2.77-.77,1.21-1.51,3.67,.18,6.07,1.97,2.48,6.08,3.73,7.25,5.24,.31,.4,.85,1.89-.32,2.93-.69,.69-2.03,.86-3.85,.47-.67-.14-1.77-.56-3.17-1.2-.39-.18-1.05,.08-1.05,.67v2.63c0,.31,.23,.61,.54,.71,4.63,1.38,8.3,1.11,10.56-.97,2.2-2.02,2.48-5.19,.87-7.6Z" style="fill:#fc3819;"/><path d="M117.13,60.03c-.88-.4-2.23-.59-4.11-.59h-4.98c-.4,0-.73,.32-.73,.72v18.53c0,.39,.33,.72,.73,.72h2.62c.4,0,.73-.32,.73-.72v-6.64c7.54,0,8.56-4.6,8.56-7.03,0-1.39-.36-3.88-2.81-4.99Zm-4.76,8.58h-.98v-5.76h1.44c.35,0,1.21,.06,1.78,.31,.83,.39,1.35,1.25,1.35,2.27,0,1.99-1.34,3.18-3.59,3.18Z" style="fill:#fc3819;"/><path d="M62.33,67.16c-1.73-.91-3.12-1.72-3.19-2.94-.04-.32,.16-1.93,2.52-1.91,1.45,0,2.59,.53,4.16,1.11,.58,.16,1.01-.26,1.01-.68v-2.43c0-.32-.22-.61-.52-.7-.95-.28-2.83-.75-4.75-.75-3.85,0-5.17,2.2-5.59,2.77-.78,1.21-1.51,3.67,.18,6.07,1.97,2.48,6.08,3.73,7.25,5.24,.31,.4,.85,1.89-.32,2.93-.69,.69-2.03,.86-3.85,.47-.67-.14-1.77-.56-3.18-1.2-.39-.18-1.05,.08-1.05,.67v2.63c0,.31,.23,.61,.55,.71,4.63,1.38,8.29,1.11,10.56-.97,2.2-2.02,2.47-5.19,.87-7.6-.31-.48-1.68-1.86-4.65-3.42Z" style="fill:#fc3819;"/></svg>