<?xml version="1.0" encoding="UTF-8"?><svg id="Layer_1" xmlns="http://www.w3.org/2000/svg" viewBox="0 0 80 112"><path d="M60.37,70.22c-.02,.47-.02,1.59-.02,2.67v1.72c0,1.45,.02,2.49,.03,2.76,.02,.34,.05,.82,.16,.96,.18,.26,.74,.55,1.85,.55,1.29,0,2.23-.22,3.08-.93,.92-.75,1.21-1.98,1.21-3.39,0-1.74-.69-2.86-1.32-3.41-1.3-1.16-2.84-1.3-3.95-1.3-.29,0-.76,.03-.87,.1-.13,.05-.18,.11-.18,.27m-22.23,4.96c-.03,.06,0,.1,.05,.1h2.73c.06,0,.08-.03,.06-.08l-1.33-3.47s-.03-.13-.06-.13c-.05,0-.06,.08-.08,.13l-1.37,3.45Zm-24.21,0c-.03,.06,0,.1,.05,.1h2.73c.06,0,.08-.03,.06-.08l-1.33-3.47s-.03-.13-.06-.13c-.05,0-.06,.08-.08,.13l-1.37,3.45ZM30.75,36.01c0-4.25-2.45-6.89-5.56-6.89-2.18,0-4.67,1.21-4.67,5.94,0,3.95,2.18,7.08,5.83,7.08,1.33,0,4.4-.65,4.4-6.13m21.61,36.27c0-1.93-1.32-2.43-2.15-2.43-.35,0-.69,.02-.84,.05-.1,.03-.13,.08-.13,.19v4.06c0,.15,.03,.19,.13,.24,.3,.1,.72,.13,1.08,.13,.56,0,.75-.05,1-.22,.43-.31,.92-.9,.92-2.02m10.8-19.09c0-2.7-1.78-3.48-2.9-3.48-.47,0-.82,.02-1.01,.08-.13,.04-.17,.11-.17,.27v5.77c0,.21,.04,.28,.17,.34,.4,.13,.97,.19,1.44,.19,.76,0,1.01-.07,1.35-.32,.57-.42,1.12-1.29,1.12-2.85m6.4,9.81c0,.1-.08,.18-.18,.18h0s-1.63,0-1.63,0c-1.06,0-1.54-.1-2.03-.36-.82-.44-1.54-1.33-2.6-2.79-.76-1.04-1.63-2.34-1.88-2.62-.09-.11-.21-.13-.34-.13l-1.65-.04c-.09,0-.15,.04-.15,.15v.27c0,1.77,0,3.27,.09,4.06,.06,.55,.17,.97,.74,1.04,.19,.02,.43,.05,.64,.06h0c.09,0,.17,.08,.17,.18s-.08,.18-.18,.18h0c-1.08,0-2.37-.06-2.65-.06-.34,0-1.41,.05-2.17,.06h0c-.1,0-.17-.08-.17-.17,0-.09,.07-.16,.16-.17h.01c.19-.01,.35-.04,.48-.07,.38-.08,.47-.49,.55-1.04,.09-.8,.09-2.3,.09-4.04v-3.34c0-2.89,0-3.42-.04-4.02-.04-.65-.19-.95-.82-1.08-.11-.03-.33-.05-.54-.05h0c-.09,0-.17-.08-.17-.17s.08-.17,.17-.17h0c.98,0,2.12,.06,2.5,.06,.65,0,2.09-.06,2.68-.06,1.2,0,2.47,.11,3.49,.82,.53,.36,1.29,1.33,1.29,2.6,0,1.4-.59,2.7-2.51,4.25,1.69,2.13,3,3.82,4.12,4.99,1.06,1.1,1.84,1.23,2.13,1.29,.09,.02,.17,.03,.24,.04h0c.09,0,.16,.09,.16,.18m-.33-34.35c0,.1-.08,.17-.17,.17h0c-.12,0-.23,.02-.38,.06-.53,.15-.68,.55-.7,1.61l-.21,11.98s0,.06,0,.09h0c0,.22-.18,.4-.39,.4-.1,0-.18-.03-.25-.09h-.01c-.08-.08-.16-.15-.23-.23-1.2-1.14-3.63-3.63-5.6-5.58-2.07-2.05-4.18-4.42-4.52-4.78h-.06l.21,7.97c.04,1.48,.29,1.97,.66,2.11,.25,.09,.53,.12,.79,.13h.01c.09,0,.17,.08,.17,.17s-.08,.17-.17,.17h-.02c-1.18,0-1.91-.06-2.26-.06-.16,0-1,.05-1.94,.06h-.01c-.1,0-.17-.08-.17-.17s.08-.17,.17-.17h0c.21,0,.45-.04,.64-.09,.49-.15,.57-.7,.59-2.35l.17-11.24s0-.04,0-.06v-.02c0-.22,.18-.4,.4-.4,.11,0,.22,.05,.29,.13h0c.08,.09,.16,.18,.26,.29,.23,.25,3.11,3.34,5.89,6.09,1.29,1.29,3.85,4.03,4.18,4.33h.09l-.19-8.52c-.02-1.16-.19-1.52-.65-1.71-.22-.09-.53-.11-.79-.11h-.01c-.09,0-.17-.08-.17-.17s.08-.17,.17-.17h0c.98,0,1.88,.06,2.27,.06,.2,0,.88-.05,1.77-.06h0c.09,0,.17,.08,.17,.17m-15.09,42.96c0,1.01-.58,1.91-1.96,3.02,1.25,1.54,2.25,2.78,3.1,3.63,.79,.79,1.28,.85,1.51,.9,.03,0,.06,.01,.08,.02h0c.07,0,.13,.07,.13,.15,0,.08-.07,.15-.15,.15h-1.18c-.79,0-1.17-.08-1.54-.27-.61-.31-1.14-.95-1.93-2.01-.56-.74-1.16-1.66-1.33-1.86-.08-.08-.16-.1-.26-.1l-1.27-.03c-.06,0-.11,.03-.11,.11v.19c0,1.27,.02,2.33,.08,2.91,.05,.4,.11,.66,.55,.72,.12,.02,.28,.03,.42,.04h0c.08,0,.15,.07,.15,.15s-.07,.15-.15,.15h-.01c-.8,0-1.84-.05-2.04-.05-.25,0-1,.04-1.56,.05h0c-.08,0-.15-.07-.15-.15s.06-.14,.13-.15h.01c.11,0,.21-.02,.29-.04,.29-.06,.37-.32,.42-.72,.06-.58,.06-1.66,.06-2.91v-2.41c0-2.07,0-2.46-.02-2.89-.03-.47-.16-.61-.61-.74-.08-.02-.22-.04-.36-.04h0c-.08,0-.14-.06-.14-.14s.06-.14,.14-.14h0c.71,0,1.54,.03,1.81,.03,.48,0,1.77-.03,2.2-.03,.9,0,1.93,.08,2.68,.58,.4,.27,1,.96,1,1.88m-1.77-8.61c0,.1-.08,.17-.17,.17h0c-1.19,0-2.31-.06-2.8-.06-.41,0-1.5,.05-2.25,.06h0c-.1,0-.17-.08-.17-.17s.07-.17,.16-.17h0c.19-.01,.35-.04,.48-.07,.38-.08,.49-.4,.55-.95,.1-.8,.1-2.3,.1-4.14v-3.34c0-2.89,0-3.42-.04-4.02-.04-.65-.23-.97-.65-1.06-.14-.04-.31-.06-.47-.07h-.02c-.09,0-.16-.08-.16-.17s.08-.17,.17-.17h.01c.73,0,1.87,.06,2.4,.06,.45,0,1.46-.05,2.18-.06h.01c.1,0,.17,.08,.17,.18s-.07,.17-.17,.17h-.01c-.11,0-.22,.03-.35,.05-.51,.1-.66,.42-.7,1.08-.04,.61-.04,1.14-.04,4.02v3.34c0,1.84,0,3.34,.08,4.16,.06,.51,.19,.85,.76,.93,.2,.03,.49,.06,.75,.07h0c.1,0,.17,.08,.17,.17m-1.01-20.35c0,.1-.08,.17-.17,.17h0c-1.18,0-2.3-.06-2.82-.06-.41,0-1.5,.05-2.25,.06h0c-.1,0-.17-.08-.17-.18,0-.09,.07-.17,.16-.17h0c.19-.01,.35-.04,.48-.07,.38-.08,.48-.49,.55-1.04,.1-.8,.1-2.3,.1-4.04v-1.67c0-.08-.06-.11-.11-.11h-7.25c-.06,0-.11,.02-.11,.11v1.67c0,1.75,0,3.25,.09,4.06,.06,.53,.17,.95,.74,1.03,.2,.03,.5,.06,.75,.07h0c.09,0,.17,.08,.17,.17s-.08,.17-.17,.17h0c-1.18,0-2.31-.06-2.82-.06-.41,0-1.49,.05-2.25,.06h0c-.1,0-.17-.08-.17-.17,0-.09,.07-.17,.16-.17h.01c.19-.01,.35-.04,.48-.07,.38-.08,.48-.49,.55-1.04,.09-.8,.09-2.3,.09-4.04v-3.34c0-2.89,0-3.42-.04-4.02-.04-.65-.19-.95-.82-1.08-.11-.03-.34-.05-.55-.05h0c-.09,0-.16-.08-.16-.17s.08-.17,.17-.17h.01c1,0,2.12,.06,2.61,.06,.43,0,1.52-.05,2.26-.06h.01c.1,0,.17,.08,.17,.17s-.07,.17-.17,.18h0c-.11,0-.23,.03-.37,.05-.51,.09-.66,.42-.7,1.08-.04,.61-.04,1.14-.04,4.02v.4c0,.09,.06,.13,.11,.13h7.25c.06,0,.11-.04,.11-.13v-.4c0-2.89,0-3.42-.04-4.02-.04-.65-.19-.95-.82-1.08-.12-.03-.33-.05-.55-.05h0c-.1,0-.17-.08-.17-.17s.08-.17,.17-.17h0c1,0,2.12,.06,2.62,.06,.43,0,1.52-.05,2.27-.06h0c.1,0,.17,.08,.17,.17s-.07,.17-.17,.18h0c-.11,0-.23,.03-.38,.05-.51,.09-.66,.42-.7,1.08-.04,.61-.04,1.14-.04,4.02v3.34c0,1.75,0,3.25,.09,4.06,.06,.53,.17,.95,.74,1.03,.2,.03,.49,.05,.74,.07h.02c.1,0,.17,.08,.17,.18m-17.67,11.68v2.66c0,2.75,.55,3.91,1.48,4.67,.86,.7,1.73,.78,2.37,.78,.84,0,1.86-.27,2.62-1.03,1.04-1.04,1.1-2.75,1.1-4.71v-2.37c0-2.89,0-3.42-.04-4.02-.04-.65-.19-.95-.82-1.08-.11-.03-.31-.04-.49-.05h0c-.09,0-.17-.08-.17-.17s.08-.17,.17-.17h0c.94,0,2.04,.06,2.06,.06,.21,0,1.3-.05,2.04-.06h0c.09,0,.17,.08,.17,.18s-.07,.17-.17,.17h-.01c-.11,0-.21,.03-.37,.05-.51,.1-.66,.42-.7,1.08-.04,.61-.04,1.14-.04,4.02v2.03c0,2.11-.21,4.35-1.8,5.71-1.35,1.16-2.71,1.37-3.95,1.37-1.01,0-2.83-.06-4.21-1.31-.97-.87-1.69-2.28-1.69-5.03v-2.77c0-2.89,0-3.42-.04-4.02-.04-.65-.19-.95-.82-1.08-.11-.03-.32-.05-.53-.05h-.02c-.09,0-.17-.08-.17-.17s.08-.17,.17-.17h.01c.98,0,2.12,.06,2.66,.06,.43,0,1.53-.05,2.23-.06h.01c.1,0,.17,.08,.17,.18s-.07,.17-.16,.17h0c-.1,0-.2,.03-.34,.05-.51,.1-.66,.42-.7,1.08-.04,.61-.04,1.14-.04,4.02m-.29-19.02c0,4.35-3.04,7.78-7.86,7.78-5.45,0-7.65-4.08-7.65-7.44s2.15-7.44,7.84-7.44c4.73,0,7.67,2.75,7.67,7.1m-17.52-6.66c0,.1-.08,.17-.17,.17h-.01c-.11,.01-.21,.03-.36,.05-.51,.09-.66,.42-.7,1.08-.04,.61-.04,1.14-.04,4.02v3.51c0,.82,.06,1.73,.06,2.68,0,1.08-.08,2.3-.46,3.36-.4,1.16-1.4,2.47-3.23,3.59-.23,.14-.52,.29-.88,.46h0s-.05,.02-.08,.02c-.11,0-.2-.09-.2-.19,0-.07,.04-.14,.1-.17h0c.25-.14,.53-.35,.91-.73,1.44-1.46,1.42-3.36,1.42-7.08v-5.45c0-2.89,0-3.42-.04-4.02-.04-.65-.19-.95-.82-1.08-.12-.03-.34-.05-.56-.06h0c-.09,0-.17-.08-.17-.17s.08-.17,.17-.17h0c.99,0,2.13,.06,2.61,.06,.43,0,1.52-.05,2.26-.06h0c.09,0,.17,.08,.17,.17m-5.85,34.36c0-.09,.07-.17,.16-.17h0c.09,0,.21-.02,.36-.05,.53-.11,.68-.85,.78-1.5l1.88-12.35h0c.03-.19,.19-.33,.39-.33,.15,0,.28,.08,.35,.2h0c.03,.06,.06,.13,.1,.2l5.18,10.71,5.16-10.84s0,0,0,0h0c.06-.14,.2-.23,.35-.23,.2,0,.36,.15,.39,.34h0s1.73,11.77,1.73,11.77c.17,1.2,.36,1.75,.93,1.92,.41,.13,.73,.17,.97,.18h0c.09,0,.17,.08,.17,.17s-.08,.17-.17,.17h0c-.54,0-3.08-.06-3.83-.11-.1,0-.18-.02-.25-.03h-.02c-.1-.02-.17-.11-.17-.21,0-.08,.05-.15,.11-.18h0c.1-.06,.15-.31,.07-.81l-1.14-8.36h-.08l-4.14,8.62c-.15,.3-.26,.53-.35,.68h0c-.07,.14-.2,.22-.35,.22-.14,0-.26-.07-.33-.18h0c-.09-.17-.2-.37-.32-.61-.46-.87-1.96-3.78-2.18-4.31-.17-.4-1.31-2.79-1.97-4.21h-.07l-.99,7.56c-.04,.34-.06,.59-.06,.89,0,.36,.25,.53,.57,.61,.22,.05,.41,.07,.56,.09h0c.09,0,.17,.08,.17,.18s-.08,.18-.17,.18h-.01c-.78,0-1.59-.06-1.92-.06s-1.1,.05-1.7,.06h-.01c-.1,0-.17-.08-.17-.17m.14,16.33c0-.08,.06-.15,.14-.15h0s.09,0,.14,0c.64-.1,.88-.51,1.17-1.21l3.69-8.59c.02-.05,.04-.1,.06-.15h0c.06-.15,.21-.25,.38-.25s.3,.09,.37,.23h0s.01,.04,.02,.05c.34,.75,2.7,6.35,3.6,8.42,.55,1.24,.95,1.41,1.2,1.46,.1,.02,.19,.03,.28,.03h0c.08,0,.15,.07,.15,.15s-.07,.15-.15,.15h-.17c-.5,0-1.53,0-2.71-.03-.03,0-.06,0-.09,0h0c-.08,0-.15-.07-.15-.15,0-.05,.03-.1,.07-.13h0c.07-.05,.11-.16,.06-.28l-1.09-2.75c-.03-.08-.08-.1-.15-.1h-3.32c-.08,0-.1,.02-.13,.1l-.75,1.83c-.14,.34-.21,.67-.21,.84,0,.24,.12,.38,.53,.39h0s0,0,0,0c.08,0,.14,.06,.14,.14s-.06,.14-.14,.14h-.02c-.44,0-.97-.04-1.35-.04-.13,0-.78,.04-1.45,.05h0c-.08,0-.15-.07-.15-.15m14.02-.17l-2.99-8.68c-.18-.5-.29-.82-.5-.95-.09-.06-.22-.09-.34-.1h0c-.07,0-.13-.07-.13-.14,0-.08,.06-.14,.14-.14h0c.69,0,1.4,.03,1.52,.03s.74-.03,1.5-.03h0s0,0,0,0c.08,0,.14,.06,.14,.14,0,.07-.05,.13-.12,.14h0c-.06,0-.13,.03-.19,.05-.13,.05-.15,.13-.15,.27,0,.18,.13,.63,.31,1.25,.24,.9,1.53,5.03,1.73,5.65h.05l2.73-7.04h0c.06-.16,.21-.26,.38-.26s.31,.1,.37,.24h0c.03,.08,.06,.15,.09,.23l2.83,6.73h.05c.27-.79,1.35-4.39,1.85-5.98,.1-.32,.15-.59,.15-.79s-.1-.34-.5-.38h0c-.07,0-.13-.07-.13-.14,0-.08,.06-.14,.14-.14h0c.69,0,1.28,.03,1.4,.03,.08,0,.56-.02,.98-.03h0s0,0,0,0c.08,0,.14,.06,.14,.14s-.06,.14-.13,.14h0c-.09,.01-.18,.03-.26,.05-.34,.13-.5,.64-.79,1.43-.66,1.72-2.1,6.06-2.8,8.1-.02,.07-.05,.14-.07,.2h0c-.06,.16-.21,.28-.39,.28-.16,0-.3-.09-.37-.23h0c-.03-.08-.07-.16-.11-.26l-2.88-6.73h-.03c-.24,.58-2.14,5.41-2.71,6.67-.06,.12-.1,.22-.14,.31h0c-.07,.15-.21,.25-.37,.25-.18,0-.33-.11-.39-.27v-.02s-.02-.03-.02-.04m10.19,.17c0-.08,.06-.15,.14-.15h.01s.09,0,.13,0c.64-.1,.88-.51,1.17-1.21l3.7-8.59c.02-.05,.04-.1,.06-.15h0c.06-.15,.21-.25,.38-.25s.3,.09,.37,.23h0s.01,.04,.02,.05c.34,.75,2.7,6.35,3.6,8.42,.55,1.24,.95,1.41,1.21,1.46,.1,.02,.19,.03,.28,.03h0c.08,0,.14,.07,.14,.15s-.07,.15-.15,.15h-.17c-.5,0-1.53,0-2.71-.03-.03,0-.06,0-.09,0h0c-.08,0-.15-.07-.15-.15,0-.05,.03-.1,.07-.13h0c.07-.05,.11-.16,.06-.28l-1.09-2.75c-.03-.08-.08-.1-.15-.1h-3.32c-.08,0-.1,.02-.13,.1l-.75,1.83c-.15,.34-.21,.67-.21,.84,0,.24,.12,.38,.53,.39h0s0,0,0,0c.08,0,.14,.06,.14,.14s-.06,.14-.14,.14h-.02c-.44,0-.97-.04-1.35-.04-.13,0-.78,.04-1.45,.05h0c-.08,0-.15-.07-.15-.15m22.94-10.04c0-.08,.06-.14,.14-.14h0c.72,0,1.55,.03,1.93,.03,.43,0,1.45-.03,2.3-.03,1.77,0,4.14,0,5.69,1.56,.71,.71,1.33,1.85,1.33,3.47,0,1.72-.74,3.02-1.54,3.81-.64,.64-2.14,1.61-4.74,1.61-.51,0-1.12-.05-1.69-.08-.56-.05-1.08-.08-1.43-.08-.16,0-.47,.02-.8,.02-.27,.01-.55,.03-.8,.03h-.01c-.08,0-.15-.07-.15-.15s.06-.14,.14-.15h0c.11,0,.21-.02,.29-.04,.29-.06,.37-.32,.42-.72,.06-.58,.06-1.66,.06-2.91v-2.41c0-2.07,0-2.46-.02-2.89-.03-.47-.16-.61-.61-.74-.08-.02-.22-.04-.37-.04h-.01c-.07,0-.13-.06-.13-.14m22.68-53.29H0V96H80V16Z" style="fill:#fc3819;"/></svg>