<?xml version="1.0" encoding="UTF-8"?><svg id="Layer_1" xmlns="http://www.w3.org/2000/svg" viewBox="0 0 76 112"><path d="M56.48,19.88c-13.31-3.22-18.48-12.88-18.48-12.88,0,0-5.17,9.66-18.48,12.88C8.1,22.65,0,16.53,0,16.53V80.65c0,2.18,.94,11.43,18.76,13.93,7.03,.99,12.29,3.18,16.06,6.7,1.36,1.26,2.39,2.55,3.18,3.73,.79-1.18,1.82-2.47,3.18-3.73,3.78-3.52,9.03-5.71,16.06-6.7,17.81-2.5,18.76-11.75,18.76-13.93V16.53s-8.1,6.11-19.52,3.35Zm-2.97,6.59l1.22-3.4,1.22,3.4h3.71l-3.03,2.21,1.12,3.45-3.02-2.05-3.01,2.05,1.11-3.45-3.03-2.21h3.71Zm-33.47,0l1.22-3.4,1.22,3.4h3.71l-3.03,2.21,1.12,3.45-3.02-2.05-3.02,2.05,1.12-3.45-3.03-2.21h3.71Zm0,11.51l1.22-3.4,1.22,3.4h3.71l-3.03,2.21,1.12,3.45-3.02-2.05-3.02,2.05,1.12-3.45-3.03-2.21h3.71ZM6.88,26.47l1.22-3.4,1.22,3.4h3.71l-3.03,2.21,1.12,3.45-3.02-2.05-3.02,2.05,1.12-3.45-3.03-2.21h3.71Zm-3.71,11.51h3.71l1.22-3.4,1.22,3.4h3.71l-3.03,2.21,1.12,3.45-3.02-2.05-3.02,2.05,1.12-3.45-3.03-2.21Zm26.54,16.53l-1.97,1.12v32.57l-5.04-1.46-7.28-20.81v13.72s2.31,1.72,2.31,1.72v4.23l-10.1-2.49v-3.6l2.31-.87v-22.99l-2.37-1.14v-4.14h7.65l7.14,21.23v-15.97s-2.07-1.12-2.07-1.12v-4.14h9.42v4.14Zm.18-11.47c.49-2.18,1.69-6.32,4.28-10.72,.51,.28,.97,.58,1.43,.93,.15-.25,.36-.57,.68-1.06-1.31-1-2.82-1.7-4.52-2.01,0,0-.33,.61-.56,1.09,0,0,.67,.11,1.47,.39-2.31,4.75-3.09,9.19-3.3,11.2-.65-1.02-1.16-3.34-1.35-4.62-1.69-12.05,7.28-19.09,17.01-19.22,.66,0,.91,.11,.91,.11,0,0-2.14,.79-4.62,2.62,0,0-.6-.24-1.21-.39-.4,.26-.81,.51-1.19,.78,1.15,.27,2.64,.85,4.06,1.99,.31-.29,.65-.6,.98-.88-.32-.26-.87-.63-1.37-.91,2.2-2.09,3.77-2.88,3.77-2.88,.31-.03,.49,.35,.59,.57,1.34,3.2,1.67,7.12,.67,10.86-1.52,5.71-6.52,10.98-17.18,12.32-.23,.03-.51-.04-.54-.18Zm19.21,15.76h-3.82l-1.16-3.46h-4.42v9.74h3.32l1.31-1.85h2.66v8.67h-2.66l-1.26-1.75h-3.37v16.06l2.02,2.34v4.14l-10.01-3.62v-3.51l2.21-.88v-29.04l-2.2-1.08v-4.19h17.38v8.43Zm4.41-20.82l1.22-3.4,1.22,3.4h3.71l-3.03,2.21,1.12,3.45-3.02-2.05-3.01,2.05,1.11-3.45-3.03-2.21h3.71Zm14.91,45.12l-17.67,4.57v-4.14l2.49-1.98v-25.92l-2.13-1.08v-4.19h10.02v4.19l-1.97,1.08v24.32l4.31-1.13,.83-6.37h4.12v10.65Zm1.37-42.91l1.12,3.45-3.02-2.05-3.01,2.05,1.11-3.45-3.03-2.21h3.71l1.22-3.4,1.23,3.4h3.71l-3.03,2.21Zm0-11.51l1.12,3.45-3.02-2.05-3.01,2.05,1.11-3.45-3.03-2.21h3.71l1.22-3.4,1.23,3.4h3.71l-3.03,2.21Z" style="fill:#fc3819;"/><path d="M36.41,24.07c1.61,.33,3.12,1.03,4.47,2.11,.3-.32,.62-.64,.95-.97-.92-.74-2.27-1.61-4.28-2.08-.35,.28-.75,.59-1.14,.95Z" style="fill:#fc3819;"/><path d="M32.59,28.73c1.59,.29,3.21,.98,4.59,2.1,.24-.35,.51-.72,.79-1.11-1.1-.9-2.68-1.79-4.62-2.16-.28,.4-.76,1.17-.76,1.17Z" style="fill:#fc3819;"/><path d="M34.31,26.28c1.77,.34,3.34,1.12,4.63,2.17,.27-.35,.56-.71,.87-1.07-1.51-1.21-3.25-1.9-4.6-2.13-.3,.33-.62,.7-.89,1.03Z" style="fill:#fc3819;"/></svg>