<?xml version="1.0" encoding="UTF-8"?><svg id="Layer_1" xmlns="http://www.w3.org/2000/svg" viewBox="0 0 172 112"><path d="M59.37,45.76c-.95-.8-1.96-1.64-2.83-2.26-1.35-.97-2.56-2.02-3.77-2.82-.32-.21-.57-.45-.75-.56-.25-.16-.68-.21-.94-.38-.25-.16-.35-.42-.56-.56-.27-.17-.64-.19-.94-.38-.25-.15-.49-.41-.75-.56-.27-.15-.65-.22-.94-.38-.07-.04-.11-.32-.19-.38-.13-.1-.45-.13-.57-.19-.99-.52-1.74-.87-2.64-1.32-4.13-2.04-8.42-3.86-13-5.08-1.44-.38-2.74-.67-4.14-.94-6.44-1.25-16.38-1.38-22.23,.19-.67,.18-1.54,.27-2.07,.56-.34,.19-.59,.61-.94,.94-1.14,1.07-2.32,1.88-2.07,4.14,.74,.95,3.27,.91,4.71,.56,.81-1.31-1.42-1.04-1.32-2.26,1.35-.77,2.97-.81,4.52-.94,5.69-.49,10.69,.2,15.45,1.13,9.3,1.82,17.27,5.18,24.11,9.4,1.12,.69,2.26,1.42,3.39,2.26,.58,.43,1.39,1.17,1.88,1.5,.49,.32,.95,.62,1.32,.94,.92,.8,1.85,1.77,2.83,2.82,2.57,2.79,5.59,6.6,6.03,10.91,.37,3.6-.81,5.85-2.07,7.52-.35,.46-.76,1.15-1.13,1.5-.06,.06-.3-.04-.38,0-.05,.02-.13,.33-.19,.38-.43,.36-.59,.41-.94,.56-.06,.03-.12,.33-.19,.38-.2,.13-.55,.25-.75,.38-4.29,2.68-10.39,3.86-16.95,3.76-2.53-.04-5.15-.16-7.35-.94-.02-5.12-.17-10.11-.38-15.04,4.88-.15,9.41,.41,12.81,1.5,1.13,.36,2.54,.79,3.01,1.88-.21,1.54-2.08,1.44-1.88,3.38,1.05,.33,2.31,.45,3.77,.38,1.44-1.21,2.98-2.09,3.2-4.14,.39-3.57-3.04-5.64-5.27-6.58-3.88-1.63-10.52-2.34-15.63-2.26-.12-2.06-.32-4.14-.75-6.39-.34-1.78-.72-4.75-2.64-4.51-.81,.1-1.19,1.16-1.51,2.07-1.08,3.09-.86,6.51-1.13,9.4-3.37,.63-6.39,1.11-9.61,2.44-2.21,.92-6.49,2.96-6.78,5.45-.1,.86,.42,2.65,.94,3.2,.14,.15,.06,.18,.19,.38,.25,.37,.74,.7,.94,.94,.22,.25,.23,.58,.38,.75,1.32,1.51,2.96,2.81,4.14,3.76,1.53,1.23,2.97,2.28,4.52,3.2,.88,.52,1.72,.86,2.64,1.32,.81,.41,1.71,.89,2.45,1.5,.01,1.55,.57,3.4,1.13,4.14,.46,.62,1.6,1.22,2.83,1.13,1.07-.08,2.1-.86,2.26-1.69,.51-.25,.12-1.39,.75-1.5,8.3,2.15,16.99,1.57,23.73-1.13,6.89-2.76,12.3-8.16,12.81-14.86,.32-4.22-1.42-7.78-3.2-10.34-2.12-3.05-4.71-6.06-7.35-8.27Zm-32.96,28.21c-4.26-1.54-8.35-3.29-11.87-6.21-.95-.79-2.68-2.18-2.64-3.2,.06-1.63,2.99-2.4,5.09-2.82,3.6-.72,6.04-.7,9.42-.94v13.16Z" style="fill:#fc3819; fill-rule:evenodd;"/><path d="M88.18,45.76c.79-.9,2.02-2.7,2.26-3.76,.22-1.01,0-3.17-.38-3.57-.79-.82-1.82-1.79-3.58-1.69-.47-.27-.71-.73-.94-.94-.42-.39-.9-.52-1.32-.75-1.3-.72-3.28-1.17-5.46-.94-5.28,.54-11.05,4.83-12.05,9.03-.68,2.84,.45,4.63,1.51,6.21-.11,1.62,.25,2.75,1.13,3.38,1.85,.35,1.88-1.13,3.2-1.32,6.17,1.97,12.53-2.11,15.63-5.64Zm-7.16-4.7c1.7-1.08,3.37-2.24,5.65-.94,.58,.96,.39,2.32-.38,3.38-.05,.07-.35,.13-.38,.19-.16,.35-.47,.78-.94,1.13-1.93,1.41-5.69,2.94-7.91,3.01-1.1,.04-2.21-.42-3.01-.38-.25-.47,.4-.94,.75-1.32,.95-1.02,2.37-2.21,3.58-3.2,.76-.61,1.7-1.28,2.64-1.88Zm-10.92,3.01c.57-3.44,3.45-4.58,6.78-5.26-1.77,1.21-3.64,2.57-5.27,4.14-.43,.42-.78,1.37-1.51,1.13Z" style="fill:#fc3819; fill-rule:evenodd;"/><path d="M123.22,55.35c-.21-.35-.52-.42-.75-.75-.12-.18-.07-.41-.19-.56-.75-.98-1.98-2.37-3.39-2.26-.27,.11-.46,.29-.56,.56-.12,2.34,.44,3.67,.94,5.45,.72,2.57,1.57,4.95,2.07,7.52,.24,1.23,.7,2.71-.19,3.95-.88-.23-1.39-1.38-1.7-1.88-1.61-2.58-3.62-5.14-5.27-7.33-1-1.33-2.75-3.59-4.14-3.38-1.66,.25-2.55,4.43-3.01,6.58-.44,2.03-1.02,4.86-1.13,6.77-.06,1.02-.23,3.62,0,4.89,.27,1.48,1.55,2.94,3.01,2.63,2.28-.48,2.09-6.54,2.26-9.21,.08-1.23-.27-2.71,.57-3.38,.69,.21,1.25,1.28,1.51,1.69,.11,.17,.29,.24,.38,.38,.17,.26,.22,.7,.38,.94,.05,.08,.31,.1,.38,.19,.11,.15,.11,.43,.19,.56,.18,.29,.4,.5,.57,.75,.21,.33,.44,.56,.57,.75,.15,.24,.21,.69,.38,.94,.06,.09,.31,.1,.38,.19,.12,.16,.09,.42,.19,.56,1.01,1.44,3.12,4.4,4.9,4.51,.65,.04,2-.51,2.26-.75,.9-.87,1.6-1.8,2.26-3.38,1.98-4.78,.18-10.73-1.88-14.85-.36-.72-.62-1.52-.94-2.07Z" style="fill:#fc3819; fill-rule:evenodd;"/><path d="M167.1,56.67c-1.71-.11-3.2,1.06-4.52,2.07-3.14,2.4-5.49,5.16-7.72,7.9-.32,.39-.52,.69-.75,.94-.39,.42-.79,1.26-1.32,.94-.55-1.6,.54-3.08,.94-3.95,.11-.23,.08-.71,.19-.94,.24-.47,.7-.86,.94-1.32,.25-.46,.31-1.03,.56-1.5,.11-.2,.44-.34,.57-.56,.15-.26,.25-.53,.38-.75,.51-.92,1.2-1.97,1.13-3.2,.03-.97-.17-1.71-1.13-1.69-4.52,4.25-10.27,12.09-6.59,19.74-.59,1.08-.87,2.47-1.32,3.95-1.19,3.91-2.72,8.67-3.01,12.79-.23,3.22,.21,5.08,1.69,6.58,.74,.74,1.89,1.5,3.2,1.32,.86-1.67,.7-3.51,1.13-5.26,.33-1.37,.98-2.99,1.32-4.14,.19-.66,.41-1.36,.57-1.88,.27-.9,.54-1.72,.75-2.44,.64-2.19,1.26-4.25,1.88-6.39,3.77,.07,6.36-1.19,8.48-2.63,.17-.11,.39-.06,.57-.19,.16-.11,.22-.45,.38-.56,.16-.12,.42-.08,.56-.19,.12-.09,.24-.27,.38-.38,1.7-1.34,2.91-3.03,3.96-4.89,.93-1.66,1.69-3.43,1.7-5.45,.01-3.41-1.68-7.69-4.9-7.9Zm.56,10.53c-.61,1.16-1.15,2.06-2.07,2.82-.16,.13-.42,.06-.56,.19-.26,.24-.64,.65-1.13,.94-1.31,.77-3.26,1.52-5.09,1.69,.21-1.09,1.01-2.09,1.69-3.2,1.19-1.92,2.49-3.97,3.96-5.83,.9-1.14,1.45-2.55,3.39-2.44,1.43,1.94,.72,4.12-.19,5.83Z" style="fill:#fc3819; fill-rule:evenodd;"/><path d="M95.72,59.67c2.41-.17,9.2-.4,9.04-2.82-.17-2.54-9.05-2.3-12.43-2.07-2.71,.19-6.47,1.02-8.48,2.07-1.08,.57-2.8,2.05-3.2,3.01-.58,1.37-.4,3.5,.19,4.32,.69,.97,2.62,1.49,4.52,1.69,2.29,.24,4.44,.06,6.22,.19,1.69,.12,3.54,.52,5.09,.94,1.53,.42,3.26,.7,3.96,2.07-.51,1.66-2.98,2.47-5.27,3.01-2.42,.57-5.47,1.01-7.53,.94-1.64-.06-3.75-.43-3.77-1.88-.01-.96,.69-1.51,1.51-1.69,1-.22,2,.3,2.83,.56,1.63,.53,3.72,1.48,5.09,1.5,1.98,.04,3.81-.68,4.33-2.26-.59-1.24-2.73-1.67-4.9-2.07-2.17-.4-4.66-.84-6.59-.56-1.22,.18-3.12,1.16-3.58,1.69-.06,.07,.04,.29,0,.38-.03,.07-.33,.11-.38,.19-.39,.71-.58,1.5-.57,2.26,.04,2.27,2.22,3.97,3.2,4.51,.96,.52,1.78,1.03,2.64,1.32,1.27,.43,2.95,.66,4.33,.75,4.39,.29,8.05-.72,10.17-2.44,.59-.48,.9-.88,1.32-1.5,.45-.66,.8-1.23,.94-1.69,.05-.16,.18-.54,.19-.56,.34-1.83-.21-3.33-.57-4.14-.63-1.42-1.14-1.94-2.26-2.44-.07-.03-.11-.33-.19-.38-2.93-1.6-8.14-1.64-12.05-2.07-1.5-.16-3.37,.08-3.77-1.13,1.01-1.07,2.79-1.13,4.52-1.32,1.7-.18,3.52-.24,5.46-.38Z" style="fill:#fc3819; fill-rule:evenodd;"/><path d="M143.18,71.52c-1.21-.29-3.19,.29-4.9,.56-.79,.13-1.56,.31-2.26,.38-.77,.08-1.59,.31-2.07-.19,.29-1.65,.39-3.5,1.51-4.32,2.44-.7,6.9,.62,8.48-.94,.26-.6,.26-1.66,0-2.26-1.25-1.51-5.47-.06-6.97-1.32-.07-1.14,.19-1.95,.57-2.63,2.34-.58,3.76-.43,6.03-.56,.33-.02,1.99,.02,2.83-.19,1.12-.27,1.83-.85,1.88-1.69,.05-.78-.7-1.43-1.51-2.07-1.92-1.51-3.31-1.35-6.4-1.13-1.84,.13-4.29,.15-6.4,.38-2.23,.24-4.86,.74-4.9,2.07-.05,1.61,2.87,1.98,3.58,2.82,.1,1.29-.57,1.81-.56,3.01-1.16,.54-2.38,1.01-3.01,2.07-.12,1,.66,1.09,.57,2.07-.5,.95-.68,1.78-.94,2.63-.27,.9-.75,1.92-.75,3.01,0,.74,.37,2.15,.57,2.63,.13,.31,.52,.57,.75,.94,.27,.43,.36,.92,.57,1.13,.07,.08,.29,.13,.38,.19,.18,.11,.23,.28,.38,.38,1.48,.99,3.68,.85,5.84,.38,1.12-.24,2.45-.62,3.58-1.13,1.41-.64,5.46-2.83,5.46-4.14,0-.98-1.57-1.9-2.26-2.07Z" style="fill:#fc3819; fill-rule:evenodd;"/><path d="M77.45,59.49c-.3-1.89-.54-4.36-2.26-4.32-.4,0-.47,.14-.75,.38-.03,.02-.17-.03-.19,0-1.63,2.28-2.2,12.92-1.7,18.24,.13,1.37,.71,3.47,1.51,3.95,.97,.58,2.32,.23,3.39,0,.97-1.34,.75-3.46,.75-5.83,0-4.32-.11-8.4-.75-12.41Z" style="fill:#fc3819; fill-rule:evenodd;"/></svg>