<?xml version="1.0" encoding="UTF-8"?><svg id="Layer_1" xmlns="http://www.w3.org/2000/svg" viewBox="0 0 190 112"><polygon points="15.23 52.71 8.57 52.71 8.57 41 0 41 0 69.12 8.57 69.12 8.57 56.29 15.23 56.29 15.23 69.12 23.72 69.12 23.72 41 15.23 41 15.23 52.71" style="fill:#fc3819;"/><path d="M42.24,48.65c-2.22-.89-4.98-.73-4.98-.73-.12,0-.96-.03-2.23,.2-1.42,.25-4.51,.86-6.97,4.17-2.45,3.31-2.09,7.5-1.49,9.85,.59,2.34,1.9,4.08,3.85,5.65,1.94,1.58,4.84,2.08,7.1,2.08s4.56-.42,6.03-1.23c1.47-.81,3.67-2.38,4.76-5.57,1.09-3.19,.91-7.12-.63-9.83-1.55-2.71-3.21-3.71-5.44-4.6Zm-1.83,14.17c-.06,.68-.35,2.97-1.6,4.05-.44,.37-.94,.53-1.43,.46-.59-.09-1.16-.5-1.59-1.15-.78-1.2-1.1-2.3-1.04-6,.01-.81,.02-1.56,.02-2.26,0-2.41,0-4.16,.51-5.27,.57-1.28,1.2-1.99,1.87-2.12,.15-.03,.29-.04,.42-.04,1.23,0,1.97,1.18,2.38,2.23,.23,.58,.47,1.77,.49,3.36,.03,2.77,.03,6.06-.03,6.75Z" style="fill:#fc3819;"/><path d="M69.23,48.68c-2.85-1.23-5.64-.5-7.26,.29-1.61,.78-2.66,2.41-2.71,2.4v-2.76h-7.95v20.52h7.95s0-14.75,0-14.75c0-.29,.96-1.38,2.04-1.98,1.09-.59,2.38-.26,2.83,.29,.64,.78,.64,1.67,.64,2.16v14.28h7.84v-15.62c-.07-.99-.54-3.59-3.39-4.82Z" style="fill:#fc3819;"/><path d="M97.01,63.24h-3.41c-.09,0,.03,3.14-4.28,3.83-3.89,.63-5.03-1.08-5.36-1.52-.32-.44-.47-1.28-.47-1.28v-4.17h14.18s.24-3.78-1.26-6.69c-1.75-3.4-4.61-5.24-9.58-5.5-4.97-.26-9,2.33-10.59,5.58-1.58,3.24-1.38,7.07-.69,9.04,.55,1.59,1.4,3.31,3.27,4.9,3.21,2.72,7.18,2.64,9.99,2.34,2.81-.29,5.32-1.71,6.73-3.08,1.42-1.37,1.45-3.45,1.45-3.45Zm-13.33-9.79c.22-1.26,.9-2.26,1.48-2.68,.73-.53,2.13-.56,2.87,.21,.75,.78,.94,1.43,1.05,1.81l.02,.07c.12,.39,.33,1.58,.31,2.68-.01,.99-.01,1.46,0,1.68h-5.9c0-.61-.01-2.69,.17-3.76Z" style="fill:#fc3819;"/><path d="M159.15,47.92c-4.97-.26-9,2.33-10.59,5.58-1.58,3.24-1.38,7.07-.69,9.04,.55,1.59,1.4,3.31,3.27,4.9,3.21,2.72,7.18,2.64,9.99,2.34,2.81-.29,5.32-1.71,6.73-3.08,1.42-1.37,1.46-3.45,1.46-3.45h-3.41c-.09,0,.03,3.14-4.28,3.83-3.89,.63-5.04-1.08-5.36-1.52-.33-.44-.47-1.28-.47-1.28v-4.17h14.16s.26-3.78-1.24-6.69c-1.76-3.4-4.61-5.24-9.58-5.5Zm2.57,9.3h-5.91c0-.61-.01-2.69,.18-3.76,.22-1.26,.9-2.26,1.48-2.69,.72-.53,2.13-.56,2.87,.21,.76,.78,.94,1.43,1.06,1.82l.02,.06c.12,.39,.33,1.57,.31,2.68-.01,.99-.01,1.46,0,1.68Z" style="fill:#fc3819;"/><path d="M144.21,48.6l-3.06,11.5-3.42-11.5h-6.95l-3.09,11.5-3.51-11.5h-10.89l-3.96,9.77-3.7-9.77h-8.66l8.04,21.02s0,.2-.17,.8c-.17,.6-.73,2.09-1.71,3.14-.98,1.06-2.05,.77-2.05,.77,0,0,.42-.37,.67-.97,.25-.6,.17-1.66-.28-2.6-.45-.94-1.68-1.68-3.59-1.31-1.91,.37-2.75,2.14-2.55,3.83,.2,1.68,1.26,3.11,3.95,3.6,2.69,.49,4.32-.51,5.8-1.86,1.49-1.34,2.69-4.77,2.69-4.77l8.38-20.93,5.96,19.8h6.73l3.21-11.9,3.63,11.9h6.55l5.54-20.52h-3.59Z" style="fill:#fc3819;"/><rect x="172.35" y="41" width="7.63" height="28.12" style="fill:#fc3819;"/><rect x="182.37" y="41" width="7.63" height="28.12" style="fill:#fc3819;"/></svg>