<?xml version="1.0" encoding="UTF-8"?><svg id="Layer_1" xmlns="http://www.w3.org/2000/svg" viewBox="0 0 190 112"><path d="M103.45,21.34c3.76-.19,6.89-.91,8.68-2.45,.45-.38,.18-.77-.41-.38-1.62,1.08-3.97,1.89-6.59,1.89-4.84,0-10.56-2.39-15.18-2.39-8.09,0-15.97,5.46-15.97,10.61,0,3.11,2.7,4.95,5.71,4.95,5.34,0,10.42-3.97,10.42-7.58,0-3.91-5.31-3.72-8.01-1.63-.73,.56-.18,.78,.34,.41,2.73-1.95,7.11-1.93,7.11,1.25,0,3.58-5.26,7-9.83,7-3.23,0-5-2.19-5-4.38,0-4.29,6.54-9.34,12.89-9.34,4.61,0,7.9,1.92,14.25,2.03-3.43,1.12-8.16,3.89-12.82,11.21-4.88,7.66-9.26,11.42-14.84,11.42-3.17,0-5.13-2.13-5.95-3.81-.36-.74-.66-.49-.41,.19,.65,1.72,2.88,4.32,6.49,4.32,6.55,0,12.59-5.51,16.58-11.52,5.34-8.04,9.12-11.1,12.52-11.81Zm8.33,11.4c-1.92,0-6.57,2.62-9.34,6.91-1.86,1.52-3.4,2.7-4.66,3.09-.65,.21-1.02-.11-.64-.75,.61-1.05,1.93-2.25,3.42-3.66,1.59-1.52,2.93-2.87,3.4-3.9,.58-1.26-.4-1.94-1.9-1.49-1.19,.35-4.53,2-6.18,3.31,2.48-2.71,5.96-6.03,8.29-8.02,2.17-1.85,3.73-3.01,4.82-3.37,.28-.09,.19-.21-.01-.21-1.84,0-3.64,.92-5.8,2.7-3.91,3.22-10.42,9.25-13.35,14.54-.19,.34-.22,.74-.09,1.19,.12,.44,.36,.5,.67,.04,.75-1.13,2.12-2.99,3.57-4.51,2.25-2.37,6.12-4.47,8.24-5.21,.66-.22,.97,.02,.54,.57-.81,1.05-3.24,2.93-4.51,4.21-1.32,1.32-2.44,2.83-2.44,3.89,0,.7,.38,1.29,1.21,1.29,1.41,0,3.54-1.6,5.03-2.79-.48,1.44-.03,2.76,1.6,2.76,2.73,0,6.3-3.43,7.88-4.87,.43-.39,.08-.66-.33-.28-2.64,2.46-5.43,4.65-7.45,4.65-.62,0-.87-.6-.32-1.61,.64-1.16,1.83-2.64,3.26-4.02,1.92,.34,5.15-1.31,5.99-2.95,.39-.75,.13-1.51-.94-1.51Zm.43,1.02c-.5,.96-3.16,3.31-5.2,3.14,1.27-1.24,3.74-3.23,4.68-3.62,.51-.21,.79-.01,.53,.48Z" style="fill:#fc3819;"/><g><path d="M111.72,18.51c-1.62,1.08-3.97,1.89-6.59,1.89-4.84,0-10.56-2.39-15.18-2.39-8.09,0-15.97,5.46-15.97,10.61,0,3.11,2.7,4.95,5.71,4.95,5.34,0,10.42-3.97,10.42-7.58,0-3.91-5.31-3.72-8.01-1.63-.73,.56-.18,.78,.34,.41,2.73-1.95,7.11-1.93,7.11,1.25,0,3.58-5.26,7-9.83,7-3.23,0-5-2.19-5-4.38,0-4.29,6.54-9.34,12.89-9.34,4.61,0,7.9,1.92,14.25,2.03-3.43,1.12-8.16,3.89-12.82,11.21-4.88,7.66-9.26,11.42-14.84,11.42-3.17,0-5.13-2.13-5.95-3.81-.36-.74-.66-.49-.41,.19,.65,1.72,2.88,4.32,6.49,4.32,6.55,0,12.59-5.51,16.58-11.52,5.34-8.04,9.12-11.1,12.52-11.81,3.76-.19,6.89-.91,8.68-2.45,.45-.38,.18-.77-.41-.38Z" style="fill:#fc3819;"/><path d="M109.01,24.86c-1.09,.35-2.66,1.52-4.82,3.37-2.33,1.99-5.81,5.31-8.29,8.02,1.65-1.31,5-2.96,6.18-3.31,1.5-.44,2.48,.23,1.9,1.49-.47,1.03-1.81,2.38-3.4,3.9-1.48,1.41-2.8,2.61-3.42,3.66-.38,.64-.01,.95,.64,.75,1.25-.39,2.8-1.57,4.66-3.09,2.77-4.29,7.42-6.91,9.34-6.91,1.07,0,1.33,.76,.94,1.51-.84,1.64-4.07,3.3-5.99,2.95-1.43,1.38-2.62,2.86-3.26,4.02-.55,1.01-.3,1.61,.32,1.61,2.01,0,4.81-2.2,7.45-4.65,.41-.37,.75-.1,.33,.28-1.58,1.44-5.15,4.87-7.88,4.87-1.63,0-2.09-1.32-1.6-2.76-1.48,1.19-3.62,2.79-5.03,2.79-.83,0-1.21-.59-1.21-1.29,0-1.07,1.12-2.57,2.44-3.89,1.27-1.27,3.7-3.15,4.51-4.21,.42-.55,.11-.79-.54-.57-2.12,.73-5.99,2.84-8.24,5.21-1.45,1.52-2.82,3.38-3.57,4.51-.31,.47-.55,.41-.67-.04-.12-.44-.1-.85,.09-1.19,2.93-5.29,9.44-11.33,13.35-14.54,2.16-1.78,3.96-2.7,5.8-2.7,.2,0,.29,.12,.01,.21Zm-1.99,12.04c2.05,.17,4.71-2.19,5.2-3.14,.26-.49-.02-.69-.53-.48-.94,.39-3.4,2.38-4.68,3.62Z" style="fill:#fc3819;"/></g><path d="M54.75,72.91h-.5c-.16,0-.37,0-.92-1.28-2.03-4.75-8.08-20.45-8.15-20.6-.46-1.15-1.39-1.55-2.1-1.54-.91,0-1.68,.59-2.03,1.53l-.22,.6c-5.07,13.62-6.96,18.41-7.64,20.02-.54,1.28-.76,1.28-.92,1.28h-1.79c-.86,0-1.18-.01-1.33-.16-.03-.06-.17-.39-.17-1.88v-13.77c0-.79,.02-1.72,.17-1.88,.14-.15,.46-.16,1.33-.16h.1c1.23,0,2.12-.82,2.12-1.94v-.71c0-1.13-.9-1.99-2.1-1.99h-6.31c-1.47,0-2.56,.71-3.1,2.01,0,0-2.41,6.07-2.41,6.07,0,0-1.51,3.82-2.51,6.35-1.25-3.16-4.79-12.09-4.79-12.09,0,0-.02-.06-.02-.06-.22-.57-.88-2.28-3.01-2.28H2.1c-1.2,0-2.1,.85-2.1,1.99v.71c0,1.12,.89,1.94,2.12,1.94h.1c.87,0,1.19,.01,1.33,.16,.15,.16,.17,1.08,.17,1.88v13.77c0,1.49-.14,1.82-.17,1.88-.14,.15-.46,.16-1.33,.16h-.1c-1.23,0-2.12,.82-2.12,1.94v.71c0,1.13,.9,1.99,2.1,1.99h2.16c.69,0,1.5-.21,2.19-.53,.69,.33,1.5,.53,2.19,.53h2.16c1.2,0,2.1-.86,2.1-1.99v-.71c0-.08-.04-.15-.06-.24,.31,.75,.44,1.04,.47,1.12,.6,1.3,1.62,1.44,2.04,1.43,.41,0,1.44-.15,2-1.46,0-.02,3.57-8.66,3.57-8.66,0,0,.34-.82,.76-1.86v5.68c0,1.49-.13,1.82-.17,1.88-.15,.15-.46,.16-1.33,.16h-.1c-1.22,0-2.12,.82-2.12,1.94v.71c0,1.13,.9,1.99,2.09,1.99h3.08c.69,0,1.5-.21,2.19-.53,.69,.33,1.5,.53,2.19,.53h5.76c.69,0,1.5-.21,2.19-.53,.69,.33,1.5,.53,2.19,.53h1.7c1.19,0,2.1-.86,2.1-1.99v-.71c0-1.13-.89-1.94-2.12-1.94h-.73c-.16,0-.24-.01-.32-.03,0-.04,.02-.08,.02-.08,0,0,.45-1.31,.74-2.13h6.53c.3,.73,.89,2.18,.89,2.19-.09,.03-.22,.05-.44,.05h-.68c-1.23,0-2.12,.82-2.12,1.94v.71c0,1.13,.9,1.99,2.1,1.99h2.65c.69,0,1.5-.21,2.19-.53,.69,.33,1.5,.53,2.19,.53h2.44c1.2,0,2.09-.86,2.09-1.99v-.71c0-1.13-.89-1.94-2.12-1.94Zm-43.99,0h-.1c-.87,0-1.18-.01-1.33-.16-.03-.06-.17-.39-.17-1.88v-5.15c1.1,2.67,2.23,5.4,2.23,5.4,.46,1.11,.8,1.93,1.06,2.59-.38-.48-.96-.79-1.7-.79Zm45.17,2.65c0,.58-.44,1.03-1.15,1.03h-2.44c-.62,0-1.51-.23-2.19-.65-.68,.42-1.57,.65-2.19,.65h-2.65c-.72,0-1.16-.45-1.16-1.03v-.71c0-.56,.44-.99,1.18-.99h.68c.64,0,1.1-.17,1.29-.48,.08-.12,.12-.26,.12-.42s-.04-.32-.11-.48c0,0-.8-1.97-1.13-2.77h-7.82c-.29,.84-.97,2.77-.97,2.77-.07,.2-.1,.38-.1,.54,0,.18,.04,.33,.12,.45,.18,.25,.57,.39,1.17,.39h.73c.74,0,1.17,.43,1.17,.99v.71c0,.58-.44,1.03-1.15,1.03h-1.7c-.62,0-1.51-.23-2.19-.65-.68,.42-1.56,.65-2.19,.65h-5.76c-.62,0-1.52-.23-2.19-.65-.68,.42-1.57,.65-2.19,.65h-3.08c-.71,0-1.15-.45-1.15-1.03v-.71c0-.56,.44-.99,1.17-.99,1.09,0,1.67,.02,2.12-.46,.25-.27,.42-.81,.42-2.53v-10.44c-.76,1.83-1.69,4.11-2.58,6.26l-3.56,8.64c-.33,.76-.86,.88-1.14,.89-.29,0-.82-.11-1.17-.88-.06-.14-.55-1.3-1.89-4.58-1.21-2.94-2.82-6.86-4.04-9.8,0,.9,0,9.92,0,9.92,0,1.72,.17,2.26,.42,2.53,.45,.48,1.02,.46,2.11,.46,.74,0,1.17,.43,1.17,.99v.71c0,.58-.44,1.03-1.15,1.03h-2.16c-.62,0-1.51-.23-2.19-.65-.68,.42-1.57,.65-2.19,.65H2.1c-.71,0-1.15-.45-1.15-1.03v-.71c0-.56,.44-.99,1.18-.99,1.09,0,1.67,.02,2.11-.46,.25-.27,.43-.81,.43-2.53v-13.77c0-1.72-.1-2.19-.43-2.53-.44-.48-1.02-.46-2.11-.46-.74,0-1.18-.43-1.18-.98v-.71c0-.58,.44-1.03,1.15-1.03h6.33c1.49,0,1.93,1.13,2.13,1.68l.02,.06c.58,1.5,4.26,10.77,5.67,14.31,.82-2.05,2.25-5.67,3.39-8.56l2.41-6.07c.39-.95,1.14-1.43,2.23-1.43h6.31c.71,0,1.16,.45,1.16,1.03v.71c0,.56-.44,.98-1.18,.98-1.09,0-1.67-.02-2.11,.46-.32,.35-.42,.81-.42,2.53v13.77c0,1.72,.17,2.26,.42,2.53,.45,.48,1.02,.46,2.11,.46h1.69c.78,0,1.22-.51,1.79-1.85,1.62-3.83,7.1-18.57,7.88-20.66h0c.21-.57,.65-.91,1.16-.91,.2,0,.87,.06,1.22,.94,0,0,6.09,15.81,8.16,20.64,.57,1.34,1.01,1.85,1.79,1.85h.5c.74,0,1.18,.43,1.18,.99v.71Zm-16.41-8.96h5.47c-.71-1.88-2.02-5.36-2.77-7.37-.76,2.05-2.03,5.5-2.7,7.37Zm4.11-.96h-2.75c.39-1.07,.77-2.08,1.36-3.7,.37,1,.92,2.44,1.39,3.7Z" style="fill:#fc3819;"/><path d="M147.85,66.6h5.47c-.71-1.88-2.02-5.36-2.77-7.37-.76,2.05-2.03,5.5-2.71,7.37Zm4.11-.96h-2.75c.39-1.07,.76-2.08,1.36-3.7,.6,1.62,.99,2.63,1.39,3.7Zm-68.7,.96h5.48c-.71-1.88-2.01-5.36-2.77-7.37-.76,2.05-2.02,5.5-2.71,7.37Zm4.11-.96h-2.76c.39-1.07,.77-2.08,1.36-3.7,.37,1,.92,2.44,1.39,3.7Zm100.53-15.22h-2.16c-.69,0-1.49,.21-2.18,.53-.69-.33-1.5-.53-2.19-.53h-2.16c-1.2,0-2.1,.85-2.1,1.99v.71c0,1.12,.89,1.94,2.12,1.94h.09c.87,0,1.18,.01,1.32,.16,.04,.06,.17,.39,.17,1.88v6.32c-2.31-3.22-7.99-11.12-7.99-11.12-.49-.69-1.32-1.87-2.9-1.87h-5.35c-1.19,0-2.09,.85-2.09,1.99v.71c0,1.12,.88,1.94,2.11,1.94h.1c.87,0,1.19,.01,1.33,.16,.15,.16,.17,1.08,.17,1.88v13.77c0,1.49-.14,1.82-.17,1.88-.14,.15-.46,.16-1.33,.16h-2.12c-.16,0-.38,0-.92-1.28-2.03-4.75-8.08-20.45-8.15-20.6-.46-1.15-1.39-1.55-2.1-1.54-.9,0-1.68,.59-2.03,1.53l-.25,.67c-4.06,10.9-6.62,17.61-7.61,19.94-.52,1.22-.74,1.28-.9,1.28,.17-1.06,.57-2.65,.74-3.22,.13-.41,.18-.77,.18-1.09,0-1.22-.8-1.82-1.36-2.09-.62-.3-1.36-.3-2-.03-.48,.21-1.13,.67-1.46,1.7l-.92,2.68c-.48,1.43-2.27,1.5-2.63,1.5h-3.46c-.29,0-.38-.02-.43-.03-.03-.08-.07-.27-.07-.72v-14.48c.01-1.49,.15-1.82,.18-1.88,.14-.15,.46-.16,1.32-.16h.1c1.23,0,2.12-.81,2.12-1.94v-.71c0-1.13-.9-1.99-2.1-1.99h-3.08c-.69,0-1.49,.21-2.18,.53-.69-.33-1.5-.53-2.19-.53h-3.08c-1.19,0-2.09,.86-2.09,1.99v.71c0,1.12,.89,1.94,2.12,1.94h.1c.87,0,1.18,.02,1.32,.16,.04,.06,.17,.39,.17,1.88v13.74c0,1.48-.13,1.82-.17,1.88-.15,.16-.83,.16-1.46,.16,.17-1.04,.57-2.65,.74-3.22,.13-.41,.18-.77,.18-1.09,0-1.22-.8-1.82-1.36-2.09-.62-.3-1.36-.3-2-.03-.48,.21-1.13,.67-1.47,1.7l-.92,2.68c-.49,1.43-2.28,1.5-2.63,1.5h-3.45c-.29,0-.39-.02-.43-.03-.02-.08-.07-.27-.07-.72v-14.48c.01-1.49,.15-1.82,.18-1.88,.14-.15,.46-.16,1.33-.16h.1c1.23,0,2.12-.81,2.12-1.94v-.71c0-1.13-.9-1.99-2.09-1.99h-3.08c-.69,0-1.5,.21-2.19,.53-.69-.33-1.5-.53-2.19-.53h-3.08c-1.2,0-2.1,.86-2.1,1.99v.71c0,1.12,.89,1.94,2.12,1.94h.1c.87,0,1.18,.02,1.32,.16,.04,.06,.18,.39,.18,1.88v13.74c0,1.49-.14,1.82-.18,1.88-.14,.15-.46,.16-1.32,.16h-2.11c-.16,0-.37,0-.92-1.28-2.03-4.75-8.09-20.45-8.14-20.6-.46-1.15-1.39-1.55-2.1-1.54-.91,0-1.69,.59-2.04,1.53l-.22,.6c-5.07,13.62-6.96,18.41-7.64,20.02-.54,1.28-.76,1.28-.92,1.28h-.51c-.26,0-.49,.05-.71,.11,.83-1.41,1.35-2.98,1.54-4.56,.15-1.32-.71-2.52-1.96-2.72-1.04-.17-2.32,.45-2.61,1.94-.66,3.3-2.34,4.9-5.16,4.9-2.34,0-5.82-2.27-5.82-8.53s3.05-8.9,5.9-8.9c2.3,0,3.52,1.68,3.74,2.02,.5,.77,.71,2.08,.86,2.95,0,0,.04,.24,.04,.24,.22,1.36,1.36,2.28,2.63,2.16,1.05-.1,2.15-1.02,2.12-2.53,0-.49-.11-1.13-.23-1.86-.11-.7-.24-1.5-.28-2.14-.07-1.12-.11-2.34-.11-3.65,0-1.59-1.4-2.77-2.65-2.77-.89,0-1.53,.49-1.95,1.42-1.26-.52-2.75-.99-4.67-.99-6.25,0-12.73,5.34-12.73,14.28s6.57,13.72,12.75,13.72c3.04,0,5.48-1.25,7.21-3.11v.66c0,1.13,.9,1.99,2.1,1.99h1.55c.69,0,1.49-.21,2.19-.53,.7,.33,1.5,.53,2.19,.53h1.7c1.2,0,2.1-.86,2.1-1.99v-.71c0-1.13-.89-1.94-2.12-1.94h-.73c-.16,0-.24-.01-.32-.03,0-.04,.02-.08,.02-.08,0,0,.46-1.31,.75-2.13h6.53c.3,.73,.89,2.18,.89,2.19-.09,.03-.22,.05-.44,.05h-.69c-1.23,0-2.12,.82-2.12,1.94v.71c0,1.13,.9,1.99,2.09,1.99h2.65c.69,0,1.49-.21,2.18-.53,.69,.33,1.5,.53,2.19,.53h6.97c.69,0,1.5-.21,2.19-.53,.69,.33,1.5,.53,2.19,.53h5.96c.91,0,1.72-.16,2.47-.4,.43,.33,.97,.52,1.59,.52,.57,0,1.09-.17,1.5-.46,.33,.2,.71,.34,1.15,.34h3.28c.7,0,1.5-.21,2.19-.53,.69,.33,1.5,.53,2.18,.53h5.96c.91,0,1.72-.16,2.47-.4,.44,.33,.97,.52,1.59,.52,.47,0,.91-.13,1.3-.34,.29,.14,.63,.22,.99,.22h1.55c.69,0,1.5-.21,2.19-.53,.7,.33,1.5,.53,2.19,.53h1.71c1.19,0,2.09-.86,2.09-1.99v-.71c0-1.13-.89-1.94-2.12-1.94h-.73c-.15,0-.24-.01-.32-.03,0-.04,.02-.09,.02-.09,0,0,.46-1.31,.74-2.13h6.53c.3,.73,.88,2.18,.88,2.19-.09,.03-.21,.05-.43,.05h-.68c-1.23,0-2.12,.82-2.12,1.94v.71c0,1.13,.9,1.99,2.09,1.99h2.65c.69,0,1.49-.21,2.19-.53,.69,.33,1.5,.53,2.19,.53h6.07c.69,0,1.5-.21,2.19-.53,.69,.33,1.5,.53,2.19,.53h2.16c1.19,0,2.1-.86,2.1-1.99v-.71c0-1.13-.89-1.94-2.12-1.94h-.1c-.87,0-1.19-.01-1.33-.16-.03-.06-.17-.39-.17-1.88v-8.39c2.48,3.46,9.9,13.79,9.9,13.79,.78,1.07,1.99,1.52,3.08,1.16,1-.33,1.64-1.26,1.64-2.37v-17.96c0-1.48,.14-1.82,.18-1.88,.14-.15,.46-.16,1.32-.16h.1c1.23,0,2.12-.82,2.12-1.94v-.71c0-1.13-.9-1.99-2.1-1.99Zm-121.74,26.62c-5.72,0-11.8-4.48-11.8-12.77s5.99-13.33,11.78-13.33c2.19,0,3.81,.66,5.15,1.28,.07-.17,.24-.59,.24-.59,.12-.36,.38-1.12,1.22-1.12,.79,0,1.7,.79,1.7,1.82,0,1.33,.04,2.57,.11,3.71,.04,.69,.17,1.51,.29,2.23,.11,.7,.21,1.3,.22,1.73,.02,.95-.62,1.51-1.26,1.57-.78,.07-1.47-.51-1.61-1.37l-.04-.24c-.15-.95-.38-2.39-1-3.33-.27-.41-1.75-2.45-4.52-2.45-3.31,0-6.84,2.59-6.84,9.86s4.04,9.49,6.76,9.49c3.29,0,5.33-1.91,6.08-5.66,.18-.91,.91-1.28,1.54-1.18,.76,.12,1.27,.85,1.18,1.66-.49,4.32-3.81,8.69-9.21,8.69Zm122.89-23.93c0,.56-.44,.98-1.18,.98-1.09,0-1.67-.02-2.11,.46-.25,.27-.42,.81-.42,2.53v17.96c0,.69-.39,1.26-1,1.46-.7,.23-1.49-.09-2.03-.81,0,0-9.87-13.74-11.6-16.17,0,.97,0,11.33,0,11.33,0,1.72,.17,2.26,.42,2.53,.45,.48,1.02,.46,2.11,.46,.74,0,1.18,.43,1.18,.99v.71c0,.58-.44,1.03-1.15,1.03h-2.16c-.63,0-1.51-.23-2.19-.65-.68,.42-1.57,.65-2.19,.65h-6.07c-.62,0-1.51-.23-2.19-.65-.68,.42-1.56,.65-2.19,.65h-2.65c-.71,0-1.15-.45-1.15-1.03v-.71c0-.56,.44-.99,1.18-.99h.68c.63,0,1.1-.17,1.3-.48,.07-.12,.11-.26,.11-.42s-.04-.32-.11-.48c0,0-.8-1.97-1.13-2.77h-7.83c-.29,.84-.97,2.77-.97,2.77-.06,.2-.1,.38-.1,.54,0,.18,.04,.33,.12,.45,.18,.25,.57,.39,1.17,.39h.73c.74,0,1.18,.43,1.18,.99v.71c0,.58-.44,1.03-1.15,1.03h-1.71c-.62,0-1.51-.23-2.19-.65-.68,.42-1.56,.65-2.19,.65h-1.55c-.46,0-.81-.19-.99-.48-.28,.37-.74,.6-1.3,.6-.4,0-.96-.11-1.34-.63-.63,.28-1.5,.51-2.72,.51h-5.96c-.62,0-1.51-.23-2.18-.65-.68,.42-1.57,.65-2.19,.65h-3.28c-.66,0-1.08-.39-1.14-.91-.2,.62-.77,1.03-1.51,1.03-.4,0-.96-.11-1.33-.63-.63,.28-1.5,.51-2.72,.51h-5.96c-.62,0-1.51-.23-2.19-.65-.68,.42-1.57,.65-2.19,.65h-6.97c-.62,0-1.51-.23-2.19-.65-.68,.42-1.57,.65-2.18,.65h-2.65c-.71,0-1.15-.45-1.15-1.03v-.71c0-.56,.44-.99,1.17-.99h.69c.64,0,1.1-.17,1.3-.48,.07-.12,.12-.26,.12-.42s-.04-.32-.11-.48c0,0-.8-1.97-1.13-2.77h-7.83c-.3,.84-.97,2.77-.97,2.77-.07,.2-.1,.38-.1,.54,0,.18,.04,.33,.12,.45,.18,.25,.56,.39,1.17,.39h.73c.74,0,1.18,.43,1.18,.99v.71c0,.58-.44,1.03-1.16,1.03h-1.7c-.62,0-1.51-.23-2.19-.65-.67,.42-1.56,.65-2.19,.65h-1.55c-.71,0-1.15-.45-1.15-1.03v-.71c0-.56,.44-.99,1.18-.99h.51c.77,0,1.22-.51,1.79-1.85,1.62-3.83,7.1-18.57,7.88-20.66h0c.21-.57,.65-.91,1.16-.91,.19,0,.87,.06,1.21,.94,0,0,6.1,15.81,8.15,20.64,.58,1.34,1.02,1.85,1.79,1.85h2.02c1.09,0,1.66,.02,2.11-.46,.26-.27,.43-.81,.43-2.53v-13.74c0-1.72-.17-2.26-.43-2.53-.45-.48-1.02-.46-2.11-.46-.74,0-1.17-.43-1.17-.99v-.71c0-.58,.44-1.03,1.15-1.03h3.08c.62,0,1.51,.23,2.19,.65,.68-.42,1.57-.65,2.19-.65h3.08c.71,0,1.15,.45,1.15,1.03v.71c0,.56-.44,.99-1.18,.99-1.09,0-1.66-.01-2.11,.46-.26,.27-.43,.81-.43,2.53v14.48c0,1.47,.42,1.71,1.44,1.71h3.45c.46,0,2.83-.1,3.52-2.13,0,0,.51-1.47,.92-2.7,.43-1.32,1.56-1.41,2.17-1.12,1.15,.56,.81,1.64,.68,2.04-.19,.65-.64,2.43-.8,3.53-.07,.49-.13,.95-.19,1.34,.2-.25,.53-.41,.98-.41,1.09,0,1.87,.02,2.32-.46,.26-.27,.43-.81,.43-2.53v-13.74c0-1.72-.16-2.26-.42-2.53-.44-.48-1.02-.46-2.11-.46-.74,0-1.18-.43-1.18-.99v-.71c0-.58,.44-1.03,1.15-1.03h3.08c.62,0,1.51,.23,2.19,.65,.68-.42,1.56-.65,2.18-.65h3.08c.71,0,1.15,.45,1.15,1.03v.71c0,.56-.44,.99-1.18,.99-1.09,0-1.66-.01-2.11,.46-.26,.27-.43,.81-.43,2.53v14.48c0,1.47,.42,1.71,1.43,1.71h3.46c.47,0,2.82-.1,3.52-2.13,0,0,.52-1.47,.92-2.7,.44-1.32,1.56-1.41,2.16-1.12,1.15,.56,.81,1.64,.69,2.04-.2,.65-.64,2.43-.8,3.53-.05,.37-.1,.73-.14,1.05,.16-.07,.35-.11,.58-.11h.51c.77,0,1.22-.51,1.79-1.85,1.62-3.83,7.1-18.57,7.88-20.66h0c.21-.57,.65-.91,1.16-.91,.2,0,.87,.06,1.22,.94,0,0,6.09,15.81,8.16,20.64,.57,1.34,1.01,1.85,1.79,1.85h2.02c1.09,0,1.67,.02,2.11-.46,.26-.27,.43-.81,.43-2.53v-13.77c0-1.72-.1-2.19-.43-2.53-.44-.48-1.02-.46-2.11-.46-.74,0-1.18-.43-1.18-.98v-.71c0-.58,.44-1.03,1.15-1.03h5.35c1.09,0,1.69,.86,2.13,1.48,0,0,9.5,13.21,9.7,13.49,0-.42,0-9.25,0-9.25,0-1.72-.17-2.26-.42-2.53-.44-.48-1.02-.46-2.11-.46-.74,0-1.18-.43-1.18-.98v-.71c0-.58,.44-1.03,1.15-1.03h2.16c.62,0,1.51,.23,2.19,.65,.68-.42,1.56-.65,2.18-.65h2.16c.71,0,1.15,.45,1.15,1.03v.71Z" style="fill:#fc3819;"/><path d="M27.08,70.87c0,1.78,.17,2.64,.69,3.19,.6,.64,1.45,.76,2.11,.76s.92,.35,.92,.81h-3.29c-.83,0-1.99-.51-2.19-.99-.2,.48-1.36,.99-2.19,.99h-3.28c0-.46,.27-.81,.92-.81s1.51-.12,2.11-.76c.52-.55,.68-1.41,.68-3.19v-14.36c0-.26-.14-.44-.31-.09-.11,.22-7.31,17.77-7.63,18.52-.19,.43-.41,.41-.6-.02-.17-.38-5.99-14.61-7.38-17.84-.19-.43-.34-.37-.34,0,0,.22,0,13.46,0,13.78,0,1.78,.16,2.64,.68,3.19,.6,.64,1.45,.76,2.11,.76s.92,.38,.92,.81h-2.37c-.82,0-1.99-.51-2.19-.99-.2,.48-1.36,.99-2.19,.99H1.88c0-.46,.27-.81,.92-.81s1.51-.12,2.11-.76c.52-.55,.68-1.41,.68-3.19v-13.77c0-1.78-.16-2.64-.68-3.19-.6-.64-1.43-.76-2.09-.76h-.94c0-.44,.27-.82,.92-.82h5.62c.88,0,1.08,.61,1.28,1.13,.73,1.9,6.07,15.34,6.22,15.68,.14,.34,.31,.78,.54,.29,.23-.49,6.03-15.22,6.45-16.26,.24-.59,.65-.84,1.36-.84h5.17c.63,0,.92,.35,.92,.82h-1.7c-.34,0-1.58,.46-1.58,2.07v15.65Z" style="fill:#fc3819;"/><path d="M182.71,68.65c0-.22,0-11.22,0-11.55,0-1.78-.17-2.64-.68-3.19-.61-.64-1.46-.76-2.11-.76s-.92-.38-.92-.82h2.37c.82,0,1.99,.51,2.19,.99,.2-.48,1.36-.99,2.18-.99h2.37c0,.45-.27,.82-.92,.82s-1.51,.12-2.11,.76c-.52,.55-.69,1.41-.69,3.19v17.96c0,.67-.76,.85-1.32,.08-2.17-2.97-10.63-14.83-12.97-18.06-.28-.38-.34-.37-.34,0,0,.22,0,13.46,0,13.78,0,1.78,.17,2.64,.68,3.19,.6,.64,1.46,.76,2.11,.76s.92,.38,.92,.81h-2.37c-.83,0-1.99-.51-2.19-.99-.2,.48-1.37,.99-2.19,.99h-2.37c0-.44,.28-.81,.92-.81s1.51-.12,2.11-.76c.51-.55,.68-1.41,.68-3.19v-13.77c0-1.78-.17-2.64-.68-3.19-.61-.64-1.43-.76-2.09-.76h-.95c0-.45,.28-.82,.92-.82h4.64c.62,0,1.01,.57,1.4,1.13,.96,1.36,8.65,12.03,11.02,15.32,.24,.33,.36,.32,.36-.13Z" style="fill:#fc3819;"/><path d="M151.08,51.84c.14-.39,.53-.47,.71-.01,1.07,2.69,6.41,16.7,8.14,20.58,.58,1.3,1.25,2.42,2.47,2.42,.65,0,.92,.38,.92,.81h-2.65c-.83,0-1.99-.51-2.19-.99-.2,.48-1.36,.99-2.19,.99h-2.86c0-.44,.27-.81,.92-.81,2.07,0,2.71-1.44,2.17-2.71-.36-.84-1.36-3.35-1.36-3.35h-9.12s-.85,2.43-1.19,3.41c-.45,1.31,.06,2.65,2.12,2.65,.65,0,.92,.38,.92,.81h-1.92c-.82,0-1.98-.51-2.19-.99-.2,.48-1.36,.99-2.19,.99h-1.76c0-.44,.27-.81,.92-.81,1.21,0,1.88-1.12,2.47-2.42,.89-1.97,7.36-19.25,7.85-20.57Zm3.61,15.71s-3.62-9.65-3.82-10.19c-.18-.45-.43-.47-.61-.02-.45,1.14-3.76,10.2-3.76,10.2h8.19Z" style="fill:#fc3819;"/><path d="M86.55,51.69c.14-.39,.44-.41,.62,.04,1.06,2.69,6.44,16.79,8.17,20.67,.58,1.3,1.25,2.42,2.47,2.42,.65,0,.92,.36,.92,.81h-2.65c-.82,0-1.98-.51-2.19-.99-.2,.48-1.36,.99-2.18,.99h-2.86c0-.45,.27-.81,.92-.81,2.07,0,2.72-1.44,2.17-2.71-.36-.84-1.36-3.35-1.36-3.35h-9.12s-.86,2.43-1.19,3.41c-.45,1.31,.06,2.65,2.12,2.65,.65,0,.92,.39,.92,.81h-1.92c-.82,0-1.99-.51-2.19-.99-.19,.48-1.36,.99-2.19,.99h-1.76c0-.45,.27-.81,.91-.81,1.22,0,1.89-1.12,2.47-2.42,.88-1.97,7.42-19.4,7.9-20.71Zm3.56,15.86s-3.62-9.65-3.83-10.19c-.18-.45-.42-.47-.61-.02-.45,1.14-3.76,10.2-3.76,10.2h8.2Z" style="fill:#fc3819;"/><path d="M42.8,51.69c.15-.39,.44-.41,.62,.04,1.06,2.69,6.45,16.79,8.18,20.67,.58,1.3,1.25,2.42,2.47,2.42,.65,0,.92,.39,.92,.81h-2.64c-.83,0-1.99-.51-2.19-.99-.2,.48-1.36,.99-2.19,.99h-2.86c0-.45,.27-.81,.92-.81,2.07,0,2.71-1.44,2.17-2.71-.36-.84-1.36-3.35-1.36-3.35h-9.12s-.85,2.43-1.19,3.41c-.45,1.31,.06,2.65,2.13,2.65,.64,0,.92,.39,.92,.81h-1.92c-.82,0-1.99-.51-2.19-.99-.2,.48-1.36,.99-2.19,.99h-1.76c0-.46,.27-.81,.92-.81,1.21,0,1.88-1.12,2.47-2.42,.89-1.97,7.42-19.4,7.91-20.71Zm3.56,15.86s-3.62-9.65-3.83-10.19c-.17-.45-.42-.47-.61-.02-.45,1.14-3.76,10.2-3.76,10.2h8.2Z" style="fill:#fc3819;"/><path d="M66.58,74.49c-3.55,0-7.7-3.31-7.7-10.44,0-8.28,4.32-10.81,7.78-10.81,2.66,0,4.51,1.65,5.31,2.87,.79,1.2,1.01,2.92,1.18,3.94,.12,.74,1.02,.79,1.01-.03-.01-.75-.42-2.51-.51-3.91-.11-1.72-.11-3.28-.11-3.77s-.48-.86-.77-.86-.26,.5-.68,1.33c-.43,.83-.73,.5-1.18,.3-1.21-.56-2.73-1.2-4.76-1.2-4.84,0-10.84,4.07-10.84,12.37,0,7.5,5.43,11.81,10.86,11.81,4.77,0,7.81-3.76,8.28-7.84,.08-.65-.71-.9-.85-.19-.81,4.04-3.16,6.43-7.01,6.43Z" style="fill:#fc3819;"/><path d="M107,71.6c0-3.9,0-14.24,0-14.48,0-1.78,.17-2.63,.69-3.19,.6-.64,1.45-.76,2.11-.76s.92-.37,.92-.81h-3.29c-.83,0-1.99,.51-2.19,.99-.2-.48-1.36-.99-2.19-.99h-3.29c0,.43,.27,.81,.92,.81s1.51,.12,2.11,.76c.52,.55,.69,1.41,.69,3.19v13.74c0,1.78-.17,2.64-.69,3.19-.6,.64-1.45,.76-2.11,.76s-.92,.36-.92,.81h3.29c.83,0,1.99-.51,2.19-.99,.2,.48,1.36,.99,2.19,.99h5.96c2.48,0,3.28-1.06,3.28-1.06,0,.92,.25,1.18,.77,1.18,.36,0,.63-.17,.65-.52,.02-.47,.13-1.25,.3-2.44,.17-1.19,.62-3.05,.83-3.67,.15-.42,.17-.73-.18-.9-.37-.17-.68,0-.92,.68-.15,.42-.24,.77-.87,2.59-.77,2.23-3.07,2.77-4.42,2.77h-3.45c-1.63,0-2.39-.76-2.39-2.66Z" style="fill:#fc3819;"/><path d="M127.32,71.6c0-3.9,0-14.24,0-14.48,0-1.78,.16-2.63,.68-3.19,.61-.64,1.46-.76,2.11-.76s.92-.37,.92-.81h-3.29c-.82,0-1.99,.51-2.18,.99-.2-.48-1.36-.99-2.19-.99h-3.28c0,.43,.27,.81,.92,.81s1.51,.12,2.11,.76c.52,.55,.68,1.41,.68,3.19v13.74c0,1.78-.16,2.64-.68,3.19-.6,.64-1.45,.76-2.11,.76s-.92,.36-.92,.81h3.28c.83,0,1.99-.51,2.19-.99,.2,.48,1.36,.99,2.18,.99h5.96c2.48,0,3.28-1.06,3.28-1.06,0,.92,.26,1.18,.77,1.18,.36,0,.63-.17,.65-.52,.03-.47,.13-1.25,.3-2.44,.17-1.19,.62-3.05,.83-3.67,.15-.42,.17-.73-.19-.9-.36-.17-.68,0-.92,.68-.15,.42-.25,.77-.87,2.59-.77,2.23-3.06,2.77-4.41,2.77h-3.46c-1.63,0-2.38-.76-2.38-2.66Z" style="fill:#fc3819;"/></svg>