<?xml version="1.0" encoding="UTF-8"?><svg id="Layer_1" xmlns="http://www.w3.org/2000/svg" viewBox="0 0 70 112"><rect x="30.86" y="77.72" width="7.85" height="27.28" style="fill:#fc3819;"/><polygon points="25.8 43.55 25.8 30.91 2.92 59.54 13.02 59.54 25.8 43.55" style="fill:#fc3819; fill-rule:evenodd;"/><rect x="43.76" y="77.72" width="7.85" height="14.21" style="fill:#fc3819;"/><polygon points="51.61 19.4 43.76 29.22 43.76 29.22 43.76 59.54 51.61 59.54 51.61 19.4" style="fill:#fc3819; fill-rule:evenodd;"/><polygon points="17.95 105 17.96 105 25.81 105 25.81 97.05 17.95 97.05 17.95 105" style="fill:#fc3819; fill-rule:evenodd;"/><polygon points="44.92 7 44.92 7 43.76 8.45 43.76 21.09 51.02 12.01 44.92 7" style="fill:#fc3819; fill-rule:evenodd;"/><rect x="43.76" y="97.05" width="19.63" height="7.95" style="fill:#fc3819;"/><polygon points="30.86 24.6 30.86 59.54 38.71 59.54 38.71 14.77 30.86 24.59 30.86 24.6" style="fill:#fc3819; fill-rule:evenodd;"/><polygon points="50.98 64.66 44.62 72.61 70 72.61 70 64.66 50.98 64.66" style="fill:#fc3819; fill-rule:evenodd;"/><rect x="0" y="64.66" width="38.71" height="7.96" style="fill:#fc3819;"/></svg>