<?xml version="1.0" encoding="UTF-8"?><svg id="Layer_1" xmlns="http://www.w3.org/2000/svg" viewBox="0 0 155 112"><path d="M9.79,50.31H0s1.91,.16,1.91,3.64v13.92c0,3.48-1.68,3.51-1.68,3.51h7.92s-1.94-.03-1.94-3.51v-4.62c.7,.22,1.81,.38,2.83,.38,4.93,0,7.76-3.07,7.76-6.9,0-3.39-2.51-6.42-7-6.42Zm-1.24,10.38c-.86,0-1.75-.16-2.35-.35v-7.15h2.13c2.45,0,3.78,1.55,3.78,3.67,0,2.25-1.27,3.83-3.56,3.83Z" style="fill:#fc3819;"/><path d="M31.76,50.31s1.88,.1,1.88,3.54v10.09c0,3.2-1.14,4.81-4.2,4.81s-4.39-1.27-4.39-4.81v-10.19c0-3.39,1.68-3.45,1.68-3.45h-7.95s1.69,.06,1.69,3.54v10.28c0,5.13,2.64,7.72,8.71,7.72,5.15,0,8.3-2.34,8.3-8.04v-9.97c0-3.51,1.84-3.54,1.84-3.54h-7.57Z" style="fill:#fc3819;"/><path d="M43.02,53.85v13.57c0,3.89-1.56,3.96-1.56,3.96h14.56l1.08-6.96c-1.14,2.63-2.54,4.05-5.28,4.05h-4.42v-14.62c0-3.48,1.72-3.54,1.72-3.54h-7.79s1.69,.1,1.69,3.54Z" style="fill:#fc3819;"/><path d="M56.15,50.31l-.51,5.92c.95-2.82,2.03-3.04,4.42-3.04h2.77v14.65c0,3.54-1.68,3.54-1.68,3.54h7.95s-1.69-.03-1.69-3.54v-14.65h2.73c2.51,0,3.43,.32,4.42,3.04l-.45-5.92h-17.96Z" style="fill:#fc3819;"/><path d="M76.4,71.38h14.63l1.05-6.42c-.99,2.41-2.35,3.45-4.93,3.48l-4.42,.03v-6.3h2.51c2.32,0,2.45,1.61,2.45,1.61v-6.14s-.16,1.65-2.51,1.65h-2.45v-6.14h4.13c2.8,0,3.56,2.09,3.78,3.16v-6.01h-14.53s2.1,.13,2.1,3.51v13.8c0,3.67-1.81,3.77-1.81,3.77Z" style="fill:#fc3819;"/><path d="M114.84,50.31h-7s1.81,.09,1.81,3.48v8.95l-10.02-12.44h-6.74c.22,.09,2.89,1.27,2.89,3.7v13.89c0,3.39-1.65,3.48-1.65,3.48h7.15s-1.97-.13-1.97-3.45v-10.76l7.09,8.61c2.61,3.16,3.4,5.6,3.4,5.6h3.31v-17.59c0-3.39,1.72-3.48,1.72-3.48Z" style="fill:#fc3819;"/><path d="M128.01,68.44l-4.42,.03v-6.3h2.51c2.32,0,2.45,1.61,2.45,1.61v-6.14s-.16,1.65-2.51,1.65h-2.45v-6.14h4.13c2.8,0,3.56,2.09,3.79,3.16v-6.01h-14.53s2.1,.13,2.1,3.51v13.8c0,3.67-1.81,3.77-1.81,3.77h14.63l1.05-6.42c-.98,2.41-2.35,3.45-4.93,3.48Z" style="fill:#fc3819;"/><path d="M148.01,50.31s.95,.06,.95,1.2c0,.6-.35,1.42-1.14,2.82l-2.7,4.65-3.02-5.19c-.6-1.04-.8-1.77-.8-2.28,0-1.14,1.02-1.2,1.02-1.2h-8.65s1.34,.09,3.37,3.64l5.02,8.73v5.16c0,3.48-1.72,3.54-1.72,3.54h7.95s-1.65-.06-1.65-3.54v-5.31l5.09-8.51c2.1-3.54,3.27-3.7,3.27-3.7h-6.99Z" style="fill:#fc3819;"/><path d="M55.69,45.02c6.71,0,11-5.16,11-11.33s-3.88-10.7-10.27-10.7-11.07,5-11.07,11.33c0,5.95,3.91,10.7,10.33,10.7Zm-.03-18.83c4.13,0,6.42,3.64,6.42,8.35s-2.42,7.21-5.66,7.21c-4.01,0-6.46-3.35-6.46-8.42,0-4.59,2.48-7.15,5.69-7.15Z" style="fill:#fc3819;"/><path d="M70.82,27.02v13.57c0,3.89-1.56,3.96-1.56,3.96h14.56l1.08-6.96c-1.14,2.63-2.54,4.05-5.28,4.05h-4.42v-14.62c0-3.48,1.72-3.54,1.72-3.54h-7.79s1.68,.09,1.68,3.54Z" style="fill:#fc3819;"/><path d="M88.88,27.02v13.61c0,3.86-1.78,3.92-1.78,3.92h9.32c7.92,0,11.26-5.22,11.26-10.76,0-6.11-4.26-10.32-10.94-10.32h-9.89s2.03,.09,2.03,3.54Zm4.58-.7h2.19c4.9,0,7.22,3.2,7.22,7.72,0,3.89-2,7.59-6.3,7.59h-3.12v-15.32Z" style="fill:#fc3819;"/><path d="M2.51,79.09c-.51-.22-.98-.42-.98-.79,0-.26,.23-.51,.74-.51s1.08,.25,1.31,.87v-1.24c-.29-.18-.74-.32-1.24-.32-1.06,0-1.83,.53-1.83,1.4,0,.68,.54,1,1.09,1.27,.61,.3,1.26,.5,1.26,.99,0,.34-.36,.54-.84,.54-.62,0-1.27-.32-1.54-1.15v1.49c.37,.22,.92,.35,1.5,.35,1.11,0,1.94-.49,1.94-1.41,0-.87-.76-1.21-1.43-1.5Z" style="fill:#fc3819;"/><path d="M7.96,77.21h-1.96s.42,.03,.42,.75v3.2c0,.71-.42,.73-.42,.73h1.96s-.42-.02-.42-.73v-3.2c0-.72,.42-.75,.42-.75Z" style="fill:#fc3819;"/><path d="M13.92,77.98v1.99l-2.49-2.76h-1.68c.06,.02,.72,.28,.72,.82v3.09c0,.75-.41,.77-.41,.77h1.78s-.49-.03-.49-.77v-2.39l1.77,1.91c.65,.7,.85,1.25,.85,1.25h.82v-3.91c0-.75,.43-.77,.43-.77h-1.74s.45,.02,.45,.77Z" style="fill:#fc3819;"/><path d="M20.67,80.45v.75c-.15,.04-.4,.08-.63,.08-1.02,0-1.65-.81-1.65-1.75s.67-1.74,1.73-1.74c.71,0,1.36,.34,1.58,.97v-1.39c-.36-.17-.94-.27-1.51-.27-2,0-3,1.29-3,2.55,0,1.19,.89,2.34,2.66,2.34,.59,0,1.4-.09,1.91-.28v-1.29c0-.62,.44-.65,.44-.65h-2s.46,.04,.46,.67Z" style="fill:#fc3819;"/><path d="M26.66,81.25h-1.1v-3.25c0-.77,.43-.79,.43-.79h-1.94s.42,.02,.42,.79v3.02c0,.87-.39,.88-.39,.88h3.63l.27-1.55c-.28,.58-.63,.9-1.31,.9Z" style="fill:#fc3819;"/><path d="M32.59,81.24h-1.1s0-1.39,0-1.39h.91c.58,0,.61,.36,.61,.36v-1.36s-.04,.37-.62,.37h-.89v-1.37h1.03c.7,0,.89,.46,.94,.7v-1.34h-3.62s.52,.03,.52,.78v3.07c0,.82-.45,.84-.45,.84h3.64l.26-1.43c-.24,.53-.59,.77-1.23,.77Z" style="fill:#fc3819;"/><path d="M45.39,77.21h-1.75l-1.39,2.83-1.4-2.83h-1.94s.52,.01,.52,.75v3.09c0,.82-.5,.84-.5,.84h1.84s-.51-.03-.51-.84v-2.62l1.82,3.57,1.78-3.57v2.67c0,.79-.39,.8-.39,.8h1.91s-.44-.02-.44-.8v-3.11c0-.75,.44-.77,.44-.77Z" style="fill:#fc3819;"/><path d="M52.27,81.01l-1.73-3.8h-.93l-1.67,3.78c-.39,.9-.76,.91-.76,.91h1.8s-.36-.01-.36-.34c0-.1,.04-.2,.11-.37l.14-.32h2.08l.13,.33c.07,.18,.13,.29,.13,.39,0,.3-.34,.32-.34,.32h2.18s-.38-.02-.78-.88Zm-3.15-.77l.76-1.81,.78,1.81h-1.54Z" style="fill:#fc3819;"/><path d="M57.41,81.25h-1.1v-3.25c0-.77,.43-.79,.43-.79h-1.94s.42,.02,.42,.79v3.02c0,.87-.39,.88-.39,.88h3.63l.27-1.55c-.28,.58-.63,.9-1.31,.9Z" style="fill:#fc3819;"/><path d="M60.71,77.21l-.13,1.31c.24-.63,.51-.67,1.1-.67h.69v3.26c0,.79-.42,.79-.42,.79h1.98s-.42,0-.42-.79v-3.26h.68c.63,0,.85,.07,1.1,.67l-.11-1.31h-4.47Z" style="fill:#fc3819;"/><path d="M72.51,79.09c-.51-.22-.98-.42-.98-.79,0-.26,.23-.51,.74-.51s1.08,.25,1.31,.87v-1.24c-.29-.18-.74-.32-1.24-.32-1.06,0-1.83,.53-1.83,1.4,0,.68,.54,1,1.09,1.27,.61,.3,1.26,.5,1.26,.99,0,.34-.36,.54-.84,.54-.62,0-1.27-.32-1.54-1.15v1.49c.37,.22,.92,.35,1.5,.35,1.11,0,1.94-.49,1.94-1.41,0-.87-.76-1.21-1.43-1.5Z" style="fill:#fc3819;"/><path d="M77.22,79.52c0-.96,.63-1.71,1.59-1.71,.66,0,1.25,.34,1.5,1.03v-1.46c-.35-.16-.92-.27-1.42-.27-1.9,0-2.87,1.26-2.87,2.54,0,1.21,.86,2.35,2.67,2.35,.7,0,1.36-.28,1.73-.65v-.82c-.4,.46-1.01,.73-1.58,.73-1,0-1.62-.76-1.62-1.74Z" style="fill:#fc3819;"/><path d="M85.23,77.11c-1.64,0-2.75,1.11-2.75,2.52,0,1.32,.97,2.38,2.57,2.38s2.74-1.15,2.74-2.52-.97-2.38-2.56-2.38Zm0,4.17c-1,0-1.61-.75-1.61-1.87,0-1.02,.62-1.59,1.42-1.59,1.03,0,1.6,.81,1.6,1.86s-.6,1.6-1.41,1.6Z" style="fill:#fc3819;"/><path d="M89.89,77.21l-.13,1.31c.24-.63,.51-.67,1.1-.67h.69v3.26c0,.79-.42,.79-.42,.79h1.98s-.42,0-.42-.79v-3.26h.68c.62,0,.85,.07,1.1,.67l-.11-1.31h-4.47Z" style="fill:#fc3819;"/><path d="M97.65,79.52c0-.96,.63-1.71,1.59-1.71,.67,0,1.25,.34,1.5,1.03v-1.46c-.35-.16-.92-.27-1.42-.27-1.9,0-2.87,1.26-2.87,2.54,0,1.21,.85,2.35,2.67,2.35,.7,0,1.36-.28,1.73-.65v-.82c-.4,.46-1.01,.73-1.58,.73-1,0-1.62-.76-1.62-1.74Z" style="fill:#fc3819;"/><path d="M108.24,77.21h-1.99s.43,.02,.43,.79v1.21h-2.27v-1.21c0-.77,.43-.79,.43-.79h-1.99s.43,.02,.43,.79v3.11c0,.77-.43,.79-.43,.79h1.99s-.43,0-.43-.79v-1.26h2.27v1.26c0,.77-.43,.79-.43,.79h1.99s-.42-.01-.42-.79v-3.11c0-.77,.42-.79,.42-.79Z" style="fill:#fc3819;"/><path d="M119.8,77.6c0,.11-.02,.24-.09,.4l-.86,2.31-.86-2.3c-.06-.17-.09-.3-.09-.41,0-.38,.31-.4,.31-.4h-1.91s.28,.03,.55,.75l.06,.17-.89,2.19-.86-2.31c-.06-.18-.1-.32-.1-.43,0-.36,.28-.38,.28-.38h-2.15s.44,.01,.74,.84l1.44,3.84h.85l1.06-2.72,1.01,2.72h.86l1.42-3.8c.32-.85,.75-.88,.75-.88h-1.84s.32,.01,.32,.39Z" style="fill:#fc3819;"/><path d="M128.45,77.21h-1.99s.43,.02,.43,.79v1.21h-2.27v-1.21c0-.77,.43-.79,.43-.79h-2s.43,.02,.43,.79v3.11c0,.77-.43,.79-.43,.79h2s-.43,0-.43-.79v-1.26h2.27v1.26c0,.77-.43,.79-.43,.79h1.99s-.42-.01-.42-.79v-3.11c0-.77,.42-.79,.42-.79Z" style="fill:#fc3819;"/><path d="M132.41,77.21h-1.96s.42,.03,.42,.75v3.2c0,.71-.42,.73-.42,.73h1.96s-.42-.02-.42-.73v-3.2c0-.72,.42-.75,.42-.75Z" style="fill:#fc3819;"/><path d="M136.53,79.09c-.51-.22-.98-.42-.98-.79,0-.26,.23-.51,.74-.51s1.08,.25,1.31,.87v-1.24c-.29-.18-.74-.32-1.24-.32-1.06,0-1.83,.53-1.83,1.4,0,.68,.54,1,1.09,1.27,.61,.3,1.26,.5,1.26,.99,0,.34-.36,.54-.84,.54-.62,0-1.27-.32-1.53-1.15v1.49c.37,.22,.92,.35,1.5,.35,1.11,0,1.94-.49,1.94-1.41,0-.87-.76-1.21-1.43-1.5Z" style="fill:#fc3819;"/><path d="M144.18,81.05l-1.59-1.78,1.31-1.24c.81-.77,1.27-.82,1.27-.82h-2.09s.21,.01,.21,.18c0,.12-.09,.31-.43,.63l-1.31,1.27v-1.29c0-.77,.42-.79,.42-.79h-1.98s.42,.02,.42,.79v3.12c0,.76-.42,.78-.42,.78h1.98s-.42-.01-.42-.78v-1.41l1.93,2.19h1.81c-.07-.01-.4-.04-1.11-.84Z" style="fill:#fc3819;"/><path d="M150.69,77.48c0,.13-.09,.32-.28,.63l-.67,1.03-.75-1.15c-.15-.23-.2-.39-.2-.51,0-.25,.25-.27,.25-.27h-2.15s.33,.02,.84,.81l1.25,1.94v1.15c0,.77-.43,.79-.43,.79h1.98s-.41-.01-.41-.79v-1.18l1.27-1.89c.52-.79,.82-.82,.82-.82h-1.74s.24,.01,.24,.27Z" style="fill:#fc3819;"/></svg>