<?xml version="1.0" encoding="UTF-8"?><svg id="Layer_1" xmlns="http://www.w3.org/2000/svg" viewBox="0 0 177 112"><path d="M10,36.7l26.45,24.85v-23.76h5.7v37.52L15.7,50.15v24.01h-5.7V36.7Zm90.09,1.09l10.46,13.25,10.46-13.25h7.37s-14.18,17.75-14.18,17.75l14.18,18.62h-7.37l-10.46-13.82-10.46,13.82h-7.37l14.18-18.62-14.18-17.75h7.37Zm-16.97,0v5.63h-21.36v9.67h19.41v5.58h-19.41v9.86h21.36v5.63h-27.06V37.79h27.06Zm83.89,0v5.63h-13.07v30.74h-5.7v-30.74h-13.07v-5.63h31.84Z" style="fill:#fc3819; fill-rule:evenodd;"/></svg>