<?xml version="1.0" encoding="UTF-8"?><svg id="Layer_1" xmlns="http://www.w3.org/2000/svg" viewBox="0 0 172 112"><path d="M149.63,50.6c0-.7,.44-1.29,1.05-1.52,.19-.07,.38-.12,.6-.12s.41,.04,.59,.12c.43,.17,.77,.5,.93,.93h16.92v-2.88c-.39-.15-.7-.44-.88-.81h-12.1c-.33,0-.6-.27-.6-.59v-3.72c-.6-.24-1.03-.83-1.03-1.52,0-.91,.74-1.64,1.64-1.64,.7,0,1.29,.43,1.53,1.05h9.65v-2.75c-.47-.15-.86-.49-1.04-.95h-10.15c-.33,0-.6-.27-.6-.59v-3.6c-.6-.24-1.03-.83-1.03-1.52,0-.91,.74-1.64,1.64-1.64,.72,0,1.32,.46,1.54,1.1,.06,.17,.1,.35,.1,.54,0,.23-.05,.45-.14,.65-.18,.41-.51,.72-.93,.88v3h9.55c.23-.62,.83-1.06,1.53-1.06,.91,0,1.64,.73,1.64,1.64,0,.65-.38,1.21-.93,1.47v3.43c0,.33-.27,.59-.6,.59h-10.25c-.17,.43-.51,.77-.95,.93v3.12h11.42c.21-.67,.82-1.16,1.56-1.16,.91,0,1.64,.73,1.64,1.64,0,.7-.44,1.29-1.05,1.52v3.48c0,.33-.27,.59-.6,.59h-17.51c-.24,.61-.83,1.05-1.53,1.05-.91,0-1.64-.73-1.64-1.64" style="fill:#fc3819;"/><path d="M149.63,38.12c0,.7,.44,1.29,1.05,1.52,.19,.07,.38,.12,.6,.12s.41-.04,.59-.12c.61-.24,1.05-.83,1.05-1.52s-.44-1.29-1.05-1.52v-9.43c.43-.17,.77-.5,.93-.93h15.73c.18,.45,.55,.8,1.01,.96,.16,.05,.33,.09,.51,.09,.24,0,.47-.06,.68-.15,.57-.26,.97-.83,.97-1.49,0-.91-.74-1.64-1.64-1.64-.7,0-1.29,.43-1.53,1.04h-15.73c-.24-.61-.83-1.04-1.53-1.04-.91,0-1.64,.73-1.64,1.64,0,.7,.44,1.29,1.05,1.52v9.43c-.61,.24-1.05,.83-1.05,1.52" style="fill:#fc3819;"/><path d="M170.36,79.72c-.74,0-1.36,.49-1.56,1.16h-11.42v-3.12c.43-.16,.78-.5,.95-.93h8.6c.24,.61,.83,1.04,1.53,1.04,.91,0,1.64-.73,1.64-1.64,0-.65-.38-1.21-.93-1.47v-3.41c0-.33-.27-.59-.59-.59h-10.24c-.17-.44-.51-.79-.95-.95v-2.92h12.8c.33,0,.6-.27,.6-.59v-3.39c.57-.26,.97-.83,.97-1.49,0-.91-.74-1.64-1.64-1.64-.7,0-1.29,.43-1.53,1.05-.07,.18-.12,.38-.12,.59s.04,.41,.12,.59c.18,.45,.55,.8,1.01,.96v2.74h-12.8c-.33,0-.6,.27-.6,.59v3.53c-.6,.24-1.03,.83-1.03,1.52,0,.91,.74,1.64,1.64,1.64,.69,0,1.28-.42,1.52-1.03h9.66v2.73c-.48,.15-.87,.5-1.05,.97h-8.6c-.24-.61-.83-1.05-1.53-1.05-.91,0-1.64,.73-1.64,1.64,0,.69,.43,1.28,1.03,1.52v3.72c0,.33,.27,.59,.6,.59h12.1c.18,.37,.49,.66,.88,.81v2.88h-16.92c-.17-.43-.51-.76-.93-.93v-9.43c.61-.24,1.05-.83,1.05-1.52s-.44-1.29-1.05-1.52c-.19-.07-.39-.12-.6-.12s-.41,.04-.6,.12c-.61,.24-1.05,.83-1.05,1.52s.44,1.29,1.05,1.52v9.43c-.61,.24-1.05,.83-1.05,1.52,0,.91,.74,1.64,1.64,1.64,.7,0,1.29-.43,1.53-1.05h17.51c.33,0,.6-.27,.6-.59v-3.48c.61-.24,1.05-.83,1.05-1.52,0-.91-.74-1.64-1.64-1.64" style="fill:#fc3819;"/><path d="M124.04,50.77c.3,.38,.76,.63,1.28,.63,.91,0,1.64-.73,1.64-1.64,0,0,0,0,0,0,3.97-1.9,6.65-5.54,7.15-10.08,.66-.21,1.13-.82,1.13-1.55s-.47-1.33-1.13-1.55c-.48-4.55-3.16-8.19-7.16-10.09,0,0,0-.02,0-.02,0-.91-.73-1.64-1.64-1.64-.53,0-1,.25-1.3,.64-.21,.28-.35,.62-.35,1,0,.06,.01,.11,.02,.17,.08,.83,.78,1.47,1.63,1.47,.47,0,.88-.2,1.18-.51,3.57,1.73,5.96,4.99,6.42,9.04-.57,.26-.96,.83-.96,1.49s.39,1.22,.95,1.48c-.47,4.05-2.86,7.3-6.4,9.03-.3-.32-.72-.52-1.19-.52-.86,0-1.55,.66-1.63,1.5-1.07,.25-2.19,.39-3.38,.39h-8.22c-.17-.43-.5-.76-.93-.93-.19-.07-.39-.12-.6-.12s-.41,.04-.6,.12c-.61,.24-1.05,.83-1.05,1.52,0,.91,.74,1.64,1.64,1.64,.7,0,1.29-.43,1.53-1.04h8.22c1.31,0,2.55-.15,3.73-.42" style="fill:#fc3819;"/><path d="M112.09,26.24c.07-.18,.11-.38,.11-.59s-.04-.41-.11-.59c-.24-.61-.83-1.05-1.53-1.05-.91,0-1.64,.73-1.64,1.64,0,.7,.44,1.29,1.05,1.52v9.43c-.61,.24-1.05,.83-1.05,1.52s.44,1.29,1.05,1.52c.18,.07,.38,.12,.6,.12s.41-.04,.6-.12c.61-.24,1.05-.83,1.05-1.52s-.43-1.29-1.05-1.52v-9.43c.43-.17,.76-.5,.93-.93" style="fill:#fc3819;"/><path d="M126.21,38.12c0,.65,.38,1.2,.93,1.47,.22,.11,.46,.17,.71,.17,.16,0,.32-.03,.47-.08,.68-.2,1.17-.82,1.17-1.56s-.5-1.36-1.18-1.56c-.65-3.93-3.76-6.55-8-6.55h-2.72c-.24-.61-.83-1.05-1.53-1.05-.91,0-1.64,.73-1.64,1.64,0,.7,.44,1.29,1.05,1.52,.19,.07,.39,.12,.6,.12s.41-.04,.6-.12c.43-.17,.77-.5,.93-.93h2.72c3.64,0,6.23,2.14,6.82,5.46-.54,.27-.92,.82-.92,1.47" style="fill:#fc3819;"/><path d="M23.92,27.04c-.17,0-.33,.03-.49,.08-2.48-1.93-5.29-2.81-8.89-2.81-.98,0-1.92,.09-2.83,.27-.3-.36-.75-.59-1.25-.59-.85,0-1.54,.65-1.63,1.47-4.32,1.87-7.33,5.85-7.85,10.8,.16-.05,.33-.09,.51-.09,.03,0,.05,0,.07,0-.11,0-.22,.02-.33,.04-.72,.18-1.25,.82-1.25,1.59s.53,1.41,1.25,1.59c.11,.03,.21,.04,.33,.04-.03,0-.05,0-.07,0-.18,0-.36-.04-.52-.09,.5,4.99,3.51,9.01,7.85,10.86,.04,.87,.75,1.57,1.63,1.57,.55,0,1.04-.27,1.34-.69,.19-.27,.31-.59,.31-.95,0-.07-.01-.14-.02-.22-.11-.8-.79-1.42-1.62-1.42-.5,0-.94,.23-1.24,.57-3.87-1.68-6.56-5.27-7.04-9.73,.08-.03,.17-.06,.25-.1,.51-.28,.85-.81,.85-1.43s-.35-1.15-.86-1.43c-.07-.04-.15-.06-.23-.09,.5-4.39,3.16-7.93,6.98-9.65,.3,.38,.76,.63,1.29,.63,.88,0,1.58-.69,1.63-1.55,.79-.14,1.6-.22,2.44-.22,3.25,0,5.72,.73,7.94,2.39-.13,.23-.21,.5-.21,.78,0,.43,.17,.82,.44,1.11,.28,.3,.68,.5,1.13,.52,.02,0,.05,0,.07,0,.91,0,1.64-.73,1.64-1.64s-.74-1.64-1.64-1.64" style="fill:#fc3819;"/><path d="M8.83,37.82c0-.62-.35-1.15-.86-1.43-.23-.13-.5-.21-.78-.21-.14,0-.27,.02-.39,.05-.72,.18-1.25,.82-1.25,1.59s.53,1.41,1.25,1.59c.65,4,3.75,6.85,7.72,6.85,2.3,0,3.96-.71,5.56-1.91,.29,.26,.67,.43,1.1,.43,.32,0,.61-.09,.86-.25,.35-.22,.61-.56,.72-.96,.04-.14,.06-.28,.06-.43,0-.91-.74-1.64-1.64-1.64s-1.64,.73-1.64,1.64c0,.04,0,.08,.01,.12-1.49,1.15-2.94,1.81-5.03,1.81-3.34,0-5.96-2.42-6.54-5.82,.51-.28,.85-.81,.85-1.43" style="fill:#fc3819;"/><path d="M20.11,34.09c.39,.48,1,.67,1.57,.57,.26-.05,.52-.15,.74-.33,.11-.09,.19-.18,.27-.29,.44-.59,.45-1.42-.04-2.02s-1.31-.76-1.98-.44c-3.04-2.68-7.24-2.94-10.32-.44-1.78,1.45-2.62,3.05-3.1,4.98-.39-.02-.79,.09-1.12,.36-.24,.2-.41,.46-.51,.73-.14,.39-.12,.82,.05,1.2,.06,.13,.13,.26,.22,.37,.57,.7,1.61,.81,2.31,.23s.81-1.6,.23-2.31c-.03-.03-.06-.06-.09-.09,.42-1.83,1.14-3.26,2.75-4.57,2.59-2.11,6.15-1.88,8.75,.39-.21,.54-.15,1.17,.24,1.64" style="fill:#fc3819;"/><path d="M133.65,77.66c-.91,0-1.64,.73-1.64,1.64,0,.04,0,.08,.01,.12-1.49,1.15-2.94,1.81-5.03,1.81-3.34,0-5.96-2.42-6.54-5.82,.51-.28,.85-.81,.85-1.43s-.35-1.15-.86-1.43c.56-3.39,3.18-5.82,6.54-5.82,1.67,0,3.17,.52,4.73,1.64-.02,.09-.03,.19-.03,.28,0,.91,.74,1.64,1.64,1.64s1.64-.73,1.64-1.64c0-.18-.04-.36-.09-.52-.13-.4-.41-.72-.78-.92-.23-.12-.49-.2-.77-.2-.37,0-.71,.13-.99,.34-1.74-1.24-3.45-1.81-5.36-1.81-3.91,0-7.07,2.91-7.72,6.85-.72,.18-1.25,.82-1.25,1.59s.54,1.41,1.25,1.59c.65,4,3.75,6.85,7.72,6.85,2.3,0,3.96-.71,5.56-1.91,.29,.26,.68,.43,1.1,.43,.32,0,.61-.09,.86-.25,.35-.22,.61-.56,.72-.96,.04-.14,.06-.28,.06-.43,0-.91-.74-1.64-1.64-1.64" style="fill:#fc3819;"/><path d="M122.95,84.66c-.5,0-.94,.22-1.24,.57-3.88-1.69-6.58-5.29-7.05-9.77,.57-.26,.97-.83,.97-1.49s-.39-1.23-.96-1.49c.49-4.41,3.16-7.97,6.99-9.69,.3,.38,.76,.63,1.29,.63,.88,0,1.58-.68,1.63-1.55,0-.03,0-.06,0-.09,0-.4-.15-.77-.39-1.05-.3-.36-.75-.59-1.25-.59-.85,0-1.54,.65-1.63,1.47-4.32,1.87-7.33,5.85-7.85,10.8-.66,.22-1.13,.82-1.13,1.55s.47,1.33,1.12,1.55c.5,4.99,3.51,9.01,7.85,10.86,.04,.87,.75,1.57,1.63,1.57,.55,0,1.04-.27,1.34-.69,.19-.27,.31-.59,.31-.95,0-.07-.01-.15-.02-.22-.11-.8-.79-1.42-1.62-1.42" style="fill:#fc3819;"/><path d="M84.48,75.32c-.09-.23-.22-.43-.4-.59-.29-.27-.67-.44-1.1-.45-.01,0-.02,0-.03,0-.91,0-1.64,.73-1.64,1.64s.74,1.64,1.64,1.64c.7,0,1.29-.43,1.53-1.05h3.59c.24,.61,.83,1.05,1.53,1.05,.91,0,1.64-.73,1.64-1.64s-.74-1.64-1.64-1.64c0,0-.02,0-.03,0l-2.1-5.11c.28-.29,.45-.69,.45-1.12,0-.91-.74-1.64-1.64-1.64s-1.64,.73-1.64,1.64c0,.43,.17,.83,.45,1.12,.27,.29,.65,.48,1.08,.51,.04,0,.08,.01,.12,.01s.08,0,.12-.01l2.08,5.06c-.17,.16-.31,.36-.4,.59h-3.59Z" style="fill:#fc3819;"/><path d="M99.6,84.72s-.03,0-.05,0l-4.96-11.64c.33-.3,.55-.73,.55-1.22,0-.9-.74-1.64-1.64-1.64-.04,0-.08,0-.12,.01-.42,.03-.8,.22-1.08,.51-.28,.29-.45,.68-.45,1.12,0,.9,.72,1.63,1.62,1.64l4.98,11.68c-.17,.16-.29,.36-.38,.58h-3.83l-.42-1.03-1.07-2.61c.34-.3,.56-.73,.56-1.22,0-.91-.74-1.64-1.64-1.64-.64,0-1.19,.37-1.46,.91h-7.79c-.27-.54-.82-.91-1.46-.91-.91,0-1.64,.73-1.64,1.64,0,.46,.19,.87,.5,1.17,.29,.28,.67,.45,1.1,.46,.02,0,.03,0,.05,0,.75,0,1.37-.5,1.57-1.18h7.58c.2,.67,.81,1.17,1.54,1.18l1.1,2.7,.55,1.34c.09,.22,.31,.37,.55,.37h4.23c.24,.61,.83,1.04,1.53,1.04,.91,0,1.64-.73,1.64-1.64s-.74-1.64-1.64-1.64" style="fill:#fc3819;"/><path d="M79.32,73.51c.91,0,1.64-.73,1.64-1.64,0-.47-.2-.9-.53-1.2l3.33-7.81,.44-1.04h3.12c.24,.61,.83,1.05,1.53,1.05,.03,0,.05,0,.08,0,.42-.02,.81-.2,1.09-.48,.29-.3,.47-.7,.47-1.15,0-.9-.73-1.64-1.64-1.64-.7,0-1.29,.43-1.53,1.05h-3.52c-.24,0-.45,.14-.55,.36l-.63,1.48-3.31,7.76s0,0,0,0c-.91,0-1.65,.73-1.65,1.64,0,.44,.18,.85,.47,1.14l-5,11.72c-.85,.06-1.53,.76-1.53,1.63s.74,1.64,1.64,1.64c.7,0,1.29-.43,1.53-1.05,.07-.18,.12-.38,.12-.59s-.04-.41-.12-.59c-.1-.27-.28-.5-.5-.67l4.94-11.59s.06,0,.09,0" style="fill:#fc3819;"/><path d="M15.25,71.5c-.1-.82-.8-1.46-1.65-1.44-.51,0-.96,.25-1.25,.62-.23,.29-.37,.65-.37,1.04,0,.03,0,.06,.01,.1,.06,.86,.78,1.53,1.65,1.52,.54,0,1.01-.28,1.3-.68,5.39,1.42,7.4,3.29,7.4,6.89v.07c0,2.15-.79,3.89-2.2,5.12-.25-.15-.54-.24-.85-.23-.9,.01-1.61,.74-1.62,1.63-1.13,.4-2.44,.62-3.92,.62-3.29,0-6.43-1.03-9.02-2.9,.06-.17,.1-.36,.1-.56,0-.28-.09-.54-.21-.77-.2-.36-.52-.63-.92-.76-.17-.05-.35-.09-.53-.09-.91,.01-1.63,.76-1.62,1.66,.01,.91,.76,1.63,1.67,1.62,.27,0,.51-.08,.74-.19,2.81,2.06,6.24,3.18,9.81,3.18,1.62,0,3.07-.25,4.34-.7,.31,.34,.74,.55,1.24,.54,.91-.01,1.63-.76,1.62-1.66,0-.16-.03-.31-.08-.45,1.7-1.45,2.66-3.53,2.66-6.06v-.07c0-4.85-3.31-6.73-8.29-8.04" style="fill:#fc3819;"/><path d="M21.98,63.19c-.29,0-.56,.09-.79,.23-2.43-1.54-5.2-2.33-8.27-2.33-2.14,0-4.02,.51-5.53,1.4-.26-.17-.58-.27-.92-.27-.91,.01-1.63,.76-1.62,1.66,0,.26,.07,.5,.18,.72-.94,1.28-1.46,2.84-1.46,4.6v.07c0,5.41,3.79,6.92,8.43,8.12,.05,.87,.77,1.56,1.66,1.54,.53,0,1-.27,1.3-.67,.2-.28,.33-.62,.32-.99,0-.06-.01-.11-.02-.17-.1-.82-.8-1.46-1.65-1.45-.5,0-.94,.24-1.24,.6-5.15-1.34-7.61-2.76-7.61-6.99v-.07c0-1.46,.41-2.75,1.16-3.81,.19,.07,.39,.11,.6,.11,.91-.01,1.63-.76,1.62-1.66,0-.14-.03-.27-.06-.39,1.31-.75,2.96-1.17,4.84-1.17,2.79,0,5.32,.69,7.53,2.06-.05,.16-.09,.33-.08,.51,0,.4,.16,.76,.4,1.04,.26,.31,.64,.51,1.06,.56,.07,0,.14,.02,.21,.02,.91-.01,1.63-.76,1.62-1.66-.01-.91-.76-1.63-1.67-1.62" style="fill:#fc3819;"/><path d="M53.11,70.18c0,.58,.31,1.09,.76,1.38,.25,.16,.55,.26,.88,.26,.11,0,.22-.01,.32-.03,.75-.15,1.32-.81,1.32-1.61s-.55-1.44-1.29-1.6c-.6-1.78-2.31-2.81-4.81-2.81h-2.72c-.24-.61-.83-1.05-1.53-1.05-.91,0-1.64,.73-1.64,1.64,0,.7,.44,1.29,1.05,1.52,.19,.07,.38,.12,.6,.12s.41-.04,.6-.12c.43-.17,.76-.5,.93-.93h2.72c1.16,0,2.96,.27,3.62,1.82-.47,.29-.79,.8-.79,1.4" style="fill:#fc3819;"/><path d="M42.18,73.88c0-.7-.44-1.29-1.05-1.52v-9.43c.43-.17,.77-.5,.93-.93h8.69c.85,0,1.65,.09,2.4,.23,.16,.73,.82,1.28,1.6,1.28,.39,0,.75-.14,1.03-.37,.32-.26,.54-.63,.59-1.06,0-.07,.02-.14,.02-.21,0-.9-.74-1.64-1.64-1.64-.6,0-1.13,.33-1.41,.81-.81-.15-1.67-.24-2.59-.24h-8.69c-.24-.61-.83-1.05-1.53-1.05-.91,0-1.64,.73-1.64,1.64,0,.69,.44,1.29,1.05,1.52v9.43c-.61,.24-1.05,.83-1.05,1.52s.44,1.29,1.05,1.52v9.43c-.61,.24-1.05,.83-1.05,1.52,0,.91,.74,1.64,1.64,1.64,.7,0,1.29-.43,1.53-1.05,.07-.18,.12-.38,.12-.59s-.04-.41-.12-.59c-.17-.43-.5-.76-.93-.93v-9.43c.61-.24,1.05-.83,1.05-1.52" style="fill:#fc3819;"/><path d="M60.82,68.62c-.16-.05-.32-.08-.5-.08-.25,0-.49,.06-.7,.16-.56,.26-.94,.82-.94,1.48s.37,1.19,.91,1.46c-.4,2.32-1.71,4.15-3.71,5.3-.29-.28-.69-.45-1.13-.45-.86,0-1.55,.66-1.63,1.5-.9,.2-1.87,.31-2.91,.31h-2.76c-.28-.5-.81-.84-1.42-.84-.91,0-1.64,.73-1.64,1.64,0,.7,.44,1.29,1.05,1.52,.19,.07,.38,.11,.6,.11s.41-.04,.6-.11c.49-.19,.87-.62,1-1.14h2.59c1.16,0,2.24-.12,3.25-.35,.3,.38,.76,.63,1.29,.63,.91,0,1.64-.73,1.64-1.64,0-.03,0-.05,0-.07,2.41-1.32,3.96-3.51,4.4-6.3,.68-.2,1.18-.82,1.18-1.57s-.48-1.34-1.15-1.56" style="fill:#fc3819;"/><path d="M40.35,27.17c.18,.07,.38,.12,.6,.12s.41-.04,.6-.12c.43-.17,.76-.5,.93-.93h2.45c.17,.42,.5,.76,.93,.93v7c-.61,.24-1.04,.83-1.04,1.52s.43,1.28,1.04,1.52v7c-.61,.24-1.04,.83-1.04,1.52,0,.91,.74,1.64,1.64,1.64,.74,0,1.36-.5,1.57-1.17,.04-.15,.08-.3,.08-.47,0-.26-.07-.5-.17-.72-.18-.37-.49-.66-.88-.81v-6.99c.62-.24,1.05-.83,1.05-1.53s-.44-1.29-1.05-1.53v-6.99c.62-.24,1.05-.83,1.05-1.53,0-.91-.74-1.64-1.64-1.64-.7,0-1.29,.43-1.53,1.04h-2.45c-.24-.61-.83-1.04-1.53-1.04-.91,0-1.64,.73-1.64,1.64,0,.7,.44,1.29,1.05,1.52" style="fill:#fc3819;"/><path d="M40.95,52.24c.7,0,1.29-.43,1.53-1.05h16.44c.33,0,.6-.27,.6-.59v-3.34c.61-.24,1.05-.83,1.05-1.52,0-.91-.74-1.64-1.64-1.64-.65,0-1.2,.38-1.47,.92-.11,.22-.17,.46-.17,.72,0,.16,.03,.32,.08,.47,.15,.48,.5,.87,.97,1.06v2.75h-15.85c-.17-.43-.5-.76-.93-.93-.19-.07-.39-.12-.6-.12s-.41,.04-.6,.12c-.61,.24-1.05,.83-1.05,1.52,0,.91,.74,1.64,1.64,1.64" style="fill:#fc3819;"/><path d="M72.68,33.11c0,.91,.74,1.64,1.64,1.64,.1,0,.2-.01,.3-.03l3.26,5.12c-.17,.26-.27,.57-.27,.9,0,.66,.4,1.23,.96,1.49v6.73c-.47,.29-.78,.8-.78,1.39,0,.91,.74,1.64,1.64,1.64,.6,0,1.12-.32,1.4-.8,.15-.25,.24-.53,.24-.84,0-.12-.01-.24-.04-.35-.14-.63-.64-1.13-1.27-1.26v-6.45c.65-.22,1.13-.82,1.13-1.55,0-.9-.74-1.64-1.64-1.64-.14,0-.27,.02-.39,.05l-3.22-5.07c.21-.27,.33-.61,.33-.98,0-.91-.74-1.64-1.64-1.64-.11,0-.22,.01-.33,.03l-3-4.73-.35-.55h3.8c.24,.61,.83,1.05,1.53,1.05,.1,0,.19-.01,.29-.03,.41-.07,.77-.3,1.02-.62,.21-.28,.34-.62,.34-.99,0-.91-.74-1.64-1.64-1.64-.7,0-1.29,.43-1.53,1.05h-4.88c-.22,0-.42,.12-.52,.31-.11,.19-.1,.42,.02,.6l.83,1.31,3.11,4.88c-.19,.27-.31,.6-.31,.96" style="fill:#fc3819;"/><path d="M95.57,25.64c0-.91-.74-1.64-1.64-1.64-.7,0-1.29,.43-1.53,1.05h-4.37c-.21,0-.4,.11-.51,.29l-.83,1.37-3.98,6.57c-.23-.13-.5-.21-.79-.21-.26,0-.5,.06-.72,.17-.39,.19-.69,.52-.83,.93-.06,.17-.1,.35-.1,.54,0,.91,.74,1.64,1.64,1.64s1.64-.73,1.64-1.64c0-.15-.03-.3-.07-.44l4.25-7,.62-1.03h4.04c.09,.23,.23,.43,.41,.6l-2.99,4.67c-.08-.01-.17-.03-.25-.03-.91,0-1.64,.73-1.64,1.64,0,.34,.1,.65,.28,.91l-3.27,5.11c-.1-.02-.19-.03-.29-.03-.91,0-1.64,.73-1.64,1.64,0,.71,.45,1.3,1.08,1.53,.18,.06,.37,.11,.57,.11,.22,0,.43-.05,.63-.12,.6-.25,1.02-.83,1.02-1.51,0-.37-.13-.71-.34-.98l3.24-5.06c.12,.03,.25,.05,.38,.05,.91,0,1.64-.73,1.64-1.64,0-.38-.14-.73-.36-1.01l3.09-4.82c.9,0,1.63-.74,1.63-1.64" style="fill:#fc3819;"/></svg>