<?xml version="1.0" encoding="UTF-8"?><svg id="Layer_1" xmlns="http://www.w3.org/2000/svg" viewBox="0 0 147 112"><path d="M20.23,48.02c2.55,0,3.82,.94,3.82,2.81,0,.97-.33,1.72-.98,2.26-.65,.54-1.6,.81-2.84,.81h-3.63v-5.88h3.63Zm52.5,0c2.55,0,3.82,.94,3.82,2.81,0,.97-.33,1.72-.98,2.26-.65,.54-1.6,.81-2.84,.81h-3.63v-5.88h3.63Zm-51.89,9.58c2.93,0,4.4,1.08,4.4,3.24,0,1.01-.39,1.79-1.16,2.33-.77,.54-1.87,.81-3.31,.81h-4.18v-6.38h4.24Zm52.5,0c2.93,0,4.4,1.08,4.4,3.24,0,1.01-.39,1.79-1.16,2.33-.77,.54-1.87,.81-3.31,.81h-4.18v-6.38h4.24Zm-52.66-13.41H11.81v23.63h9.41c1.86,0,3.46-.28,4.79-.83,1.33-.55,2.35-1.33,3.07-2.35,.72-1.01,1.08-2.22,1.08-3.63s-.37-2.65-1.11-3.65c-.74-1-1.8-1.73-3.2-2.2,1.01-.48,1.77-1.14,2.28-1.97,.51-.83,.77-1.8,.77-2.92,0-1.96-.72-3.46-2.15-4.51-1.43-1.05-3.46-1.57-6.07-1.57Zm52.5,0h-8.87v23.63h9.41c1.86,0,3.46-.28,4.79-.83,1.33-.55,2.35-1.33,3.07-2.35,.72-1.01,1.08-2.22,1.08-3.63s-.37-2.65-1.11-3.65c-.74-1-1.8-1.73-3.2-2.2,1.01-.48,1.77-1.14,2.28-1.97,.51-.83,.77-1.8,.77-2.92,0-1.96-.72-3.46-2.15-4.51-1.44-1.05-3.46-1.57-6.07-1.57Zm54.75-.25c-1.89,0-3.6,.28-5.12,.84-1.52,.56-2.83,1.37-3.92,2.43-1.09,1.06-1.92,2.33-2.5,3.81-.58,1.48-.87,3.14-.87,4.97s.28,3.57,.83,5.07c.56,1.5,1.36,2.77,2.4,3.81,1.04,1.04,2.32,1.83,3.83,2.38,1.51,.55,3.21,.83,5.1,.83,1.42,0,2.78-.16,4.07-.47,1.29-.31,2.42-.74,3.4-1.28v-4.5c-2.07,1.27-4.32,1.91-6.77,1.91-1.6,0-2.96-.3-4.09-.91-1.12-.6-1.98-1.48-2.57-2.64-.59-1.15-.88-2.55-.88-4.19s.31-3.03,.92-4.18c.61-1.14,1.49-2.02,2.63-2.62,1.14-.6,2.53-.91,4.15-.91,1.18,0,2.3,.16,3.37,.47,1.07,.31,2.06,.77,2.97,1.38v-4.6c-1-.52-2.08-.91-3.25-1.18-1.17-.27-2.41-.4-3.72-.4Zm-85.93-8.94v42H0V35H42Zm52.5,0v42H52.5V35h42Zm52.5,0v42h-42V35h42Z" style="fill:#fc3819;"/></svg>