<?xml version="1.0" encoding="UTF-8"?><svg id="Layer_1" xmlns="http://www.w3.org/2000/svg" viewBox="0 0 145 112"><path d="M18.28,48.44c-3.59,1.26-4.82,4.68-4.82,4.68-.48,1.26-1.77,2.21-3.22,2.21H3.43c-1.88,0-3.43-1.53-3.43-3.37s1.29-3.32,3.43-3.32l5.47,.05-7.88-7.74c-1.34-1.32-1.34-3.42,0-4.73,1.34-1.32,3.48-1.32,4.82,0l7.77,7.63v-5.26c0-1.84,1.5-3.36,3.43-3.36s3.38,1.53,3.38,3.36v6.68c0,1.42-.86,2.74-2.14,3.16m-1.23,28.32c-1.87,0-3.38-1.21-3.32-3.32l.05-5.37-7.88,7.74c-1.34,1.31-3.54,1.31-4.82,0-1.34-1.32-1.34-3.48,0-4.74l7.72-7.63H3.48c-1.93,0-3.43-1.53-3.43-3.36s1.5-3.37,3.43-3.37h6.81c1.45,0,2.73,.84,3.22,2.11,1.23,3.57,4.72,4.79,4.72,4.79,1.34,.47,2.25,1.69,2.25,3.16v6.68c0,1.85-1.5,3.32-3.43,3.32m21.92-13.37l-5.47-.05,7.88,7.74c1.34,1.32,1.34,3.42,0,4.74-1.34,1.31-3.48,1.31-4.82,0l-7.77-7.64v5.26c0,2-1.55,3.37-3.43,3.37s-3.43-1.53-3.43-3.37v-6.68c0-1.42,.91-2.74,2.2-3.16,3.59-1.21,4.82-4.68,4.82-4.68,.48-1.26,1.77-2.21,3.22-2.21h6.81c1.88,0,3.43,1.53,3.43,3.37s-1.39,3.31-3.43,3.31m.05-8.1h-6.81c-1.45,0-2.79-.84-3.22-2.11-1.23-3.53-4.77-4.79-4.77-4.79-1.29-.47-2.25-1.68-2.25-3.16v-6.69c0-1.84,1.55-3.31,3.43-3.31s3.37,1.37,3.37,3.31l-.05,5.37,7.88-7.73c1.34-1.32,3.48-1.32,4.82,0,1.34,1.31,1.34,3.47,0,4.79l-7.77,7.58h5.36c1.88,0,3.43,1.53,3.43,3.37s-1.55,3.37-3.43,3.37" style="fill:#fc3819;"/><path d="M74.27,76.63c-2.52-5-7.07-12.9-9.75-17h-2.14v17h-8.04V35.53h13.24c8.73,0,13.93,4.1,13.93,12.31,0,5.63-4.13,9.11-8.47,10.53,2.78,3.73,8.14,12.89,10.82,18.26h-9.59Zm-7.77-34.79h-4.13v11.74h3.22c4.34,0,7.5-1.84,7.5-5.84,0-3.53-2.31-5.9-6.59-5.9m34.18,34.79h-13.5V35.53h14.2c8.15,0,13.51,3.89,13.51,10.74,0,4.84-3.27,7.58-6.38,8.79,4.29,1.11,7.77,4,7.77,9.42,0,7.16-5.63,12.16-15.6,12.16m-.43-34.85h-4.98v10.69h4.61c3.48,0,6.49-1.84,6.49-5.53,0-3.48-2.14-5.16-6.11-5.16m-.05,16.79h-4.93v11.78h5.19c4.07,0,7.24-1.58,7.24-5.95,0-4-2.95-5.84-7.5-5.84m28.77,18.42c-3.64,0-8.25-.58-10.55-1.26l1.82-7.37c1.66,.74,5.35,1.9,8.73,1.9,4.07,0,7.13-1.74,7.13-5.26,0-3-1.88-4.58-7.13-6.57-5.36-2.05-9.8-4.58-9.8-12.06s5.89-11.37,14.84-11.37c3.81,0,7.66,.74,9.97,1.47l-1.77,7.15c-1.55-.84-4.56-1.9-8.2-1.9-4.34,0-6.27,1.63-6.27,4.42s2.14,3.9,6.81,5.9c6.43,2.68,10.45,5.37,10.45,12.41,0,7.79-6.33,12.53-16.03,12.53" style="fill:#fc3819;"/></svg>