<?xml version="1.0" encoding="UTF-8"?><svg id="Layer_2" xmlns="http://www.w3.org/2000/svg" viewBox="0 0 755.01 437.88"><g id="Architecture"><polygon points=".25 260.15 447.48 .25 754.88 177.73 307.65 437.63 .25 260.15" style="fill:none;"/></g><g id="Furniture"><g style="opacity:.5;"><path d="M20.2,260.12l287.44,165.95,427.3-248.32L447.5,11.81,20.2,260.12Z" style="fill:#fff9f7; stroke:#535253; stroke-linejoin:round; stroke-width:.5px;"/></g><g><path d="M332.38,166.42l-5.61-3.24-17.57,10.21,4.55,2.63,16.82-9.78c.4,.26,.85,.57,1.11,.86,1.28,1.28,.76,2.48-1.35,3.7-2.53,1.47-5.07,2.21-7.91,1.46l-.28,.25c3.87,1.93,9.35,2.93,12.72,.97,3.16-1.84,1.97-4.48-2.49-7.05" style="fill:#dedede;"/><polyline points="345.67 173.39 341.2 171.45 323.58 181.69 327.49 183.95 345.67 173.39" style="fill:#dedede;"/><path d="M335.9,186.77c-.83-.48-.62-1.04,.83-1.88,.61-.36,1.19-.59,1.71-.67l3.27,.64-3.96,2.3c-.66,.03-1.34-.1-1.86-.39m11.04-5.92c-.9-.52-2.78-1.36-3.94-1.54-.71,.08-2.35,.41-4.4,.8l.03,.04c1.32,.3,3.11,.93,4,1.45,1.44,.83,1.96,1.59,.7,2.33l-1.13,.65-8.05-2.1c-.75,.19-1.5,.46-2.34,.95-1.83,1.06-1.59,2.37,.01,3.3,1.08,.62,2.12,.79,3.32,.83,.75,0,1.6-.03,2.32-.2l.07,.04h-.02c-1.22,.8-1.26,1.89,.81,3.09,.33,.19,1.23,.57,1.58,.64l3.78-1.1c-.14-.03-.37-.14-.59-.26-.54-.31-.66-.74,.13-1.2l5.13-2.98c1.94-1.13,2.01-2.75-1.44-4.74" style="fill:#dedede;"/><path d="M360.76,188.83c-1.37-.79-3.18-1.32-5.14-1.58-2.07-.27-5.57-.07-8.47,1.62-3.75,2.18-2.94,5.01-.03,6.69,2.19,1.27,4.62,1.77,6.31,1.52,.21-.04,2.37-1.02,2.51-1.08-.99-.05-2.61-.37-4.05-1.2-2.24-1.29-2.04-3.08,.89-4.78,2.48-1.44,5.63-1.85,6.48-1.52,.54,.31,.67,2.42,1.01,3.7l3.59-1.02c-.78-.83-1.65-1.53-3.09-2.36" style="fill:#dedede;"/><path d="M365.1,196.49c3.12-1.62,5.02-1.61,5.87-1.17,1.11,.67,.85,1.33-2.03,3.01l-3.84-1.84m7.05-1.09c-1.42-.82-2.99-1.24-4.76-1.47-2.14-.26-5.29-.18-8.36,1.61-3.85,2.24-3.31,4.99-.25,6.76,2.59,1.5,4.55,1.84,6.36,1.82,.28-.08,2.84-1,3.03-1.08-.94-.05-2.85-.64-4.31-1.49-2.45-1.42-2.42-2.97,.33-4.56l.38-.22,7.17,4.14c.23-.11,.59-.29,.82-.42,2.62-1.52,2.47-3.43-.4-5.09" style="fill:#dedede;"/><path d="M388.31,198.01l-4.5-1.92-17.6,10.23,3.96,2.29,9.21-5.35c.94,.08,1.67,.29,2.19,.59,1.3,.75,1.42,1.39,.01,2.21l-7.9,4.59,3.94,2.27,9.02-5.24c2.34-1.36,2.06-2.7,0-3.88-1.32-.76-2.64-.9-3.77-.9-.98,0-2.06,.03-3.19,.13l8.62-5.01" style="fill:#dedede;"/><path d="M386.33,217.57c-1.44-.91-1.18-2.26,3.17-4.79,4.61-2.68,6.57-2.83,7.89-2.18,1.46,.9,1.18,2.23-3.2,4.78-4.71,2.74-6.57,2.83-7.86,2.19m11.98-7.07c-1.16-.67-2.88-1.28-4.64-1.48-2.31-.27-5.57-.29-8.53,1.43-3.77,2.19-3.22,5.2,.25,7.21,1.18,.68,2.9,1.26,4.64,1.48,2.33,.28,5.57,.28,8.52-1.43,3.77-2.19,3.22-5.2-.25-7.2" style="fill:#dedede;"/><polyline points="416.09 214.05 411.62 212.11 394 222.35 397.91 224.61 416.09 214.05" style="fill:#dedede;"/><path d="M408.35,228.38c-1.6-.93-1.14-2.34,2.21-4.29s6.12-2.19,7.51-1.52c.5,.31,.55,1.26,.64,1.81l-8.22,4.78c-.61-.11-1.39-.34-2.15-.77m21.9-6.14l-4.53-1.93-5.39,3.13c-.24-.25-.85-.71-1.34-1-3.8-2.19-9.49-2.57-13.71-.12-3.84,2.23-3.76,4.64-.95,6.27,.92,.53,2.22,.87,3.28,.91,1.15,.04,1.81-.01,2.54-.11l-2.11,1.23,4.36,2,17.86-10.38" style="fill:#dedede;"/><path d="M425.64,231.45c3.11-1.62,5.02-1.61,5.87-1.17,1.11,.67,.85,1.33-2.03,3.01l-3.84-1.84m7.05-1.09c-1.42-.82-2.99-1.24-4.76-1.47-2.14-.26-5.29-.18-8.36,1.6-3.85,2.24-3.31,4.99-.25,6.76,2.59,1.5,4.55,1.84,6.36,1.82,.28-.08,2.84-.99,3.03-1.08-.94-.05-2.85-.64-4.31-1.49-2.45-1.42-2.42-2.97,.33-4.56l.38-.22,7.17,4.14c.24-.11,.59-.29,.82-.42,2.62-1.52,2.47-3.43-.4-5.09" style="fill:#dedede;"/><path d="M446.42,238.28c-.85-.49-1.98-.68-3.04-.64-.99,.03-2.38,.26-3.48,.49l3.05-1.77-4.47-1.93-11.74,6.82,3.94,2.27,8.86-5.15c.52,.03,1.37,.16,1.84,.41,.31,.18,1.11,1.05,1.8,1.93l4.43-1.46c-.23-.27-.68-.7-1.18-.98" style="fill:#dedede;"/></g><polyline points="754.88 177.73 447.48 .25 .25 260.15 307.65 437.63 754.88 177.73" style="fill:none; stroke:#535253; stroke-linejoin:round; stroke-width:.5px;"/></g></svg>