<?xml version="1.0" encoding="UTF-8"?><svg id="Layer_2" xmlns="http://www.w3.org/2000/svg" xmlns:xlink="http://www.w3.org/1999/xlink" viewBox="0 0 755.88 867.72"><defs><pattern id="New_Pattern_Swatch_1" x="0" y="0" width="30" height="300" patternTransform="translate(-478.68 -15115.43) scale(1 -1)" patternUnits="userSpaceOnUse" viewBox="0 0 30 300"><g><rect width="30" height="300" style="fill:none;"/><g><rect width="30" height="300" style="fill:none;"/><line x1="29.92" y1="300" x2="29.92" style="fill:none; stroke:#feb4a9; stroke-miterlimit:10;"/><line x1="23.92" y1="300" x2="23.92" style="fill:none; stroke:#feb4a9; stroke-miterlimit:10;"/><line x1="17.92" y1="300" x2="17.92" style="fill:none; stroke:#feb4a9; stroke-miterlimit:10;"/><line x1="11.92" y1="300" x2="11.92" style="fill:none; stroke:#feb4a9; stroke-miterlimit:10;"/><line x1="5.92" y1="300" x2="5.92" style="fill:none; stroke:#feb4a9; stroke-miterlimit:10;"/><line x1="-.08" y1="300" x2="-.08" style="fill:none; stroke:#feb4a9; stroke-miterlimit:10;"/></g></g></pattern><pattern id="Contrast_Hatch__" x="0" y="0" width="30" height="300" patternTransform="translate(-478.68 -15115.43) scale(1 -1)" patternUnits="userSpaceOnUse" viewBox="0 0 30 300"><g><rect width="30" height="300" style="fill:none;"/><g><rect width="30" height="300" style="fill:none;"/><line x1="29.92" y1="300" x2="29.92" style="fill:none; stroke:#535253; stroke-miterlimit:10;"/><line x1="23.92" y1="300" x2="23.92" style="fill:none; stroke:#535253; stroke-miterlimit:10;"/><line x1="17.92" y1="300" x2="17.92" style="fill:none; stroke:#535253; stroke-miterlimit:10;"/><line x1="11.92" y1="300" x2="11.92" style="fill:none; stroke:#535253; stroke-miterlimit:10;"/><line x1="5.92" y1="300" x2="5.92" style="fill:none; stroke:#535253; stroke-miterlimit:10;"/><line x1="-.08" y1="300" x2="-.08" style="fill:none; stroke:#535253; stroke-miterlimit:10;"/></g></g></pattern></defs><g id="Layer_2-2"><g id="Architecture"><polygon points="1 690.24 448.23 430.34 755.63 607.82 308.4 867.72 1 690.24" style="fill:none;"/><g style="opacity:.2;"><polyline points="755.63 607.82 448.23 430.34 1 690.24 308.4 867.72 755.63 607.82" style="fill:#fe9b8c;"/></g><polygon points="1 260.15 448.23 .25 755.63 177.73 308.4 437.63 1 260.15" style="fill:none;"/><path d="M64.53,664l165.24-96.03,44.1,25.46-165.24,96.03-44.1-25.46m48.5,28l165.24-96.03,44.05,25.43-165.24,96.03-44.05-25.43m48.45,27.97l165.24-96.03,44.05,25.43-165.24,96.03-44.05-25.43m48.45,27.97l165.24-96.03,44.1,25.46-165.24,96.03-44.1-25.46m48.5,28l165.24-96.03,44.05,25.43-165.24,96.03-44.05-25.43m48.45,27.97l165.24-96.03,44.05,25.43-165.24,96.03-44.05-25.43m-72.74-238.49l32.97-19.16c12.08-7.02,31.8-7.01,43.95,0s12.23,18.44,.15,25.46l-32.97,19.16-44.1-25.46m48.5,28l32.97-19.16c12.08-7.02,31.75-7.04,43.91-.02s12.22,18.44,.14,25.46l-32.97,19.16-44.05-25.43m48.45,27.97l32.97-19.16c12.08-7.02,31.8-7.01,43.95,0s12.18,18.42,.11,25.43l-32.97,19.16-44.05-25.43m48.45,27.97l32.97-19.16c12.08-7.02,31.8-7.01,43.96,0s12.22,18.44,.14,25.46l-32.97,19.16-44.1-25.46m48.5,28l32.97-19.16c12.08-7.02,31.75-7.04,43.91-.02s12.22,18.44,.14,25.46l-32.97,19.16-44.05-25.43m48.45,27.97l32.97-19.16c12.08-7.02,31.75-7.04,43.95,0s12.18,18.42,.11,25.43l-32.97,19.16-44.05-25.43m-194.86-167.53l8.34-4.85,9.01,5.2c-5.64-.89-11.64-1-17.35-.35m44.1,25.46c1.1-3.31,.92-6.76-.67-10.05l9.01,5.2-8.34,4.85m4.4,2.54l8.34-4.85,8.96,5.18c-5.64-.89-11.6-.98-17.31-.33m44.05,25.43c1.1-3.31,.93-6.76-.66-10.04l9,5.2-8.34,4.85m4.4,2.54l8.34-4.85,9.01,5.2c-5.68-.91-11.64-1-17.35-.35m42.26,29.05c2.92-4.36,3.3-9.16,1.17-13.64l22.37,12.92c-7.73-1.22-16.02-.98-23.54,.72m50.29,24.38c1.1-3.31,.88-6.79-.67-10.05l9.01,5.2-8.34,4.85m4.4,2.54l8.34-4.85,8.96,5.18c-5.64-.89-11.6-.98-17.31-.33m44.05,25.43c1.1-3.31,.93-6.76-.66-10.04l9,5.2-8.34,4.85m4.4,2.54l8.34-4.85,9.01,5.2c-5.68-.91-11.64-1-17.35-.35m44.05,25.43c1.11-3.31,.93-6.76-.62-10.02l8.96,5.18-8.34,4.85m-224.34-144.26l21.78-12.66c3.85-2.24,7.91-4.31,12.04-6.2l38.39,27.79c-2.41,1.07-4.7,2.26-6.9,3.54l-21.78,12.66-43.52-25.13m144.84,83.62l21.78-12.66c2.25-1.3,4.37-2.68,6.22-4.12l48.1,22.15c-3.29,2.47-6.9,4.85-10.79,7.11l-21.78,12.66-43.53-25.13m-114.89-105.29l.03-.02,.04,.07-.07-.06m-78.97-6.64l21.78-12.66c5.7-3.31,11.68-6.41,17.86-9.21l39.33,28.51c-4.37,1.98-8.57,4.14-12.57,6.46l-21.78,12.66-44.62-25.76m274.85,119.55l49.34,22.69c-4.93,3.61-10.22,7.11-16,10.47l-21.78,12.66-44.62-25.76,21.78-12.66c4.04-2.35,7.8-4.81,11.28-7.39l-.09-.04,.11,.02-.03,.02m-148.52-84.34l-38.51-27.91c7.75-3.19,15.9-5.82,24.39-7.94l24.69,32.61-.04-.02c-3.62,.89-7.15,1.96-10.53,3.22v.04m99.01,56.98l.04,.02c2.24-2.05,4.16-4.19,5.72-6.41l56.34,14.17c-3.59,5.04-8.23,9.89-13.8,14.43l-48.26-22.2h0l-.04-.02m-115.66-96.14h.01l.04,.07-.05-.07m79.42,35.07h.04l-.13,.13,.09-.13m-92.15,24.86l21.78-12.66c25.39-14.76,66.68-14.76,92.2-.02s25.7,38.68,.31,53.43l-21.78,12.66-92.51-53.41m107.86-20.22h0l-.04,.03,.03-.03m-120.79-31.21l-39.44-28.63c12.53-5.36,25.9-9.82,39.85-13.29l25.25,33.41c-8.92,2.24-17.59,5.03-25.74,8.41l.08,.1m194.55,112.09c5.85-4.8,10.74-9.93,14.61-15.22l57.71,14.55c-5.95,8.18-13.59,16.04-22.97,23.41l-49.35-22.73m-135.75-85.81l-24.85-32.8c8.76-1.91,17.77-3.26,26.9-4.03l9.3,35.25-.05-.11c-3.85,.32-7.64,.84-11.41,1.54l.12,.16m92.74,44.67l.28,.02,60.65,5.27c-1.26,5.36-3.52,10.7-6.75,15.85l-56.52-14.22c1.24-2.26,2.07-4.57,2.62-6.9l-.28-.02m-75.25-46.74l-9.29-35.2c9.17-.56,18.43-.56,27.57,.02l-6.72,35.3c-3.83-.21-7.69-.26-11.56-.12m75.23,36.28l61.24-4.01c1.12,5.39,1.26,10.82,.41,16.18l-60.8-5.27c.11-2.31-.03-4.62-.52-6.9h-.32m-120.09-70.31l-25.3-33.43c14.35-3.29,29.19-5.6,44.23-6.9l9.53,36.04c-9.65,.84-19.18,2.26-28.47,4.29m180.01,103.37c3.43-5.46,5.85-11.08,7.19-16.76l62.21,5.39c-2.12,8.81-6.02,17.54-11.61,25.93l-57.79-14.55m-117.43-68.68l6.76-35.37c9.02,.79,17.96,2.15,26.59,4.01l-22.27,33.07c-3.66-.77-7.31-1.35-11.04-1.74l-.04,.02m53.31,25.57l57.12-13.03c3.41,5.04,5.9,10.23,7.46,15.5l-61.2,4.03,.12-.03c-.81-2.19-1.95-4.38-3.37-6.5l-.13,.02m-36.47-22.5l22.32-33.08c8.34,2.08,16.36,4.66,23.98,7.76l-36.35,28.6c-3.18-1.28-6.48-2.35-9.95-3.28m27.85,13.52l49.39-21.21c5.58,4.38,10.19,9,13.93,13.85l-57.4,13.1,.28-.07c-1.7-2.01-3.73-3.92-5.99-5.74l-.2,.07m-12.88-8.09l36.34-28.61c4.27,1.96,8.43,4.04,12.39,6.32,3.51,2.03,6.75,4.12,9.78,6.29l-49.3,21.17c-1.13-.79-2.38-1.56-3.72-2.33-1.74-1-3.59-1.98-5.49-2.85m-59.76-47.93l-9.54-36.04c15.17-1.05,30.46-1.1,45.64-.14l-6.88,36.22v-.04c-9.7-.58-19.53-.58-29.22,0m152.78,70.64l62.56-4.13c1.82,8.86,1.87,17.81,.19,26.65l-62.26-5.41c.94-5.69,.79-11.45-.41-17.11h-.08m-117.44-70.08l6.92-36.29c15.01,1.19,29.84,3.38,44.18,6.55l-22.9,33.99,.03-.07c-9.19-2.01-18.65-3.43-28.19-4.29l-.04,.11m108.75,50.1l58.52-13.34c5.69,8.3,9.63,16.9,11.86,25.62l-62.48,4.13c-1.6-5.57-4.21-11.12-7.82-16.41h-.08m-55.42-83.2h.02l-.08,.1,.06-.1m-19.33,38.61l22.87-33.92c13.87,3.35,27.21,7.62,39.8,12.84l-37.22,29.3c-8.07-3.31-16.57-6.03-25.44-8.22m72.23,41.29l.16-.05c-3.93-5.06-8.83-9.97-14.69-14.62l50.43-21.68c9.21,7.23,16.78,14.94,22.75,22.99l-58.65,13.36m148.33,27.43l-6.51-3.76c.97,9.3,.52,18.64-1.35,27.92l-60.36-5.25c1.76-9.16,1.67-18.42-.2-27.58h-.15l48.09-3.16-5.65-3.26-43.35,2.88,.24-.04c-2.34-9.02-6.42-17.93-12.3-26.53l10.3-2.34-4.83-2.79-7.81,1.78c-3.2-4.3-6.86-8.52-10.95-12.61l-24.57-14.19c1.09,.76,2.17,1.53,3.23,2.3l-50.48,21.66c-3.19-2.3-6.66-4.55-10.38-6.69-4.16-2.4-8.55-4.62-13.08-6.67l37.22-29.3c1.78,.79,3.55,1.6,5.29,2.43l-24.31-14.03c-7.64-2.54-15.5-4.8-23.54-6.74l-.04,.07,.04-.07h0l3.33-4.92-4.81-2.78-4.3,6.37c-14.83-3.26-30.17-5.52-45.7-6.78l4.86-25.66-5.63-3.25-5.43,28.53v-.04c-15.71-.98-31.56-.93-47.26,.14v.09l-9.21-35.02c16.37-1.18,32.89-1.5,49.33-.95l-6.53-3.77c-13.19-.26-26.4,.04-39.52,.88l-9.17,5.33,8.99,34.04-.05-.11c-15.57,1.33-30.93,3.7-45.8,7.11l-10.3-13.64-4.69,2.72,9.28,12.26c-14.43,3.62-28.29,8.21-41.22,13.81l.12,.11-5.89-4.27-4.39,2.55,5.21,3.77c-6.34,2.94-12.52,6.11-18.38,9.51l-21.78,12.66-4.87-2.81-4.38,2.54,4.54,2.62-8.34,4.85c.65-1.84,.84-3.74,.63-5.63l-6.39,3.71c-.84,3.79-3.76,7.45-8.77,10.35l-32.97,19.16-4.54-2.62-4.38,2.54,4.54,2.62-165.24,96.03-4.54-2.62-4.37,2.54,4.54,2.62-49.66,28.86,4.4,2.54,49.66-28.86,44.1,25.46-49.66,28.86,4.4,2.54,49.66-28.86,44.05,25.43-49.66,28.86,4.4,2.54,49.66-28.86,44.05,25.43-49.66,28.86,4.4,2.54,49.66-28.86,44.1,25.46-49.66,28.86,4.4,2.54,49.66-28.86,44.05,25.43-49.66,28.86,4.4,2.54,49.66-28.86,44.05,25.43-49.66,28.86,4.4,2.54,49.66-28.86,7.66,4.42,4.37-2.54-7.66-4.42,165.24-96.03,7.66,4.42,4.38-2.54-7.66-4.42,32.97-19.16c6.62-3.84,15.53-5.58,24.22-5.21l5.47-3.18c-4.99-.6-10.19-.62-15.17-.05l8.34-4.85,7.66,4.42,4.38-2.54-7.33-4.23,21.78-12.66c5.94-3.45,11.39-7.04,16.44-10.77l-.08-.05,9.42,4.33,4.4-2.56-10.18-4.69,.25,.09c9.66-7.62,17.58-15.73,23.77-24.2l24.91,6.27,4.71-2.74-27.26-6.87c5.79-8.7,9.84-17.69,12.05-26.83l60.28,5.25c-.21,.9-.48,1.8-.72,2.69l9.57-5.56-2.14-.18h.24c1.67-8.19,2.24-16.44,1.74-24.67" style="fill:#fe9b8c; isolation:isolate; opacity:.08;"/></g><g id="Activity"><polygon points="1 475.19 448.23 215.29 755.63 392.77 308.4 652.67 1 475.19" style="fill:none;"/><polyline points="755.63 392.77 448.23 215.29 1 475.19 308.4 652.67 755.63 392.77" style="fill:none; stroke:#feb4a9; stroke-miterlimit:10;"/><path d="M21.32,475.17l287.43,165.95,427.3-248.32L448.62,226.85,21.32,475.17Z" style="fill:url(#New_Pattern_Swatch_1); stroke:#feb4a9; stroke-miterlimit:10; stroke-width:.5px;"/><path d="M448.61,403.34c-1.23-.3-2.66-.91-4.1-1.62,1.44,.71,2.87,1.32,4.1,1.62h0m.2,0s-.09,.02-.14,.02h0s.09-.02,.14-.02m-9.16-16.95l2.47-1.49,8.75,4.9-2.61,1.49-8.61-4.91m10.03,5.71l2.59-1.49,4.83,2.74-2.59,1.5-4.83-2.75m-5.64-8.44l2.61-1.48,10.66,6.15-2.58,1.49-10.69-6.16m12.75,7.33l2.58-1.49,6.32,3.61-2.56,1.49-6.34-3.62m-8.32-9.81l2.81-1.41,13.16,7.52-2.56,1.48-13.41-7.59m3.22-5.89c-13.57,7.23-13.64,7.17-26.69,15.04,4.83,2.96,8.45,5.24,13.38,8.09,.62,.36,1.27,.73,1.93,1.11,.67,.36,1.39,.75,2.13,1.14l27.22-2.56c-3.19,1.7-6.9,3.59-8.43,4.14h0c3.8-1.34,4.56-1.52,11.87-5.74l7.45-4.38c-4.32-2.36-8.29-4.58-12.13-6.8-5.62-3.25-10.96-6.47-16.73-10.03" style="fill:#fecdc5;"/><path d="M450.88,389.8l-8.75-4.9-2.47,1.49,8.61,4.91,2.61-1.49m6.23,3.55l-4.83-2.74-2.59,1.49,4.83,2.75,2.59-1.5m.21-5.02l-10.66-6.15-2.61,1.48,10.69,6.16,2.58-1.49m8.38,4.78l-6.32-3.61-2.58,1.49,6.34,3.62,2.56-1.49m-1.24-5.82l-13.16-7.52-2.81,1.41,13.41,7.59,2.56-1.48" style="fill:#fff;"/><path d="M444.51,401.72c-.69-.34-1.39-.7-2.06-1.06h0c.68,.36,1.38,.72,2.07,1.06" style="fill:#fe9b8c; isolation:isolate; opacity:.2;"/><path d="M448.81,403.33l-.18,.02h.04s.09,0,.14-.02m20.85-5.23l-27.22,2.56c.68,.36,1.37,.72,2.06,1.06,1.44,.71,2.87,1.32,4.1,1.62,2.44-.7,4.77-1.55,6.77-2.94,.27,.21,.55,.41,.86,.58,1.52,.88,3.41,1.25,4.84,1.27h.17c1.53-.55,5.24-2.45,8.43-4.15" style="fill:#fec3ba;"/><path d="M461.36,402.25h-.29c-1.43-.02-3.32-.39-4.84-1.27-.3-.17-.59-.37-.86-.58-2,1.39-4.33,2.24-6.77,2.94h.2l12.55-1.09" style="fill:#fd836f;"/><path d="M369.92,446.04c-1.23-.3-2.66-.91-4.1-1.62,1.44,.71,2.87,1.32,4.1,1.62h0m.2,0s-.09,.02-.14,.02h0s.09-.02,.14-.02m-9.16-16.95l2.47-1.49,8.75,4.9-2.61,1.49-8.61-4.91m10.03,5.71l2.59-1.49,4.83,2.74-2.59,1.5-4.83-2.75m-5.64-8.44l2.61-1.48,10.66,6.15-2.58,1.49-10.69-6.16m12.75,7.33l2.58-1.49,6.32,3.61-2.56,1.49-6.34-3.62m-8.32-9.81l2.81-1.41,13.16,7.52-2.56,1.48-13.41-7.59m3.22-5.89c-13.57,7.23-13.64,7.17-26.69,15.04,4.83,2.96,8.45,5.24,13.38,8.09,.62,.36,1.27,.73,1.93,1.11,.67,.36,1.39,.75,2.13,1.14l27.22-2.56c-3.19,1.7-6.9,3.59-8.43,4.14h0c3.8-1.34,4.56-1.52,11.87-5.74l7.45-4.38c-4.32-2.36-8.29-4.58-12.13-6.8-5.62-3.25-10.96-6.47-16.73-10.03" style="fill:#fecdc5;"/><path d="M372.19,432.5l-8.75-4.9-2.47,1.49,8.61,4.91,2.61-1.49m6.23,3.55l-4.83-2.74-2.59,1.49,4.83,2.75,2.59-1.5m.21-5.02l-10.66-6.15-2.61,1.48,10.69,6.16,2.58-1.49m8.38,4.78l-6.32-3.61-2.58,1.49,6.34,3.62,2.56-1.49m-1.24-5.82l-13.16-7.52-2.81,1.41,13.41,7.59,2.56-1.48" style="fill:#fff;"/><path d="M365.82,444.42c-.69-.34-1.39-.7-2.06-1.06h0c.68,.36,1.38,.72,2.07,1.06" style="fill:#fe9b8c; isolation:isolate; opacity:.2;"/><path d="M370.13,446.03l-.18,.02h.04s.09,0,.14-.02m20.85-5.23l-27.22,2.56c.68,.36,1.37,.72,2.06,1.06,1.44,.71,2.87,1.32,4.1,1.62,2.44-.7,4.77-1.55,6.77-2.94,.27,.21,.55,.41,.86,.58,1.52,.88,3.41,1.25,4.84,1.27h.17c1.53-.55,5.24-2.45,8.43-4.15" style="fill:#fec3ba;"/><path d="M382.67,444.95h-.29c-1.43-.02-3.32-.39-4.84-1.27-.3-.17-.59-.37-.86-.58-2,1.39-4.33,2.24-6.77,2.94h.2l12.55-1.09" style="fill:#fd836f;"/><path d="M511.65,446.87c-1.23-.3-2.66-.91-4.1-1.62,1.44,.71,2.87,1.32,4.1,1.62h0m.2,0s-.09,.02-.14,.02h0s.09-.02,.14-.02m-9.16-16.95l2.47-1.49,8.75,4.9-2.61,1.49-8.61-4.91m10.03,5.71l2.59-1.49,4.83,2.74-2.59,1.5-4.83-2.75m-5.64-8.44l2.61-1.48,10.66,6.15-2.58,1.49-10.69-6.16m12.75,7.33l2.58-1.49,6.32,3.61-2.56,1.49-6.34-3.62m-8.32-9.81l2.81-1.41,13.16,7.52-2.56,1.48-13.41-7.59m3.22-5.89c-13.57,7.23-13.64,7.17-26.69,15.04,4.83,2.96,8.45,5.24,13.38,8.09,.62,.36,1.27,.73,1.93,1.11,.67,.36,1.39,.75,2.13,1.14l27.22-2.56c-3.19,1.7-6.9,3.59-8.43,4.14h0c3.8-1.34,4.56-1.52,11.87-5.74l7.45-4.38c-4.32-2.36-8.29-4.58-12.13-6.8-5.62-3.25-10.96-6.47-16.73-10.03" style="fill:#fecdc5;"/><path d="M513.92,433.33l-8.75-4.9-2.47,1.49,8.61,4.91,2.61-1.49m6.23,3.55l-4.83-2.74-2.59,1.49,4.83,2.75,2.59-1.5m.21-5.02l-10.66-6.15-2.61,1.48,10.69,6.16,2.58-1.49m8.38,4.78l-6.32-3.61-2.58,1.49,6.34,3.62,2.56-1.49m-1.24-5.82l-13.16-7.52-2.81,1.41,13.41,7.59,2.56-1.48" style="fill:#fff;"/><path d="M507.55,445.25c-.69-.34-1.39-.7-2.06-1.06h0c.68,.36,1.38,.72,2.07,1.06" style="fill:#fe9b8c; isolation:isolate; opacity:.2;"/><path d="M511.86,446.86l-.18,.02h.04s.09,0,.14-.02m20.85-5.23l-27.22,2.56c.68,.36,1.37,.72,2.06,1.06,1.44,.71,2.87,1.32,4.1,1.62,2.44-.7,4.77-1.55,6.77-2.94,.27,.21,.55,.41,.86,.58,1.52,.88,3.41,1.25,4.84,1.27h.17c1.53-.55,5.24-2.45,8.43-4.15" style="fill:#fec3ba;"/><path d="M524.4,445.78h-.29c-1.43-.02-3.32-.39-4.84-1.27-.3-.17-.59-.37-.86-.58-2,1.39-4.33,2.24-6.77,2.94h.2l12.55-1.09" style="fill:#fd836f;"/><path d="M186.74,449.1c-1.23-.3-2.66-.91-4.1-1.62,1.44,.71,2.87,1.32,4.1,1.62h0m.2,0s-.09,.02-.14,.02h0s.09-.02,.14-.02m-9.16-16.95l2.47-1.49,8.75,4.9-2.61,1.49-8.61-4.91m10.03,5.71l2.59-1.49,4.83,2.74-2.59,1.5-4.83-2.75m-5.64-8.44l2.61-1.48,10.66,6.15-2.58,1.49-10.69-6.16m12.75,7.33l2.58-1.49,6.32,3.61-2.56,1.49-6.34-3.62m-8.32-9.81l2.81-1.41,13.16,7.52-2.56,1.48-13.41-7.59m3.22-5.89c-13.57,7.23-13.64,7.17-26.69,15.04,4.83,2.96,8.45,5.24,13.38,8.09,.62,.36,1.27,.73,1.93,1.11,.67,.36,1.39,.75,2.13,1.14l27.22-2.56c-3.19,1.7-6.9,3.59-8.43,4.14h0c3.8-1.34,4.56-1.52,11.87-5.74l7.45-4.38c-4.32-2.36-8.29-4.58-12.13-6.8-5.62-3.25-10.96-6.47-16.73-10.03" style="fill:#fecdc5;"/><path d="M189.01,435.56l-8.75-4.9-2.47,1.49,8.61,4.91,2.61-1.49m6.23,3.55l-4.83-2.74-2.59,1.49,4.83,2.75,2.59-1.5m.21-5.02l-10.66-6.15-2.61,1.48,10.69,6.16,2.58-1.49m8.38,4.78l-6.32-3.61-2.58,1.49,6.34,3.62,2.56-1.49m-1.24-5.82l-13.16-7.52-2.81,1.41,13.41,7.59,2.56-1.48" style="fill:#fff;"/><path d="M182.64,447.48c-.69-.34-1.39-.7-2.06-1.06h0c.68,.36,1.38,.72,2.07,1.06" style="fill:#fe9b8c; isolation:isolate; opacity:.2;"/><path d="M186.94,449.09l-.18,.02h.04s.09,0,.14-.02m20.85-5.23l-27.22,2.56c.68,.36,1.37,.72,2.06,1.06,1.44,.71,2.87,1.32,4.1,1.62,2.44-.7,4.77-1.55,6.77-2.94,.27,.21,.55,.41,.86,.58,1.52,.88,3.41,1.25,4.84,1.27h.17c1.53-.55,5.24-2.45,8.43-4.15" style="fill:#fec3ba;"/><path d="M199.49,448.01h-.29c-1.43-.02-3.32-.39-4.84-1.27-.3-.17-.59-.37-.86-.58-2,1.39-4.33,2.24-6.77,2.94h.2l12.55-1.09" style="fill:#fd836f;"/><path d="M415.59,436.08c-1.23-.3-2.66-.91-4.1-1.62,1.44,.71,2.87,1.32,4.1,1.62h0m.2,0s-.09,.02-.14,.02h0s.09-.02,.14-.02m-9.16-16.95l2.47-1.49,8.75,4.9-2.61,1.49-8.61-4.91m10.03,5.71l2.59-1.49,4.83,2.74-2.59,1.5-4.83-2.75m-5.64-8.44l2.61-1.48,10.66,6.15-2.58,1.49-10.69-6.16m12.75,7.33l2.58-1.49,6.32,3.61-2.56,1.49-6.34-3.62m-8.32-9.81l2.81-1.41,13.16,7.52-2.56,1.48-13.41-7.59m3.22-5.89c-13.57,7.23-13.64,7.17-26.69,15.04,4.83,2.96,8.45,5.24,13.38,8.09,.62,.36,1.27,.73,1.93,1.11,.67,.36,1.39,.75,2.13,1.14l27.22-2.56c-3.19,1.7-6.9,3.59-8.43,4.14h0c3.8-1.34,4.56-1.52,11.87-5.74l7.45-4.38c-4.32-2.36-8.29-4.58-12.13-6.8-5.62-3.25-10.96-6.47-16.73-10.03" style="fill:#fecdc5;"/><path d="M417.85,422.54l-8.75-4.9-2.47,1.49,8.61,4.91,2.61-1.49m6.23,3.55l-4.83-2.74-2.59,1.49,4.83,2.75,2.59-1.5m.21-5.02l-10.66-6.15-2.61,1.48,10.69,6.16,2.58-1.49m8.38,4.78l-6.32-3.61-2.58,1.49,6.34,3.62,2.56-1.49m-1.24-5.82l-13.16-7.52-2.81,1.41,13.41,7.59,2.56-1.48" style="fill:#fff;"/><path d="M411.49,434.47c-.69-.34-1.39-.7-2.06-1.06h0c.68,.36,1.38,.72,2.07,1.06" style="fill:#fe9b8c; isolation:isolate; opacity:.2;"/><path d="M415.79,436.08l-.18,.02h.04s.09,0,.14-.02m20.85-5.23l-27.22,2.56c.68,.36,1.37,.72,2.06,1.06,1.44,.71,2.87,1.32,4.1,1.62,2.44-.7,4.77-1.55,6.77-2.94,.27,.21,.55,.41,.86,.58,1.52,.88,3.41,1.25,4.84,1.27h.17c1.53-.55,5.24-2.45,8.43-4.15" style="fill:#fec3ba;"/><path d="M428.34,435h-.29c-1.43-.02-3.32-.39-4.84-1.27-.3-.17-.59-.37-.86-.58-2,1.39-4.33,2.24-6.77,2.94h.2l12.55-1.09" style="fill:#fd836f;"/></g><g id="Furniture"><g style="opacity:.5;"><path d="M20.95,260.12l287.44,165.95,427.3-248.32L448.25,11.81,20.95,260.12Z" style="fill:#fff9f7; stroke:#535253; stroke-linejoin:round; stroke-width:.5px;"/></g><path d="M280.32,392.91l24.14-15.81,2.77,1.6-11.02,8.29,1.24,1.05,9.9-4.53,1.34,1-21.39,12.43-6.97-4.02m53.45-3.96l-.06-.03-.9,.45-23.98-13.27-.94,.55c-.58-.25-1.22-.52-1.66-.7l-25.91,16.97,20.29,11.72,29.33-15.12,1.21,.7,2.61-1.26m67.57-47.46l-9.24,5.37,8-4.47,1.24-.89m6.26-11.64l-55.93,29.44-7.27-2.1-.44,.19-23.29,21.08,9.11-19.4-13.51,19.14,12.47,7.2,27.68-2.26,25.25-16.57-23.99,11.11-19.72,3.45,23.01-10.55,37.92-27.34-43.03,27.37-28.65,9.77,3.39-2.8,1.08-.43,22.76-15.96,53.15-31.35m2.34-1.38l-.64,.28-.22,.23,.86-.51" style="fill:url(#Contrast_Hatch__); stroke:#535253; stroke-miterlimit:10; stroke-width:.5px;"/><path d="M307.23,378.7l-2.77-1.6-24.14,15.81,6.97,4.02,21.39-12.43-1.34-1-9.9,4.53-1.24-1.05,11.02-8.29m22.73-19.89l-18.24,16.77-4.24-2.45-2.36,2.05,1.21,.7-.1,.07h0c.45,.19,1.08,.46,1.66,.7l.94-.55,23.98,13.27,.9-.45,.6-.3-5.57-3.21-12.47-7.2,13.51-19.14,.18-.25m71.48-17.18l-1.34,.75-8,4.47-38.95,21.79-21.46,8.51-1.08,.43-3.39,2.8,28.65-9.77,43.03-27.37,2.54-1.61m8.88-13.92l-66.55,29.3,.63,.18,7.27,2.1,55.93-29.44,1.29-.68,.19-.19,.22-.23,1.01-1.03" style="fill:#fff9f7; stroke:#535253; stroke-miterlimit:10; stroke-width:.5px;"/><path d="M187.64,278.63l-.51,.11-.52,1.82c.34-.8,.62-1.5,.52-1.56-.06-.04,.15-.17,.51-.37m-45.15,34.43l24.13-15.81,2.77,1.6-11.02,8.29,1.24,1.05,9.9-4.53,1.34,1-21.39,12.43-6.97-4.02m70.91-5.63c-1.17-.67-6.03-4.31-8.58-6.23l1.77-4.57,11.84,1.77,5.78,6.23-2.24,2.13c-2.66,.26-7.98,.78-8.33,.78-.03,0-.12-.04-.24-.11m12.12-21.42l-.2-.05,4.54,4.75-7.15,4.26-9.6,.26-7.28-2.75,1.68-6.32-2.84,1.02,2.22-3.63c-.11-.07-1.02-3.31-1.25-3.44l-.04-.02-4.31,4.37-8.06,1.82-7.27-3.09,.69,3.73,5.62,1.26,3.44,7.48-6.62,.94-10.15-2.76-.3-3.44-5.34,.95-5.62-2.47-5.1-4.53-.2,.05,.25,4.81,6.61,4.43,.05-.04,20.07,11.59,4.14-1.79c1.66,.19,4.91,.55,5.03,.62h0l4.05,4.62-4.92,1.61-7-1.14-1.54-2.81-18.15-10.04-.94,.55c-.59-.25-1.22-.52-1.67-.71l-25.9,16.97,20.29,11.72,26.11-13.31,1.24,.85,3.15,1.82,8.52,.65,1.53-6.88,9.23,6.23,7.17-.39,4.8-3.83-.02-5.07-5.76-6.17,6.72-1.04,3.57-2.85,.87-4.02-4.39-4.74" style="fill:url(#Contrast_Hatch__); stroke:#091833; stroke-miterlimit:10; stroke-width:.5px;"/><path d="M169.39,298.85l-2.77-1.6-24.13,15.81,6.97,4.02,21.39-12.43-1.34-1-9.9,4.53-1.24-1.05,11.02-8.29m29.15,5.15c-.12-.07-3.37-.43-5.03-.62l-4.14,1.79-20.07-11.59-.05,.04-1.97,1.7,1.21,.7-.1,.07h0c.45,.19,1.08,.46,1.67,.71l.94-.55,18.15,10.04,1.54,2.81,7,1.14,4.92-1.61-4.05-4.62h0m-6.28-15.83l-5.62-1.26-2.28-.51-3.57,1.12-2.29-5.87-9.19-.13c-2.31,.82-6.93,2.46-7.05,2.53l.31,.28,5.1,4.53,5.62,2.47,5.34-.95,.3,3.44,10.15,2.76,6.62-.94-3.44-7.48m26.15,10.23l-11.84-1.77-1.77,4.57c2.55,1.91,7.41,5.55,8.58,6.23,.12,.07,.21,.11,.24,.11,.35,0,5.68-.52,8.33-.78l2.24-2.13-5.78-6.23m-12.34-18.81l-5.84-2.6-8.3-.39c-1.22,.55-3.32,1.5-4.3,2.03-.36,.2-.57,.34-.51,.37,.09,.05-.18,.75-.52,1.56-.48,1.12-1.08,2.43-1.02,2.47l.37,.16,7.27,3.09,8.06-1.82,4.31-4.37,.48-.49m18.91,6.03l-9.43-2.54-7.96,2.75-.09,.33-1.68,6.32,7.28,2.75,9.6-.26,7.15-4.26-4.54-4.75-.33-.34" style="fill:none; stroke:#535253; stroke-linejoin:round; stroke-width:.5px;"/><path d="M452.39,34.91l-7.27-4.19-2.48,1.44,5.86,3.38c.44,.25,.45,.66,.01,.92l-4.62,2.69,2.83,1.64,5.68-3.3c1.22-.71,1.22-1.86-.01-2.57" style="fill:#091833;"/><path d="M445.55,41.46l-2.83-1.64-.23,.13c-1.27,.74-3.27,1.11-5,.11-1.49-.86-1.5-1.89-.23-2.66l-2.71-1.56c-2.92,1.72-2.7,3.97,.35,5.73,3.37,1.95,7.41,1.77,10.36,.06l.29-.17" style="fill:#091833;"/><path d="M460.73,42.92c-3.28-1.89-7.78-1.97-11.06-.45l2.84,1.64c1.83-.74,4.1-.67,5.72,.26s1.72,2.24,.46,3.31l2.84,1.64c2.62-1.91,2.45-4.52-.81-6.4" style="fill:#091833;"/><path d="M460.39,50.02l-2.82-1.63c-1.9,.88-4.34,.85-6.03-.13s-1.77-2.38-.23-3.49l-2.83-1.63c-2.89,1.92-2.81,4.64,.55,6.58s8.07,1.97,11.36,.3" style="fill:#091833;"/><path d="M475.4,46.28c-1-.58-2.35-.62-3.3-.07s-.9,1.35,.1,1.92,2.32,.63,3.32,.05,.88-1.33-.12-1.91" style="fill:#091833;"/><polyline points="466.08 53.31 463.3 51.71 458.18 54.69 460.95 56.29 466.08 53.31" style="fill:#091833;"/><polyline points="472.1 49.8 469.33 48.21 464.48 51.03 467.25 52.62 472.1 49.8" style="fill:#091833;"/><path d="M481.4,54.86c-1.6-.92-3.51-1.09-4.78-.87l-.15-.09,1.36-.79-2.64-1.53-4.85,2.82,2.77,1.6,.08-.05c1.4-.81,3.42-.87,4.76-.1s1.25,1.77-.11,2.56l-.27,.16,2.77,1.6,.99-.58c2.38-1.38,2.6-3.29,.08-4.74" style="fill:#091833;"/><polyline points="471.92 56.68 469.15 55.08 464.03 58.06 466.8 59.66 471.92 56.68" style="fill:#091833;"/><polyline points="479.16 60.86 476.39 59.26 471.26 62.24 474.03 63.84 479.16 60.86" style="fill:#091833;"/><path d="M493.94,58.86l-2.6-1.5-2.25,1.3c-.53,.31-1.17,.31-1.66,.03l-1.26-.73-2.18,1.27,1.9,1.1-2.65,1.54,2.77,1.6,2.65-1.54,3.1,1.79,2.21-1.28-3.1-1.79,3.07-1.78" style="fill:#091833;"/><path d="M484.85,64.14l-2.77-1.6-1.42,.83c-2.39,1.39-2.3,2.96,.03,4.31l2.07,1.19,2.29-1.33-1.49-.86c-1.07-.62-.95-1.23-.02-1.77l1.31-.76" style="fill:#091833;"/><polyline points="503.94 62.69 501.16 61.08 491.56 66.66 494.34 68.27 503.94 62.69" style="fill:#091833;"/><path d="M493.17,68.95l-2.78-1.6-1.99,1.16c-1.97,1.15-2.02,2.46-.06,3.6l1.04,.6,2.42-1.4-.45-.26c-.57-.33-.56-.71,.08-1.08l1.74-1.01" style="fill:#091833;"/><path d="M504.89,75.72l-2.76-1.6-2.45,.69-.17-.1,1.17-1.43-2.73-1.58-3.34,4.41-1.09,.28c-1.14,.29-2.14,.25-3.1-.3l-1.16-.67-2.46,1.43,1.39,.8c2.18,1.26,4.41,1.3,7,.6l9.7-2.55" style="fill:#091833;"/><polyline points="504.55 68.54 501.63 66.85 498.66 70.76 501.43 72.36 504.55 68.54" style="fill:#091833;"/><polyline points="513.13 73.49 510.16 71.78 503.63 73.63 506.44 75.25 513.13 73.49" style="fill:#091833;"/><polyline points="755.63 177.73 448.23 .25 1 260.15 308.4 437.63 755.63 177.73" style="fill:none; stroke:#535253; stroke-linejoin:round; stroke-width:.5px;"/><path d="M73.32,274.71l38.3-25.08,4.39,2.53-17.48,13.15,1.98,1.66,15.7-7.18,2.13,1.57-33.95,19.73-11.05-6.38m85.22-6.49l-1.96,.86-38.03-21.04-1.49,.87c-.93-.38-1.94-.82-2.64-1.11l.16-.11-1.92-1.11,1.92,1.11-41.26,27.02,32.19,18.58,46.52-23.99,1.92,1.11,4.6-2.2m135.5-96.5s-.02,0-.03-.02c-.95-.55-14.81,2.37-21.73,3.83,6.92-1.46,20.78-4.38,21.73-3.83,0,0,.02,0,.03,.02m13.71-26.83s0,.03,.05,.1l.05,.03c-.06-.08-.09-.13-.1-.13m12-39.01l1.56,8.59-1.56-8.59m21.73-10.17l.03,.06,1.54,9.23-1.54-9.23-.03-.06m-20,75.6l-8.21-8.67,4.34,.36c1.95,3.71,3.6,6.9,4.32,8.35l-.45-.04m5.32-1.17c-1.45-1.9-3.23-4.21-5.1-6.66l6.79,2.05,1.35,.86-3.04,3.75m102.53-26.33c-5.15,.67-10.46,1.36-14.89,1.93-11.18,.59-30.56,1.59-36.7,1.45v-.02l-8.19-9.23-3.69,4.9-26.43-33.89,.04,1.03,3.96,11.67c-1.11-.96-2.75-2.34-4.49-3.79,1.59,1.32,3.09,2.6,4.18,3.54l18.61,24.7-9.72-4.99-.46,2.5-16.11-16.85,15.23,21.57-2.11,11.3-21.49-13.94c3.07,4.06,8.75,11.54,10.29,13.96l-9.75-.35-13.51-6.43-6.43-.74,6.29,4.06c.23,.42,.46,.85,.68,1.27h-.45l2.93,1.7-23.1,2.29,.63,.56-7.2,2.64,9.25-3.38,6.88,.58,9.9,8.61-3.2-.35c-5.54-1.34-13.48-3.24-21.13-5.05,4.11,.98,8.3,1.98,12.16,2.9l7.45,6.63c-5.09-.89-9.76-1.73-12.45-2.28,2.7,.55,7.41,1.4,12.52,2.3h-.04l4.07,1.18-2.8-.03,4.03,3.58-18.78-3.16-5.63,3.13,18.25,1.55-26.67,8.63-39.84,19.31,36.1-12.19-13.71,9h-.02c-4.58,2.02-9.13,4-13.65,5.94l3.05,1.23c-47.65,21.14-90.32,37.36-111.82,45.55l5.33,2.52c45.65-17.34,83.85-34.17,117.93-50.34l-.1,.02,22.96-5.15,16.49-10.41-32.24,26.43,37.46-22.87-2.28,14.25-37.46,23.96,51.39-24.1-3.18-20.13,12.59,10,12.22,29.71-2.31-31.36-5.02-9.76,10.23,10.58,4.84,21.64-.36-23.14-15.94-17.12,44.58,23.01-38.68-25.88,43.36,15.48,12.16,19.58-5.31-21.64-40.99-16.57,68.89,18.76-62.54-22.19,58.71,14.25,13.07,12.73-6.45-14.93-41.7-15.88,36.93,8.21,18.5,10.68-15.45-13-30.78-7.13,64.38,10.13-61.31-14.11,36.59,3.6c-4.03-1.56-7.81-3.01-10.99-4.24l-25.87-6.17,10.52-.39-3.67-.95,22.17-.19-11.53-1.93-25.34-.91-2.65-2.99,11.3-1.5,32.26,5.4-35.97-6.03,22.92-2.05c4.92-.63,11.72-1.51,18.26-2.37m-57.55-41.45l-10.79,20.34,10.79-20.34m77.98,38.62h0m.02,0h0m-47.41-27.67l-23.75,22.71,23.75-22.71m-20.62-12.52l-17.69,28.92,17.69-28.92m11.21,1.58l-11.43,13.32-8.05,20.86,8.05-20.86,11.43-13.32" style="fill:url(#Contrast_Hatch__); stroke:#535253; stroke-miterlimit:10; stroke-width:.5px;"/><path d="M116.01,252.16l-4.39-2.53-38.3,25.08,11.05,6.38,33.95-19.73-2.13-1.57-15.7,7.18-1.98-1.66,17.48-13.15m137.21-39.42l-3.05-1.23h0c-39.35,16.92-76.24,31.09-112.27,44.15l-18.97-11.21-3.18-.79-3.08,2.91,1.92,1.11-.16,.11c.7,.29,1.71,.73,2.64,1.11l1.49-.87,38.03,21.04,1.96-.86-12.43-7.18c.22-.07,.4-.15,.62-.22h0l-5.33-2.53c21.51-8.19,64.17-24.41,111.82-45.55m56.88-37.02l-23.21-.24-43.17,16.57,43.19-13.01,2.8,.24h0l5.63-3.13,18.78,3.16-4.03-3.58h0m7.05-16.58l-2.93-1.69h0l-5.78,.08-3.21-3.41c-15.71-2.42-47.1-7.26-45.9-6.57,1.03,.59,22.06,6.58,36.36,10.62l-11.89,5.58c-3.67-.87-7.11-1.7-9.99-2.37l-32.56,10.13,34.95-6.57,3.12,.91-17.02,7.99,19.69-7.2,8.13,2.4-17.82,6.5c6.92-1.46,20.78-4.38,21.73-3.83,0,0,.02,0,.03,.02,.23,.11,1.05,.3,2.3,.55,2.69,.55,7.36,1.39,12.45,2.28l-7.45-6.63c-3.86-.92-8.05-1.92-12.16-2.9-.57-.14-1.14-.27-1.7-.4l7.2-2.64-.63-.56,23.1-2.29m22.8-7.62l-9.78-11.55,7.85,4.32,1.93,7.23m-9.17-40.2c-.13-.08-.18-.08-.12,.01,2.42,3.73,5.7,9.49,7.66,12.95l-3.31,2.63-15.25-21.03,1.56,8.59-20.6-3.86,20.32,7.18,13.1,19.32-10.29-5.12h-.43l-9.17-10.88-41.81,9.18,38.29-5.48,5.37,6.94-19.79-.63,22.04,3.53,15.72,20.3-19.24-15.75c-11.13-1.69-33.36-5.07-32.88-4.8s19.41,5.57,28.87,8.21l14.77,13.03-17.71-10.62-.05-.03-.25-.15-37.83-2.85,31.52,5.96,6.46,4.17h0l6.43,.74,13.51,6.43,9.75,.35c-1.53-2.42-7.22-9.9-10.29-13.96l21.49,13.94,2.11-11.3-15.23-21.57,16.11,16.85,.46-2.5,9.72,4.99-18.61-24.7c-1.09-.94-2.6-2.21-4.18-3.54-3.49-2.91-7.39-6.08-8.18-6.53m130.82,65.94l-28.43-11.78-31.59-8.16h0l-10.52,.39,25.87,6.17c3.18,1.23,6.96,2.68,10.99,4.24h0l3.86,.38,29.83,8.76m-1.96-12.6l-35.52-10.4-32.26-5.4-11.3,1.5,2.65,2.99,25.34,.91,11.53,1.93h1.7l37.87,8.47m-66.67-62.29l-11.43,13.32-8.05,20.86-2.77-6.84,11.04-28.92-17.69,28.92,7.72-27.35-10.79,20.34c-1.96-6.56-6.81-21.84-7.3-22.12-.03-.02-.04,.02-.04,.11,.27,8.02,.27,19.32,.07,19.21h0c-.3-.52-11.77-22.86-12.21-24.14l-.03-.06,.03,.06,1.54,9.23-6.68-4.21,3.12,9.2h0l-.04-1.04,26.43,33.89,3.69-4.9,8.18,9.23v.02c6.15,.14,25.52-.86,36.71-1.45,4.43-.57,9.74-1.26,14.89-1.93,10.17-1.33,19.7-2.6,20.44-2.82h.04s.02-.04,0-.06c-.47-.27-9.22-.61-13.71-.78l-50.45,4.73-1.07-1.99c.16-.09,11.89-4.75,18.59-7.73,2.86-1.28,11.12-6.42,14.9-8.15l-34.68,13,33.93-20.81-35.13,17.94,20.2-23.83-23.75,22.71,7.78-17.18,6.56-16.48" style="fill:none; stroke:#535253; stroke-linejoin:round; stroke-width:.5px;"/><path d="M246.4,486.29l-43.73-25.25c-3.86-2.23-10.1-2.23-13.94,0s-3.82,5.84,.05,8.07l43.73,25.25c3.86,2.23,10.09,2.23,13.93,0,3.84-2.23,3.82-5.84-.04-8.07" style="fill:#fc3819;"/><polyline points="196.19 443.94 183.05 456.44 195.91 453.82 207.79 456.65 196.19 443.94" style="fill:#fd836f;"/><path d="M486.89,467.98l-43.73-25.25c-3.86-2.23-10.1-2.23-13.94,0s-3.82,5.84,.05,8.07l43.73,25.25c3.86,2.23,10.09,2.23,13.93,0s3.82-5.84-.04-8.07" style="fill:#fc3819;"/><polyline points="436.67 425.63 423.54 438.13 436.4 435.51 448.28 438.34 436.67 425.63" style="fill:#fd836f;"/></g></g></svg>