<?xml version="1.0" encoding="UTF-8"?><svg id="Layer_2" xmlns="http://www.w3.org/2000/svg" xmlns:xlink="http://www.w3.org/1999/xlink" viewBox="0 0 1329.43 1198.36"><defs><clipPath id="clippath"><polygon points="798.13 418.26 799.24 24.59 1315.53 322.67 1314.42 716.34 798.13 418.26" style="fill:none;"/></clipPath><clipPath id="clippath-1"><polygon points="784.23 426.86 785.44 0 1329.43 314.07 1328.22 740.93 784.23 426.86" style="fill:none;"/></clipPath><clipPath id="clippath-2"><polygon points="784.23 426.86 785.44 0 1329.43 314.07 1328.22 740.93 784.23 426.86" style="fill:none;"/></clipPath><pattern id="New_Pattern_Swatch_1" x="0" y="0" width="30" height="300" patternTransform="translate(-427.27 4.64)" patternUnits="userSpaceOnUse" viewBox="0 0 30 300"><g><rect width="30" height="300" style="fill:none;"/><line x1="29.92" y1="0" x2="29.92" y2="300" style="fill:none; stroke:#feb4a9; stroke-miterlimit:10;"/><line x1="23.92" y1="0" x2="23.92" y2="300" style="fill:none; stroke:#feb4a9; stroke-miterlimit:10;"/><line x1="17.92" y1="0" x2="17.92" y2="300" style="fill:none; stroke:#feb4a9; stroke-miterlimit:10;"/><line x1="11.92" y1="0" x2="11.92" y2="300" style="fill:none; stroke:#feb4a9; stroke-miterlimit:10;"/><line x1="5.92" y1="0" x2="5.92" y2="300" style="fill:none; stroke:#feb4a9; stroke-miterlimit:10;"/><line x1="-.08" y1="0" x2="-.08" y2="300" style="fill:none; stroke:#feb4a9; stroke-miterlimit:10;"/></g></pattern><clipPath id="clippath-3"><polygon points="409.67 647.5 410.79 253.83 927.08 551.91 925.96 945.58 409.67 647.5" style="fill:none;"/></clipPath><clipPath id="clippath-4"><polygon points="395.78 656.1 396.99 229.24 940.97 543.31 939.76 970.17 395.78 656.1" style="fill:none;"/></clipPath><clipPath id="clippath-5"><polygon points="395.78 656.1 396.99 229.24 940.98 543.32 939.77 970.17 395.78 656.1" style="fill:none;"/></clipPath><pattern id="New_Pattern_Swatch_1-2" patternTransform="translate(-430.52 231.37)" xlink:href="#New_Pattern_Swatch_1"/><clipPath id="clippath-6"><polygon points="13.9 875.68 15.01 482.01 531.3 780.09 530.19 1173.76 13.9 875.68" style="fill:none;"/></clipPath><clipPath id="clippath-7"><polygon points="0 884.28 1.21 457.42 545.2 771.49 543.99 1198.35 0 884.28" style="fill:none;"/></clipPath><clipPath id="clippath-8"><polygon points="0 884.28 1.21 457.42 545.2 771.5 543.99 1198.36 0 884.28" style="fill:none;"/></clipPath></defs><g id="Diagram"><g><g><g style="opacity:.4;"><g style="isolation:isolate;"><g style="clip-path:url(#clippath);"><g><polyline points="1315.17 322.87 799.6 25.21 798.49 418.05 1314.06 715.72 1315.17 322.87" style="fill:#fff;"/><path d="M798.49,418.05l1.11-392.85,515.57,297.67-1.11,392.85L798.49,418.05m517.05-95.38L799.24,24.59l-1.12,393.67,516.29,298.08,1.12-393.67" style="fill:#535253;"/></g></g></g></g><g style="isolation:isolate;"><g style="clip-path:url(#clippath-1);"><path d="M784.58,426.65L785.79,.61l543.28,313.66-1.21,426.04L784.58,426.65m544.84-112.58L785.44,0l-1.21,426.86,543.99,314.07,1.21-426.86" style="fill:#535253;"/></g></g></g><g style="isolation:isolate;"><g style="clip-path:url(#clippath-2);"><path d="M784.58,426.65L785.79,.61l543.28,313.66-1.21,426.04L784.58,426.65m544.85-112.58L785.44,0l-1.21,426.86,543.99,314.07,1.21-426.86" style="fill:#535253;"/></g></g><g><path d="M899.08,228.55l51.85,18.17,.69,.4-.36,128.63c0,.16,.08,.31,.2,.4l28.63,21.04-.03,9.37-79.38-45.83,.03-9.43,29.39,12.81c.06,.03,.13,.04,.2,.04,.1,0,.19-.03,.27-.08,.14-.09,.23-.25,.23-.42l.3-105.4c0-.18-.09-.34-.25-.43l-31.8-18.36,.03-10.91m-.5-.7l-.03,11.9,32.05,18.5-.3,105.4-30.09-13.11-.03,10.48,80.38,46.41,.03-10.48-28.84-21.19,.37-128.92-.98-.57-52.55-18.42h0Z" style="fill:#535253;"/><path d="M1013.67,332.3c2.22,0,4.68,.74,7.11,2.14,9.22,5.32,16.98,18.64,16.95,29.07-.02,7.09-3.65,11.67-9.24,11.67-2.27,0-4.8-.77-7.33-2.22-9.09-5.25-16.74-18.63-16.71-29.23,.02-6.94,3.64-11.43,9.21-11.43m0-.5c-5.64,0-9.69,4.44-9.71,11.93-.03,10.77,7.84,24.39,16.96,29.66,2.7,1.56,5.27,2.29,7.58,2.29,5.7,0,9.72-4.5,9.74-12.17,.03-10.48-7.84-24.1-17.2-29.51-2.6-1.5-5.11-2.21-7.36-2.21h0Z" style="fill:#535253;"/><path d="M1094.15,332.65c5.76,0,12.12,2.06,19.47,6.3,20.5,11.83,34.23,34.24,34.17,55.76-.03,10.94-3.47,19.78-10.82,27.82-6.88,7.53-16.69,13.88-27.85,20.8l-14.85,9.02c-.15,.09-.24,.26-.24,.43,0,.18,.1,.34,.25,.43l66.57,38.43-.05,19.25-90.47-52.24,.02-6.82,8.68-5.78c4.51-3,8.68-5.66,12.71-8.24,21.84-13.95,35.02-22.37,35.08-43.04,.05-17.52-9.85-35.5-24.08-43.71-3.97-2.29-7.62-3.4-11.17-3.4-4.41,0-8.64,1.65-13.67,5.33l-5.63-7.93c5.35-6.2,12.13-12.43,21.9-12.43m0-.5c-9.49,0-16.26,5.57-22.53,12.91l6.15,8.66c4.64-3.47,9.02-5.53,13.78-5.53,3.37,0,6.94,1.03,10.92,3.34,14.3,8.26,23.88,26.28,23.83,43.28-.07,24.08-18.12,31.26-47.56,50.86l-8.91,5.92-.02,7.37,91.47,52.81,.06-20.4-66.82-38.58,14.85-9.02c22.76-14.11,38.85-25.25,38.91-49.05,.06-20.12-12.23-43.38-34.42-56.2-7.78-4.49-14.21-6.37-19.72-6.37h0Z" style="fill:#535253;"/></g></g><g><g style="opacity:.2;"><path d="M802.03,481.54c-4.3-2.48-7.81-8.56-7.8-13.5l.46-161.93c.01-4.94,3.54-6.96,7.85-4.47l234.87,135.6c4.3,2.48,7.82,8.56,7.8,13.51l-.45,161.92c-.01,4.94-3.55,6.96-7.85,4.48l-109.62-63.27c-2.74-1.58-5.49-1.82-7.83-.91l-52.6,22.34-2.62-45.22c-.37-7.42-5.45-15.76-11.71-19.37l-50.5-29.16m235.47-71.32l-234.89-135.61c-17.21-9.94-31.36-1.9-31.42,17.9l-.46,161.93c-.06,19.79,13.98,44.12,31.21,54.07l39.53,22.82,3.36,60.51c.38,5.17,3.1,11.26,7.01,15.76l4.69,3.6c2.74,1.58,5.49,1.82,7.44,.69l67.52-28.59,105.33,60.81c17.22,9.94,31.37,1.9,31.43-17.91l.46-161.93c.06-19.78-14-44.13-31.22-54.07" style="fill:#fe9b8c;"/></g><path d="M787.4,489.98c-4.3-2.48-7.81-8.56-7.8-13.5l.46-161.93c.01-4.94,3.54-6.96,7.85-4.47l234.87,135.6c4.3,2.48,7.82,8.56,7.8,13.51l-.45,161.92c-.01,4.94-3.55,6.96-7.85,4.48l-109.62-63.27c-2.74-1.58-5.49-1.82-7.83-.91l-52.6,22.34-2.62-45.22c-.37-7.42-5.45-15.76-11.71-19.37l-50.5-29.16m235.47-71.32l-234.89-135.61c-17.21-9.94-31.36-1.9-31.42,17.9l-.46,161.93c-.06,19.79,13.98,44.12,31.21,54.07l39.53,22.82,3.36,60.51c.38,5.17,3.1,11.26,7.01,15.76l4.69,3.6c2.74,1.58,5.49,1.82,7.44,.69l67.52-28.59,105.33,60.81c17.22,9.94,31.37,1.9,31.43-17.91l.46-161.93c.06-19.78-14-44.13-31.22-54.07" style="fill:#fff; stroke:#535253; stroke-linejoin:round; stroke-width:.5px;"/><path d="M783.48,492.24c-4.3-2.48-7.81-8.56-7.8-13.5l.46-161.93c.01-4.94,3.54-6.96,7.85-4.47l234.87,135.6c4.3,2.48,7.82,8.56,7.8,13.51l-.45,161.92c-.01,4.94-3.55,6.96-7.85,4.48l-109.62-63.27c-2.74-1.58-5.49-1.82-7.83-.91l-52.6,22.34-2.62-45.22c-.37-7.42-5.45-15.76-11.71-19.37l-50.5-29.16m235.47-71.32l-234.89-135.61c-17.21-9.94-31.36-1.9-31.42,17.9l-.46,161.93c-.06,19.79,13.98,44.12,31.21,54.07l39.53,22.82,3.36,60.51c.38,5.17,3.1,11.26,7.01,15.76l4.69,3.6c2.74,1.58,5.49,1.82,7.44,.69l67.52-28.59,105.33,60.81c17.22,9.94,31.37,1.9,31.43-17.91l.46-161.93c.06-19.78-14-44.13-31.22-54.07" style="fill:url(#New_Pattern_Swatch_1); stroke:#feb4a9; stroke-miterlimit:10; stroke-width:.5px;"/></g><polygon points="885.92 427.64 885.98 448.09 779.46 518.82 779.48 524.51 784.32 527.6 886.05 472.22 886.1 492.67 890.95 495.75 939.86 434.94 935.02 431.86 885.92 427.64" style="fill:#fd836f;"/><polygon points="890.76 430.72 890.82 451.18 784.31 521.9 784.32 527.6 890.89 475.3 890.95 495.75 939.86 434.94 890.76 430.72" style="fill:#fc3819;"/><g><g><g style="opacity:.4;"><g style="isolation:isolate;"><g style="clip-path:url(#clippath-3);"><g><polyline points="926.72 552.12 411.15 254.45 410.03 647.3 925.61 944.96 926.72 552.12" style="fill:#fff;"/><path d="M410.03,647.3l1.11-392.85,515.57,297.67-1.11,392.85L410.03,647.3m517.05-95.38L410.79,253.83l-1.12,393.67,516.29,298.08,1.12-393.67" style="fill:#535253;"/></g></g></g></g><g style="isolation:isolate;"><g style="clip-path:url(#clippath-4);"><path d="M396.13,655.89l1.21-426.04,543.28,313.66-1.21,426.04L396.13,655.89m544.84-112.58L396.99,229.24l-1.21,426.86,543.99,314.07,1.21-426.86" style="fill:#535253;"/></g></g></g><g style="isolation:isolate;"><g style="clip-path:url(#clippath-5);"><path d="M396.13,655.89l1.21-426.04,543.28,313.66-1.21,426.04L396.13,655.89m544.85-112.58L396.99,229.24l-1.21,426.86,543.99,314.07,1.21-426.86" style="fill:#535253;"/></g></g><g><path d="M511.09,459.26l51.84,18.17,.7,.4-.36,128.62c0,.16,.08,.31,.2,.4l28.63,21.04-.03,9.37-79.38-45.83,.03-9.43,29.39,12.81c.06,.03,.13,.04,.2,.04,.1,0,.19-.03,.27-.08,.14-.09,.23-.25,.23-.42l.3-105.4c0-.18-.09-.34-.25-.43l-31.8-18.36,.03-10.91m-.5-.7l-.03,11.9,32.05,18.5-.3,105.4-30.09-13.12-.03,10.48,80.38,46.41,.03-10.48-28.83-21.19,.37-128.91-.99-.57-52.55-18.42h0Z" style="fill:#535253;"/><path d="M625.67,563.01c2.22,0,4.68,.74,7.11,2.14,9.22,5.32,16.98,18.64,16.95,29.08-.02,7.08-3.65,11.66-9.24,11.66-2.27,0-4.81-.77-7.33-2.22-9.09-5.25-16.74-18.63-16.71-29.22,.02-6.95,3.64-11.44,9.21-11.44m0-.5c-5.64,0-9.69,4.44-9.71,11.94-.03,10.76,7.84,24.39,16.96,29.65,2.7,1.56,5.27,2.29,7.58,2.29,5.7,0,9.72-4.49,9.74-12.16,.03-10.48-7.84-24.11-17.2-29.52-2.6-1.5-5.11-2.21-7.36-2.21h0Z" style="fill:#535253;"/><path d="M678.99,556.2l51.85,18.17,.69,.4-.36,128.62c0,.16,.08,.31,.2,.4l28.63,21.04-.03,9.37-79.38-45.83,.03-9.43,29.4,12.82c.06,.03,.13,.04,.2,.04,.1,0,.19-.03,.27-.08,.14-.09,.23-.25,.23-.42l.3-105.4c0-.18-.09-.34-.25-.43l-31.81-18.36,.03-10.91m-.5-.7l-.03,11.9,32.06,18.51-.3,105.4-30.1-13.12-.03,10.48,80.38,46.41,.03-10.48-28.84-21.19,.37-128.91-.98-.57-52.55-18.42h0Z" style="fill:#535253;"/></g></g><g><g style="opacity:.2;"><path d="M408.78,708.27c-4.3-2.48-7.81-8.56-7.8-13.5l.46-161.93c.01-4.94,3.54-6.96,7.85-4.47l234.87,135.6c4.3,2.48,7.82,8.56,7.8,13.51l-.45,161.92c-.01,4.94-3.55,6.96-7.85,4.48l-109.62-63.27c-2.74-1.58-5.49-1.82-7.83-.91l-52.6,22.34-2.62-45.22c-.37-7.42-5.45-15.76-11.71-19.37l-50.5-29.16m235.47-71.32l-234.89-135.61c-17.21-9.94-31.36-1.9-31.42,17.9l-.46,161.93c-.06,19.79,13.98,44.12,31.21,54.07l39.53,22.82,3.36,60.51c.38,5.17,3.1,11.26,7.01,15.76l4.69,3.6c2.74,1.58,5.49,1.82,7.44,.69l67.52-28.59,105.33,60.81c17.22,9.94,31.37,1.9,31.43-17.91l.46-161.93c.06-19.78-14-44.13-31.22-54.07" style="fill:#fe9b8c;"/></g><path d="M394.15,716.7c-4.3-2.48-7.81-8.56-7.8-13.5l.46-161.93c.01-4.94,3.54-6.96,7.85-4.47l234.87,135.6c4.3,2.48,7.82,8.56,7.8,13.51l-.45,161.92c-.01,4.94-3.55,6.96-7.85,4.48l-109.62-63.27c-2.74-1.58-5.49-1.82-7.83-.91l-52.6,22.34-2.62-45.22c-.37-7.42-5.45-15.76-11.71-19.37l-50.5-29.16m235.47-71.32l-234.89-135.61c-17.21-9.94-31.36-1.9-31.42,17.9l-.46,161.93c-.06,19.79,13.98,44.12,31.21,54.07l39.53,22.82,3.36,60.51c.38,5.17,3.1,11.26,7.01,15.76l4.69,3.6c2.74,1.58,5.49,1.82,7.44,.69l67.52-28.59,105.33,60.81c17.22,9.94,31.37,1.9,31.43-17.91l.46-161.93c.06-19.78-14-44.13-31.22-54.07" style="fill:#fff; stroke:#535253; stroke-linejoin:round; stroke-width:.5px;"/><path d="M390.22,718.97c-4.3-2.48-7.81-8.56-7.8-13.5l.46-161.93c.01-4.94,3.54-6.96,7.85-4.47l234.87,135.6c4.3,2.48,7.82,8.56,7.8,13.51l-.45,161.92c-.01,4.94-3.55,6.96-7.85,4.48l-109.62-63.27c-2.74-1.58-5.49-1.82-7.83-.91l-52.6,22.34-2.62-45.22c-.37-7.42-5.45-15.76-11.71-19.37l-50.5-29.16m235.47-71.32l-234.89-135.61c-17.21-9.94-31.36-1.9-31.42,17.9l-.46,161.93c-.06,19.79,13.98,44.12,31.21,54.07l39.53,22.82,3.36,60.51c.38,5.17,3.1,11.26,7.01,15.76l4.69,3.6c2.74,1.58,5.49,1.82,7.44,.69l67.52-28.59,105.33,60.81c17.22,9.94,31.37,1.9,31.43-17.91l.46-161.93c.06-19.78-14-44.13-31.22-54.07" style="fill:url(#New_Pattern_Swatch_1-2); stroke:#feb4a9; stroke-miterlimit:10; stroke-width:.5px;"/></g><polygon points="467.35 668.85 467.41 689.3 360.9 760.03 360.91 765.72 366.2 769.36 467.48 713.43 467.54 733.88 472.82 737.52 521.74 676.7 516.45 673.07 467.35 668.85" style="fill:#fd836f;"/><polygon points="472.64 672.48 472.69 692.94 366.18 763.66 366.2 769.36 472.76 717.06 472.82 737.52 521.74 676.7 472.64 672.48" style="fill:#fc3819;"/><g><g><g style="opacity:.4;"><g style="isolation:isolate;"><g style="clip-path:url(#clippath-6);"><g><polyline points="530.94 780.3 15.37 482.63 14.26 875.48 529.83 1173.14 530.94 780.3" style="fill:#fff;"/><path d="M14.26,875.48l1.11-392.85,515.57,297.67-1.11,392.85L14.26,875.48m517.05-95.38L15.01,482.01l-1.12,393.67,516.29,298.08,1.12-393.67" style="fill:#535253;"/></g></g></g></g><g style="isolation:isolate;"><g style="clip-path:url(#clippath-7);"><path d="M.35,884.07L1.56,458.04l543.28,313.66-1.21,426.04L.35,884.07m544.84-112.58L1.21,457.42,0,884.28l543.99,314.07,1.21-426.86" style="fill:#535253;"/></g></g></g><g style="isolation:isolate;"><g style="clip-path:url(#clippath-8);"><path d="M.35,884.07L1.56,458.03l543.28,313.66-1.21,426.04L.35,884.07m544.85-112.58L1.21,457.42,0,884.28l543.99,314.07,1.21-426.86" style="fill:#535253;"/></g></g><g><path d="M168.5,834.31l.36-128.74c0-.11-.08-.25-.18-.3l-1.02-.59-52.55-18.42c-.08-.03-.14,.02-.14,.12l-.03,11.9c0,.12,.08,.25,.18,.31l31.87,18.4-.3,105.01-29.94-13.05c-.09-.04-.15,.01-.15,.12l-.03,10.48c0,.12,.08,.25,.18,.31l80.38,46.41c.1,.06,.18,.02,.18-.1l.03-10.48c0-.1-.06-.23-.15-.29l-28.68-21.07Zm28.45,31.44l-80.03-46.2,.03-10.1,29.94,13.05c.09,.04,.15-.01,.15-.12l.3-105.4c0-.11-.08-.24-.18-.3l-31.87-18.4,.03-11.53,52.38,18.36,.8,.46-.36,128.71c0,.1,.07,.22,.15,.29l28.69,21.08-.03,10.1Z" style="fill:#535253;"/><path d="M237.59,792.44c-9.16-5.29-17.21-.69-17.24,9.83-.03,10.87,7.81,24.58,17.13,29.96,9.45,5.46,17.46,.9,17.49-9.97,.03-10.7-7.93-24.36-17.38-29.82Zm-.11,39.38c-9.12-5.27-16.81-18.71-16.78-29.35,.03-10.3,7.92-14.8,16.89-9.63,9.26,5.34,17.05,18.72,17.02,29.21-.03,10.65-7.88,15.12-17.13,9.77Z" style="fill:#535253;"/><path d="M356.29,824.64c-10.18-5.88-19.6-5.9-26.5-.05-7.35,6.23-11.27,18.4-11.32,35.17-.05,17,3.24,35.6,9.01,51.03,7.47,19.95,19.1,34.93,33.62,43.32,10.46,6.04,19.88,5.89,26.51-.42,6.87-6.54,10.52-19.08,10.57-36.27,.11-39.68-17.51-78.7-41.9-92.78Zm31.04,128.64c-6.56,6.25-15.87,6.4-26.22,.43-14.6-8.43-25.8-22.87-33.31-42.93-5.75-15.36-9.02-33.87-8.97-50.8,.05-16.68,3.93-28.77,11.23-34.96,6.83-5.8,16.15-5.78,26.23,.03,24.19,13.96,41.66,52.73,41.54,92.17-.05,17.1-3.68,29.57-10.5,36.07Z" style="fill:#535253;"/><path d="M405.64,862.24c-11.71-21.08-28.09-38.09-47.34-49.21-34.25-19.77-64.39-1.67-64.5,38.74-.13,45.2,26.12,90.77,65.31,113.39,16.92,9.77,32.94,10.92,45.1,3.23,11.81-7.45,18.61-22.8,18.67-42.11,.06-21.21-6.05-43.96-17.22-64.04Zm-1.7,105.73c-12.1,7.64-28.02,6.49-44.84-3.22-38.98-22.5-65.08-67.83-64.95-112.78,.11-40.19,30.09-58.2,64.14-38.54,19.16,11.06,35.44,27.99,47.09,48.95,11.1,19.96,17.18,42.59,17.12,63.7-.05,19.21-6.82,34.47-18.56,41.89Z" style="fill:#535253;"/></g></g></g></svg>