<?xml version="1.0" encoding="UTF-8"?><svg id="Layer_2" xmlns="http://www.w3.org/2000/svg" xmlns:xlink="http://www.w3.org/1999/xlink" viewBox="0 0 320.19 185.72"><defs><pattern id="Contrast_Hatch_2" x="0" y="0" width="25" height="300" patternTransform="translate(-1222.27 -81.42)" patternUnits="userSpaceOnUse" viewBox="0 0 25 300"><g><rect width="25" height="300" style="fill:none;"/><line x1="24.42" y1="0" x2="24.42" y2="300" style="fill:none; stroke:#535253; stroke-miterlimit:10; stroke-width:.5px;"/><line x1="19.42" y1="0" x2="19.42" y2="300" style="fill:none; stroke:#535253; stroke-miterlimit:10; stroke-width:.5px;"/><line x1="14.42" y1="0" x2="14.42" y2="300" style="fill:none; stroke:#535253; stroke-miterlimit:10; stroke-width:.5px;"/><line x1="9.42" y1="0" x2="9.42" y2="300" style="fill:none; stroke:#535253; stroke-miterlimit:10; stroke-width:.5px;"/><line x1="4.42" y1="0" x2="4.42" y2="300" style="fill:none; stroke:#535253; stroke-miterlimit:10; stroke-width:.5px;"/></g></pattern></defs><g id="Furniture"><g style="opacity:.5;"><path d="M8.58,110.32l121.89,70.37,181.19-105.3L189.78,5.03,8.58,110.32Z" style="fill:#fff9f7; stroke:#535253; stroke-linejoin:round; stroke-width:.25px;"/></g><path d="M118.57,166.63l10.24-6.7,1.17,.68-4.67,3.52,.52,.44,4.2-1.92,.57,.42-9.07,5.27-2.96-1.71m22.66-1.68h-.02s-.38,.18-.38,.18l-10.17-5.63-.4,.23c-.25-.1-.52-.22-.7-.3l-10.99,7.2,8.6,4.97,12.44-6.41,.51,.3,1.11-.53m28.65-20.13l-3.92,2.28,3.39-1.9,.53-.38m2.66-4.94l-23.72,12.49-3.08-.89-.19,.08-9.87,8.94,3.86-8.23-5.73,8.12,5.29,3.05,11.74-.96,10.71-7.03-10.17,4.71-8.36,1.46,9.76-4.47,16.08-11.6-18.25,11.61-12.15,4.14,1.44-1.19,.46-.18,9.65-6.77,22.54-13.29m.99-.59l-.27,.12-.09,.1,.36-.21" style="fill:url(#Contrast_Hatch_2); stroke:#535253; stroke-miterlimit:10; stroke-width:.5px;"/><path d="M129.98,160.6l-1.17-.68-10.24,6.7,2.96,1.71,9.07-5.27-.57-.42-4.2,1.92-.52-.44,4.67-3.52m9.64-8.43l-7.73,7.11-1.8-1.04-1,.87,.51,.3-.04,.03s0,0,0,0c.19,.08,.46,.19,.7,.3l.4-.23,10.17,5.63,.38-.19,.25-.13-2.36-1.36-5.29-3.05,5.73-8.12,.08-.11m30.31-7.28l-.57,.32-3.39,1.9-16.51,9.24-9.1,3.61-.46,.18-1.44,1.19,12.15-4.14,18.25-11.61,1.08-.68m3.77-5.9l-28.22,12.42,.27,.08,3.08,.89,23.72-12.49,.55-.29,.08-.08,.09-.1,.43-.44" style="fill:none; stroke:#535253; stroke-linejoin:round; stroke-width:.5px;"/><path d="M79.27,118.17l-.22,.05-.22,.77c.15-.34,.26-.64,.22-.66-.03-.01,.06-.07,.22-.16m-19.15,14.6l10.23-6.71,1.18,.68-4.67,3.51,.53,.45,4.2-1.92,.57,.42-9.07,5.27-2.96-1.71m30.07-2.39c-.5-.29-2.56-1.83-3.64-2.64l.75-1.94,5.02,.75,2.45,2.64-.95,.9c-1.13,.11-3.38,.33-3.53,.33-.01,0-.05-.02-.1-.05m5.14-9.08l-.08-.02,1.93,2.01-3.03,1.81-4.07,.11-3.09-1.17,.71-2.68-1.2,.43,.94-1.54s-.43-1.4-.53-1.46c0,0-.01,0-.02,0l-1.83,1.86-3.42,.77-3.08-1.31,.29,1.58,2.38,.53,1.46,3.17-2.81,.4-4.3-1.17-.13-1.46-2.26,.4-2.38-1.05-2.16-1.92-.08,.02,.11,2.04,2.81,1.88,.02-.02,8.51,4.91,1.76-.76c.7,.08,2.08,.23,2.13,.26,0,0,0,0,0,0l1.72,1.96-2.09,.68-2.97-.48-.65-1.19-7.7-4.26-.4,.23c-.25-.11-.52-.22-.71-.3l-10.98,7.2,8.6,4.97,11.07-5.65,.52,.36,1.33,.77,3.61,.28,.65-2.92,3.91,2.64,3.04-.17,2.03-1.62v-2.15s-2.45-2.62-2.45-2.62l2.85-.44,1.51-1.21,.37-1.71-1.86-2.01" style="fill:url(#Contrast_Hatch_2); stroke:#535253; stroke-miterlimit:10; stroke-width:.5px;"/><path d="M71.53,126.74l-1.18-.68-10.23,6.71,2.96,1.71,9.07-5.27-.57-.42-4.2,1.92-.53-.45,4.67-3.51m12.36,2.19c-.05-.03-1.43-.18-2.13-.26l-1.76,.76-8.51-4.91-.02,.02-.84,.72,.51,.3-.04,.03s0,0,0,0c.19,.08,.46,.19,.71,.3l.4-.23,7.7,4.26,.65,1.19,2.97,.48,2.09-.68-1.72-1.96s0,0,0,0m-2.66-6.71l-2.38-.53-.97-.22-1.51,.48-.97-2.49-3.9-.05c-.98,.35-2.94,1.05-2.99,1.07l.13,.12,2.16,1.92,2.38,1.05,2.26-.4,.13,1.46,4.3,1.17,2.81-.4-1.46-3.17m11.09,4.34l-5.02-.75-.75,1.94c1.08,.81,3.14,2.35,3.64,2.64,.05,.03,.09,.05,.1,.05,.15,0,2.41-.22,3.53-.33l.95-.9-2.45-2.64m-5.23-7.98l-2.48-1.1-3.52-.16c-.52,.23-1.41,.64-1.82,.86-.15,.08-.24,.14-.22,.16,.04,.02-.08,.32-.22,.66-.2,.47-.46,1.03-.43,1.05l.16,.07,3.08,1.31,3.42-.77,1.83-1.86,.21-.21m8.02,2.56l-4-1.08-3.38,1.17-.04,.14-.71,2.68,3.09,1.17,4.07-.11,3.03-1.81-1.93-2.01-.14-.14" style="fill:none; stroke:#535253; stroke-linejoin:round; stroke-width:.5px;"/><path d="M194.27,19.82l-4.81-2.78-1.64,.95,3.88,2.24c.29,.17,.3,.44,0,.61l-3.06,1.78,1.88,1.08,3.76-2.18c.81-.47,.81-1.23,0-1.7" style="fill:#091833;"/><path d="M189.74,24.15l-1.88-1.08-.15,.09c-.84,.49-2.16,.73-3.31,.07-.99-.57-.99-1.25-.15-1.76l-1.79-1.03c-1.93,1.14-1.79,2.62,.23,3.79,2.23,1.29,4.9,1.17,6.85,.04l.19-.11" style="fill:#091833;"/><path d="M199.78,25.12c-2.17-1.25-5.14-1.3-7.31-.3l1.88,1.09c1.21-.49,2.71-.45,3.78,.17s1.14,1.49,.31,2.19l1.88,1.09c1.73-1.26,1.62-2.99-.53-4.24" style="fill:#091833;"/><path d="M199.55,29.82l-1.87-1.08c-1.26,.59-2.87,.56-3.99-.08s-1.17-1.58-.15-2.31l-1.87-1.08c-1.91,1.27-1.86,3.07,.37,4.35s5.34,1.3,7.52,.2" style="fill:#091833;"/><path d="M209.48,27.34c-.66-.38-1.55-.41-2.18-.04s-.6,.89,.07,1.27,1.53,.41,2.19,.03,.58-.88-.08-1.26" style="fill:#091833;"/><polyline points="203.32 31.99 201.49 30.93 198.09 32.9 199.93 33.96 203.32 31.99" style="fill:#091833;"/><polyline points="207.3 29.67 205.47 28.61 202.26 30.48 204.09 31.54 207.3 29.67" style="fill:#091833;"/><path d="M213.46,33.02c-1.06-.61-2.32-.72-3.16-.58l-.1-.06,.9-.52-1.75-1.01-3.21,1.87,1.83,1.06,.05-.03c.92-.54,2.26-.58,3.15-.06s.83,1.17-.07,1.69l-.18,.1,1.83,1.06,.65-.38c1.57-.91,1.72-2.18,.05-3.14" style="fill:#091833;"/><polyline points="207.19 34.22 205.35 33.17 201.96 35.14 203.8 36.19 207.19 34.22" style="fill:#091833;"/><polyline points="211.97 36.99 210.14 35.93 206.75 37.9 208.58 38.96 211.97 36.99" style="fill:#091833;"/><path d="M221.75,35.66l-1.72-.99-1.49,.86c-.35,.2-.77,.2-1.1,.02l-.83-.48-1.44,.84,1.26,.73-1.75,1.02,1.83,1.06,1.75-1.02,2.05,1.18,1.46-.85-2.05-1.18,2.03-1.18" style="fill:#091833;"/><path d="M215.74,39.16l-1.83-1.06-.94,.55c-1.58,.92-1.52,1.96,.02,2.85l1.37,.79,1.51-.88-.99-.57c-.71-.41-.63-.81-.01-1.17l.87-.5" style="fill:#091833;"/><polyline points="228.36 38.2 226.53 37.14 220.18 40.82 222.02 41.89 228.36 38.2" style="fill:#091833;"/><path d="M221.24,42.34l-1.84-1.06-1.32,.77c-1.31,.76-1.34,1.63-.04,2.38l.69,.4,1.6-.93-.3-.17c-.38-.22-.37-.47,.05-.71l1.15-.67" style="fill:#091833;"/><path d="M228.99,46.81l-1.83-1.06-1.62,.46-.11-.06,.77-.95-1.81-1.04-2.21,2.91-.72,.19c-.76,.2-1.42,.17-2.05-.2l-.76-.44-1.63,.95,.92,.53c1.44,.83,2.92,.86,4.63,.4l6.42-1.69" style="fill:#091833;"/><polyline points="228.77 42.07 226.84 40.95 224.87 43.54 226.7 44.59 228.77 42.07" style="fill:#091833;"/><polyline points="234.45 45.34 232.48 44.21 228.17 45.44 230.02 46.51 234.45 45.34" style="fill:#091833;"/><polyline points="320.12 75.38 189.77 .12 .12 110.34 130.48 185.6 320.12 75.38" style="fill:none; stroke:#535253; stroke-linejoin:round; stroke-width:.25px;"/><path d="M30.79,116.51l16.24-10.64,1.86,1.07-7.41,5.58,.84,.7,6.66-3.05,.9,.67c-4.12,2.39-11.55,6.71-14.4,8.37l-4.69-2.71m36.14-2.75l-.83,.36-16.13-8.92-.63,.37c-.39-.16-.82-.35-1.12-.47l.07-.05-.81-.47,.81,.47-17.5,11.46,13.65,7.88,19.73-10.17,.81,.47,1.95-.93m57.46-40.92s-.01,0-.01,0c-.4-.23-6.28,1.01-9.21,1.63,2.94-.62,8.81-1.86,9.21-1.63,0,0,0,0,.01,0m5.81-11.38s0,.01,.02,.04h.02s-.04-.04-.04-.04m5.09-16.54l.66,3.64-.66-3.64m9.22-4.31v.03s.66,3.91,.66,3.91l-.65-3.91v-.03m-8.49,32.06l-3.48-3.68,1.84,.15c.83,1.57,1.53,2.93,1.83,3.54l-.19-.02m2.26-.5c-.61-.81-1.37-1.79-2.16-2.82l2.88,.87,.57,.36-1.29,1.59m43.48-11.17c-2.18,.29-4.44,.58-6.31,.82-4.74,.25-12.96,.67-15.56,.61h0s-3.47-3.92-3.47-3.92l-1.56,2.08-11.21-14.37,.02,.44,1.68,4.95c-.47-.41-1.17-.99-1.9-1.61,.67,.56,1.31,1.1,1.77,1.5l7.89,10.47-4.12-2.12-.2,1.06-6.83-7.15,6.46,9.15-.89,4.79-9.11-5.91c1.3,1.72,3.71,4.89,4.36,5.92l-4.13-.15-5.73-2.72-2.73-.32,2.67,1.72c.1,.18,.19,.36,.29,.54h-.19s1.24,.72,1.24,.72l-9.8,.97,.27,.24-3.05,1.12,3.92-1.43,2.92,.25,4.2,3.65-1.36-.15c-2.35-.57-5.72-1.37-8.96-2.14,1.74,.41,3.52,.84,5.16,1.23l3.16,2.81c-2.16-.38-4.14-.73-5.28-.97,1.15,.23,3.14,.6,5.31,.98h-.02s1.72,.5,1.72,.5h-1.19s1.71,1.51,1.71,1.51l-7.97-1.34-2.39,1.33,7.74,.66-11.31,3.66-16.9,8.19,15.31-5.17-5.82,3.82h0c-1.94,.86-3.87,1.69-5.79,2.52l1.3,.52c-20.21,8.96-38.3,15.84-47.42,19.31l2.26,1.07c19.36-7.35,35.56-14.49,50.01-21.35h-.04s9.74-2.18,9.74-2.18l6.99-4.41-13.67,11.21,15.89-9.7-.97,6.04-15.88,10.16,21.79-10.22-1.35-8.54,5.34,4.24,5.18,12.6-.98-13.3-2.13-4.14,4.34,4.49,2.05,9.18-.15-9.81-6.76-7.26,18.9,9.76-16.4-10.97,18.38,6.56,5.16,8.3-2.25-9.18-17.38-7.03,29.21,7.95-26.52-9.41,24.9,6.04,5.54,5.4-2.74-6.33-17.68-6.74,15.66,3.48,7.85,4.53-6.55-5.51-13.05-3.02,27.3,4.3-26-5.98,15.51,1.53c-1.71-.66-3.31-1.28-4.66-1.8l-10.97-2.62,4.46-.17-1.56-.4,9.4-.08-4.89-.82-10.75-.39-1.12-1.27,4.79-.64,13.68,2.29-15.25-2.56,9.72-.87c2.08-.27,4.97-.64,7.74-1m-24.4-17.58l-4.57,8.62,4.57-8.62m33.07,16.38h0s0,0,0,0m.01,0s0,0,0,0c0,0,0,0,0,0m-20.1-11.73l-10.07,9.63,10.07-9.63m-8.74-5.31l-7.5,12.26,7.5-12.26m4.75,.67l-4.85,5.65-3.41,8.85,3.41-8.85,4.85-5.65" style="fill:url(#Contrast_Hatch_2); stroke:#535253; stroke-miterlimit:10; stroke-width:.5px;"/><path d="M48.89,106.95l-1.86-1.07-16.24,10.64,4.69,2.71c2.85-1.65,10.28-5.97,14.4-8.37l-.9-.67-6.66,3.05-.84-.7,7.41-5.58m58.18-16.71l-1.3-.52h0c-16.69,7.17-32.33,13.18-47.61,18.72l-8.04-4.75-1.35-.34-1.3,1.23,.81,.47-.07,.05c.3,.13,.72,.31,1.12,.47l.63-.37,16.13,8.92,.83-.36-5.27-3.04c.09-.03,.17-.06,.26-.1h0s-2.26-1.07-2.26-1.07c9.12-3.47,27.21-10.35,47.42-19.31m24.12-15.7l-9.84-.1-18.31,7.02,18.31-5.52,1.19,.1h0s2.39-1.33,2.39-1.33l7.97,1.34-1.71-1.52h0m2.99-7.03l-1.24-.72h0s-2.45,.03-2.45,.03l-1.36-1.44c-6.66-1.03-19.97-3.08-19.46-2.79,.44,.25,9.35,2.79,15.42,4.5l-5.04,2.37c-1.56-.37-3.02-.72-4.23-1.01l-13.81,4.3,14.82-2.78,1.32,.39-7.22,3.39,8.35-3.05,3.45,1.02-7.56,2.75c2.94-.62,8.81-1.86,9.21-1.63,0,0,0,0,.01,0,.1,.04,.45,.13,.97,.23,1.14,.23,3.12,.59,5.28,.97l-3.16-2.81c-1.64-.39-3.41-.81-5.16-1.23-.24-.06-.48-.11-.72-.17l3.05-1.12-.27-.24,9.8-.97m9.67-3.23l-4.15-4.9,3.33,1.83,.82,3.07m-3.89-17.05c-.06-.03-.08-.03-.05,0,1.03,1.58,2.42,4.02,3.25,5.49l-1.41,1.11-6.47-8.92,.66,3.64-8.74-1.63,8.62,3.05,5.55,8.19-4.37-2.17h-.18s-3.89-4.61-3.89-4.61l-17.73,3.89,16.24-2.32,2.28,2.94-8.39-.27,9.35,1.5,6.67,8.61-8.16-6.68c-4.72-.72-14.15-2.15-13.94-2.03s8.23,2.36,12.24,3.48l6.26,5.53-7.51-4.51h-.02s-.11-.08-.11-.08l-16.04-1.21,13.36,2.53,2.74,1.77h0s2.73,.32,2.73,.32l5.73,2.72,4.13,.15c-.65-1.03-3.06-4.2-4.36-5.92l9.11,5.91,.89-4.79-6.46-9.15,6.83,7.15,.2-1.06,4.12,2.12-7.89-10.47c-.46-.4-1.1-.94-1.77-1.5-1.48-1.23-3.13-2.58-3.47-2.77m55.48,27.96l-12.06-4.99-13.4-3.46h0s-4.46,.17-4.46,.17l10.97,2.62c1.35,.52,2.95,1.13,4.66,1.8,0,0,0,0,0,0l1.64,.16,12.65,3.72m-.83-5.34l-15.06-4.41-13.68-2.29-4.79,.64,1.12,1.27,10.75,.39,4.89,.82h0s.72,0,.72,0l16.06,3.6m-28.27-26.42l-4.85,5.65-3.41,8.85-1.17-2.9,4.68-12.26-7.5,12.26,3.27-11.6-4.57,8.62c-.83-2.78-2.89-9.26-3.1-9.38-.01,0-.02,0-.02,.05,.11,3.4,.11,8.19,.03,8.15,0,0,0,0,0,0-.13-.22-4.99-9.69-5.18-10.23v-.03s0,.03,0,.03l.65,3.91-2.83-1.79,1.32,3.9h0s-.02-.44-.02-.44l11.21,14.37,1.56-2.08,3.47,3.91h0c2.6,.07,10.82-.35,15.56-.61,1.88-.24,4.13-.53,6.31-.82,4.31-.56,8.35-1.1,8.67-1.2h0s0,0,0,0c0,0,0,0,0,0,0,0,0,0,0,0,.01,0,0-.01,0-.02-.2-.11-3.91-.26-5.81-.33l-21.39,2.01-.46-.85c.07-.04,5.04-2.01,7.88-3.28,1.21-.54,4.72-2.72,6.32-3.46l-14.71,5.51,14.39-8.82-14.9,7.61,8.57-10.1-10.07,9.63,3.3-7.29,2.78-6.99" style="fill:none; stroke:#535253; stroke-linejoin:round; stroke-width:.5px;"/></g></svg>