<?xml version="1.0" encoding="UTF-8"?><svg id="Layer_2" xmlns="http://www.w3.org/2000/svg" xmlns:xlink="http://www.w3.org/1999/xlink" viewBox="0 0 450.41 611.93"><defs><clipPath id="clippath"><polygon points="11.72 345.4 12.64 20.54 438.69 266.52 437.77 591.39 11.72 345.4" style="fill:#fff9f7; stroke:#535253; stroke-linejoin:round; stroke-width:.5px;"/></clipPath><clipPath id="clippath-1"><polygon points=".25 352.5 1.25 .25 450.16 259.43 449.16 611.68 .25 352.5" style="fill:none;"/></clipPath><clipPath id="clippath-2"><polygon points=".25 352.5 1.25 .25 450.16 259.43 449.16 611.68 .25 352.5" style="fill:none; stroke:#535253; stroke-linejoin:round; stroke-width:.5px;"/></clipPath></defs><g id="Furniture"><g style="opacity:.5;"><g style="isolation:isolate;"><polygon points="11.72 345.4 12.64 20.54 438.69 266.52 437.77 591.39 11.72 345.4" style="fill:#fff9f7;"/><g style="clip-path:url(#clippath);"><g><polyline points="438.4 266.69 12.93 21.05 12.01 345.24 437.48 590.88 438.4 266.69" style="fill:#fff9f7; stroke:#535253; stroke-linejoin:round; stroke-width:.5px;"/><path d="M12.01,345.24L12.93,21.05l425.46,245.64-.92,324.18L12.01,345.24m426.68-78.71L12.64,20.54l-.92,324.86,426.05,245.98,.92-324.86" style="fill:#fff9f7; stroke:#535253; stroke-linejoin:round; stroke-width:.5px;"/></g></g><polygon points="11.72 345.4 12.64 20.54 438.69 266.52 437.77 591.39 11.72 345.4" style="fill:none; stroke:#535253; stroke-linejoin:round; stroke-width:.5px;"/></g></g><g style="isolation:isolate;"><g style="clip-path:url(#clippath-1);"><path d="M.54,352.33L1.54,.76,449.87,259.6l-1,351.57L.54,352.33m449.62-92.9L1.25,.25,.25,352.5l448.91,259.18,1-352.25" style="fill:#535253;"/></g></g><path d="M213.27,288.29l-3.88-1.57-.06,20.12,3.92,2.26,.03-10.53c.54-.14,1.07-.05,1.59,.25,1.28,.74,1.89,1.65,1.88,3.26l-.03,9.03,3.89,2.25,.03-10.32c0-2.68-1.27-4.58-3.3-5.75-1.31-.76-2.08-.58-2.64-.26-.49,.28-1.01,.63-1.47,1.11l.03-9.86" style="fill:#dedede;"/><path d="M228.93,317.81c-1.49-.94-2.51-3.01-2.5-7.99,.01-5.28,.86-6.05,2.07-5.46,1.49,.92,2.49,2.97,2.48,7.98-.02,5.38-.86,6.05-2.05,5.47m-.05-13.86c-1.14-.66-2.52-1.08-3.57-.88-1.38,.25-3.02,1.16-3.03,4.53-.01,4.31,2.83,8.61,6.25,10.59,1.17,.67,2.52,1.05,3.57,.88,1.4-.24,3.02-1.16,3.03-4.53,.01-4.32-2.83-8.61-6.25-10.59" style="fill:#dedede;"/><polyline points="240.74 304.15 236.87 302.56 236.81 322.71 240.68 324.95 240.74 304.15" style="fill:#dedede;"/><path d="M249.08,327.57c-1.59-.92-2.56-3.14-2.55-6.97,.01-3.67,1.18-4.98,2.44-4.39,.51,.32,1.35,1.72,1.86,2.5l-.03,9.4c-.4,.01-.98-.11-1.73-.54m5.67-15.3l-3.89-1.58-.02,6.16c-.33-.3-1.03-.81-1.52-1.09-3.75-2.17-6.91-1.11-6.92,3.71-.01,4.39,2.08,7.93,4.85,9.54,.91,.53,1.84,.66,2.4,.42,.61-.27,.89-.53,1.17-.88v2.41s3.86,1.73,3.86,1.73l.06-20.42" style="fill:#dedede;"/><path d="M260.29,327.2c.17-3.28,1.13-3.8,1.92-3.4,1.12,.68,1.56,1.74,1.55,5.03l-3.48-1.63m2.58-3.61c-1.4-.81-2.54-.99-3.62-.83-1.29,.22-2.78,1.24-2.79,4.75-.01,4.39,2.59,8.31,5.62,10.06,2.56,1.48,3.83,1.43,4.71,.9,.07-.2,.57-2.27,.59-2.45-.51,.19-1.96-.14-3.41-.98-2.43-1.4-3.73-3.71-3.72-6.84v-.43s7.09,4.09,7.09,4.09c.03-.23,.05-.59,.05-.86,0-3-1.69-5.78-4.53-7.42" style="fill:#dedede;"/><path d="M276.44,331.42c-.84-.48-1.56-.44-2.06-.09-.47,.32-.96,1.06-1.31,1.71v-3.48s-3.86-1.59-3.86-1.59l-.04,13.43,3.89,2.25,.03-10.13c.28-.11,.82-.15,1.26,.08,.3,.17,1.44,1.24,2.54,2.35l.97-3.42c-.35-.33-.93-.83-1.42-1.12" style="fill:#dedede;"/><g><g style="clip-path:url(#clippath-2);"><path d="M.54,352.33L1.54,.75,449.87,259.59l-1,351.58L.54,352.33m449.62-92.9L1.25,.25,.25,352.5l448.91,259.18,1-352.25" style="fill:none; stroke:#535253; stroke-linejoin:round; stroke-width:.5px;"/></g><polygon points=".25 352.5 1.25 .25 450.16 259.43 449.16 611.68 .25 352.5" style="fill:none; stroke:#535253; stroke-linejoin:round; stroke-width:.5px;"/></g></g></svg>