<?xml version="1.0" encoding="UTF-8"?><svg id="Layer_2" xmlns="http://www.w3.org/2000/svg" viewBox="0 0 320 185.47"><g id="Architecture"><polygon points="0 110.21 189.65 0 320 75.26 130.35 185.47 0 110.21" style="fill:none;"/><g style="opacity:.2;"><polyline points="320 75.26 189.65 0 0 110.21 130.35 185.47 320 75.26" style="fill:#fe9b8c;"/></g><path d="M26.94,99.08c24.77-14.39,52.94-30.77,70.07-40.72l18.7,10.8L45.64,109.88l-18.7-10.8m20.57,11.87c24.74-14.37,52.94-30.77,70.07-40.72l18.68,10.79-70.07,40.72-18.68-10.79m20.55,11.86c24.72-14.37,52.92-30.75,70.07-40.72l18.68,10.79-70.07,40.72-18.68-10.79m20.55,11.86c24.77-14.39,52.94-30.77,70.07-40.72l18.7,10.8-70.07,40.72-18.7-10.8m20.57,11.87c24.74-14.37,52.94-30.77,70.07-40.72l18.68,10.79-70.07,40.72-18.68-10.79m20.55,11.86c24.72-14.37,52.92-30.75,70.07-40.72l18.68,10.79-70.07,40.72-18.68-10.79m-30.84-101.13c8.34-4.84,13.64-7.93,13.98-8.13,5.12-2.98,13.48-2.97,18.64,0s5.18,7.82,.06,10.8l-13.98,8.13-18.7-10.8m20.57,11.87c8.34-4.84,13.64-7.93,13.98-8.13,5.12-2.98,13.47-2.99,18.62,0,5.17,2.99,5.18,7.82,.06,10.79l-13.98,8.13-18.68-10.79m20.55,11.86c8.34-4.84,13.64-7.93,13.98-8.13,5.12-2.98,13.48-2.97,18.64,0s5.17,7.81,.04,10.79l-13.98,8.13-18.68-10.79m20.55,11.86c8.34-4.84,13.64-7.93,13.98-8.13,5.12-2.98,13.48-2.97,18.64,0s5.18,7.82,.06,10.79l-13.98,8.13-18.7-10.8m20.57,11.87l13.98-8.13c5.12-2.98,13.47-2.99,18.62,0s5.18,7.82,.06,10.79l-13.98,8.13-18.68-10.79m20.55,11.86c8.34-4.84,13.64-7.93,13.98-8.13,5.12-2.98,13.47-2.99,18.64,0s5.17,7.81,.04,10.79l-13.98,8.13-18.68-10.79M119.01,45.58l3.54-2.06,3.82,2.21c-2.39-.38-4.94-.43-7.36-.15m18.7,10.8c.47-1.4,.39-2.87-.28-4.26l3.82,2.21-3.54,2.06m1.87,1.08l3.54-2.06,3.8,2.19c-2.39-.38-4.92-.42-7.34-.14m18.68,10.79c.47-1.4,.39-2.87-.28-4.26l3.82,2.2-3.54,2.06m1.87,1.08l3.54-2.06,3.82,2.21c-2.41-.39-4.94-.43-7.36-.15m17.92,12.32c1.24-1.85,1.4-3.89,.5-5.78l9.49,5.48c-3.28-.52-6.79-.42-9.98,.31m21.33,10.34c.47-1.4,.38-2.88-.28-4.26l3.82,2.21-3.54,2.06m1.87,1.08l3.54-2.06,3.8,2.19c-2.39-.38-4.92-.42-7.34-.14m18.68,10.79c.47-1.4,.39-2.87-.28-4.26l3.82,2.2-3.54,2.06m1.87,1.08l3.54-2.06,3.82,2.21c-2.41-.39-4.94-.43-7.36-.15m18.68,10.79c.47-1.4,.39-2.87-.26-4.25l3.8,2.19-3.54,2.06m-95.13-61.17c1.21-.7,9.05-5.26,9.24-5.37,1.63-.95,3.35-1.83,5.1-2.63l16.28,11.79c-1.02,.45-1.99,.96-2.93,1.5l-9.24,5.37-18.46-10.66m61.42,35.46l9.24-5.37c.95-.55,1.85-1.14,2.64-1.75l20.39,9.39c-1.39,1.05-2.92,2.06-4.57,3.02-.19,.11-8.03,4.67-9.24,5.37l-18.46-10.66m-48.72-44.65h.01s.02,.02,.02,.02l-.03-.02m-33.49-2.82l9.24-5.37c2.42-1.4,4.95-2.72,7.57-3.9l16.68,12.09c-1.85,.84-3.63,1.75-5.33,2.74l-9.24,5.37-18.92-10.92m116.55,50.69l20.92,9.62c-2.09,1.53-4.34,3.02-6.78,4.44l-9.24,5.37-18.92-10.92,9.24-5.37c1.71-1,3.31-2.04,4.78-3.13l-.04-.02h.05s-.01,.02-.01,.02m-62.98-35.77l-16.33-11.83c3.29-1.35,6.74-2.47,10.34-3.37l10.47,13.83h-.02c-1.53,.37-3.03,.82-4.46,1.36v.02m41.98,24.16h.02c.95-.86,1.77-1.77,2.42-2.71l23.89,6.01c-1.52,2.14-3.49,4.19-5.85,6.12l-20.47-9.41h0s-.02,0-.02,0m-49.04-40.77h0s.02,.03,.02,.03l-.02-.03m33.68,14.87h.02s-.05,.05-.05,.05l.04-.05m-39.08,10.54l9.24-5.37c10.77-6.26,28.28-6.26,39.1,0,10.84,6.26,10.9,16.4,.13,22.66l-9.24,5.37-39.23-22.65m45.74-8.57h0s-.02,.01-.02,.01h.01m-51.22-13.25l-16.72-12.14c5.31-2.27,10.98-4.16,16.9-5.64l10.71,14.17c-3.78,.95-7.46,2.13-10.91,3.57l.03,.04m82.5,47.53c2.48-2.04,4.55-4.21,6.19-6.45l24.47,6.17c-2.52,3.47-5.76,6.8-9.74,9.93l-20.93-9.64m-57.57-36.39l-10.54-13.91c3.71-.81,7.53-1.38,11.41-1.71l3.94,14.95-.02-.05c-1.63,.14-3.24,.35-4.84,.65l.05,.07m39.33,18.94h.12s25.72,2.24,25.72,2.24c-.54,2.27-1.49,4.54-2.86,6.72l-23.97-6.03c.53-.96,.88-1.94,1.11-2.93h-.12m-31.91-19.83l-3.94-14.93c3.89-.24,7.81-.24,11.69,0l-2.85,14.97c-1.62-.09-3.26-.11-4.9-.05m31.9,15.38l25.97-1.7c.47,2.28,.54,4.59,.17,6.86l-25.78-2.24c.05-.98-.01-1.96-.22-2.93h-.13m-50.93-29.82l-10.73-14.17c6.09-1.39,12.38-2.37,18.76-2.93l4.04,15.28c-4.09,.35-8.13,.96-12.07,1.82m76.33,43.83c1.46-2.31,2.48-4.7,3.05-7.11l26.38,2.28c-.9,3.74-2.55,7.44-4.92,10.99l-24.51-6.17m-49.8-29.12l2.87-15c3.83,.34,7.62,.91,11.27,1.7l-9.44,14.02c-1.55-.33-3.1-.57-4.68-.74h-.02m22.61,10.85l24.22-5.53c1.45,2.14,2.5,4.34,3.16,6.57l-25.95,1.71h.05c-.35-.94-.83-1.87-1.43-2.77h-.05m-15.47-9.53l9.46-14.03c3.54,.88,6.94,1.98,10.17,3.29l-15.41,12.13c-1.35-.54-2.75-1-4.22-1.39m11.81,5.73l20.94-9c2.37,1.86,4.32,3.82,5.91,5.87l-24.34,5.56,.12-.03c-.72-.85-1.58-1.66-2.54-2.43l-.09,.03m-5.46-3.43l15.41-12.13c1.81,.83,3.57,1.71,5.25,2.68,1.49,.86,2.86,1.75,4.15,2.67l-20.91,8.98c-.48-.34-1.01-.66-1.58-.99-.74-.43-1.52-.84-2.33-1.21m-25.34-20.32l-4.04-15.28c6.43-.45,12.92-.47,19.35-.06l-2.92,15.36v-.02c-4.11-.25-8.28-.25-12.39,0m64.79,29.95l26.53-1.75c.77,3.76,.79,7.55,.08,11.3l-26.4-2.29c.4-2.41,.33-4.86-.18-7.26h-.03m-49.8-29.72l2.94-15.39c6.37,.5,12.65,1.43,18.74,2.78l-9.71,14.41v-.03c-3.88-.85-7.9-1.45-11.94-1.82l-.02,.05m46.11,21.25l24.82-5.66c2.41,3.52,4.09,7.17,5.03,10.87l-26.49,1.75c-.68-2.36-1.79-4.71-3.32-6.96h-.04m-23.5-35.28h0s-.03,.04-.03,.04l.03-.04m-8.2,16.37l9.7-14.38c5.88,1.42,11.54,3.23,16.88,5.45l-15.78,12.43c-3.42-1.4-7.03-2.56-10.79-3.49m30.63,17.51l.07-.02c-1.67-2.15-3.74-4.23-6.23-6.2l21.39-9.19c3.91,3.07,7.12,6.34,9.65,9.75l-24.87,5.66m62.9,11.63l-2.76-1.59c.41,3.94,.22,7.9-.57,11.84l-25.6-2.23c.75-3.88,.71-7.81-.08-11.69h-.06s20.39-1.34,20.39-1.34l-2.4-1.38-18.38,1.22,.1-.02c-.99-3.83-2.72-7.6-5.22-11.25l4.37-.99-2.05-1.18-3.31,.76c-1.36-1.82-2.91-3.61-4.64-5.35l-10.42-6.02c.46,.32,.92,.65,1.37,.98l-21.4,9.18c-1.35-.98-2.83-1.93-4.4-2.84-1.76-1.02-3.63-1.96-5.55-2.83l15.78-12.43c.75,.34,1.5,.68,2.24,1.03l-10.31-5.95c-3.24-1.08-6.57-2.04-9.98-2.86l-.02,.03,.02-.03h0s1.41-2.09,1.41-2.09l-2.04-1.18-1.83,2.7c-6.29-1.38-12.79-2.34-19.38-2.87l2.06-10.88-2.39-1.38-2.3,12.1v-.02c-6.66-.41-13.38-.4-20.04,.06v.04s-3.9-14.85-3.9-14.85c6.94-.5,13.95-.64,20.92-.4l-2.77-1.6c-5.59-.11-11.19,.02-16.76,.37l-3.89,2.26,3.81,14.44-.02-.05c-6.6,.56-13.11,1.57-19.42,3.02l-4.37-5.78-1.99,1.16,3.94,5.2c-6.12,1.53-12,3.48-17.48,5.85l.05,.05-2.5-1.81-1.86,1.08,2.21,1.6c-2.69,1.25-5.31,2.59-7.79,4.03l-9.24,5.37-2.06-1.19-1.86,1.08,1.92,1.11-3.54,2.06c.27-.78,.36-1.59,.27-2.39l-2.71,1.57c-.36,1.61-1.6,3.16-3.72,4.39l-13.98,8.13-1.92-1.11-1.86,1.08,1.92,1.11L25.07,98.01l-1.92-1.11-1.85,1.08,1.92,1.11L2.16,111.32l1.87,1.08c7.13-4.14,12.35-7.18,21.06-12.24l18.7,10.8-21.06,12.24,1.87,1.08c7.11-4.13,12.33-7.17,21.06-12.24l18.68,10.79-21.06,12.24,1.87,1.08c7.09-4.12,12.33-7.17,21.06-12.24l18.68,10.79-21.06,12.24,1.87,1.08c7.13-4.14,12.35-7.18,21.06-12.24l18.7,10.8-21.06,12.24,1.87,1.08c7.11-4.13,12.33-7.17,21.06-12.24l18.68,10.79-21.06,12.24,1.87,1.08c7.09-4.12,12.33-7.17,21.06-12.24l18.68,10.79-21.06,12.24,1.87,1.08c7.13-4.14,12.35-7.18,21.06-12.24l3.25,1.87,1.85-1.08-3.25-1.87c24.77-14.39,52.94-30.77,70.07-40.72l3.25,1.87,1.86-1.08-3.25-1.87c8.34-4.84,13.64-7.93,13.98-8.13,2.81-1.63,6.58-2.37,10.27-2.21l2.32-1.35c-2.11-.25-4.32-.26-6.43-.02,1.07-.62,2.25-1.31,3.54-2.06l3.25,1.87,1.86-1.08-3.11-1.79c1.21-.7,9.05-5.26,9.24-5.37,2.52-1.46,4.83-2.99,6.97-4.57l-.04-.02,3.99,1.84,1.87-1.08-4.32-1.99,.11,.04c4.09-3.23,7.45-6.67,10.08-10.26l10.56,2.66,2-1.16-11.56-2.91c2.45-3.69,4.17-7.5,5.11-11.38l25.56,2.22c-.09,.38-.2,.76-.31,1.14l4.06-2.36-.91-.08h.1c.71-3.47,.95-6.97,.74-10.46" style="fill:#fe9b8c; opacity:.08;"/></g></svg>