<?xml version="1.0" encoding="UTF-8"?><svg id="Layer_2" xmlns="http://www.w3.org/2000/svg" xmlns:xlink="http://www.w3.org/1999/xlink" viewBox="0 0 320.31 185.76"><defs><pattern id="New_Pattern_Swatch_2" x="0" y="0" width="30" height="300" patternTransform="translate(-1200.87 -217.51)" patternUnits="userSpaceOnUse" viewBox="0 0 30 300"><g><rect width="30" height="300" style="fill:none;"/><line x1="29.92" y1="0" x2="29.92" y2="300" style="fill:none; stroke:#feb4a9; stroke-miterlimit:10; stroke-width:.5px;"/><line x1="23.92" y1="0" x2="23.92" y2="300" style="fill:none; stroke:#feb4a9; stroke-miterlimit:10; stroke-width:.5px;"/><line x1="17.92" y1="0" x2="17.92" y2="300" style="fill:none; stroke:#feb4a9; stroke-miterlimit:10; stroke-width:.5px;"/><line x1="11.92" y1="0" x2="11.92" y2="300" style="fill:none; stroke:#feb4a9; stroke-miterlimit:10; stroke-width:.5px;"/><line x1="5.92" y1="0" x2="5.92" y2="300" style="fill:none; stroke:#feb4a9; stroke-miterlimit:10; stroke-width:.5px;"/><line x1="-.08" y1="0" x2="-.08" y2="300" style="fill:none; stroke:#feb4a9; stroke-miterlimit:10; stroke-width:.5px;"/></g></pattern></defs><g id="Activity"><polygon points=".25 110.36 189.9 .14 320.25 75.4 130.6 185.61 .25 110.36" style="fill:none;"/><polyline points="320.25 75.4 189.9 .14 .25 110.36 130.6 185.61 320.25 75.4" style="fill:none; stroke:#feb4a9; stroke-miterlimit:10; stroke-width:.25px;"/><path d="M8.87,110.34l121.89,70.37,181.19-105.3L190.06,5.04,8.87,110.34Z" style="fill:url(#New_Pattern_Swatch_2); stroke:#feb4a9; stroke-miterlimit:10; stroke-width:.5px;"/><path d="M190.06,79.88c-.52-.13-1.13-.39-1.74-.69,.61,.3,1.22,.56,1.74,.69,0,0,0,0,0,0m.09,0s-.04,0-.06,.01c0,0-.01,0-.02,0h0s.01,0,.02,0c.02,0,.04,0,.06-.01m-3.88-7.19l1.05-.63,3.71,2.08-1.11,.63-3.65-2.08m4.25,2.42l1.1-.63,2.05,1.16-1.1,.63-2.05-1.16m-2.39-3.58l1.11-.63,4.52,2.61-1.09,.63-4.53-2.61m5.41,3.11l1.09-.63,2.68,1.53-1.08,.63-2.69-1.53m-3.53-4.16l1.19-.6,5.58,3.19-1.08,.63-5.69-3.22m1.36-2.5c-5.75,3.06-5.78,3.04-11.32,6.38,2.05,1.25,3.58,2.22,5.67,3.43,.26,.15,.54,.31,.82,.47,.28,.15,.59,.32,.9,.48l11.54-1.08c-1.35,.72-2.92,1.52-3.57,1.75-.02,0-.05,0-.07,0,.02,0,.05,0,.07,0,1.61-.57,1.93-.64,5.03-2.43l3.16-1.86c-1.83-1-3.52-1.94-5.14-2.88-2.38-1.38-4.65-2.74-7.09-4.25" style="fill:#fecdc5;"/><path d="M191.02,74.14l-3.71-2.08-1.05,.63,3.65,2.08,1.11-.63m2.64,1.5l-2.05-1.16-1.1,.63,2.05,1.16,1.1-.63m.09-2.13l-4.52-2.61-1.11,.63,4.53,2.61,1.09-.63m3.55,2.03l-2.68-1.53-1.09,.63,2.69,1.53,1.08-.63m-.53-2.47l-5.58-3.19-1.19,.6,5.69,3.22,1.08-.63" style="fill:#fff;"/><path d="M188.32,79.2c-.29-.14-.59-.3-.88-.45h0c.29,.15,.58,.31,.88,.45" style="fill:#fe9b8c; opacity:.2;"/><path d="M190.14,79.88h-.07s.01,0,.02,.01c.02,0,.04,0,.06-.01m8.84-2.22l-11.54,1.08c.29,.15,.58,.31,.88,.45,.61,.3,1.22,.56,1.74,.69,1.03-.3,2.02-.66,2.87-1.25,.11,.09,.23,.17,.36,.25,.65,.37,1.44,.53,2.05,.54,.02,0,.05,0,.07,0,.65-.23,2.22-1.03,3.57-1.75" style="fill:#fec3ba;"/><path d="M195.46,79.42s-.08,0-.12,0c-.61,0-1.41-.17-2.05-.54-.13-.07-.25-.16-.36-.25-.85,.59-1.84,.95-2.87,1.25,0,0,0,0,0,0,0,0-.01,0-.02,0h.03s0,0,0,0h.07s5.32-.46,5.32-.46" style="fill:#fd836f;"/><path d="M156.69,97.99c-.52-.13-1.13-.39-1.74-.69,.61,.3,1.22,.56,1.74,.69,0,0,0,0,0,0m.09,0s-.04,0-.06,.01c0,0-.01,0-.02,0h0s.01,0,.02,0c.02,0,.04,0,.06-.01m-3.88-7.19l1.05-.63,3.71,2.08-1.11,.63-3.65-2.08m4.25,2.42l1.1-.63,2.05,1.16-1.1,.63-2.05-1.16m-2.39-3.58l1.11-.63,4.52,2.61-1.09,.63-4.53-2.61m5.41,3.11l1.09-.63,2.68,1.53-1.08,.63-2.69-1.53m-3.53-4.16l1.19-.6,5.58,3.19-1.08,.63-5.69-3.22m1.36-2.5c-5.75,3.06-5.78,3.04-11.32,6.38,2.05,1.25,3.58,2.22,5.67,3.43,.26,.15,.54,.31,.82,.47,.28,.15,.59,.32,.9,.48l11.54-1.08c-1.35,.72-2.92,1.52-3.57,1.75-.02,0-.05,0-.07,0,.02,0,.05,0,.07,0,1.61-.57,1.93-.64,5.03-2.43l3.16-1.86c-1.83-1-3.52-1.94-5.14-2.88-2.38-1.38-4.65-2.74-7.09-4.25" style="fill:#fecdc5;"/><path d="M157.65,92.25l-3.71-2.08-1.05,.63,3.65,2.08,1.11-.63m2.64,1.5l-2.05-1.16-1.1,.63,2.05,1.16,1.1-.63m.09-2.13l-4.52-2.61-1.11,.63,4.53,2.61,1.09-.63m3.55,2.03l-2.68-1.53-1.09,.63,2.69,1.53,1.08-.63m-.53-2.47l-5.58-3.19-1.19,.6,5.69,3.22,1.08-.63" style="fill:#fff;"/><path d="M154.95,97.31c-.29-.14-.59-.3-.88-.45h0c.29,.15,.58,.31,.88,.45" style="fill:#fe9b8c; opacity:.2;"/><path d="M156.78,97.99h-.07s.01,0,.02,.01c.02,0,.04,0,.06-.01m8.84-2.22l-11.54,1.08c.29,.15,.58,.31,.88,.45,.61,.3,1.22,.56,1.74,.69,1.03-.3,2.02-.66,2.87-1.25,.11,.09,.23,.17,.36,.25,.65,.37,1.44,.53,2.05,.54,.02,0,.05,0,.07,0,.65-.23,2.22-1.03,3.57-1.75" style="fill:#fec3ba;"/><path d="M162.1,97.53s-.08,0-.12,0c-.61,0-1.41-.17-2.05-.54-.13-.07-.25-.16-.36-.25-.85,.59-1.84,.95-2.87,1.25,0,0,0,0,0,0,0,0-.01,0-.02,0h.03s0,0,0,0h.07s5.32-.46,5.32-.46" style="fill:#fd836f;"/><path d="M216.79,98.35c-.52-.13-1.13-.39-1.74-.69,.61,.3,1.22,.56,1.74,.69,0,0,0,0,0,0m.09,0s-.04,0-.06,.01c0,0-.01,0-.02,0h0s.01,0,.02,0c.02,0,.04,0,.06-.01m-3.88-7.19l1.05-.63,3.71,2.08-1.11,.63-3.65-2.08m4.25,2.42l1.1-.63,2.05,1.16-1.1,.63-2.05-1.16m-2.39-3.58l1.11-.63,4.52,2.61-1.09,.63-4.53-2.61m5.41,3.11l1.09-.63,2.68,1.53-1.08,.63-2.69-1.53m-3.53-4.16l1.19-.6,5.58,3.19-1.08,.63-5.69-3.22m1.36-2.5c-5.75,3.06-5.78,3.04-11.32,6.38,2.05,1.25,3.58,2.22,5.67,3.43,.26,.15,.54,.31,.82,.47,.28,.15,.59,.32,.9,.48l11.54-1.08c-1.35,.72-2.92,1.52-3.57,1.75-.02,0-.05,0-.07,0,.02,0,.05,0,.07,0,1.61-.57,1.93-.64,5.03-2.43l3.16-1.86c-1.83-1-3.52-1.94-5.14-2.88-2.38-1.38-4.65-2.74-7.09-4.25" style="fill:#fecdc5;"/><path d="M217.75,92.6l-3.71-2.08-1.05,.63,3.65,2.08,1.11-.63m2.64,1.5l-2.05-1.16-1.1,.63,2.05,1.16,1.1-.63m.09-2.13l-4.52-2.61-1.11,.63,4.53,2.61,1.09-.63m3.55,2.03l-2.68-1.53-1.09,.63,2.69,1.53,1.08-.63m-.53-2.47l-5.58-3.19-1.19,.6,5.69,3.22,1.08-.63" style="fill:#fff;"/><path d="M215.05,97.66c-.29-.14-.59-.3-.88-.45h0c.29,.15,.58,.31,.88,.45" style="fill:#fe9b8c; opacity:.2;"/><path d="M216.88,98.34h-.07s.01,0,.02,.01c.02,0,.04,0,.06-.01m8.84-2.22l-11.54,1.08c.29,.15,.58,.31,.88,.45,.61,.3,1.22,.56,1.74,.69,1.03-.3,2.02-.66,2.87-1.25,.11,.09,.23,.17,.36,.25,.65,.37,1.44,.53,2.05,.54,.02,0,.05,0,.07,0,.65-.23,2.22-1.03,3.57-1.75" style="fill:#fec3ba;"/><path d="M222.2,97.88s-.08,0-.12,0c-.61,0-1.41-.17-2.05-.54-.13-.07-.25-.16-.36-.25-.85,.59-1.84,.95-2.87,1.25,0,0,0,0,0,0,0,0-.01,0-.02,0h.03s0,0,0,0h.07s5.32-.46,5.32-.46" style="fill:#fd836f;"/><path d="M79.01,99.29c-.52-.13-1.13-.39-1.74-.69,.61,.3,1.22,.56,1.74,.69,0,0,0,0,0,0m.09,0s-.04,0-.06,.01c0,0-.01,0-.02,0h0s.01,0,.02,0c.02,0,.04,0,.06-.01m-3.88-7.19l1.05-.63,3.71,2.08-1.11,.63-3.65-2.08m4.25,2.42l1.1-.63,2.05,1.16-1.1,.63-2.05-1.16m-2.39-3.58l1.11-.63,4.52,2.61-1.09,.63-4.53-2.61m5.41,3.11l1.09-.63,2.68,1.53-1.08,.63-2.69-1.53m-3.53-4.16l1.19-.6,5.58,3.19-1.08,.63-5.69-3.22m1.36-2.5c-5.75,3.06-5.78,3.04-11.32,6.38,2.05,1.25,3.58,2.22,5.67,3.43,.26,.15,.54,.31,.82,.47,.28,.15,.59,.32,.9,.48l11.54-1.08c-1.35,.72-2.92,1.52-3.57,1.75-.02,0-.05,0-.07,0,.02,0,.05,0,.07,0,1.61-.57,1.93-.64,5.03-2.43l3.16-1.86c-1.83-1-3.52-1.94-5.14-2.88-2.38-1.38-4.65-2.74-7.09-4.25" style="fill:#fecdc5;"/><path d="M79.97,93.55l-3.71-2.08-1.05,.63,3.65,2.08,1.11-.63m2.64,1.5l-2.05-1.16-1.1,.63,2.05,1.16,1.1-.63m.09-2.13l-4.52-2.61-1.11,.63,4.53,2.61,1.09-.63m3.55,2.03l-2.68-1.53-1.09,.63,2.69,1.53,1.08-.63m-.53-2.47l-5.58-3.19-1.19,.6,5.69,3.22,1.08-.63" style="fill:#fff;"/><path d="M77.27,98.6c-.29-.14-.59-.3-.88-.45h0c.29,.15,.58,.31,.88,.45" style="fill:#fe9b8c; opacity:.2;"/><path d="M79.1,99.29h-.07s.01,0,.02,.01c.02,0,.04,0,.06-.01m8.84-2.22l-11.54,1.08c.29,.15,.58,.31,.88,.45,.61,.3,1.22,.56,1.74,.69,1.03-.3,2.02-.66,2.87-1.25,.11,.09,.23,.17,.36,.25,.65,.37,1.44,.53,2.05,.54,.02,0,.05,0,.07,0,.65-.23,2.22-1.03,3.57-1.75" style="fill:#fec3ba;"/><path d="M84.42,98.83s-.08,0-.12,0c-.61,0-1.41-.17-2.05-.54-.13-.07-.25-.16-.36-.25-.85,.59-1.84,.95-2.87,1.25,0,0,0,0,0,0,0,0-.01,0-.02,0h.03s0,0,0,0h.07s5.32-.46,5.32-.46" style="fill:#fd836f;"/><path d="M176.05,93.77c-.52-.13-1.13-.39-1.74-.69,.61,.3,1.22,.56,1.74,.69,0,0,0,0,0,0m.09,0s-.04,0-.06,.01c0,0-.01,0-.02,0h0s.01,0,.02,0c.02,0,.04,0,.06-.01m-3.88-7.19l1.05-.63,3.71,2.08-1.11,.63-3.65-2.08m4.25,2.42l1.1-.63,2.05,1.16-1.1,.63-2.05-1.16m-2.39-3.58l1.11-.63,4.52,2.61-1.09,.63-4.53-2.61m5.41,3.11l1.09-.63,2.68,1.53-1.08,.63-2.69-1.53m-3.53-4.16l1.19-.6,5.58,3.19-1.08,.63-5.69-3.22m1.36-2.5c-5.75,3.06-5.78,3.04-11.32,6.38,2.05,1.25,3.58,2.22,5.67,3.43,.26,.15,.54,.31,.82,.47,.28,.15,.59,.32,.9,.48l11.54-1.08c-1.35,.72-2.92,1.52-3.57,1.75-.02,0-.05,0-.07,0,.02,0,.05,0,.07,0,1.61-.57,1.93-.64,5.03-2.43l3.16-1.86c-1.83-1-3.52-1.94-5.14-2.88-2.38-1.38-4.65-2.74-7.09-4.25" style="fill:#fecdc5;"/><path d="M177.02,88.03l-3.71-2.08-1.05,.63,3.65,2.08,1.11-.63m2.64,1.5l-2.05-1.16-1.1,.63,2.05,1.16,1.1-.63m.09-2.13l-4.52-2.61-1.11,.63,4.53,2.61,1.09-.63m3.55,2.03l-2.68-1.53-1.09,.63,2.69,1.53,1.08-.63m-.53-2.47l-5.58-3.19-1.19,.6,5.69,3.22,1.08-.63" style="fill:#fff;"/><path d="M174.32,93.08c-.29-.14-.59-.3-.88-.45h0c.29,.15,.58,.31,.88,.45" style="fill:#fe9b8c; opacity:.2;"/><path d="M176.14,93.77h-.07s.01,0,.02,.01c.02,0,.04,0,.06-.01m8.84-2.22l-11.54,1.08c.29,.15,.58,.31,.88,.45,.61,.3,1.22,.56,1.74,.69,1.03-.3,2.02-.66,2.87-1.25,.11,.09,.23,.17,.36,.25,.65,.37,1.44,.53,2.05,.54,.02,0,.05,0,.07,0,.65-.23,2.22-1.03,3.57-1.75" style="fill:#fec3ba;"/><path d="M181.46,93.31s-.08,0-.12,0c-.61,0-1.41-.17-2.05-.54-.13-.07-.25-.16-.36-.25-.85,.59-1.84,.95-2.87,1.25,0,0,0,0,0,0,0,0-.01,0-.02,0h.03s0,0,0,0h.07s5.32-.46,5.32-.46" style="fill:#fd836f;"/><path d="M104.31,115.06l-18.55-10.71c-1.64-.95-4.28-.95-5.91,0s-1.62,2.48,.02,3.42l18.55,10.71c1.64,.94,4.28,.94,5.91,0s1.62-2.48-.02-3.42" style="fill:#fc3819;"/><polyline points="83.02 97.1 77.45 102.4 82.9 101.29 87.94 102.49 83.02 97.1" style="fill:#fd836f;"/><path d="M206.29,107.29l-18.55-10.71c-1.64-.95-4.28-.95-5.91,0s-1.62,2.48,.02,3.42l18.55,10.71c1.64,.94,4.28,.94,5.91,0s1.62-2.48-.02-3.42" style="fill:#fc3819;"/><polyline points="185 89.34 179.43 94.64 184.88 93.53 189.92 94.73 185 89.34" style="fill:#fd836f;"/></g></svg>