<?xml version="1.0" encoding="UTF-8"?><svg id="Layer_2" xmlns="http://www.w3.org/2000/svg" viewBox="0 0 754.63 437.38"><g id="Architecture"><polygon points="0 259.9 447.23 0 754.63 177.48 307.4 437.38 0 259.9" style="fill:none;"/><g style="opacity:.2;"><polyline points="754.63 177.48 447.23 0 0 259.9 307.4 437.38 754.63 177.48" style="fill:#fe9b8c;"/></g><path d="M63.53,233.66c58.41-33.95,124.85-72.55,165.24-96.03l44.1,25.46-165.24,96.03-44.1-25.46m48.5,28c58.33-33.9,124.85-72.55,165.24-96.03l44.05,25.43-165.24,96.03-44.05-25.43m48.45,27.97c58.29-33.88,124.8-72.53,165.24-96.03l44.05,25.43-165.24,96.03-44.05-25.43m48.45,27.97c58.41-33.95,124.85-72.55,165.24-96.03l44.1,25.46-165.24,96.03-44.1-25.46m48.5,28c58.33-33.9,124.85-72.55,165.24-96.03l44.05,25.43-165.24,96.03-44.05-25.43m48.45,27.97c58.29-33.88,124.8-72.53,165.24-96.03l44.05,25.43-165.24,96.03-44.05-25.43m-72.74-238.49c19.66-11.42,32.17-18.7,32.97-19.16,12.08-7.02,31.8-7.01,43.95,0s12.23,18.44,.15,25.46l-32.97,19.16-44.1-25.46m48.5,28c19.66-11.42,32.17-18.7,32.97-19.16,12.08-7.02,31.75-7.04,43.91-.02,12.19,7.04,12.22,18.44,.14,25.46l-32.97,19.16-44.05-25.43m48.45,27.97c19.66-11.42,32.17-18.7,32.97-19.16,12.08-7.02,31.8-7.01,43.95,0s12.18,18.42,.11,25.43l-32.97,19.16-44.05-25.43m48.45,27.97l32.97-19.16c12.08-7.02,31.8-7.01,43.96,0s12.22,18.44,.14,25.46l-32.97,19.16-44.1-25.46m48.5,28c19.66-11.42,32.17-18.7,32.97-19.16,12.08-7.02,31.75-7.04,43.91-.02,12.19,7.04,12.22,18.44,.14,25.46l-32.97,19.16-44.05-25.43m48.45,27.97c19.66-11.42,32.17-18.7,32.97-19.16,12.08-7.02,31.75-7.04,43.95,0,12.16,7.02,12.18,18.42,.11,25.43l-32.97,19.16-44.05-25.43M280.64,107.49l8.34-4.85,9.01,5.2c-5.64-.89-11.64-1-17.35-.35m44.1,25.46c1.1-3.31,.92-6.76-.67-10.05l9.01,5.2-8.34,4.85m4.4,2.54l8.34-4.85,8.96,5.18c-5.64-.89-11.6-.98-17.31-.33m44.05,25.43c1.1-3.31,.93-6.76-.66-10.04l9,5.2-8.34,4.85m4.4,2.54c2.49-1.45,5.25-3.05,8.34-4.85l9.01,5.2c-5.68-.91-11.64-1-17.35-.35m42.26,29.05c2.92-4.36,3.3-9.16,1.17-13.64l22.37,12.92c-7.73-1.22-16.02-.98-23.54,.72m50.29,24.38c1.1-3.31,.88-6.79-.67-10.05l9.01,5.2-8.34,4.85m4.4,2.54c2.49-1.45,5.3-3.08,8.34-4.85l8.96,5.18c-5.64-.89-11.6-.98-17.31-.33m44.05,25.43c1.1-3.31,.93-6.76-.66-10.04l9,5.2-8.34,4.85m4.4,2.54c2.49-1.45,5.25-3.05,8.34-4.85l9.01,5.2c-5.68-.91-11.64-1-17.35-.35m44.05,25.43c1.11-3.31,.93-6.76-.62-10.02l8.96,5.18-8.34,4.85m-224.34-144.26l21.78-12.66c3.85-2.24,7.91-4.31,12.04-6.2l38.39,27.79c-2.41,1.07-4.7,2.26-6.9,3.54-.44,.26-18.93,11-21.78,12.66l-43.52-25.13m144.84,83.62c2.85-1.66,21.34-12.4,21.78-12.66,2.25-1.3,4.37-2.68,6.22-4.12l48.1,22.15c-3.29,2.47-6.9,4.85-10.79,7.11-.44,.26-18.93,11-21.78,12.66l-43.53-25.13m-114.89-105.29l.03-.02,.04,.07-.07-.06m-78.97-6.64c2.85-1.66,21.34-12.4,21.78-12.66,5.7-3.31,11.68-6.41,17.86-9.21l39.33,28.51c-4.37,1.98-8.57,4.14-12.57,6.46-.44,.26-18.93,11-21.78,12.66l-44.62-25.76m274.85,119.55l49.34,22.69c-4.93,3.61-10.22,7.11-16,10.47-.44,.26-18.93,11-21.78,12.66l-44.62-25.76,21.78-12.66c4.04-2.35,7.8-4.81,11.28-7.39l-.09-.04,.11,.02-.03,.02m-148.52-84.34l-38.51-27.91c7.75-3.19,15.9-5.82,24.39-7.94l24.69,32.61-.04-.02c-3.62,.89-7.15,1.96-10.53,3.22v.04m99.01,56.98l.04,.02c2.24-2.05,4.16-4.19,5.72-6.41l56.34,14.17c-3.59,5.04-8.23,9.89-13.8,14.43l-48.26-22.2h0s-.04-.02-.04-.02m-115.66-96.14h.01s.04,.07,.04,.07l-.05-.07m79.42,35.07h.04s-.13,.13-.13,.13l.09-.13m-92.15,24.86c2.85-1.66,21.34-12.4,21.78-12.66,25.39-14.76,66.68-14.76,92.2-.02,25.56,14.76,25.7,38.68,.31,53.43-.44,.26-18.93,11-21.78,12.66l-92.51-53.41m107.86-20.22h0s-.04,.03-.04,.03l.03-.03m-120.79-31.21l-39.44-28.63c12.53-5.36,25.9-9.82,39.85-13.29l25.25,33.41c-8.92,2.24-17.59,5.03-25.74,8.41l.08,.1m194.55,112.09c5.85-4.8,10.74-9.93,14.61-15.22l57.71,14.55c-5.95,8.18-13.59,16.04-22.97,23.41l-49.35-22.73m-135.75-85.81l-24.85-32.8c8.76-1.91,17.77-3.26,26.9-4.03l9.3,35.25-.05-.11c-3.85,.32-7.64,.84-11.41,1.54l.12,.16m92.74,44.67l.28,.02,60.65,5.27c-1.26,5.36-3.52,10.7-6.75,15.85l-56.52-14.22c1.24-2.26,2.07-4.57,2.62-6.9l-.28-.02m-75.25-46.74l-9.29-35.2c9.17-.56,18.43-.56,27.57,.02l-6.72,35.3c-3.83-.21-7.69-.26-11.56-.12m75.23,36.28l61.24-4.01c1.12,5.39,1.26,10.82,.41,16.18l-60.8-5.27c.11-2.31-.03-4.62-.52-6.9h-.32m-120.09-70.31l-25.3-33.43c14.35-3.29,29.19-5.6,44.23-6.9l9.53,36.04c-9.65,.84-19.18,2.26-28.47,4.29m180.01,103.37c3.43-5.46,5.85-11.08,7.19-16.76l62.21,5.39c-2.12,8.81-6.02,17.54-11.61,25.93l-57.79-14.55m-117.43-68.68l6.76-35.37c9.02,.79,17.96,2.15,26.59,4.01l-22.27,33.07c-3.66-.77-7.31-1.35-11.04-1.74l-.04,.02m53.31,25.57l57.12-13.03c3.41,5.04,5.9,10.23,7.46,15.5l-61.2,4.03,.12-.03c-.81-2.19-1.95-4.38-3.37-6.5l-.13,.02m-36.47-22.5l22.32-33.08c8.34,2.08,16.36,4.66,23.98,7.76l-36.35,28.6c-3.18-1.28-6.48-2.35-9.95-3.28m27.85,13.52l49.39-21.21c5.58,4.38,10.19,9,13.93,13.85l-57.4,13.1,.28-.07c-1.7-2.01-3.73-3.92-5.99-5.74l-.2,.07m-12.88-8.09l36.34-28.61c4.27,1.96,8.43,4.04,12.39,6.32,3.51,2.03,6.75,4.12,9.78,6.29l-49.3,21.17c-1.13-.79-2.38-1.56-3.72-2.33-1.74-1-3.59-1.98-5.49-2.85m-59.76-47.93l-9.54-36.04c15.17-1.05,30.46-1.1,45.64-.14l-6.88,36.22v-.04c-9.7-.58-19.53-.58-29.22,0m152.78,70.64l62.56-4.13c1.82,8.86,1.87,17.81,.19,26.65l-62.26-5.41c.94-5.69,.79-11.45-.41-17.11h-.08m-117.44-70.08l6.92-36.29c15.01,1.19,29.84,3.38,44.18,6.55l-22.9,33.99,.03-.07c-9.19-2.01-18.65-3.43-28.19-4.29l-.04,.11m108.75,50.1l58.52-13.34c5.69,8.3,9.63,16.9,11.86,25.62l-62.48,4.13c-1.6-5.57-4.21-11.12-7.82-16.41h-.08m-55.42-83.2h.02s-.08,.1-.08,.1l.06-.1m-19.33,38.61l22.87-33.92c13.87,3.35,27.21,7.62,39.8,12.84l-37.22,29.3c-8.07-3.31-16.57-6.03-25.44-8.22m72.23,41.29l.16-.05c-3.93-5.06-8.83-9.97-14.69-14.62l50.43-21.68c9.21,7.23,16.78,14.94,22.75,22.99l-58.65,13.36m148.33,27.43l-6.51-3.76c.97,9.3,.52,18.64-1.35,27.92l-60.36-5.25c1.76-9.16,1.67-18.42-.2-27.58h-.15s48.09-3.16,48.09-3.16l-5.65-3.26-43.35,2.88,.24-.04c-2.34-9.02-6.42-17.93-12.3-26.53l10.3-2.34-4.83-2.79-7.81,1.78c-3.2-4.3-6.86-8.52-10.95-12.61l-24.57-14.19c1.09,.76,2.17,1.53,3.23,2.3l-50.48,21.66c-3.19-2.3-6.66-4.55-10.38-6.69-4.16-2.4-8.55-4.62-13.08-6.67l37.22-29.3c1.78,.79,3.55,1.6,5.29,2.43l-24.31-14.03c-7.64-2.54-15.5-4.8-23.54-6.74l-.04,.07,.04-.07h0s3.33-4.92,3.33-4.92l-4.81-2.78-4.3,6.37c-14.83-3.26-30.17-5.52-45.7-6.78l4.86-25.66-5.63-3.25-5.43,28.53v-.04c-15.71-.98-31.56-.93-47.26,.14v.09s-9.21-35.02-9.21-35.02c16.37-1.18,32.89-1.5,49.33-.95l-6.53-3.77c-13.19-.26-26.4,.04-39.52,.88l-9.17,5.33,8.99,34.04-.05-.11c-15.57,1.33-30.93,3.7-45.8,7.11l-10.3-13.64-4.69,2.72,9.28,12.26c-14.43,3.62-28.29,8.21-41.22,13.81l.12,.11-5.89-4.27-4.39,2.55,5.21,3.77c-6.34,2.94-12.52,6.11-18.38,9.51-.44,.26-18.93,11-21.78,12.66l-4.87-2.81-4.38,2.54,4.54,2.62-8.34,4.85c.65-1.84,.84-3.74,.63-5.63l-6.39,3.71c-.84,3.79-3.76,7.45-8.77,10.35l-32.97,19.16-4.54-2.62-4.38,2.54,4.54,2.62L59.13,231.12l-4.54-2.62-4.37,2.54,4.54,2.62-49.66,28.86,4.4,2.54c16.81-9.77,29.12-16.92,49.66-28.86l44.1,25.46-49.66,28.86,4.4,2.54c16.77-9.75,29.08-16.9,49.66-28.86l44.05,25.43-49.66,28.86,4.4,2.54c16.73-9.72,29.08-16.9,49.66-28.86l44.05,25.43-49.66,28.86,4.4,2.54c16.81-9.77,29.12-16.92,49.66-28.86l44.1,25.46-49.66,28.86,4.4,2.54c16.77-9.75,29.08-16.9,49.66-28.86l44.05,25.43-49.66,28.86,4.4,2.54c16.73-9.72,29.08-16.9,49.66-28.86l44.05,25.43-49.66,28.86,4.4,2.54c16.81-9.77,29.12-16.92,49.66-28.86l7.66,4.42,4.37-2.54-7.66-4.42c58.41-33.95,124.85-72.55,165.24-96.03l7.66,4.42,4.38-2.54-7.66-4.42c19.66-11.42,32.17-18.7,32.97-19.16,6.62-3.84,15.53-5.58,24.22-5.21l5.47-3.18c-4.99-.6-10.19-.62-15.17-.05,2.52-1.47,5.3-3.08,8.34-4.85l7.66,4.42,4.38-2.54-7.33-4.23c2.85-1.66,21.34-12.4,21.78-12.66,5.94-3.45,11.39-7.04,16.44-10.77l-.08-.05,9.42,4.33,4.4-2.56-10.18-4.69,.25,.09c9.66-7.62,17.58-15.73,23.77-24.2l24.91,6.27,4.71-2.74-27.26-6.87c5.79-8.7,9.84-17.69,12.05-26.83l60.28,5.25c-.21,.9-.48,1.8-.72,2.69l9.57-5.56-2.14-.18h.24c1.67-8.19,2.24-16.44,1.74-24.67" style="fill:#fe9b8c; opacity:.08;"/></g></svg>