<?xml version="1.0" encoding="UTF-8"?><svg id="Layer_2" xmlns="http://www.w3.org/2000/svg" xmlns:xlink="http://www.w3.org/1999/xlink" viewBox="0 0 755.01 437.88"><defs><pattern id="Contrast_Hatch_" x="0" y="0" width="30" height="300" patternTransform="translate(-160.42 -81.29)" patternUnits="userSpaceOnUse" viewBox="0 0 30 300"><g><rect width="30" height="300" style="fill:none;"/><line x1="29.92" y1="0" x2="29.92" y2="300" style="fill:none; stroke:#535253; stroke-miterlimit:10;"/><line x1="23.92" y1="0" x2="23.92" y2="300" style="fill:none; stroke:#535253; stroke-miterlimit:10;"/><line x1="17.92" y1="0" x2="17.92" y2="300" style="fill:none; stroke:#535253; stroke-miterlimit:10;"/><line x1="11.92" y1="0" x2="11.92" y2="300" style="fill:none; stroke:#535253; stroke-miterlimit:10;"/><line x1="5.92" y1="0" x2="5.92" y2="300" style="fill:none; stroke:#535253; stroke-miterlimit:10;"/><line x1="-.08" y1="0" x2="-.08" y2="300" style="fill:none; stroke:#535253; stroke-miterlimit:10;"/></g></pattern></defs><g id="Furniture"><g style="opacity:.5;"><path d="M20.2,260.12l287.44,165.95,427.3-248.32L447.5,11.81,20.2,260.12Z" style="fill:#fff9f7; stroke:#535253; stroke-linejoin:round; stroke-width:.5px;"/></g><path d="M279.58,392.91l24.14-15.81,2.77,1.6-11.02,8.29,1.24,1.05,9.9-4.53,1.34,1c-6.12,3.55-17.17,9.98-21.39,12.43l-6.97-4.02m53.45-3.96l-.06-.03-.9,.45-23.98-13.27-.94,.55c-.58-.25-1.22-.52-1.66-.7l-25.91,16.97,20.29,11.72,29.33-15.12,1.21,.7,2.61-1.26m67.57-47.46l-9.24,5.37,8-4.47,1.24-.89m6.26-11.64l-55.93,29.44-7.27-2.1-.44,.19-23.29,21.08,9.11-19.4-13.51,19.14,12.47,7.2,27.68-2.26,25.25-16.57-23.99,11.11-19.72,3.45,23.01-10.55,37.92-27.34-43.03,27.37-28.65,9.77,3.39-2.8,1.08-.43,22.76-15.96,53.15-31.35m2.34-1.38l-.64,.28-.22,.23,.86-.51" style="fill:url(#Contrast_Hatch_); stroke:#535253; stroke-miterlimit:10; stroke-width:.5px;"/><path d="M306.48,378.7l-2.77-1.6-24.14,15.81,6.97,4.02c4.22-2.45,15.28-8.88,21.39-12.43l-1.34-1-9.9,4.53-1.24-1.05,11.02-8.29m22.73-19.89l-18.24,16.77-4.24-2.45-2.36,2.05,1.21,.7-.1,.07s0,0,0,0c.45,.19,1.08,.46,1.66,.7l.94-.55,23.98,13.27,.9-.45,.6-.3-5.57-3.21-12.47-7.2,13.51-19.14,.18-.25m71.48-17.18l-1.34,.75-8,4.47-38.95,21.79-21.46,8.51-1.08,.43-3.39,2.8,28.65-9.77,43.03-27.37,2.54-1.61m8.88-13.92l-66.55,29.3,.63,.18,7.27,2.1,55.93-29.44,1.29-.68,.19-.19,.22-.23,1.01-1.03" style="fill:#fff9f7; stroke:#535253; stroke-miterlimit:10; stroke-width:.5px;"/><path d="M186.89,278.63l-.51,.11-.52,1.82c.34-.8,.62-1.5,.52-1.56-.06-.04,.15-.17,.51-.37m-45.15,34.43l24.13-15.81,2.77,1.6-11.02,8.29,1.24,1.05,9.9-4.53,1.34,1-21.39,12.43-6.97-4.02m70.91-5.63c-1.17-.67-6.03-4.31-8.58-6.23l1.77-4.57,11.84,1.77,5.78,6.23-2.24,2.13c-2.66,.26-7.98,.78-8.33,.78-.03,0-.12-.04-.24-.11m12.12-21.42l-.2-.05,4.54,4.75-7.15,4.26-9.6,.26-7.28-2.75,1.68-6.32-2.84,1.02,2.22-3.63c-.11-.07-1.02-3.31-1.25-3.44,0,0-.02-.01-.04-.02l-4.31,4.37-8.06,1.82-7.27-3.09,.69,3.73,5.62,1.26,3.44,7.48-6.62,.94-10.15-2.76-.3-3.44-5.34,.95-5.62-2.47-5.1-4.53-.2,.05,.25,4.81,6.61,4.43,.05-.04,20.07,11.59,4.14-1.79c1.66,.19,4.91,.55,5.03,.62,0,0,0,0,0,0l4.05,4.62-4.92,1.61-7-1.14-1.54-2.81-18.15-10.04-.94,.55c-.59-.25-1.22-.52-1.67-.71l-25.9,16.97,20.29,11.72,26.11-13.31,1.24,.85,3.15,1.82,8.52,.65,1.53-6.88,9.23,6.23,7.17-.39,4.8-3.83-.02-5.07-5.76-6.17,6.72-1.04,3.57-2.85,.87-4.02-4.39-4.74" style="fill:url(#Contrast_Hatch_); stroke:#091833; stroke-miterlimit:10; stroke-width:.5px;"/><path d="M168.64,298.85l-2.77-1.6-24.13,15.81,6.97,4.02,21.39-12.43-1.34-1-9.9,4.53-1.24-1.05,11.02-8.29m29.15,5.15c-.12-.07-3.37-.43-5.03-.62l-4.14,1.79-20.07-11.59-.05,.04-1.97,1.7,1.21,.7-.1,.07s0,0,0,0c.45,.19,1.08,.46,1.67,.71l.94-.55,18.15,10.04,1.54,2.81,7,1.14,4.92-1.61-4.05-4.62s0,0,0,0m-6.28-15.83l-5.62-1.26-2.28-.51-3.57,1.12-2.29-5.87-9.19-.13c-2.31,.82-6.93,2.46-7.05,2.53l.31,.28,5.1,4.53,5.62,2.47,5.34-.95,.3,3.44,10.15,2.76,6.62-.94-3.44-7.48m26.15,10.23l-11.84-1.77-1.77,4.57c2.55,1.91,7.41,5.55,8.58,6.23,.12,.07,.21,.11,.24,.11,.35,0,5.68-.52,8.33-.78l2.24-2.13-5.78-6.23m-12.34-18.81l-5.84-2.6-8.3-.39c-1.22,.55-3.32,1.5-4.3,2.03-.36,.2-.57,.34-.51,.37,.09,.05-.18,.75-.52,1.56-.48,1.12-1.08,2.43-1.02,2.47l.37,.16,7.27,3.09,8.06-1.82,4.31-4.37,.48-.49m18.91,6.03l-9.43-2.54-7.96,2.75-.09,.33-1.68,6.32,7.28,2.75,9.6-.26,7.15-4.26-4.54-4.75-.33-.34" style="fill:none; stroke:#535253; stroke-linejoin:round; stroke-width:.5px;"/><path d="M451.64,34.91l-7.27-4.19-2.48,1.44,5.86,3.38c.44,.25,.45,.66,.01,.92l-4.62,2.69,2.83,1.64,5.68-3.3c1.22-.71,1.22-1.86-.01-2.57" style="fill:#091833;"/><path d="M444.81,41.46l-2.83-1.64-.23,.13c-1.27,.74-3.27,1.11-5,.11-1.49-.86-1.5-1.89-.23-2.66l-2.71-1.56c-2.92,1.72-2.7,3.97,.35,5.73,3.37,1.95,7.41,1.77,10.36,.06l.29-.17" style="fill:#091833;"/><path d="M459.98,42.92c-3.28-1.89-7.78-1.97-11.06-.45l2.84,1.64c1.83-.74,4.1-.67,5.72,.26s1.72,2.24,.46,3.31l2.84,1.64c2.62-1.91,2.45-4.52-.81-6.4" style="fill:#091833;"/><path d="M459.64,50.02l-2.82-1.63c-1.9,.88-4.34,.85-6.03-.13s-1.77-2.38-.23-3.49l-2.83-1.63c-2.89,1.92-2.81,4.64,.55,6.58s8.07,1.97,11.36,.3" style="fill:#091833;"/><path d="M474.65,46.28c-1-.58-2.35-.62-3.3-.07s-.9,1.35,.1,1.92,2.32,.63,3.32,.05,.88-1.33-.12-1.91" style="fill:#091833;"/><polyline points="465.33 53.31 462.56 51.71 457.43 54.69 460.2 56.29 465.33 53.31" style="fill:#091833;"/><polyline points="471.35 49.8 468.58 48.21 463.73 51.03 466.5 52.62 471.35 49.8" style="fill:#091833;"/><path d="M480.65,54.86c-1.6-.92-3.51-1.09-4.78-.87l-.15-.09,1.36-.79-2.64-1.53-4.85,2.82,2.77,1.6,.08-.05c1.4-.81,3.42-.87,4.76-.1s1.25,1.77-.11,2.56l-.27,.16,2.77,1.6,.99-.58c2.38-1.38,2.6-3.29,.08-4.74" style="fill:#091833;"/><polyline points="471.18 56.68 468.41 55.08 463.28 58.06 466.05 59.66 471.18 56.68" style="fill:#091833;"/><polyline points="478.41 60.86 475.64 59.26 470.51 62.24 473.28 63.84 478.41 60.86" style="fill:#091833;"/><path d="M493.19,58.86l-2.6-1.5-2.25,1.3c-.53,.31-1.17,.31-1.66,.03l-1.26-.73-2.18,1.27,1.9,1.1-2.65,1.54,2.77,1.6,2.65-1.54,3.1,1.79,2.21-1.28-3.1-1.79,3.07-1.78" style="fill:#091833;"/><path d="M484.1,64.14l-2.77-1.6-1.42,.83c-2.39,1.39-2.3,2.96,.03,4.31l2.07,1.19,2.29-1.33-1.49-.86c-1.07-.62-.95-1.23-.02-1.77l1.31-.76" style="fill:#091833;"/><polyline points="503.19 62.69 500.41 61.08 490.81 66.66 493.59 68.27 503.19 62.69" style="fill:#091833;"/><path d="M492.42,68.95l-2.78-1.6-1.99,1.16c-1.97,1.15-2.02,2.46-.06,3.6l1.04,.6,2.42-1.4-.45-.26c-.57-.33-.56-.71,.08-1.08l1.74-1.01" style="fill:#091833;"/><path d="M504.14,75.72l-2.76-1.6-2.45,.69-.17-.1,1.17-1.43-2.73-1.58-3.34,4.41-1.09,.28c-1.14,.29-2.14,.25-3.1-.3l-1.16-.67-2.46,1.43,1.39,.8c2.18,1.26,4.41,1.3,7,.6l9.7-2.55" style="fill:#091833;"/><polyline points="503.81 68.54 500.88 66.85 497.91 70.76 500.68 72.36 503.81 68.54" style="fill:#091833;"/><polyline points="512.38 73.49 509.41 71.78 502.89 73.63 505.69 75.25 512.38 73.49" style="fill:#091833;"/><polyline points="754.88 177.73 447.48 .25 .25 260.15 307.65 437.63 754.88 177.73" style="fill:none; stroke:#535253; stroke-linejoin:round; stroke-width:.5px;"/><path d="M72.58,274.71l38.3-25.08,4.39,2.53-17.48,13.15,1.98,1.66,15.7-7.18,2.13,1.57c-9.72,5.65-27.24,15.83-33.95,19.73l-11.05-6.38m85.22-6.49l-1.96,.86-38.03-21.04-1.49,.87c-.93-.38-1.94-.82-2.64-1.11l.16-.11-1.92-1.11,1.92,1.11-41.26,27.02,32.19,18.58,46.52-23.99,1.92,1.11,4.6-2.2m135.5-96.5s-.02-.01-.03-.02c-.95-.55-14.81,2.37-21.73,3.83,6.92-1.46,20.78-4.38,21.73-3.83,0,0,.02,.01,.03,.02m13.71-26.83s0,.03,.05,.1l.05,.03c-.06-.08-.09-.13-.1-.13m12-39.01l1.56,8.59-1.56-8.59m21.73-10.17l.03,.06,1.54,9.23-1.54-9.23-.03-.06m-20,75.6l-8.21-8.67,4.34,.36c1.95,3.71,3.6,6.9,4.32,8.35l-.45-.04m5.32-1.17c-1.45-1.9-3.23-4.21-5.1-6.66l6.79,2.05,1.35,.86-3.04,3.75m102.53-26.33c-5.15,.67-10.46,1.36-14.89,1.93-11.18,.59-30.56,1.59-36.7,1.45v-.02s-8.19-9.23-8.19-9.23l-3.69,4.9-26.43-33.89,.04,1.03,3.96,11.67c-1.11-.96-2.75-2.34-4.49-3.79,1.59,1.32,3.09,2.6,4.18,3.54l18.61,24.7-9.72-4.99-.46,2.5-16.11-16.85,15.23,21.57-2.11,11.3-21.49-13.94c3.07,4.06,8.75,11.54,10.29,13.96l-9.75-.35-13.51-6.43-6.43-.74,6.29,4.06c.23,.42,.46,.85,.68,1.27h-.45s2.93,1.7,2.93,1.7l-23.1,2.29,.63,.56-7.2,2.64,9.25-3.38,6.88,.58,9.9,8.61-3.2-.35c-5.54-1.34-13.48-3.24-21.13-5.05,4.11,.98,8.3,1.98,12.16,2.9l7.45,6.63c-5.09-.89-9.76-1.73-12.45-2.28,2.7,.55,7.41,1.4,12.52,2.3h-.04s4.07,1.18,4.07,1.18l-2.8-.03,4.03,3.58-18.78-3.16-5.63,3.13,18.25,1.55-26.67,8.63-39.84,19.31,36.1-12.19-13.71,9h-.02c-4.58,2.02-9.13,4-13.65,5.94l3.05,1.23c-47.65,21.14-90.32,37.36-111.82,45.55l5.33,2.52c45.65-17.34,83.85-34.17,117.93-50.34l-.1,.02,22.96-5.15,16.49-10.41-32.24,26.43,37.46-22.87-2.28,14.25-37.46,23.96,51.39-24.1-3.18-20.13,12.59,10,12.22,29.71-2.31-31.36-5.02-9.76,10.23,10.58,4.84,21.64-.36-23.14-15.94-17.12,44.58,23.01-38.68-25.88,43.36,15.48,12.16,19.58-5.31-21.64-40.99-16.57,68.89,18.76-62.54-22.19,58.71,14.25,13.07,12.73-6.45-14.93-41.7-15.88,36.93,8.21,18.5,10.68-15.45-13-30.78-7.13,64.38,10.13-61.31-14.11,36.59,3.6c-4.03-1.56-7.81-3.01-10.99-4.24l-25.87-6.17,10.52-.39-3.67-.95,22.17-.19-11.53-1.93-25.34-.91-2.65-2.99,11.3-1.5,32.26,5.4-35.97-6.03,22.92-2.05c4.92-.63,11.72-1.51,18.26-2.37m-57.55-41.45l-10.79,20.34,10.79-20.34m77.98,38.62h0s0,0,0,0m.02,0s0,0,0,0c0,0,0,0,0,0m-47.41-27.67l-23.75,22.71,23.75-22.71m-20.62-12.52l-17.69,28.92,17.69-28.92m11.21,1.58l-11.43,13.32-8.05,20.86,8.05-20.86,11.43-13.32" style="fill:url(#Contrast_Hatch_); stroke:#535253; stroke-miterlimit:10; stroke-width:.5px;"/><path d="M115.26,252.16l-4.39-2.53-38.3,25.08,11.05,6.38c6.71-3.9,24.23-14.08,33.95-19.73l-2.13-1.57-15.7,7.18-1.98-1.66,17.48-13.15m137.21-39.42l-3.05-1.23h0c-39.35,16.92-76.24,31.09-112.27,44.15l-18.97-11.21-3.18-.79-3.08,2.91,1.92,1.11-.16,.11c.7,.29,1.71,.73,2.64,1.11l1.49-.87,38.03,21.04,1.96-.86-12.43-7.18c.22-.07,.4-.15,.62-.22h-.01s-5.33-2.53-5.33-2.53c21.51-8.19,64.17-24.41,111.82-45.55m56.88-37.02l-23.21-.24-43.17,16.57,43.19-13.01,2.8,.24h0s5.63-3.13,5.63-3.13l18.78,3.16-4.03-3.58h0m7.05-16.58l-2.93-1.69h0s-5.78,.08-5.78,.08l-3.21-3.41c-15.71-2.42-47.1-7.26-45.9-6.57,1.03,.59,22.06,6.58,36.36,10.62l-11.89,5.58c-3.67-.87-7.11-1.7-9.99-2.37l-32.56,10.13,34.95-6.57,3.12,.91-17.02,7.99,19.69-7.2,8.13,2.4-17.82,6.5c6.92-1.46,20.78-4.38,21.73-3.83,0,0,.02,.01,.03,.02,.23,.11,1.05,.3,2.3,.55,2.69,.55,7.36,1.39,12.45,2.28l-7.45-6.63c-3.86-.92-8.05-1.92-12.16-2.9-.57-.14-1.14-.27-1.7-.4l7.2-2.64-.63-.56,23.1-2.29m22.8-7.62l-9.78-11.55,7.85,4.32,1.93,7.23m-9.17-40.2c-.13-.08-.18-.08-.12,.01,2.42,3.73,5.7,9.49,7.66,12.95l-3.31,2.63-15.25-21.03,1.56,8.59-20.6-3.86,20.32,7.18,13.1,19.32-10.29-5.12h-.43s-9.17-10.88-9.17-10.88l-41.81,9.18,38.29-5.48,5.37,6.94-19.79-.63,22.04,3.53,15.72,20.3-19.24-15.75c-11.13-1.69-33.36-5.07-32.88-4.8s19.41,5.57,28.87,8.21l14.77,13.03-17.71-10.62-.05-.03-.25-.15-37.83-2.85,31.52,5.96,6.46,4.17h0s6.43,.74,6.43,.74l13.51,6.43,9.75,.35c-1.53-2.42-7.22-9.9-10.29-13.96l21.49,13.94,2.11-11.3-15.23-21.57,16.11,16.85,.46-2.5,9.72,4.99-18.61-24.7c-1.09-.94-2.6-2.21-4.18-3.54-3.49-2.91-7.39-6.08-8.18-6.53m130.82,65.94l-28.43-11.78-31.59-8.16h0s-10.52,.39-10.52,.39l25.87,6.17c3.18,1.23,6.96,2.68,10.99,4.24,0,0,0,0,0,0l3.86,.38,29.83,8.76m-1.96-12.6l-35.52-10.4-32.26-5.4-11.3,1.5,2.65,2.99,25.34,.91,11.53,1.93h0s1.69-.01,1.69-.01l37.87,8.49m-66.67-62.29l-11.43,13.32-8.05,20.86-2.77-6.84,11.04-28.92-17.69,28.92,7.72-27.35-10.79,20.34c-1.96-6.56-6.81-21.84-7.3-22.12-.03-.02-.04,.02-.04,.11,.27,8.02,.27,19.32,.07,19.21,0,0,0,0,0,0-.3-.51-11.77-22.86-12.21-24.13l-.03-.06,.03,.06,1.54,9.23-6.68-4.21,3.12,9.2h0s-.04-1.04-.04-1.04l26.43,33.89,3.69-4.9,8.18,9.23v.02c6.15,.14,25.52-.86,36.71-1.45,4.43-.57,9.74-1.26,14.89-1.93,10.17-1.33,19.7-2.6,20.44-2.82h0s.02,0,.02,0c0,0,0,0,0,0,0,0,.01,0,.02,0,.02-.01,.02-.03,0-.04-.47-.27-9.22-.61-13.71-.78l-50.45,4.73-1.07-1.99c.16-.09,11.89-4.75,18.59-7.73,2.86-1.28,11.12-6.42,14.9-8.15l-34.68,13,33.93-20.81-35.13,17.94,20.2-23.83-23.75,22.71,7.78-17.18,6.56-16.48" style="fill:none; stroke:#535253; stroke-linejoin:round; stroke-width:.5px;"/></g></svg>