<?xml version="1.0" encoding="UTF-8"?><svg id="Layer_2" xmlns="http://www.w3.org/2000/svg" xmlns:xlink="http://www.w3.org/1999/xlink" viewBox="0 0 621.34 359.97"><defs><pattern id="Contrast_Hatch_" x="0" y="0" width="30" height="300" patternTransform="translate(-943.61 -619.76)" patternUnits="userSpaceOnUse" viewBox="0 0 30 300"><rect width="30" height="300" style="fill:none;"/><line x1="29.92" y1="0" x2="29.92" y2="300" style="fill:none; stroke:#535253; stroke-miterlimit:10;"/><line x1="23.92" y1="0" x2="23.92" y2="300" style="fill:none; stroke:#535253; stroke-miterlimit:10;"/><line x1="17.92" y1="0" x2="17.92" y2="300" style="fill:none; stroke:#535253; stroke-miterlimit:10;"/><line x1="11.92" y1="0" x2="11.92" y2="300" style="fill:none; stroke:#535253; stroke-miterlimit:10;"/><line x1="5.92" y1="0" x2="5.92" y2="300" style="fill:none; stroke:#535253; stroke-miterlimit:10;"/><line x1="-.08" y1="0" x2="-.08" y2="300" style="fill:none; stroke:#535253; stroke-miterlimit:10;"/></pattern></defs><g id="Skewed"><path d="m175.97,96.44c-.42,3.7-3.22,6.51-7.29,9.25-.42.28-.86.56-1.32.82.46-.26.9-.54,1.32-.82,4.06-2.74,6.87-5.55,7.29-9.25" style="fill:url(#Contrast_Hatch_); opacity:.4; stroke:#535253; stroke-miterlimit:10; stroke-width:.5px;"/><path d="m480.11,255.04l-12.86,9.81,12.86-9.81m-16.01-12.73l-22.18,15.43,46.15,22.29-46.15-22.29,22.18-15.43m43.85,19.98l-17.44,13.8,17.44-13.8" style="fill:url(#Contrast_Hatch_); opacity:.4; stroke:#535253; stroke-miterlimit:10; stroke-width:.5px;"/><polyline points="503.17 308.99 501.76 309.84 503.17 308.99" style="fill:url(#Contrast_Hatch_); opacity:.4; stroke:#535253; stroke-miterlimit:10; stroke-width:.5px;"/><polyline points="517.4 301.32 515.6 302.42 517.4 301.32" style="fill:url(#Contrast_Hatch_); opacity:.4; stroke:#535253; stroke-miterlimit:10; stroke-width:.5px;"/><path d="m63.66,185.17c.17-2.59.52-4.25,1.23-6.37,3.13-8.46,12.06-12.69,27.73-12.3,8.69.21,14.94,2.05,19.17,4.49,4.73,2.73,6.94,6.22,7.22,9.04l-.43,6.48-54.92-1.34m48.87-17.69c-4.82-2.79-11.42-4.91-21.07-5.14-21.11-.52-29.3,9.39-29.96,19.16l-.51,7.55,59.95,1.46.62-9.21c.25-3.84-1.66-8.53-5.63-11.55-1.03-.79-2.16-1.55-3.41-2.28" style="fill:url(#Contrast_Hatch_); opacity:.4; stroke:#535253; stroke-miterlimit:10; stroke-width:.5px;"/><polyline points="128.74 152.21 70.7 143.3 68.98 147.11 127.02 156.03 128.74 152.21" style="fill:url(#Contrast_Hatch_); opacity:.4; stroke:#535253; stroke-miterlimit:10; stroke-width:.5px;"/><path d="m136.45,123.31c-1.3-.75-2.79-1.39-4.42-1.84-7.53-2.07-13.64-.11-20.97,3.36-8.8,4.19-13.17,5.96-19.61,4.2-1.2-.33-2.21-.75-3.05-1.24-3.06-1.77-3.75-4.34-2.3-6.12,2.02-2.16,6.43-4.43,10.96-6.41l-3.6-2.32c-3.29,1.66-6.06,3.87-8,6.26-1.91,2.34-2.47,4.24-1.61,6.78.68,1.83,1.88,3.61,4.26,4.98,1.02.59,2.25,1.1,3.74,1.51,8.33,2.28,14.26.22,22.7-3.86,8.74-4.21,12.05-5.35,19.15-3.41.99.27,1.85.64,2.6,1.07,3.36,1.94,4.31,5.18,3.09,6.94-3.12,3.19-8.59,5.89-13.96,8.25l3.99,2.27c4.04-2.02,8.48-5.2,10.48-7.67,2.72-3.35,2.35-5.4,1.55-7.67-.62-1.7-2.43-3.61-5-5.09" style="fill:url(#Contrast_Hatch_); opacity:.4; stroke:#535253; stroke-miterlimit:10; stroke-width:.5px;"/><path d="m175.97,96.44c-.42,3.7-3.22,6.51-7.29,9.25-.42.28-.86.56-1.32.82-7.9,4.57-21.02,6.05-33.36-.1-.8-.4-1.54-.8-2.24-1.2-11.63-6.72-10.74-14.53-5.92-18.86,3.54-2.38,14.3-5.08,15.47-5.23l-2.62-2.71c-5.01,1.59-9.34,3.59-13.92,6.67-3.13,2.1-5.66,6.09-6.28,9.08-.89,4.75,1.88,10.44,9.67,14.94.63.36,1.29.72,1.98,1.06,13.85,6.9,31.09,5.18,41.04-1.52,5.36-3.62,8.06-7.21,8.09-10.01,0,0,0,0,0,0-.15-.08-3.05-2-3.29-2.19" style="fill:url(#Contrast_Hatch_); opacity:.4; stroke:#535253; stroke-miterlimit:10; stroke-width:.5px;"/><path d="m185.88,83.97c-2.18-1.26-4.25-2.8-6.15-4.65-9.89-9.61-6.09-16.85,1.96-19.78,9.6-3.22,20.44-2.83,29.39,2.33,2.21,1.28,4.31,2.85,6.24,4.72,9.89,9.61,6.36,16.76-1.69,19.69-9.69,3.25-20.73,2.9-29.76-2.32m32.27-24.08c-9.81-5.66-24.4-6.06-35.52-2.24-5.15,1.77-9.15,4.66-11.08,7.21-3.53,4.61-3.98,11.14,2.62,17.55,1.41,1.37,3.03,2.57,4.8,3.59,9.81,5.67,24.41,6.07,35.52,2.24,5.08-1.75,9.09-4.64,11.02-7.19,3.53-4.62,4.05-11.16-2.56-17.58-1.41-1.37-3.03-2.57-4.8-3.59" style="fill:url(#Contrast_Hatch_); opacity:.4; stroke:#535253; stroke-miterlimit:10; stroke-width:.5px;"/><polyline points="278.32 38.24 273.49 38.89 268.06 70.36 267.74 70.4 237.5 43.7 230.49 44.64 266.43 75.67 269.69 75.23 278.32 38.24" style="fill:url(#Contrast_Hatch_); opacity:.4; stroke:#535253; stroke-miterlimit:10; stroke-width:.5px;"/><polyline points="338.3 38.3 303.6 37.51 301.45 72.24 337.26 73.06 337.9 70.56 308.32 70.96 309.33 54.85 330.09 55.73 330.72 53.38 309.42 53.46 310.31 39.1 337.66 40.84 338.3 38.3" style="fill:url(#Contrast_Hatch_); opacity:.4; stroke:#535253; stroke-miterlimit:10; stroke-width:.5px;"/><path d="m388.55,46.64c-2.67-1.54-6.51-2.74-11.11-3.55l-10.88-1.92-17.26,33.25,6.52,1.15,16.56-31.92c2.07.36,4.77.98,6.18,1.47,1.7.55,3.05,1.13,4.09,1.74,3.84,2.22,3.68,4.71,2.57,6.84-1.91,3.68-8.03,5.8-13.9,6.8l-2.56.42,11.48,18.95,7.74,1.36-12.25-19.71c6.46-.85,14.08-2.8,16.24-6.97,1.64-3.15.17-5.83-3.42-7.9" style="fill:url(#Contrast_Hatch_); opacity:.4; stroke:#535253; stroke-miterlimit:10; stroke-width:.5px;"/><polyline points="460.93 66.25 456.83 64.8 427.13 74.76 426.86 74.66 428.37 54.67 421.96 52.38 421.03 74.75 407.18 87.85 412.98 89.92 427.17 76.5 460.93 66.25" style="fill:url(#Contrast_Hatch_); opacity:.4; stroke:#535253; stroke-miterlimit:10; stroke-width:.5px;"/><path d="m229.1,313.62l15.34-30.54c4.31.73,7,1.33,10.37,2.25,3.64,1.04,6.65,2.24,9.03,3.61,6.4,3.69,8.17,8.64,4.98,14.99-5.14,10.22-19.89,12.54-28.97,11.52l-10.75-1.83m40.61-24.85c-4.89-2.82-11.6-4.81-18.61-6l-12.52-2.13-16.75,33.34,15.29,2.6c6.37,1.08,14.68,1.15,20.68-.34,7.62-1.88,14.87-5.19,18.26-11.94,3.35-6.66.07-11.81-6.35-15.52" style="fill:url(#Contrast_Hatch_); opacity:.4; stroke:#535253; stroke-miterlimit:10; stroke-width:.5px;"/><polyline points="328.16 288.72 293.44 288.48 292.92 323.23 328.76 323.48 329.28 320.98 299.75 321.84 299.99 305.72 320.78 306.28 321.29 303.92 300 304.33 300.21 289.96 327.64 291.26 328.16 288.72" style="fill:url(#Contrast_Hatch_); opacity:.4; stroke:#535253; stroke-miterlimit:10; stroke-width:.5px;"/><polyline points="345.71 286.9 339.02 287.83 353.19 321.63 388.17 316.77 387.52 314.24 359.29 319.3 345.71 286.9" style="fill:url(#Contrast_Hatch_); opacity:.4; stroke:#535253; stroke-miterlimit:10; stroke-width:.5px;"/><polyline points="389.25 278.64 383.05 280.24 407.67 311.99 413.87 310.38 389.25 278.64" style="fill:url(#Contrast_Hatch_); opacity:.4; stroke:#535253; stroke-miterlimit:10; stroke-width:.5px;"/><polyline points="437.64 260.86 433.59 262.52 449.08 292.88 448.82 292.99 403.45 274.85 397.58 277.26 451.03 298.17 453.78 297.05 437.64 260.86" style="fill:url(#Contrast_Hatch_); opacity:.4; stroke:#535253; stroke-miterlimit:10; stroke-width:.5px;"/><polyline points="507.95 262.29 490.51 276.09 469.09 265.74 482.94 256.77 480.11 255.04 467.25 264.86 448.17 255.64 467.18 244.16 464.1 242.31 441.92 257.74 488.07 280.03 510.97 264.11 507.95 262.29" style="fill:url(#Contrast_Hatch_); opacity:.4; stroke:#535253; stroke-miterlimit:10; stroke-width:.5px;"/><path d="m541.28,230.75l-35.45,4.03c-.4-3.02-1.87-6.56-5.82-8.84-1.05-.61-2.28-1.13-3.71-1.52-8.97-2.46-16.86.69-21.68,6.59l-4.85,5.95,54.27,14.93,2.9-3.56-52.1-14.33c.92-1.13,2.37-2.57,3.41-3.31,5.53-4.17,11.19-3.73,15.61-2.52,1.49.41,2.78.95,3.89,1.59,3.36,1.94,5.06,4.76,5.7,7.4l.35,1.53,34.03-3.7,3.44-4.23" style="fill:url(#Contrast_Hatch_); opacity:.4; stroke:#535253; stroke-miterlimit:10; stroke-width:.5px;"/><polyline points="550.95 207.33 524.24 204.31 495.72 189.57 494.81 192.29 521.42 204.93 521.37 205.11 488.51 211.26 487.09 215.53 523.59 208.25 549.67 211.2 550.95 207.33" style="fill:url(#Contrast_Hatch_); opacity:.4; stroke:#535253; stroke-miterlimit:10; stroke-width:.5px;"/><path d="m140.21,229.45l-38.55-20.58-11.4,29.57,11.3-2.03c4.79,5.1,10.11,9.99,15.95,14.62,7.06,5.68,14.98,10.95,23.41,15.84.1.06.21.12.31.18,8.34,4.81,17.37,9.15,26.78,13.08,9.55,3.96,19.62,7.41,29.96,10.39l1.7-1.59c-7.3-3.27-14.22-6.76-20.66-10.48-1.52-.88-3.02-1.77-4.49-2.68-7.65-4.75-14.68-9.76-20.81-15.08-6.14-5.32-11.58-10.83-16.1-16.56-3.33-4.14-6.19-8.38-8.62-12.67l11.23-2.02Z" style="fill:#fe9b8c; opacity:.7;"/><path d="m479.47,104.1c-6.82-3.94-14.08-7.58-21.61-10.94l-2.19,1.36c7.52,4.97,14.36,10.2,20.33,15.7,5.94,5.51,11.19,11.21,15.44,17.11,4.26,5.89,7.78,11.91,10.32,18.03,1.9,4.44,3.31,8.91,4.27,13.38l-11.7.73,31.03,24.48,21-27.74-11.77.74c-3.02-5.54-6.62-10.93-10.82-16.12-5.06-6.36-11.09-12.41-17.74-18.14-6.64-5.73-14.17-11.06-22.2-16.02-1.43-.88-2.88-1.74-4.35-2.59" style="fill:#fe9b8c; opacity:.7;"/><path d="m65.64,83.55c-.12-.07-.25-.13-.39-.19-1.24-.49-2.99-.29-3.85.44-.74.63-.56,1.51.36,2.04.11.07.24.13.38.18,1.24.49,3.04.29,3.86-.41.76-.65.56-1.53-.36-2.06" style="fill:url(#Contrast_Hatch_); opacity:.4; stroke:#535253; stroke-miterlimit:10; stroke-width:.5px;"/><polyline points="116.16 52.27 115.35 52.7 116.65 55.6 111.79 58.18 100.44 51.01 102.17 49.48 101.51 49.07 95.25 52.4 95.89 52.81 98.32 52.16 109.47 59.2 108.06 60.49 108.73 60.91 119.41 55.24 116.16 52.27" style="fill:url(#Contrast_Hatch_); opacity:.4; stroke:#535253; stroke-miterlimit:10; stroke-width:.5px;"/><polyline points="117.12 41.36 110.92 44.29 111.54 44.72 114 44.13 124.46 51.54 122.93 52.79 123.56 53.23 129.75 50.3 129.14 49.87 126.71 50.48 116.24 43.07 117.73 41.79 117.12 41.36" style="fill:url(#Contrast_Hatch_); opacity:.4; stroke:#535253; stroke-miterlimit:10; stroke-width:.5px;"/><path d="m131.41,35.59c-1.09.06-2.96.37-4.47,1.02-3.31,1.4-4.19,3.59-2.26,5.1.19.15.38.28.58.4,1.43.83,3.3.95,5.76.62l3.23-.44c1.94-.27,3.23-.02,4.14.5.16.09.3.19.44.3,1.36,1.07.83,2.33-1.03,3.11-1.42.6-2.7.65-3.51.63l-3.89-1.45-.91.39,3.46,2.35c1.69-.05,3.9-.53,5.47-1.2,2.7-1.15,4.31-3.6,2.09-5.36-.19-.15-.39-.29-.61-.41-1.27-.73-3.01-1-5.7-.66l-3.83.46c-1.49.18-2.69.12-3.66-.44-.14-.08-.29-.18-.42-.29-1.04-.81-.79-2.09,1.1-2.89,1.23-.52,2.41-.51,2.63-.51l3.67,1.37.83-.35-3.08-2.26" style="fill:url(#Contrast_Hatch_); opacity:.4; stroke:#535253; stroke-miterlimit:10; stroke-width:.5px;"/><polyline points="150.97 27.57 149.41 28.31 138.45 32.34 136.6 32.85 139.3 35.59 140.21 35.26 139.51 32.88 143.43 31.44 152.51 39.7 150.48 40.92 151.01 41.41 158.25 38.75 157.71 38.26 154.96 38.8 145.88 30.54 149.8 29.1 153.23 30.47 154.15 30.13 150.97 27.57" style="fill:url(#Contrast_Hatch_); opacity:.4; stroke:#535253; stroke-miterlimit:10; stroke-width:.5px;"/><polyline points="169.5 21.76 167.26 22.53 156.41 25.9 156.87 26.39 159.49 26.11 167.32 34.52 165.41 35.57 165.88 36.08 179.12 31.96 177.42 28.95 176.44 29.26 176.18 31.94 170.01 33.86 166.1 29.67 169.54 28.6 171.31 29.55 172.23 29.26 169.32 26.14 168.47 26.4 168.88 27.9 165.45 28.96 161.86 25.1 167.83 23.25 171.07 24.76 172.02 24.47 169.5 21.76" style="fill:url(#Contrast_Hatch_); opacity:.4; stroke:#535253; stroke-miterlimit:10; stroke-width:.5px;"/><polyline points="195.38 15 188.61 16.71 189 17.24 192.41 17.12 197.38 23.64 180.73 18.71 176.34 19.83 176.73 20.34 179.77 20.25 186.31 28.85 184.25 29.81 184.65 30.33 191.44 28.61 191.03 28.08 187.65 28.24 182.16 21.03 200.65 26.48 201.29 26.32 199.68 24.3 193.75 16.51 195.78 15.52 195.38 15" style="fill:url(#Contrast_Hatch_); opacity:.4; stroke:#535253; stroke-miterlimit:10; stroke-width:.5px;"/><path d="m260.95,10.6c-.62-.36-1.54-.55-2.46-.46-1.45.15-2.5.99-2.24,1.85.1.33.39.62.78.85.63.36,1.54.56,2.43.47,1.51-.15,2.52-1.01,2.26-1.87-.1-.33-.38-.62-.76-.84" style="fill:url(#Contrast_Hatch_); opacity:.4; stroke:#535253; stroke-miterlimit:10; stroke-width:.5px;"/><path d="m335.11,4.02c-1.4-.81-3.91-1.34-7.52-1.44l-6.56-.19-.05.55,2.5.54-.93,9.54-2.58.31-.05.58,9.25.31.05-.57-3.76-.53.96-9.97c2.74.09,4.58.54,5.66,1.17.92.53,1.3,1.18,1.23,1.85-.16,1.67-2.53,2.49-6.04,2.53l-.05.57c3.97.29,8.95-.67,9.2-3.27.07-.76-.37-1.43-1.31-1.98" style="fill:url(#Contrast_Hatch_); opacity:.4; stroke:#535253; stroke-miterlimit:10; stroke-width:.5px;"/><path d="m346.41,9.17l1.11-4.98c2.31.14,4.04.53,5.08,1.14.89.51,1.28,1.17,1.1,1.95-.3,1.34-2.37,2.11-4.82,2.08l-2.48-.19m9.27-4.02c-1.24-.71-3.42-1.23-6.6-1.45l-6.86-.48-.12.55,2.43.65-2.1,9.48-2.62.2-.12.57,7.95.61.12-.55-2.44-.61.94-4.21,2.58.11s.31.36.94,1.09l4.26,4.66,4.83.37.12-.57-2.5-.6-4.75-5.18c2.75-.3,4.81-1.1,5.15-2.62.17-.77-.22-1.45-1.19-2.02" style="fill:url(#Contrast_Hatch_); opacity:.4; stroke:#535253; stroke-miterlimit:10; stroke-width:.5px;"/><path d="m368.8,16.46c-2.32-1.34-2.82-3.72-2.11-5.63.83-2.24,3.74-4.65,8.46-4.06,1.14.14,2.12.47,2.92.93,2.13,1.23,3,3.41,2.22,5.52-.84,2.28-3.87,4.76-8.45,4.18-1.25-.16-2.26-.49-3.05-.95m12.24-8.76c-1.28-.74-3.05-1.31-5.39-1.6-5.66-.71-10.77,1.1-12.18,4.92-.81,2.19.21,4.14,2.5,5.46,1.36.78,3.16,1.35,5.3,1.62,5.69.72,10.81-1.08,12.22-4.9.7-1.92.09-4.03-2.44-5.49" style="fill:url(#Contrast_Hatch_); opacity:.4; stroke:#535253; stroke-miterlimit:10; stroke-width:.5px;"/><polyline points="407.79 11.26 405.79 11.06 393.35 8.89 391.45 8.41 389.64 11.38 390.68 11.56 393.33 9.7 397.79 10.48 392.96 19.85 390.03 19.75 389.75 20.3 397.97 21.74 398.25 21.19 395.75 20.33 400.58 10.97 405.03 11.74 405.49 14.15 406.53 14.33 407.79 11.26" style="fill:url(#Contrast_Hatch_); opacity:.4; stroke:#535253; stroke-miterlimit:10; stroke-width:.5px;"/><path d="m414.19,24.42c-2.58-1.49-2.51-4.18-1.18-6.18,1.43-2.13,4.97-4.24,9.48-3.23.76.17,1.42.43,1.97.75,2.34,1.35,2.84,3.86,1.34,6.1-1.45,2.17-5.12,4.34-9.49,3.35-.85-.19-1.55-.46-2.12-.79m12.92-8.59c-1-.58-2.3-1.07-3.95-1.44-5.4-1.22-10.95.1-13.38,3.74-1.62,2.42-.72,4.73,1.98,6.29,1.02.59,2.3,1.07,3.79,1.41,5.43,1.22,10.97-.07,13.41-3.72,1.38-2.07,1.16-4.54-1.85-6.28" style="fill:url(#Contrast_Hatch_); opacity:.4; stroke:#535253; stroke-miterlimit:10; stroke-width:.5px;"/><polyline points="453.5 22.43 451.59 22.05 439.87 18.77 438.14 18.12 435.54 20.89 436.52 21.16 439.64 19.56 443.83 20.74 436.51 29.55 433.65 29.19 433.22 29.7 440.96 31.87 441.39 31.35 439.15 30.28 446.45 21.48 450.65 22.65 450.45 25.06 451.41 25.33 453.5 22.43" style="fill:url(#Contrast_Hatch_); opacity:.4; stroke:#535253; stroke-miterlimit:10; stroke-width:.5px;"/><polyline points="474.57 29.5 468.93 27.6 468.42 28.11 470.36 29.43 462.11 32.21 462 32.18 462.26 26.52 464.6 26.79 465.08 26.31 458.56 24.12 458.08 24.6 459.35 25.55 459.29 32.43 456.21 35.52 453.39 35.04 452.9 35.54 460.33 38.03 460.83 37.54 458.73 36.37 462.08 33 471.93 29.85 474.09 29.97 474.57 29.5" style="fill:url(#Contrast_Hatch_); opacity:.4; stroke:#535253; stroke-miterlimit:10; stroke-width:.5px;"/><path d="m487.25,34.55c-.77-.45-1.73-.89-2.87-1.33l-5.48-2.1-.53.46,1.67,1.2-9.23,7.91-2.5-.5-.55.48,7.68,3.02.56-.47-2.77-1.57,9.64-8.26c.77.3,1.42.61,1.95.92,2.36,1.36,2.47,2.73,1.32,3.72-1.61,1.38-4.38,1.38-7.44.37l-.55.48c3.16,1.43,8.3,2.08,10.82-.07,1.4-1.2.91-2.7-1.71-4.22" style="fill:url(#Contrast_Hatch_); opacity:.4; stroke:#535253; stroke-miterlimit:10; stroke-width:.5px;"/><polyline points="508.23 43.42 506.09 42.54 496.38 38.12 495.79 38.56 497.3 39.84 487.16 47.34 484.72 46.74 484.11 47.19 495.97 52.59 500.03 50.48 499.16 50.09 494.81 51.02 489.28 48.5 494.35 44.76 497.42 46.16 496.63 47.48 497.45 47.86 501.22 45.07 500.47 44.73 498.26 45.53 495.2 44.14 499.85 40.7 505.19 43.12 504.1 45.45 504.96 45.84 508.23 43.42" style="fill:url(#Contrast_Hatch_); opacity:.4; stroke:#535253; stroke-miterlimit:10; stroke-width:.5px;"/><polyline points="544.31 71.44 543.1 71.98 557.58 83.09 558.81 82.55 544.31 71.44" style="fill:url(#Contrast_Hatch_); opacity:.4; stroke:#535253; stroke-miterlimit:10; stroke-width:.5px;"/><path d="m573.14,113.49l-.05-.07c.32-.05.74-.1,1.18-.22,1.2-.32,2.01-.95,3.87-2.43l1.89-1.52c1.34-1.08,2.6-2.03,4.29-2.48,1.42-.38,2.76-.35,3.95-.14l.06.08c-.32.05-.74.1-1.18.22-1.21.31-2.05.95-3.87,2.43l-1.89,1.52c-1.37,1.09-2.62,2.01-4.31,2.45-1.41.38-2.74.36-3.94.15m19.77-5.75c-2.4-1.38-7.17-2.79-10.63-1.86-1.5.4-2.82,1.35-4.06,2.4l-2.24,1.9c-1.32,1.12-2.5,2.24-3.84,2.6-.43.12-.7.11-.92.11-.27-.12-.52-.24-.75-.38-.43-.25-.78-.51-1.02-.76l.12-1.47c-.08-.09-.17-.17-.28-.24-.39-.22-.95-.26-1.44-.13-.76.2-1.2.76-.62,1.49.27.33.74.7,1.36,1.05,2.42,1.39,7.07,2.71,10.49,1.8,1.47-.39,2.86-1.34,4.12-2.4l2.24-1.9c1.3-1.1,2.35-2.22,3.66-2.57.51-.14.81-.14,1.09-.16.23.1.45.22.65.33.47.27.85.56,1.13.83l-.13,1.49c.07.09.17.17.28.23.39.23.98.28,1.48.15.79-.21,1.19-.79.6-1.52-.25-.31-.69-.65-1.29-.99" style="fill:url(#Contrast_Hatch_); opacity:.4; stroke:#535253; stroke-miterlimit:10; stroke-width:.5px;"/><polyline points="603.04 137.88 601.56 138.08 606.81 151.65 608.31 151.46 603.04 137.88" style="fill:url(#Contrast_Hatch_); opacity:.4; stroke:#535253; stroke-miterlimit:10; stroke-width:.5px;"/><polyline points="110.92 311.78 93.67 302.08 92.61 302.71 109.86 312.41 110.92 311.78" style="fill:url(#Contrast_Hatch_); opacity:.4; stroke:#535253; stroke-miterlimit:10; stroke-width:.5px;"/><path d="m57.17,281.5l-.08-.07c.31-.07.71-.17,1.11-.32,1.11-.41,1.78-1.12,3.19-2.75l1.47-1.67c1.07-1.21,2.07-2.22,3.62-2.81,1.3-.5,2.61-.61,3.85-.5l.06.06c-.31.08-.71.17-1.11.32-1.1.42-1.74,1.12-3.18,2.74l-1.47,1.67c-1.04,1.19-2.04,2.24-3.59,2.83-1.3.5-2.63.59-3.87.48m18.9-7.02c-2.37-1.37-8.25-2.7-11.82-1.33-1.35.52-2.48,1.57-3.44,2.74l-1.72,2.08c-1,1.19-1.75,2.4-2.94,2.86-.48.18-.77.21-1.04.25-.64-.2-1.19-.46-1.64-.72-.15-.09-.29-.18-.42-.26l-.27-1.49c-.05-.05-.11-.09-.18-.12-.46-.26-1.15-.29-1.65-.09-.72.28-.96.89-.19,1.56.15.13.35.27.59.4,2.3,1.33,8.34,2.75,11.94,1.37,1.37-.52,2.43-1.58,3.38-2.73l1.72-2.08c1.01-1.22,1.88-2.43,3.11-2.9.39-.15.67-.17.89-.2.61.19,1.17.44,1.61.69.16.09.31.19.43.28l.28,1.46c.06.05.12.1.19.14.45.26,1.1.27,1.59.08.7-.27.99-.86.23-1.53-.17-.15-.38-.3-.64-.44" style="fill:url(#Contrast_Hatch_); opacity:.4; stroke:#535253; stroke-miterlimit:10; stroke-width:.5px;"/><polyline points="27.09 238.61 25.66 238.94 34.4 251.9 35.83 251.57 27.09 238.61" style="fill:url(#Contrast_Hatch_); opacity:.4; stroke:#535253; stroke-miterlimit:10; stroke-width:.5px;"/><polyline points="20.66 191.66 19.71 191.72 19.25 193.22 2.84 194.22 1.81 192.8 .85 192.85 1.49 196.47 2.94 196.45 16.85 198.87 2.74 203.52 3.35 206.96 4.3 206.91 4.82 205.41 21.25 204.52 22.22 205.95 23.18 205.89 22.42 201.57 21.43 201.63 20.66 203.59 5.65 204.46 19.48 199.8 21 199.38 20.89 198.76 19.25 198.54 3.72 195.76 19.55 194.9 20.5 196.4 21.49 196.35 20.66 191.66" style="fill:url(#Contrast_Hatch_); opacity:.4; stroke:#535253; stroke-miterlimit:10; stroke-width:.5px;"/><polyline points="20.32 180.18 14.94 179.67 14.95 180.31 18.96 181.69 19.06 185.75 10.84 185.81 10.78 183.55 13.05 183.08 13.03 182.48 6.91 182.52 6.93 183.08 9.4 183.56 9.46 185.82 1.91 185.88 1.79 181.95 5.61 180.98 5.59 180.36 .28 180.4 .44 181.91 .64 189.05 1.6 189.04 2.37 187.56 18.84 187.44 19.57 188.91 20.56 188.9 20.32 180.18" style="fill:url(#Contrast_Hatch_); opacity:.4; stroke:#535253; stroke-miterlimit:10; stroke-width:.5px;"/><path d="m3.68,171.47v-.02s8.65-1.41,8.65-1.41l-.36,3.48-8.3-2.06m17.82-5.52l-.99-.03-.79,1.15-19.24,3.31.24.62.09.6,17.95,4.88.58,1.03.95.04.41-3.97-.99-.03-1.22,1.63-4.78-1.18.43-4.23,5.34-.87.54,1.5.99.04.46-4.46" style="fill:url(#Contrast_Hatch_); opacity:.4; stroke:#535253; stroke-miterlimit:10; stroke-width:.5px;"/><path d="m21.21,156.8c-.83-.48-1.89-.82-3.15-.92-2.2-.17-4,.31-5.69,1.89l-2.06,1.92c-.92.86-1.97,1.33-3.72,1.2-.68-.05-1.31-.24-1.8-.52-.76-.44-1.21-1.12-1.03-1.94.19-.88,1.03-1.36,1.17-1.46l4.25-.58.13-.59-4.93-.27c-.69.49-1.58,1.49-1.82,2.57-.34,1.51.4,2.82,1.82,3.63.8.46,1.82.77,2.98.86,2.5.2,4.18-.52,5.65-1.95l1.67-1.66c1.17-1.17,2.63-1.48,4.15-1.36.89.07,1.61.28,2.15.59.83.48,1.21,1.2,1.03,2-.24,1.02-1.05,1.58-1.64,1.91l-4.5.62-.14.65,5.31.18c1.1-.74,2.02-1.99,2.27-3.12.28-1.27-.47-2.74-2.09-3.67" style="fill:url(#Contrast_Hatch_); opacity:.4; stroke:#535253; stroke-miterlimit:10; stroke-width:.5px;"/><path d="m24.99,144.04c-1.09-.63-2.6-1.12-4.58-1.37l-10.34-1.25-.26-1.54-.94-.11-1.58,4.47.95.11,1.72-1.85,9.51,1.09c2.2.25,3.79.65,4.79,1.23,1.22.7,1.57,1.67,1.13,2.94-.86,2.4-4.32,2.66-8.31,2.17l-9.62-1.16-.25-1.54-.94-.11-1.62,4.6.94.11,1.27-1.35,10.35,1.24c4.76.58,8.5.05,9.8-3.61.51-1.43-.08-2.98-2.01-4.09" style="fill:url(#Contrast_Hatch_); opacity:.4; stroke:#535253; stroke-miterlimit:10; stroke-width:.5px;"/><path d="m12.69,133.82c1.07-2.4,3.36-3.54,6.19-3.06.67.11,1.23.31,1.68.57,1.04.6,1.45,1.54,1.16,2.52l-.7,1.38-8.33-1.41m22.07-4.62l-.96-.16-1.39,1.34-9.55,1.91c-.06-1.09-.57-2.04-1.66-2.67-.53-.31-1.21-.54-2.03-.68-2.92-.49-5.55.73-7.09,3.92l-1.83,3.85.92.16,1.46-1.29,15.85,2.68-.05,1.53.96.16,2.23-4.45-.92-.16-1.4,1.3-7.04-1.19.58-1.46s.65-.12,2-.37l8.58-1.71,1.35-2.7" style="fill:url(#Contrast_Hatch_); opacity:.4; stroke:#535253; stroke-miterlimit:10; stroke-width:.5px;"/><polyline points="40.93 119.58 36.23 117.97 35.84 118.57 38.7 120.69 36.26 124.5 28.56 122.83 29.92 120.72 32.32 120.75 32.69 120.19 26.95 118.94 26.61 119.46 28.62 120.44 27.27 122.55 20.17 121.02 22.53 117.34 26.7 117.24 27.07 116.65 22.09 115.57 21.29 117.02 17.01 123.7 17.91 123.9 19.56 122.68 35.01 126.02 34.76 127.55 35.7 127.75 40.93 119.58" style="fill:url(#Contrast_Hatch_); opacity:.4; stroke:#535253; stroke-miterlimit:10; stroke-width:.5px;"/><path d="m156.94,331.32l4.37-4.34c1.06.34,1.93.7,2.59,1.09,1.7.98,2.1,2.09,1.04,3.15-1.18,1.16-3.61,1.4-5.85.83l-2.15-.73m9.62-2.96c-.86-.5-2.02-.99-3.48-1.48l-6.01-1.98-.48.48,1.81,1.14-8.31,8.24-2.55-.4-.49.49,6.92,2.35.49-.48-1.85-1.11,3.69-3.65,2.31.68s.05.4.13,1.21l.81,5.24,4.2,1.43.49-.49-1.9-1.11-.9-5.84c2.75.35,5.19.07,6.52-1.25,1.08-1.07.7-2.27-1.37-3.47" style="fill:url(#Contrast_Hatch_); opacity:.4; stroke:#535253; stroke-miterlimit:10; stroke-width:.5px;"/><polyline points="189.53 334.97 187.14 334.37 176.06 331.21 175.63 331.71 177.58 332.79 170.34 341.35 167.74 341.05 167.31 341.57 180.85 345.42 184.07 342.88 183.07 342.59 179.15 344.03 172.84 342.23 176.45 337.96 179.95 338.96 179.65 340.34 180.6 340.61 183.28 337.43 182.42 337.19 180.56 338.24 177.05 337.24 180.37 333.31 186.47 335.05 186.24 337.46 187.2 337.73 189.53 334.97" style="fill:url(#Contrast_Hatch_); opacity:.4; stroke:#535253; stroke-miterlimit:10; stroke-width:.5px;"/><polyline points="208.75 339.66 206.26 339.15 194.86 336.45 194.51 336.96 196.56 337.96 190.37 346.79 187.75 346.6 187.37 347.12 195.26 349 195.69 348.4 193.06 347.43 196.03 343.19 199.67 344.06 199.49 345.44 200.48 345.67 202.79 342.4 201.89 342.18 200.19 343.32 196.55 342.46 199.42 338.37 205.67 339.85 205.76 342.28 206.75 342.51 208.75 339.66" style="fill:url(#Contrast_Hatch_); opacity:.4; stroke:#535253; stroke-miterlimit:10; stroke-width:.5px;"/><polyline points="220.44 342.09 212.86 340.57 212.55 341.1 214.7 342.01 209.34 351.04 206.71 350.93 206.39 351.47 213.96 353 214.27 352.47 212.09 351.59 217.46 342.56 220.12 342.62 220.44 342.09" style="fill:url(#Contrast_Hatch_); opacity:.4; stroke:#535253; stroke-miterlimit:10; stroke-width:.5px;"/><polyline points="244.81 346.2 237.66 345.05 237.4 345.61 240.19 346.76 236.95 353.63 229.36 343.72 224.73 342.98 224.47 343.52 226.94 344.56 222.67 353.61 220.02 353.6 219.76 354.15 226.91 355.3 227.17 354.74 224.37 353.63 227.95 346.04 236.41 357.02 237.07 357.12 238.02 354.97 241.89 346.78 244.55 346.75 244.81 346.2" style="fill:url(#Contrast_Hatch_); opacity:.4; stroke:#535253; stroke-miterlimit:10; stroke-width:.5px;"/><polyline points="263.75 348.29 261.16 348.07 249.04 346.71 248.86 347.26 251.21 348 248.14 357.37 245.5 357.48 245.31 358.04 260.11 359.7 262.06 356.75 260.97 356.63 257.84 358.61 250.95 357.84 252.48 353.16 256.31 353.59 256.65 354.98 257.68 355.1 258.83 351.61 257.88 351.51 256.57 352.81 252.73 352.38 254.15 348.08 260.82 348.83 261.69 351.19 262.75 351.31 263.75 348.29" style="fill:url(#Contrast_Hatch_); opacity:.4; stroke:#535253; stroke-miterlimit:10; stroke-width:.5px;"/><path d="m327.3,356.21c-.54-.31-1.29-.5-2.1-.48-1.47.04-2.7.8-2.63,1.67.04.41.36.78.84,1.06.54.31,1.28.5,2.05.48,1.53-.04,2.73-.81,2.66-1.68-.04-.41-.34-.78-.82-1.05" style="fill:url(#Contrast_Hatch_); opacity:.4; stroke:#535253; stroke-miterlimit:10; stroke-width:.5px;"/><polyline points="401.71 342.57 394.83 343.72 395.11 344.28 398.51 344.32 397.41 352.94 397.35 352.94 388.18 345.88 390.41 345.04 390.13 344.5 382.79 345.73 383.07 346.26 385.13 346.39 397.34 355.53 398.55 355.33 400.33 343.92 401.98 343.1 401.71 342.57" style="fill:url(#Contrast_Hatch_); opacity:.4; stroke:#535253; stroke-miterlimit:10; stroke-width:.5px;"/><path d="m411.59,347.39l-.09-5.22h.03s5.71,4.03,5.71,4.03l-5.66,1.19m.35-7.35l-.88.37-.91.28-.48,11.46-1.4.72.33.52,6.45-1.36-.34-.53h-3.06s-.06-3.01-.06-3.01l6.87-1.45,3.53,2.49-2.15.88.35.54,7.23-1.53-.35-.54-2.14.04-12.99-8.9" style="fill:url(#Contrast_Hatch_); opacity:.4; stroke:#535253; stroke-miterlimit:10; stroke-width:.5px;"/><polyline points="443.66 341.47 442.65 341.73 442.31 344.72 436.29 346.29 429.4 337.42 431.86 336.28 431.46 335.77 423.7 337.79 424.1 338.3 426.75 338.12 433.53 346.83 431.49 347.8 431.9 348.32 445.13 344.88 443.66 341.47" style="fill:url(#Contrast_Hatch_); opacity:.4; stroke:#535253; stroke-miterlimit:10; stroke-width:.5px;"/><polyline points="448.75 330.85 441.64 332.98 442.08 333.48 444.71 333.2 452.32 341.69 450.38 342.72 450.84 343.23 457.94 341.1 457.5 340.61 454.9 340.91 447.29 332.42 449.19 331.35 448.75 330.85" style="fill:url(#Contrast_Hatch_); opacity:.4; stroke:#535253; stroke-miterlimit:10; stroke-width:.5px;"/><path d="m466.46,336.64s-.09-.06-.13-.09l-8.28-7.96c4.33-1.69,9.13-2.28,12.79-.17.63.37,1.24.81,1.79,1.35,2.33,2.23,1.89,4.94-2.37,6.5-1.06.39-2.88.9-3.81.36m6.86-9.42c-3.11-1.79-7.77-2.12-12.87-.3l-7.64,2.74.49.48,2.59-.37,8.52,8.2-1.82,1.1.51.49,6.55-2.22c6.72-2.28,8.48-5.87,5.34-8.88-.49-.47-1.04-.89-1.66-1.24" style="fill:url(#Contrast_Hatch_); opacity:.4; stroke:#535253; stroke-miterlimit:10; stroke-width:.5px;"/><path d="m484.07,325.94l-2.48-5.02h.03s7.35,3,7.35,3l-4.9,2.02m15.6-.92l-2.04.37-16.59-6.59-.68.49-.74.42,4.78,11.14-1.01.91.56.45,5.58-2.3-.57-.47-2.96.47-1.43-2.89,5.96-2.46,4.54,1.87-1.67,1.18.57.47,6.28-2.58-.58-.47" style="fill:url(#Contrast_Hatch_); opacity:.4; stroke:#535253; stroke-miterlimit:10; stroke-width:.5px;"/><polyline points="503.17 308.99 501.76 309.84 491.76 314.61 490.04 315.26 493.29 317.79 494.12 317.39 492.92 315.08 496.5 313.37 507.27 320.92 505.51 322.28 506.14 322.72 512.75 319.57 512.12 319.12 509.51 319.85 498.74 312.29 502.32 310.58 506.02 311.7 506.85 311.31 503.17 308.99" style="fill:url(#Contrast_Hatch_); opacity:.4; stroke:#535253; stroke-miterlimit:10; stroke-width:.5px;"/><polyline points="528.33 307.04 527.52 307.49 528.51 310.12 523.44 312.92 517.77 309.48 520.58 307.92 522.71 308.56 523.47 308.14 519.24 305.58 518.55 305.96 519.62 307.34 516.8 308.9 511.58 305.73 516.47 303.02 520.29 303.99 521.07 303.55 517.4 301.32 515.6 302.42 506.7 307.34 507.37 307.75 509.77 307.07 521.16 313.98 519.8 315.28 520.48 315.7 531.35 309.68 528.33 307.04" style="fill:url(#Contrast_Hatch_); opacity:.4; stroke:#535253; stroke-miterlimit:10; stroke-width:.5px;"/><path d="m567.54,276.34c-.13-.08-.28-.15-.44-.21-1.26-.47-3-.25-3.83.49-.69.63-.5,1.49.41,2.01.13.07.27.14.43.2,1.26.47,3.04.24,3.83-.47.72-.65.51-1.51-.4-2.03" style="fill:url(#Contrast_Hatch_); opacity:.4; stroke:#535253; stroke-miterlimit:10; stroke-width:.5px;"/><path d="m585.53,239.98c1.37-2.37,3.23-3.39,5.8-2.87.59.12,1.04.29,1.39.49,1.62.94.93,2.63.2,3.89l-7.4-1.51m8.56,1.74l1-1.66c1.2-1.26,3.32-2.03,5.84-1.52.73.15,1.3.36,1.75.62,1.22.7,1.42,1.72.91,2.57-.53.88-1.49,1.37-2.39,1.43l-7.1-1.45m9.48-4.22c-.5-.29-1.13-.52-1.86-.67-3.37-.69-5.83.8-7.15,2.68h-.06c.57-1.32.55-2.67-.88-3.5-.42-.24-.95-.44-1.63-.58-2.87-.58-5.27.66-6.94,3.54l-2.19,3.8.9.18,1.58-1.24,15.57,3.18-.18,1.53.93.19,2.53-3.99c1.45-2.27,1.15-4.1-.62-5.13" style="fill:url(#Contrast_Hatch_); opacity:.4; stroke:#535253; stroke-miterlimit:10; stroke-width:.5px;"/><path d="m610.04,224.96c-1-.58-2.36-1.04-4.12-1.33l-10.2-1.6-.09-1.54-.93-.15-2.04,4.41.93.15,1.92-1.79,9.38,1.42c2.03.3,3.5.72,4.45,1.27,1.32.76,1.63,1.77,1.02,3.1-1.09,2.37-4.58,2.5-8.52,1.88l-9.48-1.49-.09-1.54-.93-.15-2.09,4.53.93.15,1.41-1.31,10.2,1.6c4.7.74,8.49.34,10.16-3.26.68-1.49.18-3.15-1.9-4.35" style="fill:url(#Contrast_Hatch_); opacity:.4; stroke:#535253; stroke-miterlimit:10; stroke-width:.5px;"/><polyline points="616.49 215.91 615.54 215.8 614.33 217.16 598.15 215.25 597.89 213.71 596.95 213.6 595.36 218.14 596.31 218.25 597.58 216.9 613.75 218.82 613.93 220.34 614.9 220.46 616.49 215.91" style="fill:url(#Contrast_Hatch_); opacity:.4; stroke:#535253; stroke-miterlimit:10; stroke-width:.5px;"/><polyline points="619.61 204.35 613.86 203.22 613.7 203.86 617.87 205.64 616.93 209.42 600.32 208 599.99 206.18 599.04 206.1 597.82 210.98 598.77 211.06 599.94 209.67 616.24 211.07 616.56 212.59 617.54 212.67 619.61 204.35" style="fill:url(#Contrast_Hatch_); opacity:.4; stroke:#535253; stroke-miterlimit:10; stroke-width:.5px;"/><path d="m602.03,196.59c.08-3.55,2.67-6.55,9.98-6.25,2.24.09,4.25.58,5.68,1.4s2.28,2,2.18,3.47c-.06.76-.42,2-1.86,2.03l-15.98-.64m15.81-6.5c-1.64-.95-3.82-1.51-6.34-1.61-5.66-.22-10.08,1.86-10.47,6.02l-.48,5.2.95.04.95-1.44,16.47.67.51,1.5.99.04.6-4.38c.36-2.63-.89-4.71-3.19-6.04" style="fill:url(#Contrast_Hatch_); opacity:.4; stroke:#535253; stroke-miterlimit:10; stroke-width:.5px;"/></g><g id="Layer_11"><polygon points="455.66 94.53 455.66 90.14 460.93 91.35 468.53 98.21 466.18 99.93 455.66 94.53" style="fill:#fe9b8c;"/><polygon points="494.33 159.48 494.33 155.09 514.56 159.48 494.33 159.48" style="fill:#fe9b8c;"/><polygon points="546.36 151.83 546.36 156.22 538.67 159.48 546.36 151.83" style="fill:#fe9b8c;"/><polygon points="140.21 229.45 140.21 225.07 127.65 224.17 140.21 229.45" style="fill:#fe9b8c;"/><polygon points="90.25 238.44 90.25 234.06 94.59 222.8 93.74 233.42 90.25 238.44" style="fill:#fe9b8c;"/><polygon points="199.66 284.55 199.66 288.93 197.96 290.52 185.59 282.29 189.74 282.29 199.66 284.55" style="fill:#fe9b8c;"/></g><g id="Skewed_base"><path d="m175.97,94.05c-.42,3.7-3.22,6.51-7.29,9.25-.42.28-.86.56-1.32.82.46-.26.9-.54,1.32-.82,4.06-2.74,6.87-5.55,7.29-9.25" style="fill:#535253;"/><path d="m480.11,252.66l-12.86,9.81,12.86-9.81m-16.01-12.73l-22.18,15.43,46.15,22.29-46.15-22.29,22.18-15.43m43.85,19.98l-17.44,13.8,17.44-13.8" style="fill:#535253;"/><polyline points="140.21 225.07 128.97 227.09 140.21 225.07" style="fill:#fd836f;"/><polyline points="503.17 306.6 501.76 307.45 503.17 306.6" style="fill:#535253;"/><polyline points="517.4 298.94 515.6 300.03 517.4 298.94" style="fill:#535253;"/><path d="m63.66,182.78c.17-2.59.52-4.25,1.23-6.37,3.13-8.46,12.06-12.69,27.73-12.3,8.69.21,14.94,2.05,19.17,4.49,4.73,2.73,6.94,6.22,7.22,9.04l-.43,6.48-54.92-1.34m48.87-17.69c-4.82-2.79-11.42-4.91-21.07-5.14-21.11-.52-29.3,9.39-29.96,19.16l-.51,7.55,59.95,1.46.62-9.21c.25-3.84-1.66-8.53-5.63-11.55-1.03-.79-2.16-1.55-3.41-2.28" style="fill:#535253;"/><polyline points="128.74 149.83 70.7 140.91 68.98 144.72 127.02 153.64 128.74 149.83" style="fill:#535253;"/><path d="m136.45,120.92c-1.3-.75-2.79-1.39-4.42-1.84-7.53-2.07-13.64-.11-20.97,3.36-8.8,4.19-13.17,5.96-19.61,4.2-1.2-.33-2.21-.75-3.05-1.24-3.06-1.77-3.75-4.34-2.3-6.12,2.02-2.16,6.43-4.43,10.96-6.41l-3.6-2.32c-3.29,1.66-6.06,3.87-8,6.26-1.91,2.34-2.47,4.24-1.61,6.78.68,1.83,1.88,3.61,4.26,4.98,1.02.59,2.25,1.1,3.74,1.51,8.33,2.28,14.26.22,22.7-3.86,8.74-4.21,12.05-5.35,19.15-3.41.99.27,1.85.64,2.6,1.07,3.36,1.94,4.31,5.18,3.09,6.94-3.12,3.19-8.59,5.89-13.96,8.25l3.99,2.27c4.04-2.02,8.48-5.2,10.48-7.67,2.72-3.35,2.35-5.4,1.55-7.67-.62-1.7-2.43-3.61-5-5.09" style="fill:#535253;"/><path d="m175.97,94.05c-.42,3.7-3.22,6.51-7.29,9.25-.42.28-.86.56-1.32.82-7.9,4.57-21.02,6.05-33.36-.1-.8-.4-1.54-.8-2.24-1.2-11.63-6.72-10.74-14.53-5.92-18.86,3.54-2.38,14.3-5.08,15.47-5.23l-2.62-2.71c-5.01,1.59-9.34,3.59-13.92,6.67-3.13,2.1-5.66,6.09-6.28,9.08-.89,4.75,1.88,10.44,9.67,14.94.63.36,1.29.72,1.98,1.06,13.85,6.9,31.09,5.18,41.04-1.52,5.36-3.62,8.06-7.21,8.09-10.01,0,0,0,0,0,0-.15-.08-3.05-2-3.29-2.19" style="fill:#535253;"/><path d="m185.88,81.58c-2.18-1.26-4.25-2.8-6.15-4.65-9.89-9.61-6.09-16.85,1.96-19.78,9.6-3.22,20.44-2.83,29.39,2.33,2.21,1.28,4.31,2.85,6.24,4.72,9.89,9.61,6.36,16.76-1.69,19.69-9.69,3.25-20.73,2.9-29.76-2.32m32.27-24.08c-9.81-5.66-24.4-6.06-35.52-2.24-5.15,1.77-9.15,4.66-11.08,7.21-3.53,4.61-3.98,11.14,2.62,17.55,1.41,1.37,3.03,2.57,4.8,3.59,9.81,5.67,24.41,6.07,35.52,2.24,5.08-1.75,9.09-4.64,11.02-7.19,3.53-4.62,4.05-11.16-2.56-17.58-1.41-1.37-3.03-2.57-4.8-3.59" style="fill:#535253;"/><polyline points="278.32 35.85 273.49 36.5 268.06 67.97 267.74 68.01 237.5 41.31 230.49 42.25 266.43 73.28 269.69 72.84 278.32 35.85" style="fill:#535253;"/><polyline points="338.3 35.91 303.6 35.12 301.45 69.85 337.26 70.67 337.9 68.18 308.32 68.57 309.33 52.46 330.09 53.35 330.72 51 309.42 51.07 310.31 36.71 337.66 38.45 338.3 35.91" style="fill:#535253;"/><path d="m388.55,44.25c-2.67-1.54-6.51-2.74-11.11-3.55l-10.88-1.92-17.26,33.25,6.52,1.15,16.56-31.92c2.07.36,4.77.98,6.18,1.47,1.7.55,3.05,1.13,4.09,1.74,3.84,2.22,3.68,4.71,2.57,6.84-1.91,3.68-8.03,5.8-13.9,6.8l-2.56.42,11.48,18.95,7.74,1.36-12.25-19.71c6.46-.85,14.08-2.8,16.24-6.97,1.64-3.15.17-5.83-3.42-7.9" style="fill:#535253;"/><polyline points="460.93 63.87 456.83 62.41 427.13 72.37 426.86 72.27 428.37 52.28 421.96 49.99 421.03 72.36 407.18 85.46 412.98 87.53 427.17 74.11 460.93 63.87" style="fill:#535253;"/><path d="m229.1,311.23l15.34-30.54c4.31.73,7,1.33,10.37,2.25,3.64,1.04,6.65,2.24,9.03,3.61,6.4,3.69,8.17,8.64,4.98,14.99-5.14,10.22-19.89,12.54-28.97,11.52l-10.75-1.83m40.61-24.85c-4.89-2.82-11.6-4.81-18.61-6l-12.52-2.13-16.75,33.34,15.29,2.6c6.37,1.08,14.68,1.15,20.68-.34,7.62-1.88,14.87-5.19,18.26-11.94,3.35-6.66.07-11.81-6.35-15.52" style="fill:#535253;"/><polyline points="328.16 286.33 293.44 286.09 292.92 320.84 328.76 321.09 329.28 318.59 299.75 319.45 299.99 303.33 320.78 303.89 321.29 301.53 300 301.94 300.21 287.58 327.64 288.87 328.16 286.33" style="fill:#535253;"/><polyline points="345.71 284.52 339.02 285.45 353.19 319.24 388.17 314.39 387.52 311.85 359.29 316.91 345.71 284.52" style="fill:#535253;"/><polyline points="389.25 276.26 383.05 277.86 407.67 309.6 413.87 307.99 389.25 276.26" style="fill:#535253;"/><polyline points="437.64 258.48 433.59 260.13 449.08 290.5 448.82 290.6 403.45 272.46 397.58 274.87 451.03 295.78 453.78 294.66 437.64 258.48" style="fill:#535253;"/><polyline points="507.95 259.9 490.51 273.7 469.09 263.36 482.94 254.38 480.11 252.66 467.25 262.47 448.17 253.25 467.18 241.77 464.1 239.92 441.92 255.35 488.07 277.64 510.97 261.72 507.95 259.9" style="fill:#535253;"/><path d="m541.28,228.36l-35.45,4.03c-.4-3.02-1.87-6.56-5.82-8.84-1.05-.61-2.28-1.13-3.71-1.52-8.97-2.46-16.86.69-21.68,6.59l-4.85,5.95,54.27,14.93,2.9-3.56-52.1-14.33c.92-1.13,2.37-2.57,3.41-3.31,5.53-4.17,11.19-3.73,15.61-2.52,1.49.41,2.78.95,3.89,1.59,3.36,1.94,5.06,4.76,5.7,7.4l.35,1.53,34.03-3.7,3.44-4.23" style="fill:#535253;"/><polyline points="550.95 204.94 524.24 201.92 495.72 187.18 494.81 189.91 521.42 202.55 521.37 202.73 488.51 208.87 487.09 213.15 523.59 205.86 549.67 208.81 550.95 204.94" style="fill:#535253;"/><path d="m140.21,225.07l-38.55-20.58-11.4,29.57,11.3-2.03c4.79,5.1,10.11,9.99,15.95,14.62,7.06,5.68,14.98,10.95,23.41,15.84.1.06.21.12.31.18,8.34,4.81,17.37,9.15,26.78,13.08,9.55,3.96,19.62,7.41,29.96,10.39l1.7-1.59c-7.3-3.27-14.22-6.76-20.66-10.48-1.52-.88-3.02-1.77-4.49-2.68-7.65-4.75-14.68-9.76-20.81-15.08-6.14-5.32-11.58-10.83-16.1-16.56-3.33-4.14-6.19-8.38-8.62-12.67l11.23-2.02" style="fill:#fc3819;"/><path d="m479.47,99.71c-6.82-3.94-14.08-7.58-21.61-10.94l-2.19,1.36c7.52,4.97,14.36,10.2,20.33,15.7,5.94,5.51,11.19,11.21,15.44,17.11,4.26,5.89,7.78,11.91,10.32,18.03,1.9,4.44,3.31,8.91,4.27,13.38l-11.7.73,31.03,24.48,21-27.74-11.77.74c-3.02-5.54-6.62-10.93-10.82-16.12-5.06-6.36-11.09-12.41-17.74-18.14-6.64-5.73-14.17-11.06-22.2-16.02-1.43-.88-2.88-1.74-4.35-2.59" style="fill:#fc3819;"/><path d="m65.64,81.16c-.12-.07-.25-.13-.39-.19-1.24-.49-2.99-.29-3.85.44-.74.63-.56,1.51.36,2.04.11.07.24.13.38.18,1.24.49,3.04.29,3.86-.41.76-.65.56-1.53-.36-2.06" style="fill:#535253;"/><polyline points="116.16 49.88 115.35 50.31 116.65 53.21 111.79 55.79 100.44 48.62 102.17 47.09 101.51 46.68 95.25 50.01 95.89 50.42 98.32 49.77 109.47 56.81 108.06 58.1 108.73 58.53 119.41 52.85 116.16 49.88" style="fill:#535253;"/><polyline points="117.12 38.97 110.92 41.9 111.54 42.33 114 41.74 124.46 49.15 122.93 50.4 123.56 50.84 129.75 47.91 129.14 47.48 126.71 48.09 116.24 40.68 117.73 39.4 117.12 38.97" style="fill:#535253;"/><path d="m131.41,33.2c-1.09.06-2.96.37-4.47,1.02-3.31,1.4-4.19,3.59-2.26,5.1.19.15.38.28.58.4,1.43.83,3.3.95,5.76.62l3.23-.44c1.94-.27,3.23-.02,4.14.5.16.09.3.19.44.3,1.36,1.07.83,2.33-1.03,3.11-1.42.6-2.7.65-3.51.63l-3.89-1.45-.91.39,3.46,2.35c1.69-.05,3.9-.53,5.47-1.2,2.7-1.15,4.31-3.6,2.09-5.36-.19-.15-.39-.29-.61-.41-1.27-.73-3.01-1-5.7-.66l-3.83.46c-1.49.18-2.69.12-3.66-.44-.14-.08-.29-.18-.42-.29-1.04-.81-.79-2.09,1.1-2.89,1.23-.52,2.41-.51,2.63-.51l3.67,1.37.83-.35-3.08-2.26" style="fill:#535253;"/><polyline points="150.97 25.18 149.41 25.92 138.45 29.95 136.6 30.46 139.3 33.2 140.21 32.87 139.51 30.49 143.43 29.05 152.51 37.32 150.48 38.53 151.01 39.02 158.25 36.36 157.71 35.87 154.96 36.41 145.88 28.15 149.8 26.71 153.23 28.09 154.15 27.75 150.97 25.18" style="fill:#535253;"/><polyline points="169.5 19.37 167.26 20.15 156.41 23.52 156.87 24.01 159.49 23.72 167.32 32.13 165.41 33.18 165.88 33.69 179.12 29.57 177.42 26.57 176.44 26.87 176.18 29.56 170.01 31.47 166.1 27.28 169.54 26.21 171.31 27.16 172.23 26.88 169.32 23.75 168.47 24.01 168.88 25.51 165.45 26.57 161.86 22.72 167.83 20.86 171.07 22.38 172.02 22.08 169.5 19.37" style="fill:#535253;"/><polyline points="195.38 12.61 188.61 14.33 189 14.86 192.41 14.73 197.38 21.26 180.73 16.33 176.34 17.44 176.73 17.95 179.77 17.86 186.31 26.46 184.25 27.42 184.65 27.95 191.44 26.22 191.03 25.7 187.65 25.85 182.16 18.64 200.65 24.09 201.29 23.93 199.68 21.91 193.75 14.12 195.78 13.13 195.38 12.61" style="fill:#535253;"/><path d="m260.95,8.22c-.62-.36-1.54-.55-2.46-.46-1.45.15-2.5.99-2.24,1.85.1.33.39.62.78.85.63.36,1.54.56,2.43.47,1.51-.15,2.52-1.01,2.26-1.87-.1-.33-.38-.62-.76-.84" style="fill:#535253;"/><path d="m335.11,1.63c-1.4-.81-3.91-1.34-7.52-1.44l-6.56-.19-.05.55,2.5.54-.93,9.54-2.58.31-.05.58,9.25.31.05-.57-3.76-.53.96-9.97c2.74.09,4.58.54,5.66,1.17.92.53,1.3,1.18,1.23,1.85-.16,1.67-2.53,2.49-6.04,2.53l-.05.57c3.97.29,8.95-.67,9.2-3.27.07-.76-.37-1.43-1.31-1.98" style="fill:#535253;"/><path d="m346.41,6.78l1.11-4.98c2.31.14,4.04.53,5.08,1.14.89.51,1.28,1.17,1.1,1.95-.3,1.34-2.37,2.11-4.82,2.08l-2.48-.19m9.27-4.02c-1.24-.71-3.42-1.23-6.6-1.45l-6.86-.48-.12.55,2.43.65-2.1,9.48-2.62.2-.12.57,7.95.61.12-.55-2.44-.61.94-4.21,2.58.11s.31.36.94,1.09l4.26,4.66,4.83.37.12-.57-2.5-.6-4.75-5.18c2.75-.3,4.81-1.1,5.15-2.62.17-.77-.22-1.45-1.19-2.02" style="fill:#535253;"/><path d="m368.8,14.07c-2.32-1.34-2.82-3.72-2.11-5.63.83-2.24,3.74-4.65,8.46-4.06,1.14.14,2.12.47,2.92.93,2.13,1.23,3,3.41,2.22,5.52-.84,2.28-3.87,4.76-8.45,4.18-1.25-.16-2.26-.49-3.05-.95m12.24-8.76c-1.28-.74-3.05-1.31-5.39-1.6-5.66-.71-10.77,1.1-12.18,4.92-.81,2.19.21,4.14,2.5,5.46,1.36.78,3.16,1.35,5.3,1.62,5.69.72,10.81-1.08,12.22-4.9.7-1.92.09-4.03-2.44-5.49" style="fill:#535253;"/><polyline points="407.79 8.88 405.79 8.67 393.35 6.5 391.45 6.02 389.64 8.99 390.68 9.17 393.33 7.31 397.79 8.09 392.96 17.46 390.03 17.36 389.75 17.91 397.97 19.35 398.25 18.8 395.75 17.94 400.58 8.58 405.03 9.36 405.49 11.76 406.53 11.94 407.79 8.88" style="fill:#535253;"/><path d="m414.19,22.03c-2.58-1.49-2.51-4.18-1.18-6.18,1.43-2.13,4.97-4.24,9.48-3.23.76.17,1.42.43,1.97.75,2.34,1.35,2.84,3.86,1.34,6.1-1.45,2.17-5.12,4.34-9.49,3.35-.85-.19-1.55-.46-2.12-.79m12.92-8.59c-1-.58-2.3-1.07-3.95-1.44-5.4-1.22-10.95.1-13.38,3.74-1.62,2.42-.72,4.73,1.98,6.29,1.02.59,2.3,1.07,3.79,1.41,5.43,1.22,10.97-.07,13.41-3.72,1.38-2.07,1.16-4.54-1.85-6.28" style="fill:#535253;"/><polyline points="453.5 20.04 451.59 19.66 439.87 16.38 438.14 15.74 435.54 18.5 436.52 18.77 439.64 17.18 443.83 18.36 436.51 27.16 433.65 26.8 433.22 27.31 440.96 29.48 441.39 28.97 439.15 27.89 446.45 19.09 450.65 20.26 450.45 22.67 451.41 22.95 453.5 20.04" style="fill:#535253;"/><polyline points="474.57 27.11 468.93 25.21 468.42 25.72 470.36 27.04 462.11 29.82 462 29.79 462.26 24.14 464.6 24.4 465.08 23.92 458.56 21.73 458.08 22.21 459.35 23.16 459.29 30.04 456.21 33.13 453.39 32.66 452.9 33.15 460.33 35.64 460.83 35.15 458.73 33.98 462.08 30.62 471.93 27.46 474.09 27.59 474.57 27.11" style="fill:#535253;"/><path d="m487.25,32.17c-.77-.45-1.73-.89-2.87-1.33l-5.48-2.1-.53.46,1.67,1.2-9.23,7.91-2.5-.5-.55.48,7.68,3.02.56-.47-2.77-1.57,9.64-8.26c.77.3,1.42.61,1.95.92,2.36,1.36,2.47,2.73,1.32,3.72-1.61,1.38-4.38,1.38-7.44.37l-.55.48c3.16,1.43,8.3,2.08,10.82-.07,1.4-1.2.91-2.7-1.71-4.22" style="fill:#535253;"/><polyline points="508.23 41.03 506.09 40.16 496.38 35.73 495.79 36.17 497.3 37.45 487.16 44.95 484.72 44.35 484.11 44.8 495.97 50.2 500.03 48.1 499.16 47.7 494.81 48.63 489.28 46.11 494.35 42.38 497.42 43.77 496.63 45.09 497.45 45.47 501.22 42.68 500.47 42.34 498.26 43.15 495.2 41.75 499.85 38.31 505.19 40.74 504.1 43.06 504.96 43.45 508.23 41.03" style="fill:#535253;"/><polyline points="544.31 69.06 543.1 69.59 557.58 80.7 558.81 80.17 544.31 69.06" style="fill:#535253;"/><path d="m573.14,111.1l-.05-.07c.32-.05.74-.1,1.18-.22,1.2-.32,2.01-.95,3.87-2.43l1.89-1.52c1.34-1.08,2.6-2.03,4.29-2.48,1.42-.38,2.76-.35,3.95-.14l.06.08c-.32.05-.74.1-1.18.22-1.21.31-2.05.95-3.87,2.43l-1.89,1.52c-1.37,1.09-2.62,2.01-4.31,2.45-1.41.38-2.74.36-3.94.15m19.77-5.75c-2.4-1.38-7.17-2.79-10.63-1.86-1.5.4-2.82,1.35-4.06,2.4l-2.24,1.9c-1.32,1.12-2.5,2.24-3.84,2.6-.43.12-.7.11-.92.11-.27-.12-.52-.24-.75-.38-.43-.25-.78-.51-1.02-.76l.12-1.47c-.08-.09-.17-.17-.28-.24-.39-.22-.95-.26-1.44-.13-.76.2-1.2.76-.62,1.49.27.33.74.7,1.36,1.05,2.42,1.39,7.07,2.71,10.49,1.8,1.47-.39,2.86-1.34,4.12-2.4l2.24-1.9c1.3-1.1,2.35-2.22,3.66-2.57.51-.14.81-.14,1.09-.16.23.1.45.22.65.33.47.27.85.56,1.13.83l-.13,1.49c.07.09.17.17.28.23.39.23.98.28,1.48.15.79-.21,1.19-.79.6-1.52-.25-.31-.69-.65-1.29-.99" style="fill:#535253;"/><polyline points="603.04 135.5 601.56 135.69 606.81 149.26 608.31 149.07 603.04 135.5" style="fill:#535253;"/><polyline points="110.92 309.39 93.67 299.69 92.61 300.32 109.86 310.03 110.92 309.39" style="fill:#535253;"/><path d="m57.17,279.11l-.08-.07c.31-.07.71-.17,1.11-.32,1.11-.41,1.78-1.12,3.19-2.75l1.47-1.67c1.07-1.21,2.07-2.22,3.62-2.81,1.3-.5,2.61-.61,3.85-.5l.06.06c-.31.08-.71.17-1.11.32-1.1.42-1.74,1.12-3.18,2.74l-1.47,1.67c-1.04,1.19-2.04,2.24-3.59,2.83-1.3.5-2.63.59-3.87.48m18.9-7.02c-2.37-1.37-8.25-2.7-11.82-1.33-1.35.52-2.48,1.57-3.44,2.74l-1.72,2.08c-1,1.19-1.75,2.4-2.94,2.86-.48.18-.77.21-1.04.25-.64-.2-1.19-.46-1.64-.72-.15-.09-.29-.18-.42-.26l-.27-1.49c-.05-.05-.11-.09-.18-.12-.46-.26-1.15-.29-1.65-.09-.72.28-.96.89-.19,1.56.15.13.35.27.59.4,2.3,1.33,8.34,2.75,11.94,1.37,1.37-.52,2.43-1.58,3.38-2.73l1.72-2.08c1.01-1.22,1.88-2.43,3.11-2.9.39-.15.67-.17.89-.2.61.19,1.17.44,1.61.69.16.09.31.19.43.28l.28,1.46c.06.05.12.1.19.14.45.26,1.1.27,1.59.08.7-.27.99-.86.23-1.53-.17-.15-.38-.3-.64-.44" style="fill:#535253;"/><polyline points="27.09 236.22 25.66 236.55 34.4 249.51 35.83 249.19 27.09 236.22" style="fill:#535253;"/><polyline points="20.66 189.27 19.71 189.33 19.25 190.84 2.84 191.84 1.81 190.41 .85 190.46 1.49 194.08 2.94 194.07 16.85 196.48 2.74 201.14 3.35 204.58 4.3 204.52 4.82 203.02 21.25 202.13 22.22 203.56 23.18 203.5 22.42 199.18 21.43 199.24 20.66 201.21 5.65 202.07 19.48 197.41 21 196.99 20.89 196.37 19.25 196.15 3.72 193.38 19.55 192.51 20.5 194.01 21.49 193.96 20.66 189.27" style="fill:#535253;"/><polyline points="20.32 177.79 14.94 177.28 14.95 177.92 18.96 179.3 19.06 183.36 10.84 183.42 10.78 181.16 13.05 180.7 13.03 180.09 6.91 180.13 6.93 180.69 9.4 181.18 9.46 183.43 1.91 183.49 1.79 179.56 5.61 178.59 5.59 177.97 .28 178.01 .44 179.52 .64 186.66 1.6 186.66 2.37 185.17 18.84 185.05 19.57 186.52 20.56 186.52 20.32 177.79" style="fill:#535253;"/><path d="m3.68,169.08v-.02s8.65-1.41,8.65-1.41l-.36,3.48-8.3-2.06m17.82-5.52l-.99-.03-.79,1.15-19.24,3.31.24.62.09.6,17.95,4.88.58,1.03.95.04.41-3.97-.99-.03-1.22,1.63-4.78-1.18.43-4.23,5.34-.87.54,1.5.99.04.46-4.46" style="fill:#535253;"/><path d="m21.21,154.41c-.83-.48-1.89-.82-3.15-.92-2.2-.17-4,.31-5.69,1.89l-2.06,1.92c-.92.86-1.97,1.33-3.72,1.2-.68-.05-1.31-.24-1.8-.52-.76-.44-1.21-1.12-1.03-1.94.19-.88,1.03-1.36,1.17-1.46l4.25-.58.13-.59-4.93-.27c-.69.49-1.58,1.49-1.82,2.57-.34,1.51.4,2.82,1.82,3.63.8.46,1.82.77,2.98.86,2.5.2,4.18-.52,5.65-1.95l1.67-1.66c1.17-1.17,2.63-1.48,4.15-1.36.89.07,1.61.28,2.15.59.83.48,1.21,1.2,1.03,2-.24,1.02-1.05,1.58-1.64,1.91l-4.5.62-.14.65,5.31.18c1.1-.74,2.02-1.99,2.27-3.12.28-1.27-.47-2.74-2.09-3.67" style="fill:#535253;"/><path d="m24.99,141.65c-1.09-.63-2.6-1.12-4.58-1.37l-10.34-1.25-.26-1.54-.94-.11-1.58,4.47.95.11,1.72-1.85,9.51,1.09c2.2.25,3.79.65,4.79,1.23,1.22.7,1.57,1.67,1.13,2.94-.86,2.4-4.32,2.66-8.31,2.17l-9.62-1.16-.25-1.54-.94-.11-1.62,4.6.94.11,1.27-1.35,10.35,1.24c4.76.58,8.5.05,9.8-3.61.51-1.43-.08-2.98-2.01-4.09" style="fill:#535253;"/><path d="m12.69,131.43c1.07-2.4,3.36-3.54,6.19-3.06.67.11,1.23.31,1.68.57,1.04.6,1.45,1.54,1.16,2.52l-.7,1.38-8.33-1.41m22.07-4.62l-.96-.16-1.39,1.34-9.55,1.91c-.06-1.09-.57-2.04-1.66-2.67-.53-.31-1.21-.54-2.03-.68-2.92-.49-5.55.73-7.09,3.92l-1.83,3.85.92.16,1.46-1.29,15.85,2.68-.05,1.53.96.16,2.23-4.45-.92-.16-1.4,1.3-7.04-1.19.58-1.46s.65-.12,2-.37l8.58-1.71,1.35-2.7" style="fill:#535253;"/><polyline points="40.93 117.19 36.23 115.58 35.84 116.18 38.7 118.3 36.26 122.11 28.56 120.44 29.92 118.33 32.32 118.37 32.69 117.8 26.95 116.56 26.61 117.08 28.62 118.05 27.27 120.16 20.17 118.63 22.53 114.95 26.7 114.85 27.07 114.27 22.09 113.19 21.29 114.63 17.01 121.31 17.91 121.51 19.56 120.29 35.01 123.63 34.76 125.16 35.7 125.36 40.93 117.19" style="fill:#535253;"/><path d="m156.94,328.93l4.37-4.34c1.06.34,1.93.7,2.59,1.09,1.7.98,2.1,2.09,1.04,3.15-1.18,1.16-3.61,1.4-5.85.83l-2.15-.73m9.62-2.96c-.86-.5-2.02-.99-3.48-1.48l-6.01-1.98-.48.48,1.81,1.14-8.31,8.24-2.55-.4-.49.49,6.92,2.35.49-.48-1.85-1.11,3.69-3.65,2.31.68s.05.4.13,1.21l.81,5.24,4.2,1.43.49-.49-1.9-1.11-.9-5.84c2.75.35,5.19.07,6.52-1.25,1.08-1.07.7-2.27-1.37-3.47" style="fill:#535253;"/><polyline points="189.53 332.59 187.14 331.98 176.06 328.83 175.63 329.32 177.58 330.4 170.34 338.96 167.74 338.66 167.31 339.18 180.85 343.03 184.07 340.49 183.07 340.2 179.15 341.64 172.84 339.84 176.45 335.57 179.95 336.57 179.65 337.96 180.6 338.22 183.28 335.04 182.42 334.8 180.56 335.86 177.05 334.85 180.37 330.93 186.47 332.66 186.24 335.07 187.2 335.35 189.53 332.59" style="fill:#535253;"/><polyline points="208.75 337.27 206.26 336.76 194.86 334.06 194.51 334.58 196.56 335.57 190.37 344.4 187.75 344.21 187.37 344.74 195.26 346.61 195.69 346.01 193.06 345.04 196.03 340.81 199.67 341.67 199.49 343.05 200.48 343.29 202.79 340.01 201.89 339.8 200.19 340.93 196.55 340.07 199.42 335.98 205.67 337.47 205.76 339.89 206.75 340.12 208.75 337.27" style="fill:#535253;"/><polyline points="220.44 339.71 212.86 338.18 212.55 338.71 214.7 339.62 209.34 348.65 206.71 348.54 206.39 349.08 213.96 350.61 214.27 350.08 212.09 349.2 217.46 340.18 220.12 340.23 220.44 339.71" style="fill:#535253;"/><polyline points="244.81 343.81 237.66 342.67 237.4 343.22 240.19 344.37 236.95 351.24 229.36 341.34 224.73 340.6 224.47 341.13 226.94 342.17 222.67 351.22 220.02 351.21 219.76 351.76 226.91 352.91 227.17 352.35 224.37 351.24 227.95 343.66 236.41 354.63 237.07 354.74 238.02 352.58 241.89 344.39 244.55 344.36 244.81 343.81" style="fill:#535253;"/><polyline points="263.75 345.9 261.16 345.68 249.04 344.32 248.86 344.87 251.21 345.61 248.14 354.98 245.5 355.09 245.31 355.65 260.11 357.31 262.06 354.36 260.97 354.25 257.84 356.22 250.95 355.45 252.48 350.78 256.31 351.2 256.65 352.59 257.68 352.71 258.83 349.22 257.88 349.12 256.57 350.42 252.73 349.99 254.15 345.69 260.82 346.44 261.69 348.8 262.75 348.92 263.75 345.9" style="fill:#535253;"/><path d="m327.3,353.82c-.54-.31-1.29-.5-2.1-.48-1.47.04-2.7.8-2.63,1.67.04.41.36.78.84,1.06.54.31,1.28.5,2.05.48,1.53-.04,2.73-.81,2.66-1.68-.04-.41-.34-.78-.82-1.05" style="fill:#535253;"/><polyline points="401.71 340.18 394.83 341.33 395.11 341.9 398.51 341.93 397.41 350.55 397.35 350.55 388.18 343.49 390.41 342.65 390.13 342.11 382.79 343.34 383.07 343.88 385.13 344 397.34 353.15 398.55 352.94 400.33 341.53 401.98 340.72 401.71 340.18" style="fill:#535253;"/><path d="m411.59,345l-.09-5.22h.03s5.71,4.03,5.71,4.03l-5.66,1.19m.35-7.35l-.88.37-.91.28-.48,11.46-1.4.72.33.52,6.45-1.36-.34-.53h-3.06s-.06-3.01-.06-3.01l6.87-1.45,3.53,2.49-2.15.88.35.54,7.23-1.53-.35-.54-2.14.04-12.99-8.9" style="fill:#535253;"/><polyline points="443.66 339.08 442.65 339.34 442.31 342.33 436.29 343.9 429.4 335.03 431.86 333.89 431.46 333.38 423.7 335.4 424.1 335.91 426.75 335.74 433.53 344.44 431.49 345.41 431.9 345.93 445.13 342.5 443.66 339.08" style="fill:#535253;"/><polyline points="448.75 328.46 441.64 330.59 442.08 331.09 444.71 330.81 452.32 339.3 450.38 340.34 450.84 340.85 457.94 338.71 457.5 338.22 454.9 338.53 447.29 330.04 449.19 328.96 448.75 328.46" style="fill:#535253;"/><path d="m466.46,334.26s-.09-.06-.13-.09l-8.28-7.96c4.33-1.69,9.13-2.28,12.79-.17.63.37,1.24.81,1.79,1.35,2.33,2.23,1.89,4.94-2.37,6.5-1.06.39-2.88.9-3.81.36m6.86-9.42c-3.11-1.79-7.77-2.12-12.87-.3l-7.64,2.74.49.48,2.59-.37,8.52,8.2-1.82,1.1.51.49,6.55-2.22c6.72-2.28,8.48-5.87,5.34-8.88-.49-.47-1.04-.89-1.66-1.24" style="fill:#535253;"/><path d="m484.07,323.55l-2.48-5.02h.03s7.35,3,7.35,3l-4.9,2.02m15.6-.92l-2.04.37-16.59-6.59-.68.49-.74.42,4.78,11.14-1.01.91.56.45,5.58-2.3-.57-.47-2.96.47-1.43-2.89,5.96-2.46,4.54,1.87-1.67,1.18.57.47,6.28-2.58-.58-.47" style="fill:#535253;"/><polyline points="503.17 306.6 501.76 307.45 491.76 312.23 490.04 312.87 493.29 315.4 494.12 315 492.92 312.69 496.5 310.98 507.27 318.53 505.51 319.89 506.14 320.33 512.75 317.18 512.12 316.73 509.51 317.46 498.74 309.91 502.32 308.2 506.02 309.32 506.85 308.92 503.17 306.6" style="fill:#535253;"/><polyline points="528.33 304.66 527.52 305.1 528.51 307.73 523.44 310.54 517.77 307.09 520.58 305.53 522.71 306.18 523.47 305.76 519.24 303.19 518.55 303.57 519.62 304.96 516.8 306.51 511.58 303.34 516.47 300.63 520.29 301.6 521.07 301.17 517.4 298.94 515.6 300.03 506.7 304.96 507.37 305.36 509.77 304.68 521.16 311.59 519.8 312.89 520.48 313.31 531.35 307.29 528.33 304.66" style="fill:#535253;"/><path d="m567.54,273.95c-.13-.08-.28-.15-.44-.21-1.26-.47-3-.25-3.83.49-.69.63-.5,1.49.41,2.01.13.07.27.14.43.2,1.26.47,3.04.24,3.83-.47.72-.65.51-1.51-.4-2.03" style="fill:#535253;"/><path d="m585.53,237.59c1.37-2.37,3.23-3.39,5.8-2.87.59.12,1.04.29,1.39.49,1.62.94.93,2.63.2,3.89l-7.4-1.51m8.56,1.74l1-1.66c1.2-1.26,3.32-2.03,5.84-1.52.73.15,1.3.36,1.75.62,1.22.7,1.42,1.72.91,2.57-.53.88-1.49,1.37-2.39,1.43l-7.1-1.45m9.48-4.22c-.5-.29-1.13-.52-1.86-.67-3.37-.69-5.83.8-7.15,2.68h-.06c.57-1.32.55-2.67-.88-3.5-.42-.24-.95-.44-1.63-.58-2.87-.58-5.27.66-6.94,3.54l-2.19,3.8.9.18,1.58-1.24,15.57,3.18-.18,1.53.93.19,2.53-3.99c1.45-2.27,1.15-4.1-.62-5.13" style="fill:#535253;"/><path d="m610.04,222.57c-1-.58-2.36-1.04-4.12-1.33l-10.2-1.6-.09-1.54-.93-.15-2.04,4.41.93.15,1.92-1.79,9.38,1.42c2.03.3,3.5.72,4.45,1.27,1.32.76,1.63,1.77,1.02,3.1-1.09,2.37-4.58,2.5-8.52,1.88l-9.48-1.49-.09-1.54-.93-.15-2.09,4.53.93.15,1.41-1.31,10.2,1.6c4.7.74,8.49.34,10.16-3.26.68-1.49.18-3.15-1.9-4.35" style="fill:#535253;"/><polyline points="616.49 213.52 615.54 213.41 614.33 214.78 598.15 212.86 597.89 211.32 596.95 211.21 595.36 215.75 596.31 215.86 597.58 214.51 613.75 216.43 613.93 217.95 614.9 218.07 616.49 213.52" style="fill:#535253;"/><polyline points="619.61 201.96 613.86 200.83 613.7 201.47 617.87 203.25 616.93 207.03 600.32 205.62 599.99 203.79 599.04 203.71 597.82 208.59 598.77 208.68 599.94 207.28 616.24 208.68 616.56 210.2 617.54 210.28 619.61 201.96" style="fill:#535253;"/><path d="m602.03,194.2c.08-3.55,2.67-6.55,9.98-6.25,2.24.09,4.25.58,5.68,1.4s2.28,2,2.18,3.47c-.06.76-.42,2-1.86,2.03l-15.98-.64m15.81-6.5c-1.64-.95-3.82-1.51-6.34-1.61-5.66-.22-10.08,1.86-10.47,6.02l-.48,5.2.95.04.95-1.44,16.47.67.51,1.5.99.04.6-4.38c.36-2.63-.89-4.71-3.19-6.04" style="fill:#535253;"/></g></svg>