<?xml version="1.0" encoding="UTF-8"?><svg id="Layer_2" xmlns="http://www.w3.org/2000/svg" viewBox="0 0 415.11 244.7"><g id="Flattened_Bottom"><path vector-effect="non-scaling-stroke" d="m15.97,23.94c-1.08-.32-2.09-.66-3.02-1.02-.92-.36-1.96-.74-3.11-1.14-1.27-.45-2.6-.73-4.01-.85-1.41-.12-2.67.15-3.79.8-1.57.91-2.1,2.03-1.61,3.37.5,1.33,1.89,2.66,4.16,3.97,2.72,1.57,5.8,2.82,9.24,3.74,3.44.93,6.68,1.42,9.74,1.49-.93-1.76-2.04-3.56-3.32-5.39-1.28-1.82-2.71-3.48-4.27-4.97m56.01,32.3c-1.59-.64-3.46-1.26-5.59-1.87-2.14-.61-4.3-1.15-6.49-1.62-2.19-.48-4.15-.84-5.91-1.1-.05,1.19.32,2.46,1.13,3.81.8,1.35,1.91,2.68,3.32,3.99,1.42,1.31,3.02,2.49,4.82,3.53,2.32,1.34,4.65,2.16,6.98,2.47,2.34.31,4.3,0,5.89-.91.91-.53,1.44-1.11,1.59-1.74.14-.63.01-1.26-.39-1.9-.39-.64-.9-1.25-1.54-1.82-.66-.51-1.3-.98-1.9-1.42s-1.23-.91-1.91-1.42m-3.55-22.98c-1.43-.52-2.79-1.08-4.07-1.67-1.28-.6-2.5-1.23-3.66-1.91-.2-.11-.39-.22-.58-.33-.95-.55-1.83-1.12-2.66-1.71-.99-.72-1.91-1.46-2.75-2.23-2.53,1.25-5.29,2.31-8.29,3.16-3.01.86-6.18,1.49-9.52,1.89-3.35.4-6.73.55-10.17.43.8,1.17,1.64,2.43,2.5,3.77.86,1.35,1.98,2.73,3.35,4.14,1.36,1.41,3.2,2.78,5.49,4.1s4.78,2.46,7.27,3.3c2.5.84,4.95,1.52,7.36,2.04,2.41.52,4.64.98,6.68,1.38-.36-1.99-.25-3.97.35-5.91.59-1.95,1.62-3.8,3.09-5.58,1.47-1.78,3.33-3.4,5.62-4.87m-21.41-23.03c-1.72.2-3.52.44-5.39.72-1.86.28-3.79.6-5.77.97-2.51.46-4.78.77-6.82.94-2.04.17-3.89.25-5.55.26-1.67,0-3.15.01-4.45,0-1.53.01-2.79.07-3.75.19-.97.11-1.89.42-2.74.91-1.18.69-1.56,1.52-1.16,2.51s1.56,2.03,3.46,3.13l3.44,1.99c1.39.8,2.53,1.65,3.43,2.54.9.89,1.71,1.82,2.45,2.79,3.1.19,6.32.09,9.65-.29,3.32-.38,6.52-.97,9.6-1.77s5.82-1.76,8.22-2.88c-1.44-1.77-2.57-3.68-3.4-5.72-.83-2.05-1.23-4.14-1.21-6.3m47.73,27.06c-2.47.04-4.93-.03-7.36-.2-2.44-.17-4.79-.43-7.04-.78-2.25-.35-4.36-.79-6.29-1.32-2.02,1.43-3.71,3.02-5.1,4.75-1.37,1.74-2.37,3.56-2.98,5.45-.61,1.9-.75,3.79-.41,5.68,1.66.49,3.39,1.06,5.2,1.73,1.82.67,3.59,1.4,5.33,2.19,1.03.53,2.11,1.01,3.2,1.44,1.09.43,2.06.71,2.89.84.55-.86,1.27-1.94,2.15-3.23.9-1.29,1.86-2.69,2.9-4.21,1.04-1.52,2.06-3.05,3.07-4.58,1-1.53,1.9-2.97,2.68-4.32.79-1.35,1.37-2.5,1.76-3.46m22.83,21.14c-.9-.52-1.36-1.15-1.37-1.89-.01-.74.44-1.37,1.36-1.91s1.96-.77,3.23-.76c1.29,0,2.38.26,3.28.78s1.32,1.14,1.33,1.88c.01.74-.43,1.37-1.31,1.88s-2.01.8-3.29.79c-1.27,0-2.36-.27-3.24-.77m14.8-9.49c-2.5-1.44-5.19-2.41-8.09-2.91-2.89-.51-5.85-.6-8.88-.28-3.03.31-6.02.93-8.97,1.87-1.61.51-3.13.87-4.57,1.07-1.44.2-2.8.3-4.09.28-1.28-.03-2.53-.14-3.73-.34-.91,1.43-1.98,3.02-3.21,4.76-1.22,1.74-2.47,3.44-3.72,5.1,1.59.4,3.22.78,4.87,1.13,1.65.36,3.33.74,5.02,1.17,1.7.42,3.37.93,4.99,1.52,1.62.58,3.19,1.31,4.71,2.19,2.9,1.68,5.74,2.95,8.5,3.8,2.75.85,5.3,1.26,7.63,1.24,2.32-.03,4.3-.51,5.92-1.45,3.67-2.13,6.26-4.34,7.79-6.64,1.53-2.3,1.94-4.53,1.26-6.69-.69-2.16-2.5-4.1-5.45-5.8M84.71,15.69c-2.86-1.65-5.88-2.97-9.03-3.94-3.24-1-6.67-1.67-10.28-2.01-3.62-.34-7.47-.38-11.57-.1-.29,3.35.56,6.48,2.56,9.41,2,2.93,4.99,5.55,8.99,7.86s8.75,4.14,13.86,5.26c5.1,1.12,10.6,1.59,16.48,1.4.39-2.43.29-4.68-.33-6.73-.61-2.05-1.77-3.97-3.48-5.77-1.71-1.8-4.03-3.55-6.98-5.25-.07-.04-.14-.08-.22-.13" style="fill:none; stroke:#535253; stroke-linejoin:round; stroke-width:.5px;"/><path vector-effect="non-scaling-stroke" d="m311.53,194.89c-1.68-.97-3.41-1.5-5.2-1.61-1.79-.1-3.35.24-4.69,1.02-2.04,1.18-2.68,2.7-1.93,4.56.74,1.85,2.76,3.73,6.06,5.64,2.76,1.6,5.36,2.82,7.79,3.65,2.44.84,4.91,1.41,7.42,1.7l-1.49-9.91c-.25-.11-.5-.24-.77-.37-.26-.13-.54-.28-.83-.44-.47-.27-1.03-.65-1.69-1.14-.66-.48-1.39-1-2.19-1.54-.8-.54-1.63-1.07-2.48-1.56m82.38,23.92c-.84-.48-1.25-1.08-1.23-1.79.02-.71.44-1.3,1.28-1.79s1.92-.77,3.16-.79c1.23-.02,2.27.22,3.14.72s1.32,1.11,1.33,1.81c0,.7-.42,1.29-1.25,1.77-.88.51-1.95.78-3.22.79-1.28.02-2.34-.22-3.21-.72m9.46-36.99c-1.14-.66-2.58-1.31-4.29-1.96-1.72-.65-3.51-1.2-5.37-1.65s-3.59-.7-5.19-.77c-1.6-.06-2.85.16-3.74.68-.75.44-1.14,1.22-1.15,2.34-.01,1.12.19,2.39.6,3.78.41,1.39.84,2.71,1.28,3.96l6.04,16.34c-1.29-.04-2.44-.13-3.43-.28-1.01-.15-1.99-.51-2.98-1.08-.9-.52-1.64-1.16-2.23-1.92-.6-.76-1.11-1.6-1.57-2.53-.44-.92-.92-1.88-1.42-2.87-.92-2.33-1.81-4.5-2.63-6.52s-1.78-3.93-2.84-5.72c-1.06-1.79-2.43-3.5-4.1-5.12-1.67-1.63-3.84-3.21-6.53-4.76-3.35-1.94-7.13-3.4-11.33-4.37-4.2-.98-8.76-1.36-13.7-1.14-4.94.21-10.17,1.12-15.69,2.71-.1-.06-.21-.13-.31-.19-1.56-.9-3.32-1.4-5.26-1.49-2.07-.1-3.89.3-5.46,1.21-1.71.99-2.44,2.16-2.2,3.49.23,1.28,1.28,2.45,3.16,3.54.08.05.16.09.25.14-1.03,2.4-1.3,4.63-.81,6.69.5,2.06,1.69,4.03,3.6,5.92,1.9,1.88,4.46,3.75,7.68,5.6.26.15.55.31.84.47.3.16.58.31.85.47l2.12,13.56c.18,1.68.75,3.04,1.72,4.09.98,1.04,2.12,1.94,3.41,2.69,1.09.63,2.43,1.21,4.05,1.74,1.61.53,3.42,1.38,5.42,2.54,1.4.81,2.45,1.51,3.15,2.12.71.61,1.36,1.18,1.94,1.72.59.54,1.39,1.1,2.41,1.69,2.25,1.3,4.49,2.05,6.69,2.24,2.2.19,4.15-.21,5.84-1.19s2.81-2.27,3.17-3.78c.37-1.51-.08-3.15-1.33-4.92-1.26-1.77-3.46-3.57-6.61-5.39-1.64-.95-3.1-1.69-4.37-2.23-1.27-.54-2.44-1.01-3.54-1.39s-2.21-.8-3.36-1.25l4.21-6.69c1.38-2.17,2.02-4.27,1.91-6.3-.1-2.03-.82-3.93-2.16-5.7s-3.23-3.36-5.67-4.77l-3.77-2.18c-.78-.45-1.21-.93-1.29-1.42-.09-.5.24-.96.97-1.38,1.18-.69,2.59-.79,4.22-.3,1.64.48,3.24,1.18,4.82,2.09,4.83,2.79,7.93,6.02,9.28,9.67,1.36,3.66.62,7.66-2.2,12.01l-2.52,3.85c1.22.47,2.45,1,3.66,1.59,1.22.59,2.4,1.21,3.55,1.87.92.53,1.79,1.08,2.61,1.65.82.57,1.58,1.17,2.28,1.81,1.49.27,3.05.56,4.69.87,1.64.31,3.31.63,5.03.95.43,1.15.96,2.31,1.58,3.48.62,1.17,1.5,2.34,2.65,3.53,1.15,1.18,2.76,2.37,4.82,3.56,2.36,1.36,4.68,2.33,7,2.91,2.31.58,4.67.66,7.1.25,2.43-.41,5.01-1.42,7.76-3.02,2.44-1.42,4.36-3,5.75-4.74,1.39-1.74,2.14-3.55,2.28-5.42s-.43-3.7-1.7-5.49c-1.11-1.58-2.85-3.05-5.21-4.42-.31-.18-.64-.36-.97-.54l3.4-10.41c.98-3.06.8-5.84-.56-8.31-1.34-2.47-3.44-4.54-6.29-6.18" style="fill:none; stroke:#535253; stroke-linejoin:round; stroke-width:.5px;"/><path vector-effect="non-scaling-stroke" d="m251.08,205.45L17.16,70.39c-3.03-1.75-7.93-1.75-10.95,0s-3,4.59.04,6.34l233.93,135.06c.89-1.41,2.29-2.74,4.24-3.87s4.24-1.95,6.67-2.47" style="fill:none; stroke:#535253; stroke-linejoin:round; stroke-width:.5px;"/><path vector-effect="non-scaling-stroke" d="m295.61,231.15l-20.71-11.96c-.89,1.41-2.29,2.74-4.24,3.87s-4.23,1.95-6.67,2.47l20.71,11.96c3.03,1.75,7.94,1.75,10.95,0s2.99-4.59-.04-6.34" style="fill:none; stroke:#535253; stroke-linejoin:round; stroke-width:.5px;"/><path vector-effect="non-scaling-stroke" d="m268.12,209.44c-5.84-3.37-15.27-3.37-21.06,0s-5.77,8.83.07,12.2c5.84,3.37,15.27,3.37,21.06,0s5.77-8.83-.07-12.2" style="fill:#fed5d0; stroke:#fd836f; stroke-miterlimit:10; stroke-width:.5px;"/></g><g id="Flattened_Mid"><line vector-effect="non-scaling-stroke" x1="263.24" y1="214.08" x2="263.24" y2="223.35" style="fill:none; stroke:#fd836f; stroke-miterlimit:10; stroke-width:.5px;"/><line vector-effect="non-scaling-stroke" x1="87.27" y1="49.39" x2="87.27" y2="58.67" style="fill:#fff; stroke:#535253; stroke-linejoin:round; stroke-width:.5px;"/><line vector-effect="non-scaling-stroke" x1="106.49" y1="55.04" x2="106.49" y2="64.31" style="fill:#fff; stroke:#535253; stroke-linejoin:round; stroke-width:.5px;"/><line vector-effect="non-scaling-stroke" x1="77.78" y1="53.01" x2="77.78" y2="62.29" style="fill:#fff; stroke:#535253; stroke-linejoin:round; stroke-width:.5px;"/><line vector-effect="non-scaling-stroke" x1="82.21" y1="47.99" x2="82.21" y2="57.27" style="fill:#fff; stroke:#535253; stroke-linejoin:round; stroke-width:.5px;"/><line vector-effect="non-scaling-stroke" x1="94.66" y1="28.17" x2="94.66" y2="37.45" style="fill:#fff; stroke:#535253; stroke-linejoin:round; stroke-width:.5px;"/><line vector-effect="non-scaling-stroke" x1="95.7" y1="24.35" x2="95.7" y2="33.62" style="fill:#fff; stroke:#535253; stroke-linejoin:round; stroke-width:.5px;"/><line vector-effect="non-scaling-stroke" x1="53.9" y1=".46" x2="53.9" y2="9.73" style="fill:#fff; stroke:#535253; stroke-linejoin:round; stroke-width:.5px;"/><line vector-effect="non-scaling-stroke" x1="68.38" y1="23.85" x2="68.38" y2="33.13" style="fill:#fff; stroke:#535253; stroke-linejoin:round; stroke-width:.5px;"/><line vector-effect="non-scaling-stroke" x1="59.46" y1="40.5" x2="59.46" y2="49.78" style="fill:#fff; stroke:#535253; stroke-linejoin:round; stroke-width:.5px;"/><line vector-effect="non-scaling-stroke" x1="26.82" y1="21.71" x2="26.82" y2="30.98" style="fill:#fff; stroke:#535253; stroke-linejoin:round; stroke-width:.5px;"/><line vector-effect="non-scaling-stroke" x1="33.17" y1="30.16" x2="33.17" y2="39.43" style="fill:#fff; stroke:#535253; stroke-linejoin:round; stroke-width:.5px;"/><line vector-effect="non-scaling-stroke" x1="285.04" y1="228.48" x2="285.04" y2="237.76" style="fill:#fff; stroke:#535253; stroke-linejoin:round; stroke-width:.5px;"/><line vector-effect="non-scaling-stroke" x1="264.11" y1="216.51" x2="264.11" y2="225.79" style="fill:#fff; stroke:#535253; stroke-linejoin:round; stroke-width:.5px;"/><line vector-effect="non-scaling-stroke" x1="240.31" y1="202.71" x2="240.31" y2="211.98" style="fill:#fff; stroke:#535253; stroke-linejoin:round; stroke-width:.5px;"/><line vector-effect="non-scaling-stroke" x1="242.82" y1="205.71" x2="242.82" y2="214.98" style="fill:none; stroke:#fd836f; stroke-miterlimit:10; stroke-width:.5px;"/><line vector-effect="non-scaling-stroke" x1="250.69" y1="213.75" x2="250.69" y2="223.02" style="fill:none; stroke:#fd836f; stroke-miterlimit:10; stroke-width:.5px;"/><line vector-effect="non-scaling-stroke" x1="272.65" y1="205.32" x2="272.65" y2="214.6" style="fill:none; stroke:#fd836f; stroke-miterlimit:10; stroke-width:.5px;"/><line vector-effect="non-scaling-stroke" x1="250.94" y1="196.1" x2="250.94" y2="205.38" style="fill:#fff; stroke:#535253; stroke-linejoin:round; stroke-width:.5px;"/><line vector-effect="non-scaling-stroke" x1="291.97" y1="229.59" x2="291.97" y2="238.86" style="fill:#fff; stroke:#535253; stroke-linejoin:round; stroke-width:.5px;"/><line vector-effect="non-scaling-stroke" x1="297.88" y1="224.77" x2="297.88" y2="234.04" style="fill:#fff; stroke:#535253; stroke-linejoin:round; stroke-width:.5px;"/><line vector-effect="non-scaling-stroke" x1="320.97" y1="200.47" x2="320.97" y2="209.74" style="fill:#fff; stroke:#535253; stroke-linejoin:round; stroke-width:.5px;"/><line vector-effect="non-scaling-stroke" x1="325.51" y1="187.76" x2="325.51" y2="197.04" style="fill:#fff; stroke:#535253; stroke-linejoin:round; stroke-width:.5px;"/><line vector-effect="non-scaling-stroke" x1="327.49" y1="200.25" x2="327.49" y2="209.52" style="fill:#fff; stroke:#535253; stroke-linejoin:round; stroke-width:.5px;"/><line vector-effect="non-scaling-stroke" x1="333.55" y1="208.48" x2="333.55" y2="217.75" style="fill:#fff; stroke:#535253; stroke-linejoin:round; stroke-width:.5px;"/><line vector-effect="non-scaling-stroke" x1="339.37" y1="210.79" x2="339.37" y2="220.06" style="fill:#fff; stroke:#535253; stroke-linejoin:round; stroke-width:.5px;"/><line vector-effect="non-scaling-stroke" x1="346.84" y1="215.54" x2="346.84" y2="224.81" style="fill:#fff; stroke:#535253; stroke-linejoin:round; stroke-width:.5px;"/><line vector-effect="non-scaling-stroke" x1="353.28" y1="219.37" x2="353.28" y2="228.65" style="fill:#fff; stroke:#535253; stroke-linejoin:round; stroke-width:.5px;"/><line vector-effect="non-scaling-stroke" x1="365.5" y1="213.99" x2="365.5" y2="223.27" style="fill:#fff; stroke:#535253; stroke-linejoin:round; stroke-width:.5px;"/><line vector-effect="non-scaling-stroke" x1="375.9" y1="207.53" x2="375.9" y2="216.8" style="fill:#fff; stroke:#535253; stroke-linejoin:round; stroke-width:.5px;"/><line vector-effect="non-scaling-stroke" x1="387.71" y1="219.33" x2="387.71" y2="228.61" style="fill:#fff; stroke:#535253; stroke-linejoin:round; stroke-width:.5px;"/><line vector-effect="non-scaling-stroke" x1="399.19" y1="221.32" x2="399.19" y2="230.59" style="fill:#fff; stroke:#535253; stroke-linejoin:round; stroke-width:.5px;"/><line vector-effect="non-scaling-stroke" x1="414.71" y1="207.42" x2="414.71" y2="216.69" style="fill:#fff; stroke:#535253; stroke-linejoin:round; stroke-width:.5px;"/><line vector-effect="non-scaling-stroke" x1="410.83" y1="184.1" x2="410.83" y2="193.38" style="fill:#fff; stroke:#535253; stroke-linejoin:round; stroke-width:.5px;"/><line vector-effect="non-scaling-stroke" x1="383.8" y1="170.21" x2="383.8" y2="179.48" style="fill:#fff; stroke:#535253; stroke-linejoin:round; stroke-width:.5px;"/><line vector-effect="non-scaling-stroke" x1="344.94" y1="171.11" x2="344.94" y2="180.39" style="fill:#fff; stroke:#535253; stroke-linejoin:round; stroke-width:.5px;"/><line vector-effect="non-scaling-stroke" x1="309.85" y1="164.26" x2="309.85" y2="173.54" style="fill:#fff; stroke:#535253; stroke-linejoin:round; stroke-width:.5px;"/><line vector-effect="non-scaling-stroke" x1="312.3" y1="172.68" x2="312.3" y2="181.96" style="fill:#fff; stroke:#535253; stroke-linejoin:round; stroke-width:.5px;"/><line vector-effect="non-scaling-stroke" x1="299.5" y1="188.37" x2="299.5" y2="197.65" style="fill:#fff; stroke:#535253; stroke-linejoin:round; stroke-width:.5px;"/><line vector-effect="non-scaling-stroke" x1="366.41" y1="205.71" x2="366.41" y2="214.98" style="fill:#fff; stroke:#535253; stroke-linejoin:round; stroke-width:.5px;"/><line vector-effect="non-scaling-stroke" x1="354.13" y1="198.65" x2="354.13" y2="207.93" style="fill:#fff; stroke:#535253; stroke-linejoin:round; stroke-width:.5px;"/><line vector-effect="non-scaling-stroke" x1="43.52" y1="36.43" x2="43.52" y2="45.71" style="fill:#fff; stroke:#535253; stroke-linejoin:round; stroke-width:.5px;"/><line vector-effect="non-scaling-stroke" x1="23.6" y1="25.15" x2="23.6" y2="34.42" style="fill:#fff; stroke:#535253; stroke-linejoin:round; stroke-width:.5px;"/><line vector-effect="non-scaling-stroke" x1=".34" y1="14.88" x2=".34" y2="24.16" style="fill:#fff; stroke:#535253; stroke-linejoin:round; stroke-width:.5px;"/><line vector-effect="non-scaling-stroke" x1="3.75" y1="19.12" x2="3.75" y2="28.39" style="fill:#fff; stroke:#535253; stroke-linejoin:round; stroke-width:.5px;"/><line vector-effect="non-scaling-stroke" x1="11.38" y1="6.82" x2="11.38" y2="16.09" style="fill:#fff; stroke:#535253; stroke-linejoin:round; stroke-width:.5px;"/><line vector-effect="non-scaling-stroke" x1="24.48" y1="18.04" x2="24.48" y2="27.32" style="fill:#fff; stroke:#535253; stroke-linejoin:round; stroke-width:.5px;"/><line vector-effect="non-scaling-stroke" x1="51.59" y1="12.98" x2="51.59" y2="22.26" style="fill:#fff; stroke:#535253; stroke-linejoin:round; stroke-width:.5px;"/><line vector-effect="non-scaling-stroke" x1="71.62" y1="56.51" x2="71.62" y2="65.78" style="fill:#fff; stroke:#535253; stroke-linejoin:round; stroke-width:.5px;"/><line vector-effect="non-scaling-stroke" x1="64.79" y1="54.47" x2="64.79" y2="63.75" style="fill:#fff; stroke:#535253; stroke-linejoin:round; stroke-width:.5px;"/><line vector-effect="non-scaling-stroke" x1="4.05" y1="64.08" x2="4.05" y2="73.35" style="fill:#fff; stroke:#535253; stroke-linejoin:round; stroke-width:.5px;"/><line vector-effect="non-scaling-stroke" x1="54.09" y1="42.55" x2="54.09" y2="51.83" style="fill:#fff; stroke:#535253; stroke-linejoin:round; stroke-width:.5px;"/><line vector-effect="non-scaling-stroke" x1="112.57" y1="58.09" x2="112.57" y2="67.37" style="fill:#fff; stroke:#535253; stroke-linejoin:round; stroke-width:.5px;"/><line vector-effect="non-scaling-stroke" x1="121.57" y1="60.4" x2="121.57" y2="69.68" style="fill:#fff; stroke:#535253; stroke-linejoin:round; stroke-width:.5px;"/><line vector-effect="non-scaling-stroke" x1="128.21" y1="59.11" x2="128.21" y2="68.38" style="fill:#fff; stroke:#535253; stroke-linejoin:round; stroke-width:.5px;"/><line vector-effect="non-scaling-stroke" x1="138.14" y1="47.63" x2="138.14" y2="56.91" style="fill:#fff; stroke:#535253; stroke-linejoin:round; stroke-width:.5px;"/><polyline points="164.41 205.8 40.57 139.59 37.27 141.46 150.74 213.5 164.41 205.8" style="fill:#fd836f;"/><polyline points="176.45 199.02 164.41 205.8 150.74 213.5 138.69 220.28 217.73 244.7 176.45 199.02" style="fill:#fd836f;"/><polygon points="217.52 244.64 217.52 240.13 141.11 215.58 138.8 215.85 138.8 220.31 217.52 244.64" style="fill:#fd836f;"/><polygon points="37.27 141.45 37.3 137.01 41.98 137.08 50.52 143.4 49.34 145.81 37.27 141.45" style="fill:#fd836f;"/><polyline points="164.41 201.36 40.57 135.16 37.27 137.02 150.74 209.06 164.41 201.36" style="fill:#fc3819;"/><polyline points="176.45 194.58 164.41 201.36 150.74 209.06 138.69 215.84 217.73 240.26 176.45 194.58" style="fill:#fc3819;"/></g><g id="Flattened_Top"><path vector-effect="non-scaling-stroke" d="m16.09,14.74c-1.08-.32-2.08-.66-3.02-1.02s-1.97-.74-3.11-1.14c-1.28-.45-2.61-.73-4.02-.85-1.41-.12-2.67.15-3.79.8-1.57.91-2.1,2.03-1.6,3.37.5,1.33,1.88,2.66,4.15,3.97,2.72,1.57,5.8,2.82,9.24,3.74,3.43.92,6.67,1.42,9.73,1.49-.93-1.76-2.03-3.55-3.31-5.38-1.29-1.82-2.71-3.48-4.27-4.97m56.02,32.31c-1.59-.64-3.46-1.26-5.6-1.87-2.14-.61-4.3-1.15-6.48-1.62-2.19-.48-4.16-.84-5.92-1.1-.05,1.19.32,2.46,1.13,3.81.8,1.35,1.91,2.68,3.33,3.99,1.41,1.31,3.02,2.49,4.82,3.53,2.31,1.33,4.64,2.16,6.98,2.47,2.34.32,4.31.01,5.89-.91.91-.53,1.44-1.11,1.58-1.74.14-.63.01-1.26-.38-1.89s-.9-1.25-1.54-1.82c-.67-.51-1.31-.98-1.9-1.42-.59-.44-1.23-.91-1.9-1.42m-3.55-22.98c-1.43-.52-2.79-1.08-4.07-1.67-1.28-.6-2.5-1.24-3.66-1.91-.2-.11-.39-.22-.58-.33-.95-.55-1.84-1.12-2.67-1.72-.99-.72-1.9-1.46-2.75-2.23-2.53,1.25-5.29,2.31-8.29,3.16-3.01.86-6.18,1.49-9.52,1.89-3.35.41-6.73.55-10.16.43.8,1.17,1.64,2.43,2.5,3.77.86,1.35,1.98,2.73,3.34,4.14,1.36,1.41,3.2,2.78,5.49,4.1s4.78,2.46,7.27,3.3c2.49.84,4.95,1.52,7.36,2.03,2.41.52,4.64.98,6.68,1.38-.35-2-.24-3.97.35-5.91.59-1.94,1.62-3.8,3.09-5.58,1.47-1.78,3.34-3.4,5.62-4.87M47.15,1.04c-1.73.2-3.53.44-5.39.72-1.87.28-3.8.6-5.77.97-2.51.46-4.78.77-6.82.94-2.04.16-3.89.25-5.55.25-1.67,0-3.15.01-4.45,0-1.53.01-2.78.08-3.75.19-.97.11-1.88.42-2.73.91-1.18.69-1.57,1.52-1.17,2.51.41.99,1.56,2.03,3.46,3.13l3.44,1.99c1.39.8,2.53,1.65,3.43,2.54.9.89,1.71,1.82,2.45,2.79,3.11.19,6.32.09,9.65-.28,3.31-.38,6.52-.97,9.59-1.77,3.08-.8,5.82-1.76,8.22-2.88-1.44-1.77-2.57-3.68-3.4-5.72-.83-2.04-1.23-4.14-1.2-6.29m47.72,27.05c-2.47.04-4.93-.03-7.36-.2-2.44-.17-4.78-.43-7.04-.78-2.25-.35-4.36-.79-6.29-1.32-2.02,1.43-3.71,3.02-5.09,4.76-1.37,1.74-2.37,3.55-2.98,5.45-.61,1.89-.76,3.79-.42,5.68,1.66.49,3.39,1.06,5.2,1.73,1.81.66,3.58,1.39,5.33,2.19,1.04.53,2.11,1.01,3.2,1.44,1.09.43,2.06.71,2.9.84.54-.86,1.26-1.94,2.16-3.23.89-1.29,1.86-2.69,2.89-4.21,1.05-1.52,2.07-3.04,3.07-4.57,1-1.53,1.89-2.97,2.68-4.32.79-1.35,1.37-2.5,1.76-3.46m22.83,21.14c-.9-.52-1.36-1.15-1.37-1.89-.02-.74.44-1.38,1.35-1.91s1.96-.77,3.24-.76c1.29,0,2.38.26,3.28.78s1.32,1.14,1.32,1.88c.01.74-.42,1.37-1.3,1.88s-2.01.79-3.29.79c-1.27,0-2.35-.26-3.23-.77m14.79-9.49c-2.5-1.44-5.19-2.41-8.09-2.91-2.89-.51-5.85-.6-8.88-.28-3.03.31-6.01.94-8.97,1.87-1.61.51-3.13.87-4.57,1.07-1.44.21-2.8.3-4.09.28-1.28-.03-2.53-.14-3.73-.34-.91,1.43-1.97,3.02-3.21,4.76-1.22,1.74-2.46,3.44-3.72,5.1,1.59.4,3.22.78,4.87,1.13,1.65.36,3.33.75,5.03,1.17,1.7.43,3.36.93,4.99,1.52,1.63.59,3.2,1.32,4.71,2.19,2.9,1.68,5.74,2.95,8.5,3.8,2.76.85,5.3,1.26,7.63,1.24s4.3-.51,5.93-1.46c3.66-2.13,6.26-4.34,7.78-6.64,1.53-2.3,1.95-4.53,1.26-6.69-.69-2.16-2.5-4.1-5.45-5.8M84.83,6.49c-2.87-1.65-5.88-2.97-9.03-3.94-3.24-1-6.67-1.67-10.28-2.01-3.62-.34-7.48-.38-11.58-.11-.29,3.35.56,6.48,2.56,9.41,2,2.93,5,5.55,8.99,7.86s8.75,4.14,13.86,5.26c5.1,1.12,10.6,1.59,16.48,1.4.39-2.43.29-4.68-.32-6.73-.62-2.05-1.78-3.97-3.48-5.77-1.7-1.79-4.03-3.55-6.97-5.25-.07-.04-.14-.08-.22-.13" style="fill:#fff; stroke:#535253; stroke-linejoin:round; stroke-width:.5px;"/><path vector-effect="non-scaling-stroke" d="m311.65,185.7c-1.68-.97-3.41-1.5-5.2-1.61-1.78-.1-3.35.24-4.68,1.02-2.04,1.18-2.68,2.7-1.93,4.56.75,1.86,2.76,3.73,6.06,5.64,2.76,1.6,5.36,2.82,7.8,3.66,2.44.84,4.91,1.41,7.42,1.7l-1.49-9.92c-.25-.11-.5-.24-.77-.37-.26-.13-.54-.28-.82-.44-.47-.27-1.03-.65-1.69-1.14-.66-.48-1.38-1-2.19-1.54-.8-.54-1.62-1.06-2.48-1.56m82.38,23.92c-.84-.48-1.25-1.08-1.23-1.79.02-.71.44-1.3,1.28-1.79s1.92-.77,3.16-.79c1.23-.02,2.28.22,3.14.72s1.32,1.12,1.33,1.81c0,.7-.41,1.29-1.24,1.77-.88.51-1.96.77-3.22.79-1.28.02-2.34-.22-3.21-.72m9.47-36.98c-1.15-.66-2.58-1.32-4.3-1.97-1.72-.65-3.5-1.2-5.36-1.65-1.87-.45-3.59-.71-5.2-.77-1.6-.06-2.85.16-3.74.68-.75.44-1.14,1.22-1.15,2.34-.02,1.12.18,2.38.6,3.78.41,1.39.84,2.71,1.27,3.95l6.04,16.34c-1.29-.04-2.43-.13-3.43-.28-1.01-.15-2-.52-2.98-1.08-.91-.52-1.65-1.16-2.23-1.93-.59-.76-1.11-1.6-1.56-2.52-.45-.92-.93-1.88-1.43-2.88-.92-2.33-1.8-4.5-2.63-6.52-.83-2.02-1.77-3.93-2.83-5.71-1.07-1.79-2.43-3.5-4.1-5.12-1.68-1.63-3.85-3.21-6.53-4.76-3.36-1.94-7.13-3.4-11.33-4.37-4.2-.98-8.77-1.36-13.71-1.15-4.94.21-10.17,1.12-15.69,2.71-.1-.06-.21-.13-.31-.19-1.56-.9-3.32-1.4-5.26-1.49-2.07-.1-3.89.31-5.45,1.22-1.71.99-2.44,2.15-2.2,3.48.23,1.28,1.28,2.46,3.16,3.54.08.05.16.09.25.14-1.02,2.4-1.3,4.63-.81,6.69.5,2.06,1.7,4.04,3.6,5.92,1.91,1.88,4.47,3.75,7.68,5.6.27.15.55.31.85.47.29.16.57.32.84.47l2.13,13.57c.17,1.67.75,3.04,1.72,4.08.98,1.05,2.11,1.95,3.4,2.69,1.09.63,2.43,1.21,4.05,1.74,1.61.53,3.42,1.38,5.43,2.54,1.39.8,2.45,1.51,3.14,2.12.71.61,1.36,1.18,1.94,1.72.59.54,1.39,1.1,2.41,1.69,2.25,1.3,4.49,2.05,6.69,2.24,2.21.19,4.15-.21,5.84-1.19s2.81-2.27,3.17-3.78c.37-1.51-.07-3.15-1.32-4.92-1.26-1.77-3.46-3.57-6.62-5.39-1.63-.94-3.09-1.69-4.36-2.23-1.27-.54-2.45-1.01-3.55-1.39s-2.21-.8-3.35-1.25l4.21-6.68c1.38-2.18,2.01-4.28,1.91-6.3-.1-2.03-.82-3.93-2.16-5.7s-3.21-3.36-5.65-4.77l-3.78-2.18c-.78-.45-1.21-.92-1.29-1.42-.09-.5.24-.96.97-1.38,1.18-.69,2.59-.79,4.22-.3,1.64.48,3.24,1.18,4.82,2.09,4.83,2.79,7.93,6.02,9.29,9.68,1.36,3.66.62,7.66-2.21,12.01l-2.52,3.85c1.22.47,2.45,1,3.67,1.59,1.22.59,2.39,1.21,3.54,1.87.93.53,1.79,1.08,2.62,1.65.81.56,1.58,1.17,2.27,1.8,1.49.27,3.06.57,4.7.87,1.63.3,3.31.62,5.03.95.43,1.15.96,2.3,1.58,3.48.62,1.17,1.5,2.34,2.65,3.53,1.15,1.18,2.76,2.37,4.82,3.56,2.36,1.36,4.68,2.33,7,2.91,2.31.58,4.67.66,7.1.25,2.42-.42,5.01-1.42,7.76-3.02,2.44-1.42,4.35-3,5.74-4.75,1.39-1.74,2.15-3.54,2.28-5.42.14-1.87-.43-3.7-1.7-5.49-1.11-1.58-2.85-3.05-5.22-4.42-.31-.18-.64-.36-.97-.54l3.4-10.41c.98-3.06.81-5.83-.55-8.3-1.35-2.48-3.44-4.54-6.29-6.18" style="fill:#fff; stroke:#535253; stroke-linejoin:round; stroke-width:.5px;"/><path vector-effect="non-scaling-stroke" d="m251.2,196.25L17.27,61.19c-3.03-1.75-7.93-1.75-10.95,0s-3,4.59.04,6.34l233.93,135.06c.89-1.41,2.29-2.74,4.24-3.87s4.23-1.95,6.67-2.47" style="fill:#fff; stroke:#535253; stroke-linejoin:round; stroke-width:.5px;"/><path vector-effect="non-scaling-stroke" d="m295.73,221.96l-20.72-11.96c-.89,1.41-2.28,2.74-4.24,3.87s-4.24,1.95-6.67,2.47l20.72,11.96c3.03,1.75,7.93,1.75,10.95,0s3-4.59-.04-6.34" style="fill:#fff; stroke:#535253; stroke-linejoin:round; stroke-width:.5px;"/><path vector-effect="non-scaling-stroke" d="m268.33,200.19c-5.84-3.37-15.26-3.37-21.06,0s-5.77,8.83.06,12.2,15.27,3.37,21.06,0,5.77-8.83-.07-12.2" style="fill:#fd836f; stroke:#fd836f; stroke-miterlimit:10; stroke-width:.5px;"/></g></svg>