<?xml version="1.0" encoding="UTF-8"?><svg id="Layer_2" xmlns="http://www.w3.org/2000/svg" xmlns:xlink="http://www.w3.org/1999/xlink" viewBox="0 0 755.88 438.54"><defs><pattern id="New_Pattern_Swatch_1" x="0" y="0" width="30" height="300" patternTransform="translate(-159.68 -296.01)" patternUnits="userSpaceOnUse" viewBox="0 0 30 300"><g><rect width="30" height="300" style="fill:none;"/><line x1="29.92" y1="0" x2="29.92" y2="300" style="fill:none; stroke:#feb4a9; stroke-miterlimit:10;"/><line x1="23.92" y1="0" x2="23.92" y2="300" style="fill:none; stroke:#feb4a9; stroke-miterlimit:10;"/><line x1="17.92" y1="0" x2="17.92" y2="300" style="fill:none; stroke:#feb4a9; stroke-miterlimit:10;"/><line x1="11.92" y1="0" x2="11.92" y2="300" style="fill:none; stroke:#feb4a9; stroke-miterlimit:10;"/><line x1="5.92" y1="0" x2="5.92" y2="300" style="fill:none; stroke:#feb4a9; stroke-miterlimit:10;"/><line x1="-.08" y1="0" x2="-.08" y2="300" style="fill:none; stroke:#feb4a9; stroke-miterlimit:10;"/></g></pattern></defs><g id="Activity"><polygon points="1 260.48 448.23 .58 755.63 178.06 308.4 437.96 1 260.48" style="fill:none;"/><polyline points="755.63 178.06 448.23 .58 1 260.48 308.4 437.96 755.63 178.06" style="fill:none; stroke:#feb4a9; stroke-miterlimit:10;"/><path d="M21.32,260.45l287.43,165.95,427.3-248.32L448.62,12.13,21.32,260.45Z" style="fill:url(#New_Pattern_Swatch_1); stroke:#feb4a9; stroke-miterlimit:10; stroke-width:.5px;"/><path d="M448.61,188.62c-1.23-.3-2.66-.91-4.1-1.62,1.44,.71,2.87,1.32,4.1,1.62,0,0,0,0,0,0m.2,0s-.09,.02-.14,.02c-.01,0-.03,0-.04,0h0s.03,0,.04,0c.05,0,.09-.02,.14-.02m-9.16-16.95l2.47-1.49,8.75,4.9-2.61,1.49-8.61-4.91m10.03,5.71l2.59-1.49,4.83,2.74-2.59,1.5-4.83-2.75m-5.64-8.44l2.61-1.48,10.66,6.15-2.58,1.49-10.69-6.16m12.75,7.33l2.58-1.49,6.32,3.61-2.56,1.49-6.34-3.62m-8.32-9.81l2.81-1.41,13.16,7.52-2.56,1.48-13.41-7.59m3.22-5.89c-13.57,7.23-13.64,7.17-26.69,15.04,4.83,2.96,8.45,5.24,13.38,8.09,.62,.36,1.27,.73,1.93,1.11,.67,.36,1.39,.75,2.13,1.14l27.22-2.56c-3.19,1.7-6.9,3.59-8.43,4.14-.05,0-.11,0-.17,.01,.06,0,.11,0,.17-.01,3.8-1.34,4.56-1.52,11.87-5.74l7.45-4.38c-4.32-2.36-8.29-4.58-12.13-6.8-5.62-3.25-10.96-6.47-16.73-10.03" style="fill:#fecdc5;"/><path d="M450.88,175.08l-8.75-4.9-2.47,1.49,8.61,4.91,2.61-1.49m6.23,3.55l-4.83-2.74-2.59,1.49,4.83,2.75,2.59-1.5m.21-5.02l-10.66-6.15-2.61,1.48,10.69,6.16,2.58-1.49m8.38,4.78l-6.32-3.61-2.58,1.49,6.34,3.62,2.56-1.49m-1.24-5.82l-13.16-7.52-2.81,1.41,13.41,7.59,2.56-1.48" style="fill:#fff;"/><path d="M444.51,187c-.69-.34-1.39-.7-2.06-1.06h0c.68,.36,1.38,.72,2.07,1.06" style="fill:#fe9b8c; opacity:.2;"/><path d="M448.81,188.62l-.18,.02s.03,0,.04,0c.05,0,.09-.02,.14-.02m20.85-5.23l-27.22,2.56c.68,.36,1.37,.72,2.06,1.06,1.44,.71,2.87,1.32,4.1,1.62,2.44-.7,4.77-1.55,6.77-2.94,.27,.21,.55,.41,.86,.58,1.52,.88,3.41,1.25,4.84,1.27,.06,0,.11,0,.17-.01,1.53-.54,5.24-2.43,8.43-4.14" style="fill:#fec3ba;"/><path d="M461.36,187.53c-.09,0-.19,0-.29,0-1.43-.02-3.32-.39-4.84-1.27-.3-.17-.59-.37-.86-.58-2,1.39-4.33,2.24-6.77,2.94,0,0,0,0,0,0-.01,0-.03,0-.04,.01h.07s0,0,0,0l.18-.02,12.55-1.08" style="fill:#fd836f;"/><path d="M369.92,231.32c-1.23-.3-2.66-.91-4.1-1.62,1.44,.71,2.87,1.32,4.1,1.62,0,0,0,0,0,0m.2,0s-.09,.02-.14,.02c-.01,0-.03,0-.04,0h0s.03,0,.04,0c.05,0,.09-.02,.14-.02m-9.16-16.95l2.47-1.49,8.75,4.9-2.61,1.49-8.61-4.91m10.03,5.71l2.59-1.49,4.83,2.74-2.59,1.5-4.83-2.75m-5.64-8.44l2.61-1.48,10.66,6.15-2.58,1.49-10.69-6.16m12.75,7.33l2.58-1.49,6.32,3.61-2.56,1.49-6.34-3.62m-8.32-9.81l2.81-1.41,13.16,7.52-2.56,1.48-13.41-7.59m3.22-5.89c-13.57,7.23-13.64,7.17-26.69,15.04,4.83,2.96,8.45,5.24,13.38,8.09,.62,.36,1.27,.73,1.93,1.11,.67,.36,1.39,.75,2.13,1.14l27.22-2.56c-3.19,1.7-6.9,3.59-8.43,4.14-.05,0-.11,0-.17,.01,.06,0,.11,0,.17-.01,3.8-1.34,4.56-1.52,11.87-5.74l7.45-4.38c-4.32-2.36-8.29-4.58-12.13-6.8-5.62-3.25-10.96-6.47-16.73-10.03" style="fill:#fecdc5;"/><path d="M372.19,217.78l-8.75-4.9-2.47,1.49,8.61,4.91,2.61-1.49m6.23,3.55l-4.83-2.74-2.59,1.49,4.83,2.75,2.59-1.5m.21-5.02l-10.66-6.15-2.61,1.48,10.69,6.16,2.58-1.49m8.38,4.78l-6.32-3.61-2.58,1.49,6.34,3.62,2.56-1.49m-1.24-5.82l-13.16-7.52-2.81,1.41,13.41,7.59,2.56-1.48" style="fill:#fff;"/><path d="M365.82,229.7c-.69-.34-1.39-.7-2.06-1.06h0c.68,.36,1.38,.72,2.07,1.06" style="fill:#fe9b8c; opacity:.2;"/><path d="M370.13,231.32l-.18,.02s.03,0,.04,0c.05,0,.09-.02,.14-.02m20.85-5.23l-27.22,2.56c.68,.36,1.37,.72,2.06,1.06,1.44,.71,2.87,1.32,4.1,1.62,2.44-.7,4.77-1.55,6.77-2.94,.27,.21,.55,.41,.86,.58,1.52,.88,3.41,1.25,4.84,1.27,.06,0,.11,0,.17-.01,1.53-.54,5.24-2.43,8.43-4.14" style="fill:#fec3ba;"/><path d="M382.67,230.23c-.09,0-.19,0-.29,0-1.43-.02-3.32-.39-4.84-1.27-.3-.17-.59-.37-.86-.58-2,1.39-4.33,2.24-6.77,2.94,0,0,0,0,0,0-.01,0-.03,0-.04,.01h.07s0,0,0,0l.18-.02,12.55-1.08" style="fill:#fd836f;"/><path d="M511.65,232.16c-1.23-.3-2.66-.91-4.1-1.62,1.44,.71,2.87,1.32,4.1,1.62,0,0,0,0,0,0m.2,0s-.09,.02-.14,.02c-.01,0-.03,0-.04,0h0s.03,0,.04,0c.05,0,.09-.02,.14-.02m-9.16-16.95l2.47-1.49,8.75,4.9-2.61,1.49-8.61-4.91m10.03,5.71l2.59-1.49,4.83,2.74-2.59,1.5-4.83-2.75m-5.64-8.44l2.61-1.48,10.66,6.15-2.58,1.49-10.69-6.16m12.75,7.33l2.58-1.49,6.32,3.61-2.56,1.49-6.34-3.62m-8.32-9.81l2.81-1.41,13.16,7.52-2.56,1.48-13.41-7.59m3.22-5.89c-13.57,7.23-13.64,7.17-26.69,15.04,4.83,2.96,8.45,5.24,13.38,8.09,.62,.36,1.27,.73,1.93,1.11,.67,.36,1.39,.75,2.13,1.14l27.22-2.56c-3.19,1.7-6.9,3.59-8.43,4.14-.05,0-.11,0-.17,.01,.06,0,.11,0,.17-.01,3.8-1.34,4.56-1.52,11.87-5.74l7.45-4.38c-4.32-2.36-8.29-4.58-12.13-6.8-5.62-3.25-10.96-6.47-16.73-10.03" style="fill:#fecdc5;"/><path d="M513.92,218.62l-8.75-4.9-2.47,1.49,8.61,4.91,2.61-1.49m6.23,3.55l-4.83-2.74-2.59,1.49,4.83,2.75,2.59-1.5m.21-5.02l-10.66-6.15-2.61,1.48,10.69,6.16,2.58-1.49m8.38,4.78l-6.32-3.61-2.58,1.49,6.34,3.62,2.56-1.49m-1.24-5.82l-13.16-7.52-2.81,1.41,13.41,7.59,2.56-1.48" style="fill:#fff;"/><path d="M507.55,230.54c-.69-.34-1.39-.7-2.06-1.06h0c.68,.36,1.38,.72,2.07,1.06" style="fill:#fe9b8c; opacity:.2;"/><path d="M511.86,232.15l-.18,.02s.03,0,.04,0c.05,0,.09-.02,.14-.02m20.85-5.23l-27.22,2.56c.68,.36,1.37,.72,2.06,1.06,1.44,.71,2.87,1.32,4.1,1.62,2.44-.7,4.77-1.55,6.77-2.94,.27,.21,.55,.41,.86,.58,1.52,.88,3.41,1.25,4.84,1.27,.06,0,.11,0,.17-.01,1.53-.54,5.24-2.43,8.43-4.14" style="fill:#fec3ba;"/><path d="M524.4,231.07c-.09,0-.19,0-.29,0-1.43-.02-3.32-.39-4.84-1.27-.3-.17-.59-.37-.86-.58-2,1.39-4.33,2.24-6.77,2.94,0,0,0,0,0,0-.01,0-.03,0-.04,.01h.07s0,0,0,0l.18-.02,12.55-1.08" style="fill:#fd836f;"/><path d="M186.74,234.38c-1.23-.3-2.66-.91-4.1-1.62,1.44,.71,2.87,1.32,4.1,1.62,0,0,0,0,0,0m.2,0s-.09,.02-.14,.02c-.01,0-.03,0-.04,0h0s.03,0,.04,0c.05,0,.09-.02,.14-.02m-9.16-16.95l2.47-1.49,8.75,4.9-2.61,1.49-8.61-4.91m10.03,5.71l2.59-1.49,4.83,2.74-2.59,1.5-4.83-2.75m-5.64-8.44l2.61-1.48,10.66,6.15-2.58,1.49-10.69-6.16m12.75,7.33l2.58-1.49,6.32,3.61-2.56,1.49-6.34-3.62m-8.32-9.81l2.81-1.41,13.16,7.52-2.56,1.48-13.41-7.59m3.22-5.89c-13.57,7.23-13.64,7.17-26.69,15.04,4.83,2.96,8.45,5.24,13.38,8.09,.62,.36,1.27,.73,1.93,1.11,.67,.36,1.39,.75,2.13,1.14l27.22-2.56c-3.19,1.7-6.9,3.59-8.43,4.14-.05,0-.11,0-.17,.01,.06,0,.11,0,.17-.01,3.8-1.34,4.56-1.52,11.87-5.74l7.45-4.38c-4.32-2.36-8.29-4.58-12.13-6.8-5.62-3.25-10.96-6.47-16.73-10.03" style="fill:#fecdc5;"/><path d="M189.01,220.84l-8.75-4.9-2.47,1.49,8.61,4.91,2.61-1.49m6.23,3.55l-4.83-2.74-2.59,1.49,4.83,2.75,2.59-1.5m.21-5.02l-10.66-6.15-2.61,1.48,10.69,6.16,2.58-1.49m8.38,4.78l-6.32-3.61-2.58,1.49,6.34,3.62,2.56-1.49m-1.24-5.82l-13.16-7.52-2.81,1.41,13.41,7.59,2.56-1.48" style="fill:#fff;"/><path d="M182.64,232.76c-.69-.34-1.39-.7-2.06-1.06h0c.68,.36,1.38,.72,2.07,1.06" style="fill:#fe9b8c; opacity:.2;"/><path d="M186.94,234.38l-.18,.02s.03,0,.04,0c.05,0,.09-.02,.14-.02m20.85-5.23l-27.22,2.56c.68,.36,1.37,.72,2.06,1.06,1.44,.71,2.87,1.32,4.1,1.62,2.44-.7,4.77-1.55,6.77-2.94,.27,.21,.55,.41,.86,.58,1.52,.88,3.41,1.25,4.84,1.27,.06,0,.11,0,.17-.01,1.53-.54,5.24-2.43,8.43-4.14" style="fill:#fec3ba;"/><path d="M199.49,233.29c-.09,0-.19,0-.29,0-1.43-.02-3.32-.39-4.84-1.27-.3-.17-.59-.37-.86-.58-2,1.39-4.33,2.24-6.77,2.94,0,0,0,0,0,0-.01,0-.03,0-.04,.01h.07s0,0,0,0l.18-.02,12.55-1.08" style="fill:#fd836f;"/><path d="M415.59,221.37c-1.23-.3-2.66-.91-4.1-1.62,1.44,.71,2.87,1.32,4.1,1.62,0,0,0,0,0,0m.2,0s-.09,.02-.14,.02c-.01,0-.03,0-.04,0h0s.03,0,.04,0c.05,0,.09-.02,.14-.02m-9.16-16.95l2.47-1.49,8.75,4.9-2.61,1.49-8.61-4.91m10.03,5.71l2.59-1.49,4.83,2.74-2.59,1.5-4.83-2.75m-5.64-8.44l2.61-1.48,10.66,6.15-2.58,1.49-10.69-6.16m12.75,7.33l2.58-1.49,6.32,3.61-2.56,1.49-6.34-3.62m-8.32-9.81l2.81-1.41,13.16,7.52-2.56,1.48-13.41-7.59m3.22-5.89c-13.57,7.23-13.64,7.17-26.69,15.04,4.83,2.96,8.45,5.24,13.38,8.09,.62,.36,1.27,.73,1.93,1.11,.67,.36,1.39,.75,2.13,1.14l27.22-2.56c-3.19,1.7-6.9,3.59-8.43,4.14-.05,0-.11,0-.17,.01,.06,0,.11,0,.17-.01,3.8-1.34,4.56-1.52,11.87-5.74l7.45-4.38c-4.32-2.36-8.29-4.58-12.13-6.8-5.62-3.25-10.96-6.47-16.73-10.03" style="fill:#fecdc5;"/><path d="M417.85,207.83l-8.75-4.9-2.47,1.49,8.61,4.91,2.61-1.49m6.23,3.55l-4.83-2.74-2.59,1.49,4.83,2.75,2.59-1.5m.21-5.02l-10.66-6.15-2.61,1.48,10.69,6.16,2.58-1.49m8.38,4.78l-6.32-3.61-2.58,1.49,6.34,3.62,2.56-1.49m-1.24-5.82l-13.16-7.52-2.81,1.41,13.41,7.59,2.56-1.48" style="fill:#fff;"/><path d="M411.49,219.75c-.69-.34-1.39-.7-2.06-1.06h0c.68,.36,1.38,.72,2.07,1.06" style="fill:#fe9b8c; opacity:.2;"/><path d="M415.79,221.36l-.18,.02s.03,0,.04,0c.05,0,.09-.02,.14-.02m20.85-5.23l-27.22,2.56c.68,.36,1.37,.72,2.06,1.06,1.44,.71,2.87,1.32,4.1,1.62,2.44-.7,4.77-1.55,6.77-2.94,.27,.21,.55,.41,.86,.58,1.52,.88,3.41,1.25,4.84,1.27,.06,0,.11,0,.17-.01,1.53-.54,5.24-2.43,8.43-4.14" style="fill:#fec3ba;"/><path d="M428.34,220.28c-.09,0-.19,0-.29,0-1.43-.02-3.32-.39-4.84-1.27-.3-.17-.59-.37-.86-.58-2,1.39-4.33,2.24-6.77,2.94,0,0,0,0,0,0-.01,0-.03,0-.04,.01h.07s0,0,0,0l.18-.02,12.55-1.08" style="fill:#fd836f;"/><path d="M246.4,271.57l-43.73-25.25c-3.86-2.23-10.1-2.23-13.94,0s-3.82,5.84,.05,8.07l43.73,25.25c3.86,2.23,10.09,2.23,13.93,0s3.82-5.84-.04-8.07" style="fill:#fc3819;"/><polyline points="196.19 229.22 183.05 241.73 195.91 239.11 207.79 241.94 196.19 229.22" style="fill:#fd836f;"/><path d="M486.89,253.26l-43.73-25.25c-3.86-2.23-10.1-2.23-13.94,0s-3.82,5.84,.05,8.07l43.73,25.25c3.86,2.23,10.09,2.23,13.93,0s3.82-5.84-.04-8.07" style="fill:#fc3819;"/><polyline points="436.67 210.91 423.54 223.42 436.4 220.8 448.28 223.63 436.67 210.91" style="fill:#fd836f;"/></g></svg>