<svg width="362" height="916" viewBox="0 0 362 916" fill="none" xmlns="http://www.w3.org/2000/svg">
<path d="M51.4399 900.06C25.0799 915.28 3.55989 903.02 3.46989 872.72L1.61989 220.7C1.52989 190.41 22.9199 153.38 49.2799 138.16L275.01 7.83999C301.37 -7.38001 322.89 4.87999 322.98 35.17L324.83 687.19C324.92 717.48 303.53 754.52 277.17 769.74L51.4399 900.06ZM275.01 7.00999L49.2799 137.34C22.5299 152.79 0.829888 190.37 0.909888 221.11L2.75989 873.13C2.84989 903.87 24.6899 916.32 51.4399 900.87L277.18 770.54C303.94 755.09 325.63 717.51 325.55 686.77L323.7 34.75C323.61 4.00999 301.78 -8.44001 275.02 7.00999" fill="#535253"/>
<path d="M308.3 15.8L82.5598 146.13C55.9598 161.49 34.4598 198.72 34.5498 229.28L36.3998 881.3C36.4898 911.86 58.1198 924.2 84.7198 908.84L310.46 778.51C337.06 763.15 358.56 725.92 358.47 695.36L356.62 43.34C356.53 12.78 334.9 0.449983 308.3 15.8" fill="white"/>
<path d="M89.3799 873.08C74.3599 881.75 62.1499 874.79 62.1099 857.54L60.7299 371.95C60.7199 366.86 64.2999 360.65 68.7299 358.09L322.92 211.34C327.35 208.78 330.96 210.84 330.97 215.93L332.35 701.52C332.4 718.78 320.27 739.78 305.25 748.45L89.3799 873.08ZM70.6699 340.66C65.1399 343.85 60.6399 341.29 60.6299 334.94L60.5399 302.66C60.5199 296.31 64.9899 288.57 70.5199 285.38L320.73 140.92C326.26 137.73 330.76 140.29 330.77 146.64L330.86 178.92C330.88 185.27 326.41 193.01 320.88 196.2L70.6699 340.66M66.2799 262.66C63.0499 264.53 60.4199 263.03 60.4099 259.32L60.3299 229.85C60.3199 226.14 62.9299 221.62 66.1599 219.75L142.38 175.74C145.62 173.87 148.24 175.37 148.25 179.08L148.33 208.55C148.34 212.26 145.73 216.78 142.49 218.65L66.2699 262.66M157.43 210.03C154.2 211.9 151.57 210.4 151.56 206.69L151.48 177.22C151.47 173.51 154.09 168.98 157.32 167.12L233.54 123.11C236.77 121.24 239.4 122.74 239.41 126.45L239.49 155.92C239.5 159.63 236.88 164.16 233.65 166.02L157.43 210.03ZM248.59 157.4C245.35 159.27 242.73 157.77 242.72 154.06L242.64 124.59C242.63 120.88 245.24 116.36 248.48 114.49L324.7 70.48C327.93 68.61 330.56 70.11 330.57 73.82L330.65 103.29C330.66 107 328.05 111.52 324.82 113.39L248.6 157.4M304.89 32.26L251.06 63.34C248.73 64.69 246.85 67.94 246.86 70.62V72.59C246.9 84.12 238.78 98.18 228.75 103.97L161.3 142.91C151.26 148.71 143.1 144.05 143.06 132.52V130.55C143.05 127.87 141.15 126.79 138.82 128.14L86.0599 158.6C64.7899 170.88 47.6099 200.64 47.6799 225.08L49.5099 870.4C49.5799 894.84 66.8699 904.69 88.1399 892.41L306.97 766.07C328.23 753.79 345.41 724.03 345.34 699.6L343.51 54.28C343.44 29.84 326.15 19.99 304.89 32.26" fill="#FBD5D0"/>
<path d="M233.53 123.1L157.31 167.11C154.08 168.98 151.46 173.5 151.47 177.21L151.55 206.68C151.56 210.39 154.19 211.89 157.42 210.02L233.64 166.01C236.87 164.14 239.49 159.62 239.48 155.91L239.4 126.44C239.39 122.73 236.76 121.23 233.53 123.1Z" fill="white"/>
<path d="M142.37 175.74L66.1499 219.75C62.9199 221.62 60.3099 226.13 60.3199 229.85L60.3999 259.32C60.4099 263.03 63.0398 264.53 66.2698 262.66L142.49 218.65C145.73 216.78 148.34 212.26 148.33 208.55L148.25 179.08C148.24 175.37 145.61 173.87 142.38 175.74" fill="white"/>
<path d="M320.72 140.91L70.5099 285.37C64.9799 288.56 60.5099 296.3 60.5299 302.65L60.6199 334.93C60.6399 341.28 65.1299 343.85 70.6599 340.65L320.87 196.19C326.4 193 330.87 185.26 330.85 178.91L330.76 146.63C330.74 140.28 326.25 137.71 320.72 140.91" fill="white"/>
<path d="M298.13 744.4C283.12 753.07 270.9 746.11 270.86 728.86C270.81 711.61 282.95 690.59 297.96 681.93C312.98 673.26 325.19 680.22 325.23 697.47C325.28 714.73 313.15 735.73 298.13 744.4ZM297.91 667.29C282.9 675.96 270.68 669 270.64 651.75C270.59 634.5 282.73 613.48 297.74 604.82C312.76 596.15 324.97 603.11 325.01 620.36C325.06 637.62 312.93 658.62 297.91 667.29ZM322.91 211.35L68.73 358.1C64.3 360.66 60.72 366.86 60.73 371.96L62.11 857.55C62.16 874.81 74.37 881.76 89.38 873.09L305.25 748.46C320.27 739.79 332.4 718.78 332.35 701.53L330.97 215.94C330.96 210.85 327.35 208.79 322.92 211.35" fill="white"/>
<path d="M324.69 70.47L248.47 114.48C245.23 116.35 242.62 120.87 242.63 124.58L242.71 154.05C242.72 157.76 245.35 159.26 248.58 157.39L324.8 113.38C328.03 111.51 330.64 107 330.63 103.28L330.55 73.81C330.54 70.1 327.91 68.6 324.68 70.47" fill="white"/>
<path d="M297.73 604.8C282.72 613.47 270.58 634.49 270.63 651.73C270.68 668.99 282.89 675.94 297.9 667.27C312.92 658.6 325.05 637.59 325 620.34C324.95 603.09 312.74 596.13 297.73 604.8Z" fill="#FBD5D0"/>
<path d="M297.95 681.92C282.94 690.59 270.8 711.61 270.85 728.85C270.9 746.11 283.11 753.06 298.12 744.39C313.14 735.72 325.27 714.71 325.22 697.46C325.17 680.21 312.96 673.25 297.95 681.92Z" fill="#FBD5D0"/>
<path d="M84.7199 908.44C58.3599 923.66 36.8399 911.4 36.7499 881.1L34.8999 229.08C34.8099 198.79 56.1999 161.76 82.5599 146.54L308.3 16.22C334.66 1.00001 356.18 13.26 356.27 43.55L358.12 695.57C358.21 725.86 336.82 762.9 310.46 778.12L84.7199 908.45M308.29 15.4L82.5599 145.73C55.7999 161.18 34.1099 198.76 34.1899 229.49L36.0399 881.51C36.1299 912.25 57.9599 924.7 84.7199 909.25L310.46 778.92C337.21 763.47 358.91 725.89 358.83 695.15L356.98 43.13C356.89 12.39 335.05 -0.0499849 308.3 15.4" fill="#535253"/>
<path d="M161.29 142.86L228.74 103.92C238.96 98.02 247.24 83.67 247.21 71.93V69.96C247.2 67.52 248.93 64.52 251.05 63.29L304.88 32.21C325.91 20.07 343.08 29.85 343.15 54.02L344.98 699.34C345.05 723.51 327.99 753.06 306.96 765.2L88.13 891.54C67.09 903.69 49.93 893.9 49.86 869.73L48.03 224.41C47.96 200.24 65.02 170.7 86.05 158.55L138.81 128.09C140.94 126.86 142.68 127.86 142.69 130.3V132.27C142.73 144.02 151.07 148.77 161.29 142.87M304.88 31.4L251.05 62.48C248.53 63.94 246.49 67.47 246.49 70.37V72.34C246.53 83.63 238.56 97.44 228.73 103.11L161.28 142.05C151.45 147.72 143.43 143.15 143.4 131.86V129.89C143.39 126.99 141.33 125.82 138.81 127.28L86.05 157.74C64.62 170.11 47.25 200.2 47.32 224.82L49.15 870.14C49.22 894.75 66.71 904.73 88.13 892.36L306.96 766.02C328.39 753.65 345.76 723.55 345.69 698.94L343.86 53.62C343.79 29 326.3 19.03 304.88 31.4" fill="#535253"/>
<path d="M171.76 215.39C169.12 216.91 166.97 215.68 166.96 212.65L166.88 183.18C166.88 180.15 169.01 176.45 171.65 174.92L247.88 130.91C250.52 129.39 252.68 130.61 252.68 133.64L252.76 163.11C252.76 166.14 250.62 169.85 247.99 171.38L171.76 215.39ZM247.87 129.69L171.64 173.7C168.41 175.57 165.8 180.08 165.81 183.8L165.89 213.27C165.9 216.98 168.53 218.48 171.76 216.61L247.99 172.6C251.22 170.73 253.83 166.22 253.82 162.5L253.74 133.03C253.73 129.32 251.1 127.82 247.87 129.69Z" fill="#535253"/>
<path d="M80.6099 268.02C77.9699 269.55 75.8099 268.31 75.8099 265.28L75.7299 235.81C75.7299 232.78 77.8599 229.08 80.4999 227.55L156.72 183.54C159.36 182.02 161.52 183.24 161.52 186.27L161.6 215.74C161.6 218.77 159.46 222.48 156.83 224.01L80.6099 268.02M156.71 182.32L80.4899 226.33C77.2599 228.2 74.6399 232.72 74.6499 236.43L74.7299 265.9C74.7399 269.61 77.3699 271.11 80.5999 269.24L156.82 225.23C160.05 223.36 162.67 218.84 162.66 215.13L162.58 185.66C162.57 181.95 159.94 180.45 156.71 182.32" fill="#535253"/>
<path d="M218.47 262.76C215.83 264.28 213.67 263.06 213.67 260.02L213.59 230.56C213.59 227.52 215.73 223.82 218.36 222.29L333.98 155.54C336.62 154.02 338.78 155.24 338.78 158.28L338.86 187.74C338.86 190.78 336.72 194.48 334.09 196.01L218.47 262.76M333.97 154.31L218.35 221.06C215.12 222.93 212.5 227.46 212.51 231.17L212.59 260.63C212.6 264.34 215.23 265.84 218.46 263.98L334.08 197.23C337.31 195.36 339.92 190.84 339.91 187.13L339.83 157.67C339.82 153.96 337.19 152.45 333.96 154.32" fill="#535253"/>
<path d="M86.47 338.97C83.83 340.5 81.67 339.27 81.67 336.23L81.59 306.77C81.59 303.73 83.72 300.03 86.36 298.5L201.98 231.75C204.62 230.23 206.77 231.45 206.78 234.49L206.86 263.95C206.86 266.99 204.73 270.69 202.09 272.21L86.47 338.96M201.97 230.51L86.35 297.26C83.12 299.13 80.5 303.66 80.51 307.37L80.59 336.83C80.6 340.54 83.23 342.04 86.46 340.18L202.08 273.43C205.31 271.56 207.92 267.04 207.91 263.33L207.83 233.87C207.82 230.16 205.19 228.65 201.96 230.52" fill="#535253"/>
<path d="M84.9899 346.02C80.0599 348.87 76.0299 346.58 76.0199 340.91L75.9299 308.63C75.9099 302.96 79.9199 296.03 84.8499 293.18L335.07 148.71C340.01 145.86 344.03 148.16 344.04 153.83L344.13 186.11C344.15 191.78 340.15 198.7 335.21 201.55L84.9899 346.02ZM335.06 147.49L84.8399 291.96C79.3099 295.15 74.8399 302.89 74.8599 309.24L74.9499 341.52C74.9699 347.87 79.4599 350.44 84.9899 347.24L335.21 202.77C340.74 199.58 345.21 191.84 345.19 185.49L345.1 153.21C345.08 146.86 340.59 144.29 335.06 147.49" fill="#535253"/>
<path opacity="0.5" d="M327.06 686.47C328.91 689.62 329.97 693.78 329.98 698.82C330 706.98 327.3 715.99 322.85 724.13L324.49 726.63L324.18 727.01L322.59 724.6C317.65 733.47 310.65 741.27 302.88 745.76C298.7 748.18 294.73 749.38 291.18 749.48C295.95 754.33 303.71 754.82 312.45 749.77C326.85 741.45 338.53 721.22 338.48 704.67C338.45 694.41 333.92 687.93 327.05 686.48M326.83 609.37C328.69 612.52 329.74 616.68 329.75 621.72C329.8 638.98 317.67 659.98 302.65 668.65C298.47 671.07 294.5 672.27 290.95 672.37C295.72 677.22 303.48 677.71 312.22 672.66C326.62 664.34 338.3 644.11 338.25 627.56C338.22 617.3 333.69 610.82 326.82 609.37M210.87 553.91L320.96 251.36H321.27L211.07 554.22L275.38 651.99C275.84 634.96 287.77 614.65 302.46 606.17C312.29 600.5 320.92 601.52 325.72 607.74C333.82 608.49 339.28 615.42 339.31 626.94C339.36 644.2 327.22 665.21 312.21 673.87C302.38 679.55 293.75 678.52 288.95 672.3C288.87 672.3 288.79 672.29 288.72 672.28L298.02 686.42C299.53 685.25 301.09 684.19 302.67 683.28C312.5 677.6 321.13 678.63 325.93 684.85C334.03 685.6 339.49 692.53 339.52 704.05C339.57 721.31 327.43 742.32 312.42 750.98C302.59 756.66 293.96 755.63 289.16 749.41C281.06 748.66 275.6 741.73 275.57 730.21C275.53 714.93 285.04 696.7 297.64 686.71L288.09 672.2C280.46 671.06 275.38 664.22 275.34 653.1C275.34 653.01 275.34 652.92 275.34 652.82L210.84 554.76L100.75 857.31H100.44L210.64 554.45L97.24 382.04L97.55 381.66L210.84 553.9M337.19 218.75L83.06 365.5C79.02 367.83 75.75 373.5 75.76 378.14L77.14 863.73C77.19 880.51 89.11 887.29 103.71 878.86L319.57 754.23C334.17 745.8 346.01 725.29 345.97 708.52L344.59 222.93C344.58 218.29 341.28 216.42 337.24 218.75" fill="white"/>
<path opacity="0.5" d="M103.71 878.85C89.1098 887.28 77.1898 880.49 77.1398 863.72L75.7598 378.13C75.7498 373.49 79.0198 367.82 83.0598 365.49L337.24 218.74C341.28 216.41 344.57 218.28 344.59 222.92L345.97 708.51C346.02 725.29 334.17 745.79 319.57 754.22L103.71 878.85M337.24 217.93L83.0598 364.68C78.6198 367.24 75.0398 373.45 75.0498 378.54L76.4298 864.13C76.4798 881.39 88.6898 888.34 103.71 879.67L319.57 755.04C334.59 746.37 346.72 725.36 346.67 708.1L345.29 222.51C345.28 217.42 341.67 215.36 337.23 217.93" fill="#535253"/>
<path d="M262.92 162.76C260.28 164.28 258.12 163.05 258.12 160.02L258.04 130.55C258.04 127.52 260.18 123.81 262.81 122.29L339.03 78.28C341.67 76.75 343.83 77.98 343.83 81.01L343.91 110.48C343.91 113.51 341.78 117.22 339.14 118.75L262.92 162.76M339.02 77.06L262.8 121.07C259.57 122.94 256.96 127.45 256.97 131.17L257.05 160.64C257.06 164.35 259.69 165.85 262.92 163.98L339.14 119.97C342.38 118.1 344.99 113.58 344.98 109.87L344.9 80.4C344.89 76.69 342.26 75.19 339.03 77.06" fill="#535253"/>
<path d="M325.75 607.73C326.14 608.24 326.51 608.78 326.85 609.36C333.72 610.82 338.25 617.29 338.28 627.55C338.33 644.1 326.65 664.33 312.25 672.65C303.51 677.69 295.75 677.21 290.98 672.36C290.3 672.38 289.64 672.36 289 672.3C293.8 678.52 302.43 679.54 312.26 673.87C327.27 665.2 339.41 644.19 339.36 626.94C339.33 615.42 333.86 608.49 325.77 607.74" fill="#535253"/>
<path d="M325.97 684.84C326.36 685.35 326.73 685.89 327.07 686.47C333.94 687.93 338.47 694.4 338.5 704.66C338.55 721.21 326.87 741.44 312.47 749.76C303.73 754.8 295.97 754.32 291.2 749.47C290.52 749.49 289.86 749.47 289.22 749.41C294.02 755.63 302.65 756.65 312.48 750.98C327.49 742.31 339.63 721.3 339.58 704.05C339.55 692.52 334.08 685.59 325.99 684.85" fill="#535253"/>
<path opacity="0.7" d="M322.86 724.13C322.78 724.29 322.69 724.44 322.6 724.59L324.19 727L324.5 726.62L322.86 724.12M288.14 672.19L297.69 686.7C297.81 686.6 297.94 686.51 298.06 686.41L288.76 672.27C288.55 672.25 288.35 672.22 288.15 672.19M211.11 554.2L210.91 554.75L275.41 652.81C275.41 652.53 275.41 652.25 275.42 651.98L211.11 554.21M97.6198 381.66L97.3098 382.04L210.71 554.45L210.91 553.9L97.6198 381.66" fill="#9D9D9D"/>
<path opacity="0.7" d="M210.69 554.45L100.49 857.3H100.8L210.89 554.76L210.69 554.45ZM320.98 251.36L210.89 553.91L211.09 554.22L321.29 251.37H320.98" fill="#9D9D9D"/>
<path opacity="0.82" d="M210.89 553.9L210.69 554.45L210.9 554.76L211.1 554.21L210.89 553.9Z" fill="#797979"/>
<path opacity="0.6" d="M312.07 612.62C297.67 620.94 285.98 641.17 286.03 657.72C286.05 664.23 287.88 669.22 290.97 672.37C294.52 672.27 298.48 671.06 302.67 668.65C317.69 659.98 329.82 638.97 329.77 621.72C329.76 616.68 328.7 612.52 326.85 609.37C322.64 608.48 317.55 609.47 312.08 612.63M302.5 606.18C287.81 614.66 275.87 634.97 275.42 652L288.77 672.29C288.85 672.29 288.93 672.31 289 672.31C286.47 669.03 285 664.3 284.98 658.34C284.93 641.09 297.06 620.08 312.08 611.41C317.06 608.53 321.74 607.38 325.76 607.75C320.96 601.53 312.33 600.5 302.5 606.18" fill="#FFDED9"/>
<path d="M312.06 611.39C297.04 620.06 284.91 641.08 284.96 658.32C284.98 664.28 286.44 669.01 288.98 672.29C289.63 672.35 290.29 672.37 290.96 672.35C287.87 669.2 286.04 664.22 286.02 657.7C285.97 641.15 297.66 620.92 312.06 612.6C317.53 609.44 322.62 608.45 326.83 609.34C326.49 608.76 326.13 608.22 325.73 607.71C321.71 607.34 317.03 608.49 312.05 611.37" fill="#75615E"/>
<path opacity="0.6" d="M275.39 652.82C275.39 652.91 275.39 653 275.39 653.1C275.42 664.22 280.51 671.06 288.14 672.2L275.39 652.82Z" fill="#FFDED9"/>
<path opacity="0.76" d="M275.41 651.98C275.41 652.26 275.4 652.54 275.4 652.81L288.15 672.19C288.35 672.22 288.56 672.25 288.76 672.27L275.41 651.98" fill="#B69C99"/>
<path opacity="0.6" d="M303.9 696.16C293.61 706.13 286.21 721.65 286.25 734.83C286.27 741.34 288.1 746.33 291.19 749.48C294.74 749.38 298.7 748.18 302.89 745.76C310.67 741.27 317.67 733.47 322.6 724.6L303.9 696.17M312.29 689.74C309.48 691.36 306.78 693.43 304.25 695.84L322.86 724.14C327.31 716 330.01 706.99 329.99 698.83C329.98 693.79 328.92 689.63 327.07 686.48C322.86 685.59 317.77 686.58 312.29 689.74ZM297.69 686.72C285.09 696.71 275.57 714.94 275.62 730.22C275.65 741.75 281.11 748.68 289.21 749.42C286.68 746.14 285.21 741.41 285.19 735.45C285.15 721.78 292.76 705.76 303.38 695.38L297.69 686.72ZM302.71 683.29C301.12 684.21 299.57 685.26 298.06 686.43L303.73 695.04C306.42 692.46 309.3 690.24 312.29 688.51C317.27 685.63 321.95 684.48 325.97 684.85C321.17 678.63 312.54 677.61 302.71 683.28" fill="#FFDED9"/>
<path d="M303.38 695.37C292.75 705.75 285.15 721.77 285.19 735.44C285.21 741.4 286.67 746.13 289.21 749.41C289.86 749.47 290.52 749.49 291.19 749.47C288.1 746.32 286.27 741.34 286.25 734.82C286.21 721.64 293.61 706.13 303.9 696.15L303.38 695.35M312.29 688.49C309.3 690.22 306.42 692.44 303.73 695.02L304.25 695.82C306.78 693.41 309.49 691.34 312.29 689.72C317.76 686.56 322.85 685.57 327.07 686.46C326.73 685.88 326.36 685.34 325.97 684.83C321.95 684.46 317.27 685.61 312.29 688.49" fill="#75615E"/>
<path opacity="0.76" d="M304.24 695.83C304.12 695.94 304.01 696.05 303.9 696.16L322.6 724.59C322.69 724.44 322.77 724.28 322.86 724.13L304.25 695.83M298.06 686.42C297.94 686.52 297.81 686.61 297.69 686.71L303.38 695.37C303.49 695.26 303.61 695.15 303.72 695.04L298.05 686.43" fill="#B69C99"/>
<path d="M303.72 695.03C303.6 695.14 303.49 695.25 303.38 695.36L303.9 696.16C304.01 696.05 304.13 695.94 304.24 695.83L303.72 695.03Z" fill="#75615E"/>
<path d="M7.98999 399.58L17.21 394.26" stroke="#535253" stroke-linejoin="round"/>
<path d="M15.51 402.23L23.22 397.78" stroke="#535253" stroke-linejoin="round"/>
<path d="M18.0901 408.15L26.0001 403.58" stroke="#535253" stroke-linejoin="round"/>
<path d="M34.6301 238.59L1.36011 229.67" stroke="#535253" stroke-linejoin="round"/>
<path d="M36.3501 883.77L3.08008 874.86" stroke="#535253" stroke-linejoin="round"/>
<path d="M15.6201 479.31L24.8301 473.99" stroke="#535253" stroke-linejoin="round"/>
<path d="M7.98999 487.4L17.21 482.08" stroke="#535253" stroke-linejoin="round"/>
<path d="M15.51 490.05L23.22 485.6" stroke="#535253" stroke-linejoin="round"/>
<path d="M18.0901 495.96L26.0001 491.4" stroke="#535253" stroke-linejoin="round"/>
<path d="M15.6201 567.12L24.8301 561.81" stroke="#535253" stroke-linejoin="round"/>
<path d="M78.02 149.32L44.75 140.4" stroke="#535253" stroke-linejoin="round"/>
<path d="M91.4501 239.86L74.8201 235.4" stroke="#535253" stroke-linejoin="round"/>
<path d="M94.0702 274.54L76.9602 269.2" stroke="#535253" stroke-linejoin="round"/>
<path d="M100.01 345.59L82.9001 340.25" stroke="#535253" stroke-linejoin="round"/>
<path d="M344.5 613.82L327.39 608.48" stroke="#535253" stroke-linejoin="round"/>
<path d="M311.7 681.23L294.59 675.88" stroke="#535253" stroke-linejoin="round"/>
<path d="M346.95 691.74L329.84 686.4" stroke="#535253" stroke-linejoin="round"/>
<path d="M311.7 758.52L294.59 753.17" stroke="#535253" stroke-linejoin="round"/>
<path d="M96.4901 231.9L79.8601 227.45" stroke="#535253" stroke-linejoin="round"/>
<path d="M97.2501 310.87L80.6201 306.41" stroke="#535253" stroke-linejoin="round"/>
<path d="M102.29 302.91L85.6602 298.46" stroke="#535253" stroke-linejoin="round"/>
<path d="M176.94 187.29L158.99 181.86" stroke="#535253" stroke-linejoin="round"/>
<path d="M222.71 235.62L204.76 230.19" stroke="#535253" stroke-linejoin="round"/>
<path d="M232.29 268.94L215.18 263.6" stroke="#535253" stroke-linejoin="round"/>
<path d="M229.53 234.22L212.9 229.76" stroke="#535253" stroke-linejoin="round"/>
<path d="M234.57 226.26L217.94 221.8" stroke="#535253" stroke-linejoin="round"/>
<path d="M355 159.53L337.05 154.1" stroke="#535253" stroke-linejoin="round"/>
<path d="M182.92 186.87L166.29 182.41" stroke="#535253" stroke-linejoin="round"/>
<path d="M185.53 221.55L168.42 216.21" stroke="#535253" stroke-linejoin="round"/>
<path d="M187.95 178.91L171.32 174.46" stroke="#535253" stroke-linejoin="round"/>
<path d="M268.41 134.71L250.45 129.28" stroke="#535253" stroke-linejoin="round"/>
<path d="M273.9 134.23L257.27 129.77" stroke="#535253" stroke-linejoin="round"/>
<path d="M277.47 168.9L260.36 163.56" stroke="#535253" stroke-linejoin="round"/>
<path d="M280.12 126.57L262.35 121.81" stroke="#535253" stroke-linejoin="round"/>
<path d="M359.85 82.11L341.9 76.68" stroke="#535253" stroke-linejoin="round"/>
<path d="M331.35 9.25001L302.11 1.42001" stroke="#535253" stroke-linejoin="round"/>
<path d="M56.23 914.58L21.27 905.67" stroke="#535253" stroke-linejoin="round"/>
<path opacity="0.8" d="M205.86 197.94C202.63 199.81 200 198.3 199.99 194.59C199.98 190.88 202.59 186.36 205.82 184.49L220.49 176.02C223.72 174.15 226.35 175.65 226.36 179.36C226.37 183.07 223.76 187.6 220.53 189.46L205.86 197.93M235.52 180.81C232.29 182.68 229.66 181.17 229.65 177.46C229.64 173.75 232.25 169.23 235.48 167.36L250.15 158.89C253.38 157.02 256.01 158.52 256.02 162.23C256.03 165.94 253.42 170.47 250.19 172.33L235.52 180.8M264.45 135.97L188.22 179.98C185.58 181.5 183.44 185.21 183.45 188.24L183.53 217.71C183.53 220.74 185.69 221.97 188.33 220.44L264.56 176.43C267.2 174.91 269.34 171.2 269.33 168.17L269.25 138.7C269.25 135.67 267.09 134.44 264.45 135.96" fill="white"/>
<path opacity="0.8" d="M113.97 250.99C110.74 252.86 108.11 251.35 108.1 247.64C108.09 243.93 110.7 239.41 113.93 237.54L128.6 229.07C131.83 227.2 134.46 228.7 134.47 232.41C134.48 236.12 131.87 240.65 128.64 242.51L113.97 250.98M143.63 233.86C140.4 235.73 137.77 234.22 137.76 230.51C137.75 226.8 140.36 222.28 143.59 220.41L158.26 211.94C161.49 210.07 164.12 211.57 164.13 215.28C164.14 218.99 161.53 223.52 158.3 225.38L143.63 233.85M173.28 188.6L97.0601 232.61C94.4201 234.14 92.2801 237.85 92.2901 240.88L92.3701 270.35C92.3701 273.38 94.5301 274.61 97.1701 273.08L173.39 229.07C176.03 227.55 178.17 223.84 178.16 220.81L178.08 191.34C178.08 188.31 175.91 187.08 173.28 188.6" fill="white"/>
<path opacity="0.8" d="M298.46 144.48C295.23 146.35 292.6 144.85 292.59 141.13C292.58 137.41 295.2 132.89 298.43 131.03L313.1 122.56C316.34 120.69 318.96 122.19 318.97 125.9C318.98 129.61 316.37 134.14 313.13 136.01L298.46 144.48ZM328.12 127.36C324.89 129.23 322.26 127.72 322.25 124.01C322.24 120.3 324.86 115.77 328.09 113.91L342.76 105.44C346 103.57 348.62 105.07 348.63 108.78C348.64 112.49 346.03 117.02 342.79 118.89L328.12 127.36ZM355.6 83.36L279.38 127.37C276.74 128.89 274.6 132.61 274.61 135.64L274.69 165.11C274.69 168.14 276.86 169.36 279.49 167.84L355.71 123.83C358.35 122.3 360.49 118.6 360.48 115.57L360.4 86.1C360.4 83.07 358.24 81.84 355.6 83.36" fill="white"/>
<path d="M188.33 220.46C185.69 221.98 183.54 220.76 183.53 217.73L183.45 188.26C183.45 185.23 185.58 181.52 188.22 180L264.45 135.99C267.09 134.47 269.24 135.7 269.25 138.73L269.33 168.2C269.33 171.23 267.2 174.93 264.56 176.46L188.33 220.47M264.44 134.77L188.21 178.78C184.98 180.65 182.37 185.16 182.38 188.88L182.46 218.35C182.47 222.06 185.1 223.56 188.33 221.69L264.56 177.68C267.79 175.81 270.4 171.3 270.39 167.58L270.31 138.11C270.3 134.4 267.67 132.9 264.44 134.77Z" fill="#535253"/>
<path d="M97.18 273.09C94.54 274.62 92.38 273.39 92.38 270.36L92.3 240.89C92.3 237.86 94.43 234.15 97.07 232.62L173.29 188.61C175.93 187.09 178.09 188.32 178.09 191.35L178.17 220.82C178.17 223.85 176.03 227.56 173.4 229.08L97.18 273.09M173.28 187.4L97.06 231.41C93.82 233.28 91.21 237.8 91.22 241.51L91.3 270.98C91.31 274.69 93.94 276.19 97.17 274.32L173.39 230.31C176.62 228.44 179.23 223.93 179.22 220.21L179.14 190.74C179.13 187.03 176.5 185.53 173.27 187.4" fill="#535253"/>
<path opacity="0.8" d="M246.75 248.3C243.52 250.17 240.89 248.67 240.88 244.96V243.44C240.87 239.73 243.48 235.2 246.71 233.34L338.83 180.15C342.06 178.28 344.69 179.78 344.7 183.49V185.01C344.71 188.72 342.11 193.24 338.87 195.11L246.75 248.3M350.54 160.62L234.92 227.37C232.28 228.9 230.14 232.6 230.15 235.63L230.23 265.1C230.23 268.13 232.39 269.36 235.03 267.84L350.65 201.09C353.29 199.57 355.43 195.86 355.42 192.83L355.34 163.36C355.34 160.33 353.18 159.1 350.54 160.63" fill="white"/>
<path opacity="0.8" d="M114.75 324.51C111.52 326.38 108.89 324.88 108.88 321.17V319.65C108.87 315.94 111.48 311.41 114.71 309.55L206.83 256.36C210.06 254.49 212.69 255.99 212.7 259.7V261.22C212.71 264.93 210.11 269.45 206.88 271.32L114.76 324.51M218.55 236.83L102.93 303.58C100.29 305.11 98.1499 308.81 98.1599 311.84L98.2399 341.31C98.2399 344.34 100.4 345.57 103.04 344.05L218.66 277.3C221.3 275.78 223.44 272.07 223.43 269.04L223.35 239.57C223.35 236.54 221.19 235.31 218.55 236.84" fill="white"/>
<path d="M235.04 267.84C232.4 269.37 230.24 268.13 230.24 265.1L230.16 235.63C230.16 232.6 232.29 228.9 234.93 227.37L350.55 160.62C353.19 159.1 355.34 160.32 355.35 163.35L355.43 192.82C355.43 195.85 353.3 199.56 350.66 201.08L235.04 267.83M350.54 159.38L234.92 226.13C231.69 228 229.07 232.52 229.08 236.23L229.16 265.7C229.17 269.41 231.8 270.91 235.03 269.04L350.65 202.29C353.88 200.42 356.49 195.91 356.48 192.19L356.4 162.72C356.39 159.01 353.76 157.51 350.53 159.38" fill="#535253"/>
<path d="M103.04 344.05C100.4 345.58 98.2401 344.34 98.2401 341.31L98.1601 311.84C98.1601 308.81 100.29 305.11 102.93 303.58L218.55 236.83C221.19 235.31 223.34 236.53 223.35 239.56L223.43 269.03C223.43 272.06 221.3 275.77 218.66 277.29L103.04 344.04M218.54 235.59L102.92 302.34C99.6901 304.21 97.0701 308.73 97.0801 312.44L97.1601 341.91C97.1701 345.62 99.8001 347.12 103.03 345.25L218.65 278.5C221.88 276.63 224.49 272.12 224.48 268.4L224.4 238.93C224.39 235.22 221.76 233.72 218.53 235.59" fill="#535253"/>
<path d="M206.83 256.36L114.71 309.55C111.48 311.42 108.86 315.94 108.87 319.65V321.17C108.88 324.88 111.52 326.38 114.75 324.51L206.87 271.32C210.1 269.45 212.71 264.94 212.7 261.22V259.7C212.69 255.99 210.06 254.49 206.83 256.36Z" fill="#FD836F"/>
<path d="M338.83 180.15L246.71 233.34C243.48 235.21 240.86 239.73 240.87 243.44V244.96C240.88 248.67 243.52 250.17 246.75 248.3L338.87 195.11C342.1 193.24 344.71 188.73 344.7 185.01V183.49C344.69 179.78 342.06 178.28 338.83 180.15" fill="#FD836F"/>
<path d="M313.08 122.56L298.41 131.03C295.18 132.9 292.56 137.42 292.57 141.13C292.58 144.84 295.21 146.34 298.44 144.48L313.11 136.01C316.35 134.14 318.96 129.61 318.95 125.9C318.94 122.19 316.31 120.69 313.08 122.56" fill="#FD836F"/>
<path d="M342.74 105.44L328.07 113.91C324.84 115.78 322.22 120.3 322.23 124.01C322.24 127.72 324.87 129.22 328.1 127.36L342.77 118.89C346.01 117.02 348.62 112.49 348.61 108.78C348.6 105.07 345.97 103.57 342.74 105.44" fill="#FD836F"/>
<path d="M220.49 176.02L205.82 184.49C202.59 186.36 199.98 190.87 199.99 194.59C200 198.31 202.63 199.81 205.86 197.94L220.53 189.47C223.76 187.6 226.37 183.08 226.36 179.37C226.35 175.66 223.72 174.16 220.49 176.03" fill="#FD836F"/>
<path d="M250.15 158.9L235.48 167.37C232.25 169.24 229.64 173.75 229.65 177.47C229.66 181.19 232.29 182.69 235.52 180.82L250.19 172.35C253.42 170.48 256.03 165.96 256.02 162.25C256.01 158.54 253.38 157.04 250.15 158.91" fill="#FD836F"/>
<path d="M128.61 229.07L113.94 237.54C110.71 239.41 108.1 243.92 108.11 247.64C108.12 251.36 110.75 252.86 113.98 250.99L128.65 242.52C131.88 240.65 134.49 236.13 134.48 232.42C134.47 228.71 131.84 227.21 128.61 229.08" fill="#FD836F"/>
<path d="M158.26 211.95L143.59 220.42C140.36 222.29 137.75 226.8 137.76 230.52C137.77 234.24 140.4 235.74 143.63 233.87L158.3 225.4C161.53 223.53 164.14 219.01 164.13 215.3C164.12 211.59 161.49 210.09 158.26 211.96" fill="#FD836F"/>
<path d="M279.49 167.83C276.85 169.35 274.69 168.13 274.69 165.1L274.61 135.63C274.61 132.6 276.75 128.89 279.38 127.36L355.6 83.35C358.24 81.82 360.4 83.06 360.4 86.09L360.48 115.56C360.48 118.59 358.35 122.29 355.71 123.82L279.49 167.83M355.59 82.14L279.37 126.15C276.14 128.02 273.53 132.53 273.54 136.25L273.62 165.72C273.63 169.43 276.26 170.93 279.49 169.06L355.71 125.05C358.95 123.18 361.56 118.66 361.55 114.95L361.47 85.48C361.46 81.77 358.83 80.27 355.6 82.14" fill="#535253"/>
<path opacity="0.8" d="M328.68 641.81C328.3 642.03 327.99 642.35 327.76 642.77C327.52 643.2 327.4 643.63 327.4 644.07V646.98L324.81 648.48C324.42 648.7 324.1 649.03 323.85 649.45C323.6 649.88 323.48 650.31 323.48 650.75C323.48 651.19 323.61 651.48 323.87 651.6C324.13 651.73 324.44 651.69 324.82 651.47L327.42 649.97V652.77C327.42 653.2 327.55 653.49 327.8 653.64C328.04 653.79 328.35 653.75 328.73 653.53C329.11 653.31 329.43 652.99 329.67 652.57C329.92 652.15 330.04 651.71 330.04 651.27V648.47L332.63 646.97C333.01 646.75 333.33 646.43 333.58 646C333.83 645.58 333.96 645.15 333.96 644.71C333.96 644.27 333.83 643.98 333.58 643.84C333.33 643.7 333.01 643.75 332.62 643.97L330.02 645.47V642.56C330.02 642.12 329.89 641.82 329.64 641.68C329.4 641.54 329.08 641.58 328.69 641.8M328.77 660.79C327.21 661.69 325.74 662.2 324.36 662.31C322.98 662.42 321.76 662.19 320.71 661.59C319.67 660.99 318.84 660.08 318.24 658.83C317.64 657.6 317.34 656.08 317.33 654.28C317.32 652.48 317.62 650.61 318.21 648.69C318.8 646.77 319.62 644.9 320.66 643.1C321.7 641.29 322.91 639.65 324.28 638.17C325.65 636.7 327.11 635.51 328.68 634.61C330.25 633.71 331.72 633.2 333.1 633.08C334.47 632.97 335.69 633.21 336.74 633.81C337.79 634.41 338.61 635.33 339.21 636.57C339.81 637.8 340.11 639.32 340.12 641.12C340.13 642.92 339.84 644.77 339.24 646.7C338.65 648.63 337.84 650.49 336.79 652.29C335.75 654.1 334.54 655.74 333.17 657.21C331.79 658.68 330.33 659.87 328.77 660.77M328.65 617.67C314.25 625.99 302.56 646.22 302.61 662.77C302.66 679.32 314.42 686.02 328.82 677.7C343.22 669.38 354.9 649.16 354.85 632.61C354.8 616.06 343.05 609.36 328.65 617.68" fill="white"/>
<path opacity="0.8" d="M333.64 725.13L324.27 730.54C323.93 730.74 323.64 731.02 323.43 731.38C323.21 731.74 323.1 732.11 323.1 732.48C323.1 732.85 323.21 733.09 323.43 733.19C323.65 733.29 323.93 733.25 324.27 733.05L333.64 727.64C333.99 727.44 334.27 727.16 334.49 726.8C334.7 726.45 334.81 726.09 334.81 725.71C334.81 725.33 334.7 725.09 334.49 724.98C334.27 724.87 333.99 724.92 333.64 725.12M333.63 720.84L324.26 726.25C323.92 726.45 323.63 726.73 323.42 727.09C323.2 727.45 323.09 727.82 323.09 728.19C323.09 728.56 323.2 728.81 323.42 728.91C323.64 729.01 323.92 728.96 324.26 728.76L333.63 723.35C333.98 723.15 334.26 722.88 334.48 722.52C334.69 722.17 334.8 721.81 334.8 721.43C334.8 721.05 334.69 720.82 334.48 720.7C334.26 720.59 333.98 720.64 333.63 720.84ZM333.62 716.57L324.25 721.98C323.91 722.18 323.62 722.46 323.41 722.81C323.19 723.17 323.08 723.53 323.08 723.9C323.08 724.27 323.19 724.5 323.41 724.61C323.63 724.71 323.91 724.67 324.25 724.47L333.62 719.06C333.97 718.86 334.25 718.58 334.47 718.23C334.68 717.87 334.79 717.51 334.79 717.14C334.79 716.77 334.68 716.53 334.47 716.42C334.25 716.32 333.97 716.36 333.62 716.57ZM328.99 737.9C327.43 738.8 325.96 739.31 324.58 739.43C323.2 739.54 321.98 739.31 320.93 738.71C319.89 738.11 319.06 737.19 318.46 735.95C317.86 734.71 317.56 733.19 317.55 731.4C317.54 729.61 317.84 727.73 318.43 725.81C319.02 723.89 319.84 722.02 320.88 720.22C321.92 718.41 323.13 716.77 324.5 715.29C325.87 713.82 327.33 712.63 328.9 711.73C330.47 710.83 331.94 710.32 333.32 710.2C334.69 710.09 335.91 710.33 336.96 710.93C338.01 711.53 338.83 712.45 339.43 713.69C340.03 714.92 340.33 716.44 340.34 718.24C340.35 720.04 340.06 721.89 339.46 723.82C338.87 725.74 338.06 727.61 337.01 729.41C335.97 731.22 334.76 732.86 333.39 734.33C332.01 735.8 330.55 736.99 328.99 737.89M328.87 694.79C314.47 703.11 302.78 723.34 302.83 739.89C302.88 756.44 314.64 763.14 329.04 754.82C343.44 746.5 355.12 726.28 355.07 709.73C355.02 693.18 343.27 686.47 328.87 694.79" fill="white"/>
<path d="M328.81 677.72C314.41 686.04 302.65 679.34 302.6 662.79C302.55 646.24 314.24 626.01 328.64 617.69C343.04 609.37 354.8 616.07 354.84 632.62C354.88 649.17 343.21 669.4 328.81 677.71M328.64 616.46C313.62 625.13 301.49 646.14 301.54 663.39C301.59 680.64 313.8 687.6 328.81 678.93C343.82 670.26 355.96 649.25 355.91 632C355.86 614.75 343.65 607.79 328.64 616.46Z" fill="#535253"/>
<path d="M329.03 754.84C314.63 763.16 302.87 756.46 302.82 739.91C302.77 723.36 314.46 703.12 328.86 694.81C343.26 686.49 355.02 693.2 355.06 709.75C355.1 726.3 343.43 746.53 329.03 754.84M328.86 693.59C313.84 702.26 301.71 723.27 301.76 740.52C301.81 757.77 314.02 764.73 329.03 756.06C344.04 747.39 356.18 726.37 356.13 709.13C356.08 691.87 343.87 684.92 328.86 693.59Z" fill="#535253"/>
<path d="M324.27 733.05C323.93 733.25 323.64 733.29 323.43 733.19C323.21 733.09 323.1 732.85 323.1 732.48C323.1 732.11 323.21 731.73 323.43 731.38C323.65 731.02 323.93 730.74 324.27 730.54L333.64 725.13C333.99 724.93 334.27 724.88 334.49 724.99C334.7 725.1 334.81 725.34 334.81 725.72C334.81 726.1 334.7 726.46 334.49 726.81C334.27 727.16 333.99 727.44 333.64 727.65L324.27 733.06M324.26 728.78C323.92 728.98 323.63 729.03 323.42 728.93C323.2 728.83 323.09 728.59 323.09 728.21C323.09 727.83 323.2 727.47 323.42 727.11C323.64 726.75 323.92 726.47 324.26 726.27L333.63 720.86C333.98 720.66 334.26 720.61 334.48 720.72C334.69 720.83 334.8 721.07 334.8 721.45C334.8 721.83 334.69 722.19 334.48 722.54C334.26 722.89 333.98 723.16 333.63 723.37L324.26 728.78ZM324.25 724.5C323.91 724.7 323.62 724.74 323.41 724.64C323.19 724.53 323.08 724.3 323.08 723.93C323.08 723.56 323.19 723.19 323.41 722.84C323.63 722.49 323.91 722.21 324.25 722.01L333.62 716.6C333.97 716.4 334.25 716.35 334.47 716.45C334.68 716.56 334.79 716.79 334.79 717.17C334.79 717.55 334.68 717.9 334.47 718.26C334.25 718.61 333.97 718.89 333.62 719.09L324.25 724.5ZM328.9 711.76C327.34 712.66 325.87 713.85 324.5 715.32C323.13 716.79 321.92 718.43 320.88 720.25C319.84 722.05 319.02 723.92 318.43 725.84C317.84 727.76 317.55 729.62 317.55 731.43C317.55 733.24 317.86 734.73 318.46 735.98C319.06 737.21 319.89 738.13 320.93 738.74C321.98 739.34 323.2 739.58 324.58 739.46C325.95 739.34 327.42 738.83 328.99 737.93C330.56 737.03 332.02 735.85 333.39 734.37C334.76 732.9 335.97 731.26 337.01 729.45C338.05 727.64 338.87 725.78 339.46 723.86C340.06 721.93 340.34 720.07 340.34 718.28C340.34 716.49 340.04 714.96 339.43 713.73C338.83 712.5 338.01 711.57 336.96 710.97C335.91 710.36 334.69 710.13 333.32 710.24C331.94 710.36 330.47 710.86 328.9 711.77" fill="#FD836F"/>
<path d="M324.82 651.47C324.44 651.69 324.12 651.73 323.87 651.6C323.61 651.48 323.49 651.19 323.48 650.75C323.47 650.31 323.61 649.88 323.85 649.45C324.1 649.03 324.42 648.7 324.81 648.48L327.41 646.98V644.07C327.41 643.63 327.52 643.19 327.76 642.77C328 642.35 328.31 642.03 328.68 641.81C329.05 641.59 329.38 641.55 329.63 641.69C329.88 641.83 330 642.13 330 642.57V645.48L332.61 643.98C333 643.76 333.32 643.71 333.57 643.85C333.82 643.99 333.95 644.28 333.95 644.72C333.95 645.16 333.82 645.59 333.57 646.01C333.32 646.44 333 646.76 332.62 646.98L330.02 648.48V651.28C330.02 651.72 329.91 652.16 329.66 652.58C329.42 653 329.11 653.32 328.72 653.54C328.33 653.76 328.03 653.8 327.79 653.65C327.55 653.5 327.42 653.21 327.42 652.78V649.98L324.81 651.48M328.67 634.64C327.11 635.54 325.64 636.73 324.27 638.2C322.9 639.67 321.69 641.31 320.65 643.13C319.61 644.93 318.79 646.8 318.2 648.72C317.61 650.64 317.32 652.5 317.32 654.31C317.32 656.12 317.63 657.62 318.23 658.86C318.83 660.1 319.66 661.01 320.7 661.62C321.75 662.22 322.97 662.46 324.35 662.34C325.72 662.22 327.19 661.72 328.76 660.82C330.33 659.92 331.79 658.73 333.16 657.26C334.53 655.79 335.74 654.15 336.78 652.34C337.82 650.53 338.64 648.67 339.23 646.75C339.83 644.83 340.11 642.97 340.11 641.17C340.11 639.37 339.81 637.85 339.2 636.62C338.6 635.39 337.78 634.46 336.73 633.86C335.68 633.25 334.46 633.02 333.09 633.13C331.71 633.25 330.24 633.75 328.67 634.66" fill="#FD836F"/>
<path d="M20.11 473.94C17.28 472.31 14.98 468.34 14.99 465.08L15.18 398.5C15.18 395.24 17.5 393.92 20.33 395.56C23.16 397.2 25.46 401.18 25.45 404.43L25.26 471.01C25.26 474.27 22.94 475.58 20.1 473.94M20.32 394.74C17.1 392.88 14.46 394.38 14.45 398.08L14.26 464.66C14.25 468.36 16.87 472.9 20.09 474.76C23.31 476.62 25.95 475.12 25.96 471.42L26.15 404.84C26.16 401.14 23.54 396.6 20.32 394.74" fill="#535253"/>
<path d="M12.3701 478.21C9.54006 476.57 7.24006 472.59 7.25006 469.34L7.44006 402.76C7.44006 399.5 9.76006 398.18 12.6001 399.82C15.4401 401.46 17.7301 405.44 17.7201 408.69L17.5301 475.27C17.5301 478.53 15.2101 479.85 12.3701 478.21ZM12.5901 399.01C9.37006 397.15 6.73006 398.65 6.72006 402.35L6.53006 468.93C6.52006 472.63 9.14006 477.17 12.3601 479.03C15.5801 480.89 18.2201 479.39 18.2301 475.69L18.4201 409.11C18.4301 405.41 15.8101 400.87 12.5901 399.01" fill="#535253"/>
<path d="M20.11 561.76C17.28 560.13 14.98 556.15 14.99 552.89L15.18 486.31C15.18 483.05 17.5 481.73 20.33 483.37C23.16 485.01 25.46 488.99 25.45 492.24L25.26 558.82C25.26 562.08 22.94 563.4 20.1 561.76M20.32 482.56C17.1 480.7 14.46 482.2 14.45 485.9L14.26 552.48C14.25 556.18 16.87 560.72 20.09 562.58C23.31 564.44 25.95 562.94 25.96 559.24L26.15 492.66C26.16 488.96 23.54 484.42 20.32 482.56" fill="#535253"/>
<path d="M12.3701 566.02C9.54006 564.38 7.24006 560.4 7.25006 557.15L7.44006 490.57C7.44006 487.31 9.76006 486 12.6001 487.64C15.4401 489.28 17.7301 493.25 17.7201 496.51L17.5301 563.09C17.5301 566.35 15.2101 567.67 12.3701 566.03M12.5901 486.83C9.37006 484.97 6.73006 486.47 6.72006 490.17L6.53006 556.75C6.52006 560.45 9.14006 564.99 12.3601 566.85C15.5801 568.71 18.2201 567.21 18.2301 563.51L18.4201 496.93C18.4301 493.23 15.8101 488.69 12.5901 486.83" fill="#535253"/>
</svg>
