<?xml version="1.0" encoding="UTF-8"?><svg id="Layer_2" xmlns="http://www.w3.org/2000/svg" xmlns:xlink="http://www.w3.org/1999/xlink" viewBox="0 0 320.25 288.88"><defs><clipPath id="clippath"><polygon points="192.24 100.89 192.51 6.13 316.78 77.88 316.51 172.64 192.24 100.89" style="fill:none;"/></clipPath><clipPath id="clippath-1"><polygon points="188.89 102.96 189.18 .22 320.12 75.81 319.83 178.56 188.89 102.96" style="fill:none;"/></clipPath><clipPath id="clippath-2"><polygon points="188.89 102.96 189.18 .22 320.13 75.82 319.83 178.56 188.89 102.96" style="fill:none; stroke:#535253; stroke-miterlimit:10; stroke-width:.25px;"/></clipPath><pattern id="New_Pattern_Swatch_2" x="0" y="0" width="30" height="300" patternTransform="translate(-2035.29 25.29)" patternUnits="userSpaceOnUse" viewBox="0 0 30 300"><g><rect width="30" height="300" style="fill:none;"/><line x1="29.92" y1="0" x2="29.92" y2="300" style="fill:none; stroke:#feb4a9; stroke-miterlimit:10; stroke-width:.5px;"/><line x1="23.92" y1="0" x2="23.92" y2="300" style="fill:none; stroke:#feb4a9; stroke-miterlimit:10; stroke-width:.5px;"/><line x1="17.92" y1="0" x2="17.92" y2="300" style="fill:none; stroke:#feb4a9; stroke-miterlimit:10; stroke-width:.5px;"/><line x1="11.92" y1="0" x2="11.92" y2="300" style="fill:none; stroke:#feb4a9; stroke-miterlimit:10; stroke-width:.5px;"/><line x1="5.92" y1="0" x2="5.92" y2="300" style="fill:none; stroke:#feb4a9; stroke-miterlimit:10; stroke-width:.5px;"/><line x1="-.08" y1="0" x2="-.08" y2="300" style="fill:none; stroke:#feb4a9; stroke-miterlimit:10; stroke-width:.5px;"/></g></pattern><clipPath id="clippath-3"><polygon points="98.74 156.07 99 61.31 223.28 133.06 223.01 227.82 98.74 156.07" style="fill:none;"/></clipPath><clipPath id="clippath-4"><polygon points="95.39 158.14 95.68 55.4 226.62 130.99 226.33 233.74 95.39 158.14" style="fill:none;"/></clipPath><clipPath id="clippath-5"><polygon points="95.39 158.14 95.68 55.4 226.62 130.99 226.33 233.74 95.39 158.14" style="fill:none; stroke:#535253; stroke-miterlimit:10; stroke-width:.25px;"/></clipPath><clipPath id="clippath-6"><polygon points="3.47 211 3.74 116.24 128.01 187.99 127.74 282.75 3.47 211" style="fill:none;"/></clipPath><clipPath id="clippath-7"><polygon points=".13 213.07 .42 110.32 131.36 185.92 131.07 288.66 .13 213.07" style="fill:none;"/></clipPath><clipPath id="clippath-8"><polygon points=".13 213.07 .42 110.32 131.36 185.92 131.07 288.67 .13 213.07" style="fill:none; stroke:#535253; stroke-miterlimit:10; stroke-width:.25px;"/></clipPath></defs><g id="Diagram"><g><g><g style="opacity:.4;"><g style="isolation:isolate;"><g style="clip-path:url(#clippath);"><g><polyline points="316.69 77.93 192.59 6.28 192.32 100.84 316.43 172.49 316.69 77.93" style="fill:#fff; stroke:#535253; stroke-miterlimit:10; stroke-width:.25px;"/><path d="M192.32,100.84l.27-94.56,124.1,71.65-.27,94.56-124.1-71.65m124.46-22.96L192.51,6.13l-.27,94.76,124.27,71.75,.27-94.76" style="fill:#535253;"/></g></g></g></g><g style="isolation:isolate;"><g style="clip-path:url(#clippath-1);"><path d="M188.98,102.91l.29-102.55,130.77,75.5-.29,102.55L188.98,102.91m131.15-27.1L189.18,.22l-.29,102.75,130.94,75.6,.29-102.75" style="fill:#535253;"/></g></g></g><g style="isolation:isolate;"><g style="clip-path:url(#clippath-2);"><path d="M188.98,102.91l.29-102.55,130.77,75.5-.29,102.55L188.98,102.91m131.15-27.1L189.18,.22l-.29,102.75,130.94,75.6,.29-102.75" style="fill:#535253;"/></g><polygon points="188.89 102.96 189.18 .22 320.13 75.82 319.83 178.56 188.89 102.96" style="fill:none; stroke:#535253; stroke-miterlimit:10; stroke-width:.25px;"/></g><g><path d="M216.54,55.23l12.48,4.37,.17,.1-.09,30.96s.02,.07,.05,.1l6.89,5.06v2.25s-19.11-11.03-19.11-11.03v-2.27s7.08,3.08,7.08,3.08c.02,0,.03,.01,.05,.01,.02,0,.05,0,.07-.02,.03-.02,.05-.06,.05-.1l.07-25.37s-.02-.08-.06-.1l-7.65-4.42v-2.63m-.11-.17v2.86s7.71,4.45,7.71,4.45l-.07,25.37-7.24-3.16v2.52s19.34,11.17,19.34,11.17v-2.52s-6.93-5.1-6.93-5.1l.09-31.03-.24-.14-12.65-4.43h0Z" style="fill:#535253; stroke:#535253; stroke-miterlimit:10; stroke-width:.5px;"/><path d="M244.12,80.2c.53,0,1.13,.18,1.71,.52,2.22,1.28,4.09,4.49,4.08,7,0,1.71-.88,2.81-2.22,2.81-.55,0-1.16-.19-1.76-.54-2.19-1.26-4.03-4.48-4.02-7.04,0-1.67,.88-2.75,2.22-2.75m0-.12c-1.36,0-2.33,1.07-2.34,2.87,0,2.59,1.89,5.87,4.08,7.14,.65,.37,1.27,.55,1.82,.55,1.37,0,2.34-1.08,2.34-2.93,0-2.52-1.89-5.8-4.14-7.1-.63-.36-1.23-.53-1.77-.53h0Z" style="fill:#535253; stroke:#535253; stroke-miterlimit:10; stroke-width:.5px;"/><path d="M263.49,80.29c1.39,0,2.92,.5,4.69,1.52,4.93,2.85,8.24,8.24,8.22,13.42,0,2.63-.83,4.76-2.6,6.7-1.66,1.81-4.02,3.34-6.7,5.01l-3.57,2.17s-.06,.06-.06,.1c0,.04,.02,.08,.06,.1l16.02,9.25v4.63s-21.79-12.57-21.79-12.57v-1.64s2.09-1.39,2.09-1.39c1.09-.72,2.09-1.36,3.06-1.98,5.26-3.36,8.43-5.39,8.44-10.36,.01-4.22-2.37-8.54-5.8-10.52-.95-.55-1.83-.82-2.69-.82-1.06,0-2.08,.4-3.29,1.28l-1.36-1.91c1.29-1.49,2.92-2.99,5.27-2.99m0-.12c-2.29,0-3.91,1.34-5.42,3.11l1.48,2.08c1.12-.84,2.17-1.33,3.32-1.33,.81,0,1.67,.25,2.63,.8,3.44,1.99,5.75,6.33,5.74,10.42-.02,5.8-4.36,7.52-11.45,12.24l-2.14,1.43v1.77s22.01,12.71,22.01,12.71v-4.91s-16.07-9.29-16.07-9.29l3.57-2.17c5.48-3.4,9.35-6.08,9.37-11.81,.01-4.84-2.94-10.44-8.28-13.53-1.87-1.08-3.42-1.53-4.75-1.53h0Z" style="fill:#535253; stroke:#535253; stroke-miterlimit:10; stroke-width:.5px;"/></g></g><g><g style="opacity:.2;"><path d="M193.18,116.13c-1.04-.6-1.88-2.06-1.88-3.25l.11-38.98c0-1.19,.85-1.67,1.89-1.08l56.53,32.64c1.04,.6,1.88,2.06,1.88,3.25l-.11,38.97c0,1.19-.85,1.68-1.89,1.08l-26.39-15.23c-.66-.38-1.32-.44-1.89-.22l-12.66,5.38-.63-10.88c-.09-1.79-1.31-3.79-2.82-4.66l-12.16-7.02m56.68-17.17l-56.54-32.64c-4.14-2.39-7.55-.46-7.56,4.31l-.11,38.98c-.01,4.76,3.37,10.62,7.51,13.02l9.52,5.49,.81,14.57c.09,1.24,.75,2.71,1.69,3.79l1.13,.87c.66,.38,1.32,.44,1.79,.17l16.25-6.88,25.35,14.64c4.14,2.39,7.55,.46,7.56-4.31l.11-38.98c.01-4.76-3.37-10.62-7.52-13.01" style="fill:#fe9b8c;"/></g><path d="M189.66,118.16c-1.04-.6-1.88-2.06-1.88-3.25l.11-38.98c0-1.19,.85-1.67,1.89-1.08l56.53,32.64c1.04,.6,1.88,2.06,1.88,3.25l-.11,38.97c0,1.19-.85,1.68-1.89,1.08l-26.39-15.23c-.66-.38-1.32-.44-1.89-.22l-12.66,5.38-.63-10.88c-.09-1.79-1.31-3.79-2.82-4.66l-12.16-7.02m56.68-17.17l-56.54-32.64c-4.14-2.39-7.55-.46-7.56,4.31l-.11,38.98c-.01,4.76,3.37,10.62,7.51,13.02l9.52,5.49,.81,14.57c.09,1.24,.75,2.71,1.69,3.79l1.13,.87c.66,.38,1.32,.44,1.79,.17l16.25-6.88,25.35,14.64c4.14,2.39,7.55,.46,7.56-4.31l.11-38.98c.01-4.76-3.37-10.62-7.52-13.01" style="fill:#fff; stroke:#535253; stroke-miterlimit:10; stroke-width:.25px;"/><path d="M188.71,118.7c-1.04-.6-1.88-2.06-1.88-3.25l.11-38.98c0-1.19,.85-1.67,1.89-1.08l56.53,32.64c1.04,.6,1.88,2.06,1.88,3.25l-.11,38.97c0,1.19-.85,1.68-1.89,1.08l-26.39-15.23c-.66-.38-1.32-.44-1.89-.22l-12.66,5.38-.63-10.88c-.09-1.79-1.31-3.79-2.82-4.66l-12.16-7.02m56.68-17.17l-56.54-32.64c-4.14-2.39-7.55-.46-7.56,4.31l-.11,38.98c-.01,4.76,3.37,10.62,7.51,13.02l9.52,5.49,.81,14.57c.09,1.24,.75,2.71,1.69,3.79l1.13,.87c.66,.38,1.32,.44,1.79,.17l16.25-6.88,25.35,14.64c4.14,2.39,7.55,.46,7.56-4.31l.11-38.98c.01-4.76-3.37-10.62-7.52-13.01" style="fill:url(#New_Pattern_Swatch_2); stroke:#feb4a9; stroke-miterlimit:10; stroke-width:.5px;"/></g><polygon points="213.37 103.15 213.38 108.07 187.75 125.1 187.75 126.47 188.92 127.21 213.4 113.88 213.41 118.8 214.58 119.55 226.35 104.91 225.19 104.17 213.37 103.15" style="fill:#fd836f;"/><polygon points="214.54 103.89 214.55 108.82 188.91 125.84 188.92 127.21 214.57 114.62 214.58 119.55 226.35 104.91 214.54 103.89" style="fill:#fc3819;"/><g><g><g style="opacity:.4;"><g style="isolation:isolate;"><g style="clip-path:url(#clippath-3);"><g><polyline points="223.19 133.11 99.09 61.46 98.82 156.02 222.92 227.67 223.19 133.11" style="fill:#fff; stroke:#535253; stroke-miterlimit:10; stroke-width:.25px;"/><path d="M98.82,156.02l.27-94.56,124.1,71.65-.27,94.56-124.1-71.65m124.46-22.96L99,61.31l-.27,94.76,124.27,71.75,.27-94.76" style="fill:#535253;"/></g></g></g></g><g style="isolation:isolate;"><g style="clip-path:url(#clippath-4);"><path d="M95.48,158.09l.29-102.55,130.77,75.5-.29,102.55L95.48,158.09m131.15-27.1L95.68,55.4l-.29,102.75,130.94,75.6,.29-102.75" style="fill:#535253;"/></g></g></g><g style="isolation:isolate;"><g style="clip-path:url(#clippath-5);"><path d="M95.48,158.09l.29-102.55,130.77,75.5-.29,102.55L95.48,158.09m131.15-27.1L95.68,55.4l-.29,102.75,130.94,75.6,.29-102.75" style="fill:#535253;"/></g><polygon points="95.39 158.14 95.68 55.4 226.62 130.99 226.33 233.74 95.39 158.14" style="fill:none; stroke:#535253; stroke-miterlimit:10; stroke-width:.25px;"/></g><g><path d="M123.15,110.76l12.48,4.37,.17,.1-.09,30.96s.02,.07,.05,.1l6.89,5.06v2.25s-19.11-11.03-19.11-11.03v-2.27s7.08,3.08,7.08,3.08c.02,0,.03,.01,.05,.01,.02,0,.05,0,.07-.02,.03-.02,.05-.06,.05-.1l.07-25.37s-.02-.08-.06-.1l-7.65-4.42v-2.63m-.11-.17v2.86s7.71,4.45,7.71,4.45l-.07,25.37-7.24-3.16v2.52s19.34,11.17,19.34,11.17v-2.52s-6.93-5.1-6.93-5.1l.09-31.03-.24-.14-12.65-4.43h0Z" style="fill:#535253; stroke:#535253; stroke-miterlimit:10; stroke-width:.5px;"/><path d="M150.73,135.73c.53,0,1.13,.18,1.71,.52,2.22,1.28,4.09,4.49,4.08,7,0,1.7-.88,2.81-2.22,2.81-.55,0-1.16-.19-1.76-.54-2.19-1.26-4.03-4.48-4.02-7.03,0-1.67,.88-2.75,2.22-2.75m0-.12c-1.36,0-2.33,1.07-2.34,2.87,0,2.59,1.89,5.87,4.08,7.14,.65,.37,1.27,.55,1.82,.55,1.37,0,2.34-1.08,2.34-2.93,0-2.52-1.89-5.8-4.14-7.1-.63-.36-1.23-.53-1.77-.53h0Z" style="fill:#535253; stroke:#535253; stroke-miterlimit:10; stroke-width:.5px;"/><path d="M163.56,134.1l12.48,4.37,.17,.1-.09,30.96s.02,.07,.05,.1l6.89,5.06v2.25s-19.11-11.03-19.11-11.03v-2.27s7.08,3.09,7.08,3.09c.02,0,.03,.01,.05,.01,.02,0,.05,0,.07-.02,.03-.02,.05-.06,.05-.1l.07-25.37s-.02-.08-.06-.1l-7.66-4.42v-2.63m-.11-.17v2.86s7.71,4.46,7.71,4.46l-.07,25.37-7.24-3.16v2.52s19.34,11.17,19.34,11.17v-2.52s-6.93-5.1-6.93-5.1l.09-31.03-.24-.14-12.65-4.43h0Z" style="fill:#535253; stroke:#535253; stroke-miterlimit:10; stroke-width:.5px;"/></g></g><g><g style="opacity:.2;"><path d="M98.52,170.7c-1.04-.6-1.88-2.06-1.88-3.25l.11-38.98c0-1.19,.85-1.67,1.89-1.08l56.53,32.64c1.04,.6,1.88,2.06,1.88,3.25l-.11,38.97c0,1.19-.85,1.68-1.89,1.08l-26.39-15.23c-.66-.38-1.32-.44-1.89-.22l-12.66,5.38-.63-10.88c-.09-1.79-1.31-3.79-2.82-4.66l-12.16-7.02m56.68-17.17l-56.54-32.64c-4.14-2.39-7.55-.46-7.56,4.31l-.11,38.98c-.01,4.76,3.37,10.62,7.51,13.02l9.52,5.49,.81,14.57c.09,1.24,.75,2.71,1.69,3.79l1.13,.87c.66,.38,1.32,.44,1.79,.17l16.25-6.88,25.35,14.64c4.14,2.39,7.55,.46,7.56-4.31l.11-38.98c.01-4.76-3.37-10.62-7.52-13.01" style="fill:#fe9b8c;"/></g><path d="M95,172.73c-1.04-.6-1.88-2.06-1.88-3.25l.11-38.98c0-1.19,.85-1.67,1.89-1.08l56.53,32.64c1.04,.6,1.88,2.06,1.88,3.25l-.11,38.97c0,1.19-.85,1.68-1.89,1.08l-26.39-15.23c-.66-.38-1.32-.44-1.89-.22l-12.66,5.38-.63-10.88c-.09-1.79-1.31-3.79-2.82-4.66l-12.16-7.02m56.68-17.17l-56.54-32.64c-4.14-2.39-7.55-.46-7.56,4.31l-.11,38.98c-.01,4.76,3.37,10.62,7.51,13.02l9.52,5.49,.81,14.57c.09,1.24,.75,2.71,1.69,3.79l1.13,.87c.66,.38,1.32,.44,1.79,.17l16.25-6.88,25.35,14.64c4.14,2.39,7.55,.46,7.56-4.31l.11-38.98c.01-4.76-3.37-10.62-7.52-13.01" style="fill:#fff; stroke:#535253; stroke-miterlimit:10; stroke-width:.25px;"/><path d="M94.05,173.27c-1.04-.6-1.88-2.06-1.88-3.25l.11-38.98c0-1.19,.85-1.67,1.89-1.08l56.53,32.64c1.04,.6,1.88,2.06,1.88,3.25l-.11,38.97c0,1.19-.85,1.68-1.89,1.08l-26.39-15.23c-.66-.38-1.32-.44-1.89-.22l-12.66,5.38-.63-10.88c-.09-1.79-1.31-3.79-2.82-4.66l-12.16-7.02m56.68-17.17l-56.54-32.64c-4.14-2.39-7.55-.46-7.56,4.31l-.11,38.98c-.01,4.76,3.37,10.62,7.51,13.02l9.52,5.49,.81,14.57c.09,1.24,.75,2.71,1.69,3.79l1.13,.87c.66,.38,1.32,.44,1.79,.17l16.25-6.88,25.35,14.64c4.14,2.39,7.55,.46,7.56-4.31l.11-38.98c.01-4.76-3.37-10.62-7.52-13.01" style="fill:url(#New_Pattern_Swatch_2); stroke:#feb4a9; stroke-miterlimit:10; stroke-width:.5px;"/></g><polygon points="112.62 161.21 112.63 166.13 86.99 183.16 87 184.53 88.27 185.4 112.65 171.94 112.66 176.86 113.94 177.74 125.71 163.1 124.44 162.23 112.62 161.21" style="fill:#fd836f;"/><polygon points="113.89 162.09 113.9 167.01 88.27 184.03 88.27 185.4 113.92 172.82 113.94 177.74 125.71 163.1 113.89 162.09" style="fill:#fc3819;"/><g><g><g style="opacity:.4;"><g style="isolation:isolate;"><g style="clip-path:url(#clippath-6);"><g><polyline points="127.93 188.04 3.82 116.39 3.56 210.95 127.66 282.6 127.93 188.04" style="fill:#fff; stroke:#535253; stroke-miterlimit:10; stroke-width:.25px;"/><path d="M3.56,210.95l.27-94.56,124.1,71.65-.27,94.56L3.56,210.95m124.46-22.96L3.74,116.24l-.27,94.76,124.27,71.75,.27-94.76" style="fill:#535253;"/></g></g></g></g><g style="isolation:isolate;"><g style="clip-path:url(#clippath-7);"><path d="M.21,213.02l.29-102.55,130.77,75.5-.29,102.55L.21,213.02m131.15-27.1L.42,110.32,.13,213.07l130.94,75.6,.29-102.75" style="fill:#535253;"/></g></g></g><g style="opacity:.5;"><g style="isolation:isolate;"><g style="clip-path:url(#clippath-8);"><path d="M.21,213.02l.29-102.55,130.77,75.5-.29,102.55L.21,213.02m131.15-27.1L.42,110.32,.13,213.07l130.94,75.6,.29-102.75" style="fill:#535253; stroke:#535253; stroke-miterlimit:10; stroke-width:.25px;"/></g><polygon points=".13 213.07 .42 110.32 131.36 185.92 131.07 288.67 .13 213.07" style="fill:none; stroke:#535253; stroke-miterlimit:10; stroke-width:.25px;"/></g></g><g><path d="M40.68,201.04l.09-30.99s-.02-.06-.04-.07l-.25-.14-12.65-4.43s-.03,0-.03,.03v2.86s.01,.06,.03,.07l7.67,4.43-.07,25.28-7.21-3.14s-.04,0-.04,.03v2.52s.01,.06,.04,.07l19.35,11.17s.04,0,.04-.02v-2.52s0-.05-.03-.07l-6.9-5.07Zm6.85,7.57l-19.26-11.12v-2.43s7.21,3.14,7.21,3.14c.02,0,.04,0,.04-.03l.07-25.37s-.02-.06-.04-.07l-7.67-4.43v-2.78s12.61,4.42,12.61,4.42l.19,.11-.09,30.98s.02,.05,.04,.07l6.9,5.07v2.43Z" style="fill:#535253; stroke:#535253; stroke-miterlimit:10; stroke-width:.5px;"/><path d="M57.32,190.96c-2.2-1.27-4.14-.17-4.15,2.37,0,2.62,1.88,5.92,4.12,7.21,2.27,1.31,4.2,.22,4.21-2.4,0-2.58-1.91-5.86-4.18-7.18Zm-.03,9.48c-2.2-1.27-4.05-4.5-4.04-7.07,0-2.48,1.91-3.56,4.07-2.32,2.23,1.29,4.1,4.51,4.1,7.03,0,2.56-1.9,3.64-4.12,2.35Z" style="fill:#535253; stroke:#535253; stroke-miterlimit:10; stroke-width:.5px;"/><path d="M85.89,198.71c-2.45-1.42-4.72-1.42-6.38-.01-1.77,1.5-2.71,4.43-2.72,8.47-.01,4.09,.78,8.57,2.17,12.28,1.8,4.8,4.6,8.41,8.09,10.43,2.52,1.45,4.78,1.42,6.38-.1,1.65-1.57,2.53-4.59,2.54-8.73,.03-9.55-4.21-18.94-10.09-22.33Zm7.47,30.96c-1.58,1.5-3.82,1.54-6.31,.1-3.51-2.03-6.21-5.51-8.02-10.33-1.38-3.7-2.17-8.15-2.16-12.23,.01-4.01,.95-6.93,2.7-8.42,1.64-1.4,3.89-1.39,6.31,0,5.82,3.36,10.03,12.69,10,22.19-.01,4.12-.89,7.12-2.53,8.68Z" style="fill:#535253; stroke:#535253; stroke-miterlimit:10; stroke-width:.5px;"/><path d="M97.77,207.76c-2.82-5.07-6.76-9.17-11.4-11.85-8.24-4.76-15.5-.4-15.53,9.32-.03,10.88,6.29,21.85,15.72,27.29,4.07,2.35,7.93,2.63,10.85,.78,2.84-1.79,4.48-5.49,4.49-10.14,.01-5.11-1.46-10.58-4.14-15.41Zm-.41,25.45c-2.91,1.84-6.75,1.56-10.79-.77-9.38-5.42-15.66-16.33-15.63-27.15,.03-9.67,7.24-14.01,15.44-9.28,4.61,2.66,8.53,6.74,11.33,11.78,2.67,4.81,4.13,10.25,4.12,15.33-.01,4.62-1.64,8.3-4.47,10.08Z" style="fill:#535253; stroke:#535253; stroke-miterlimit:10; stroke-width:.5px;"/></g></g></g></svg>