<svg width="16" height="16" viewBox="0 0 16 16" fill="none" xmlns="http://www.w3.org/2000/svg">
<path d="M11.5672 7.75C11.5672 8.16533 11.4459 8.492 11.2032 8.73C10.9605 8.968 10.5779 9.136 10.0552 9.23399V9.738C10.4845 9.91066 10.7832 10.144 10.9512 10.438C11.1192 10.7273 11.2032 11.11 11.2032 11.586C11.2032 12.0807 11.0749 12.51 10.8182 12.874C10.5615 13.238 10.2069 13.5157 9.75422 13.707C9.30622 13.8983 8.79522 13.994 8.22122 13.994C7.45122 13.994 6.82588 13.9193 6.34522 13.77C5.86455 13.6207 5.50288 13.3827 5.26022 13.056C5.01755 12.734 4.87988 12.3047 4.84722 11.768L6.34522 11.306C6.33588 11.362 6.33122 11.446 6.33122 11.558C6.33122 11.9967 6.48522 12.3023 6.79322 12.475C7.10122 12.6477 7.57255 12.734 8.20722 12.734C9.28055 12.734 9.81722 12.3653 9.81722 11.628C9.81722 11.3527 9.76355 11.1427 9.65622 10.998C9.55355 10.8487 9.35055 10.7273 9.04722 10.634C8.74855 10.5407 8.27722 10.452 7.63322 10.368C6.76988 10.2513 6.10722 10.102 5.64522 9.92C5.18788 9.738 4.87055 9.50933 4.69322 9.23399C4.51588 8.95866 4.42722 8.59933 4.42722 8.156C4.42722 7.74066 4.54855 7.414 4.79122 7.176C5.03388 6.938 5.41655 6.77 5.93922 6.672V6.161C5.50522 5.98833 5.20188 5.75733 5.02922 5.468C4.86122 5.174 4.77722 4.78666 4.77722 4.30599C4.77722 3.81133 4.90555 3.382 5.16222 3.01799C5.42355 2.654 5.78055 2.37633 6.23322 2.185C6.68588 1.99366 7.19922 1.89799 7.77322 1.89799C8.54322 1.89799 9.16855 1.97499 9.64922 2.12899C10.1299 2.27833 10.4915 2.51633 10.7342 2.843C10.9769 3.16966 11.1145 3.60133 11.1472 4.138L9.64922 4.6C9.64922 4.54866 9.65155 4.502 9.65622 4.46C9.66088 4.418 9.66322 4.38066 9.66322 4.348C9.66322 3.90933 9.50688 3.60366 9.19422 3.43099C8.88622 3.25833 8.41255 3.172 7.77322 3.172C6.70922 3.172 6.17722 3.54066 6.17722 4.278C6.17722 4.55333 6.22855 4.76333 6.33122 4.908C6.43388 5.05266 6.63688 5.174 6.94022 5.272C7.24355 5.36533 7.71722 5.45399 8.36122 5.53799C9.21988 5.65466 9.87788 5.804 10.3352 5.98599C10.7972 6.16333 11.1169 6.392 11.2942 6.672C11.4762 6.94733 11.5672 7.30666 11.5672 7.75ZM5.74322 7.904C5.74322 8.17933 5.81322 8.40566 5.95322 8.583C6.09322 8.76033 6.33355 8.90966 6.67422 9.031C7.01488 9.14766 7.49322 9.25266 8.10922 9.346C8.62255 9.34133 9.03088 9.30166 9.33422 9.22699C9.63755 9.14766 9.86388 9.01233 10.0132 8.821C10.1625 8.62966 10.2372 8.35666 10.2372 8.002C10.2372 7.722 10.1649 7.49333 10.0202 7.316C9.87555 7.13866 9.62588 6.98933 9.27122 6.868C8.92122 6.74666 8.42655 6.63933 7.78722 6.546C7.30188 6.55533 6.91222 6.59966 6.61822 6.679C6.32422 6.75833 6.10488 6.896 5.96022 7.092C5.81555 7.288 5.74322 7.55866 5.74322 7.904Z" fill="black"/>
</svg>
