<?xml version="1.0" encoding="utf-8"?>
<!-- Generator: Adobe Illustrator 26.4.0, SVG Export Plug-In . SVG Version: 6.00 Build 0)  -->
<svg version="1.1" id="quotemark" xmlns="http://www.w3.org/2000/svg" xmlns:xlink="http://www.w3.org/1999/xlink" x="0px" y="0px"
	 viewBox="0 0 132 72" style="enable-background:new 0 0 132 72;" xml:space="preserve">
<style type="text/css">
	.st0{clip-path:url(#SVGID_00000082362541764966478380000003142694969904668547_);}
	.st1{fill:none;stroke:#FEB4A9;stroke-miterlimit:10;}
</style>
<g>
	<g>
		<defs>
			<path id="SVGID_1_" d="M131,35.5l-18.8-10.9l-41.7,8.6L41.9,49.9l36.3,21l32.8-19.1l-10.3-6L131,35.5z M90.1,11.9L71.3,1
				L29.6,9.6L1,26.2l36.3,21l32.8-19.1l-10.3-6L90.1,11.9z"/>
		</defs>
		<clipPath id="SVGID_00000016754834721407558110000000032529874976733869_">
			<use xlink:href="#SVGID_1_"  style="overflow:visible;"/>
		</clipPath>
		<g style="clip-path:url(#SVGID_00000016754834721407558110000000032529874976733869_);">
			<g>
				<line class="st1" x1="297.5" y1="-26.3" x2="297.5" y2="173.7"/>
				<line class="st1" x1="291.5" y1="-26.3" x2="291.5" y2="173.7"/>
				<line class="st1" x1="285.5" y1="-26.3" x2="285.5" y2="173.7"/>
				<line class="st1" x1="279.5" y1="-26.3" x2="279.5" y2="173.7"/>
				<line class="st1" x1="273.5" y1="-26.3" x2="273.5" y2="173.7"/>
				<line class="st1" x1="267.5" y1="-26.3" x2="267.5" y2="173.7"/>
				<line class="st1" x1="261.5" y1="-26.3" x2="261.5" y2="173.7"/>
				<line class="st1" x1="255.5" y1="-26.3" x2="255.5" y2="173.7"/>
				<line class="st1" x1="249.5" y1="-26.3" x2="249.5" y2="173.7"/>
				<line class="st1" x1="243.5" y1="-26.3" x2="243.5" y2="173.7"/>
				<line class="st1" x1="237.5" y1="-26.3" x2="237.5" y2="173.7"/>
				<line class="st1" x1="231.5" y1="-26.3" x2="231.5" y2="173.7"/>
				<line class="st1" x1="225.5" y1="-26.3" x2="225.5" y2="173.7"/>
				<line class="st1" x1="219.5" y1="-26.3" x2="219.5" y2="173.7"/>
				<line class="st1" x1="213.5" y1="-26.3" x2="213.5" y2="173.7"/>
				<line class="st1" x1="207.5" y1="-26.3" x2="207.5" y2="173.7"/>
				<line class="st1" x1="201.5" y1="-26.3" x2="201.5" y2="173.7"/>
				<line class="st1" x1="195.5" y1="-26.3" x2="195.5" y2="173.7"/>
				<line class="st1" x1="189.5" y1="-26.3" x2="189.5" y2="173.7"/>
				<line class="st1" x1="184.5" y1="-26.3" x2="184.5" y2="173.7"/>
				<line class="st1" x1="178.5" y1="-26.3" x2="178.5" y2="173.7"/>
				<line class="st1" x1="172.5" y1="-26.3" x2="172.5" y2="173.7"/>
				<line class="st1" x1="166.5" y1="-26.3" x2="166.5" y2="173.7"/>
				<line class="st1" x1="160.5" y1="-26.3" x2="160.5" y2="173.7"/>
				<line class="st1" x1="154.5" y1="-26.3" x2="154.5" y2="173.7"/>
				<line class="st1" x1="148.5" y1="-26.3" x2="148.5" y2="173.7"/>
				<line class="st1" x1="142.5" y1="-26.3" x2="142.5" y2="173.7"/>
				<line class="st1" x1="136.5" y1="-26.3" x2="136.5" y2="173.7"/>
				<line class="st1" x1="130.5" y1="-26.3" x2="130.5" y2="173.7"/>
				<line class="st1" x1="124.5" y1="-26.3" x2="124.5" y2="173.7"/>
				<line class="st1" x1="118.5" y1="-26.3" x2="118.5" y2="173.7"/>
				<line class="st1" x1="112.5" y1="-26.3" x2="112.5" y2="173.7"/>
				<line class="st1" x1="106.5" y1="-26.3" x2="106.5" y2="173.7"/>
				<line class="st1" x1="100.5" y1="-26.3" x2="100.5" y2="173.7"/>
				<line class="st1" x1="94.5" y1="-26.3" x2="94.5" y2="173.7"/>
				<line class="st1" x1="88.5" y1="-26.3" x2="88.5" y2="173.7"/>
				<line class="st1" x1="82.5" y1="-26.3" x2="82.5" y2="173.7"/>
				<line class="st1" x1="76.5" y1="-26.3" x2="76.5" y2="173.7"/>
				<line class="st1" x1="70.5" y1="-26.3" x2="70.5" y2="173.7"/>
				<line class="st1" x1="64.5" y1="-26.3" x2="64.5" y2="173.7"/>
				<line class="st1" x1="58.5" y1="-26.3" x2="58.5" y2="173.7"/>
				<line class="st1" x1="52.5" y1="-26.3" x2="52.5" y2="173.7"/>
				<line class="st1" x1="46.5" y1="-26.3" x2="46.5" y2="173.7"/>
				<line class="st1" x1="40.5" y1="-26.3" x2="40.5" y2="173.7"/>
				<line class="st1" x1="34.5" y1="-26.3" x2="34.5" y2="173.7"/>
				<line class="st1" x1="28.5" y1="-26.3" x2="28.5" y2="173.7"/>
				<line class="st1" x1="22.5" y1="-26.3" x2="22.5" y2="173.7"/>
				<line class="st1" x1="16.5" y1="-26.3" x2="16.5" y2="173.7"/>
				<line class="st1" x1="10.5" y1="-26.3" x2="10.5" y2="173.7"/>
				<line class="st1" x1="4.5" y1="-26.3" x2="4.5" y2="173.7"/>
				<line class="st1" x1="-1.5" y1="-26.3" x2="-1.5" y2="173.7"/>
				<line class="st1" x1="-7.5" y1="-26.3" x2="-7.5" y2="173.7"/>
				<line class="st1" x1="-13.5" y1="-26.3" x2="-13.5" y2="173.7"/>
				<line class="st1" x1="-19.5" y1="-26.3" x2="-19.5" y2="173.7"/>
				<line class="st1" x1="-25.5" y1="-26.3" x2="-25.5" y2="173.7"/>
				<line class="st1" x1="-31.5" y1="-26.3" x2="-31.5" y2="173.7"/>
			</g>
		</g>
	</g>
	<path class="st1" d="M131,35.5l-18.8-10.9l-41.7,8.6L41.9,49.9l36.3,21l32.8-19.1l-10.3-6L131,35.5z M90.1,11.9L71.3,1L29.6,9.6
		L1,26.2l36.3,21l32.8-19.1l-10.3-6L90.1,11.9z"/>
</g>
</svg>
