<svg width="166" height="70" viewBox="0 0 166 70" fill="none" xmlns="http://www.w3.org/2000/svg">
<mask id="path-1-inside-1_402_340" fill="white">
<path vector-effect="non-scaling-stroke" fill-rule="evenodd" clip-rule="evenodd" d="M28 2C28 0.895431 27.1046 0 26 0H2C0.895431 0 0 0.895431 0 2V30C0 31.1046 0.895431 32 2 32H26C27.1046 32 28 31.1046 28 30V2ZM131 2C131 0.895431 130.105 0 129 0H105C103.895 0 103 0.895431 103 2V30C103 31.1046 103.895 32 105 32H129C130.105 32 131 31.1046 131 30V2ZM137 2C137 0.895431 137.895 0 139 0H164C165.105 0 166 0.89543 166 2V68C166 69.1046 165.105 70 164 70H139C137.895 70 137 69.1046 137 68V2ZM97 2C97 0.895431 96.1046 0 95 0H36C34.8954 0 34 0.895431 34 2V30C34 31.1046 34.8954 32 36 32H95C96.1046 32 97 31.1046 97 30V2ZM69 40C69 38.8954 69.8954 38 71 38H129C130.105 38 131 38.8954 131 40V68C131 69.1046 130.105 70 129 70H71C69.8954 70 69 69.1046 69 68V40ZM63 40C63 38.8954 62.1046 38 61 38H2C0.895431 38 0 38.8954 0 40V68C0 69.1046 0.89543 70 2 70H61C62.1046 70 63 69.1046 63 68V40Z"/>
</mask>
<path vector-effect="non-scaling-stroke" d="M2 1H26V-1H2V1ZM1 30V2H-1V30H1ZM26 31H2V33H26V31ZM27 2V30H29V2H27ZM105 1H129V-1H105V1ZM104 30V2H102V30H104ZM129 31H105V33H129V31ZM130 2V30H132V2H130ZM164 -1H139V1H164V-1ZM167 68V2H165V68H167ZM139 71H164V69H139V71ZM136 2V68H138V2H136ZM36 1H95V-1H36V1ZM35 30V2H33V30H35ZM95 31H36V33H95V31ZM96 2V30H98V2H96ZM129 37H71V39H129V37ZM132 68V40H130V68H132ZM71 71H129V69H71V71ZM68 40V68H70V40H68ZM2 39H61V37H2V39ZM1 68V40H-1V68H1ZM61 69H2V71H61V69ZM62 40V68H64V40H62ZM61 71C62.6569 71 64 69.6569 64 68H62C62 68.5523 61.5523 69 61 69V71ZM-1 68C-1 69.6569 0.343146 71 2 71V69C1.44772 69 1 68.5523 1 68H-1ZM61 39C61.5523 39 62 39.4477 62 40H64C64 38.3431 62.6569 37 61 37V39ZM2 37C0.343146 37 -1 38.3431 -1 40H1C1 39.4477 1.44772 39 2 39V37ZM71 69C70.4477 69 70 68.5523 70 68H68C68 69.6569 69.3431 71 71 71V69ZM130 68C130 68.5523 129.552 69 129 69V71C130.657 71 132 69.6569 132 68H130ZM71 37C69.3431 37 68 38.3431 68 40H70C70 39.4477 70.4477 39 71 39V37ZM129 39C129.552 39 130 39.4477 130 40H132C132 38.3431 130.657 37 129 37V39ZM95 33C96.6569 33 98 31.6569 98 30H96C96 30.5523 95.5523 31 95 31V33ZM33 30C33 31.6569 34.3431 33 36 33V31C35.4477 31 35 30.5523 35 30H33ZM95 1C95.5523 1 96 1.44772 96 2H98C98 0.343146 96.6569 -1 95 -1V1ZM36 -1C34.3431 -1 33 0.343146 33 2H35C35 1.44772 35.4477 1 36 1V-1ZM139 69C138.448 69 138 68.5523 138 68H136C136 69.6569 137.343 71 139 71V69ZM165 68C165 68.5523 164.552 69 164 69V71C165.657 71 167 69.6569 167 68H165ZM139 -1C137.343 -1 136 0.343146 136 2H138C138 1.44771 138.448 1 139 1V-1ZM164 1C164.552 1 165 1.44772 165 2H167C167 0.343146 165.657 -1 164 -1V1ZM129 33C130.657 33 132 31.6569 132 30H130C130 30.5523 129.552 31 129 31V33ZM102 30C102 31.6569 103.343 33 105 33V31C104.448 31 104 30.5523 104 30H102ZM129 1C129.552 1 130 1.44772 130 2H132C132 0.343145 130.657 -1 129 -1V1ZM105 -1C103.343 -1 102 0.343146 102 2H104C104 1.44772 104.448 1 105 1V-1ZM26 33C27.6569 33 29 31.6569 29 30H27C27 30.5523 26.5523 31 26 31V33ZM-1 30C-1 31.6569 0.343147 33 2 33V31C1.44772 31 1 30.5523 1 30H-1ZM26 1C26.5523 1 27 1.44772 27 2H29C29 0.343145 27.6569 -1 26 -1V1ZM2 -1C0.343146 -1 -1 0.343146 -1 2H1C1 1.44772 1.44772 1 2 1V-1Z" fill="#E0D4FF" mask="url(#path-1-inside-1_402_340)"/>
</svg>
