<svg width="31" height="23" viewBox="0 0 31 23" fill="none" xmlns="http://www.w3.org/2000/svg">
<path d="M12.1834 0C3.38428 4.63977 0 9.74352 0 14.9135C0 19.0231 2.369 23 6.63319 23C10.0852 23 12.1834 20.3487 12.6572 16.7032C9.4083 14.9798 8.05458 13.2565 8.05458 10.7378C8.05458 8.15274 9.34061 5.83286 14.0786 3.04899L12.1834 0ZM29.1048 0C20.3057 4.63977 16.9214 9.74352 16.9214 14.9135C16.9214 19.0231 19.2904 23 23.5546 23C27.0066 23 29.1048 20.3487 29.5786 16.7032C26.3297 14.9798 24.976 13.2565 24.976 10.7378C24.976 8.15274 26.262 5.83286 31 3.04899L29.1048 0Z" fill="#FE9B8C"/>
</svg>
