<svg width="91" height="39" viewBox="0 0 91 39" fill="none" xmlns="http://www.w3.org/2000/svg">
<path d="M51 38L50.0469 38.3008L38.0469 0.300781L39 0L51 38ZM10.6143 34.0459C10.679 34.2624 10.7624 34.4557 10.8643 34.625C10.9662 34.7943 11.092 34.9686 11.2422 35.1465H10.4668C9.5318 35.1465 8.73478 34.8165 8.07617 34.1582C7.41786 33.4996 7.08887 32.7028 7.08887 31.7676V24.1377L10.6143 34.0459ZM21.4639 4.12305C22.0042 3.92423 22.5319 3.96652 23.0459 4.25098C23.5603 4.53542 23.9325 4.95968 24.1611 5.52246L31.832 26.3369C32.0191 26.9178 31.9967 27.4863 31.7656 28.042C31.5345 28.5977 31.1288 28.9817 30.5479 29.1934L17.6201 33.9004C17.1024 34.1176 16.5751 34.0767 16.0391 33.7773C15.5028 33.4779 15.1202 33.0522 14.8916 32.501L7.2207 11.541C6.99201 10.9934 7.01456 10.4576 7.28809 9.93359C7.56169 9.40944 7.98346 9.03556 8.55371 8.8125L21.4639 4.12305ZM2.62891 32.1953L1.97754 31.9775C1.09421 31.5945 0.497786 30.9446 0.189453 30.0293C-0.118644 29.1143 -0.0517644 28.2169 0.389648 27.3369L2.62891 22.3643V32.1953ZM9.24609 10.8389L16.9277 31.8643L29.8379 27.1572L22.1572 6.15918L9.24609 10.8389ZM90.1787 19.457L80.7109 28.9248L79.2217 27.4248L87.1875 19.459L79.2646 11.5254L80.7559 10.0342L90.1787 19.457ZM68.957 11.5L60.9912 19.4658L68.9141 27.3887L67.4229 28.8809L58 19.457L67.4678 10L68.957 11.5ZM14.415 11.5205C14.8161 11.5205 15.1601 11.664 15.4473 11.9512C15.7347 12.2386 15.8789 12.5826 15.8789 12.9834C15.8789 13.3845 15.7348 13.7291 15.4473 14.0166C15.1601 14.3037 14.816 14.4473 14.415 14.4473C14.007 14.4473 13.6608 14.3038 13.377 14.0166C13.0931 13.7291 12.9512 13.3845 12.9512 12.9834C12.9512 12.5827 13.0932 12.2386 13.377 11.9512C13.6608 11.664 14.007 11.5205 14.415 11.5205Z" fill="#E1E3E6"/>
</svg>
