<?xml version="1.0" encoding="utf-8"?>
<!-- Generator: Adobe Illustrator 26.4.0, SVG Export Plug-In . SVG Version: 6.00 Build 0)  -->
<svg version="1.1" id="Layer_2_00000099658546634855318480000000231609246688711066_"
	 xmlns="http://www.w3.org/2000/svg" xmlns:xlink="http://www.w3.org/1999/xlink" x="0px" y="0px" viewBox="0 0 273 148"
	 style="enable-background:new 0 0 273 148;" xml:space="preserve">
<style type="text/css">
	.st0{clip-path:url(#SVGID_00000016795703398946295000000009030685791300390819_);}
	.st1{fill:none;stroke:#FEB4A9;stroke-miterlimit:10;}
	.st2{clip-path:url(#SVGID_00000160153720976190713950000015290808903591128253_);}
</style>
<g id="Artwork">
	<g>
		<g>
			<g>
				<defs>
					<polygon id="SVGID_1_" points="186,23.6 146.9,1 60.4,18.9 1,53.4 76.4,97 144.6,57.4 123.1,45 					"/>
				</defs>
				<clipPath id="SVGID_00000146497349930970188830000004482805760991779258_">
					<use xlink:href="#SVGID_1_"  style="overflow:visible;"/>
				</clipPath>
				<g style="clip-path:url(#SVGID_00000146497349930970188830000004482805760991779258_);">
					<g>
						<line class="st1" x1="297.5" y1="-26.3" x2="297.5" y2="173.7"/>
						<line class="st1" x1="291.5" y1="-26.3" x2="291.5" y2="173.7"/>
						<line class="st1" x1="285.5" y1="-26.3" x2="285.5" y2="173.7"/>
						<line class="st1" x1="279.5" y1="-26.3" x2="279.5" y2="173.7"/>
						<line class="st1" x1="273.5" y1="-26.3" x2="273.5" y2="173.7"/>
						<line class="st1" x1="267.5" y1="-26.3" x2="267.5" y2="173.7"/>
						<line class="st1" x1="261.5" y1="-26.3" x2="261.5" y2="173.7"/>
						<line class="st1" x1="255.5" y1="-26.3" x2="255.5" y2="173.7"/>
						<line class="st1" x1="249.5" y1="-26.3" x2="249.5" y2="173.7"/>
						<line class="st1" x1="243.5" y1="-26.3" x2="243.5" y2="173.7"/>
						<line class="st1" x1="237.5" y1="-26.3" x2="237.5" y2="173.7"/>
						<line class="st1" x1="231.5" y1="-26.3" x2="231.5" y2="173.7"/>
						<line class="st1" x1="225.5" y1="-26.3" x2="225.5" y2="173.7"/>
						<line class="st1" x1="219.5" y1="-26.3" x2="219.5" y2="173.7"/>
						<line class="st1" x1="213.5" y1="-26.3" x2="213.5" y2="173.7"/>
						<line class="st1" x1="207.5" y1="-26.3" x2="207.5" y2="173.7"/>
						<line class="st1" x1="201.5" y1="-26.3" x2="201.5" y2="173.7"/>
						<line class="st1" x1="195.5" y1="-26.3" x2="195.5" y2="173.7"/>
						<line class="st1" x1="189.5" y1="-26.3" x2="189.5" y2="173.7"/>
						<line class="st1" x1="184.5" y1="-26.3" x2="184.5" y2="173.7"/>
						<line class="st1" x1="178.5" y1="-26.3" x2="178.5" y2="173.7"/>
						<line class="st1" x1="172.5" y1="-26.3" x2="172.5" y2="173.7"/>
						<line class="st1" x1="166.5" y1="-26.3" x2="166.5" y2="173.7"/>
						<line class="st1" x1="160.5" y1="-26.3" x2="160.5" y2="173.7"/>
						<line class="st1" x1="154.5" y1="-26.3" x2="154.5" y2="173.7"/>
						<line class="st1" x1="148.5" y1="-26.3" x2="148.5" y2="173.7"/>
						<line class="st1" x1="142.5" y1="-26.3" x2="142.5" y2="173.7"/>
						<line class="st1" x1="136.5" y1="-26.3" x2="136.5" y2="173.7"/>
						<line class="st1" x1="130.5" y1="-26.3" x2="130.5" y2="173.7"/>
						<line class="st1" x1="124.5" y1="-26.3" x2="124.5" y2="173.7"/>
						<line class="st1" x1="118.5" y1="-26.3" x2="118.5" y2="173.7"/>
						<line class="st1" x1="112.5" y1="-26.3" x2="112.5" y2="173.7"/>
						<line class="st1" x1="106.5" y1="-26.3" x2="106.5" y2="173.7"/>
						<line class="st1" x1="100.5" y1="-26.3" x2="100.5" y2="173.7"/>
						<line class="st1" x1="94.5" y1="-26.3" x2="94.5" y2="173.7"/>
						<line class="st1" x1="88.5" y1="-26.3" x2="88.5" y2="173.7"/>
						<line class="st1" x1="82.5" y1="-26.3" x2="82.5" y2="173.7"/>
						<line class="st1" x1="76.5" y1="-26.3" x2="76.5" y2="173.7"/>
						<line class="st1" x1="70.5" y1="-26.3" x2="70.5" y2="173.7"/>
						<line class="st1" x1="64.5" y1="-26.3" x2="64.5" y2="173.7"/>
						<line class="st1" x1="58.5" y1="-26.3" x2="58.5" y2="173.7"/>
						<line class="st1" x1="52.5" y1="-26.3" x2="52.5" y2="173.7"/>
						<line class="st1" x1="46.5" y1="-26.3" x2="46.5" y2="173.7"/>
						<line class="st1" x1="40.5" y1="-26.3" x2="40.5" y2="173.7"/>
						<line class="st1" x1="34.5" y1="-26.3" x2="34.5" y2="173.7"/>
						<line class="st1" x1="28.5" y1="-26.3" x2="28.5" y2="173.7"/>
						<line class="st1" x1="22.5" y1="-26.3" x2="22.5" y2="173.7"/>
						<line class="st1" x1="16.5" y1="-26.3" x2="16.5" y2="173.7"/>
						<line class="st1" x1="10.5" y1="-26.3" x2="10.5" y2="173.7"/>
						<line class="st1" x1="4.5" y1="-26.3" x2="4.5" y2="173.7"/>
						<line class="st1" x1="-1.5" y1="-26.3" x2="-1.5" y2="173.7"/>
						<line class="st1" x1="-7.5" y1="-26.3" x2="-7.5" y2="173.7"/>
						<line class="st1" x1="-13.5" y1="-26.3" x2="-13.5" y2="173.7"/>
						<line class="st1" x1="-19.5" y1="-26.3" x2="-19.5" y2="173.7"/>
						<line class="st1" x1="-25.5" y1="-26.3" x2="-25.5" y2="173.7"/>
						<line class="st1" x1="-31.5" y1="-26.3" x2="-31.5" y2="173.7"/>
					</g>
				</g>
			</g>
		</g>
		<polygon class="st1" points="186,23.6 146.9,1 60.4,18.9 1,53.4 76.4,97 144.6,57.4 123.1,45 		"/>
	</g>
	<g>
		<g>
			<g>
				<defs>
					<polygon id="SVGID_00000013877217946447184080000006894473342633372583_" points="271,72.6 231.9,50.1 145.4,68 86,102.5 
						161.5,146.1 229.6,106.5 208.1,94.1 					"/>
				</defs>
				<clipPath id="SVGID_00000171691453611711224820000012146274128486963851_">
					<use xlink:href="#SVGID_00000013877217946447184080000006894473342633372583_"  style="overflow:visible;"/>
				</clipPath>
				<g style="clip-path:url(#SVGID_00000171691453611711224820000012146274128486963851_);">
					<g>
						<line class="st1" x1="380.5" y1="22.7" x2="380.5" y2="222.7"/>
						<line class="st1" x1="374.5" y1="22.7" x2="374.5" y2="222.7"/>
						<line class="st1" x1="368.5" y1="22.7" x2="368.5" y2="222.7"/>
						<line class="st1" x1="362.5" y1="22.7" x2="362.5" y2="222.7"/>
						<line class="st1" x1="356.5" y1="22.7" x2="356.5" y2="222.7"/>
						<line class="st1" x1="350.5" y1="22.7" x2="350.5" y2="222.7"/>
						<line class="st1" x1="344.5" y1="22.7" x2="344.5" y2="222.7"/>
						<line class="st1" x1="338.5" y1="22.7" x2="338.5" y2="222.7"/>
						<line class="st1" x1="332.5" y1="22.7" x2="332.5" y2="222.7"/>
						<line class="st1" x1="326.5" y1="22.7" x2="326.5" y2="222.7"/>
						<line class="st1" x1="320.5" y1="22.7" x2="320.5" y2="222.7"/>
						<line class="st1" x1="314.5" y1="22.7" x2="314.5" y2="222.7"/>
						<line class="st1" x1="308.5" y1="22.7" x2="308.5" y2="222.7"/>
						<line class="st1" x1="303.5" y1="22.7" x2="303.5" y2="222.7"/>
						<line class="st1" x1="297.5" y1="22.7" x2="297.5" y2="222.7"/>
						<line class="st1" x1="291.5" y1="22.7" x2="291.5" y2="222.7"/>
						<line class="st1" x1="285.5" y1="22.7" x2="285.5" y2="222.7"/>
						<line class="st1" x1="279.5" y1="22.7" x2="279.5" y2="222.7"/>
						<line class="st1" x1="273.5" y1="22.7" x2="273.5" y2="222.7"/>
						<line class="st1" x1="268.5" y1="22.7" x2="268.5" y2="222.7"/>
						<line class="st1" x1="262.5" y1="22.7" x2="262.5" y2="222.7"/>
						<line class="st1" x1="256.5" y1="22.7" x2="256.5" y2="222.7"/>
						<line class="st1" x1="250.5" y1="22.7" x2="250.5" y2="222.7"/>
						<line class="st1" x1="244.5" y1="22.7" x2="244.5" y2="222.7"/>
						<line class="st1" x1="238.5" y1="22.7" x2="238.5" y2="222.7"/>
						<line class="st1" x1="232.5" y1="22.7" x2="232.5" y2="222.7"/>
						<line class="st1" x1="226.5" y1="22.7" x2="226.5" y2="222.7"/>
						<line class="st1" x1="220.5" y1="22.7" x2="220.5" y2="222.7"/>
						<line class="st1" x1="214.5" y1="22.7" x2="214.5" y2="222.7"/>
						<line class="st1" x1="208.5" y1="22.7" x2="208.5" y2="222.7"/>
						<line class="st1" x1="202.5" y1="22.7" x2="202.5" y2="222.7"/>
						<line class="st1" x1="196.5" y1="22.7" x2="196.5" y2="222.7"/>
						<line class="st1" x1="190.5" y1="22.7" x2="190.5" y2="222.7"/>
						<line class="st1" x1="184.5" y1="22.7" x2="184.5" y2="222.7"/>
						<line class="st1" x1="178.5" y1="22.7" x2="178.5" y2="222.7"/>
						<line class="st1" x1="172.5" y1="22.7" x2="172.5" y2="222.7"/>
						<line class="st1" x1="166.5" y1="22.7" x2="166.5" y2="222.7"/>
						<line class="st1" x1="160.5" y1="22.7" x2="160.5" y2="222.7"/>
						<line class="st1" x1="154.5" y1="22.7" x2="154.5" y2="222.7"/>
						<line class="st1" x1="148.5" y1="22.7" x2="148.5" y2="222.7"/>
						<line class="st1" x1="142.5" y1="22.7" x2="142.5" y2="222.7"/>
						<line class="st1" x1="136.5" y1="22.7" x2="136.5" y2="222.7"/>
						<line class="st1" x1="130.5" y1="22.7" x2="130.5" y2="222.7"/>
						<line class="st1" x1="124.5" y1="22.7" x2="124.5" y2="222.7"/>
						<line class="st1" x1="118.5" y1="22.7" x2="118.5" y2="222.7"/>
						<line class="st1" x1="112.5" y1="22.7" x2="112.5" y2="222.7"/>
						<line class="st1" x1="106.5" y1="22.7" x2="106.5" y2="222.7"/>
						<line class="st1" x1="100.5" y1="22.7" x2="100.5" y2="222.7"/>
						<line class="st1" x1="94.5" y1="22.7" x2="94.5" y2="222.7"/>
						<line class="st1" x1="88.5" y1="22.7" x2="88.5" y2="222.7"/>
						<line class="st1" x1="82.5" y1="22.7" x2="82.5" y2="222.7"/>
						<line class="st1" x1="76.5" y1="22.7" x2="76.5" y2="222.7"/>
						<line class="st1" x1="70.5" y1="22.7" x2="70.5" y2="222.7"/>
						<line class="st1" x1="64.5" y1="22.7" x2="64.5" y2="222.7"/>
						<line class="st1" x1="58.5" y1="22.7" x2="58.5" y2="222.7"/>
						<line class="st1" x1="52.5" y1="22.7" x2="52.5" y2="222.7"/>
					</g>
				</g>
			</g>
		</g>
		<polygon class="st1" points="271,72.6 231.9,50.1 145.4,68 86,102.5 161.5,146.1 229.6,106.5 208.1,94.1 		"/>
	</g>
</g>
</svg>
