<svg width="100" height="42" viewBox="0 0 100 42" fill="none" xmlns="http://www.w3.org/2000/svg">
<path d="M9.97735 33.8013C10.0575 34.3053 9.85908 34.5879 9.35167 34.5879C8.29869 34.5956 7.24953 34.5879 6.19655 34.5879H3.15971C2.78201 34.5879 2.40431 34.5994 2.02661 34.6032C1.771 34.6032 1.6451 34.4925 1.6451 34.1946C1.63747 33.5225 1.63747 32.8543 1.63747 32.1784C1.63747 30.2768 1.64892 28.3751 1.64892 26.4735C1.64892 26.0458 1.60695 25.6143 1.61458 25.1828C1.61839 24.8812 1.6947 24.5795 1.6947 24.2779C1.69851 23.7585 1.64892 23.243 1.65655 22.7275C1.66799 21.9027 1.73285 21.0856 1.74048 20.2646C1.75192 19.0732 1.72522 17.8818 1.72903 16.6904C1.72903 16.1825 1.77863 15.6747 1.78245 15.1706C1.78245 14.5368 1.75192 13.9067 1.75574 13.269C1.75574 12.6504 1.79008 12.028 1.80534 11.4094C1.80534 11.2948 1.81297 11.1803 1.80534 11.0657C1.76719 10.6037 1.61076 10.47 1.15676 10.4547C0.904965 10.4471 0.653166 10.4242 0.401368 10.4051C0.199166 10.3898 0.0732661 10.302 0.0732661 10.0729C0.0732661 9.37409 0.0618207 8.67912 0.0503753 7.98414C0.0503753 7.73212 0.012224 7.48391 0.000778598 7.23189C-0.00303653 7.09442 0.00840886 6.95696 0.00840886 6.81949C0.119048 6.39181 0.214426 6.31544 0.645536 6.34217C0.859183 6.35363 1.07665 6.38036 1.29029 6.37272C1.67944 6.36126 1.80915 6.21998 1.82441 5.83431C1.85112 5.25007 1.84349 4.66583 1.8969 4.08923C1.93887 3.589 2.02661 3.09641 2.14488 2.59618C2.25552 2.14941 2.47298 1.88975 2.80109 1.61482C3.27035 1.21769 3.75868 0.881659 4.31951 0.621998C4.81929 0.392885 5.34959 0.362337 5.86845 0.259236C6.41402 0.152317 6.96721 0.0874021 7.51659 0.00339426C7.56619 -0.00424282 7.61578 0.00339426 7.6692 0.00339426C8.02019 0.0186684 8.37118 0.0453982 8.72599 0.0530353C9.75226 0.0683094 10.7747 0.0644909 11.8048 0.0797651C12.1405 0.0797651 12.2397 0.17141 12.2512 0.51126C12.2626 0.954211 12.2359 1.39716 12.2359 1.84011C12.2359 2.16851 12.2512 2.4969 12.2664 2.82911C12.2741 3.00477 12.2931 3.18424 12.2893 3.35989C12.2741 3.95558 12.1787 4.05868 11.5873 4.10833L11.3622 4.12742C10.6641 4.17324 10.1605 4.64674 10.0918 5.34935C10.0727 5.525 10.0575 5.70448 10.0498 5.88013C10.0308 6.23907 10.1757 6.39945 10.5344 6.40709C10.9235 6.41854 11.3165 6.42236 11.7094 6.42618C11.9956 6.43 12.2397 6.49109 12.297 6.83094C12.3046 6.86913 12.3275 6.89968 12.3504 6.93023C12.5068 7.13261 12.5144 7.30826 12.2931 7.48773C12.2206 7.54883 12.1596 7.69775 12.1787 7.78176C12.3008 8.27435 12.1482 8.76313 12.1634 9.25572C12.1749 9.49628 12.1482 9.73685 12.1405 9.98124C12.1291 10.4242 12.0909 10.4586 11.6636 10.4662C11.2974 10.47 10.9273 10.4776 10.5611 10.4967C10.1681 10.5197 10.0346 10.6495 10.0346 11.039C10.0346 11.8371 10.0498 12.6351 10.0575 13.4332C10.0651 14.1282 10.0689 14.8193 10.0689 15.5143C10.0689 15.8923 10.0613 16.2666 10.0613 16.6484C10.0613 16.847 10.1071 17.0074 10.3818 16.9157C10.439 16.8966 10.5305 16.973 10.603 16.9997C10.5496 17.0952 10.5153 17.2594 10.4504 17.267C9.98117 17.3243 10.0269 17.6565 10.0384 17.9811C10.0804 19.0312 9.96209 20.0775 9.95828 21.1237C9.95828 21.4483 9.95064 21.7538 10.355 21.8874C10.4466 21.918 10.4657 22.17 10.5153 22.3189C10.5191 22.3304 10.4886 22.3762 10.4771 22.3762C10.4314 22.3686 10.3779 22.3648 10.3436 22.338C10.2635 22.2731 10.1986 22.1967 10.13 22.128C10.0842 22.2426 10.0155 22.3571 9.99643 22.4717C9.96591 22.6817 9.95064 22.9032 9.96209 23.1132C10.0155 24.2244 9.90105 25.3318 9.90868 26.4468C9.91631 27.3709 9.92012 28.2988 9.91631 29.2229C9.91631 30.4028 9.89723 31.5827 9.90486 32.7588C9.90105 33.1025 9.93157 33.4424 9.98498 33.7784L9.97735 33.8013ZM26.7868 14.8881C26.783 14.216 26.7449 13.5401 26.7754 12.8719C26.8021 12.3335 26.8212 11.7989 26.7945 11.2528C26.741 10.1378 26.8021 9.01897 26.8097 7.90777C26.8097 7.59083 26.8059 7.27389 26.7983 6.95696C26.7983 6.76221 26.7067 6.60565 26.5083 6.64765C25.9284 6.75839 25.3294 6.8424 24.7762 7.0486C24.1277 7.29681 23.5783 7.74739 23.0327 8.18653C22.7352 8.42709 22.5101 8.68294 22.346 9.0266C22.1896 9.34354 21.9912 9.64139 21.7852 9.92778C21.7241 10.008 21.5715 10.0271 21.4647 10.0729C21.4266 9.96978 21.3808 9.8705 21.3464 9.7674C21.335 9.73303 21.3503 9.69103 21.3541 9.65666L21.5677 6.81567C21.5868 6.54837 21.5181 6.48728 21.2434 6.48728C19.5076 6.47964 17.7755 6.48346 16.0396 6.46055C15.3185 6.44909 14.5975 6.39563 13.8764 6.36508C13.5102 6.34599 13.3728 6.51401 13.4186 6.87295C13.4568 7.16316 13.4568 7.45337 13.4873 7.73976C13.5712 8.59129 13.266 9.43901 13.4568 10.2982C13.5254 10.596 13.4568 10.9244 13.4568 11.2337C13.4491 11.8561 13.4453 12.4747 13.4339 13.0972C13.4224 13.7807 13.369 14.468 13.3995 15.1477C13.4224 15.6785 13.1592 16.2055 13.3957 16.7362C13.4148 16.7821 13.3728 16.8584 13.369 16.9233C13.3499 17.1601 13.3156 17.4007 13.3232 17.6374C13.3385 18.0536 13.3881 18.4699 13.4033 18.8899C13.4148 19.2794 13.4873 19.6765 13.2011 20.024C13.1477 20.0851 13.1554 20.2607 13.2011 20.3295C13.3881 20.5853 13.4072 20.8679 13.3919 21.1619C13.3766 21.4674 13.3537 21.7691 13.3576 22.0707C13.3614 22.5137 13.3957 22.9566 13.4033 23.3996C13.4033 23.602 13.3919 23.8082 13.0981 23.8349C13.0256 23.8425 12.9226 23.9915 12.915 24.0793C12.9074 24.1671 12.9913 24.3351 13.0562 24.3428C13.43 24.4039 13.3804 24.6788 13.3804 24.927C13.3804 25.7098 13.369 26.4926 13.3652 27.2754C13.3576 28.4782 13.3537 29.6849 13.3537 30.8916C13.3537 31.346 13.3461 31.8004 13.3423 32.2586C13.3347 32.8428 13.327 33.4233 13.3232 34.0075C13.3232 34.2481 13.3232 34.4924 13.5979 34.6299C13.659 34.6605 13.6742 34.7788 13.7162 34.8552C13.7505 34.9163 13.781 34.9774 13.8154 35.0461C13.8726 34.9889 13.9527 34.9354 13.9794 34.8667C14.0672 34.649 14.2198 34.5535 14.4487 34.5574C14.9675 34.5612 15.4902 34.5383 16.0091 34.5688C16.5165 34.5955 17.0163 34.733 17.5275 34.6032C17.6191 34.5803 17.7259 34.6261 17.8251 34.6414L17.8327 34.7139C18.0387 34.6834 18.2371 34.6566 18.4431 34.6299C18.6072 34.6108 18.7674 34.5841 18.9315 34.5841C19.6296 34.5841 20.324 34.5955 21.0183 34.5994C21.4151 34.5994 21.4685 34.5688 21.4952 34.1793C21.5296 33.66 21.5258 33.1407 21.5258 32.6214C21.5296 31.4414 21.5677 30.2653 21.5219 29.0892C21.4838 28.1422 21.6707 27.2067 21.5754 26.2559C21.4838 25.3394 21.5639 24.4039 21.5792 23.4798C21.583 23.2278 21.6517 22.9757 21.6478 22.7275C21.6478 22.3609 21.5906 21.9944 21.5906 21.6316C21.5906 21.2498 21.625 20.8717 21.8539 20.5395C21.8844 20.4937 21.8767 20.3753 21.8462 20.3486C21.6745 20.2035 21.7356 20.0278 21.7623 19.856C21.7852 19.6803 21.8272 19.5047 21.8081 19.3328C21.6936 18.4775 21.9569 17.7214 22.4376 17.0455C22.8496 16.4651 23.46 16.1482 24.1239 15.9343C24.8182 15.7167 25.5278 15.5945 26.2565 15.6212C26.6075 15.6365 26.7067 15.5487 26.7639 15.2012C26.783 15.1019 26.7868 14.9988 26.7868 14.8995V14.8881ZM36.4315 32.06C36.4429 30.5288 36.4429 28.9938 36.462 27.4625C36.4658 26.7255 36.504 25.9924 36.5116 25.2592C36.523 24.0182 36.4086 22.7772 36.5917 21.54C36.5955 21.5018 36.5917 21.4636 36.5917 21.4254C36.4849 20.5777 36.4429 19.7376 36.6299 18.8975C36.6413 18.8364 36.6604 18.7639 36.6413 18.7104C36.4811 18.2789 36.565 17.8322 36.5688 17.393C36.5688 16.6828 36.5497 15.9763 36.5574 15.2699C36.5688 14.7277 36.6337 14.1855 36.6337 13.6432C36.6337 12.9368 36.565 12.2304 36.5688 11.5239C36.5803 10.0194 36.6184 8.51492 36.6451 7.0066C36.6528 6.73166 36.5803 6.64765 36.2941 6.64002C35.9775 6.63238 35.6608 6.62474 35.3442 6.62474C35.0275 6.62474 34.7261 6.58274 34.4133 6.514C34.1233 6.44909 33.7952 6.60183 33.4862 6.60183C33.1085 6.60183 32.727 6.50637 32.3531 6.52164C31.8342 6.54455 31.3078 6.38417 30.7889 6.55219C30.6973 6.58274 30.5905 6.55219 30.4837 6.55219C29.8389 6.55219 29.1942 6.54073 28.5456 6.54837C28.187 6.54837 28.1297 6.62856 28.1336 6.98369C28.1412 7.65575 28.1565 8.32399 28.1565 8.99987C28.1565 10.218 28.1641 11.4285 28.1488 12.6466C28.1297 13.9372 28.0878 15.2279 28.0458 16.5224C28.042 16.7057 27.9848 16.8928 27.9237 17.0646C27.8627 17.2326 27.7749 17.4121 27.897 17.5687C28.1717 17.9123 28.1183 18.3018 28.103 18.699C28.084 19.2565 28.0725 19.8102 28.0687 20.3715C28.0573 21.2307 28.145 22.0975 27.9543 22.9452C27.939 23.0177 27.9466 23.0941 27.9543 23.1705C27.9771 23.6974 28.0153 24.2282 28.0267 24.759C28.0344 25.011 27.9924 25.263 27.9695 25.5151C27.9428 25.5151 27.9123 25.5227 27.8818 25.5227C27.9161 25.7251 27.9466 25.9313 27.9771 26.1337C28.0267 26.4468 28.084 26.7599 27.8703 27.0463C27.7521 27.2067 27.7597 27.3671 27.8627 27.5427C27.9314 27.6573 27.9848 27.8024 27.9848 27.9322C27.9848 28.4897 27.9771 29.051 27.9428 29.6047C27.9352 29.7498 27.836 29.914 27.7292 30.0248C27.6033 30.1622 27.4201 30.2424 27.2752 30.3608C27.1874 30.4295 27.1187 30.5288 27.0348 30.6166C27.1531 30.6128 27.2713 30.6014 27.3858 30.5975C27.3972 30.5975 27.4087 30.5861 27.4201 30.5823C27.7749 30.3493 27.9619 30.5135 27.9619 30.9145C27.9619 31.0023 27.9543 31.0939 27.9543 31.1818C27.9504 32.0066 27.939 32.8314 27.9466 33.6562C27.9504 34.2404 27.8741 34.3741 27.3248 34.5879C27.1531 34.6566 27.0501 34.775 27.0501 34.9545C27.0501 35.008 27.092 35.0843 27.134 35.1072C27.176 35.1301 27.2599 35.1072 27.3019 35.0729C27.3515 35.0423 27.3858 34.9774 27.4087 34.9201C27.4888 34.733 27.6185 34.7025 27.8093 34.7483C27.9657 34.7827 28.1298 34.7865 28.2938 34.7788C28.557 34.7674 28.8203 34.7216 29.0835 34.7101C30.2281 34.6566 31.3764 34.8056 32.521 34.6948C32.5744 34.691 32.6202 34.7025 32.6698 34.7025C33.7838 34.6987 34.8978 34.691 36.0118 34.6796C36.3285 34.6757 36.3857 34.6223 36.3895 34.3359C36.42 33.576 36.4315 32.8161 36.4353 32.06H36.4315ZM28.1183 4.73838C28.1183 5.19661 28.1755 5.26152 28.641 5.26916C29.0606 5.2768 29.4765 5.26916 29.8923 5.2768C30.209 5.2768 30.5295 5.26152 30.8385 5.31498C31.1094 5.36081 31.3574 5.49827 31.632 5.32262C31.6778 5.28825 31.777 5.33789 31.8495 5.34171C32.0593 5.35699 32.2692 5.39517 32.479 5.3799C32.933 5.34935 33.387 5.2768 33.8372 5.26152C34.3637 5.24625 34.8902 5.28062 35.4167 5.29589C35.4167 5.32262 35.4167 5.35317 35.4167 5.3799C35.5235 5.36462 35.6379 5.35317 35.7448 5.33408C35.8707 5.31498 35.9927 5.2768 36.1148 5.26152C36.6146 5.2157 36.6261 5.19661 36.6222 4.68492C36.6146 3.76084 36.607 2.83293 36.6108 1.90885C36.6108 1.35516 36.5765 1.3017 36.0347 1.23678C35.947 1.22533 35.8592 1.23678 35.7715 1.23678C35.5197 1.25206 35.2679 1.28261 35.0161 1.27879C33.8639 1.25588 32.7117 1.21769 31.5596 1.19478C30.5447 1.1795 29.5337 1.18332 28.5189 1.17569C28.332 1.17569 28.1565 1.17569 28.1488 1.43153C28.1374 1.79811 28.0992 2.16469 28.0992 2.53127C28.0992 3.27206 28.1145 4.00522 28.1183 4.73838V4.73838ZM57.5101 33.5531C57.5521 33.4767 57.5368 33.3583 57.5254 33.2667C57.491 33.0299 57.4109 32.797 57.4109 32.5603C57.4033 31.2009 57.4109 29.8453 57.4223 28.4897C57.4376 26.359 57.4605 24.2282 57.4834 22.0975C57.4872 21.6163 57.5254 21.1352 57.5254 20.6541C57.5292 20.0966 57.5101 19.539 57.5063 18.9815C57.5063 18.1987 57.5254 17.4159 57.5215 16.6293C57.5215 15.5028 57.5215 14.3726 57.4834 13.2461C57.4414 12.1234 57.4376 10.9893 57.1667 9.88196C56.8119 8.39655 55.9573 7.32354 54.5572 6.7393C52.6725 5.9565 50.7802 5.94886 48.9413 6.9035C48.1325 7.32354 47.442 7.88486 46.9689 8.68675C46.8811 8.8395 46.7667 8.98078 46.6331 9.09152C46.4348 9.25954 46.2402 9.18316 46.183 8.93114C46.1524 8.79749 46.1448 8.65239 46.1563 8.51492C46.1906 8.03378 46.2364 7.55265 46.286 7.07915C46.3241 6.71639 46.2287 6.61711 45.8625 6.64384C45.6832 6.65529 45.5115 6.68584 45.3322 6.68202C43.6192 6.67438 41.91 6.65911 40.2008 6.64384C39.6171 6.6362 39.0372 6.6362 38.4573 6.60183C38.0224 6.57128 37.9499 6.62856 37.9575 7.07151C37.969 7.7283 37.9842 8.39273 37.9842 9.04952C37.9804 9.90869 37.9499 10.7679 37.9461 11.6308C37.9346 13.3416 37.9118 15.0523 37.9346 16.7668C37.9461 17.7405 37.8622 18.7104 37.885 19.688C37.9232 21.2841 37.866 22.8803 37.8393 24.4802C37.8316 24.9461 37.7591 25.412 37.8507 25.8816C37.8889 26.0687 37.8011 26.275 37.7782 26.4735C37.763 26.6339 37.7439 26.7943 37.7591 26.9508C37.782 27.2296 37.8545 27.5007 37.8545 27.7756C37.8545 29.9713 37.8393 32.167 37.8316 34.3588C37.8316 34.6605 37.8545 34.6948 38.1445 34.7063C38.587 34.7177 39.0296 34.7139 39.4721 34.7177L42.0931 34.7559C43.23 34.7712 44.3708 34.7827 45.5039 34.8056C45.8739 34.8132 45.9922 34.6987 45.9884 34.3053C45.9808 33.5951 45.9846 32.8848 45.9884 32.1784C45.9884 31.9035 46.0189 31.6285 46.0265 31.3536C46.038 30.6739 45.8777 29.9866 46.0838 29.3107C46.1067 29.2343 46.0647 29.1389 46.0494 29.0548C46.038 28.9556 45.9846 28.8448 46.0113 28.757C46.1028 28.4133 46.0151 28.0811 46.0113 27.7413C46.0036 26.8554 46.0265 25.9656 46.0304 25.0797C46.0304 24.6024 46.0304 24.1213 46.0342 23.6402C46.0342 23.476 46.0532 23.3118 46.0609 23.1476C46.0685 22.9452 46.0761 22.7466 46.0761 22.5442C46.0799 21.9905 45.9197 21.4292 46.2173 20.9023C46.2364 20.8641 46.2516 20.7877 46.2249 20.7572C45.9464 20.3829 46.0609 19.9476 46.0494 19.5429C46.0418 19.1534 46.0227 18.7524 46.45 18.5119C46.6026 18.424 46.5416 18.2675 46.3356 18.256C46.1219 18.2484 46.0761 18.1376 46.0723 17.9696C46.0647 17.8436 46.0571 17.7176 46.0609 17.5878C46.08 16.4842 46.099 15.3845 46.1219 14.2847C46.1295 14.006 46.1486 13.731 46.1677 13.4523L46.2364 12.1311C46.2364 12.1311 46.2669 12.1311 46.286 12.1311C46.3165 11.9936 46.3432 11.86 46.3737 11.7225C46.5111 11.1688 46.9231 10.8213 47.545 10.7449C48.205 10.6609 48.8154 10.913 49.0748 11.3674C49.0939 11.3979 49.1168 11.4361 49.1206 11.4705C49.1778 11.8676 49.2351 12.2685 49.2847 12.6695C49.2961 12.765 49.2351 12.8833 49.2656 12.9712C49.4411 13.4523 49.361 13.9525 49.3724 14.4451C49.3839 15.3845 49.3724 16.32 49.3686 17.2594C49.3648 17.9047 49.3724 18.55 49.3495 19.1954C49.3266 19.8751 49.4296 20.5662 49.2122 21.2345C49.1817 21.3261 49.1817 21.4407 49.216 21.5323C49.3533 21.8722 49.361 22.2235 49.3266 22.5824C49.2961 22.8955 49.2847 23.2125 49.2847 23.5332C49.2847 24.5719 49.2999 25.6105 49.2999 26.6453C49.2999 27.2792 49.2732 27.9131 49.2694 28.5432C49.2694 29.4291 49.2847 30.315 49.2808 31.2009C49.2732 31.8538 49.1855 32.5068 49.2656 33.1636C49.3152 33.5875 49.2656 34.0266 49.2656 34.4543C49.2656 34.7712 49.2923 34.7941 49.6128 34.7941C50.0706 34.7941 50.5322 34.7368 50.9786 34.8094C51.4669 34.8896 51.9286 34.8628 52.4169 34.8247C53.2333 34.7636 54.0612 34.8208 54.8853 34.8361C55.5949 34.8476 56.3007 34.8743 57.0103 34.8896C57.3956 34.8972 57.491 34.7903 57.4338 34.4199C57.3689 34.1297 57.3651 33.8433 57.5025 33.5645L57.5101 33.5531ZM78.3102 34.9507C78.2835 35.4547 78.2568 35.9664 78.1461 36.4628C78.0469 36.9172 77.8982 37.3793 77.6693 37.7802C77.0092 38.9487 76.1127 39.8995 74.8995 40.5257C74.6744 40.6403 74.4607 40.7778 74.2433 40.9114C74.0601 41.026 73.8846 41.1405 73.8808 41.404C73.877 41.5873 73.732 41.572 73.6481 41.4727C73.4116 41.1902 73.1445 41.278 72.8546 41.3544C72.3891 41.4766 71.9122 41.5606 71.4468 41.6675C71.1873 41.7286 70.9355 41.7973 70.6761 41.866C70.6151 41.8813 70.554 41.9004 70.493 41.9042C69.5087 41.9157 68.5244 41.9195 67.5401 41.9348C67.315 41.9386 67.0861 41.9692 66.861 41.9844C66.7847 41.9921 66.7084 42.0073 66.6359 41.9959C65.663 41.8393 64.6787 41.7324 63.7173 41.5147C62.7368 41.2933 61.8021 40.9076 60.9513 40.3768C60.3943 40.0293 60.0128 39.5367 59.6771 38.9945C59.5436 38.7769 59.4138 38.5592 59.3223 38.3224C59.2078 38.0322 59.1086 37.7306 59.0514 37.4213C58.956 36.9096 58.895 36.3941 58.8378 35.8786C58.792 35.4547 58.8339 35.4013 59.246 35.3974C60.2455 35.3898 61.2451 35.3974 62.2447 35.3974C63.5761 35.4051 64.9038 35.4165 66.2391 35.428C66.674 35.428 66.6931 35.4585 66.819 35.8671C66.8991 36.1344 66.9945 36.3979 67.1013 36.6537C67.3646 37.2685 68.2382 37.532 68.8067 37.1769C68.8792 37.1311 68.9898 37.1196 69.0776 37.1349C69.4019 37.196 69.5774 37.1158 69.7338 36.8332C69.8444 36.6346 69.9894 36.4514 70.0733 36.2452C70.1573 36.039 70.2259 35.8098 70.2412 35.5922C70.2908 34.5535 70.3137 33.5149 70.3518 32.4801C70.3518 32.419 70.3595 32.3541 70.3518 32.2892C70.3175 31.8958 70.1458 31.7966 69.8101 31.9913C69.3294 32.2701 68.8563 32.5641 68.3756 32.8505C67.4218 33.4118 66.3765 33.6295 65.2891 33.6867C64.6139 33.7211 63.9462 33.6753 63.2862 33.5225C62.4278 33.324 61.6075 33.0299 60.9284 32.4419C60.5851 32.144 60.2188 31.8577 59.9518 31.4987C59.7076 31.1741 59.5054 30.777 59.41 30.3837C59.2345 29.6582 59.1124 28.9174 59.04 28.1766C58.956 27.3212 58.9713 26.4544 58.895 25.5952C58.7958 24.4841 58.9064 23.3767 58.8835 22.2693C58.8683 21.5705 58.8835 20.8755 58.8835 20.1806C58.8835 19.9285 58.9484 19.6651 58.9026 19.4245C58.8034 18.909 58.8835 18.4049 58.895 17.8856C58.9331 16.4537 58.8797 15.0217 58.9255 13.5898C58.9522 12.5893 59.0285 11.585 59.1811 10.6037C59.2879 9.92014 59.4711 9.21371 59.7954 8.6142C60.2112 7.84668 60.8216 7.19371 61.6457 6.81185C61.9471 6.67057 62.2447 6.5331 62.5422 6.39563C62.588 6.37654 62.6338 6.34599 62.6834 6.34217C63.7898 6.20089 64.9 6.12451 66.014 6.2658L66.0522 6.27344C66.0522 6.27344 66.0674 6.24289 66.0712 6.22761C66.7885 6.53692 67.5477 6.78512 68.223 7.17461C68.6922 7.44573 69.0547 7.91159 69.4667 8.28581C69.6079 8.41564 69.749 8.54547 69.9055 8.64475C70.1344 8.78222 70.287 8.70585 70.348 8.44237C70.3747 8.3469 70.3671 8.23999 70.3709 8.1407C70.3709 7.85049 70.3709 7.55647 70.3747 7.26626C70.3824 6.83476 70.4167 6.79658 70.8631 6.79276C71.546 6.7813 72.2327 6.7813 72.9156 6.77367C73.7778 6.76603 74.6439 6.8424 75.4984 6.7393C76.3301 6.64384 77.1466 6.83094 77.9706 6.73166C78.4323 6.6782 78.5696 6.82331 78.5696 7.28917C78.5696 8.22853 78.5391 9.16407 78.5353 10.1034C78.5238 11.4743 78.5277 12.8413 78.5162 14.2084C78.5048 15.7396 78.4742 17.2747 78.4628 18.8097C78.4552 19.7071 78.4666 20.6044 78.4742 21.5018C78.4742 21.6049 78.4742 21.7042 78.4971 21.8073C78.5277 21.9753 78.6001 22.0746 78.7795 21.9447C78.81 21.9256 78.8558 21.8874 78.8786 21.8951C78.955 21.918 79.0503 21.9447 79.0961 22.002C79.1266 22.044 79.1114 22.1509 79.077 22.2044C79.0389 22.2655 78.9626 22.2999 78.9015 22.3457C78.6192 22.5481 78.5849 22.6321 78.7375 22.9452C78.8596 23.1934 78.9359 23.411 78.6459 23.602C78.5734 23.6478 78.5353 23.7738 78.5124 23.8655C78.4742 24.0258 78.4437 24.19 78.4399 24.3542C78.4246 25.4692 78.3941 26.5843 78.417 27.6993C78.4437 29.3069 78.3979 30.9145 78.3674 32.5221C78.3522 33.3393 78.3483 34.145 78.3102 34.9583V34.9507ZM70.0504 27.6038C70.1115 26.7103 70.1573 25.8129 70.1916 24.9155C70.2297 23.9304 70.2526 22.9414 70.2679 21.9524C70.2832 20.761 70.2793 19.5696 70.2793 18.3782C70.2793 17.3892 70.2793 16.4002 70.2755 15.4112C70.2755 14.4489 70.2793 13.4867 70.2564 12.5282C70.2488 12.2418 70.184 11.9516 70.1077 11.669C69.9856 11.2414 69.7147 10.9626 69.2454 10.9244C69.1691 10.913 69.0966 10.8939 69.0203 10.8862C68.1429 10.764 67.5744 11.1383 67.3417 11.9936C67.2959 12.1616 67.273 12.3411 67.2234 12.5129C67.0098 13.2728 67.1242 14.0556 67.1013 14.8193C67.0556 16.2627 67.0899 17.71 67.0784 19.1534C67.0632 20.7877 67.025 22.4182 67.0174 24.0526C67.0174 24.9117 67.0594 25.7785 67.0975 26.6377C67.1166 27.1074 67.1547 27.5733 67.2005 28.0391C67.231 28.3484 67.3531 28.631 67.5973 28.8372C68.2993 29.4176 69.5354 29.1389 69.8902 28.3064C69.9894 28.0888 70.0352 27.8444 70.0504 27.6038ZM99.9344 30.7197C99.7512 30.8343 99.5872 30.9488 99.5452 31.2009C99.5071 31.4338 99.343 31.4605 99.1561 31.304C99.0912 31.2467 99.034 31.1703 98.9615 31.1283C98.7631 31.0099 98.6143 31.0558 98.4846 31.2543C98.2786 31.5713 98.0726 31.892 97.8589 32.2051C97.7674 32.3464 97.7521 32.4724 97.817 32.6328C97.8933 32.8199 97.9505 33.0185 97.9772 33.2132C97.9886 33.3011 97.9238 33.4271 97.8513 33.4805C97.8132 33.5111 97.6834 33.4309 97.6033 33.3889C97.5614 33.3698 97.5346 33.3163 97.5003 33.2782C97.2371 32.9956 97.218 32.9803 96.9509 33.2782C96.2222 34.0953 95.299 34.5879 94.288 34.9621C93.7615 35.1569 93.2388 35.3096 92.6856 35.3822C92.4567 35.4089 92.2354 35.5387 92.0294 35.6609C91.686 35.8671 91.3618 36.0275 90.9917 35.7029C90.9154 35.6342 90.778 35.6113 90.6712 35.6075C90.1638 35.6075 89.6602 35.6227 89.1528 35.6342C89.0498 35.6342 88.9353 35.68 88.8552 35.6456C88.405 35.4585 87.9281 35.5502 87.4703 35.4815C87.3559 35.4662 87.2491 35.4242 87.1422 35.4013C86.8332 35.3363 86.5242 35.2829 86.2151 35.2218C86.1274 35.2065 86.0358 35.2103 85.9557 35.176C85.0439 34.8361 84.1512 34.4619 83.3195 33.9388C82.8884 33.6676 82.4839 33.3965 82.1215 33.0299C81.8583 32.7588 81.6065 32.5068 81.4157 32.167C81.1906 31.7584 80.893 31.3918 80.626 31.0023C80.5649 30.9107 80.5001 30.8076 80.4772 30.6968C80.3131 30.0057 80.1949 29.3031 79.9889 28.6234C79.8744 28.2568 79.8439 27.9246 79.8668 27.5351C79.9049 26.7064 79.8172 25.8664 79.779 25.0339C79.7485 24.274 79.718 23.5141 79.6875 22.7619C79.6875 22.6855 79.6798 22.6015 79.7103 22.5366C79.8858 22.17 79.8286 21.7958 79.7676 21.4139C79.7561 21.3261 79.7523 21.2383 79.7599 21.1505C79.7866 20.2264 79.8134 19.3023 79.8439 18.3782C79.5997 17.8856 79.8362 17.393 79.8553 16.9004C79.882 16.2169 79.8858 15.5296 79.924 14.8499C79.9774 13.8227 80.1605 12.807 80.4009 11.8103C80.6107 10.9435 81.0685 10.2027 81.5531 9.46574C81.8659 8.98842 82.2741 8.62566 82.7281 8.29344C83.6399 7.63284 84.6624 7.17843 85.7001 6.77367C86.2075 6.5751 86.7912 6.55983 87.3406 6.48346C88.8743 6.26198 90.4003 6.33072 91.9264 6.55219C92.2621 6.59801 92.6055 6.61329 92.945 6.64765C93.029 6.65911 93.1167 6.68584 93.193 6.72021C93.4906 6.85767 93.7767 7.01805 94.082 7.14406C95.5088 7.74358 96.7602 8.58747 97.714 9.81704C98.0344 10.2333 98.3129 10.7068 98.5113 11.1955C98.9081 12.1578 99.1828 13.1621 99.2782 14.2084C99.3011 14.4757 99.2972 14.7926 99.6978 14.8231C99.6978 14.8231 99.7016 14.9759 99.6902 14.9797C99.3774 15.0523 99.4002 15.2928 99.4079 15.5219C99.4384 16.1902 99.488 16.8622 99.4956 17.5343C99.5109 18.3935 99.4804 19.2527 99.488 20.1156C99.488 20.3257 99.5338 20.5433 99.5872 20.7495C99.6826 21.1237 99.5223 21.3758 99.1332 21.3987C98.8699 21.4139 98.6029 21.4254 98.3358 21.4216C97.0196 21.4025 95.7072 21.3719 94.391 21.3529C93.2922 21.3338 92.1896 21.3223 91.0909 21.3147C90.4461 21.3108 89.8052 21.3261 89.1566 21.3223C88.9811 21.3223 88.8018 21.2803 88.6301 21.2765C88.2257 21.2688 88.054 21.4178 88.0579 21.8149C88.0579 22.422 88.1036 23.0292 88.1113 23.6402C88.1189 24.0029 88.0769 24.3695 88.0769 24.7361C88.0769 25.179 88.0922 25.622 88.1036 26.0649C88.1036 26.126 88.1227 26.1909 88.1227 26.252C88.1036 26.9737 88.0502 27.6954 88.0769 28.4133C88.0998 28.9632 88.2105 29.5169 88.3097 30.0629C88.3669 30.3799 88.5958 30.6204 88.901 30.7121C89.4695 30.8839 90.0455 30.9336 90.5835 30.5746C90.862 30.3913 91.0718 30.1431 91.1481 29.8338C91.2473 29.4291 91.3045 29.0128 91.3465 28.6043C91.3923 28.1384 91.4228 27.6725 91.4343 27.2067C91.4533 26.4964 91.4419 25.79 91.4571 25.0836C91.4648 24.6635 91.4915 24.2511 91.5144 23.8311C91.5258 23.5982 91.6746 23.5332 91.8768 23.5332C92.4453 23.5332 93.0175 23.5332 93.586 23.518C93.9789 23.5065 94.3681 23.476 94.7572 23.453C94.8335 23.453 94.9137 23.4378 94.9823 23.453C95.7339 23.6402 96.4969 23.4683 97.2561 23.4798C97.3973 23.4798 97.5461 23.4034 97.6758 23.3309C97.836 23.2392 98.0039 23.1972 98.1336 23.3194C98.3931 23.5676 98.7059 23.5523 99.0264 23.5485C99.4117 23.5485 99.446 23.5638 99.4804 23.938C99.4994 24.2015 99.4651 24.465 99.4613 24.7284C99.4537 25.2821 99.4537 25.8435 99.4384 26.401C99.4117 27.2258 99.3735 28.0468 99.3316 28.8677C99.3201 29.0396 99.2591 29.2152 99.2209 29.3909H99.2438C99.1446 29.7078 99.034 30.0209 98.9501 30.3379C98.931 30.4142 98.9844 30.5135 99.0073 30.6052C99.095 30.567 99.2248 30.5479 99.2553 30.4792C99.3735 30.2233 99.5261 30.0973 99.8237 30.1737C99.8619 30.1813 99.9573 30.0591 99.9878 29.9789L99.9458 30.735L99.9344 30.7197ZM88.7713 17.0035C89.3397 16.8699 89.9006 17.0494 90.4652 17.0341C90.5568 17.0341 90.6445 17.0341 90.7284 17.0226C91.007 16.9844 91.1329 16.8508 91.1519 16.572C91.1634 16.3964 91.1519 16.2169 91.1519 16.0374C91.171 14.7964 91.2092 13.5592 91.0413 12.3182C90.9688 11.8065 90.7704 11.4399 90.3469 11.1688C90.0074 10.9473 88.9659 11.0008 88.6721 11.2834C88.6378 11.3177 88.5958 11.3559 88.5767 11.4017C88.4623 11.6538 88.2982 11.902 88.2601 12.1654C88.1838 12.6886 88.1647 13.2194 88.1456 13.7501C88.1113 14.5979 88.0922 15.4456 88.0693 16.2933C88.0579 16.7668 88.138 16.8813 88.5538 16.9768C88.5958 16.9768 88.6874 17.0188 88.7713 16.9997V17.0035Z" fill="white"/>
</svg>
