<svg width="121" height="36" viewBox="0 0 121 36" fill="none" xmlns="http://www.w3.org/2000/svg">
<g clip-path="url(#clip0_402_229)">
<path d="M13.6424 2.87389H1.46558V7.05877H11.2952C12.028 7.05877 12.6234 7.65415 12.6234 8.38694V16.1842H17.3807V6.61223C17.3807 4.54555 15.7091 2.87389 13.6424 2.87389Z" fill="white"/>
<path d="M12.6233 18.56C12.6233 20.7068 11.4784 22.9224 8.58158 22.9224C6.07981 22.9224 4.57417 21.4225 4.53982 19.2413H0C0.0343492 24.2105 3.46927 27.2847 8.58158 27.2847C14.232 27.2847 17.3807 23.638 17.3807 18.6688V18.1707H12.6233V18.56Z" fill="white"/>
<path d="M32.2539 11.7646C34.9274 11.7646 36.9483 13.5737 37.4349 16.1842H42.198C41.6427 11.215 37.7154 7.54538 32.2539 7.54538C26.7924 7.54538 22.8651 11.2207 22.3098 16.1842H27.0729C27.5481 13.5737 29.5518 11.7646 32.2539 11.7646Z" fill="white"/>
<path d="M32.254 23.0655C29.4201 23.0655 27.3134 21.0847 27.0042 18.1707H22.2698C22.619 23.409 26.6207 27.2847 32.254 27.2847C37.8872 27.2847 41.8832 23.3746 42.2381 18.1707H37.5037C37.1888 21.0618 35.0878 23.0655 32.254 23.0655Z" fill="white"/>
<path d="M49.4401 5.50732C51.1232 5.50732 52.3025 4.47112 52.3025 2.78801C52.3025 1.1049 51.1232 0.108772 49.4401 0.108772C47.757 0.108772 46.5776 1.17932 46.5776 2.79374C46.5776 4.40815 47.757 5.51305 49.4401 5.51305V5.50732Z" fill="white"/>
<path d="M51.7643 18.1707H47.1157V26.821H51.7643V18.1707Z" fill="white"/>
<path d="M51.7643 8.00909H47.1157V16.1842H51.7643V8.00909Z" fill="white"/>
<path d="M61.571 16.0583C61.571 13.6996 63.1796 11.9077 65.4352 11.9077C67.6908 11.9077 69.0476 13.4477 69.0476 15.7319V16.1842H73.6962V14.5183C73.6962 10.5109 71.12 7.54538 66.9008 7.54538C64.2158 7.54538 62.361 8.90217 61.611 10.299H61.3591V8.00909H56.9224V16.1842H61.571V16.0525V16.0583Z" fill="white"/>
<path d="M61.571 18.1707H56.9224V26.821H61.571V18.1707Z" fill="white"/>
<path d="M73.6906 18.1707H69.042V26.821H73.6906V18.1707Z" fill="white"/>
<path d="M83.2225 11.7303H88.4092V8.00909H83.2225V2.82236H78.8601V6.61222C78.8601 7.5053 78.322 8.04344 77.5033 8.04344H75.3909V11.7245H78.5739V16.1842H83.2225V11.7245V11.7303Z" fill="white"/>
<path d="M78.574 20.5637C78.574 24.6055 80.9326 26.821 84.8313 26.821H88.3005V22.9567H85.7988C84.0126 22.9567 83.2226 21.9549 83.2226 20.3805V18.165H78.574V20.558V20.5637Z" fill="white"/>
<path d="M97.1625 0H92.5139V16.1842H97.1625V0Z" fill="white"/>
<path d="M92.5139 21.5255C92.5139 24.8517 94.3745 26.8153 97.6663 26.8153H99.4181V22.7392H98.6682C97.7006 22.7392 97.1682 22.1667 97.1682 21.0961V18.165H92.5196V21.5255H92.5139Z" fill="white"/>
<path d="M111.12 21.2393H110.834L109.746 18.165H105.166L108.721 27.3878L108.223 28.7102C107.685 30.1071 106.792 30.8914 105.183 30.8914H103.254V35.0419H105.578C109.225 35.0419 111.154 33.2157 112.339 30.0384L116.81 18.1707H112.179L111.126 21.245L111.12 21.2393Z" fill="white"/>
<path d="M106.15 8.00909H101.25L104.404 16.1842H109.042L106.15 8.00909Z" fill="white"/>
<path d="M120.52 8.00909H115.545L112.74 16.1842H117.44L120.52 8.00909Z" fill="white"/>
</g>
<defs>
<clipPath id="clip0_402_229">
<rect width="120.52" height="35.0476" fill="white"/>
</clipPath>
</defs>
</svg>
