<?xml version="1.0" encoding="UTF-8" standalone="no"?>
<!DOCTYPE svg PUBLIC "-//W3C//DTD SVG 1.1//EN" "http://www.w3.org/Graphics/SVG/1.1/DTD/svg11.dtd">
<svg width="100%" height="100%" viewBox="0 0 29 30" version="1.1" xmlns="http://www.w3.org/2000/svg" xmlns:xlink="http://www.w3.org/1999/xlink" xml:space="preserve" xmlns:serif="http://www.serif.com/" style="fill-rule:evenodd;clip-rule:evenodd;stroke-linejoin:round;stroke-miterlimit:2;">
    <path d="M13.896,17.896C9.229,11.989 7.031,6.229 15.479,0C20.427,4.687 21.739,10.427 16.729,17.385C15.062,14.844 14.583,12.094 15.239,8.989C13.198,11.135 12.521,13.802 13.896,17.896Z" style="fill:rgb(231,233,246);"/>
    <path d="M10.719,17.958C3.667,18.083 4.01,14.875 0,11.948C4.146,9.198 8.823,10 11.531,16.635C9.416,14.458 6.812,13.791 5.187,13.708C8.083,14.916 10.479,17.594 10.719,17.958Z" style="fill:rgb(231,233,246);"/>
    <path d="M22.301,28.229C22.416,28.229 22.509,28.323 22.509,28.438L22.509,29.166C22.509,29.625 22.135,29.999 21.676,29.999L20.323,29.999C19.865,29.999 19.489,29.625 19.489,29.166L19.489,28.438C19.489,28.323 19.583,28.229 19.698,28.229L22.301,28.229ZM24.384,23.646C24.613,23.646 24.801,23.833 24.801,24.062L24.801,25.521C24.801,26.781 23.78,27.812 22.509,27.812L19.489,27.812C18.229,27.812 17.197,26.781 17.197,25.521L17.197,24.062C17.197,23.833 17.385,23.646 17.614,23.646L24.384,23.646ZM20.896,7.458C24.896,7.458 28.156,10.719 28.156,14.719C28.156,16.854 27.124,18.479 26.208,19.906C25.603,20.843 25.041,21.719 24.906,22.583C24.903,22.602 24.897,22.619 24.891,22.637C24.828,22.976 24.535,23.229 24.176,23.229L17.822,23.229C17.481,23.229 17.202,23.001 17.12,22.689C17.11,22.668 17.1,22.647 17.093,22.624C16.927,22.041 16.417,21.27 15.927,20.521L15.917,20.499C15.375,19.666 14.76,18.719 14.312,17.677C14.26,17.562 14.261,17.437 14.302,17.323C14.344,17.208 14.438,17.114 14.552,17.062L15.343,16.718C15.458,16.666 15.583,16.667 15.698,16.708C15.812,16.75 15.906,16.844 15.959,16.958C16.354,17.864 16.906,18.718 17.437,19.531C17.895,20.235 18.331,20.905 18.618,21.563L23.311,21.563C23.611,20.633 24.157,19.775 24.687,18.948C25.51,17.666 26.354,16.333 26.354,14.719C26.354,11.709 23.906,9.26 20.896,9.26C20.636,9.26 20.427,9.052 20.427,8.791L20.427,7.927C20.427,7.667 20.636,7.458 20.896,7.458Z" style="fill:white;fill-opacity:0.5;fill-rule:nonzero;"/>
</svg>
