<svg width="13" height="30" viewBox="0 0 13 30" fill="none" xmlns="http://www.w3.org/2000/svg">
<path d="M7.24427 26.0544C7.24427 26.5986 7.11196 26.8707 7.01272 27.1088C6.08651 27.619 5.06107 27.9252 4.2341 27.9932L1.75318 26.6667C0.860051 26.6667 0.330789 27.3469 0.330789 28.1292C0.330789 29.0816 1.0916 30 2.61323 30C6.02036 30 13 25.5102 13 20.1361C13 18.2993 12.0076 16.0884 10.7506 13.9116L8.50127 10.034C7.2112 7.78911 5.75572 5.78231 5.75572 4.14965C5.75572 3.50339 5.88804 3.19729 5.98728 2.89117C6.94656 2.38096 7.97201 2.10884 8.79898 2.0068L11.313 3.36734C12.173 3.36734 12.7684 2.65307 12.7684 1.87075C12.7684 0.884357 11.9415 0 10.4198 0C7.21119 0 0 4.52382 0 9.93198C0 11.8027 1.02545 13.9456 2.28244 16.0884L4.53181 19.966C5.85496 22.2449 7.24427 24.3878 7.24427 26.0544ZM2.48092 8.57142C2.48092 6.80272 3.14249 5.44217 4.0687 4.38775H4.2341C4.16794 4.7619 4.0687 5.23809 4.0687 5.78231C4.03562 7.27891 4.76336 8.67347 6.48346 11.7687L8.23664 14.966C9.49364 17.2789 10.486 19.3197 10.486 21.4286C10.486 23.1973 9.85751 24.5578 8.9313 25.6122H8.79898C8.86514 25.2381 8.96438 24.7619 8.96438 24.2177C8.96438 22.7211 8.23664 21.3605 6.54962 18.2313L4.79644 15.034C3.53944 12.7551 2.48092 10.6803 2.48092 8.57142Z" fill="#ffffff"/>
</svg>
