<svg width="141" height="32" viewBox="0 0 141 32" fill="none" xmlns="http://www.w3.org/2000/svg">
<path d="M2.44411 25.6453C1.96658 25.6453 1.55311 25.4828 1.2037 25.1578C0.865933 24.8212 0.69705 24.4207 0.69705 23.9565V23.9391L0.662109 2.12405C0.662109 1.81066 0.807697 1.45666 1.09887 1.06202C1.4017 0.655785 1.83264 0.446863 2.3917 0.435256L7.89492 0.400435C9.59539 0.400435 11.1386 0.678999 12.5246 1.23613C13.9223 1.78165 15.0287 2.61153 15.844 3.72579C16.671 4.84004 17.0844 6.25608 17.0844 7.97388C17.0844 9.93544 16.6535 11.514 15.7916 12.7095C14.9297 13.905 13.7476 14.7813 12.2451 15.3384C10.7543 15.8955 9.0538 16.2031 7.14369 16.2612L4.17369 16.3308L4.19116 23.9739V23.9913C4.19116 24.4556 4.01646 24.8502 3.66705 25.1752C3.32928 25.4886 2.92164 25.6453 2.44411 25.6453ZM13.5903 7.99129C13.5903 6.54044 13.072 5.49583 12.0354 4.85745C11.0105 4.21908 9.58957 3.89989 7.77263 3.89989H4.15622L4.17369 12.8139L7.09128 12.7443C9.14116 12.6979 10.7368 12.3497 11.8782 11.6997C13.0196 11.0497 13.5903 9.81357 13.5903 7.99129Z" fill="#0F5F5F"/>
<path d="M28.2139 6.23286C29.0758 6.23286 29.9144 6.40696 30.7296 6.75517C31.5566 7.09177 32.2903 7.52122 32.9309 8.04353C33.5832 8.55423 34.0665 9.08234 34.381 9.62786L34.5732 7.95647C34.5732 7.48059 34.7129 7.07436 34.9925 6.73776C35.272 6.38955 35.6505 6.21545 36.128 6.21545C36.6056 6.21545 37.0132 6.38955 37.351 6.73776C37.7004 7.07436 37.8751 7.48059 37.8751 7.95647V7.99129L37.8402 24.1132C37.8402 24.589 37.6655 25.0011 37.316 25.3493C36.9783 25.6859 36.5706 25.8542 36.0931 25.8542C35.6156 25.8542 35.2371 25.6859 34.9575 25.3493C34.678 25.0011 34.5382 24.589 34.5382 24.1132L34.3461 22.7203C33.7404 23.7534 32.8552 24.5252 31.6905 25.0359C30.5258 25.535 29.3553 25.7845 28.1789 25.7845C26.8628 25.7845 25.6282 25.5292 24.4752 25.0185C23.3221 24.4962 22.3088 23.7824 21.4353 22.877C20.5618 21.9717 19.8746 20.9329 19.3738 19.7606C18.8846 18.5883 18.64 17.3522 18.64 16.0522C18.64 14.7639 18.8788 13.5336 19.3563 12.3613C19.8455 11.1774 20.521 10.1269 21.3829 9.21001C22.2564 8.28147 23.2697 7.55604 24.4228 7.03373C25.5875 6.49982 26.8512 6.23286 28.2139 6.23286ZM34.2412 16.0174C34.2412 14.8799 33.9733 13.8353 33.4376 12.8836C32.9135 11.9318 32.1972 11.1658 31.2887 10.5854C30.3802 10.0051 29.3436 9.71491 28.1789 9.71491C27.0375 9.71491 26.0068 10.0051 25.0867 10.5854C24.1665 11.1658 23.4386 11.9376 22.9028 12.901C22.3671 13.8527 22.0992 14.8857 22.0992 16C22.0992 17.1259 22.3729 18.1705 22.9203 19.1338C23.4677 20.0856 24.2015 20.8517 25.1216 21.432C26.0534 22.0123 27.0783 22.3025 28.1964 22.3025C29.3145 22.3025 30.3278 22.0123 31.2363 21.432C32.1564 20.8517 32.8843 20.0856 33.4201 19.1338C33.9675 18.1705 34.2412 17.1317 34.2412 16.0174Z" fill="#0F5F5F"/>
<path d="M40.8535 7.74755C40.8535 7.36453 41.0224 7.02793 41.3601 6.73776C41.6979 6.44759 42.059 6.3025 42.4433 6.3025C42.8393 6.3025 43.1887 6.41277 43.4915 6.6333C43.806 6.85383 44.0098 7.12659 44.103 7.45158L47.5971 19.2731L51.7376 7.67791H51.7551C52.0463 7.16721 52.5588 6.91186 53.2925 6.91186C53.6303 6.91186 53.9448 6.98731 54.2359 7.13819C54.5271 7.27748 54.7309 7.46318 54.8474 7.69532V7.71273L58.8656 18.9946L62.0977 7.46899C62.1909 7.1556 62.383 6.88284 62.6742 6.65071C62.9654 6.41857 63.3206 6.3025 63.7399 6.3025C64.1126 6.3025 64.4737 6.44178 64.8231 6.72035C65.1725 6.98731 65.3472 7.3239 65.3472 7.73014C65.3472 7.98549 65.3239 8.18861 65.2773 8.3395L60.7 24.4266C60.6185 24.7167 60.4263 24.9895 60.1235 25.2448C59.8323 25.4886 59.4946 25.6104 59.1102 25.6104C58.7492 25.6104 58.423 25.5118 58.1319 25.3145C57.8523 25.1055 57.6543 24.8618 57.5379 24.5832L53.31 12.9358L49.0122 24.6877C48.8958 25.0011 48.6861 25.2506 48.3833 25.4363C48.0921 25.6337 47.7718 25.7323 47.4224 25.7323C47.0614 25.7323 46.7294 25.6221 46.4266 25.4015C46.1354 25.181 45.9432 24.9082 45.8501 24.5832L40.9059 8.35691C40.871 8.18281 40.8535 7.97969 40.8535 7.74755Z" fill="#0F5F5F"/>
<path d="M86.8619 16.0522C86.8619 17.3638 86.6173 18.6406 86.1281 19.8825C85.6506 21.1244 84.9285 22.2213 83.9618 23.173C83.1115 23.9971 82.1332 24.6355 81.0267 25.0881C79.9202 25.5408 78.773 25.7671 77.585 25.7671C76.3737 25.7671 75.2964 25.5118 74.3529 25.0011C73.4212 24.4904 72.5768 23.7998 71.8197 22.9293V30.259C71.8197 30.7349 71.645 31.1411 71.2956 31.4777C70.9578 31.8259 70.5502 32 70.0727 32C69.5951 32 69.1817 31.8259 68.8322 31.4777C68.4945 31.1411 68.3256 30.7349 68.3256 30.259V8.02612C68.3256 7.55024 68.4945 7.144 68.8322 6.8074C69.1817 6.45919 69.5951 6.28509 70.0727 6.28509C70.5502 6.28509 70.9054 6.45919 71.1384 6.8074C71.3829 7.144 71.5402 7.55024 71.6101 8.02612L71.8197 9.43634C72.4836 8.48458 73.3571 7.73594 74.4403 7.19042C75.5351 6.6449 76.6241 6.37214 77.7073 6.37214C79.0234 6.37214 80.2347 6.6333 81.3412 7.1556C82.4593 7.67791 83.4318 8.39173 84.2588 9.29706C85.0857 10.1908 85.7263 11.218 86.1805 12.3787C86.6347 13.5394 86.8619 14.7639 86.8619 16.0522ZM77.7422 9.85419C76.9852 9.85419 76.2339 10.0225 75.4885 10.3591C74.7431 10.6841 74.1084 11.1367 73.5842 11.7171C73.0601 12.2858 72.6525 12.9648 72.3613 13.7541C72.0818 14.5317 71.942 15.3268 71.942 16.1393C71.942 17.2535 72.1866 18.2807 72.6758 19.2209C73.1649 20.161 73.8405 20.9155 74.7024 21.4842C75.5642 22.053 76.5484 22.3373 77.6549 22.3373C78.7613 22.3373 79.7455 22.0413 80.6074 21.4494C81.4693 20.8458 82.1448 20.0682 82.634 19.1164C83.1348 18.1531 83.3852 17.1317 83.3852 16.0522C83.3852 14.9612 83.1406 13.9456 82.6515 13.0054C82.1623 12.0653 81.4926 11.305 80.6423 10.7247C79.7921 10.1444 78.8254 9.85419 77.7422 9.85419Z" fill="#0F5F5F"/>
<path d="M101.441 8.5136C101.441 9.44215 100.992 9.95865 100.095 10.0631C99.7693 10.0979 99.3559 9.99347 98.8551 9.74973C98.3542 9.49438 97.8476 9.3667 97.3351 9.3667C96.3218 9.3667 95.5182 9.62786 94.9242 10.1502C94.3302 10.6609 93.9051 11.3515 93.6488 12.222C93.3926 13.0925 93.2645 14.0675 93.2645 15.1469V24.1306C93.2645 24.6413 93.1072 25.0475 92.7928 25.3493C92.4899 25.6511 92.0648 25.802 91.5174 25.802C90.9817 25.802 90.5565 25.6511 90.2421 25.3493C89.9276 25.0475 89.7704 24.6355 89.7704 24.1132V8.07835C89.7704 7.55604 89.8985 7.12659 90.1547 6.78999C90.4226 6.45339 90.7837 6.28509 91.2379 6.28509C91.5058 6.28509 91.8144 6.40116 92.1638 6.6333C92.5249 6.85383 92.7753 7.23685 92.9151 7.78237L93.0898 9.03591C93.2412 8.71092 93.5324 8.3337 93.9633 7.90424C94.3942 7.47479 94.9067 7.10337 95.5007 6.78999C96.0947 6.465 96.712 6.3025 97.3526 6.3025C98.5406 6.3025 99.5189 6.44178 100.288 6.72035C101.056 6.98731 101.441 7.58506 101.441 8.5136Z" fill="#0F5F5F"/>
<path d="M105.782 4.52666C105.246 4.52666 104.809 4.36416 104.471 4.03917C104.134 3.70258 103.959 3.29053 103.947 2.80305L103.912 1.47987C103.912 1.03881 104.11 0.684802 104.506 0.417845C104.902 0.139282 105.281 0 105.642 0C106.131 0 106.539 0.168299 106.865 0.504897C107.203 0.841494 107.377 1.24773 107.389 1.72361L107.407 2.76823C107.407 3.22089 107.255 3.62713 106.952 3.98694C106.649 4.34675 106.259 4.52666 105.782 4.52666ZM103.895 7.81719C103.895 7.37613 104.081 7.01632 104.454 6.73776C104.827 6.45919 105.188 6.31991 105.537 6.31991C106.05 6.31991 106.486 6.4708 106.847 6.77258C107.209 7.07436 107.389 7.47479 107.389 7.97388V7.99129L107.424 24.1132C107.424 24.5774 107.249 24.9721 106.9 25.2971C106.562 25.6221 106.154 25.7845 105.677 25.7845C105.188 25.7845 104.774 25.6221 104.437 25.2971C104.099 24.9605 103.93 24.56 103.93 24.0958L103.895 7.81719Z" fill="#0F5F5F"/>
<path d="M114.595 9.07073C115.224 8.45557 115.976 7.84621 116.849 7.24266C117.734 6.6391 118.759 6.33732 119.924 6.33732C121.45 6.33732 122.719 6.74356 123.732 7.55604C124.746 8.35691 125.491 9.29126 125.969 10.3591C126.341 11.2064 126.563 12.0479 126.633 12.8836C126.714 13.7077 126.755 14.4853 126.755 15.2165V24.0087C126.755 24.4846 126.58 24.8966 126.231 25.2448C125.893 25.5814 125.485 25.7497 125.008 25.7497C124.53 25.7497 124.117 25.5814 123.767 25.2448C123.43 24.8966 123.261 24.4846 123.261 24.0087V15.2165C123.261 14.5317 123.226 13.8992 123.156 13.3188C123.098 12.7385 122.97 12.2278 122.772 11.7867C122.55 11.276 122.207 10.8234 121.741 10.4287C121.275 10.0225 120.681 9.81937 119.959 9.81937C118.235 9.81937 116.907 10.4752 115.976 11.7867C115.055 13.0983 114.601 14.8683 114.613 17.0968L114.63 24.0435C114.63 24.5194 114.456 24.9314 114.106 25.2797C113.768 25.6162 113.361 25.7845 112.883 25.7845C112.394 25.7845 111.981 25.6162 111.643 25.2797C111.305 24.9314 111.136 24.5136 111.136 24.0261L111.101 8.02612C111.101 7.55024 111.229 7.144 111.486 6.8074C111.753 6.45919 112.126 6.28509 112.604 6.28509C113.081 6.28509 113.448 6.45919 113.704 6.8074C113.961 7.144 114.159 7.55024 114.298 8.02612L114.595 9.07073Z" fill="#0F5F5F"/>
<path d="M132.067 3.20348C132.067 2.7276 132.235 2.32136 132.573 1.98477C132.911 1.63656 133.324 1.46246 133.814 1.46246C134.291 1.46246 134.699 1.63656 135.037 1.98477C135.386 2.32136 135.561 2.7276 135.561 3.20348V6.66812H137.902C138.356 6.66812 138.746 6.83061 139.072 7.1556C139.398 7.48059 139.561 7.86942 139.561 8.32209C139.561 8.77476 139.398 9.16358 139.072 9.48857C138.746 9.81357 138.356 9.97606 137.902 9.97606H135.543L135.526 20.753V20.7878C135.526 21.3565 135.59 21.7512 135.718 21.9717C135.846 22.1806 136.108 22.2851 136.504 22.2851C137.005 22.2851 137.448 22.1516 137.832 21.8847C137.972 21.7918 138.141 21.7106 138.339 21.6409C138.537 21.5597 138.729 21.519 138.915 21.519C139.393 21.519 139.8 21.6873 140.138 22.0239C140.487 22.3605 140.662 22.7668 140.662 23.2427C140.662 23.8114 140.429 24.2699 139.963 24.6181C139.521 24.9547 139.014 25.2332 138.443 25.4538C137.873 25.6743 137.261 25.7845 136.609 25.7845C135.141 25.7845 134.012 25.3377 133.22 24.444C132.428 23.5386 132.032 22.4128 132.032 21.0664V20.9097L132.049 9.99347H129.795C129.341 9.99347 128.951 9.83098 128.625 9.50598C128.299 9.18099 128.136 8.79217 128.136 8.3395C128.136 7.88683 128.299 7.49801 128.625 7.17301C128.951 6.84802 129.341 6.68553 129.795 6.68553H132.067V3.20348Z" fill="#0F5F5F"/>
</svg>
