<svg width="29" height="30" viewBox="0 0 29 30" fill="none" xmlns="http://www.w3.org/2000/svg">
<path fill-rule="evenodd" clip-rule="evenodd" d="M13.8955 17.8956C9.22894 11.9894 7.03108 6.22909 15.4788 0C20.4266 4.68744 21.7391 10.4269 16.7288 17.3852C15.0621 14.8436 14.583 12.0936 15.2392 8.98947C13.1976 11.1353 12.5205 13.8019 13.8955 17.8956Z" fill="#5F83A3"/>
<path fill-rule="evenodd" clip-rule="evenodd" d="M10.7185 17.958C3.66658 18.083 4.01032 14.8747 0 11.9477C4.14573 9.19774 8.8227 9.99981 11.531 16.6351C9.41644 14.4581 6.81233 13.7914 5.18737 13.7081C8.08314 14.9164 10.4789 17.5935 10.7185 17.958Z" fill="#5F83A3"/>
<path d="M22.3013 28.2288C22.4159 28.2288 22.5094 28.3231 22.5094 28.4377L22.5094 29.1663C22.5094 29.6246 22.1347 29.9993 21.6763 29.9993L20.3228 29.9993C19.8645 29.9993 19.4888 29.6246 19.4888 29.1663L19.4888 28.4377C19.4888 28.3231 19.5832 28.2288 19.6978 28.2288L22.3013 28.2288ZM24.3844 23.6458C24.6134 23.6458 24.8012 23.8327 24.8013 24.0618L24.8013 25.5208C24.8011 26.781 23.78 27.8118 22.5094 27.8118L19.4888 27.8118C18.2286 27.8118 17.1971 26.781 17.1969 25.5208L17.1969 24.0618C17.197 23.8327 17.3848 23.6458 17.6138 23.6458L24.3844 23.6458ZM20.8961 7.45825C24.8958 7.45849 28.1558 10.7192 28.1558 14.719C28.1557 16.8541 27.1242 18.4786 26.2076 19.9055C25.6034 20.843 25.0413 21.7187 24.9058 22.5833C24.9025 22.6017 24.8965 22.6193 24.8912 22.637C24.8279 22.9761 24.5354 23.2286 24.1763 23.2288L17.8219 23.2288C17.4814 23.2287 17.202 23.0013 17.1197 22.6887C17.1098 22.6681 17.1001 22.6466 17.0933 22.6243C16.9266 22.0411 16.4167 21.2705 15.9273 20.5208L15.9166 20.4993C15.375 19.666 14.7599 18.7185 14.3121 17.677C14.26 17.5624 14.2607 17.4371 14.3023 17.3225C14.344 17.208 14.4378 17.1138 14.5523 17.0618L15.3433 16.718C15.4579 16.6659 15.5833 16.6666 15.6978 16.7083C15.8124 16.7499 15.9065 16.8437 15.9586 16.9583C16.3543 17.8642 16.906 18.7182 17.4371 19.5305C17.8951 20.2345 18.3305 20.9053 18.6178 21.5627L23.3111 21.5627C23.6114 20.6333 24.1566 19.7747 24.6871 18.9475C25.5099 17.6664 26.3539 16.3333 26.3541 14.719C26.3541 11.7088 23.9062 9.26025 20.8961 9.26001C20.6357 9.26001 20.4273 9.05169 20.4273 8.79126L20.4273 7.927C20.4273 7.66659 20.6357 7.45825 20.8961 7.45825Z" fill="#CBDEFF" fill-opacity="0.5"/>
</svg>
