<?xml version="1.0" encoding="UTF-8"?><svg id="Quotemark" xmlns="http://www.w3.org/2000/svg" viewBox="0 0 34 25"><path d="M32.47,15.18h-.38c-2.17,0-5.62-1.15-5.62-5.23,0-2.3-.51-6.51,7.54-7.91l-1.02-2.04c-10.99,2.04-15.34,8.04-15.34,13.65,0,8.55,5.37,10.97,10.23,11.35l1.41-2.68c-4.98-.13-8.56-2.55-8.56-8.67,0-2.93,1.02-5.48,3.2-7.65l.26,.26c-.64,1.15-.77,2.81-.77,3.83,0,5.74,3.58,8.04,7.54,8.16l1.53-3.06Zm-17.77,0h-.26c-2.43,0-5.62-1.15-5.62-5.23,0-2.42-.38-6.51,7.41-7.91l-1.02-2.04C4.35,2.04,0,8.04,0,13.65c0,8.55,5.37,10.97,10.23,11.35l1.28-2.68c-4.99-.13-8.56-2.55-8.56-8.67,0-2.93,1.15-5.48,3.32-7.65l.26,.26c-.64,1.15-.77,2.81-.77,3.83,0,5.74,3.71,8.04,7.41,8.16l1.53-3.06Z" style="fill:#fc3819;"/></svg>