<?xml version="1.0" encoding="UTF-8"?><svg id="Signature" xmlns="http://www.w3.org/2000/svg" viewBox="0 0 116 70"><path d="M4.67,31.24C9.87,17.89,22.97,9.1,36.49,4.33c1.74-.62,3.58-1.19,5.41-.91,1.83,.27,3.62,1.64,3.77,3.48v.09c.09,1,.2,2.43,1.15,2.25,1.56-2.02,1.04-5.17-.76-6.99C44.27,.44,41.53-.19,38.98,.05c-2.55,.24-4.95,1.24-7.28,2.3C21.44,7.01,11.46,13.28,5.31,22.71c-6.14,9.43-7.57,22.61-1.01,31.77,4.64,6.49,12.36,10,19.95,12.49,5.55,1.82,11.33,3.25,17.17,3.01,3.13-.13,6.56-.95,8.34-3.53,.86-1.26,1.23-2.8,1.36-4.32,.31-3.73-.76-7.56-2.95-10.59-.59-.82,.68-1.69,1.66-1.9,20.55-4.49,41.33-7.98,62.22-10.45,1.85-.22,4.29-1.17,3.92-3-.34-1.67-2.65-1.82-4.34-1.56-20.85,3.17-41.62,6.88-62.28,11.11-7.45,1.53-15.14-.17-22.55-1.85-1.32-.3-2.57,1.06-2.58,2.4,0,1.35,.87,2.55,1.9,3.42,4,3.39,9.97,2.99,15.03,1.59,1.92-.53,4.03,.41,5.28,1.96,1.25,1.55,1.73,3.59,1.78,5.58,.03,1.25-.12,2.55-.63,3.68-.01,0-.03,0-.04,0-.02,.02,0,.04,0,.06-.16,.33-.35,.65-.57,.94-1.43,1.86-3.99,2.42-6.33,2.55-5.37,.3-10.71-.93-15.84-2.53-8.47-2.64-17.37-7.04-20.71-15.25-2.2-5.4-1.54-11.63,.58-17.06ZM28.16,4.05c.06,0,.01,.11-.04,.09h0c.03,.06-.08,.1-.09,.05,.06-.03,.11-.08,.14-.14Zm5.69,.95s.06,.09,.01,.1h0c-.05,.02-.11,0-.14-.05,.04-.03,.08-.06,.13-.05ZM5.53,29.04s.04-.08,0-.08c-.04,0-.04,.08,0,.08Zm102.62,10.28s-.04,.08,0,.08c.04,0,.04-.08,0-.08Zm-105.52,.35s.07-.07,.08-.02v.03h-.08Zm31.81,5.62s.04-.08,0-.08c-.04,0-.04,.08,0,.08Zm12.17,1.05s.04-.08,0-.08c-.04,0-.04,.08,0,.08Zm6.37,2.57s.04-.08,0-.08c-.04,0-.04,.08,0,.08Zm-5.99,14.65s-.04,.08,0,.08c.04,0,.04-.08,0-.08ZM2.63,42.71s.07-.07,.08-.02v.03h-.08Zm64.22-15.83c.41,.89,.95,1.78,1.81,2.26,.86,.48,2.08,.43,2.68-.35,1.33-1.74,3.17-3.69,5.32-3.23,.88,.19,1.6,.76,2.31,1.33h0c.27,.22,.55,.44,.83,.63,2.03,1.41,4.67,1.75,7.11,1.36,2.44-.39,4.72-1.47,6.87-2.69,.16-.09,.32-.18,.48-.27,1.4-.8,2.82-1.62,4.41-1.85,1.77-.25,3.83,.47,4.48,2.14,.38,.96-.23,2.43-1.23,2.19-2.36-.56-4.67,.66-6.85,1.81-.24,.13-.48,.26-.72,.38-2.3,1.19-4.76,2.12-7.34,2.35-2.57,.23-5.27-.3-7.37-1.82-.15-.11-.3-.22-.44-.33-.66-.5-1.33-1.02-2.14-1.09-1.48-.13-2.58,1.22-3.53,2.39l-.14,.17c-.99,1.21-2.71,2.34-3.98,1.43-2.9-2.1-5.07-5.2-6.03-8.65-.11-.41-.67-.54-1.05-.35-.38,.18-.62,.56-.84,.92-1.53,2.5-3.14,4.98-5.25,7.01-2.11,2.03-4.8,3.58-7.72,3.83-2.92,.25-6.05-.98-7.59-3.47-.56-.9-1.92-.13-2.68,.62-2.32,2.29-5.2,4.01-8.32,4.96-1.66,.5-3.53,.77-5.06-.03-1.54-.8-2.38-3.03-1.25-4.34,1.79,1.36,4.34,.59,6.42-.28,2.23-.94,4.48-1.97,6.23-3.64,1.75-1.67,2.95-4.1,2.56-6.48-.07-.44,.4-.83,.85-.81,.45,.02,.84,.33,1.12,.68,.85,1.04,1.04,2.42,1.23,3.79,.19,1.39,.38,2.78,1.26,3.82,.9,1.07,2.39,1.52,3.79,1.43,1.4-.09,2.72-.67,3.94-1.35,2.53-1.43,4.71-3.38,6.49-5.66h0c2.56-3.3,4.29-7.29,5.04-11.41,.14-.8,1.38-.89,1.94-.31,.56,.58,.62,1.47,.64,2.28v.09c.11,3.6,.21,7.31,1.71,10.58h0Zm-30.26,8.01c.04,.06,.15,.06,.19,0-.04-.06-.15-.06-.19,0Zm24.05-14.49s-.1,.03-.06,.06c.03,.03,.1-.03,.06-.06Zm38.57,3.52h0Zm.03,0h-.03l-.13-.04c.01-.09,.19-.05,.16,.04Zm-48.98,21.47c.08-.11,.29-.12,.31,0h-.31Zm-32.13,15.55c.05,.05,.13,.06,.19,.04h0c0-.09-.16-.12-.2-.04Zm68.43-22.39s.04,.08,0,.08c-.04,0-.04-.08,0-.08Zm4.09-.66s.04,.08,0,.08c-.04,0-.04-.08,0-.08Zm-51.43,8.08s-.07,.07-.02,.08h.03v-.08Zm11.19,9.78s-.02-.1,.02-.08v.09h-.02Zm18.68-9.97s-.1,.03-.06,.06c.03,.03,.1-.03,.06-.06Z" style="fill:#232425; fill-rule:evenodd;"/></svg>